%TF.GenerationSoftware,KiCad,Pcbnew,7.0.5*%
%TF.CreationDate,2024-01-24T02:04:37-05:00*%
%TF.ProjectId,CAMERA_ADAPTER,43414d45-5241-45f4-9144-41505445522e,rev?*%
%TF.SameCoordinates,Original*%
%TF.FileFunction,Paste,Bot*%
%TF.FilePolarity,Positive*%
%FSLAX46Y46*%
G04 Gerber Fmt 4.6, Leading zero omitted, Abs format (unit mm)*
G04 Created by KiCad (PCBNEW 7.0.5) date 2024-01-24 02:04:37*
%MOMM*%
%LPD*%
G01*
G04 APERTURE LIST*
G04 Aperture macros list*
%AMRoundRect*
0 Rectangle with rounded corners*
0 $1 Rounding radius*
0 $2 $3 $4 $5 $6 $7 $8 $9 X,Y pos of 4 corners*
0 Add a 4 corners polygon primitive as box body*
4,1,4,$2,$3,$4,$5,$6,$7,$8,$9,$2,$3,0*
0 Add four circle primitives for the rounded corners*
1,1,$1+$1,$2,$3*
1,1,$1+$1,$4,$5*
1,1,$1+$1,$6,$7*
1,1,$1+$1,$8,$9*
0 Add four rect primitives between the rounded corners*
20,1,$1+$1,$2,$3,$4,$5,0*
20,1,$1+$1,$4,$5,$6,$7,0*
20,1,$1+$1,$6,$7,$8,$9,0*
20,1,$1+$1,$8,$9,$2,$3,0*%
G04 Aperture macros list end*
%ADD10RoundRect,0.160000X-0.197500X-0.160000X0.197500X-0.160000X0.197500X0.160000X-0.197500X0.160000X0*%
%ADD11RoundRect,0.237500X0.287500X0.237500X-0.287500X0.237500X-0.287500X-0.237500X0.287500X-0.237500X0*%
%ADD12RoundRect,0.150000X0.512500X0.150000X-0.512500X0.150000X-0.512500X-0.150000X0.512500X-0.150000X0*%
%ADD13RoundRect,0.160000X0.197500X0.160000X-0.197500X0.160000X-0.197500X-0.160000X0.197500X-0.160000X0*%
%ADD14RoundRect,0.155000X-0.155000X0.212500X-0.155000X-0.212500X0.155000X-0.212500X0.155000X0.212500X0*%
%ADD15RoundRect,0.155000X-0.212500X-0.155000X0.212500X-0.155000X0.212500X0.155000X-0.212500X0.155000X0*%
%ADD16RoundRect,0.237500X-0.250000X-0.237500X0.250000X-0.237500X0.250000X0.237500X-0.250000X0.237500X0*%
%ADD17RoundRect,0.100000X0.637500X0.100000X-0.637500X0.100000X-0.637500X-0.100000X0.637500X-0.100000X0*%
%ADD18RoundRect,0.237500X-0.237500X0.250000X-0.237500X-0.250000X0.237500X-0.250000X0.237500X0.250000X0*%
%ADD19RoundRect,0.237500X0.300000X0.237500X-0.300000X0.237500X-0.300000X-0.237500X0.300000X-0.237500X0*%
%ADD20RoundRect,0.155000X0.155000X-0.212500X0.155000X0.212500X-0.155000X0.212500X-0.155000X-0.212500X0*%
%ADD21RoundRect,0.155000X0.212500X0.155000X-0.212500X0.155000X-0.212500X-0.155000X0.212500X-0.155000X0*%
%ADD22RoundRect,0.237500X0.250000X0.237500X-0.250000X0.237500X-0.250000X-0.237500X0.250000X-0.237500X0*%
G04 APERTURE END LIST*
D10*
%TO.C,R10*%
X160352500Y-96418621D03*
X161547500Y-96418621D03*
%TD*%
D11*
%TO.C,D1*%
X159645000Y-90808621D03*
X157895000Y-90808621D03*
%TD*%
D12*
%TO.C,U4*%
X141375000Y-99943621D03*
X141375000Y-100893621D03*
X141375000Y-101843621D03*
X139100000Y-101843621D03*
X139100000Y-99943621D03*
%TD*%
D13*
%TO.C,R8*%
X141367500Y-109878621D03*
X140172500Y-109878621D03*
%TD*%
D12*
%TO.C,U7*%
X160327500Y-99963621D03*
X160327500Y-100913621D03*
X160327500Y-101863621D03*
X158052500Y-101863621D03*
X158052500Y-99963621D03*
%TD*%
D14*
%TO.C,C9*%
X150960000Y-92963621D03*
X150960000Y-94098621D03*
%TD*%
D12*
%TO.C,U1*%
X156087500Y-89258621D03*
X156087500Y-90208621D03*
X156087500Y-91158621D03*
X153812500Y-91158621D03*
X153812500Y-89258621D03*
%TD*%
D15*
%TO.C,C7*%
X161872500Y-99948621D03*
X163007500Y-99948621D03*
%TD*%
D13*
%TO.C,R9*%
X141367500Y-103228621D03*
X140172500Y-103228621D03*
%TD*%
D12*
%TO.C,U3*%
X141375000Y-93228621D03*
X141375000Y-94178621D03*
X141375000Y-95128621D03*
X139100000Y-95128621D03*
X139100000Y-93228621D03*
%TD*%
D16*
%TO.C,R1*%
X150267500Y-89258621D03*
X152092500Y-89258621D03*
%TD*%
D13*
%TO.C,R5*%
X141367500Y-96418621D03*
X140172500Y-96418621D03*
%TD*%
D17*
%TO.C,U2*%
X153022500Y-100463621D03*
X153022500Y-101113621D03*
X153022500Y-101763621D03*
X153022500Y-102413621D03*
X153022500Y-103063621D03*
X153022500Y-103713621D03*
X153022500Y-104363621D03*
X153022500Y-105013621D03*
X147297500Y-105013621D03*
X147297500Y-104363621D03*
X147297500Y-103713621D03*
X147297500Y-103063621D03*
X147297500Y-102413621D03*
X147297500Y-101763621D03*
X147297500Y-101113621D03*
X147297500Y-100463621D03*
%TD*%
D10*
%TO.C,R6*%
X160322500Y-103218621D03*
X161517500Y-103218621D03*
%TD*%
D18*
%TO.C,R4*%
X148920000Y-97146121D03*
X148920000Y-98971121D03*
%TD*%
D16*
%TO.C,R2*%
X157837500Y-89238621D03*
X159662500Y-89238621D03*
%TD*%
D12*
%TO.C,U8*%
X160327500Y-93258621D03*
X160327500Y-94208621D03*
X160327500Y-95158621D03*
X158052500Y-95158621D03*
X158052500Y-93258621D03*
%TD*%
D19*
%TO.C,C1*%
X152032500Y-91168621D03*
X150307500Y-91168621D03*
%TD*%
D15*
%TO.C,C8*%
X161872500Y-93258621D03*
X163007500Y-93258621D03*
%TD*%
D20*
%TO.C,C3*%
X142830000Y-93233621D03*
X142830000Y-92098621D03*
%TD*%
D19*
%TO.C,C2*%
X147292500Y-98898621D03*
X145567500Y-98898621D03*
%TD*%
D10*
%TO.C,R7*%
X160322500Y-109908621D03*
X161517500Y-109908621D03*
%TD*%
D21*
%TO.C,C5*%
X160325000Y-105428621D03*
X159190000Y-105428621D03*
%TD*%
D12*
%TO.C,U9*%
X149467500Y-92978621D03*
X149467500Y-93928621D03*
X149467500Y-94878621D03*
X147192500Y-94878621D03*
X147192500Y-92978621D03*
%TD*%
D10*
%TO.C,R11*%
X150532500Y-96498621D03*
X151727500Y-96498621D03*
%TD*%
D22*
%TO.C,R3*%
X147312500Y-97348621D03*
X145487500Y-97348621D03*
%TD*%
D21*
%TO.C,C4*%
X141377500Y-98628621D03*
X140242500Y-98628621D03*
%TD*%
D12*
%TO.C,U6*%
X160327500Y-106668621D03*
X160327500Y-107618621D03*
X160327500Y-108568621D03*
X158052500Y-108568621D03*
X158052500Y-106668621D03*
%TD*%
D21*
%TO.C,C6*%
X141385000Y-105428621D03*
X140250000Y-105428621D03*
%TD*%
D12*
%TO.C,U5*%
X141375000Y-106648621D03*
X141375000Y-107598621D03*
X141375000Y-108548621D03*
X139100000Y-108548621D03*
X139100000Y-106648621D03*
%TD*%
M02*
