%TF.GenerationSoftware,KiCad,Pcbnew,7.0.5*%
%TF.CreationDate,2024-01-24T02:04:37-05:00*%
%TF.ProjectId,CAMERA_ADAPTER,43414d45-5241-45f4-9144-41505445522e,rev?*%
%TF.SameCoordinates,Original*%
%TF.FileFunction,Soldermask,Top*%
%TF.FilePolarity,Negative*%
%FSLAX46Y46*%
G04 Gerber Fmt 4.6, Leading zero omitted, Abs format (unit mm)*
G04 Created by KiCad (PCBNEW 7.0.5) date 2024-01-24 02:04:37*
%MOMM*%
%LPD*%
G01*
G04 APERTURE LIST*
G04 Aperture macros list*
%AMRoundRect*
0 Rectangle with rounded corners*
0 $1 Rounding radius*
0 $2 $3 $4 $5 $6 $7 $8 $9 X,Y pos of 4 corners*
0 Add a 4 corners polygon primitive as box body*
4,1,4,$2,$3,$4,$5,$6,$7,$8,$9,$2,$3,0*
0 Add four circle primitives for the rounded corners*
1,1,$1+$1,$2,$3*
1,1,$1+$1,$4,$5*
1,1,$1+$1,$6,$7*
1,1,$1+$1,$8,$9*
0 Add four rect primitives between the rounded corners*
20,1,$1+$1,$2,$3,$4,$5,0*
20,1,$1+$1,$4,$5,$6,$7,0*
20,1,$1+$1,$6,$7,$8,$9,0*
20,1,$1+$1,$8,$9,$2,$3,0*%
%AMHorizOval*
0 Thick line with rounded ends*
0 $1 width*
0 $2 $3 position (X,Y) of the first rounded end (center of the circle)*
0 $4 $5 position (X,Y) of the second rounded end (center of the circle)*
0 Add line between two ends*
20,1,$1,$2,$3,$4,$5,0*
0 Add two circle primitives to create the rounded ends*
1,1,$1,$2,$3*
1,1,$1,$4,$5*%
%AMRotRect*
0 Rectangle, with rotation*
0 The origin of the aperture is its center*
0 $1 length*
0 $2 width*
0 $3 Rotation angle, in degrees counterclockwise*
0 Add horizontal line*
21,1,$1,$2,0,0,$3*%
G04 Aperture macros list end*
%ADD10RoundRect,0.150000X-0.150000X-0.625000X0.150000X-0.625000X0.150000X0.625000X-0.150000X0.625000X0*%
%ADD11RoundRect,0.250000X-0.350000X-0.650000X0.350000X-0.650000X0.350000X0.650000X-0.350000X0.650000X0*%
%ADD12R,1.700000X1.700000*%
%ADD13O,1.700000X1.700000*%
%ADD14RotRect,1.350000X1.350000X240.000000*%
%ADD15HorizOval,1.350000X0.000000X0.000000X0.000000X0.000000X0*%
G04 APERTURE END LIST*
D10*
%TO.C,J3*%
X139160000Y-95698621D03*
X140160000Y-95698621D03*
X141160000Y-95698621D03*
X142160000Y-95698621D03*
X143160000Y-95698621D03*
X144160000Y-95698621D03*
D11*
X137860000Y-93173621D03*
X145460000Y-93173621D03*
%TD*%
D10*
%TO.C,J5*%
X139160000Y-109023621D03*
X140160000Y-109023621D03*
X141160000Y-109023621D03*
X142160000Y-109023621D03*
X143160000Y-109023621D03*
X144160000Y-109023621D03*
D11*
X137860000Y-106498621D03*
X145460000Y-106498621D03*
%TD*%
D10*
%TO.C,J6*%
X155910000Y-95698621D03*
X156910000Y-95698621D03*
X157910000Y-95698621D03*
X158910000Y-95698621D03*
X159910000Y-95698621D03*
X160910000Y-95698621D03*
D11*
X154610000Y-93173621D03*
X162210000Y-93173621D03*
%TD*%
D12*
%TO.C,J1*%
X143810000Y-86465599D03*
D13*
X143810000Y-83925599D03*
X146350000Y-86465599D03*
X146350000Y-83925599D03*
X148890000Y-86465599D03*
X148890000Y-83925599D03*
X151430000Y-86465599D03*
X151430000Y-83925599D03*
X153970000Y-86465599D03*
X153970000Y-83925599D03*
X156510000Y-86465599D03*
X156510000Y-83925599D03*
%TD*%
D10*
%TO.C,J4*%
X139160000Y-102361121D03*
X140160000Y-102361121D03*
X141160000Y-102361121D03*
X142160000Y-102361121D03*
X143160000Y-102361121D03*
X144160000Y-102361121D03*
D11*
X137860000Y-99836121D03*
X145460000Y-99836121D03*
%TD*%
D12*
%TO.C,J2*%
X156510000Y-113743621D03*
D13*
X156510000Y-116283621D03*
X153970000Y-113743621D03*
X153970000Y-116283621D03*
X151430000Y-113743621D03*
X151430000Y-116283621D03*
X148890000Y-113743621D03*
X148890000Y-116283621D03*
X146350000Y-113743621D03*
X146350000Y-116283621D03*
X143810000Y-113743621D03*
X143810000Y-116283621D03*
%TD*%
D14*
%TO.C,J9*%
X163130000Y-86528621D03*
D15*
X161397949Y-85528621D03*
%TD*%
D10*
%TO.C,J8*%
X155910000Y-109023621D03*
X156910000Y-109023621D03*
X157910000Y-109023621D03*
X158910000Y-109023621D03*
X159910000Y-109023621D03*
X160910000Y-109023621D03*
D11*
X154610000Y-106498621D03*
X162210000Y-106498621D03*
%TD*%
D10*
%TO.C,J7*%
X155910000Y-102361121D03*
X156910000Y-102361121D03*
X157910000Y-102361121D03*
X158910000Y-102361121D03*
X159910000Y-102361121D03*
X160910000Y-102361121D03*
D11*
X154610000Y-99836121D03*
X162210000Y-99836121D03*
%TD*%
M02*
