%TF.GenerationSoftware,KiCad,Pcbnew,7.0.5*%
%TF.CreationDate,2024-01-24T02:04:39-05:00*%
%TF.ProjectId,CAMERA_ADAPTER,43414d45-5241-45f4-9144-41505445522e,rev?*%
%TF.SameCoordinates,Original*%
%TF.FileFunction,Drillmap*%
%TF.FilePolarity,Positive*%
%FSLAX45Y45*%
G04 Gerber Fmt 4.5, Leading zero omitted, Abs format (unit mm)*
G04 Created by KiCad (PCBNEW 7.0.5) date 2024-01-24 02:04:39*
%MOMM*%
%LPD*%
G01*
G04 APERTURE LIST*
%ADD10C,0.100000*%
%ADD11C,0.200000*%
%ADD12C,0.033020*%
%ADD13C,0.038100*%
%ADD14C,0.080000*%
G04 APERTURE END LIST*
D10*
X13016000Y-8855761D02*
X13016000Y-11165162D01*
X16926000Y-11049692D02*
G75*
G03*
X16926000Y-11049692I-110000J0D01*
G01*
X14033069Y-8571931D02*
G75*
G03*
X14033069Y-8571931I-152069J0D01*
G01*
X13016000Y-11165162D02*
X15016000Y-12319862D01*
X16926000Y-8971231D02*
G75*
G03*
X16926000Y-8971231I-110000J0D01*
G01*
X13326000Y-8971231D02*
G75*
G03*
X13326000Y-8971231I-110000J0D01*
G01*
X13116000Y-9660461D02*
X13416000Y-9660461D01*
X13416000Y-10360461D01*
X13116000Y-10360461D01*
X13116000Y-9660461D01*
X15016000Y-7701060D02*
X13016000Y-8855761D01*
X17016000Y-8855761D02*
X15016000Y-7701060D01*
X16976000Y-9652362D02*
G75*
G03*
X16976000Y-9652362I-152069J0D01*
G01*
X15126000Y-7932000D02*
G75*
G03*
X15126000Y-7932000I-110000J0D01*
G01*
X15126000Y-12088922D02*
G75*
G03*
X15126000Y-12088922I-110000J0D01*
G01*
X17016000Y-11165162D02*
X17016000Y-8855761D01*
X15016000Y-12319862D02*
X17016000Y-11165162D01*
X13326000Y-11049692D02*
G75*
G03*
X13326000Y-11049692I-110000J0D01*
G01*
D11*
D12*
X13149490Y-9253352D02*
X13182510Y-9286372D01*
X13182510Y-9253352D02*
X13149490Y-9286372D01*
X13174490Y-9503352D02*
X13207510Y-9536372D01*
X13207510Y-9503352D02*
X13174490Y-9536372D01*
X13174490Y-10528352D02*
X13207510Y-10561372D01*
X13207510Y-10528352D02*
X13174490Y-10561372D01*
X13224490Y-10728352D02*
X13257510Y-10761372D01*
X13257510Y-10728352D02*
X13224490Y-10761372D01*
X13349490Y-9353352D02*
X13382510Y-9386372D01*
X13382510Y-9353352D02*
X13349490Y-9386372D01*
X13424490Y-10678352D02*
X13457510Y-10711372D01*
X13457510Y-10678352D02*
X13424490Y-10711372D01*
X13499490Y-9003352D02*
X13532510Y-9036372D01*
X13532510Y-9003352D02*
X13499490Y-9036372D01*
X13499490Y-11203352D02*
X13532510Y-11236372D01*
X13532510Y-11203352D02*
X13499490Y-11236372D01*
X13524490Y-10453352D02*
X13557510Y-10486372D01*
X13557510Y-10453352D02*
X13524490Y-10486372D01*
X13549490Y-10878352D02*
X13582510Y-10911372D01*
X13582510Y-10878352D02*
X13549490Y-10911372D01*
X13574490Y-9728352D02*
X13607510Y-9761372D01*
X13607510Y-9728352D02*
X13574490Y-9761372D01*
X13624490Y-11403352D02*
X13657510Y-11436372D01*
X13657510Y-11403352D02*
X13624490Y-11436372D01*
X13649490Y-8778352D02*
X13682510Y-8811372D01*
X13682510Y-8778352D02*
X13649490Y-8811372D01*
X13774490Y-11153352D02*
X13807510Y-11186372D01*
X13807510Y-11153352D02*
X13774490Y-11186372D01*
X13799490Y-9028352D02*
X13832510Y-9061372D01*
X13832510Y-9028352D02*
X13799490Y-9061372D01*
X13809490Y-9643352D02*
X13842510Y-9676372D01*
X13842510Y-9643352D02*
X13809490Y-9676372D01*
X13849490Y-11353352D02*
X13882510Y-11386372D01*
X13882510Y-11353352D02*
X13849490Y-11386372D01*
X13879490Y-9843352D02*
X13912510Y-9876372D01*
X13912510Y-9843352D02*
X13879490Y-9876372D01*
X13909490Y-10073352D02*
X13942510Y-10106372D01*
X13942510Y-10073352D02*
X13909490Y-10106372D01*
X13919490Y-9403352D02*
X13952510Y-9436372D01*
X13952510Y-9403352D02*
X13919490Y-9436372D01*
X14049490Y-11603352D02*
X14082510Y-11636372D01*
X14082510Y-11603352D02*
X14049490Y-11636372D01*
X14074490Y-8928352D02*
X14107510Y-8961372D01*
X14107510Y-8928352D02*
X14074490Y-8961372D01*
X14129490Y-8683352D02*
X14162510Y-8716372D01*
X14162510Y-8683352D02*
X14129490Y-8716372D01*
X14149490Y-9083352D02*
X14182510Y-9116372D01*
X14182510Y-9083352D02*
X14149490Y-9116372D01*
X14159490Y-11160352D02*
X14192510Y-11193372D01*
X14192510Y-11160352D02*
X14159490Y-11193372D01*
X14268490Y-11109352D02*
X14301510Y-11142372D01*
X14301510Y-11109352D02*
X14268490Y-11142372D01*
X14269490Y-10683352D02*
X14302510Y-10716372D01*
X14302510Y-10683352D02*
X14269490Y-10716372D01*
X14279490Y-10513352D02*
X14312510Y-10546372D01*
X14312510Y-10513352D02*
X14279490Y-10546372D01*
X14369490Y-9963352D02*
X14402510Y-9996372D01*
X14402510Y-9963352D02*
X14369490Y-9996372D01*
X14372490Y-11056352D02*
X14405510Y-11089372D01*
X14405510Y-11056352D02*
X14372490Y-11089372D01*
X14399490Y-8203352D02*
X14432510Y-8236372D01*
X14432510Y-8203352D02*
X14399490Y-8236372D01*
X14399490Y-10353352D02*
X14432510Y-10386372D01*
X14432510Y-10353352D02*
X14399490Y-10386372D01*
X14399490Y-11803352D02*
X14432510Y-11836372D01*
X14432510Y-11803352D02*
X14399490Y-11836372D01*
X14429490Y-9093352D02*
X14462510Y-9126372D01*
X14462510Y-9093352D02*
X14429490Y-9126372D01*
X14429490Y-10513352D02*
X14462510Y-10546372D01*
X14462510Y-10513352D02*
X14429490Y-10546372D01*
X14540490Y-9870352D02*
X14573510Y-9903372D01*
X14573510Y-9870352D02*
X14540490Y-9903372D01*
X14549490Y-9003352D02*
X14582510Y-9036372D01*
X14582510Y-9003352D02*
X14549490Y-9036372D01*
X14549490Y-9503352D02*
X14582510Y-9536372D01*
X14582510Y-9503352D02*
X14549490Y-9536372D01*
X14553490Y-9977352D02*
X14586510Y-10010372D01*
X14586510Y-9977352D02*
X14553490Y-10010372D01*
X14559490Y-10193352D02*
X14592510Y-10226372D01*
X14592510Y-10193352D02*
X14559490Y-10226372D01*
X14589490Y-8853352D02*
X14622510Y-8886372D01*
X14622510Y-8853352D02*
X14589490Y-8886372D01*
X14599490Y-8003352D02*
X14632510Y-8036372D01*
X14632510Y-8003352D02*
X14599490Y-8036372D01*
X14599490Y-8203352D02*
X14632510Y-8236372D01*
X14632510Y-8203352D02*
X14599490Y-8236372D01*
X14599490Y-11053352D02*
X14632510Y-11086372D01*
X14632510Y-11053352D02*
X14599490Y-11086372D01*
X14599490Y-11803352D02*
X14632510Y-11836372D01*
X14632510Y-11803352D02*
X14599490Y-11836372D01*
X14599490Y-11953352D02*
X14632510Y-11986372D01*
X14632510Y-11953352D02*
X14599490Y-11986372D01*
X14659490Y-10813352D02*
X14692510Y-10846372D01*
X14692510Y-10813352D02*
X14659490Y-10846372D01*
X14749490Y-10643352D02*
X14782510Y-10676372D01*
X14782510Y-10643352D02*
X14749490Y-10676372D01*
X14766990Y-9588352D02*
X14800010Y-9621372D01*
X14800010Y-9588352D02*
X14766990Y-9621372D01*
X14789490Y-8843352D02*
X14822510Y-8876372D01*
X14822510Y-8843352D02*
X14789490Y-8876372D01*
X14789490Y-10923352D02*
X14822510Y-10956372D01*
X14822510Y-10923352D02*
X14789490Y-10956372D01*
X14799490Y-8203352D02*
X14832510Y-8236372D01*
X14832510Y-8203352D02*
X14799490Y-8236372D01*
X14799490Y-8983352D02*
X14832510Y-9016372D01*
X14832510Y-8983352D02*
X14799490Y-9016372D01*
X14799490Y-11803352D02*
X14832510Y-11836372D01*
X14832510Y-11803352D02*
X14799490Y-11836372D01*
X14859490Y-10213352D02*
X14892510Y-10246372D01*
X14892510Y-10213352D02*
X14859490Y-10246372D01*
X14869490Y-10373352D02*
X14902510Y-10406372D01*
X14902510Y-10373352D02*
X14869490Y-10406372D01*
X14920490Y-11034352D02*
X14953510Y-11067372D01*
X14953510Y-11034352D02*
X14920490Y-11067372D01*
X14925490Y-10643352D02*
X14958510Y-10676372D01*
X14958510Y-10643352D02*
X14925490Y-10676372D01*
X14932490Y-9376352D02*
X14965510Y-9409372D01*
X14965510Y-9376352D02*
X14932490Y-9409372D01*
X14959490Y-10813352D02*
X14992510Y-10846372D01*
X14992510Y-10813352D02*
X14959490Y-10846372D01*
X14979490Y-8763352D02*
X15012510Y-8796372D01*
X15012510Y-8763352D02*
X14979490Y-8796372D01*
X14979490Y-10273352D02*
X15012510Y-10306372D01*
X15012510Y-10273352D02*
X14979490Y-10306372D01*
X14979490Y-10463352D02*
X15012510Y-10496372D01*
X15012510Y-10463352D02*
X14979490Y-10496372D01*
X14980490Y-10098352D02*
X15013510Y-10131372D01*
X15013510Y-10098352D02*
X14980490Y-10131372D01*
X14983490Y-9880352D02*
X15016510Y-9913372D01*
X15016510Y-9880352D02*
X14983490Y-9913372D01*
X14999490Y-8203352D02*
X15032510Y-8236372D01*
X15032510Y-8203352D02*
X14999490Y-8236372D01*
X14999490Y-11803352D02*
X15032510Y-11836372D01*
X15032510Y-11803352D02*
X14999490Y-11836372D01*
X15059490Y-10926352D02*
X15092510Y-10959372D01*
X15092510Y-10926352D02*
X15059490Y-10959372D01*
X15159490Y-9513352D02*
X15192510Y-9546372D01*
X15192510Y-9513352D02*
X15159490Y-9546372D01*
X15185490Y-9102352D02*
X15218510Y-9135372D01*
X15218510Y-9102352D02*
X15185490Y-9135372D01*
X15194490Y-10643352D02*
X15227510Y-10676372D01*
X15227510Y-10643352D02*
X15194490Y-10676372D01*
X15199490Y-8203352D02*
X15232510Y-8236372D01*
X15232510Y-8203352D02*
X15199490Y-8236372D01*
X15199490Y-9878352D02*
X15232510Y-9911372D01*
X15232510Y-9878352D02*
X15199490Y-9911372D01*
X15199490Y-11803352D02*
X15232510Y-11836372D01*
X15232510Y-11803352D02*
X15199490Y-11836372D01*
X15254490Y-11037352D02*
X15287510Y-11070372D01*
X15287510Y-11037352D02*
X15254490Y-11070372D01*
X15259490Y-8713352D02*
X15292510Y-8746372D01*
X15292510Y-8713352D02*
X15259490Y-8746372D01*
X15309490Y-9463352D02*
X15342510Y-9496372D01*
X15342510Y-9463352D02*
X15309490Y-9496372D01*
X15399490Y-8003352D02*
X15432510Y-8036372D01*
X15432510Y-8003352D02*
X15399490Y-8036372D01*
X15399490Y-8203352D02*
X15432510Y-8236372D01*
X15432510Y-8203352D02*
X15399490Y-8236372D01*
X15399490Y-11803352D02*
X15432510Y-11836372D01*
X15432510Y-11803352D02*
X15399490Y-11836372D01*
X15399490Y-11953352D02*
X15432510Y-11986372D01*
X15432510Y-11953352D02*
X15399490Y-11986372D01*
X15404490Y-10820352D02*
X15437510Y-10853372D01*
X15437510Y-10820352D02*
X15404490Y-10853372D01*
X15425490Y-10947352D02*
X15458510Y-10980372D01*
X15458510Y-10947352D02*
X15425490Y-10980372D01*
X15437490Y-10639352D02*
X15470510Y-10672372D01*
X15470510Y-10639352D02*
X15437490Y-10672372D01*
X15449490Y-9753352D02*
X15482510Y-9786372D01*
X15482510Y-9753352D02*
X15449490Y-9786372D01*
X15585490Y-10515352D02*
X15618510Y-10548372D01*
X15618510Y-10515352D02*
X15585490Y-10548372D01*
X15589490Y-8813352D02*
X15622510Y-8846372D01*
X15622510Y-8813352D02*
X15589490Y-8846372D01*
X15599490Y-8203352D02*
X15632510Y-8236372D01*
X15632510Y-8203352D02*
X15599490Y-8236372D01*
X15599490Y-11803352D02*
X15632510Y-11836372D01*
X15632510Y-11803352D02*
X15599490Y-11836372D01*
X15776490Y-9062352D02*
X15809510Y-9095372D01*
X15809510Y-9062352D02*
X15776490Y-9095372D01*
X15899490Y-8378352D02*
X15932510Y-8411372D01*
X15932510Y-8378352D02*
X15899490Y-8411372D01*
X15919490Y-8523352D02*
X15952510Y-8556372D01*
X15952510Y-8523352D02*
X15919490Y-8556372D01*
X15924490Y-11303352D02*
X15957510Y-11336372D01*
X15957510Y-11303352D02*
X15924490Y-11336372D01*
X15949490Y-8728352D02*
X15982510Y-8761372D01*
X15982510Y-8728352D02*
X15949490Y-8761372D01*
X15949490Y-10433352D02*
X15982510Y-10466372D01*
X15982510Y-10433352D02*
X15949490Y-10466372D01*
X15959490Y-9763352D02*
X15992510Y-9796372D01*
X15992510Y-9763352D02*
X15959490Y-9796372D01*
X16024490Y-11153352D02*
X16057510Y-11186372D01*
X16057510Y-11153352D02*
X16024490Y-11186372D01*
X16049490Y-11528352D02*
X16082510Y-11561372D01*
X16082510Y-11528352D02*
X16049490Y-11561372D01*
X16079490Y-9763352D02*
X16112510Y-9796372D01*
X16112510Y-9763352D02*
X16079490Y-9796372D01*
X16159490Y-10353352D02*
X16192510Y-10386372D01*
X16192510Y-10353352D02*
X16159490Y-10386372D01*
X16219490Y-10843352D02*
X16252510Y-10876372D01*
X16252510Y-10843352D02*
X16219490Y-10876372D01*
X16269490Y-10963352D02*
X16302510Y-10996372D01*
X16302510Y-10963352D02*
X16269490Y-10996372D01*
X16274490Y-8953352D02*
X16307510Y-8986372D01*
X16307510Y-8953352D02*
X16274490Y-8986372D01*
X16274490Y-11353352D02*
X16307510Y-11386372D01*
X16307510Y-11353352D02*
X16274490Y-11386372D01*
X16349490Y-9153352D02*
X16382510Y-9186372D01*
X16382510Y-9153352D02*
X16349490Y-9186372D01*
X16424490Y-11178352D02*
X16457510Y-11211372D01*
X16457510Y-11178352D02*
X16424490Y-11211372D01*
X16474490Y-9453352D02*
X16507510Y-9486372D01*
X16507510Y-9453352D02*
X16474490Y-9486372D01*
X16474490Y-9828352D02*
X16507510Y-9861372D01*
X16507510Y-9828352D02*
X16474490Y-9861372D01*
X16499490Y-10128352D02*
X16532510Y-10161372D01*
X16532510Y-10128352D02*
X16499490Y-10161372D01*
X16499490Y-10403352D02*
X16532510Y-10436372D01*
X16532510Y-10403352D02*
X16499490Y-10436372D01*
X16499490Y-10603352D02*
X16532510Y-10636372D01*
X16532510Y-10603352D02*
X16499490Y-10636372D01*
X16524490Y-8953352D02*
X16557510Y-8986372D01*
X16557510Y-8953352D02*
X16524490Y-8986372D01*
X16524490Y-10878352D02*
X16557510Y-10911372D01*
X16557510Y-10878352D02*
X16524490Y-10911372D01*
X16549490Y-9203352D02*
X16582510Y-9236372D01*
X16582510Y-9203352D02*
X16549490Y-9236372D01*
X16599490Y-8773352D02*
X16632510Y-8806372D01*
X16632510Y-8773352D02*
X16599490Y-8806372D01*
X16749490Y-9978352D02*
X16782510Y-10011372D01*
X16782510Y-9978352D02*
X16749490Y-10011372D01*
X16749490Y-10203352D02*
X16782510Y-10236372D01*
X16782510Y-10203352D02*
X16749490Y-10236372D01*
X16749490Y-10728352D02*
X16782510Y-10761372D01*
X16782510Y-10728352D02*
X16749490Y-10761372D01*
X16774490Y-9353352D02*
X16807510Y-9386372D01*
X16807510Y-9353352D02*
X16774490Y-9386372D01*
X16774490Y-10428352D02*
X16807510Y-10461372D01*
X16807510Y-10428352D02*
X16774490Y-10461372D01*
D13*
X13746050Y-9492862D02*
G75*
G03*
X13746050Y-9492862I-19050J0D01*
G01*
X13747050Y-10152862D02*
G75*
G03*
X13747050Y-10152862I-19050J0D01*
G01*
X13747050Y-10842862D02*
G75*
G03*
X13747050Y-10842862I-19050J0D01*
G01*
X15585050Y-9618862D02*
G75*
G03*
X15585050Y-9618862I-19050J0D01*
G01*
X15596050Y-10929862D02*
G75*
G03*
X15596050Y-10929862I-19050J0D01*
G01*
X15601050Y-10269862D02*
G75*
G03*
X15601050Y-10269862I-19050J0D01*
G01*
D14*
X16139795Y-8512862D02*
X16139795Y-8592862D01*
X16099795Y-8552862D02*
X16179795Y-8552862D01*
X16313000Y-8612862D02*
X16313000Y-8692862D01*
X16273000Y-8652862D02*
X16353000Y-8652862D01*
D10*
X14416356Y-8427916D02*
X14416356Y-8357204D01*
X14345644Y-8357204D01*
X14345644Y-8427916D01*
X14416356Y-8427916D01*
X14416356Y-8681916D02*
X14416356Y-8611204D01*
X14345644Y-8611204D01*
X14345644Y-8681916D01*
X14416356Y-8681916D01*
X14416356Y-11409718D02*
X14416356Y-11339006D01*
X14345644Y-11339006D01*
X14345644Y-11409718D01*
X14416356Y-11409718D01*
X14416356Y-11663718D02*
X14416356Y-11593006D01*
X14345644Y-11593006D01*
X14345644Y-11663718D01*
X14416356Y-11663718D01*
X14670356Y-8427916D02*
X14670356Y-8357204D01*
X14599644Y-8357204D01*
X14599644Y-8427916D01*
X14670356Y-8427916D01*
X14670356Y-8681916D02*
X14670356Y-8611204D01*
X14599644Y-8611204D01*
X14599644Y-8681916D01*
X14670356Y-8681916D01*
X14670356Y-11409718D02*
X14670356Y-11339006D01*
X14599644Y-11339006D01*
X14599644Y-11409718D01*
X14670356Y-11409718D01*
X14670356Y-11663718D02*
X14670356Y-11593006D01*
X14599644Y-11593006D01*
X14599644Y-11663718D01*
X14670356Y-11663718D01*
X14924356Y-8427916D02*
X14924356Y-8357204D01*
X14853644Y-8357204D01*
X14853644Y-8427916D01*
X14924356Y-8427916D01*
X14924356Y-8681916D02*
X14924356Y-8611204D01*
X14853644Y-8611204D01*
X14853644Y-8681916D01*
X14924356Y-8681916D01*
X14924356Y-11409718D02*
X14924356Y-11339006D01*
X14853644Y-11339006D01*
X14853644Y-11409718D01*
X14924356Y-11409718D01*
X14924356Y-11663718D02*
X14924356Y-11593006D01*
X14853644Y-11593006D01*
X14853644Y-11663718D01*
X14924356Y-11663718D01*
X15178356Y-8427916D02*
X15178356Y-8357204D01*
X15107644Y-8357204D01*
X15107644Y-8427916D01*
X15178356Y-8427916D01*
X15178356Y-8681916D02*
X15178356Y-8611204D01*
X15107644Y-8611204D01*
X15107644Y-8681916D01*
X15178356Y-8681916D01*
X15178356Y-11409718D02*
X15178356Y-11339006D01*
X15107644Y-11339006D01*
X15107644Y-11409718D01*
X15178356Y-11409718D01*
X15178356Y-11663718D02*
X15178356Y-11593006D01*
X15107644Y-11593006D01*
X15107644Y-11663718D01*
X15178356Y-11663718D01*
X15432356Y-8427916D02*
X15432356Y-8357204D01*
X15361644Y-8357204D01*
X15361644Y-8427916D01*
X15432356Y-8427916D01*
X15432356Y-8681916D02*
X15432356Y-8611204D01*
X15361644Y-8611204D01*
X15361644Y-8681916D01*
X15432356Y-8681916D01*
X15432356Y-11409718D02*
X15432356Y-11339006D01*
X15361644Y-11339006D01*
X15361644Y-11409718D01*
X15432356Y-11409718D01*
X15432356Y-11663718D02*
X15432356Y-11593006D01*
X15361644Y-11593006D01*
X15361644Y-11663718D01*
X15432356Y-11663718D01*
X15686356Y-8427916D02*
X15686356Y-8357204D01*
X15615644Y-8357204D01*
X15615644Y-8427916D01*
X15686356Y-8427916D01*
X15686356Y-8681916D02*
X15686356Y-8611204D01*
X15615644Y-8611204D01*
X15615644Y-8681916D01*
X15686356Y-8681916D01*
X15686356Y-11409718D02*
X15686356Y-11339006D01*
X15615644Y-11339006D01*
X15615644Y-11409718D01*
X15686356Y-11409718D01*
X15686356Y-11663718D02*
X15686356Y-11593006D01*
X15615644Y-11593006D01*
X15615644Y-11663718D01*
X15686356Y-11663718D01*
D11*
X13271777Y-12636346D02*
X13271777Y-12436346D01*
X13271777Y-12436346D02*
X13319396Y-12436346D01*
X13319396Y-12436346D02*
X13347967Y-12445870D01*
X13347967Y-12445870D02*
X13367015Y-12464917D01*
X13367015Y-12464917D02*
X13376539Y-12483965D01*
X13376539Y-12483965D02*
X13386062Y-12522060D01*
X13386062Y-12522060D02*
X13386062Y-12550632D01*
X13386062Y-12550632D02*
X13376539Y-12588727D01*
X13376539Y-12588727D02*
X13367015Y-12607774D01*
X13367015Y-12607774D02*
X13347967Y-12626822D01*
X13347967Y-12626822D02*
X13319396Y-12636346D01*
X13319396Y-12636346D02*
X13271777Y-12636346D01*
X13471777Y-12636346D02*
X13471777Y-12503012D01*
X13471777Y-12541108D02*
X13481301Y-12522060D01*
X13481301Y-12522060D02*
X13490824Y-12512536D01*
X13490824Y-12512536D02*
X13509872Y-12503012D01*
X13509872Y-12503012D02*
X13528920Y-12503012D01*
X13595586Y-12636346D02*
X13595586Y-12503012D01*
X13595586Y-12436346D02*
X13586062Y-12445870D01*
X13586062Y-12445870D02*
X13595586Y-12455393D01*
X13595586Y-12455393D02*
X13605110Y-12445870D01*
X13605110Y-12445870D02*
X13595586Y-12436346D01*
X13595586Y-12436346D02*
X13595586Y-12455393D01*
X13719396Y-12636346D02*
X13700348Y-12626822D01*
X13700348Y-12626822D02*
X13690824Y-12607774D01*
X13690824Y-12607774D02*
X13690824Y-12436346D01*
X13824158Y-12636346D02*
X13805110Y-12626822D01*
X13805110Y-12626822D02*
X13795586Y-12607774D01*
X13795586Y-12607774D02*
X13795586Y-12436346D01*
X14052729Y-12636346D02*
X14052729Y-12436346D01*
X14052729Y-12436346D02*
X14119396Y-12579203D01*
X14119396Y-12579203D02*
X14186062Y-12436346D01*
X14186062Y-12436346D02*
X14186062Y-12636346D01*
X14367015Y-12636346D02*
X14367015Y-12531584D01*
X14367015Y-12531584D02*
X14357491Y-12512536D01*
X14357491Y-12512536D02*
X14338443Y-12503012D01*
X14338443Y-12503012D02*
X14300348Y-12503012D01*
X14300348Y-12503012D02*
X14281301Y-12512536D01*
X14367015Y-12626822D02*
X14347967Y-12636346D01*
X14347967Y-12636346D02*
X14300348Y-12636346D01*
X14300348Y-12636346D02*
X14281301Y-12626822D01*
X14281301Y-12626822D02*
X14271777Y-12607774D01*
X14271777Y-12607774D02*
X14271777Y-12588727D01*
X14271777Y-12588727D02*
X14281301Y-12569679D01*
X14281301Y-12569679D02*
X14300348Y-12560155D01*
X14300348Y-12560155D02*
X14347967Y-12560155D01*
X14347967Y-12560155D02*
X14367015Y-12550632D01*
X14462253Y-12503012D02*
X14462253Y-12703012D01*
X14462253Y-12512536D02*
X14481301Y-12503012D01*
X14481301Y-12503012D02*
X14519396Y-12503012D01*
X14519396Y-12503012D02*
X14538443Y-12512536D01*
X14538443Y-12512536D02*
X14547967Y-12522060D01*
X14547967Y-12522060D02*
X14557491Y-12541108D01*
X14557491Y-12541108D02*
X14557491Y-12598251D01*
X14557491Y-12598251D02*
X14547967Y-12617298D01*
X14547967Y-12617298D02*
X14538443Y-12626822D01*
X14538443Y-12626822D02*
X14519396Y-12636346D01*
X14519396Y-12636346D02*
X14481301Y-12636346D01*
X14481301Y-12636346D02*
X14462253Y-12626822D01*
X14643205Y-12617298D02*
X14652729Y-12626822D01*
X14652729Y-12626822D02*
X14643205Y-12636346D01*
X14643205Y-12636346D02*
X14633682Y-12626822D01*
X14633682Y-12626822D02*
X14643205Y-12617298D01*
X14643205Y-12617298D02*
X14643205Y-12636346D01*
X14643205Y-12512536D02*
X14652729Y-12522060D01*
X14652729Y-12522060D02*
X14643205Y-12531584D01*
X14643205Y-12531584D02*
X14633682Y-12522060D01*
X14633682Y-12522060D02*
X14643205Y-12512536D01*
X14643205Y-12512536D02*
X14643205Y-12531584D01*
D12*
X12977980Y-12948352D02*
X13011000Y-12981372D01*
X13011000Y-12948352D02*
X12977980Y-12981372D01*
D11*
X13309872Y-12856346D02*
X13328920Y-12856346D01*
X13328920Y-12856346D02*
X13347967Y-12865870D01*
X13347967Y-12865870D02*
X13357491Y-12875393D01*
X13357491Y-12875393D02*
X13367015Y-12894441D01*
X13367015Y-12894441D02*
X13376539Y-12932536D01*
X13376539Y-12932536D02*
X13376539Y-12980155D01*
X13376539Y-12980155D02*
X13367015Y-13018251D01*
X13367015Y-13018251D02*
X13357491Y-13037298D01*
X13357491Y-13037298D02*
X13347967Y-13046822D01*
X13347967Y-13046822D02*
X13328920Y-13056346D01*
X13328920Y-13056346D02*
X13309872Y-13056346D01*
X13309872Y-13056346D02*
X13290824Y-13046822D01*
X13290824Y-13046822D02*
X13281301Y-13037298D01*
X13281301Y-13037298D02*
X13271777Y-13018251D01*
X13271777Y-13018251D02*
X13262253Y-12980155D01*
X13262253Y-12980155D02*
X13262253Y-12932536D01*
X13262253Y-12932536D02*
X13271777Y-12894441D01*
X13271777Y-12894441D02*
X13281301Y-12875393D01*
X13281301Y-12875393D02*
X13290824Y-12865870D01*
X13290824Y-12865870D02*
X13309872Y-12856346D01*
X13462253Y-13037298D02*
X13471777Y-13046822D01*
X13471777Y-13046822D02*
X13462253Y-13056346D01*
X13462253Y-13056346D02*
X13452729Y-13046822D01*
X13452729Y-13046822D02*
X13462253Y-13037298D01*
X13462253Y-13037298D02*
X13462253Y-13056346D01*
X13538443Y-12856346D02*
X13662253Y-12856346D01*
X13662253Y-12856346D02*
X13595586Y-12932536D01*
X13595586Y-12932536D02*
X13624158Y-12932536D01*
X13624158Y-12932536D02*
X13643205Y-12942060D01*
X13643205Y-12942060D02*
X13652729Y-12951584D01*
X13652729Y-12951584D02*
X13662253Y-12970632D01*
X13662253Y-12970632D02*
X13662253Y-13018251D01*
X13662253Y-13018251D02*
X13652729Y-13037298D01*
X13652729Y-13037298D02*
X13643205Y-13046822D01*
X13643205Y-13046822D02*
X13624158Y-13056346D01*
X13624158Y-13056346D02*
X13567015Y-13056346D01*
X13567015Y-13056346D02*
X13547967Y-13046822D01*
X13547967Y-13046822D02*
X13538443Y-13037298D01*
X13728920Y-12856346D02*
X13852729Y-12856346D01*
X13852729Y-12856346D02*
X13786062Y-12932536D01*
X13786062Y-12932536D02*
X13814634Y-12932536D01*
X13814634Y-12932536D02*
X13833682Y-12942060D01*
X13833682Y-12942060D02*
X13843205Y-12951584D01*
X13843205Y-12951584D02*
X13852729Y-12970632D01*
X13852729Y-12970632D02*
X13852729Y-13018251D01*
X13852729Y-13018251D02*
X13843205Y-13037298D01*
X13843205Y-13037298D02*
X13833682Y-13046822D01*
X13833682Y-13046822D02*
X13814634Y-13056346D01*
X13814634Y-13056346D02*
X13757491Y-13056346D01*
X13757491Y-13056346D02*
X13738443Y-13046822D01*
X13738443Y-13046822D02*
X13728920Y-13037298D01*
X13976539Y-12856346D02*
X13995586Y-12856346D01*
X13995586Y-12856346D02*
X14014634Y-12865870D01*
X14014634Y-12865870D02*
X14024158Y-12875393D01*
X14024158Y-12875393D02*
X14033682Y-12894441D01*
X14033682Y-12894441D02*
X14043205Y-12932536D01*
X14043205Y-12932536D02*
X14043205Y-12980155D01*
X14043205Y-12980155D02*
X14033682Y-13018251D01*
X14033682Y-13018251D02*
X14024158Y-13037298D01*
X14024158Y-13037298D02*
X14014634Y-13046822D01*
X14014634Y-13046822D02*
X13995586Y-13056346D01*
X13995586Y-13056346D02*
X13976539Y-13056346D01*
X13976539Y-13056346D02*
X13957491Y-13046822D01*
X13957491Y-13046822D02*
X13947967Y-13037298D01*
X13947967Y-13037298D02*
X13938443Y-13018251D01*
X13938443Y-13018251D02*
X13928920Y-12980155D01*
X13928920Y-12980155D02*
X13928920Y-12932536D01*
X13928920Y-12932536D02*
X13938443Y-12894441D01*
X13938443Y-12894441D02*
X13947967Y-12875393D01*
X13947967Y-12875393D02*
X13957491Y-12865870D01*
X13957491Y-12865870D02*
X13976539Y-12856346D01*
X14128920Y-13056346D02*
X14128920Y-12923012D01*
X14128920Y-12942060D02*
X14138443Y-12932536D01*
X14138443Y-12932536D02*
X14157491Y-12923012D01*
X14157491Y-12923012D02*
X14186063Y-12923012D01*
X14186063Y-12923012D02*
X14205110Y-12932536D01*
X14205110Y-12932536D02*
X14214634Y-12951584D01*
X14214634Y-12951584D02*
X14214634Y-13056346D01*
X14214634Y-12951584D02*
X14224158Y-12932536D01*
X14224158Y-12932536D02*
X14243205Y-12923012D01*
X14243205Y-12923012D02*
X14271777Y-12923012D01*
X14271777Y-12923012D02*
X14290824Y-12932536D01*
X14290824Y-12932536D02*
X14300348Y-12951584D01*
X14300348Y-12951584D02*
X14300348Y-13056346D01*
X14395586Y-13056346D02*
X14395586Y-12923012D01*
X14395586Y-12942060D02*
X14405110Y-12932536D01*
X14405110Y-12932536D02*
X14424158Y-12923012D01*
X14424158Y-12923012D02*
X14452729Y-12923012D01*
X14452729Y-12923012D02*
X14471777Y-12932536D01*
X14471777Y-12932536D02*
X14481301Y-12951584D01*
X14481301Y-12951584D02*
X14481301Y-13056346D01*
X14481301Y-12951584D02*
X14490824Y-12932536D01*
X14490824Y-12932536D02*
X14509872Y-12923012D01*
X14509872Y-12923012D02*
X14538443Y-12923012D01*
X14538443Y-12923012D02*
X14557491Y-12932536D01*
X14557491Y-12932536D02*
X14567015Y-12951584D01*
X14567015Y-12951584D02*
X14567015Y-13056346D01*
X14957491Y-12846822D02*
X14786063Y-13103965D01*
X15214634Y-12856346D02*
X15233682Y-12856346D01*
X15233682Y-12856346D02*
X15252729Y-12865870D01*
X15252729Y-12865870D02*
X15262253Y-12875393D01*
X15262253Y-12875393D02*
X15271777Y-12894441D01*
X15271777Y-12894441D02*
X15281301Y-12932536D01*
X15281301Y-12932536D02*
X15281301Y-12980155D01*
X15281301Y-12980155D02*
X15271777Y-13018251D01*
X15271777Y-13018251D02*
X15262253Y-13037298D01*
X15262253Y-13037298D02*
X15252729Y-13046822D01*
X15252729Y-13046822D02*
X15233682Y-13056346D01*
X15233682Y-13056346D02*
X15214634Y-13056346D01*
X15214634Y-13056346D02*
X15195586Y-13046822D01*
X15195586Y-13046822D02*
X15186063Y-13037298D01*
X15186063Y-13037298D02*
X15176539Y-13018251D01*
X15176539Y-13018251D02*
X15167015Y-12980155D01*
X15167015Y-12980155D02*
X15167015Y-12932536D01*
X15167015Y-12932536D02*
X15176539Y-12894441D01*
X15176539Y-12894441D02*
X15186063Y-12875393D01*
X15186063Y-12875393D02*
X15195586Y-12865870D01*
X15195586Y-12865870D02*
X15214634Y-12856346D01*
X15367015Y-13037298D02*
X15376539Y-13046822D01*
X15376539Y-13046822D02*
X15367015Y-13056346D01*
X15367015Y-13056346D02*
X15357491Y-13046822D01*
X15357491Y-13046822D02*
X15367015Y-13037298D01*
X15367015Y-13037298D02*
X15367015Y-13056346D01*
X15500348Y-12856346D02*
X15519396Y-12856346D01*
X15519396Y-12856346D02*
X15538444Y-12865870D01*
X15538444Y-12865870D02*
X15547967Y-12875393D01*
X15547967Y-12875393D02*
X15557491Y-12894441D01*
X15557491Y-12894441D02*
X15567015Y-12932536D01*
X15567015Y-12932536D02*
X15567015Y-12980155D01*
X15567015Y-12980155D02*
X15557491Y-13018251D01*
X15557491Y-13018251D02*
X15547967Y-13037298D01*
X15547967Y-13037298D02*
X15538444Y-13046822D01*
X15538444Y-13046822D02*
X15519396Y-13056346D01*
X15519396Y-13056346D02*
X15500348Y-13056346D01*
X15500348Y-13056346D02*
X15481301Y-13046822D01*
X15481301Y-13046822D02*
X15471777Y-13037298D01*
X15471777Y-13037298D02*
X15462253Y-13018251D01*
X15462253Y-13018251D02*
X15452729Y-12980155D01*
X15452729Y-12980155D02*
X15452729Y-12932536D01*
X15452729Y-12932536D02*
X15462253Y-12894441D01*
X15462253Y-12894441D02*
X15471777Y-12875393D01*
X15471777Y-12875393D02*
X15481301Y-12865870D01*
X15481301Y-12865870D02*
X15500348Y-12856346D01*
X15757491Y-13056346D02*
X15643206Y-13056346D01*
X15700348Y-13056346D02*
X15700348Y-12856346D01*
X15700348Y-12856346D02*
X15681301Y-12884917D01*
X15681301Y-12884917D02*
X15662253Y-12903965D01*
X15662253Y-12903965D02*
X15643206Y-12913489D01*
X15824158Y-12856346D02*
X15947967Y-12856346D01*
X15947967Y-12856346D02*
X15881301Y-12932536D01*
X15881301Y-12932536D02*
X15909872Y-12932536D01*
X15909872Y-12932536D02*
X15928920Y-12942060D01*
X15928920Y-12942060D02*
X15938444Y-12951584D01*
X15938444Y-12951584D02*
X15947967Y-12970632D01*
X15947967Y-12970632D02*
X15947967Y-13018251D01*
X15947967Y-13018251D02*
X15938444Y-13037298D01*
X15938444Y-13037298D02*
X15928920Y-13046822D01*
X15928920Y-13046822D02*
X15909872Y-13056346D01*
X15909872Y-13056346D02*
X15852729Y-13056346D01*
X15852729Y-13056346D02*
X15833682Y-13046822D01*
X15833682Y-13046822D02*
X15824158Y-13037298D01*
X16071777Y-12856346D02*
X16090825Y-12856346D01*
X16090825Y-12856346D02*
X16109872Y-12865870D01*
X16109872Y-12865870D02*
X16119396Y-12875393D01*
X16119396Y-12875393D02*
X16128920Y-12894441D01*
X16128920Y-12894441D02*
X16138444Y-12932536D01*
X16138444Y-12932536D02*
X16138444Y-12980155D01*
X16138444Y-12980155D02*
X16128920Y-13018251D01*
X16128920Y-13018251D02*
X16119396Y-13037298D01*
X16119396Y-13037298D02*
X16109872Y-13046822D01*
X16109872Y-13046822D02*
X16090825Y-13056346D01*
X16090825Y-13056346D02*
X16071777Y-13056346D01*
X16071777Y-13056346D02*
X16052729Y-13046822D01*
X16052729Y-13046822D02*
X16043206Y-13037298D01*
X16043206Y-13037298D02*
X16033682Y-13018251D01*
X16033682Y-13018251D02*
X16024158Y-12980155D01*
X16024158Y-12980155D02*
X16024158Y-12932536D01*
X16024158Y-12932536D02*
X16033682Y-12894441D01*
X16033682Y-12894441D02*
X16043206Y-12875393D01*
X16043206Y-12875393D02*
X16052729Y-12865870D01*
X16052729Y-12865870D02*
X16071777Y-12856346D01*
X16214634Y-12856346D02*
X16214634Y-12894441D01*
X16290825Y-12856346D02*
X16290825Y-12894441D01*
X16586063Y-13132536D02*
X16576539Y-13123012D01*
X16576539Y-13123012D02*
X16557491Y-13094441D01*
X16557491Y-13094441D02*
X16547968Y-13075393D01*
X16547968Y-13075393D02*
X16538444Y-13046822D01*
X16538444Y-13046822D02*
X16528920Y-12999203D01*
X16528920Y-12999203D02*
X16528920Y-12961108D01*
X16528920Y-12961108D02*
X16538444Y-12913489D01*
X16538444Y-12913489D02*
X16547968Y-12884917D01*
X16547968Y-12884917D02*
X16557491Y-12865870D01*
X16557491Y-12865870D02*
X16576539Y-12837298D01*
X16576539Y-12837298D02*
X16586063Y-12827774D01*
X16767015Y-13056346D02*
X16652729Y-13056346D01*
X16709872Y-13056346D02*
X16709872Y-12856346D01*
X16709872Y-12856346D02*
X16690825Y-12884917D01*
X16690825Y-12884917D02*
X16671777Y-12903965D01*
X16671777Y-12903965D02*
X16652729Y-12913489D01*
X16843206Y-12875393D02*
X16852730Y-12865870D01*
X16852730Y-12865870D02*
X16871777Y-12856346D01*
X16871777Y-12856346D02*
X16919396Y-12856346D01*
X16919396Y-12856346D02*
X16938444Y-12865870D01*
X16938444Y-12865870D02*
X16947968Y-12875393D01*
X16947968Y-12875393D02*
X16957491Y-12894441D01*
X16957491Y-12894441D02*
X16957491Y-12913489D01*
X16957491Y-12913489D02*
X16947968Y-12942060D01*
X16947968Y-12942060D02*
X16833682Y-13056346D01*
X16833682Y-13056346D02*
X16957491Y-13056346D01*
X17081301Y-12856346D02*
X17100349Y-12856346D01*
X17100349Y-12856346D02*
X17119396Y-12865870D01*
X17119396Y-12865870D02*
X17128920Y-12875393D01*
X17128920Y-12875393D02*
X17138444Y-12894441D01*
X17138444Y-12894441D02*
X17147968Y-12932536D01*
X17147968Y-12932536D02*
X17147968Y-12980155D01*
X17147968Y-12980155D02*
X17138444Y-13018251D01*
X17138444Y-13018251D02*
X17128920Y-13037298D01*
X17128920Y-13037298D02*
X17119396Y-13046822D01*
X17119396Y-13046822D02*
X17100349Y-13056346D01*
X17100349Y-13056346D02*
X17081301Y-13056346D01*
X17081301Y-13056346D02*
X17062253Y-13046822D01*
X17062253Y-13046822D02*
X17052730Y-13037298D01*
X17052730Y-13037298D02*
X17043206Y-13018251D01*
X17043206Y-13018251D02*
X17033682Y-12980155D01*
X17033682Y-12980155D02*
X17033682Y-12932536D01*
X17033682Y-12932536D02*
X17043206Y-12894441D01*
X17043206Y-12894441D02*
X17052730Y-12875393D01*
X17052730Y-12875393D02*
X17062253Y-12865870D01*
X17062253Y-12865870D02*
X17081301Y-12856346D01*
X17386063Y-13056346D02*
X17386063Y-12856346D01*
X17471777Y-13056346D02*
X17471777Y-12951584D01*
X17471777Y-12951584D02*
X17462253Y-12932536D01*
X17462253Y-12932536D02*
X17443206Y-12923012D01*
X17443206Y-12923012D02*
X17414634Y-12923012D01*
X17414634Y-12923012D02*
X17395587Y-12932536D01*
X17395587Y-12932536D02*
X17386063Y-12942060D01*
X17595587Y-13056346D02*
X17576539Y-13046822D01*
X17576539Y-13046822D02*
X17567015Y-13037298D01*
X17567015Y-13037298D02*
X17557492Y-13018251D01*
X17557492Y-13018251D02*
X17557492Y-12961108D01*
X17557492Y-12961108D02*
X17567015Y-12942060D01*
X17567015Y-12942060D02*
X17576539Y-12932536D01*
X17576539Y-12932536D02*
X17595587Y-12923012D01*
X17595587Y-12923012D02*
X17624158Y-12923012D01*
X17624158Y-12923012D02*
X17643206Y-12932536D01*
X17643206Y-12932536D02*
X17652730Y-12942060D01*
X17652730Y-12942060D02*
X17662253Y-12961108D01*
X17662253Y-12961108D02*
X17662253Y-13018251D01*
X17662253Y-13018251D02*
X17652730Y-13037298D01*
X17652730Y-13037298D02*
X17643206Y-13046822D01*
X17643206Y-13046822D02*
X17624158Y-13056346D01*
X17624158Y-13056346D02*
X17595587Y-13056346D01*
X17776539Y-13056346D02*
X17757492Y-13046822D01*
X17757492Y-13046822D02*
X17747968Y-13027774D01*
X17747968Y-13027774D02*
X17747968Y-12856346D01*
X17928920Y-13046822D02*
X17909873Y-13056346D01*
X17909873Y-13056346D02*
X17871777Y-13056346D01*
X17871777Y-13056346D02*
X17852730Y-13046822D01*
X17852730Y-13046822D02*
X17843206Y-13027774D01*
X17843206Y-13027774D02*
X17843206Y-12951584D01*
X17843206Y-12951584D02*
X17852730Y-12932536D01*
X17852730Y-12932536D02*
X17871777Y-12923012D01*
X17871777Y-12923012D02*
X17909873Y-12923012D01*
X17909873Y-12923012D02*
X17928920Y-12932536D01*
X17928920Y-12932536D02*
X17938444Y-12951584D01*
X17938444Y-12951584D02*
X17938444Y-12970632D01*
X17938444Y-12970632D02*
X17843206Y-12989679D01*
X18014634Y-13046822D02*
X18033682Y-13056346D01*
X18033682Y-13056346D02*
X18071777Y-13056346D01*
X18071777Y-13056346D02*
X18090825Y-13046822D01*
X18090825Y-13046822D02*
X18100349Y-13027774D01*
X18100349Y-13027774D02*
X18100349Y-13018251D01*
X18100349Y-13018251D02*
X18090825Y-12999203D01*
X18090825Y-12999203D02*
X18071777Y-12989679D01*
X18071777Y-12989679D02*
X18043206Y-12989679D01*
X18043206Y-12989679D02*
X18024158Y-12980155D01*
X18024158Y-12980155D02*
X18014634Y-12961108D01*
X18014634Y-12961108D02*
X18014634Y-12951584D01*
X18014634Y-12951584D02*
X18024158Y-12932536D01*
X18024158Y-12932536D02*
X18043206Y-12923012D01*
X18043206Y-12923012D02*
X18071777Y-12923012D01*
X18071777Y-12923012D02*
X18090825Y-12932536D01*
X18167015Y-13132536D02*
X18176539Y-13123012D01*
X18176539Y-13123012D02*
X18195587Y-13094441D01*
X18195587Y-13094441D02*
X18205111Y-13075393D01*
X18205111Y-13075393D02*
X18214634Y-13046822D01*
X18214634Y-13046822D02*
X18224158Y-12999203D01*
X18224158Y-12999203D02*
X18224158Y-12961108D01*
X18224158Y-12961108D02*
X18214634Y-12913489D01*
X18214634Y-12913489D02*
X18205111Y-12884917D01*
X18205111Y-12884917D02*
X18195587Y-12865870D01*
X18195587Y-12865870D02*
X18176539Y-12837298D01*
X18176539Y-12837298D02*
X18167015Y-12827774D01*
D13*
X13011000Y-13228862D02*
G75*
G03*
X13011000Y-13228862I-19050J0D01*
G01*
D11*
X13309872Y-13120346D02*
X13328920Y-13120346D01*
X13328920Y-13120346D02*
X13347967Y-13129870D01*
X13347967Y-13129870D02*
X13357491Y-13139393D01*
X13357491Y-13139393D02*
X13367015Y-13158441D01*
X13367015Y-13158441D02*
X13376539Y-13196536D01*
X13376539Y-13196536D02*
X13376539Y-13244155D01*
X13376539Y-13244155D02*
X13367015Y-13282251D01*
X13367015Y-13282251D02*
X13357491Y-13301298D01*
X13357491Y-13301298D02*
X13347967Y-13310822D01*
X13347967Y-13310822D02*
X13328920Y-13320346D01*
X13328920Y-13320346D02*
X13309872Y-13320346D01*
X13309872Y-13320346D02*
X13290824Y-13310822D01*
X13290824Y-13310822D02*
X13281301Y-13301298D01*
X13281301Y-13301298D02*
X13271777Y-13282251D01*
X13271777Y-13282251D02*
X13262253Y-13244155D01*
X13262253Y-13244155D02*
X13262253Y-13196536D01*
X13262253Y-13196536D02*
X13271777Y-13158441D01*
X13271777Y-13158441D02*
X13281301Y-13139393D01*
X13281301Y-13139393D02*
X13290824Y-13129870D01*
X13290824Y-13129870D02*
X13309872Y-13120346D01*
X13462253Y-13301298D02*
X13471777Y-13310822D01*
X13471777Y-13310822D02*
X13462253Y-13320346D01*
X13462253Y-13320346D02*
X13452729Y-13310822D01*
X13452729Y-13310822D02*
X13462253Y-13301298D01*
X13462253Y-13301298D02*
X13462253Y-13320346D01*
X13538443Y-13120346D02*
X13662253Y-13120346D01*
X13662253Y-13120346D02*
X13595586Y-13196536D01*
X13595586Y-13196536D02*
X13624158Y-13196536D01*
X13624158Y-13196536D02*
X13643205Y-13206060D01*
X13643205Y-13206060D02*
X13652729Y-13215584D01*
X13652729Y-13215584D02*
X13662253Y-13234632D01*
X13662253Y-13234632D02*
X13662253Y-13282251D01*
X13662253Y-13282251D02*
X13652729Y-13301298D01*
X13652729Y-13301298D02*
X13643205Y-13310822D01*
X13643205Y-13310822D02*
X13624158Y-13320346D01*
X13624158Y-13320346D02*
X13567015Y-13320346D01*
X13567015Y-13320346D02*
X13547967Y-13310822D01*
X13547967Y-13310822D02*
X13538443Y-13301298D01*
X13776539Y-13206060D02*
X13757491Y-13196536D01*
X13757491Y-13196536D02*
X13747967Y-13187012D01*
X13747967Y-13187012D02*
X13738443Y-13167965D01*
X13738443Y-13167965D02*
X13738443Y-13158441D01*
X13738443Y-13158441D02*
X13747967Y-13139393D01*
X13747967Y-13139393D02*
X13757491Y-13129870D01*
X13757491Y-13129870D02*
X13776539Y-13120346D01*
X13776539Y-13120346D02*
X13814634Y-13120346D01*
X13814634Y-13120346D02*
X13833682Y-13129870D01*
X13833682Y-13129870D02*
X13843205Y-13139393D01*
X13843205Y-13139393D02*
X13852729Y-13158441D01*
X13852729Y-13158441D02*
X13852729Y-13167965D01*
X13852729Y-13167965D02*
X13843205Y-13187012D01*
X13843205Y-13187012D02*
X13833682Y-13196536D01*
X13833682Y-13196536D02*
X13814634Y-13206060D01*
X13814634Y-13206060D02*
X13776539Y-13206060D01*
X13776539Y-13206060D02*
X13757491Y-13215584D01*
X13757491Y-13215584D02*
X13747967Y-13225108D01*
X13747967Y-13225108D02*
X13738443Y-13244155D01*
X13738443Y-13244155D02*
X13738443Y-13282251D01*
X13738443Y-13282251D02*
X13747967Y-13301298D01*
X13747967Y-13301298D02*
X13757491Y-13310822D01*
X13757491Y-13310822D02*
X13776539Y-13320346D01*
X13776539Y-13320346D02*
X13814634Y-13320346D01*
X13814634Y-13320346D02*
X13833682Y-13310822D01*
X13833682Y-13310822D02*
X13843205Y-13301298D01*
X13843205Y-13301298D02*
X13852729Y-13282251D01*
X13852729Y-13282251D02*
X13852729Y-13244155D01*
X13852729Y-13244155D02*
X13843205Y-13225108D01*
X13843205Y-13225108D02*
X13833682Y-13215584D01*
X13833682Y-13215584D02*
X13814634Y-13206060D01*
X14043205Y-13320346D02*
X13928920Y-13320346D01*
X13986062Y-13320346D02*
X13986062Y-13120346D01*
X13986062Y-13120346D02*
X13967015Y-13148917D01*
X13967015Y-13148917D02*
X13947967Y-13167965D01*
X13947967Y-13167965D02*
X13928920Y-13177489D01*
X14128920Y-13320346D02*
X14128920Y-13187012D01*
X14128920Y-13206060D02*
X14138443Y-13196536D01*
X14138443Y-13196536D02*
X14157491Y-13187012D01*
X14157491Y-13187012D02*
X14186063Y-13187012D01*
X14186063Y-13187012D02*
X14205110Y-13196536D01*
X14205110Y-13196536D02*
X14214634Y-13215584D01*
X14214634Y-13215584D02*
X14214634Y-13320346D01*
X14214634Y-13215584D02*
X14224158Y-13196536D01*
X14224158Y-13196536D02*
X14243205Y-13187012D01*
X14243205Y-13187012D02*
X14271777Y-13187012D01*
X14271777Y-13187012D02*
X14290824Y-13196536D01*
X14290824Y-13196536D02*
X14300348Y-13215584D01*
X14300348Y-13215584D02*
X14300348Y-13320346D01*
X14395586Y-13320346D02*
X14395586Y-13187012D01*
X14395586Y-13206060D02*
X14405110Y-13196536D01*
X14405110Y-13196536D02*
X14424158Y-13187012D01*
X14424158Y-13187012D02*
X14452729Y-13187012D01*
X14452729Y-13187012D02*
X14471777Y-13196536D01*
X14471777Y-13196536D02*
X14481301Y-13215584D01*
X14481301Y-13215584D02*
X14481301Y-13320346D01*
X14481301Y-13215584D02*
X14490824Y-13196536D01*
X14490824Y-13196536D02*
X14509872Y-13187012D01*
X14509872Y-13187012D02*
X14538443Y-13187012D01*
X14538443Y-13187012D02*
X14557491Y-13196536D01*
X14557491Y-13196536D02*
X14567015Y-13215584D01*
X14567015Y-13215584D02*
X14567015Y-13320346D01*
X14957491Y-13110822D02*
X14786063Y-13367965D01*
X15214634Y-13120346D02*
X15233682Y-13120346D01*
X15233682Y-13120346D02*
X15252729Y-13129870D01*
X15252729Y-13129870D02*
X15262253Y-13139393D01*
X15262253Y-13139393D02*
X15271777Y-13158441D01*
X15271777Y-13158441D02*
X15281301Y-13196536D01*
X15281301Y-13196536D02*
X15281301Y-13244155D01*
X15281301Y-13244155D02*
X15271777Y-13282251D01*
X15271777Y-13282251D02*
X15262253Y-13301298D01*
X15262253Y-13301298D02*
X15252729Y-13310822D01*
X15252729Y-13310822D02*
X15233682Y-13320346D01*
X15233682Y-13320346D02*
X15214634Y-13320346D01*
X15214634Y-13320346D02*
X15195586Y-13310822D01*
X15195586Y-13310822D02*
X15186063Y-13301298D01*
X15186063Y-13301298D02*
X15176539Y-13282251D01*
X15176539Y-13282251D02*
X15167015Y-13244155D01*
X15167015Y-13244155D02*
X15167015Y-13196536D01*
X15167015Y-13196536D02*
X15176539Y-13158441D01*
X15176539Y-13158441D02*
X15186063Y-13139393D01*
X15186063Y-13139393D02*
X15195586Y-13129870D01*
X15195586Y-13129870D02*
X15214634Y-13120346D01*
X15367015Y-13301298D02*
X15376539Y-13310822D01*
X15376539Y-13310822D02*
X15367015Y-13320346D01*
X15367015Y-13320346D02*
X15357491Y-13310822D01*
X15357491Y-13310822D02*
X15367015Y-13301298D01*
X15367015Y-13301298D02*
X15367015Y-13320346D01*
X15500348Y-13120346D02*
X15519396Y-13120346D01*
X15519396Y-13120346D02*
X15538444Y-13129870D01*
X15538444Y-13129870D02*
X15547967Y-13139393D01*
X15547967Y-13139393D02*
X15557491Y-13158441D01*
X15557491Y-13158441D02*
X15567015Y-13196536D01*
X15567015Y-13196536D02*
X15567015Y-13244155D01*
X15567015Y-13244155D02*
X15557491Y-13282251D01*
X15557491Y-13282251D02*
X15547967Y-13301298D01*
X15547967Y-13301298D02*
X15538444Y-13310822D01*
X15538444Y-13310822D02*
X15519396Y-13320346D01*
X15519396Y-13320346D02*
X15500348Y-13320346D01*
X15500348Y-13320346D02*
X15481301Y-13310822D01*
X15481301Y-13310822D02*
X15471777Y-13301298D01*
X15471777Y-13301298D02*
X15462253Y-13282251D01*
X15462253Y-13282251D02*
X15452729Y-13244155D01*
X15452729Y-13244155D02*
X15452729Y-13196536D01*
X15452729Y-13196536D02*
X15462253Y-13158441D01*
X15462253Y-13158441D02*
X15471777Y-13139393D01*
X15471777Y-13139393D02*
X15481301Y-13129870D01*
X15481301Y-13129870D02*
X15500348Y-13120346D01*
X15757491Y-13320346D02*
X15643206Y-13320346D01*
X15700348Y-13320346D02*
X15700348Y-13120346D01*
X15700348Y-13120346D02*
X15681301Y-13148917D01*
X15681301Y-13148917D02*
X15662253Y-13167965D01*
X15662253Y-13167965D02*
X15643206Y-13177489D01*
X15938444Y-13120346D02*
X15843206Y-13120346D01*
X15843206Y-13120346D02*
X15833682Y-13215584D01*
X15833682Y-13215584D02*
X15843206Y-13206060D01*
X15843206Y-13206060D02*
X15862253Y-13196536D01*
X15862253Y-13196536D02*
X15909872Y-13196536D01*
X15909872Y-13196536D02*
X15928920Y-13206060D01*
X15928920Y-13206060D02*
X15938444Y-13215584D01*
X15938444Y-13215584D02*
X15947967Y-13234632D01*
X15947967Y-13234632D02*
X15947967Y-13282251D01*
X15947967Y-13282251D02*
X15938444Y-13301298D01*
X15938444Y-13301298D02*
X15928920Y-13310822D01*
X15928920Y-13310822D02*
X15909872Y-13320346D01*
X15909872Y-13320346D02*
X15862253Y-13320346D01*
X15862253Y-13320346D02*
X15843206Y-13310822D01*
X15843206Y-13310822D02*
X15833682Y-13301298D01*
X16071777Y-13120346D02*
X16090825Y-13120346D01*
X16090825Y-13120346D02*
X16109872Y-13129870D01*
X16109872Y-13129870D02*
X16119396Y-13139393D01*
X16119396Y-13139393D02*
X16128920Y-13158441D01*
X16128920Y-13158441D02*
X16138444Y-13196536D01*
X16138444Y-13196536D02*
X16138444Y-13244155D01*
X16138444Y-13244155D02*
X16128920Y-13282251D01*
X16128920Y-13282251D02*
X16119396Y-13301298D01*
X16119396Y-13301298D02*
X16109872Y-13310822D01*
X16109872Y-13310822D02*
X16090825Y-13320346D01*
X16090825Y-13320346D02*
X16071777Y-13320346D01*
X16071777Y-13320346D02*
X16052729Y-13310822D01*
X16052729Y-13310822D02*
X16043206Y-13301298D01*
X16043206Y-13301298D02*
X16033682Y-13282251D01*
X16033682Y-13282251D02*
X16024158Y-13244155D01*
X16024158Y-13244155D02*
X16024158Y-13196536D01*
X16024158Y-13196536D02*
X16033682Y-13158441D01*
X16033682Y-13158441D02*
X16043206Y-13139393D01*
X16043206Y-13139393D02*
X16052729Y-13129870D01*
X16052729Y-13129870D02*
X16071777Y-13120346D01*
X16214634Y-13120346D02*
X16214634Y-13158441D01*
X16290825Y-13120346D02*
X16290825Y-13158441D01*
X16586063Y-13396536D02*
X16576539Y-13387012D01*
X16576539Y-13387012D02*
X16557491Y-13358441D01*
X16557491Y-13358441D02*
X16547968Y-13339393D01*
X16547968Y-13339393D02*
X16538444Y-13310822D01*
X16538444Y-13310822D02*
X16528920Y-13263203D01*
X16528920Y-13263203D02*
X16528920Y-13225108D01*
X16528920Y-13225108D02*
X16538444Y-13177489D01*
X16538444Y-13177489D02*
X16547968Y-13148917D01*
X16547968Y-13148917D02*
X16557491Y-13129870D01*
X16557491Y-13129870D02*
X16576539Y-13101298D01*
X16576539Y-13101298D02*
X16586063Y-13091774D01*
X16747968Y-13120346D02*
X16709872Y-13120346D01*
X16709872Y-13120346D02*
X16690825Y-13129870D01*
X16690825Y-13129870D02*
X16681301Y-13139393D01*
X16681301Y-13139393D02*
X16662253Y-13167965D01*
X16662253Y-13167965D02*
X16652729Y-13206060D01*
X16652729Y-13206060D02*
X16652729Y-13282251D01*
X16652729Y-13282251D02*
X16662253Y-13301298D01*
X16662253Y-13301298D02*
X16671777Y-13310822D01*
X16671777Y-13310822D02*
X16690825Y-13320346D01*
X16690825Y-13320346D02*
X16728920Y-13320346D01*
X16728920Y-13320346D02*
X16747968Y-13310822D01*
X16747968Y-13310822D02*
X16757491Y-13301298D01*
X16757491Y-13301298D02*
X16767015Y-13282251D01*
X16767015Y-13282251D02*
X16767015Y-13234632D01*
X16767015Y-13234632D02*
X16757491Y-13215584D01*
X16757491Y-13215584D02*
X16747968Y-13206060D01*
X16747968Y-13206060D02*
X16728920Y-13196536D01*
X16728920Y-13196536D02*
X16690825Y-13196536D01*
X16690825Y-13196536D02*
X16671777Y-13206060D01*
X16671777Y-13206060D02*
X16662253Y-13215584D01*
X16662253Y-13215584D02*
X16652729Y-13234632D01*
X17005111Y-13320346D02*
X17005111Y-13120346D01*
X17090825Y-13320346D02*
X17090825Y-13215584D01*
X17090825Y-13215584D02*
X17081301Y-13196536D01*
X17081301Y-13196536D02*
X17062253Y-13187012D01*
X17062253Y-13187012D02*
X17033682Y-13187012D01*
X17033682Y-13187012D02*
X17014634Y-13196536D01*
X17014634Y-13196536D02*
X17005111Y-13206060D01*
X17214634Y-13320346D02*
X17195587Y-13310822D01*
X17195587Y-13310822D02*
X17186063Y-13301298D01*
X17186063Y-13301298D02*
X17176539Y-13282251D01*
X17176539Y-13282251D02*
X17176539Y-13225108D01*
X17176539Y-13225108D02*
X17186063Y-13206060D01*
X17186063Y-13206060D02*
X17195587Y-13196536D01*
X17195587Y-13196536D02*
X17214634Y-13187012D01*
X17214634Y-13187012D02*
X17243206Y-13187012D01*
X17243206Y-13187012D02*
X17262253Y-13196536D01*
X17262253Y-13196536D02*
X17271777Y-13206060D01*
X17271777Y-13206060D02*
X17281301Y-13225108D01*
X17281301Y-13225108D02*
X17281301Y-13282251D01*
X17281301Y-13282251D02*
X17271777Y-13301298D01*
X17271777Y-13301298D02*
X17262253Y-13310822D01*
X17262253Y-13310822D02*
X17243206Y-13320346D01*
X17243206Y-13320346D02*
X17214634Y-13320346D01*
X17395587Y-13320346D02*
X17376539Y-13310822D01*
X17376539Y-13310822D02*
X17367015Y-13291774D01*
X17367015Y-13291774D02*
X17367015Y-13120346D01*
X17547968Y-13310822D02*
X17528920Y-13320346D01*
X17528920Y-13320346D02*
X17490825Y-13320346D01*
X17490825Y-13320346D02*
X17471777Y-13310822D01*
X17471777Y-13310822D02*
X17462253Y-13291774D01*
X17462253Y-13291774D02*
X17462253Y-13215584D01*
X17462253Y-13215584D02*
X17471777Y-13196536D01*
X17471777Y-13196536D02*
X17490825Y-13187012D01*
X17490825Y-13187012D02*
X17528920Y-13187012D01*
X17528920Y-13187012D02*
X17547968Y-13196536D01*
X17547968Y-13196536D02*
X17557492Y-13215584D01*
X17557492Y-13215584D02*
X17557492Y-13234632D01*
X17557492Y-13234632D02*
X17462253Y-13253679D01*
X17633682Y-13310822D02*
X17652730Y-13320346D01*
X17652730Y-13320346D02*
X17690825Y-13320346D01*
X17690825Y-13320346D02*
X17709873Y-13310822D01*
X17709873Y-13310822D02*
X17719396Y-13291774D01*
X17719396Y-13291774D02*
X17719396Y-13282251D01*
X17719396Y-13282251D02*
X17709873Y-13263203D01*
X17709873Y-13263203D02*
X17690825Y-13253679D01*
X17690825Y-13253679D02*
X17662253Y-13253679D01*
X17662253Y-13253679D02*
X17643206Y-13244155D01*
X17643206Y-13244155D02*
X17633682Y-13225108D01*
X17633682Y-13225108D02*
X17633682Y-13215584D01*
X17633682Y-13215584D02*
X17643206Y-13196536D01*
X17643206Y-13196536D02*
X17662253Y-13187012D01*
X17662253Y-13187012D02*
X17690825Y-13187012D01*
X17690825Y-13187012D02*
X17709873Y-13196536D01*
X17786063Y-13396536D02*
X17795587Y-13387012D01*
X17795587Y-13387012D02*
X17814634Y-13358441D01*
X17814634Y-13358441D02*
X17824158Y-13339393D01*
X17824158Y-13339393D02*
X17833682Y-13310822D01*
X17833682Y-13310822D02*
X17843206Y-13263203D01*
X17843206Y-13263203D02*
X17843206Y-13225108D01*
X17843206Y-13225108D02*
X17833682Y-13177489D01*
X17833682Y-13177489D02*
X17824158Y-13148917D01*
X17824158Y-13148917D02*
X17814634Y-13129870D01*
X17814634Y-13129870D02*
X17795587Y-13101298D01*
X17795587Y-13101298D02*
X17786063Y-13091774D01*
D14*
X12971000Y-13452862D02*
X12971000Y-13532862D01*
X12931000Y-13492862D02*
X13011000Y-13492862D01*
D11*
X13309872Y-13384346D02*
X13328920Y-13384346D01*
X13328920Y-13384346D02*
X13347967Y-13393870D01*
X13347967Y-13393870D02*
X13357491Y-13403393D01*
X13357491Y-13403393D02*
X13367015Y-13422441D01*
X13367015Y-13422441D02*
X13376539Y-13460536D01*
X13376539Y-13460536D02*
X13376539Y-13508155D01*
X13376539Y-13508155D02*
X13367015Y-13546251D01*
X13367015Y-13546251D02*
X13357491Y-13565298D01*
X13357491Y-13565298D02*
X13347967Y-13574822D01*
X13347967Y-13574822D02*
X13328920Y-13584346D01*
X13328920Y-13584346D02*
X13309872Y-13584346D01*
X13309872Y-13584346D02*
X13290824Y-13574822D01*
X13290824Y-13574822D02*
X13281301Y-13565298D01*
X13281301Y-13565298D02*
X13271777Y-13546251D01*
X13271777Y-13546251D02*
X13262253Y-13508155D01*
X13262253Y-13508155D02*
X13262253Y-13460536D01*
X13262253Y-13460536D02*
X13271777Y-13422441D01*
X13271777Y-13422441D02*
X13281301Y-13403393D01*
X13281301Y-13403393D02*
X13290824Y-13393870D01*
X13290824Y-13393870D02*
X13309872Y-13384346D01*
X13462253Y-13565298D02*
X13471777Y-13574822D01*
X13471777Y-13574822D02*
X13462253Y-13584346D01*
X13462253Y-13584346D02*
X13452729Y-13574822D01*
X13452729Y-13574822D02*
X13462253Y-13565298D01*
X13462253Y-13565298D02*
X13462253Y-13584346D01*
X13586062Y-13470060D02*
X13567015Y-13460536D01*
X13567015Y-13460536D02*
X13557491Y-13451012D01*
X13557491Y-13451012D02*
X13547967Y-13431965D01*
X13547967Y-13431965D02*
X13547967Y-13422441D01*
X13547967Y-13422441D02*
X13557491Y-13403393D01*
X13557491Y-13403393D02*
X13567015Y-13393870D01*
X13567015Y-13393870D02*
X13586062Y-13384346D01*
X13586062Y-13384346D02*
X13624158Y-13384346D01*
X13624158Y-13384346D02*
X13643205Y-13393870D01*
X13643205Y-13393870D02*
X13652729Y-13403393D01*
X13652729Y-13403393D02*
X13662253Y-13422441D01*
X13662253Y-13422441D02*
X13662253Y-13431965D01*
X13662253Y-13431965D02*
X13652729Y-13451012D01*
X13652729Y-13451012D02*
X13643205Y-13460536D01*
X13643205Y-13460536D02*
X13624158Y-13470060D01*
X13624158Y-13470060D02*
X13586062Y-13470060D01*
X13586062Y-13470060D02*
X13567015Y-13479584D01*
X13567015Y-13479584D02*
X13557491Y-13489108D01*
X13557491Y-13489108D02*
X13547967Y-13508155D01*
X13547967Y-13508155D02*
X13547967Y-13546251D01*
X13547967Y-13546251D02*
X13557491Y-13565298D01*
X13557491Y-13565298D02*
X13567015Y-13574822D01*
X13567015Y-13574822D02*
X13586062Y-13584346D01*
X13586062Y-13584346D02*
X13624158Y-13584346D01*
X13624158Y-13584346D02*
X13643205Y-13574822D01*
X13643205Y-13574822D02*
X13652729Y-13565298D01*
X13652729Y-13565298D02*
X13662253Y-13546251D01*
X13662253Y-13546251D02*
X13662253Y-13508155D01*
X13662253Y-13508155D02*
X13652729Y-13489108D01*
X13652729Y-13489108D02*
X13643205Y-13479584D01*
X13643205Y-13479584D02*
X13624158Y-13470060D01*
X13786062Y-13384346D02*
X13805110Y-13384346D01*
X13805110Y-13384346D02*
X13824158Y-13393870D01*
X13824158Y-13393870D02*
X13833682Y-13403393D01*
X13833682Y-13403393D02*
X13843205Y-13422441D01*
X13843205Y-13422441D02*
X13852729Y-13460536D01*
X13852729Y-13460536D02*
X13852729Y-13508155D01*
X13852729Y-13508155D02*
X13843205Y-13546251D01*
X13843205Y-13546251D02*
X13833682Y-13565298D01*
X13833682Y-13565298D02*
X13824158Y-13574822D01*
X13824158Y-13574822D02*
X13805110Y-13584346D01*
X13805110Y-13584346D02*
X13786062Y-13584346D01*
X13786062Y-13584346D02*
X13767015Y-13574822D01*
X13767015Y-13574822D02*
X13757491Y-13565298D01*
X13757491Y-13565298D02*
X13747967Y-13546251D01*
X13747967Y-13546251D02*
X13738443Y-13508155D01*
X13738443Y-13508155D02*
X13738443Y-13460536D01*
X13738443Y-13460536D02*
X13747967Y-13422441D01*
X13747967Y-13422441D02*
X13757491Y-13403393D01*
X13757491Y-13403393D02*
X13767015Y-13393870D01*
X13767015Y-13393870D02*
X13786062Y-13384346D01*
X13976539Y-13384346D02*
X13995586Y-13384346D01*
X13995586Y-13384346D02*
X14014634Y-13393870D01*
X14014634Y-13393870D02*
X14024158Y-13403393D01*
X14024158Y-13403393D02*
X14033682Y-13422441D01*
X14033682Y-13422441D02*
X14043205Y-13460536D01*
X14043205Y-13460536D02*
X14043205Y-13508155D01*
X14043205Y-13508155D02*
X14033682Y-13546251D01*
X14033682Y-13546251D02*
X14024158Y-13565298D01*
X14024158Y-13565298D02*
X14014634Y-13574822D01*
X14014634Y-13574822D02*
X13995586Y-13584346D01*
X13995586Y-13584346D02*
X13976539Y-13584346D01*
X13976539Y-13584346D02*
X13957491Y-13574822D01*
X13957491Y-13574822D02*
X13947967Y-13565298D01*
X13947967Y-13565298D02*
X13938443Y-13546251D01*
X13938443Y-13546251D02*
X13928920Y-13508155D01*
X13928920Y-13508155D02*
X13928920Y-13460536D01*
X13928920Y-13460536D02*
X13938443Y-13422441D01*
X13938443Y-13422441D02*
X13947967Y-13403393D01*
X13947967Y-13403393D02*
X13957491Y-13393870D01*
X13957491Y-13393870D02*
X13976539Y-13384346D01*
X14128920Y-13584346D02*
X14128920Y-13451012D01*
X14128920Y-13470060D02*
X14138443Y-13460536D01*
X14138443Y-13460536D02*
X14157491Y-13451012D01*
X14157491Y-13451012D02*
X14186063Y-13451012D01*
X14186063Y-13451012D02*
X14205110Y-13460536D01*
X14205110Y-13460536D02*
X14214634Y-13479584D01*
X14214634Y-13479584D02*
X14214634Y-13584346D01*
X14214634Y-13479584D02*
X14224158Y-13460536D01*
X14224158Y-13460536D02*
X14243205Y-13451012D01*
X14243205Y-13451012D02*
X14271777Y-13451012D01*
X14271777Y-13451012D02*
X14290824Y-13460536D01*
X14290824Y-13460536D02*
X14300348Y-13479584D01*
X14300348Y-13479584D02*
X14300348Y-13584346D01*
X14395586Y-13584346D02*
X14395586Y-13451012D01*
X14395586Y-13470060D02*
X14405110Y-13460536D01*
X14405110Y-13460536D02*
X14424158Y-13451012D01*
X14424158Y-13451012D02*
X14452729Y-13451012D01*
X14452729Y-13451012D02*
X14471777Y-13460536D01*
X14471777Y-13460536D02*
X14481301Y-13479584D01*
X14481301Y-13479584D02*
X14481301Y-13584346D01*
X14481301Y-13479584D02*
X14490824Y-13460536D01*
X14490824Y-13460536D02*
X14509872Y-13451012D01*
X14509872Y-13451012D02*
X14538443Y-13451012D01*
X14538443Y-13451012D02*
X14557491Y-13460536D01*
X14557491Y-13460536D02*
X14567015Y-13479584D01*
X14567015Y-13479584D02*
X14567015Y-13584346D01*
X14957491Y-13374822D02*
X14786063Y-13631965D01*
X15214634Y-13384346D02*
X15233682Y-13384346D01*
X15233682Y-13384346D02*
X15252729Y-13393870D01*
X15252729Y-13393870D02*
X15262253Y-13403393D01*
X15262253Y-13403393D02*
X15271777Y-13422441D01*
X15271777Y-13422441D02*
X15281301Y-13460536D01*
X15281301Y-13460536D02*
X15281301Y-13508155D01*
X15281301Y-13508155D02*
X15271777Y-13546251D01*
X15271777Y-13546251D02*
X15262253Y-13565298D01*
X15262253Y-13565298D02*
X15252729Y-13574822D01*
X15252729Y-13574822D02*
X15233682Y-13584346D01*
X15233682Y-13584346D02*
X15214634Y-13584346D01*
X15214634Y-13584346D02*
X15195586Y-13574822D01*
X15195586Y-13574822D02*
X15186063Y-13565298D01*
X15186063Y-13565298D02*
X15176539Y-13546251D01*
X15176539Y-13546251D02*
X15167015Y-13508155D01*
X15167015Y-13508155D02*
X15167015Y-13460536D01*
X15167015Y-13460536D02*
X15176539Y-13422441D01*
X15176539Y-13422441D02*
X15186063Y-13403393D01*
X15186063Y-13403393D02*
X15195586Y-13393870D01*
X15195586Y-13393870D02*
X15214634Y-13384346D01*
X15367015Y-13565298D02*
X15376539Y-13574822D01*
X15376539Y-13574822D02*
X15367015Y-13584346D01*
X15367015Y-13584346D02*
X15357491Y-13574822D01*
X15357491Y-13574822D02*
X15367015Y-13565298D01*
X15367015Y-13565298D02*
X15367015Y-13584346D01*
X15500348Y-13384346D02*
X15519396Y-13384346D01*
X15519396Y-13384346D02*
X15538444Y-13393870D01*
X15538444Y-13393870D02*
X15547967Y-13403393D01*
X15547967Y-13403393D02*
X15557491Y-13422441D01*
X15557491Y-13422441D02*
X15567015Y-13460536D01*
X15567015Y-13460536D02*
X15567015Y-13508155D01*
X15567015Y-13508155D02*
X15557491Y-13546251D01*
X15557491Y-13546251D02*
X15547967Y-13565298D01*
X15547967Y-13565298D02*
X15538444Y-13574822D01*
X15538444Y-13574822D02*
X15519396Y-13584346D01*
X15519396Y-13584346D02*
X15500348Y-13584346D01*
X15500348Y-13584346D02*
X15481301Y-13574822D01*
X15481301Y-13574822D02*
X15471777Y-13565298D01*
X15471777Y-13565298D02*
X15462253Y-13546251D01*
X15462253Y-13546251D02*
X15452729Y-13508155D01*
X15452729Y-13508155D02*
X15452729Y-13460536D01*
X15452729Y-13460536D02*
X15462253Y-13422441D01*
X15462253Y-13422441D02*
X15471777Y-13403393D01*
X15471777Y-13403393D02*
X15481301Y-13393870D01*
X15481301Y-13393870D02*
X15500348Y-13384346D01*
X15633682Y-13384346D02*
X15757491Y-13384346D01*
X15757491Y-13384346D02*
X15690825Y-13460536D01*
X15690825Y-13460536D02*
X15719396Y-13460536D01*
X15719396Y-13460536D02*
X15738444Y-13470060D01*
X15738444Y-13470060D02*
X15747967Y-13479584D01*
X15747967Y-13479584D02*
X15757491Y-13498632D01*
X15757491Y-13498632D02*
X15757491Y-13546251D01*
X15757491Y-13546251D02*
X15747967Y-13565298D01*
X15747967Y-13565298D02*
X15738444Y-13574822D01*
X15738444Y-13574822D02*
X15719396Y-13584346D01*
X15719396Y-13584346D02*
X15662253Y-13584346D01*
X15662253Y-13584346D02*
X15643206Y-13574822D01*
X15643206Y-13574822D02*
X15633682Y-13565298D01*
X15947967Y-13584346D02*
X15833682Y-13584346D01*
X15890825Y-13584346D02*
X15890825Y-13384346D01*
X15890825Y-13384346D02*
X15871777Y-13412917D01*
X15871777Y-13412917D02*
X15852729Y-13431965D01*
X15852729Y-13431965D02*
X15833682Y-13441489D01*
X16128920Y-13384346D02*
X16033682Y-13384346D01*
X16033682Y-13384346D02*
X16024158Y-13479584D01*
X16024158Y-13479584D02*
X16033682Y-13470060D01*
X16033682Y-13470060D02*
X16052729Y-13460536D01*
X16052729Y-13460536D02*
X16100348Y-13460536D01*
X16100348Y-13460536D02*
X16119396Y-13470060D01*
X16119396Y-13470060D02*
X16128920Y-13479584D01*
X16128920Y-13479584D02*
X16138444Y-13498632D01*
X16138444Y-13498632D02*
X16138444Y-13546251D01*
X16138444Y-13546251D02*
X16128920Y-13565298D01*
X16128920Y-13565298D02*
X16119396Y-13574822D01*
X16119396Y-13574822D02*
X16100348Y-13584346D01*
X16100348Y-13584346D02*
X16052729Y-13584346D01*
X16052729Y-13584346D02*
X16033682Y-13574822D01*
X16033682Y-13574822D02*
X16024158Y-13565298D01*
X16214634Y-13384346D02*
X16214634Y-13422441D01*
X16290825Y-13384346D02*
X16290825Y-13422441D01*
X16586063Y-13660536D02*
X16576539Y-13651012D01*
X16576539Y-13651012D02*
X16557491Y-13622441D01*
X16557491Y-13622441D02*
X16547968Y-13603393D01*
X16547968Y-13603393D02*
X16538444Y-13574822D01*
X16538444Y-13574822D02*
X16528920Y-13527203D01*
X16528920Y-13527203D02*
X16528920Y-13489108D01*
X16528920Y-13489108D02*
X16538444Y-13441489D01*
X16538444Y-13441489D02*
X16547968Y-13412917D01*
X16547968Y-13412917D02*
X16557491Y-13393870D01*
X16557491Y-13393870D02*
X16576539Y-13365298D01*
X16576539Y-13365298D02*
X16586063Y-13355774D01*
X16652729Y-13403393D02*
X16662253Y-13393870D01*
X16662253Y-13393870D02*
X16681301Y-13384346D01*
X16681301Y-13384346D02*
X16728920Y-13384346D01*
X16728920Y-13384346D02*
X16747968Y-13393870D01*
X16747968Y-13393870D02*
X16757491Y-13403393D01*
X16757491Y-13403393D02*
X16767015Y-13422441D01*
X16767015Y-13422441D02*
X16767015Y-13441489D01*
X16767015Y-13441489D02*
X16757491Y-13470060D01*
X16757491Y-13470060D02*
X16643206Y-13584346D01*
X16643206Y-13584346D02*
X16767015Y-13584346D01*
X17005111Y-13584346D02*
X17005111Y-13384346D01*
X17090825Y-13584346D02*
X17090825Y-13479584D01*
X17090825Y-13479584D02*
X17081301Y-13460536D01*
X17081301Y-13460536D02*
X17062253Y-13451012D01*
X17062253Y-13451012D02*
X17033682Y-13451012D01*
X17033682Y-13451012D02*
X17014634Y-13460536D01*
X17014634Y-13460536D02*
X17005111Y-13470060D01*
X17214634Y-13584346D02*
X17195587Y-13574822D01*
X17195587Y-13574822D02*
X17186063Y-13565298D01*
X17186063Y-13565298D02*
X17176539Y-13546251D01*
X17176539Y-13546251D02*
X17176539Y-13489108D01*
X17176539Y-13489108D02*
X17186063Y-13470060D01*
X17186063Y-13470060D02*
X17195587Y-13460536D01*
X17195587Y-13460536D02*
X17214634Y-13451012D01*
X17214634Y-13451012D02*
X17243206Y-13451012D01*
X17243206Y-13451012D02*
X17262253Y-13460536D01*
X17262253Y-13460536D02*
X17271777Y-13470060D01*
X17271777Y-13470060D02*
X17281301Y-13489108D01*
X17281301Y-13489108D02*
X17281301Y-13546251D01*
X17281301Y-13546251D02*
X17271777Y-13565298D01*
X17271777Y-13565298D02*
X17262253Y-13574822D01*
X17262253Y-13574822D02*
X17243206Y-13584346D01*
X17243206Y-13584346D02*
X17214634Y-13584346D01*
X17395587Y-13584346D02*
X17376539Y-13574822D01*
X17376539Y-13574822D02*
X17367015Y-13555774D01*
X17367015Y-13555774D02*
X17367015Y-13384346D01*
X17547968Y-13574822D02*
X17528920Y-13584346D01*
X17528920Y-13584346D02*
X17490825Y-13584346D01*
X17490825Y-13584346D02*
X17471777Y-13574822D01*
X17471777Y-13574822D02*
X17462253Y-13555774D01*
X17462253Y-13555774D02*
X17462253Y-13479584D01*
X17462253Y-13479584D02*
X17471777Y-13460536D01*
X17471777Y-13460536D02*
X17490825Y-13451012D01*
X17490825Y-13451012D02*
X17528920Y-13451012D01*
X17528920Y-13451012D02*
X17547968Y-13460536D01*
X17547968Y-13460536D02*
X17557492Y-13479584D01*
X17557492Y-13479584D02*
X17557492Y-13498632D01*
X17557492Y-13498632D02*
X17462253Y-13517679D01*
X17633682Y-13574822D02*
X17652730Y-13584346D01*
X17652730Y-13584346D02*
X17690825Y-13584346D01*
X17690825Y-13584346D02*
X17709873Y-13574822D01*
X17709873Y-13574822D02*
X17719396Y-13555774D01*
X17719396Y-13555774D02*
X17719396Y-13546251D01*
X17719396Y-13546251D02*
X17709873Y-13527203D01*
X17709873Y-13527203D02*
X17690825Y-13517679D01*
X17690825Y-13517679D02*
X17662253Y-13517679D01*
X17662253Y-13517679D02*
X17643206Y-13508155D01*
X17643206Y-13508155D02*
X17633682Y-13489108D01*
X17633682Y-13489108D02*
X17633682Y-13479584D01*
X17633682Y-13479584D02*
X17643206Y-13460536D01*
X17643206Y-13460536D02*
X17662253Y-13451012D01*
X17662253Y-13451012D02*
X17690825Y-13451012D01*
X17690825Y-13451012D02*
X17709873Y-13460536D01*
X17786063Y-13660536D02*
X17795587Y-13651012D01*
X17795587Y-13651012D02*
X17814634Y-13622441D01*
X17814634Y-13622441D02*
X17824158Y-13603393D01*
X17824158Y-13603393D02*
X17833682Y-13574822D01*
X17833682Y-13574822D02*
X17843206Y-13527203D01*
X17843206Y-13527203D02*
X17843206Y-13489108D01*
X17843206Y-13489108D02*
X17833682Y-13441489D01*
X17833682Y-13441489D02*
X17824158Y-13412917D01*
X17824158Y-13412917D02*
X17814634Y-13393870D01*
X17814634Y-13393870D02*
X17795587Y-13365298D01*
X17795587Y-13365298D02*
X17786063Y-13355774D01*
D10*
X12996356Y-13792218D02*
X12996356Y-13721506D01*
X12925644Y-13721506D01*
X12925644Y-13792218D01*
X12996356Y-13792218D01*
D11*
X13376539Y-13848346D02*
X13262253Y-13848346D01*
X13319396Y-13848346D02*
X13319396Y-13648346D01*
X13319396Y-13648346D02*
X13300348Y-13676917D01*
X13300348Y-13676917D02*
X13281301Y-13695965D01*
X13281301Y-13695965D02*
X13262253Y-13705489D01*
X13462253Y-13829298D02*
X13471777Y-13838822D01*
X13471777Y-13838822D02*
X13462253Y-13848346D01*
X13462253Y-13848346D02*
X13452729Y-13838822D01*
X13452729Y-13838822D02*
X13462253Y-13829298D01*
X13462253Y-13829298D02*
X13462253Y-13848346D01*
X13595586Y-13648346D02*
X13614634Y-13648346D01*
X13614634Y-13648346D02*
X13633682Y-13657870D01*
X13633682Y-13657870D02*
X13643205Y-13667393D01*
X13643205Y-13667393D02*
X13652729Y-13686441D01*
X13652729Y-13686441D02*
X13662253Y-13724536D01*
X13662253Y-13724536D02*
X13662253Y-13772155D01*
X13662253Y-13772155D02*
X13652729Y-13810251D01*
X13652729Y-13810251D02*
X13643205Y-13829298D01*
X13643205Y-13829298D02*
X13633682Y-13838822D01*
X13633682Y-13838822D02*
X13614634Y-13848346D01*
X13614634Y-13848346D02*
X13595586Y-13848346D01*
X13595586Y-13848346D02*
X13576539Y-13838822D01*
X13576539Y-13838822D02*
X13567015Y-13829298D01*
X13567015Y-13829298D02*
X13557491Y-13810251D01*
X13557491Y-13810251D02*
X13547967Y-13772155D01*
X13547967Y-13772155D02*
X13547967Y-13724536D01*
X13547967Y-13724536D02*
X13557491Y-13686441D01*
X13557491Y-13686441D02*
X13567015Y-13667393D01*
X13567015Y-13667393D02*
X13576539Y-13657870D01*
X13576539Y-13657870D02*
X13595586Y-13648346D01*
X13786062Y-13648346D02*
X13805110Y-13648346D01*
X13805110Y-13648346D02*
X13824158Y-13657870D01*
X13824158Y-13657870D02*
X13833682Y-13667393D01*
X13833682Y-13667393D02*
X13843205Y-13686441D01*
X13843205Y-13686441D02*
X13852729Y-13724536D01*
X13852729Y-13724536D02*
X13852729Y-13772155D01*
X13852729Y-13772155D02*
X13843205Y-13810251D01*
X13843205Y-13810251D02*
X13833682Y-13829298D01*
X13833682Y-13829298D02*
X13824158Y-13838822D01*
X13824158Y-13838822D02*
X13805110Y-13848346D01*
X13805110Y-13848346D02*
X13786062Y-13848346D01*
X13786062Y-13848346D02*
X13767015Y-13838822D01*
X13767015Y-13838822D02*
X13757491Y-13829298D01*
X13757491Y-13829298D02*
X13747967Y-13810251D01*
X13747967Y-13810251D02*
X13738443Y-13772155D01*
X13738443Y-13772155D02*
X13738443Y-13724536D01*
X13738443Y-13724536D02*
X13747967Y-13686441D01*
X13747967Y-13686441D02*
X13757491Y-13667393D01*
X13757491Y-13667393D02*
X13767015Y-13657870D01*
X13767015Y-13657870D02*
X13786062Y-13648346D01*
X13976539Y-13648346D02*
X13995586Y-13648346D01*
X13995586Y-13648346D02*
X14014634Y-13657870D01*
X14014634Y-13657870D02*
X14024158Y-13667393D01*
X14024158Y-13667393D02*
X14033682Y-13686441D01*
X14033682Y-13686441D02*
X14043205Y-13724536D01*
X14043205Y-13724536D02*
X14043205Y-13772155D01*
X14043205Y-13772155D02*
X14033682Y-13810251D01*
X14033682Y-13810251D02*
X14024158Y-13829298D01*
X14024158Y-13829298D02*
X14014634Y-13838822D01*
X14014634Y-13838822D02*
X13995586Y-13848346D01*
X13995586Y-13848346D02*
X13976539Y-13848346D01*
X13976539Y-13848346D02*
X13957491Y-13838822D01*
X13957491Y-13838822D02*
X13947967Y-13829298D01*
X13947967Y-13829298D02*
X13938443Y-13810251D01*
X13938443Y-13810251D02*
X13928920Y-13772155D01*
X13928920Y-13772155D02*
X13928920Y-13724536D01*
X13928920Y-13724536D02*
X13938443Y-13686441D01*
X13938443Y-13686441D02*
X13947967Y-13667393D01*
X13947967Y-13667393D02*
X13957491Y-13657870D01*
X13957491Y-13657870D02*
X13976539Y-13648346D01*
X14128920Y-13848346D02*
X14128920Y-13715012D01*
X14128920Y-13734060D02*
X14138443Y-13724536D01*
X14138443Y-13724536D02*
X14157491Y-13715012D01*
X14157491Y-13715012D02*
X14186063Y-13715012D01*
X14186063Y-13715012D02*
X14205110Y-13724536D01*
X14205110Y-13724536D02*
X14214634Y-13743584D01*
X14214634Y-13743584D02*
X14214634Y-13848346D01*
X14214634Y-13743584D02*
X14224158Y-13724536D01*
X14224158Y-13724536D02*
X14243205Y-13715012D01*
X14243205Y-13715012D02*
X14271777Y-13715012D01*
X14271777Y-13715012D02*
X14290824Y-13724536D01*
X14290824Y-13724536D02*
X14300348Y-13743584D01*
X14300348Y-13743584D02*
X14300348Y-13848346D01*
X14395586Y-13848346D02*
X14395586Y-13715012D01*
X14395586Y-13734060D02*
X14405110Y-13724536D01*
X14405110Y-13724536D02*
X14424158Y-13715012D01*
X14424158Y-13715012D02*
X14452729Y-13715012D01*
X14452729Y-13715012D02*
X14471777Y-13724536D01*
X14471777Y-13724536D02*
X14481301Y-13743584D01*
X14481301Y-13743584D02*
X14481301Y-13848346D01*
X14481301Y-13743584D02*
X14490824Y-13724536D01*
X14490824Y-13724536D02*
X14509872Y-13715012D01*
X14509872Y-13715012D02*
X14538443Y-13715012D01*
X14538443Y-13715012D02*
X14557491Y-13724536D01*
X14557491Y-13724536D02*
X14567015Y-13743584D01*
X14567015Y-13743584D02*
X14567015Y-13848346D01*
X14957491Y-13638822D02*
X14786063Y-13895965D01*
X15214634Y-13648346D02*
X15233682Y-13648346D01*
X15233682Y-13648346D02*
X15252729Y-13657870D01*
X15252729Y-13657870D02*
X15262253Y-13667393D01*
X15262253Y-13667393D02*
X15271777Y-13686441D01*
X15271777Y-13686441D02*
X15281301Y-13724536D01*
X15281301Y-13724536D02*
X15281301Y-13772155D01*
X15281301Y-13772155D02*
X15271777Y-13810251D01*
X15271777Y-13810251D02*
X15262253Y-13829298D01*
X15262253Y-13829298D02*
X15252729Y-13838822D01*
X15252729Y-13838822D02*
X15233682Y-13848346D01*
X15233682Y-13848346D02*
X15214634Y-13848346D01*
X15214634Y-13848346D02*
X15195586Y-13838822D01*
X15195586Y-13838822D02*
X15186063Y-13829298D01*
X15186063Y-13829298D02*
X15176539Y-13810251D01*
X15176539Y-13810251D02*
X15167015Y-13772155D01*
X15167015Y-13772155D02*
X15167015Y-13724536D01*
X15167015Y-13724536D02*
X15176539Y-13686441D01*
X15176539Y-13686441D02*
X15186063Y-13667393D01*
X15186063Y-13667393D02*
X15195586Y-13657870D01*
X15195586Y-13657870D02*
X15214634Y-13648346D01*
X15367015Y-13829298D02*
X15376539Y-13838822D01*
X15376539Y-13838822D02*
X15367015Y-13848346D01*
X15367015Y-13848346D02*
X15357491Y-13838822D01*
X15357491Y-13838822D02*
X15367015Y-13829298D01*
X15367015Y-13829298D02*
X15367015Y-13848346D01*
X15500348Y-13648346D02*
X15519396Y-13648346D01*
X15519396Y-13648346D02*
X15538444Y-13657870D01*
X15538444Y-13657870D02*
X15547967Y-13667393D01*
X15547967Y-13667393D02*
X15557491Y-13686441D01*
X15557491Y-13686441D02*
X15567015Y-13724536D01*
X15567015Y-13724536D02*
X15567015Y-13772155D01*
X15567015Y-13772155D02*
X15557491Y-13810251D01*
X15557491Y-13810251D02*
X15547967Y-13829298D01*
X15547967Y-13829298D02*
X15538444Y-13838822D01*
X15538444Y-13838822D02*
X15519396Y-13848346D01*
X15519396Y-13848346D02*
X15500348Y-13848346D01*
X15500348Y-13848346D02*
X15481301Y-13838822D01*
X15481301Y-13838822D02*
X15471777Y-13829298D01*
X15471777Y-13829298D02*
X15462253Y-13810251D01*
X15462253Y-13810251D02*
X15452729Y-13772155D01*
X15452729Y-13772155D02*
X15452729Y-13724536D01*
X15452729Y-13724536D02*
X15462253Y-13686441D01*
X15462253Y-13686441D02*
X15471777Y-13667393D01*
X15471777Y-13667393D02*
X15481301Y-13657870D01*
X15481301Y-13657870D02*
X15500348Y-13648346D01*
X15633682Y-13648346D02*
X15757491Y-13648346D01*
X15757491Y-13648346D02*
X15690825Y-13724536D01*
X15690825Y-13724536D02*
X15719396Y-13724536D01*
X15719396Y-13724536D02*
X15738444Y-13734060D01*
X15738444Y-13734060D02*
X15747967Y-13743584D01*
X15747967Y-13743584D02*
X15757491Y-13762632D01*
X15757491Y-13762632D02*
X15757491Y-13810251D01*
X15757491Y-13810251D02*
X15747967Y-13829298D01*
X15747967Y-13829298D02*
X15738444Y-13838822D01*
X15738444Y-13838822D02*
X15719396Y-13848346D01*
X15719396Y-13848346D02*
X15662253Y-13848346D01*
X15662253Y-13848346D02*
X15643206Y-13838822D01*
X15643206Y-13838822D02*
X15633682Y-13829298D01*
X15852729Y-13848346D02*
X15890825Y-13848346D01*
X15890825Y-13848346D02*
X15909872Y-13838822D01*
X15909872Y-13838822D02*
X15919396Y-13829298D01*
X15919396Y-13829298D02*
X15938444Y-13800727D01*
X15938444Y-13800727D02*
X15947967Y-13762632D01*
X15947967Y-13762632D02*
X15947967Y-13686441D01*
X15947967Y-13686441D02*
X15938444Y-13667393D01*
X15938444Y-13667393D02*
X15928920Y-13657870D01*
X15928920Y-13657870D02*
X15909872Y-13648346D01*
X15909872Y-13648346D02*
X15871777Y-13648346D01*
X15871777Y-13648346D02*
X15852729Y-13657870D01*
X15852729Y-13657870D02*
X15843206Y-13667393D01*
X15843206Y-13667393D02*
X15833682Y-13686441D01*
X15833682Y-13686441D02*
X15833682Y-13734060D01*
X15833682Y-13734060D02*
X15843206Y-13753108D01*
X15843206Y-13753108D02*
X15852729Y-13762632D01*
X15852729Y-13762632D02*
X15871777Y-13772155D01*
X15871777Y-13772155D02*
X15909872Y-13772155D01*
X15909872Y-13772155D02*
X15928920Y-13762632D01*
X15928920Y-13762632D02*
X15938444Y-13753108D01*
X15938444Y-13753108D02*
X15947967Y-13734060D01*
X16119396Y-13715012D02*
X16119396Y-13848346D01*
X16071777Y-13638822D02*
X16024158Y-13781679D01*
X16024158Y-13781679D02*
X16147967Y-13781679D01*
X16214634Y-13648346D02*
X16214634Y-13686441D01*
X16290825Y-13648346D02*
X16290825Y-13686441D01*
X16586063Y-13924536D02*
X16576539Y-13915012D01*
X16576539Y-13915012D02*
X16557491Y-13886441D01*
X16557491Y-13886441D02*
X16547968Y-13867393D01*
X16547968Y-13867393D02*
X16538444Y-13838822D01*
X16538444Y-13838822D02*
X16528920Y-13791203D01*
X16528920Y-13791203D02*
X16528920Y-13753108D01*
X16528920Y-13753108D02*
X16538444Y-13705489D01*
X16538444Y-13705489D02*
X16547968Y-13676917D01*
X16547968Y-13676917D02*
X16557491Y-13657870D01*
X16557491Y-13657870D02*
X16576539Y-13629298D01*
X16576539Y-13629298D02*
X16586063Y-13619774D01*
X16652729Y-13667393D02*
X16662253Y-13657870D01*
X16662253Y-13657870D02*
X16681301Y-13648346D01*
X16681301Y-13648346D02*
X16728920Y-13648346D01*
X16728920Y-13648346D02*
X16747968Y-13657870D01*
X16747968Y-13657870D02*
X16757491Y-13667393D01*
X16757491Y-13667393D02*
X16767015Y-13686441D01*
X16767015Y-13686441D02*
X16767015Y-13705489D01*
X16767015Y-13705489D02*
X16757491Y-13734060D01*
X16757491Y-13734060D02*
X16643206Y-13848346D01*
X16643206Y-13848346D02*
X16767015Y-13848346D01*
X16938444Y-13715012D02*
X16938444Y-13848346D01*
X16890825Y-13638822D02*
X16843206Y-13781679D01*
X16843206Y-13781679D02*
X16967015Y-13781679D01*
X17195587Y-13848346D02*
X17195587Y-13648346D01*
X17281301Y-13848346D02*
X17281301Y-13743584D01*
X17281301Y-13743584D02*
X17271777Y-13724536D01*
X17271777Y-13724536D02*
X17252730Y-13715012D01*
X17252730Y-13715012D02*
X17224158Y-13715012D01*
X17224158Y-13715012D02*
X17205111Y-13724536D01*
X17205111Y-13724536D02*
X17195587Y-13734060D01*
X17405111Y-13848346D02*
X17386063Y-13838822D01*
X17386063Y-13838822D02*
X17376539Y-13829298D01*
X17376539Y-13829298D02*
X17367015Y-13810251D01*
X17367015Y-13810251D02*
X17367015Y-13753108D01*
X17367015Y-13753108D02*
X17376539Y-13734060D01*
X17376539Y-13734060D02*
X17386063Y-13724536D01*
X17386063Y-13724536D02*
X17405111Y-13715012D01*
X17405111Y-13715012D02*
X17433682Y-13715012D01*
X17433682Y-13715012D02*
X17452730Y-13724536D01*
X17452730Y-13724536D02*
X17462253Y-13734060D01*
X17462253Y-13734060D02*
X17471777Y-13753108D01*
X17471777Y-13753108D02*
X17471777Y-13810251D01*
X17471777Y-13810251D02*
X17462253Y-13829298D01*
X17462253Y-13829298D02*
X17452730Y-13838822D01*
X17452730Y-13838822D02*
X17433682Y-13848346D01*
X17433682Y-13848346D02*
X17405111Y-13848346D01*
X17586063Y-13848346D02*
X17567015Y-13838822D01*
X17567015Y-13838822D02*
X17557492Y-13819774D01*
X17557492Y-13819774D02*
X17557492Y-13648346D01*
X17738444Y-13838822D02*
X17719396Y-13848346D01*
X17719396Y-13848346D02*
X17681301Y-13848346D01*
X17681301Y-13848346D02*
X17662253Y-13838822D01*
X17662253Y-13838822D02*
X17652730Y-13819774D01*
X17652730Y-13819774D02*
X17652730Y-13743584D01*
X17652730Y-13743584D02*
X17662253Y-13724536D01*
X17662253Y-13724536D02*
X17681301Y-13715012D01*
X17681301Y-13715012D02*
X17719396Y-13715012D01*
X17719396Y-13715012D02*
X17738444Y-13724536D01*
X17738444Y-13724536D02*
X17747968Y-13743584D01*
X17747968Y-13743584D02*
X17747968Y-13762632D01*
X17747968Y-13762632D02*
X17652730Y-13781679D01*
X17824158Y-13838822D02*
X17843206Y-13848346D01*
X17843206Y-13848346D02*
X17881301Y-13848346D01*
X17881301Y-13848346D02*
X17900349Y-13838822D01*
X17900349Y-13838822D02*
X17909873Y-13819774D01*
X17909873Y-13819774D02*
X17909873Y-13810251D01*
X17909873Y-13810251D02*
X17900349Y-13791203D01*
X17900349Y-13791203D02*
X17881301Y-13781679D01*
X17881301Y-13781679D02*
X17852730Y-13781679D01*
X17852730Y-13781679D02*
X17833682Y-13772155D01*
X17833682Y-13772155D02*
X17824158Y-13753108D01*
X17824158Y-13753108D02*
X17824158Y-13743584D01*
X17824158Y-13743584D02*
X17833682Y-13724536D01*
X17833682Y-13724536D02*
X17852730Y-13715012D01*
X17852730Y-13715012D02*
X17881301Y-13715012D01*
X17881301Y-13715012D02*
X17900349Y-13724536D01*
X17976539Y-13924536D02*
X17986063Y-13915012D01*
X17986063Y-13915012D02*
X18005111Y-13886441D01*
X18005111Y-13886441D02*
X18014634Y-13867393D01*
X18014634Y-13867393D02*
X18024158Y-13838822D01*
X18024158Y-13838822D02*
X18033682Y-13791203D01*
X18033682Y-13791203D02*
X18033682Y-13753108D01*
X18033682Y-13753108D02*
X18024158Y-13705489D01*
X18024158Y-13705489D02*
X18014634Y-13676917D01*
X18014634Y-13676917D02*
X18005111Y-13657870D01*
X18005111Y-13657870D02*
X17986063Y-13629298D01*
X17986063Y-13629298D02*
X17976539Y-13619774D01*
M02*
