%TF.GenerationSoftware,KiCad,Pcbnew,7.0.5*%
%TF.CreationDate,2024-01-24T02:04:37-05:00*%
%TF.ProjectId,CAMERA_ADAPTER,43414d45-5241-45f4-9144-41505445522e,rev?*%
%TF.SameCoordinates,Original*%
%TF.FileFunction,Legend,Bot*%
%TF.FilePolarity,Positive*%
%FSLAX46Y46*%
G04 Gerber Fmt 4.6, Leading zero omitted, Abs format (unit mm)*
G04 Created by KiCad (PCBNEW 7.0.5) date 2024-01-24 02:04:37*
%MOMM*%
%LPD*%
G01*
G04 APERTURE LIST*
%ADD10C,0.150000*%
%ADD11C,0.120000*%
G04 APERTURE END LIST*
D10*
%TO.C,R10*%
X164192857Y-96603440D02*
X164526190Y-96127249D01*
X164764285Y-96603440D02*
X164764285Y-95603440D01*
X164764285Y-95603440D02*
X164383333Y-95603440D01*
X164383333Y-95603440D02*
X164288095Y-95651059D01*
X164288095Y-95651059D02*
X164240476Y-95698678D01*
X164240476Y-95698678D02*
X164192857Y-95793916D01*
X164192857Y-95793916D02*
X164192857Y-95936773D01*
X164192857Y-95936773D02*
X164240476Y-96032011D01*
X164240476Y-96032011D02*
X164288095Y-96079630D01*
X164288095Y-96079630D02*
X164383333Y-96127249D01*
X164383333Y-96127249D02*
X164764285Y-96127249D01*
X163240476Y-96603440D02*
X163811904Y-96603440D01*
X163526190Y-96603440D02*
X163526190Y-95603440D01*
X163526190Y-95603440D02*
X163621428Y-95746297D01*
X163621428Y-95746297D02*
X163716666Y-95841535D01*
X163716666Y-95841535D02*
X163811904Y-95889154D01*
X162621428Y-95603440D02*
X162526190Y-95603440D01*
X162526190Y-95603440D02*
X162430952Y-95651059D01*
X162430952Y-95651059D02*
X162383333Y-95698678D01*
X162383333Y-95698678D02*
X162335714Y-95793916D01*
X162335714Y-95793916D02*
X162288095Y-95984392D01*
X162288095Y-95984392D02*
X162288095Y-96222487D01*
X162288095Y-96222487D02*
X162335714Y-96412963D01*
X162335714Y-96412963D02*
X162383333Y-96508201D01*
X162383333Y-96508201D02*
X162430952Y-96555821D01*
X162430952Y-96555821D02*
X162526190Y-96603440D01*
X162526190Y-96603440D02*
X162621428Y-96603440D01*
X162621428Y-96603440D02*
X162716666Y-96555821D01*
X162716666Y-96555821D02*
X162764285Y-96508201D01*
X162764285Y-96508201D02*
X162811904Y-96412963D01*
X162811904Y-96412963D02*
X162859523Y-96222487D01*
X162859523Y-96222487D02*
X162859523Y-95984392D01*
X162859523Y-95984392D02*
X162811904Y-95793916D01*
X162811904Y-95793916D02*
X162764285Y-95698678D01*
X162764285Y-95698678D02*
X162716666Y-95651059D01*
X162716666Y-95651059D02*
X162621428Y-95603440D01*
%TO.C,U4*%
X144061904Y-100253440D02*
X144061904Y-101062963D01*
X144061904Y-101062963D02*
X144014285Y-101158201D01*
X144014285Y-101158201D02*
X143966666Y-101205821D01*
X143966666Y-101205821D02*
X143871428Y-101253440D01*
X143871428Y-101253440D02*
X143680952Y-101253440D01*
X143680952Y-101253440D02*
X143585714Y-101205821D01*
X143585714Y-101205821D02*
X143538095Y-101158201D01*
X143538095Y-101158201D02*
X143490476Y-101062963D01*
X143490476Y-101062963D02*
X143490476Y-100253440D01*
X142585714Y-100586773D02*
X142585714Y-101253440D01*
X142823809Y-100205821D02*
X143061904Y-100920106D01*
X143061904Y-100920106D02*
X142442857Y-100920106D01*
%TO.C,R8*%
X138666666Y-110433440D02*
X138999999Y-109957249D01*
X139238094Y-110433440D02*
X139238094Y-109433440D01*
X139238094Y-109433440D02*
X138857142Y-109433440D01*
X138857142Y-109433440D02*
X138761904Y-109481059D01*
X138761904Y-109481059D02*
X138714285Y-109528678D01*
X138714285Y-109528678D02*
X138666666Y-109623916D01*
X138666666Y-109623916D02*
X138666666Y-109766773D01*
X138666666Y-109766773D02*
X138714285Y-109862011D01*
X138714285Y-109862011D02*
X138761904Y-109909630D01*
X138761904Y-109909630D02*
X138857142Y-109957249D01*
X138857142Y-109957249D02*
X139238094Y-109957249D01*
X138095237Y-109862011D02*
X138190475Y-109814392D01*
X138190475Y-109814392D02*
X138238094Y-109766773D01*
X138238094Y-109766773D02*
X138285713Y-109671535D01*
X138285713Y-109671535D02*
X138285713Y-109623916D01*
X138285713Y-109623916D02*
X138238094Y-109528678D01*
X138238094Y-109528678D02*
X138190475Y-109481059D01*
X138190475Y-109481059D02*
X138095237Y-109433440D01*
X138095237Y-109433440D02*
X137904761Y-109433440D01*
X137904761Y-109433440D02*
X137809523Y-109481059D01*
X137809523Y-109481059D02*
X137761904Y-109528678D01*
X137761904Y-109528678D02*
X137714285Y-109623916D01*
X137714285Y-109623916D02*
X137714285Y-109671535D01*
X137714285Y-109671535D02*
X137761904Y-109766773D01*
X137761904Y-109766773D02*
X137809523Y-109814392D01*
X137809523Y-109814392D02*
X137904761Y-109862011D01*
X137904761Y-109862011D02*
X138095237Y-109862011D01*
X138095237Y-109862011D02*
X138190475Y-109909630D01*
X138190475Y-109909630D02*
X138238094Y-109957249D01*
X138238094Y-109957249D02*
X138285713Y-110052487D01*
X138285713Y-110052487D02*
X138285713Y-110242963D01*
X138285713Y-110242963D02*
X138238094Y-110338201D01*
X138238094Y-110338201D02*
X138190475Y-110385821D01*
X138190475Y-110385821D02*
X138095237Y-110433440D01*
X138095237Y-110433440D02*
X137904761Y-110433440D01*
X137904761Y-110433440D02*
X137809523Y-110385821D01*
X137809523Y-110385821D02*
X137761904Y-110338201D01*
X137761904Y-110338201D02*
X137714285Y-110242963D01*
X137714285Y-110242963D02*
X137714285Y-110052487D01*
X137714285Y-110052487D02*
X137761904Y-109957249D01*
X137761904Y-109957249D02*
X137809523Y-109909630D01*
X137809523Y-109909630D02*
X137904761Y-109862011D01*
%TO.C,U7*%
X159951904Y-97968440D02*
X159951904Y-98777963D01*
X159951904Y-98777963D02*
X159904285Y-98873201D01*
X159904285Y-98873201D02*
X159856666Y-98920821D01*
X159856666Y-98920821D02*
X159761428Y-98968440D01*
X159761428Y-98968440D02*
X159570952Y-98968440D01*
X159570952Y-98968440D02*
X159475714Y-98920821D01*
X159475714Y-98920821D02*
X159428095Y-98873201D01*
X159428095Y-98873201D02*
X159380476Y-98777963D01*
X159380476Y-98777963D02*
X159380476Y-97968440D01*
X158999523Y-97968440D02*
X158332857Y-97968440D01*
X158332857Y-97968440D02*
X158761428Y-98968440D01*
%TO.C,C9*%
X152599580Y-93331954D02*
X152647200Y-93284335D01*
X152647200Y-93284335D02*
X152694819Y-93141478D01*
X152694819Y-93141478D02*
X152694819Y-93046240D01*
X152694819Y-93046240D02*
X152647200Y-92903383D01*
X152647200Y-92903383D02*
X152551961Y-92808145D01*
X152551961Y-92808145D02*
X152456723Y-92760526D01*
X152456723Y-92760526D02*
X152266247Y-92712907D01*
X152266247Y-92712907D02*
X152123390Y-92712907D01*
X152123390Y-92712907D02*
X151932914Y-92760526D01*
X151932914Y-92760526D02*
X151837676Y-92808145D01*
X151837676Y-92808145D02*
X151742438Y-92903383D01*
X151742438Y-92903383D02*
X151694819Y-93046240D01*
X151694819Y-93046240D02*
X151694819Y-93141478D01*
X151694819Y-93141478D02*
X151742438Y-93284335D01*
X151742438Y-93284335D02*
X151790057Y-93331954D01*
X152694819Y-93808145D02*
X152694819Y-93998621D01*
X152694819Y-93998621D02*
X152647200Y-94093859D01*
X152647200Y-94093859D02*
X152599580Y-94141478D01*
X152599580Y-94141478D02*
X152456723Y-94236716D01*
X152456723Y-94236716D02*
X152266247Y-94284335D01*
X152266247Y-94284335D02*
X151885295Y-94284335D01*
X151885295Y-94284335D02*
X151790057Y-94236716D01*
X151790057Y-94236716D02*
X151742438Y-94189097D01*
X151742438Y-94189097D02*
X151694819Y-94093859D01*
X151694819Y-94093859D02*
X151694819Y-93903383D01*
X151694819Y-93903383D02*
X151742438Y-93808145D01*
X151742438Y-93808145D02*
X151790057Y-93760526D01*
X151790057Y-93760526D02*
X151885295Y-93712907D01*
X151885295Y-93712907D02*
X152123390Y-93712907D01*
X152123390Y-93712907D02*
X152218628Y-93760526D01*
X152218628Y-93760526D02*
X152266247Y-93808145D01*
X152266247Y-93808145D02*
X152313866Y-93903383D01*
X152313866Y-93903383D02*
X152313866Y-94093859D01*
X152313866Y-94093859D02*
X152266247Y-94189097D01*
X152266247Y-94189097D02*
X152218628Y-94236716D01*
X152218628Y-94236716D02*
X152123390Y-94284335D01*
%TO.C,C7*%
X162606666Y-101468201D02*
X162654285Y-101515821D01*
X162654285Y-101515821D02*
X162797142Y-101563440D01*
X162797142Y-101563440D02*
X162892380Y-101563440D01*
X162892380Y-101563440D02*
X163035237Y-101515821D01*
X163035237Y-101515821D02*
X163130475Y-101420582D01*
X163130475Y-101420582D02*
X163178094Y-101325344D01*
X163178094Y-101325344D02*
X163225713Y-101134868D01*
X163225713Y-101134868D02*
X163225713Y-100992011D01*
X163225713Y-100992011D02*
X163178094Y-100801535D01*
X163178094Y-100801535D02*
X163130475Y-100706297D01*
X163130475Y-100706297D02*
X163035237Y-100611059D01*
X163035237Y-100611059D02*
X162892380Y-100563440D01*
X162892380Y-100563440D02*
X162797142Y-100563440D01*
X162797142Y-100563440D02*
X162654285Y-100611059D01*
X162654285Y-100611059D02*
X162606666Y-100658678D01*
X162273332Y-100563440D02*
X161606666Y-100563440D01*
X161606666Y-100563440D02*
X162035237Y-101563440D01*
%TO.C,R9*%
X138696666Y-103873440D02*
X139029999Y-103397249D01*
X139268094Y-103873440D02*
X139268094Y-102873440D01*
X139268094Y-102873440D02*
X138887142Y-102873440D01*
X138887142Y-102873440D02*
X138791904Y-102921059D01*
X138791904Y-102921059D02*
X138744285Y-102968678D01*
X138744285Y-102968678D02*
X138696666Y-103063916D01*
X138696666Y-103063916D02*
X138696666Y-103206773D01*
X138696666Y-103206773D02*
X138744285Y-103302011D01*
X138744285Y-103302011D02*
X138791904Y-103349630D01*
X138791904Y-103349630D02*
X138887142Y-103397249D01*
X138887142Y-103397249D02*
X139268094Y-103397249D01*
X138220475Y-103873440D02*
X138029999Y-103873440D01*
X138029999Y-103873440D02*
X137934761Y-103825821D01*
X137934761Y-103825821D02*
X137887142Y-103778201D01*
X137887142Y-103778201D02*
X137791904Y-103635344D01*
X137791904Y-103635344D02*
X137744285Y-103444868D01*
X137744285Y-103444868D02*
X137744285Y-103063916D01*
X137744285Y-103063916D02*
X137791904Y-102968678D01*
X137791904Y-102968678D02*
X137839523Y-102921059D01*
X137839523Y-102921059D02*
X137934761Y-102873440D01*
X137934761Y-102873440D02*
X138125237Y-102873440D01*
X138125237Y-102873440D02*
X138220475Y-102921059D01*
X138220475Y-102921059D02*
X138268094Y-102968678D01*
X138268094Y-102968678D02*
X138315713Y-103063916D01*
X138315713Y-103063916D02*
X138315713Y-103302011D01*
X138315713Y-103302011D02*
X138268094Y-103397249D01*
X138268094Y-103397249D02*
X138220475Y-103444868D01*
X138220475Y-103444868D02*
X138125237Y-103492487D01*
X138125237Y-103492487D02*
X137934761Y-103492487D01*
X137934761Y-103492487D02*
X137839523Y-103444868D01*
X137839523Y-103444868D02*
X137791904Y-103397249D01*
X137791904Y-103397249D02*
X137744285Y-103302011D01*
%TO.C,U3*%
X140999404Y-91233440D02*
X140999404Y-92042963D01*
X140999404Y-92042963D02*
X140951785Y-92138201D01*
X140951785Y-92138201D02*
X140904166Y-92185821D01*
X140904166Y-92185821D02*
X140808928Y-92233440D01*
X140808928Y-92233440D02*
X140618452Y-92233440D01*
X140618452Y-92233440D02*
X140523214Y-92185821D01*
X140523214Y-92185821D02*
X140475595Y-92138201D01*
X140475595Y-92138201D02*
X140427976Y-92042963D01*
X140427976Y-92042963D02*
X140427976Y-91233440D01*
X140047023Y-91233440D02*
X139427976Y-91233440D01*
X139427976Y-91233440D02*
X139761309Y-91614392D01*
X139761309Y-91614392D02*
X139618452Y-91614392D01*
X139618452Y-91614392D02*
X139523214Y-91662011D01*
X139523214Y-91662011D02*
X139475595Y-91709630D01*
X139475595Y-91709630D02*
X139427976Y-91804868D01*
X139427976Y-91804868D02*
X139427976Y-92042963D01*
X139427976Y-92042963D02*
X139475595Y-92138201D01*
X139475595Y-92138201D02*
X139523214Y-92185821D01*
X139523214Y-92185821D02*
X139618452Y-92233440D01*
X139618452Y-92233440D02*
X139904166Y-92233440D01*
X139904166Y-92233440D02*
X139999404Y-92185821D01*
X139999404Y-92185821D02*
X140047023Y-92138201D01*
%TO.C,R5*%
X138706666Y-96893440D02*
X139039999Y-96417249D01*
X139278094Y-96893440D02*
X139278094Y-95893440D01*
X139278094Y-95893440D02*
X138897142Y-95893440D01*
X138897142Y-95893440D02*
X138801904Y-95941059D01*
X138801904Y-95941059D02*
X138754285Y-95988678D01*
X138754285Y-95988678D02*
X138706666Y-96083916D01*
X138706666Y-96083916D02*
X138706666Y-96226773D01*
X138706666Y-96226773D02*
X138754285Y-96322011D01*
X138754285Y-96322011D02*
X138801904Y-96369630D01*
X138801904Y-96369630D02*
X138897142Y-96417249D01*
X138897142Y-96417249D02*
X139278094Y-96417249D01*
X137801904Y-95893440D02*
X138278094Y-95893440D01*
X138278094Y-95893440D02*
X138325713Y-96369630D01*
X138325713Y-96369630D02*
X138278094Y-96322011D01*
X138278094Y-96322011D02*
X138182856Y-96274392D01*
X138182856Y-96274392D02*
X137944761Y-96274392D01*
X137944761Y-96274392D02*
X137849523Y-96322011D01*
X137849523Y-96322011D02*
X137801904Y-96369630D01*
X137801904Y-96369630D02*
X137754285Y-96464868D01*
X137754285Y-96464868D02*
X137754285Y-96702963D01*
X137754285Y-96702963D02*
X137801904Y-96798201D01*
X137801904Y-96798201D02*
X137849523Y-96845821D01*
X137849523Y-96845821D02*
X137944761Y-96893440D01*
X137944761Y-96893440D02*
X138182856Y-96893440D01*
X138182856Y-96893440D02*
X138278094Y-96845821D01*
X138278094Y-96845821D02*
X138325713Y-96798201D01*
%TO.C,U2*%
X150891904Y-105953440D02*
X150891904Y-106762963D01*
X150891904Y-106762963D02*
X150844285Y-106858201D01*
X150844285Y-106858201D02*
X150796666Y-106905821D01*
X150796666Y-106905821D02*
X150701428Y-106953440D01*
X150701428Y-106953440D02*
X150510952Y-106953440D01*
X150510952Y-106953440D02*
X150415714Y-106905821D01*
X150415714Y-106905821D02*
X150368095Y-106858201D01*
X150368095Y-106858201D02*
X150320476Y-106762963D01*
X150320476Y-106762963D02*
X150320476Y-105953440D01*
X149891904Y-106048678D02*
X149844285Y-106001059D01*
X149844285Y-106001059D02*
X149749047Y-105953440D01*
X149749047Y-105953440D02*
X149510952Y-105953440D01*
X149510952Y-105953440D02*
X149415714Y-106001059D01*
X149415714Y-106001059D02*
X149368095Y-106048678D01*
X149368095Y-106048678D02*
X149320476Y-106143916D01*
X149320476Y-106143916D02*
X149320476Y-106239154D01*
X149320476Y-106239154D02*
X149368095Y-106382011D01*
X149368095Y-106382011D02*
X149939523Y-106953440D01*
X149939523Y-106953440D02*
X149320476Y-106953440D01*
%TO.C,R6*%
X163356666Y-103623440D02*
X163689999Y-103147249D01*
X163928094Y-103623440D02*
X163928094Y-102623440D01*
X163928094Y-102623440D02*
X163547142Y-102623440D01*
X163547142Y-102623440D02*
X163451904Y-102671059D01*
X163451904Y-102671059D02*
X163404285Y-102718678D01*
X163404285Y-102718678D02*
X163356666Y-102813916D01*
X163356666Y-102813916D02*
X163356666Y-102956773D01*
X163356666Y-102956773D02*
X163404285Y-103052011D01*
X163404285Y-103052011D02*
X163451904Y-103099630D01*
X163451904Y-103099630D02*
X163547142Y-103147249D01*
X163547142Y-103147249D02*
X163928094Y-103147249D01*
X162499523Y-102623440D02*
X162689999Y-102623440D01*
X162689999Y-102623440D02*
X162785237Y-102671059D01*
X162785237Y-102671059D02*
X162832856Y-102718678D01*
X162832856Y-102718678D02*
X162928094Y-102861535D01*
X162928094Y-102861535D02*
X162975713Y-103052011D01*
X162975713Y-103052011D02*
X162975713Y-103432963D01*
X162975713Y-103432963D02*
X162928094Y-103528201D01*
X162928094Y-103528201D02*
X162880475Y-103575821D01*
X162880475Y-103575821D02*
X162785237Y-103623440D01*
X162785237Y-103623440D02*
X162594761Y-103623440D01*
X162594761Y-103623440D02*
X162499523Y-103575821D01*
X162499523Y-103575821D02*
X162451904Y-103528201D01*
X162451904Y-103528201D02*
X162404285Y-103432963D01*
X162404285Y-103432963D02*
X162404285Y-103194868D01*
X162404285Y-103194868D02*
X162451904Y-103099630D01*
X162451904Y-103099630D02*
X162499523Y-103052011D01*
X162499523Y-103052011D02*
X162594761Y-103004392D01*
X162594761Y-103004392D02*
X162785237Y-103004392D01*
X162785237Y-103004392D02*
X162880475Y-103052011D01*
X162880475Y-103052011D02*
X162928094Y-103099630D01*
X162928094Y-103099630D02*
X162975713Y-103194868D01*
%TO.C,R4*%
X151014819Y-97961954D02*
X150538628Y-97628621D01*
X151014819Y-97390526D02*
X150014819Y-97390526D01*
X150014819Y-97390526D02*
X150014819Y-97771478D01*
X150014819Y-97771478D02*
X150062438Y-97866716D01*
X150062438Y-97866716D02*
X150110057Y-97914335D01*
X150110057Y-97914335D02*
X150205295Y-97961954D01*
X150205295Y-97961954D02*
X150348152Y-97961954D01*
X150348152Y-97961954D02*
X150443390Y-97914335D01*
X150443390Y-97914335D02*
X150491009Y-97866716D01*
X150491009Y-97866716D02*
X150538628Y-97771478D01*
X150538628Y-97771478D02*
X150538628Y-97390526D01*
X150348152Y-98819097D02*
X151014819Y-98819097D01*
X149967200Y-98581002D02*
X150681485Y-98342907D01*
X150681485Y-98342907D02*
X150681485Y-98961954D01*
%TO.C,U8*%
X163111904Y-93943440D02*
X163111904Y-94752963D01*
X163111904Y-94752963D02*
X163064285Y-94848201D01*
X163064285Y-94848201D02*
X163016666Y-94895821D01*
X163016666Y-94895821D02*
X162921428Y-94943440D01*
X162921428Y-94943440D02*
X162730952Y-94943440D01*
X162730952Y-94943440D02*
X162635714Y-94895821D01*
X162635714Y-94895821D02*
X162588095Y-94848201D01*
X162588095Y-94848201D02*
X162540476Y-94752963D01*
X162540476Y-94752963D02*
X162540476Y-93943440D01*
X161921428Y-94372011D02*
X162016666Y-94324392D01*
X162016666Y-94324392D02*
X162064285Y-94276773D01*
X162064285Y-94276773D02*
X162111904Y-94181535D01*
X162111904Y-94181535D02*
X162111904Y-94133916D01*
X162111904Y-94133916D02*
X162064285Y-94038678D01*
X162064285Y-94038678D02*
X162016666Y-93991059D01*
X162016666Y-93991059D02*
X161921428Y-93943440D01*
X161921428Y-93943440D02*
X161730952Y-93943440D01*
X161730952Y-93943440D02*
X161635714Y-93991059D01*
X161635714Y-93991059D02*
X161588095Y-94038678D01*
X161588095Y-94038678D02*
X161540476Y-94133916D01*
X161540476Y-94133916D02*
X161540476Y-94181535D01*
X161540476Y-94181535D02*
X161588095Y-94276773D01*
X161588095Y-94276773D02*
X161635714Y-94324392D01*
X161635714Y-94324392D02*
X161730952Y-94372011D01*
X161730952Y-94372011D02*
X161921428Y-94372011D01*
X161921428Y-94372011D02*
X162016666Y-94419630D01*
X162016666Y-94419630D02*
X162064285Y-94467249D01*
X162064285Y-94467249D02*
X162111904Y-94562487D01*
X162111904Y-94562487D02*
X162111904Y-94752963D01*
X162111904Y-94752963D02*
X162064285Y-94848201D01*
X162064285Y-94848201D02*
X162016666Y-94895821D01*
X162016666Y-94895821D02*
X161921428Y-94943440D01*
X161921428Y-94943440D02*
X161730952Y-94943440D01*
X161730952Y-94943440D02*
X161635714Y-94895821D01*
X161635714Y-94895821D02*
X161588095Y-94848201D01*
X161588095Y-94848201D02*
X161540476Y-94752963D01*
X161540476Y-94752963D02*
X161540476Y-94562487D01*
X161540476Y-94562487D02*
X161588095Y-94467249D01*
X161588095Y-94467249D02*
X161635714Y-94419630D01*
X161635714Y-94419630D02*
X161730952Y-94372011D01*
%TO.C,C8*%
X162656666Y-92388201D02*
X162704285Y-92435821D01*
X162704285Y-92435821D02*
X162847142Y-92483440D01*
X162847142Y-92483440D02*
X162942380Y-92483440D01*
X162942380Y-92483440D02*
X163085237Y-92435821D01*
X163085237Y-92435821D02*
X163180475Y-92340582D01*
X163180475Y-92340582D02*
X163228094Y-92245344D01*
X163228094Y-92245344D02*
X163275713Y-92054868D01*
X163275713Y-92054868D02*
X163275713Y-91912011D01*
X163275713Y-91912011D02*
X163228094Y-91721535D01*
X163228094Y-91721535D02*
X163180475Y-91626297D01*
X163180475Y-91626297D02*
X163085237Y-91531059D01*
X163085237Y-91531059D02*
X162942380Y-91483440D01*
X162942380Y-91483440D02*
X162847142Y-91483440D01*
X162847142Y-91483440D02*
X162704285Y-91531059D01*
X162704285Y-91531059D02*
X162656666Y-91578678D01*
X162085237Y-91912011D02*
X162180475Y-91864392D01*
X162180475Y-91864392D02*
X162228094Y-91816773D01*
X162228094Y-91816773D02*
X162275713Y-91721535D01*
X162275713Y-91721535D02*
X162275713Y-91673916D01*
X162275713Y-91673916D02*
X162228094Y-91578678D01*
X162228094Y-91578678D02*
X162180475Y-91531059D01*
X162180475Y-91531059D02*
X162085237Y-91483440D01*
X162085237Y-91483440D02*
X161894761Y-91483440D01*
X161894761Y-91483440D02*
X161799523Y-91531059D01*
X161799523Y-91531059D02*
X161751904Y-91578678D01*
X161751904Y-91578678D02*
X161704285Y-91673916D01*
X161704285Y-91673916D02*
X161704285Y-91721535D01*
X161704285Y-91721535D02*
X161751904Y-91816773D01*
X161751904Y-91816773D02*
X161799523Y-91864392D01*
X161799523Y-91864392D02*
X161894761Y-91912011D01*
X161894761Y-91912011D02*
X162085237Y-91912011D01*
X162085237Y-91912011D02*
X162180475Y-91959630D01*
X162180475Y-91959630D02*
X162228094Y-92007249D01*
X162228094Y-92007249D02*
X162275713Y-92102487D01*
X162275713Y-92102487D02*
X162275713Y-92292963D01*
X162275713Y-92292963D02*
X162228094Y-92388201D01*
X162228094Y-92388201D02*
X162180475Y-92435821D01*
X162180475Y-92435821D02*
X162085237Y-92483440D01*
X162085237Y-92483440D02*
X161894761Y-92483440D01*
X161894761Y-92483440D02*
X161799523Y-92435821D01*
X161799523Y-92435821D02*
X161751904Y-92388201D01*
X161751904Y-92388201D02*
X161704285Y-92292963D01*
X161704285Y-92292963D02*
X161704285Y-92102487D01*
X161704285Y-92102487D02*
X161751904Y-92007249D01*
X161751904Y-92007249D02*
X161799523Y-91959630D01*
X161799523Y-91959630D02*
X161894761Y-91912011D01*
%TO.C,C3*%
X144349580Y-92499454D02*
X144397200Y-92451835D01*
X144397200Y-92451835D02*
X144444819Y-92308978D01*
X144444819Y-92308978D02*
X144444819Y-92213740D01*
X144444819Y-92213740D02*
X144397200Y-92070883D01*
X144397200Y-92070883D02*
X144301961Y-91975645D01*
X144301961Y-91975645D02*
X144206723Y-91928026D01*
X144206723Y-91928026D02*
X144016247Y-91880407D01*
X144016247Y-91880407D02*
X143873390Y-91880407D01*
X143873390Y-91880407D02*
X143682914Y-91928026D01*
X143682914Y-91928026D02*
X143587676Y-91975645D01*
X143587676Y-91975645D02*
X143492438Y-92070883D01*
X143492438Y-92070883D02*
X143444819Y-92213740D01*
X143444819Y-92213740D02*
X143444819Y-92308978D01*
X143444819Y-92308978D02*
X143492438Y-92451835D01*
X143492438Y-92451835D02*
X143540057Y-92499454D01*
X143444819Y-92832788D02*
X143444819Y-93451835D01*
X143444819Y-93451835D02*
X143825771Y-93118502D01*
X143825771Y-93118502D02*
X143825771Y-93261359D01*
X143825771Y-93261359D02*
X143873390Y-93356597D01*
X143873390Y-93356597D02*
X143921009Y-93404216D01*
X143921009Y-93404216D02*
X144016247Y-93451835D01*
X144016247Y-93451835D02*
X144254342Y-93451835D01*
X144254342Y-93451835D02*
X144349580Y-93404216D01*
X144349580Y-93404216D02*
X144397200Y-93356597D01*
X144397200Y-93356597D02*
X144444819Y-93261359D01*
X144444819Y-93261359D02*
X144444819Y-92975645D01*
X144444819Y-92975645D02*
X144397200Y-92880407D01*
X144397200Y-92880407D02*
X144349580Y-92832788D01*
%TO.C,C2*%
X143926666Y-99248201D02*
X143974285Y-99295821D01*
X143974285Y-99295821D02*
X144117142Y-99343440D01*
X144117142Y-99343440D02*
X144212380Y-99343440D01*
X144212380Y-99343440D02*
X144355237Y-99295821D01*
X144355237Y-99295821D02*
X144450475Y-99200582D01*
X144450475Y-99200582D02*
X144498094Y-99105344D01*
X144498094Y-99105344D02*
X144545713Y-98914868D01*
X144545713Y-98914868D02*
X144545713Y-98772011D01*
X144545713Y-98772011D02*
X144498094Y-98581535D01*
X144498094Y-98581535D02*
X144450475Y-98486297D01*
X144450475Y-98486297D02*
X144355237Y-98391059D01*
X144355237Y-98391059D02*
X144212380Y-98343440D01*
X144212380Y-98343440D02*
X144117142Y-98343440D01*
X144117142Y-98343440D02*
X143974285Y-98391059D01*
X143974285Y-98391059D02*
X143926666Y-98438678D01*
X143545713Y-98438678D02*
X143498094Y-98391059D01*
X143498094Y-98391059D02*
X143402856Y-98343440D01*
X143402856Y-98343440D02*
X143164761Y-98343440D01*
X143164761Y-98343440D02*
X143069523Y-98391059D01*
X143069523Y-98391059D02*
X143021904Y-98438678D01*
X143021904Y-98438678D02*
X142974285Y-98533916D01*
X142974285Y-98533916D02*
X142974285Y-98629154D01*
X142974285Y-98629154D02*
X143021904Y-98772011D01*
X143021904Y-98772011D02*
X143593332Y-99343440D01*
X143593332Y-99343440D02*
X142974285Y-99343440D01*
%TO.C,R7*%
X163326666Y-110313440D02*
X163659999Y-109837249D01*
X163898094Y-110313440D02*
X163898094Y-109313440D01*
X163898094Y-109313440D02*
X163517142Y-109313440D01*
X163517142Y-109313440D02*
X163421904Y-109361059D01*
X163421904Y-109361059D02*
X163374285Y-109408678D01*
X163374285Y-109408678D02*
X163326666Y-109503916D01*
X163326666Y-109503916D02*
X163326666Y-109646773D01*
X163326666Y-109646773D02*
X163374285Y-109742011D01*
X163374285Y-109742011D02*
X163421904Y-109789630D01*
X163421904Y-109789630D02*
X163517142Y-109837249D01*
X163517142Y-109837249D02*
X163898094Y-109837249D01*
X162993332Y-109313440D02*
X162326666Y-109313440D01*
X162326666Y-109313440D02*
X162755237Y-110313440D01*
%TO.C,C5*%
X157856666Y-105628201D02*
X157904285Y-105675821D01*
X157904285Y-105675821D02*
X158047142Y-105723440D01*
X158047142Y-105723440D02*
X158142380Y-105723440D01*
X158142380Y-105723440D02*
X158285237Y-105675821D01*
X158285237Y-105675821D02*
X158380475Y-105580582D01*
X158380475Y-105580582D02*
X158428094Y-105485344D01*
X158428094Y-105485344D02*
X158475713Y-105294868D01*
X158475713Y-105294868D02*
X158475713Y-105152011D01*
X158475713Y-105152011D02*
X158428094Y-104961535D01*
X158428094Y-104961535D02*
X158380475Y-104866297D01*
X158380475Y-104866297D02*
X158285237Y-104771059D01*
X158285237Y-104771059D02*
X158142380Y-104723440D01*
X158142380Y-104723440D02*
X158047142Y-104723440D01*
X158047142Y-104723440D02*
X157904285Y-104771059D01*
X157904285Y-104771059D02*
X157856666Y-104818678D01*
X156951904Y-104723440D02*
X157428094Y-104723440D01*
X157428094Y-104723440D02*
X157475713Y-105199630D01*
X157475713Y-105199630D02*
X157428094Y-105152011D01*
X157428094Y-105152011D02*
X157332856Y-105104392D01*
X157332856Y-105104392D02*
X157094761Y-105104392D01*
X157094761Y-105104392D02*
X156999523Y-105152011D01*
X156999523Y-105152011D02*
X156951904Y-105199630D01*
X156951904Y-105199630D02*
X156904285Y-105294868D01*
X156904285Y-105294868D02*
X156904285Y-105532963D01*
X156904285Y-105532963D02*
X156951904Y-105628201D01*
X156951904Y-105628201D02*
X156999523Y-105675821D01*
X156999523Y-105675821D02*
X157094761Y-105723440D01*
X157094761Y-105723440D02*
X157332856Y-105723440D01*
X157332856Y-105723440D02*
X157428094Y-105675821D01*
X157428094Y-105675821D02*
X157475713Y-105628201D01*
%TO.C,U9*%
X149141904Y-90943440D02*
X149141904Y-91752963D01*
X149141904Y-91752963D02*
X149094285Y-91848201D01*
X149094285Y-91848201D02*
X149046666Y-91895821D01*
X149046666Y-91895821D02*
X148951428Y-91943440D01*
X148951428Y-91943440D02*
X148760952Y-91943440D01*
X148760952Y-91943440D02*
X148665714Y-91895821D01*
X148665714Y-91895821D02*
X148618095Y-91848201D01*
X148618095Y-91848201D02*
X148570476Y-91752963D01*
X148570476Y-91752963D02*
X148570476Y-90943440D01*
X148046666Y-91943440D02*
X147856190Y-91943440D01*
X147856190Y-91943440D02*
X147760952Y-91895821D01*
X147760952Y-91895821D02*
X147713333Y-91848201D01*
X147713333Y-91848201D02*
X147618095Y-91705344D01*
X147618095Y-91705344D02*
X147570476Y-91514868D01*
X147570476Y-91514868D02*
X147570476Y-91133916D01*
X147570476Y-91133916D02*
X147618095Y-91038678D01*
X147618095Y-91038678D02*
X147665714Y-90991059D01*
X147665714Y-90991059D02*
X147760952Y-90943440D01*
X147760952Y-90943440D02*
X147951428Y-90943440D01*
X147951428Y-90943440D02*
X148046666Y-90991059D01*
X148046666Y-90991059D02*
X148094285Y-91038678D01*
X148094285Y-91038678D02*
X148141904Y-91133916D01*
X148141904Y-91133916D02*
X148141904Y-91372011D01*
X148141904Y-91372011D02*
X148094285Y-91467249D01*
X148094285Y-91467249D02*
X148046666Y-91514868D01*
X148046666Y-91514868D02*
X147951428Y-91562487D01*
X147951428Y-91562487D02*
X147760952Y-91562487D01*
X147760952Y-91562487D02*
X147665714Y-91514868D01*
X147665714Y-91514868D02*
X147618095Y-91467249D01*
X147618095Y-91467249D02*
X147570476Y-91372011D01*
%TO.C,R11*%
X154372857Y-96953440D02*
X154706190Y-96477249D01*
X154944285Y-96953440D02*
X154944285Y-95953440D01*
X154944285Y-95953440D02*
X154563333Y-95953440D01*
X154563333Y-95953440D02*
X154468095Y-96001059D01*
X154468095Y-96001059D02*
X154420476Y-96048678D01*
X154420476Y-96048678D02*
X154372857Y-96143916D01*
X154372857Y-96143916D02*
X154372857Y-96286773D01*
X154372857Y-96286773D02*
X154420476Y-96382011D01*
X154420476Y-96382011D02*
X154468095Y-96429630D01*
X154468095Y-96429630D02*
X154563333Y-96477249D01*
X154563333Y-96477249D02*
X154944285Y-96477249D01*
X153420476Y-96953440D02*
X153991904Y-96953440D01*
X153706190Y-96953440D02*
X153706190Y-95953440D01*
X153706190Y-95953440D02*
X153801428Y-96096297D01*
X153801428Y-96096297D02*
X153896666Y-96191535D01*
X153896666Y-96191535D02*
X153991904Y-96239154D01*
X152468095Y-96953440D02*
X153039523Y-96953440D01*
X152753809Y-96953440D02*
X152753809Y-95953440D01*
X152753809Y-95953440D02*
X152849047Y-96096297D01*
X152849047Y-96096297D02*
X152944285Y-96191535D01*
X152944285Y-96191535D02*
X153039523Y-96239154D01*
%TO.C,R3*%
X143856666Y-97703440D02*
X144189999Y-97227249D01*
X144428094Y-97703440D02*
X144428094Y-96703440D01*
X144428094Y-96703440D02*
X144047142Y-96703440D01*
X144047142Y-96703440D02*
X143951904Y-96751059D01*
X143951904Y-96751059D02*
X143904285Y-96798678D01*
X143904285Y-96798678D02*
X143856666Y-96893916D01*
X143856666Y-96893916D02*
X143856666Y-97036773D01*
X143856666Y-97036773D02*
X143904285Y-97132011D01*
X143904285Y-97132011D02*
X143951904Y-97179630D01*
X143951904Y-97179630D02*
X144047142Y-97227249D01*
X144047142Y-97227249D02*
X144428094Y-97227249D01*
X143523332Y-96703440D02*
X142904285Y-96703440D01*
X142904285Y-96703440D02*
X143237618Y-97084392D01*
X143237618Y-97084392D02*
X143094761Y-97084392D01*
X143094761Y-97084392D02*
X142999523Y-97132011D01*
X142999523Y-97132011D02*
X142951904Y-97179630D01*
X142951904Y-97179630D02*
X142904285Y-97274868D01*
X142904285Y-97274868D02*
X142904285Y-97512963D01*
X142904285Y-97512963D02*
X142951904Y-97608201D01*
X142951904Y-97608201D02*
X142999523Y-97655821D01*
X142999523Y-97655821D02*
X143094761Y-97703440D01*
X143094761Y-97703440D02*
X143380475Y-97703440D01*
X143380475Y-97703440D02*
X143475713Y-97655821D01*
X143475713Y-97655821D02*
X143523332Y-97608201D01*
%TO.C,C4*%
X138826666Y-98998201D02*
X138874285Y-99045821D01*
X138874285Y-99045821D02*
X139017142Y-99093440D01*
X139017142Y-99093440D02*
X139112380Y-99093440D01*
X139112380Y-99093440D02*
X139255237Y-99045821D01*
X139255237Y-99045821D02*
X139350475Y-98950582D01*
X139350475Y-98950582D02*
X139398094Y-98855344D01*
X139398094Y-98855344D02*
X139445713Y-98664868D01*
X139445713Y-98664868D02*
X139445713Y-98522011D01*
X139445713Y-98522011D02*
X139398094Y-98331535D01*
X139398094Y-98331535D02*
X139350475Y-98236297D01*
X139350475Y-98236297D02*
X139255237Y-98141059D01*
X139255237Y-98141059D02*
X139112380Y-98093440D01*
X139112380Y-98093440D02*
X139017142Y-98093440D01*
X139017142Y-98093440D02*
X138874285Y-98141059D01*
X138874285Y-98141059D02*
X138826666Y-98188678D01*
X137969523Y-98426773D02*
X137969523Y-99093440D01*
X138207618Y-98045821D02*
X138445713Y-98760106D01*
X138445713Y-98760106D02*
X137826666Y-98760106D01*
%TO.C,U6*%
X163331904Y-107053440D02*
X163331904Y-107862963D01*
X163331904Y-107862963D02*
X163284285Y-107958201D01*
X163284285Y-107958201D02*
X163236666Y-108005821D01*
X163236666Y-108005821D02*
X163141428Y-108053440D01*
X163141428Y-108053440D02*
X162950952Y-108053440D01*
X162950952Y-108053440D02*
X162855714Y-108005821D01*
X162855714Y-108005821D02*
X162808095Y-107958201D01*
X162808095Y-107958201D02*
X162760476Y-107862963D01*
X162760476Y-107862963D02*
X162760476Y-107053440D01*
X161855714Y-107053440D02*
X162046190Y-107053440D01*
X162046190Y-107053440D02*
X162141428Y-107101059D01*
X162141428Y-107101059D02*
X162189047Y-107148678D01*
X162189047Y-107148678D02*
X162284285Y-107291535D01*
X162284285Y-107291535D02*
X162331904Y-107482011D01*
X162331904Y-107482011D02*
X162331904Y-107862963D01*
X162331904Y-107862963D02*
X162284285Y-107958201D01*
X162284285Y-107958201D02*
X162236666Y-108005821D01*
X162236666Y-108005821D02*
X162141428Y-108053440D01*
X162141428Y-108053440D02*
X161950952Y-108053440D01*
X161950952Y-108053440D02*
X161855714Y-108005821D01*
X161855714Y-108005821D02*
X161808095Y-107958201D01*
X161808095Y-107958201D02*
X161760476Y-107862963D01*
X161760476Y-107862963D02*
X161760476Y-107624868D01*
X161760476Y-107624868D02*
X161808095Y-107529630D01*
X161808095Y-107529630D02*
X161855714Y-107482011D01*
X161855714Y-107482011D02*
X161950952Y-107434392D01*
X161950952Y-107434392D02*
X162141428Y-107434392D01*
X162141428Y-107434392D02*
X162236666Y-107482011D01*
X162236666Y-107482011D02*
X162284285Y-107529630D01*
X162284285Y-107529630D02*
X162331904Y-107624868D01*
%TO.C,C6*%
X138476666Y-105538201D02*
X138524285Y-105585821D01*
X138524285Y-105585821D02*
X138667142Y-105633440D01*
X138667142Y-105633440D02*
X138762380Y-105633440D01*
X138762380Y-105633440D02*
X138905237Y-105585821D01*
X138905237Y-105585821D02*
X139000475Y-105490582D01*
X139000475Y-105490582D02*
X139048094Y-105395344D01*
X139048094Y-105395344D02*
X139095713Y-105204868D01*
X139095713Y-105204868D02*
X139095713Y-105062011D01*
X139095713Y-105062011D02*
X139048094Y-104871535D01*
X139048094Y-104871535D02*
X139000475Y-104776297D01*
X139000475Y-104776297D02*
X138905237Y-104681059D01*
X138905237Y-104681059D02*
X138762380Y-104633440D01*
X138762380Y-104633440D02*
X138667142Y-104633440D01*
X138667142Y-104633440D02*
X138524285Y-104681059D01*
X138524285Y-104681059D02*
X138476666Y-104728678D01*
X137619523Y-104633440D02*
X137809999Y-104633440D01*
X137809999Y-104633440D02*
X137905237Y-104681059D01*
X137905237Y-104681059D02*
X137952856Y-104728678D01*
X137952856Y-104728678D02*
X138048094Y-104871535D01*
X138048094Y-104871535D02*
X138095713Y-105062011D01*
X138095713Y-105062011D02*
X138095713Y-105442963D01*
X138095713Y-105442963D02*
X138048094Y-105538201D01*
X138048094Y-105538201D02*
X138000475Y-105585821D01*
X138000475Y-105585821D02*
X137905237Y-105633440D01*
X137905237Y-105633440D02*
X137714761Y-105633440D01*
X137714761Y-105633440D02*
X137619523Y-105585821D01*
X137619523Y-105585821D02*
X137571904Y-105538201D01*
X137571904Y-105538201D02*
X137524285Y-105442963D01*
X137524285Y-105442963D02*
X137524285Y-105204868D01*
X137524285Y-105204868D02*
X137571904Y-105109630D01*
X137571904Y-105109630D02*
X137619523Y-105062011D01*
X137619523Y-105062011D02*
X137714761Y-105014392D01*
X137714761Y-105014392D02*
X137905237Y-105014392D01*
X137905237Y-105014392D02*
X138000475Y-105062011D01*
X138000475Y-105062011D02*
X138048094Y-105109630D01*
X138048094Y-105109630D02*
X138095713Y-105204868D01*
%TO.C,U5*%
X144291904Y-107023440D02*
X144291904Y-107832963D01*
X144291904Y-107832963D02*
X144244285Y-107928201D01*
X144244285Y-107928201D02*
X144196666Y-107975821D01*
X144196666Y-107975821D02*
X144101428Y-108023440D01*
X144101428Y-108023440D02*
X143910952Y-108023440D01*
X143910952Y-108023440D02*
X143815714Y-107975821D01*
X143815714Y-107975821D02*
X143768095Y-107928201D01*
X143768095Y-107928201D02*
X143720476Y-107832963D01*
X143720476Y-107832963D02*
X143720476Y-107023440D01*
X142768095Y-107023440D02*
X143244285Y-107023440D01*
X143244285Y-107023440D02*
X143291904Y-107499630D01*
X143291904Y-107499630D02*
X143244285Y-107452011D01*
X143244285Y-107452011D02*
X143149047Y-107404392D01*
X143149047Y-107404392D02*
X142910952Y-107404392D01*
X142910952Y-107404392D02*
X142815714Y-107452011D01*
X142815714Y-107452011D02*
X142768095Y-107499630D01*
X142768095Y-107499630D02*
X142720476Y-107594868D01*
X142720476Y-107594868D02*
X142720476Y-107832963D01*
X142720476Y-107832963D02*
X142768095Y-107928201D01*
X142768095Y-107928201D02*
X142815714Y-107975821D01*
X142815714Y-107975821D02*
X142910952Y-108023440D01*
X142910952Y-108023440D02*
X143149047Y-108023440D01*
X143149047Y-108023440D02*
X143244285Y-107975821D01*
X143244285Y-107975821D02*
X143291904Y-107928201D01*
D11*
%TO.C,R10*%
X160782379Y-96038621D02*
X161117621Y-96038621D01*
X160782379Y-96798621D02*
X161117621Y-96798621D01*
%TO.C,D1*%
X160430000Y-91543621D02*
X157970000Y-91543621D01*
X160430000Y-90073621D02*
X160430000Y-91543621D01*
X157970000Y-90073621D02*
X160430000Y-90073621D01*
%TO.C,U4*%
X140237500Y-102453621D02*
X141037500Y-102453621D01*
X140237500Y-102453621D02*
X139437500Y-102453621D01*
X140237500Y-99333621D02*
X142037500Y-99333621D01*
X140237500Y-99333621D02*
X139437500Y-99333621D01*
%TO.C,R8*%
X140937621Y-110258621D02*
X140602379Y-110258621D01*
X140937621Y-109498621D02*
X140602379Y-109498621D01*
%TO.C,U7*%
X159190000Y-102473621D02*
X159990000Y-102473621D01*
X159190000Y-102473621D02*
X158390000Y-102473621D01*
X159190000Y-99353621D02*
X160990000Y-99353621D01*
X159190000Y-99353621D02*
X158390000Y-99353621D01*
%TO.C,C9*%
X151320000Y-93415286D02*
X151320000Y-93646956D01*
X150600000Y-93415286D02*
X150600000Y-93646956D01*
%TO.C,U1*%
X154950000Y-91768621D02*
X155750000Y-91768621D01*
X154950000Y-91768621D02*
X154150000Y-91768621D01*
X154950000Y-88648621D02*
X156750000Y-88648621D01*
X154950000Y-88648621D02*
X154150000Y-88648621D01*
%TO.C,C7*%
X162324165Y-99588621D02*
X162555835Y-99588621D01*
X162324165Y-100308621D02*
X162555835Y-100308621D01*
%TO.C,R9*%
X140937621Y-103608621D02*
X140602379Y-103608621D01*
X140937621Y-102848621D02*
X140602379Y-102848621D01*
%TO.C,U3*%
X140237500Y-95738621D02*
X141037500Y-95738621D01*
X140237500Y-95738621D02*
X139437500Y-95738621D01*
X140237500Y-92618621D02*
X142037500Y-92618621D01*
X140237500Y-92618621D02*
X139437500Y-92618621D01*
%TO.C,R1*%
X150925276Y-88736121D02*
X151434724Y-88736121D01*
X150925276Y-89781121D02*
X151434724Y-89781121D01*
%TO.C,R5*%
X140937621Y-96798621D02*
X140602379Y-96798621D01*
X140937621Y-96038621D02*
X140602379Y-96038621D01*
%TO.C,U2*%
X150160000Y-105473621D02*
X152360000Y-105473621D01*
X150160000Y-105473621D02*
X147960000Y-105473621D01*
X150160000Y-100003621D02*
X153760000Y-100003621D01*
X150160000Y-100003621D02*
X147960000Y-100003621D01*
%TO.C,R6*%
X160752379Y-102838621D02*
X161087621Y-102838621D01*
X160752379Y-103598621D02*
X161087621Y-103598621D01*
%TO.C,R4*%
X149442500Y-97803897D02*
X149442500Y-98313345D01*
X148397500Y-97803897D02*
X148397500Y-98313345D01*
%TO.C,R2*%
X158495276Y-88716121D02*
X159004724Y-88716121D01*
X158495276Y-89761121D02*
X159004724Y-89761121D01*
%TO.C,U8*%
X159190000Y-95768621D02*
X159990000Y-95768621D01*
X159190000Y-95768621D02*
X158390000Y-95768621D01*
X159190000Y-92648621D02*
X160990000Y-92648621D01*
X159190000Y-92648621D02*
X158390000Y-92648621D01*
%TO.C,C1*%
X151316267Y-91678621D02*
X151023733Y-91678621D01*
X151316267Y-90658621D02*
X151023733Y-90658621D01*
%TO.C,C8*%
X162324165Y-92898621D02*
X162555835Y-92898621D01*
X162324165Y-93618621D02*
X162555835Y-93618621D01*
%TO.C,C3*%
X142470000Y-92781956D02*
X142470000Y-92550286D01*
X143190000Y-92781956D02*
X143190000Y-92550286D01*
%TO.C,C2*%
X146576267Y-99408621D02*
X146283733Y-99408621D01*
X146576267Y-98388621D02*
X146283733Y-98388621D01*
%TO.C,R7*%
X160752379Y-109528621D02*
X161087621Y-109528621D01*
X160752379Y-110288621D02*
X161087621Y-110288621D01*
%TO.C,C5*%
X159873335Y-105788621D02*
X159641665Y-105788621D01*
X159873335Y-105068621D02*
X159641665Y-105068621D01*
%TO.C,U9*%
X148330000Y-95488621D02*
X149130000Y-95488621D01*
X148330000Y-95488621D02*
X147530000Y-95488621D01*
X148330000Y-92368621D02*
X150130000Y-92368621D01*
X148330000Y-92368621D02*
X147530000Y-92368621D01*
%TO.C,R11*%
X150962379Y-96118621D02*
X151297621Y-96118621D01*
X150962379Y-96878621D02*
X151297621Y-96878621D01*
%TO.C,R3*%
X146654724Y-97871121D02*
X146145276Y-97871121D01*
X146654724Y-96826121D02*
X146145276Y-96826121D01*
%TO.C,C4*%
X140925835Y-98988621D02*
X140694165Y-98988621D01*
X140925835Y-98268621D02*
X140694165Y-98268621D01*
%TO.C,U6*%
X159190000Y-109178621D02*
X159990000Y-109178621D01*
X159190000Y-109178621D02*
X158390000Y-109178621D01*
X159190000Y-106058621D02*
X160990000Y-106058621D01*
X159190000Y-106058621D02*
X158390000Y-106058621D01*
%TO.C,C6*%
X140933335Y-105788621D02*
X140701665Y-105788621D01*
X140933335Y-105068621D02*
X140701665Y-105068621D01*
%TO.C,U5*%
X140237500Y-109158621D02*
X141037500Y-109158621D01*
X140237500Y-109158621D02*
X139437500Y-109158621D01*
X140237500Y-106038621D02*
X142037500Y-106038621D01*
X140237500Y-106038621D02*
X139437500Y-106038621D01*
%TD*%
M02*
