M48
; DRILL file {KiCad 7.0.5} date Wed Jan 24 02:04:39 2024
; FORMAT={-:-/ absolute / inch / decimal}
; #@! TF.CreationDate,2024-01-24T02:04:39-05:00
; #@! TF.GenerationSoftware,Kicad,Pcbnew,7.0.5
; #@! TF.FileFunction,Plated,1,2,PTH
FMAT,2
INCH
; #@! TA.AperFunction,Plated,PTH,ViaDrill
T1C0.0130
; #@! TA.AperFunction,Plated,PTH,ViaDrill
T2C0.0150
; #@! TA.AperFunction,Plated,PTH,ComponentDrill
T3C0.0315
; #@! TA.AperFunction,Plated,PTH,ComponentDrill
T4C0.0394
%
G90
G05
T1
X5.1835Y-3.6496
X5.1933Y-3.748
X5.1933Y-4.1515
X5.213Y-4.2303
X5.2622Y-3.6889
X5.2917Y-4.2106
X5.3213Y-3.5511
X5.3213Y-4.4173
X5.3311Y-4.122
X5.3409Y-4.2893
X5.3508Y-3.8366
X5.3705Y-4.496
X5.3803Y-3.4625
X5.4295Y-4.3976
X5.4394Y-3.561
X5.4433Y-3.8031
X5.4591Y-4.4763
X5.4709Y-3.8818
X5.4827Y-3.9724
X5.4866Y-3.7086
X5.5378Y-4.5747
X5.5476Y-3.5216
X5.5693Y-3.4251
X5.5772Y-3.5826
X5.5811Y-4.4003
X5.624Y-4.3803
X5.6244Y-4.2125
X5.6283Y-4.1456
X5.6638Y-3.9291
X5.665Y-4.3594
X5.6756Y-3.2362
X5.6756Y-4.0826
X5.6756Y-4.6535
X5.6874Y-3.5866
X5.6874Y-4.1456
X5.7311Y-3.8925
X5.7346Y-3.5511
X5.7346Y-3.748
X5.7362Y-3.9346
X5.7386Y-4.0196
X5.7504Y-3.4921
X5.7543Y-3.1574
X5.7543Y-3.2362
X5.7543Y-4.3582
X5.7543Y-4.6535
X5.7543Y-4.7125
X5.778Y-4.2637
X5.8134Y-4.1968
X5.8203Y-3.7814
X5.8291Y-3.4881
X5.8291Y-4.307
X5.8331Y-3.2362
X5.8331Y-3.5433
X5.8331Y-4.6535
X5.8567Y-4.0275
X5.8606Y-4.0905
X5.8807Y-4.3507
X5.8827Y-4.1968
X5.8854Y-3.698
X5.8961Y-4.2637
X5.9039Y-3.4566
X5.9039Y-4.0511
X5.9039Y-4.1259
X5.9043Y-3.9822
X5.9055Y-3.8964
X5.9118Y-3.2362
X5.9118Y-4.6535
X5.9354Y-4.3082
X5.9748Y-3.7519
X5.985Y-3.5901
X5.9886Y-4.1968
X5.9906Y-3.2362
X5.9906Y-3.8956
X5.9906Y-4.6535
X6.0122Y-4.3519
X6.0142Y-3.437
X6.0339Y-3.7322
X6.0693Y-3.1574
X6.0693Y-3.2362
X6.0693Y-4.6535
X6.0693Y-4.7125
X6.0713Y-4.2665
X6.0795Y-4.3165
X6.0843Y-4.1952
X6.089Y-3.8464
X6.1425Y-4.1464
X6.1441Y-3.4763
X6.148Y-3.2362
X6.148Y-4.6535
X6.2177Y-3.5744
X6.2661Y-3.3051
X6.274Y-3.3622
X6.276Y-4.4566
X6.2858Y-3.4429
X6.2858Y-4.1141
X6.2898Y-3.8503
X6.3154Y-4.3976
X6.3252Y-4.5452
X6.337Y-3.8503
X6.3685Y-4.0826
X6.3921Y-4.2755
X6.4118Y-4.3228
X6.4138Y-3.5314
X6.4138Y-4.4763
X6.4433Y-3.6102
X6.4728Y-4.4074
X6.4925Y-3.7283
X6.4925Y-3.8759
X6.5024Y-3.994
X6.5024Y-4.1023
X6.5024Y-4.181
X6.5122Y-3.5314
X6.5122Y-4.2893
X6.522Y-3.6299
X6.5417Y-3.4606
X6.6008Y-3.935
X6.6008Y-4.0236
X6.6008Y-4.2303
X6.6106Y-3.6889
X6.6106Y-4.1122
T2
X5.4043Y-3.7373
X5.4047Y-3.9972
X5.4047Y-4.2688
X6.1283Y-3.787
X6.1327Y-4.3031
X6.1346Y-4.0433
T3
X6.3542Y-3.3673
X6.4224Y-3.4066
T4
X5.6618Y-3.3042
X5.6618Y-3.4042
X5.6618Y-4.4781
X5.6618Y-4.5781
X5.7618Y-3.3042
X5.7618Y-3.4042
X5.7618Y-4.4781
X5.7618Y-4.5781
X5.8618Y-3.3042
X5.8618Y-3.4042
X5.8618Y-4.4781
X5.8618Y-4.5781
X5.9618Y-3.3042
X5.9618Y-3.4042
X5.9618Y-4.4781
X5.9618Y-4.5781
X6.0618Y-3.3042
X6.0618Y-3.4042
X6.0618Y-4.4781
X6.0618Y-4.5781
X6.1618Y-3.3042
X6.1618Y-3.4042
X6.1618Y-4.4781
X6.1618Y-4.5781
T0
M30
