%TF.GenerationSoftware,KiCad,Pcbnew,8.0.2-1*%
%TF.CreationDate,2024-05-06T20:00:43-04:00*%
%TF.ProjectId,LED_INDICATOR,4c45445f-494e-4444-9943-41544f522e6b,rev?*%
%TF.SameCoordinates,Original*%
%TF.FileFunction,Legend,Top*%
%TF.FilePolarity,Positive*%
%FSLAX46Y46*%
G04 Gerber Fmt 4.6, Leading zero omitted, Abs format (unit mm)*
G04 Created by KiCad (PCBNEW 8.0.2-1) date 2024-05-06 20:00:43*
%MOMM*%
%LPD*%
G01*
G04 APERTURE LIST*
%ADD10C,0.120000*%
%ADD11R,6.000000X0.760000*%
G04 APERTURE END LIST*
D10*
%TO.C,D4*%
X146800000Y-96563621D02*
X146800000Y-98833621D01*
X146800000Y-98833621D02*
X150860000Y-98833621D01*
X150860000Y-96563621D02*
X146800000Y-96563621D01*
%TO.C,R2*%
X156087064Y-101108621D02*
X154632936Y-101108621D01*
X156087064Y-99288621D02*
X154632936Y-99288621D01*
%TO.C,R1*%
X156087064Y-98608621D02*
X154632936Y-98608621D01*
X156087064Y-96788621D02*
X154632936Y-96788621D01*
%TO.C,D3*%
X146800000Y-99063621D02*
X146800000Y-101333621D01*
X146800000Y-101333621D02*
X150860000Y-101333621D01*
X150860000Y-99063621D02*
X146800000Y-99063621D01*
%TO.C,J1*%
X159390000Y-96878621D02*
X160960000Y-96878621D01*
X159390000Y-97698621D02*
X159390000Y-96878621D01*
X162530000Y-97258621D02*
X164640000Y-97258621D01*
X162530000Y-98138621D02*
X164640000Y-98138621D01*
X162530000Y-99798621D02*
X164640000Y-99798621D01*
X162530000Y-100678621D02*
X164640000Y-100678621D01*
X162530000Y-102338621D02*
X164640000Y-102338621D01*
X162530000Y-103218621D02*
X164640000Y-103218621D01*
X164640000Y-96308621D02*
X167380000Y-96308621D01*
X164640000Y-104168621D02*
X164640000Y-96308621D01*
X167380000Y-96308621D02*
X167380000Y-104168621D01*
X167380000Y-97258621D02*
X173380000Y-97258621D01*
X167380000Y-99798621D02*
X173380000Y-99798621D01*
X167380000Y-102338621D02*
X173380000Y-102338621D01*
X167380000Y-104168621D02*
X164640000Y-104168621D01*
X173380000Y-97258621D02*
X173380000Y-98138621D01*
X173380000Y-98138621D02*
X167380000Y-98138621D01*
X173380000Y-99798621D02*
X173380000Y-100678621D01*
X173380000Y-100678621D02*
X167380000Y-100678621D01*
X173380000Y-102338621D02*
X173380000Y-103218621D01*
X173380000Y-103218621D02*
X167380000Y-103218621D01*
%TD*%
D11*
%TO.C,J1*%
X170380000Y-97698621D03*
%TD*%
M02*
