%TF.GenerationSoftware,KiCad,Pcbnew,7.0.5*%
%TF.CreationDate,2024-01-17T11:16:08-05:00*%
%TF.ProjectId,MCU,4d43552e-6b69-4636-9164-5f7063625858,rev?*%
%TF.SameCoordinates,Original*%
%TF.FileFunction,Copper,L2,Bot*%
%TF.FilePolarity,Positive*%
%FSLAX46Y46*%
G04 Gerber Fmt 4.6, Leading zero omitted, Abs format (unit mm)*
G04 Created by KiCad (PCBNEW 7.0.5) date 2024-01-17 11:16:08*
%MOMM*%
%LPD*%
G01*
G04 APERTURE LIST*
G04 Aperture macros list*
%AMRoundRect*
0 Rectangle with rounded corners*
0 $1 Rounding radius*
0 $2 $3 $4 $5 $6 $7 $8 $9 X,Y pos of 4 corners*
0 Add a 4 corners polygon primitive as box body*
4,1,4,$2,$3,$4,$5,$6,$7,$8,$9,$2,$3,0*
0 Add four circle primitives for the rounded corners*
1,1,$1+$1,$2,$3*
1,1,$1+$1,$4,$5*
1,1,$1+$1,$6,$7*
1,1,$1+$1,$8,$9*
0 Add four rect primitives between the rounded corners*
20,1,$1+$1,$2,$3,$4,$5,0*
20,1,$1+$1,$4,$5,$6,$7,0*
20,1,$1+$1,$6,$7,$8,$9,0*
20,1,$1+$1,$8,$9,$2,$3,0*%
G04 Aperture macros list end*
%TA.AperFunction,ComponentPad*%
%ADD10R,1.700000X1.700000*%
%TD*%
%TA.AperFunction,ComponentPad*%
%ADD11O,1.700000X1.700000*%
%TD*%
%TA.AperFunction,ComponentPad*%
%ADD12R,1.350000X1.350000*%
%TD*%
%TA.AperFunction,ComponentPad*%
%ADD13O,1.350000X1.350000*%
%TD*%
%TA.AperFunction,SMDPad,CuDef*%
%ADD14RoundRect,0.155000X0.212500X0.155000X-0.212500X0.155000X-0.212500X-0.155000X0.212500X-0.155000X0*%
%TD*%
%TA.AperFunction,SMDPad,CuDef*%
%ADD15RoundRect,0.160000X0.197500X0.160000X-0.197500X0.160000X-0.197500X-0.160000X0.197500X-0.160000X0*%
%TD*%
%TA.AperFunction,SMDPad,CuDef*%
%ADD16RoundRect,0.155000X0.155000X-0.212500X0.155000X0.212500X-0.155000X0.212500X-0.155000X-0.212500X0*%
%TD*%
%TA.AperFunction,SMDPad,CuDef*%
%ADD17RoundRect,0.160000X-0.197500X-0.160000X0.197500X-0.160000X0.197500X0.160000X-0.197500X0.160000X0*%
%TD*%
%TA.AperFunction,SMDPad,CuDef*%
%ADD18RoundRect,0.155000X-0.212500X-0.155000X0.212500X-0.155000X0.212500X0.155000X-0.212500X0.155000X0*%
%TD*%
%TA.AperFunction,SMDPad,CuDef*%
%ADD19RoundRect,0.237500X-0.250000X-0.237500X0.250000X-0.237500X0.250000X0.237500X-0.250000X0.237500X0*%
%TD*%
%TA.AperFunction,ViaPad*%
%ADD20C,0.660400*%
%TD*%
%TA.AperFunction,Conductor*%
%ADD21C,0.254000*%
%TD*%
%TA.AperFunction,Conductor*%
%ADD22C,0.152400*%
%TD*%
G04 APERTURE END LIST*
D10*
%TO.P,J1,1,Pin_1*%
%TO.N,/VBAT*%
X143810000Y-86465599D03*
D11*
%TO.P,J1,2,Pin_2*%
%TO.N,/D8*%
X143810000Y-83925599D03*
%TO.P,J1,3,Pin_3*%
%TO.N,/A5*%
X146350000Y-86465599D03*
%TO.P,J1,4,Pin_4*%
%TO.N,/A3*%
X146350000Y-83925599D03*
%TO.P,J1,5,Pin_5*%
%TO.N,/VBUS*%
X148890000Y-86465599D03*
%TO.P,J1,6,Pin_6*%
%TO.N,/A2*%
X148890000Y-83925599D03*
%TO.P,J1,7,Pin_7*%
%TO.N,/RXD*%
X151430000Y-86465599D03*
%TO.P,J1,8,Pin_8*%
%TO.N,GND*%
X151430000Y-83925599D03*
%TO.P,J1,9,Pin_9*%
%TO.N,/TXD*%
X153970000Y-86465599D03*
%TO.P,J1,10,Pin_10*%
%TO.N,GND*%
X153970000Y-83925599D03*
%TO.P,J1,11,Pin_11*%
%TO.N,/SDA*%
X156510000Y-86465599D03*
%TO.P,J1,12,Pin_12*%
%TO.N,/SCL*%
X156510000Y-83925599D03*
%TD*%
D10*
%TO.P,J2,1,Pin_1*%
%TO.N,/D12*%
X156510000Y-113743621D03*
D11*
%TO.P,J2,2,Pin_2*%
%TO.N,/D10*%
X156510000Y-116283621D03*
%TO.P,J2,3,Pin_3*%
%TO.N,/MOSI*%
X153970000Y-113743621D03*
%TO.P,J2,4,Pin_4*%
%TO.N,/D1*%
X153970000Y-116283621D03*
%TO.P,J2,5,Pin_5*%
%TO.N,/SCK*%
X151430000Y-113743621D03*
%TO.P,J2,6,Pin_6*%
%TO.N,/D3*%
X151430000Y-116283621D03*
%TO.P,J2,7,Pin_7*%
%TO.N,/D2*%
X148890000Y-113743621D03*
%TO.P,J2,8,Pin_8*%
%TO.N,/A4*%
X148890000Y-116283621D03*
%TO.P,J2,9,Pin_9*%
%TO.N,/MISO*%
X146350000Y-113743621D03*
%TO.P,J2,10,Pin_10*%
%TO.N,GND*%
X146350000Y-116283621D03*
%TO.P,J2,11,Pin_11*%
%TO.N,/D4*%
X143810000Y-113743621D03*
%TO.P,J2,12,Pin_12*%
%TO.N,GND*%
X143810000Y-116283621D03*
%TD*%
D10*
%TO.P,J4,1,Pin_1*%
%TO.N,VCC*%
X147060000Y-109358621D03*
D11*
%TO.P,J4,2,Pin_2*%
%TO.N,/SWDIO*%
X144520000Y-109358621D03*
%TO.P,J4,3,Pin_3*%
%TO.N,/SWDCLK*%
X141980000Y-109358621D03*
%TO.P,J4,4,Pin_4*%
%TO.N,GND*%
X139440000Y-109358621D03*
%TD*%
D12*
%TO.P,J6,1,Pin_1*%
%TO.N,+5V*%
X168510000Y-97104610D03*
D13*
%TO.P,J6,2,Pin_2*%
%TO.N,Net-(J6-Pin_2)*%
X168510000Y-99104610D03*
%TO.P,J6,3,Pin_3*%
%TO.N,Net-(J6-Pin_3)*%
X168510000Y-101104610D03*
%TO.P,J6,4,Pin_4*%
%TO.N,GND*%
X168510000Y-103104610D03*
%TD*%
D12*
%TO.P,J5,1,Pin_1*%
%TO.N,GND*%
X131860000Y-100298621D03*
D13*
%TO.P,J5,2,Pin_2*%
%TO.N,Net-(J5-Pin_2)*%
X131860000Y-98298621D03*
%TD*%
D14*
%TO.P,C6,1*%
%TO.N,GND*%
X143487500Y-104158621D03*
%TO.P,C6,2*%
%TO.N,VCC*%
X142352500Y-104158621D03*
%TD*%
%TO.P,C5,1*%
%TO.N,GND*%
X148957500Y-97968621D03*
%TO.P,C5,2*%
%TO.N,VCC*%
X147822500Y-97968621D03*
%TD*%
D15*
%TO.P,R21,1*%
%TO.N,Net-(U5-~{CS})*%
X151657500Y-96688621D03*
%TO.P,R21,2*%
%TO.N,+1V8*%
X150462500Y-96688621D03*
%TD*%
D16*
%TO.P,C16,1*%
%TO.N,Net-(U5-REGOUT)*%
X155090000Y-90236121D03*
%TO.P,C16,2*%
%TO.N,GND*%
X155090000Y-89101121D03*
%TD*%
D17*
%TO.P,R10,1*%
%TO.N,/SWDCLK*%
X141852500Y-99368621D03*
%TO.P,R10,2*%
%TO.N,VCC*%
X143047500Y-99368621D03*
%TD*%
D18*
%TO.P,C15,1*%
%TO.N,GND*%
X141882500Y-98358621D03*
%TO.P,C15,2*%
%TO.N,VCC*%
X143017500Y-98358621D03*
%TD*%
D19*
%TO.P,R20,1*%
%TO.N,VCC*%
X153875000Y-108948621D03*
%TO.P,R20,2*%
%TO.N,/D10*%
X155700000Y-108948621D03*
%TD*%
D20*
%TO.N,GND*%
X164560000Y-108398621D03*
X146450000Y-111498621D03*
X160560000Y-114398621D03*
X164560000Y-110398621D03*
X146810000Y-107148621D03*
X159560000Y-98648621D03*
X147870000Y-111498621D03*
X157280000Y-110868621D03*
X158990000Y-110858621D03*
X151160000Y-82198621D03*
X151160000Y-111458621D03*
X149160000Y-118198621D03*
X145410000Y-102448621D03*
X164560000Y-112398621D03*
X138660000Y-86698621D03*
X155410000Y-103448621D03*
X154410000Y-100948621D03*
X157160000Y-107148621D03*
X159560000Y-95648621D03*
X154170000Y-110398621D03*
X138560000Y-114398621D03*
X155160000Y-118198621D03*
X163160000Y-86198621D03*
X163160000Y-95198621D03*
X159600000Y-93308621D03*
X162560000Y-114398621D03*
X134660000Y-89198621D03*
X153154300Y-80198620D03*
X159160000Y-84198621D03*
X162560000Y-110398621D03*
X155410000Y-102448621D03*
X166560000Y-108398621D03*
X131160000Y-107198621D03*
X150330000Y-104448621D03*
X149160000Y-82198621D03*
X161160000Y-85198621D03*
X141910000Y-111218621D03*
X166560000Y-104198621D03*
X153410000Y-100948621D03*
X134560000Y-110398621D03*
X147160000Y-118198621D03*
X158310000Y-98398621D03*
X151960000Y-95298621D03*
X134660000Y-91198621D03*
X139750000Y-111218621D03*
X134560000Y-106398621D03*
X162560000Y-112398621D03*
X132560000Y-104398621D03*
X161160000Y-95198621D03*
X165160000Y-95198621D03*
X137660000Y-85198621D03*
X147160000Y-80198621D03*
X154460000Y-107698621D03*
X134560000Y-104738621D03*
X163160000Y-89198621D03*
X145410000Y-103948621D03*
X149510000Y-110268621D03*
X151960000Y-93838621D03*
X167160000Y-93198621D03*
X158560000Y-116398621D03*
X153160000Y-120198621D03*
X136560000Y-108398621D03*
X157160000Y-105898621D03*
X161160000Y-93198621D03*
X151850000Y-104458621D03*
X158060000Y-95648621D03*
X153160000Y-118198621D03*
X164560000Y-106398621D03*
X148840000Y-105698621D03*
X136560000Y-112398621D03*
X143410000Y-102948621D03*
X147160000Y-120198621D03*
X131660000Y-92698621D03*
X148660000Y-96698621D03*
X151160000Y-118198621D03*
X154410000Y-102448621D03*
X166560000Y-106398621D03*
X131160000Y-105198621D03*
X145160000Y-82198621D03*
X157160000Y-108398621D03*
X165160000Y-89198621D03*
X145160000Y-118198621D03*
X150330000Y-105698621D03*
X136560000Y-110398621D03*
X161160000Y-87198621D03*
X163160000Y-91198621D03*
X168560000Y-106398621D03*
X134160000Y-87698621D03*
X163160000Y-97198621D03*
X143410000Y-101448621D03*
X155410000Y-100948621D03*
X159560000Y-97148621D03*
X160620000Y-110858621D03*
X131160000Y-103198621D03*
X133160000Y-92698621D03*
X158990000Y-112488621D03*
X134560000Y-108398621D03*
X165160000Y-87198621D03*
X156420000Y-105038621D03*
X161160000Y-89198621D03*
X161160000Y-91198621D03*
X165160000Y-91198621D03*
X140560000Y-116398621D03*
X162560000Y-108398621D03*
X132560000Y-102398621D03*
X153160000Y-82198621D03*
X167160000Y-95198621D03*
X165160000Y-93198621D03*
X148840000Y-104448621D03*
X155160000Y-82198621D03*
X134560000Y-112398621D03*
X163160000Y-93198621D03*
X161330000Y-98728621D03*
X155080000Y-89098621D03*
X147160000Y-82198621D03*
X158160000Y-91198621D03*
X141160000Y-83698621D03*
X132560000Y-106398621D03*
X144780000Y-110878621D03*
X156160000Y-89538621D03*
X132560000Y-108398621D03*
X169160000Y-93198621D03*
X140660000Y-87698621D03*
X149520000Y-111538621D03*
X169160000Y-95198621D03*
X152810000Y-111148621D03*
X161160000Y-97198621D03*
%TO.N,VCC*%
X140790000Y-101508621D03*
X145840000Y-94328621D03*
X147822500Y-97968621D03*
X142352500Y-104158621D03*
X150660000Y-110288621D03*
X159040000Y-103138621D03*
X143047500Y-99368621D03*
%TO.N,/VBAT*%
X133660000Y-101368621D03*
%TO.N,/SDA*%
X144350000Y-100878621D03*
X158980000Y-89028621D03*
%TO.N,/MOSI*%
X143370000Y-107898621D03*
%TO.N,/RXD*%
X147990000Y-95258621D03*
%TO.N,/SWDCLK*%
X141852500Y-99368621D03*
%TO.N,/SWDIO*%
X141150000Y-103248621D03*
%TO.N,/USB+*%
X149530000Y-99478621D03*
X164160000Y-99438621D03*
%TO.N,/USB-*%
X164160000Y-100508621D03*
X149530000Y-100358621D03*
%TO.N,/A5*%
X140430000Y-96108621D03*
%TO.N,/A2*%
X137460000Y-102578621D03*
%TO.N,/D7*%
X160730000Y-104288621D03*
X164900000Y-103428621D03*
%TO.N,/A0*%
X145440000Y-99998621D03*
X165162500Y-97296121D03*
%TO.N,/A3*%
X137570000Y-103418621D03*
%TO.N,/TXD*%
X149780000Y-94658621D03*
%TO.N,/D8*%
X134410000Y-102918621D03*
%TO.N,/D3*%
X141420000Y-112648621D03*
%TO.N,/D1*%
X143250000Y-111668621D03*
%TO.N,/D10*%
X155730000Y-111708621D03*
%TO.N,+1V8*%
X150450000Y-96858621D03*
%TO.N,Net-(U5-~{CS})*%
X152630000Y-96208621D03*
%TO.N,/RXLED*%
X139320000Y-97098621D03*
X138710000Y-94648621D03*
%TO.N,Net-(U5-REGOUT)*%
X155090000Y-90236121D03*
%TD*%
D21*
%TO.N,VCC*%
X142352500Y-104158621D02*
X142352500Y-103071121D01*
X152707500Y-110288621D02*
X154007500Y-108988621D01*
X140790000Y-101508621D02*
X140907500Y-101508621D01*
X153170000Y-108151121D02*
X154007500Y-108988621D01*
X143017500Y-98358621D02*
X143017500Y-99338621D01*
X156862500Y-103136121D02*
X153170000Y-106828621D01*
X143017500Y-97151121D02*
X145840000Y-94328621D01*
X142352500Y-104158621D02*
X142352500Y-104651121D01*
X143017500Y-98358621D02*
X143017500Y-97151121D01*
X140907500Y-101508621D02*
X143047500Y-99368621D01*
X143017500Y-99338621D02*
X143047500Y-99368621D01*
X149730000Y-109358621D02*
X150660000Y-110288621D01*
X145840000Y-96768621D02*
X147040000Y-97968621D01*
X145840000Y-94328621D02*
X145840000Y-96768621D01*
X159012500Y-103136121D02*
X156862500Y-103136121D01*
X142352500Y-104651121D02*
X147060000Y-109358621D01*
X147040000Y-97968621D02*
X147822500Y-97968621D01*
X153170000Y-106828621D02*
X153170000Y-108151121D01*
X147060000Y-109358621D02*
X149730000Y-109358621D01*
X150660000Y-110288621D02*
X152707500Y-110288621D01*
X142352500Y-103071121D02*
X140790000Y-101508621D01*
D22*
%TO.N,/VBAT*%
X134290000Y-95985599D02*
X143810000Y-86465599D01*
X133660000Y-101368621D02*
X133660000Y-96615599D01*
X133660000Y-96615599D02*
X134290000Y-95985599D01*
%TO.N,/SDA*%
X144350000Y-99758621D02*
X144350000Y-100878621D01*
X153485000Y-97503621D02*
X152390000Y-98598621D01*
X145510000Y-98598621D02*
X144350000Y-99758621D01*
X158980000Y-92008621D02*
X158980000Y-89028621D01*
X152390000Y-98598621D02*
X145510000Y-98598621D01*
X153485000Y-97503621D02*
X154570000Y-96418621D01*
X154570000Y-96418621D02*
X158980000Y-92008621D01*
%TO.N,/MOSI*%
X152495000Y-112268621D02*
X153970000Y-113743621D01*
X143370000Y-107898621D02*
X143370000Y-110688621D01*
X144950000Y-112268621D02*
X152495000Y-112268621D01*
X143370000Y-110688621D02*
X144950000Y-112268621D01*
%TO.N,/RXD*%
X151430000Y-86465599D02*
X151430000Y-88458621D01*
X151430000Y-89478621D02*
X151430000Y-88458621D01*
X148505000Y-94743621D02*
X148505000Y-92403621D01*
X148505000Y-92403621D02*
X151430000Y-89478621D01*
X147990000Y-95258621D02*
X148505000Y-94743621D01*
%TO.N,/SWDCLK*%
X140150000Y-107528621D02*
X141980000Y-109358621D01*
X140150000Y-101071121D02*
X140150000Y-107528621D01*
X141852500Y-99368621D02*
X140150000Y-101071121D01*
%TO.N,/SWDIO*%
X144520000Y-109358621D02*
X144520000Y-108078621D01*
X141150000Y-104708621D02*
X141150000Y-103248621D01*
X144520000Y-108078621D02*
X141150000Y-104708621D01*
%TO.N,/USB+*%
X149530000Y-99478621D02*
X150660000Y-99478621D01*
X163800000Y-99798621D02*
X164160000Y-99438621D01*
X150660000Y-99478621D02*
X150980000Y-99798621D01*
X150980000Y-99798621D02*
X163800000Y-99798621D01*
%TO.N,/USB-*%
X163742100Y-100090721D02*
X150957900Y-100090721D01*
X150957900Y-100090721D02*
X150690000Y-100358621D01*
X164160000Y-100508621D02*
X163742100Y-100090721D01*
X150690000Y-100358621D02*
X149530000Y-100358621D01*
%TO.N,/A5*%
X146350000Y-86465599D02*
X146350000Y-88188621D01*
X140430000Y-96108621D02*
X140430000Y-94928621D01*
X140430000Y-94928621D02*
X146350000Y-89008621D01*
X146350000Y-89008621D02*
X146350000Y-88188621D01*
%TO.N,/A2*%
X147800000Y-85015599D02*
X148890000Y-83925599D01*
X137460000Y-102578621D02*
X137100000Y-102218621D01*
X137100000Y-102218621D02*
X137100000Y-101728621D01*
X137100000Y-101728621D02*
X147800000Y-91028621D01*
X147800000Y-91028621D02*
X147800000Y-85015599D01*
%TO.N,/D7*%
X164040000Y-104288621D02*
X160730000Y-104288621D01*
X164900000Y-103428621D02*
X164040000Y-104288621D01*
%TO.N,/A0*%
X166260000Y-100118621D02*
X166260000Y-98393621D01*
X164640000Y-101738621D02*
X166260000Y-100118621D01*
X147180000Y-101738621D02*
X164640000Y-101738621D01*
X166260000Y-98393621D02*
X165162500Y-97296121D01*
X145440000Y-99998621D02*
X147180000Y-101738621D01*
%TO.N,/A3*%
X146350000Y-83925599D02*
X147470000Y-85045599D01*
X147470000Y-90928621D02*
X136670000Y-101728621D01*
X136670000Y-102968621D02*
X137120000Y-103418621D01*
X147470000Y-85045599D02*
X147470000Y-90928621D01*
X137120000Y-103418621D02*
X137570000Y-103418621D01*
X136670000Y-101728621D02*
X136670000Y-102968621D01*
%TO.N,/TXD*%
X153970000Y-90468621D02*
X153970000Y-86465599D01*
X149780000Y-94658621D02*
X153970000Y-90468621D01*
%TO.N,/D8*%
X136650000Y-94038621D02*
X142555000Y-88133621D01*
X145100000Y-85215599D02*
X145100000Y-87488621D01*
X144455000Y-88133621D02*
X142555000Y-88133621D01*
X143810000Y-83925599D02*
X145100000Y-85215599D01*
X134410000Y-96278621D02*
X136650000Y-94038621D01*
X145100000Y-87488621D02*
X144455000Y-88133621D01*
X134410000Y-102918621D02*
X134410000Y-96278621D01*
%TO.N,/D3*%
X141420000Y-113338621D02*
X143100000Y-115018621D01*
X143100000Y-115018621D02*
X150165000Y-115018621D01*
X150165000Y-115018621D02*
X151430000Y-116283621D01*
X141420000Y-112648621D02*
X141420000Y-113338621D01*
%TO.N,/D1*%
X144160000Y-112578621D02*
X152090000Y-112578621D01*
X152090000Y-112578621D02*
X152690000Y-113178621D01*
X152690000Y-115003621D02*
X153970000Y-116283621D01*
X152690000Y-113178621D02*
X152690000Y-115003621D01*
X143250000Y-111668621D02*
X143690000Y-112108621D01*
X143690000Y-112108621D02*
X144160000Y-112578621D01*
%TO.N,/D10*%
X157470000Y-112278621D02*
X157980000Y-112788621D01*
X155730000Y-111708621D02*
X156300000Y-112278621D01*
X157980000Y-114813621D02*
X156510000Y-116283621D01*
X155730000Y-108991121D02*
X155732500Y-108988621D01*
X156300000Y-112278621D02*
X157470000Y-112278621D01*
X155730000Y-111708621D02*
X155730000Y-108991121D01*
X157980000Y-112788621D02*
X157980000Y-114813621D01*
%TO.N,Net-(U5-~{CS})*%
X152137500Y-96208621D02*
X151657500Y-96688621D01*
X152630000Y-96208621D02*
X152137500Y-96208621D01*
%TO.N,/RXLED*%
X139320000Y-97098621D02*
X139320000Y-95258621D01*
X139320000Y-95258621D02*
X138710000Y-94648621D01*
%TD*%
%TA.AperFunction,Conductor*%
%TO.N,GND*%
G36*
X150197597Y-77384836D02*
G01*
X169528472Y-88545521D01*
X169817099Y-88712160D01*
X169850164Y-88751565D01*
X169854699Y-88777285D01*
X169854699Y-111431932D01*
X169837106Y-111480270D01*
X169817099Y-111497057D01*
X150197599Y-122824381D01*
X150146941Y-122833314D01*
X150122399Y-122824381D01*
X146770604Y-120889221D01*
X148749884Y-120889221D01*
X148769115Y-121121313D01*
X148769116Y-121121316D01*
X148826288Y-121347083D01*
X148826290Y-121347090D01*
X148919839Y-121560359D01*
X148919840Y-121560363D01*
X149047218Y-121755329D01*
X149204951Y-121926673D01*
X149204955Y-121926677D01*
X149388741Y-122069723D01*
X149593557Y-122180564D01*
X149593563Y-122180567D01*
X149813837Y-122256187D01*
X150043554Y-122294520D01*
X150043557Y-122294520D01*
X150276443Y-122294520D01*
X150276446Y-122294520D01*
X150506163Y-122256187D01*
X150726437Y-122180567D01*
X150931260Y-122069722D01*
X151115046Y-121926676D01*
X151272780Y-121755331D01*
X151400160Y-121560361D01*
X151493712Y-121347084D01*
X151550884Y-121121317D01*
X151570116Y-120889220D01*
X151550884Y-120657123D01*
X151493712Y-120431356D01*
X151400160Y-120218079D01*
X151400159Y-120218078D01*
X151400159Y-120218076D01*
X151272781Y-120023110D01*
X151115048Y-119851766D01*
X151115044Y-119851762D01*
X150931258Y-119708716D01*
X150726442Y-119597875D01*
X150726440Y-119597874D01*
X150707255Y-119591288D01*
X150506163Y-119522253D01*
X150506159Y-119522252D01*
X150506155Y-119522251D01*
X150276449Y-119483920D01*
X150276446Y-119483920D01*
X150043554Y-119483920D01*
X150043550Y-119483920D01*
X149813844Y-119522251D01*
X149813834Y-119522254D01*
X149593559Y-119597874D01*
X149593557Y-119597875D01*
X149388741Y-119708716D01*
X149204955Y-119851762D01*
X149204951Y-119851766D01*
X149047218Y-120023110D01*
X148919840Y-120218076D01*
X148919839Y-120218080D01*
X148826290Y-120431349D01*
X148826288Y-120431356D01*
X148769116Y-120657123D01*
X148769115Y-120657126D01*
X148749884Y-120889218D01*
X148749884Y-120889221D01*
X146770604Y-120889221D01*
X130502900Y-111497058D01*
X130469835Y-111457653D01*
X130465300Y-111431933D01*
X130465300Y-110496916D01*
X130749884Y-110496916D01*
X130769115Y-110729008D01*
X130769115Y-110729010D01*
X130769116Y-110729012D01*
X130789150Y-110808122D01*
X130826288Y-110954778D01*
X130826290Y-110954785D01*
X130919839Y-111168054D01*
X130919840Y-111168058D01*
X131047218Y-111363024D01*
X131204951Y-111534368D01*
X131204955Y-111534372D01*
X131388741Y-111677418D01*
X131578651Y-111780192D01*
X131593563Y-111788262D01*
X131813837Y-111863882D01*
X132043554Y-111902215D01*
X132043557Y-111902215D01*
X132276443Y-111902215D01*
X132276446Y-111902215D01*
X132506163Y-111863882D01*
X132726437Y-111788262D01*
X132931260Y-111677417D01*
X133115046Y-111534371D01*
X133272780Y-111363026D01*
X133338223Y-111262858D01*
X133400159Y-111168058D01*
X133400159Y-111168057D01*
X133400160Y-111168056D01*
X133493712Y-110954779D01*
X133550884Y-110729012D01*
X133570116Y-110496915D01*
X133550884Y-110264818D01*
X133493712Y-110039051D01*
X133400160Y-109825774D01*
X133400159Y-109825773D01*
X133400159Y-109825771D01*
X133272781Y-109630805D01*
X133139130Y-109485621D01*
X138445258Y-109485621D01*
X138452103Y-109555122D01*
X138452103Y-109555124D01*
X138509419Y-109744072D01*
X138509424Y-109744084D01*
X138602499Y-109918214D01*
X138602503Y-109918220D01*
X138727766Y-110070854D01*
X138880400Y-110196117D01*
X138880406Y-110196121D01*
X139054536Y-110289196D01*
X139054548Y-110289201D01*
X139243497Y-110346517D01*
X139313000Y-110353362D01*
X139313000Y-109845502D01*
X139404237Y-109858621D01*
X139475763Y-109858621D01*
X139567000Y-109845502D01*
X139567000Y-110353361D01*
X139636502Y-110346517D01*
X139825451Y-110289201D01*
X139825463Y-110289196D01*
X139999593Y-110196121D01*
X139999599Y-110196117D01*
X140152233Y-110070854D01*
X140277496Y-109918220D01*
X140277500Y-109918214D01*
X140370575Y-109744084D01*
X140370580Y-109744072D01*
X140427896Y-109555124D01*
X140427896Y-109555122D01*
X140434741Y-109485621D01*
X139923818Y-109485621D01*
X139940000Y-109430510D01*
X139940000Y-109286732D01*
X139923818Y-109231621D01*
X140434742Y-109231621D01*
X140434741Y-109231620D01*
X140427896Y-109162119D01*
X140427896Y-109162117D01*
X140370580Y-108973169D01*
X140370575Y-108973157D01*
X140277500Y-108799027D01*
X140277496Y-108799021D01*
X140152233Y-108646387D01*
X139999599Y-108521124D01*
X139999593Y-108521120D01*
X139825463Y-108428045D01*
X139825451Y-108428040D01*
X139636502Y-108370724D01*
X139567000Y-108363879D01*
X139567000Y-108871739D01*
X139475763Y-108858621D01*
X139404237Y-108858621D01*
X139313000Y-108871739D01*
X139313000Y-108363879D01*
X139312999Y-108363879D01*
X139243498Y-108370724D01*
X139243496Y-108370724D01*
X139054548Y-108428040D01*
X139054536Y-108428045D01*
X138880406Y-108521120D01*
X138880400Y-108521124D01*
X138727766Y-108646387D01*
X138602503Y-108799021D01*
X138602499Y-108799027D01*
X138509424Y-108973157D01*
X138509419Y-108973169D01*
X138452103Y-109162117D01*
X138452103Y-109162119D01*
X138445258Y-109231620D01*
X138445258Y-109231621D01*
X138956182Y-109231621D01*
X138940000Y-109286732D01*
X138940000Y-109430510D01*
X138956182Y-109485621D01*
X138445258Y-109485621D01*
X133139130Y-109485621D01*
X133115048Y-109459461D01*
X133115044Y-109459457D01*
X132931258Y-109316411D01*
X132726442Y-109205570D01*
X132726440Y-109205569D01*
X132599868Y-109162117D01*
X132506163Y-109129948D01*
X132506159Y-109129947D01*
X132506155Y-109129946D01*
X132276449Y-109091615D01*
X132276446Y-109091615D01*
X132043554Y-109091615D01*
X132043550Y-109091615D01*
X131813844Y-109129946D01*
X131813834Y-109129949D01*
X131593559Y-109205569D01*
X131593557Y-109205570D01*
X131388741Y-109316411D01*
X131204955Y-109459457D01*
X131204951Y-109459461D01*
X131047218Y-109630805D01*
X130919840Y-109825771D01*
X130919839Y-109825775D01*
X130826290Y-110039044D01*
X130826288Y-110039051D01*
X130769116Y-110264818D01*
X130769115Y-110264821D01*
X130749884Y-110496913D01*
X130749884Y-110496916D01*
X130465300Y-110496916D01*
X130465300Y-101368621D01*
X133171932Y-101368621D01*
X133191702Y-101506129D01*
X133249410Y-101632489D01*
X133249412Y-101632492D01*
X133340383Y-101737478D01*
X133340385Y-101737479D01*
X133457248Y-101812583D01*
X133552069Y-101840424D01*
X133590541Y-101851721D01*
X133590544Y-101851721D01*
X133729456Y-101851721D01*
X133729459Y-101851721D01*
X133862751Y-101812583D01*
X133979617Y-101737478D01*
X134048868Y-101657557D01*
X134093818Y-101632548D01*
X134144328Y-101642283D01*
X134176764Y-101682207D01*
X134180900Y-101706803D01*
X134180899Y-102450530D01*
X134163305Y-102498868D01*
X134146356Y-102513792D01*
X134090383Y-102549764D01*
X133999412Y-102654749D01*
X133999410Y-102654752D01*
X133941702Y-102781112D01*
X133924274Y-102902330D01*
X133921932Y-102918621D01*
X133925048Y-102940294D01*
X133941702Y-103056129D01*
X133999410Y-103182489D01*
X133999412Y-103182492D01*
X134090383Y-103287478D01*
X134090385Y-103287479D01*
X134207248Y-103362583D01*
X134287429Y-103386126D01*
X134340541Y-103401721D01*
X134340544Y-103401721D01*
X134479456Y-103401721D01*
X134479459Y-103401721D01*
X134612751Y-103362583D01*
X134729617Y-103287478D01*
X134820589Y-103182490D01*
X134874011Y-103065513D01*
X134878297Y-103056129D01*
X134878297Y-103056127D01*
X134878298Y-103056126D01*
X134898068Y-102918621D01*
X134878298Y-102781116D01*
X134878297Y-102781114D01*
X134878297Y-102781112D01*
X134820589Y-102654752D01*
X134820587Y-102654749D01*
X134729616Y-102549763D01*
X134729614Y-102549762D01*
X134673644Y-102513792D01*
X134642491Y-102472858D01*
X134639100Y-102450530D01*
X134639100Y-96404665D01*
X134656693Y-96356327D01*
X134661126Y-96351491D01*
X135753999Y-95258618D01*
X136363997Y-94648620D01*
X138221932Y-94648620D01*
X138241702Y-94786129D01*
X138299410Y-94912489D01*
X138299412Y-94912492D01*
X138370688Y-94994749D01*
X138390383Y-95017478D01*
X138405945Y-95027479D01*
X138507248Y-95092583D01*
X138588533Y-95116450D01*
X138640541Y-95131721D01*
X138640544Y-95131721D01*
X138779456Y-95131721D01*
X138779459Y-95131721D01*
X138805947Y-95123943D01*
X138857281Y-95127205D01*
X138880306Y-95142923D01*
X139068874Y-95331491D01*
X139090614Y-95378111D01*
X139090900Y-95384665D01*
X139090900Y-96630530D01*
X139073307Y-96678868D01*
X139056356Y-96693792D01*
X139000385Y-96729762D01*
X139000383Y-96729763D01*
X138909412Y-96834749D01*
X138909410Y-96834752D01*
X138851702Y-96961112D01*
X138831932Y-97098620D01*
X138831932Y-97098621D01*
X138833557Y-97109924D01*
X138851702Y-97236129D01*
X138909410Y-97362489D01*
X138909412Y-97362492D01*
X138943914Y-97402309D01*
X139000383Y-97467478D01*
X139028459Y-97485521D01*
X139117248Y-97542583D01*
X139212069Y-97570424D01*
X139250541Y-97581721D01*
X139250544Y-97581721D01*
X139389456Y-97581721D01*
X139389459Y-97581721D01*
X139522751Y-97542583D01*
X139639617Y-97467478D01*
X139730589Y-97362490D01*
X139788298Y-97236126D01*
X139808068Y-97098621D01*
X139788298Y-96961116D01*
X139788297Y-96961114D01*
X139788297Y-96961112D01*
X139730589Y-96834752D01*
X139730587Y-96834749D01*
X139639616Y-96729763D01*
X139639614Y-96729762D01*
X139583644Y-96693792D01*
X139552491Y-96652858D01*
X139549100Y-96630530D01*
X139549100Y-95265594D01*
X139549152Y-95263626D01*
X139551334Y-95221981D01*
X139542467Y-95198882D01*
X139539116Y-95187568D01*
X139533969Y-95163358D01*
X139533969Y-95163356D01*
X139528890Y-95156365D01*
X139519524Y-95139112D01*
X139516687Y-95131721D01*
X139516432Y-95131057D01*
X139516431Y-95131056D01*
X139516430Y-95131054D01*
X139498932Y-95113556D01*
X139491268Y-95104584D01*
X139479623Y-95088556D01*
X139476722Y-95084563D01*
X139476721Y-95084562D01*
X139476720Y-95084561D01*
X139469243Y-95080244D01*
X139453671Y-95068294D01*
X139204061Y-94818684D01*
X139182321Y-94772064D01*
X139182799Y-94754814D01*
X139198068Y-94648621D01*
X139178298Y-94511116D01*
X139178297Y-94511114D01*
X139178297Y-94511112D01*
X139120589Y-94384752D01*
X139120587Y-94384749D01*
X139029616Y-94279763D01*
X139029614Y-94279762D01*
X138912751Y-94204658D01*
X138779461Y-94165521D01*
X138779459Y-94165521D01*
X138640541Y-94165521D01*
X138640538Y-94165521D01*
X138507248Y-94204658D01*
X138390385Y-94279762D01*
X138390383Y-94279763D01*
X138299412Y-94384749D01*
X138299410Y-94384752D01*
X138241702Y-94511112D01*
X138221932Y-94648620D01*
X136363997Y-94648620D01*
X136829024Y-94183593D01*
X136829023Y-94183593D01*
X142627870Y-88384747D01*
X142674491Y-88363007D01*
X142681045Y-88362721D01*
X144448025Y-88362721D01*
X144449993Y-88362773D01*
X144491639Y-88364955D01*
X144514738Y-88356087D01*
X144526057Y-88352735D01*
X144550265Y-88347590D01*
X144557250Y-88342514D01*
X144574499Y-88333148D01*
X144582564Y-88330053D01*
X144600070Y-88312546D01*
X144609029Y-88304893D01*
X144629058Y-88290343D01*
X144633376Y-88282861D01*
X144645323Y-88267292D01*
X145257099Y-87655517D01*
X145258465Y-87654220D01*
X145289486Y-87626291D01*
X145299555Y-87603674D01*
X145305177Y-87593319D01*
X145318662Y-87572557D01*
X145320013Y-87564021D01*
X145325588Y-87545203D01*
X145329100Y-87537318D01*
X145329100Y-87512567D01*
X145330026Y-87500802D01*
X145332356Y-87486091D01*
X145333897Y-87476362D01*
X145333419Y-87474580D01*
X145331662Y-87468018D01*
X145329100Y-87448558D01*
X145329100Y-86983352D01*
X145346693Y-86935014D01*
X145391242Y-86909294D01*
X145441900Y-86918227D01*
X145470619Y-86947901D01*
X145512084Y-87025477D01*
X145512086Y-87025480D01*
X145512089Y-87025484D01*
X145637410Y-87178188D01*
X145790114Y-87303509D01*
X145790118Y-87303512D01*
X145790122Y-87303515D01*
X145924343Y-87375257D01*
X145964352Y-87396642D01*
X145964356Y-87396643D01*
X146067529Y-87427940D01*
X146108678Y-87458807D01*
X146120900Y-87499902D01*
X146120900Y-88882575D01*
X146103307Y-88930913D01*
X146098874Y-88935749D01*
X140272936Y-94761687D01*
X140271509Y-94763041D01*
X140240514Y-94790950D01*
X140240512Y-94790954D01*
X140230446Y-94813560D01*
X140224821Y-94823921D01*
X140211338Y-94844686D01*
X140209986Y-94853220D01*
X140204414Y-94872030D01*
X140200900Y-94879924D01*
X140200900Y-94904674D01*
X140199974Y-94916439D01*
X140196103Y-94940877D01*
X140196103Y-94940878D01*
X140198337Y-94949215D01*
X140200900Y-94968680D01*
X140200900Y-95640530D01*
X140183307Y-95688868D01*
X140166356Y-95703792D01*
X140110385Y-95739762D01*
X140110383Y-95739763D01*
X140019412Y-95844749D01*
X140019410Y-95844752D01*
X139961702Y-95971112D01*
X139941932Y-96108620D01*
X139961702Y-96246129D01*
X140019410Y-96372489D01*
X140019412Y-96372492D01*
X140086025Y-96449367D01*
X140110383Y-96477478D01*
X140132910Y-96491955D01*
X140227248Y-96552583D01*
X140312034Y-96577478D01*
X140360541Y-96591721D01*
X140360544Y-96591721D01*
X140499456Y-96591721D01*
X140499459Y-96591721D01*
X140632751Y-96552583D01*
X140749617Y-96477478D01*
X140840589Y-96372490D01*
X140885729Y-96273649D01*
X140898297Y-96246129D01*
X140898297Y-96246127D01*
X140898298Y-96246126D01*
X140918068Y-96108621D01*
X140898298Y-95971116D01*
X140898297Y-95971114D01*
X140898297Y-95971112D01*
X140840589Y-95844752D01*
X140840587Y-95844749D01*
X140749616Y-95739763D01*
X140749614Y-95739762D01*
X140693644Y-95703792D01*
X140662491Y-95662858D01*
X140659100Y-95640530D01*
X140659100Y-95054664D01*
X140676693Y-95006326D01*
X140681126Y-95001490D01*
X141837095Y-93845521D01*
X146507089Y-89175526D01*
X146508455Y-89174229D01*
X146539486Y-89146291D01*
X146549552Y-89123680D01*
X146555184Y-89113310D01*
X146568660Y-89092559D01*
X146568659Y-89092559D01*
X146568661Y-89092558D01*
X146570011Y-89084028D01*
X146575586Y-89065207D01*
X146579100Y-89057318D01*
X146579100Y-89032566D01*
X146580026Y-89020801D01*
X146583897Y-88996363D01*
X146583419Y-88994581D01*
X146581662Y-88988019D01*
X146579100Y-88968559D01*
X146579100Y-87499902D01*
X146596693Y-87451564D01*
X146632471Y-87427940D01*
X146735643Y-87396643D01*
X146735647Y-87396642D01*
X146735647Y-87396641D01*
X146735650Y-87396641D01*
X146909878Y-87303515D01*
X147026702Y-87207640D01*
X147062586Y-87178191D01*
X147062587Y-87178189D01*
X147062589Y-87178188D01*
X147107570Y-87123378D01*
X147151834Y-87097174D01*
X147202587Y-87105553D01*
X147236080Y-87144595D01*
X147240900Y-87171085D01*
X147240900Y-90802575D01*
X147223307Y-90850913D01*
X147218874Y-90855749D01*
X136512936Y-101561687D01*
X136511509Y-101563041D01*
X136480514Y-101590950D01*
X136480512Y-101590954D01*
X136470446Y-101613560D01*
X136464821Y-101623921D01*
X136451338Y-101644686D01*
X136449986Y-101653220D01*
X136444414Y-101672030D01*
X136440900Y-101679924D01*
X136440900Y-101704674D01*
X136439974Y-101716439D01*
X136436103Y-101740877D01*
X136436103Y-101740878D01*
X136438337Y-101749215D01*
X136440900Y-101768680D01*
X136440900Y-102961645D01*
X136440848Y-102963613D01*
X136438665Y-103005259D01*
X136447533Y-103028361D01*
X136450883Y-103039671D01*
X136456030Y-103063884D01*
X136456031Y-103063886D01*
X136461108Y-103070874D01*
X136470473Y-103088122D01*
X136473569Y-103096187D01*
X136491064Y-103113682D01*
X136498726Y-103122652D01*
X136513276Y-103142677D01*
X136513278Y-103142679D01*
X136520759Y-103146998D01*
X136536329Y-103158946D01*
X136953083Y-103575701D01*
X136954418Y-103577107D01*
X136982330Y-103608107D01*
X137004945Y-103618176D01*
X137015295Y-103623795D01*
X137036064Y-103637282D01*
X137044591Y-103638632D01*
X137063411Y-103644207D01*
X137071303Y-103647721D01*
X137096004Y-103647721D01*
X137144342Y-103665314D01*
X137155885Y-103678426D01*
X137155888Y-103678425D01*
X137156126Y-103678700D01*
X137159270Y-103682271D01*
X137159411Y-103682491D01*
X137214118Y-103745626D01*
X137250383Y-103787478D01*
X137265945Y-103797479D01*
X137367248Y-103862583D01*
X137461168Y-103890160D01*
X137500541Y-103901721D01*
X137500544Y-103901721D01*
X137639456Y-103901721D01*
X137639459Y-103901721D01*
X137772751Y-103862583D01*
X137889617Y-103787478D01*
X137980589Y-103682490D01*
X138021174Y-103593623D01*
X138038297Y-103556129D01*
X138038297Y-103556127D01*
X138038298Y-103556126D01*
X138058068Y-103418621D01*
X138038298Y-103281116D01*
X138038297Y-103281114D01*
X138038297Y-103281112D01*
X137980589Y-103154752D01*
X137980587Y-103154749D01*
X137889616Y-103049763D01*
X137889614Y-103049762D01*
X137835041Y-103014690D01*
X137803888Y-102973756D01*
X137806336Y-102922375D01*
X137818862Y-102902185D01*
X137870589Y-102842490D01*
X137905740Y-102765521D01*
X137928297Y-102716129D01*
X137928297Y-102716127D01*
X137928298Y-102716126D01*
X137948068Y-102578621D01*
X137928298Y-102441116D01*
X137928297Y-102441114D01*
X137928297Y-102441112D01*
X137870589Y-102314752D01*
X137870587Y-102314749D01*
X137779616Y-102209763D01*
X137779614Y-102209762D01*
X137662751Y-102134658D01*
X137529461Y-102095521D01*
X137529459Y-102095521D01*
X137404300Y-102095521D01*
X137355962Y-102077928D01*
X137330242Y-102033379D01*
X137329100Y-102020321D01*
X137329100Y-101854665D01*
X137346693Y-101806327D01*
X137351126Y-101801491D01*
X138069239Y-101083378D01*
X139916103Y-101083378D01*
X139918337Y-101091715D01*
X139920900Y-101111180D01*
X139920900Y-107521645D01*
X139920848Y-107523613D01*
X139918665Y-107565259D01*
X139927533Y-107588361D01*
X139930883Y-107599671D01*
X139936030Y-107623884D01*
X139936031Y-107623886D01*
X139941108Y-107630874D01*
X139950473Y-107648122D01*
X139953569Y-107656187D01*
X139971064Y-107673682D01*
X139978726Y-107682652D01*
X139993276Y-107702677D01*
X139993278Y-107702679D01*
X140000759Y-107706998D01*
X140016330Y-107718947D01*
X141086638Y-108789256D01*
X141108378Y-108835876D01*
X141099785Y-108877878D01*
X141048958Y-108972969D01*
X141048955Y-108972977D01*
X140991610Y-109162019D01*
X140991610Y-109162021D01*
X140972247Y-109358620D01*
X140991610Y-109555220D01*
X140991610Y-109555222D01*
X141048955Y-109744264D01*
X141048956Y-109744268D01*
X141142086Y-109918502D01*
X141142089Y-109918506D01*
X141267410Y-110071210D01*
X141420114Y-110196531D01*
X141420118Y-110196534D01*
X141420122Y-110196537D01*
X141554343Y-110268279D01*
X141594352Y-110289664D01*
X141594356Y-110289665D01*
X141637593Y-110302780D01*
X141783397Y-110347010D01*
X141980000Y-110366374D01*
X142176603Y-110347010D01*
X142365650Y-110289663D01*
X142539878Y-110196537D01*
X142692589Y-110071210D01*
X142817916Y-109918499D01*
X142911042Y-109744271D01*
X142968389Y-109555224D01*
X142987753Y-109358621D01*
X142968389Y-109162018D01*
X142911102Y-108973169D01*
X142911044Y-108972977D01*
X142911043Y-108972973D01*
X142860214Y-108877878D01*
X142817916Y-108798743D01*
X142817913Y-108798739D01*
X142817910Y-108798735D01*
X142692589Y-108646031D01*
X142539885Y-108520710D01*
X142539881Y-108520707D01*
X142539879Y-108520706D01*
X142539878Y-108520705D01*
X142405657Y-108448963D01*
X142365647Y-108427577D01*
X142365643Y-108427576D01*
X142176600Y-108370231D01*
X141980000Y-108350868D01*
X141783400Y-108370231D01*
X141783398Y-108370231D01*
X141594354Y-108427577D01*
X141499256Y-108478406D01*
X141448332Y-108485675D01*
X141410634Y-108465259D01*
X140913735Y-107968360D01*
X140401126Y-107455750D01*
X140379386Y-107409130D01*
X140379100Y-107402576D01*
X140379100Y-103248620D01*
X140661932Y-103248620D01*
X140681702Y-103386129D01*
X140739410Y-103512489D01*
X140739412Y-103512492D01*
X140777222Y-103556126D01*
X140830383Y-103617478D01*
X140884907Y-103652518D01*
X140886356Y-103653449D01*
X140917508Y-103694383D01*
X140920900Y-103716712D01*
X140920900Y-104701645D01*
X140920848Y-104703613D01*
X140918665Y-104745259D01*
X140927533Y-104768361D01*
X140930883Y-104779671D01*
X140936030Y-104803884D01*
X140936031Y-104803886D01*
X140941108Y-104810874D01*
X140950473Y-104828122D01*
X140953569Y-104836187D01*
X140971064Y-104853682D01*
X140978726Y-104862652D01*
X140993276Y-104882677D01*
X140993278Y-104882679D01*
X141000759Y-104886998D01*
X141016330Y-104898947D01*
X143404530Y-107287147D01*
X143426270Y-107333767D01*
X143412956Y-107383454D01*
X143370819Y-107412959D01*
X143351356Y-107415521D01*
X143300538Y-107415521D01*
X143167248Y-107454658D01*
X143050385Y-107529762D01*
X143050383Y-107529763D01*
X142959412Y-107634749D01*
X142959410Y-107634752D01*
X142901702Y-107761112D01*
X142881932Y-107898620D01*
X142901702Y-108036129D01*
X142959410Y-108162489D01*
X142959412Y-108162492D01*
X142995956Y-108204665D01*
X143050383Y-108267478D01*
X143106356Y-108303449D01*
X143137508Y-108344383D01*
X143140900Y-108366712D01*
X143140900Y-110681645D01*
X143140848Y-110683613D01*
X143138665Y-110725259D01*
X143147533Y-110748361D01*
X143150883Y-110759671D01*
X143156030Y-110783884D01*
X143156031Y-110783886D01*
X143161108Y-110790874D01*
X143170473Y-110808122D01*
X143173569Y-110816187D01*
X143191064Y-110833682D01*
X143198726Y-110842652D01*
X143213276Y-110862677D01*
X143213278Y-110862679D01*
X143220759Y-110866998D01*
X143236330Y-110878947D01*
X143427451Y-111070068D01*
X143449191Y-111116688D01*
X143435877Y-111166375D01*
X143393740Y-111195880D01*
X143353091Y-111195396D01*
X143319461Y-111185521D01*
X143319459Y-111185521D01*
X143180541Y-111185521D01*
X143180538Y-111185521D01*
X143047248Y-111224658D01*
X142930385Y-111299762D01*
X142930383Y-111299763D01*
X142839412Y-111404749D01*
X142839410Y-111404752D01*
X142781702Y-111531112D01*
X142761932Y-111668620D01*
X142761932Y-111668621D01*
X142766874Y-111702997D01*
X142781702Y-111806129D01*
X142839410Y-111932489D01*
X142839412Y-111932492D01*
X142913068Y-112017495D01*
X142930383Y-112037478D01*
X142954587Y-112053033D01*
X143047248Y-112112583D01*
X143111242Y-112131373D01*
X143180541Y-112151721D01*
X143180544Y-112151721D01*
X143319460Y-112151721D01*
X143334838Y-112147205D01*
X143345943Y-112143944D01*
X143397279Y-112147205D01*
X143420302Y-112162920D01*
X143525149Y-112267767D01*
X143549314Y-112291932D01*
X143549321Y-112291938D01*
X143864877Y-112607494D01*
X143886617Y-112654114D01*
X143873303Y-112703801D01*
X143831166Y-112733306D01*
X143811703Y-112735868D01*
X143810002Y-112735868D01*
X143810000Y-112735868D01*
X143767043Y-112740098D01*
X143613400Y-112755231D01*
X143613398Y-112755231D01*
X143424356Y-112812576D01*
X143424352Y-112812577D01*
X143250118Y-112905707D01*
X143250114Y-112905710D01*
X143097410Y-113031031D01*
X142972089Y-113183735D01*
X142972086Y-113183739D01*
X142878956Y-113357973D01*
X142878955Y-113357977D01*
X142821610Y-113547019D01*
X142821610Y-113547021D01*
X142802247Y-113743620D01*
X142821610Y-113940220D01*
X142821610Y-113940222D01*
X142878955Y-114129264D01*
X142878956Y-114129268D01*
X142972086Y-114303502D01*
X142972089Y-114303506D01*
X143097410Y-114456210D01*
X143250114Y-114581531D01*
X143250118Y-114581534D01*
X143250122Y-114581537D01*
X143374467Y-114648000D01*
X143408803Y-114686303D01*
X143410487Y-114737715D01*
X143378729Y-114778181D01*
X143339018Y-114789521D01*
X143226044Y-114789521D01*
X143177706Y-114771928D01*
X143172870Y-114767495D01*
X141671126Y-113265750D01*
X141649386Y-113219130D01*
X141649100Y-113212576D01*
X141649100Y-113116712D01*
X141666693Y-113068374D01*
X141683644Y-113053449D01*
X141687366Y-113051057D01*
X141739617Y-113017478D01*
X141830589Y-112912490D01*
X141883974Y-112795595D01*
X141888297Y-112786129D01*
X141888297Y-112786127D01*
X141888298Y-112786126D01*
X141908068Y-112648621D01*
X141888298Y-112511116D01*
X141888297Y-112511114D01*
X141888297Y-112511112D01*
X141830589Y-112384752D01*
X141830587Y-112384749D01*
X141739616Y-112279763D01*
X141739614Y-112279762D01*
X141622751Y-112204658D01*
X141489461Y-112165521D01*
X141489459Y-112165521D01*
X141350541Y-112165521D01*
X141350538Y-112165521D01*
X141217248Y-112204658D01*
X141100385Y-112279762D01*
X141100383Y-112279763D01*
X141009412Y-112384749D01*
X141009410Y-112384752D01*
X140951702Y-112511112D01*
X140931932Y-112648621D01*
X140951702Y-112786129D01*
X141009410Y-112912489D01*
X141009412Y-112912492D01*
X141034159Y-112941051D01*
X141100383Y-113017478D01*
X141121474Y-113031032D01*
X141156356Y-113053449D01*
X141187508Y-113094383D01*
X141190900Y-113116712D01*
X141190900Y-113331645D01*
X141190848Y-113333613D01*
X141188665Y-113375259D01*
X141197533Y-113398361D01*
X141200883Y-113409671D01*
X141206030Y-113433884D01*
X141206031Y-113433886D01*
X141211108Y-113440874D01*
X141220473Y-113458122D01*
X141223569Y-113466187D01*
X141241064Y-113483682D01*
X141248726Y-113492652D01*
X141263276Y-113512677D01*
X141263278Y-113512679D01*
X141270759Y-113516998D01*
X141286330Y-113528947D01*
X142933064Y-115175682D01*
X142934418Y-115177107D01*
X142962330Y-115208107D01*
X142984935Y-115218171D01*
X142995304Y-115223801D01*
X143016064Y-115237283D01*
X143024593Y-115238634D01*
X143043416Y-115244209D01*
X143051303Y-115247721D01*
X143076053Y-115247721D01*
X143087816Y-115248646D01*
X143112259Y-115252518D01*
X143117399Y-115251140D01*
X143120602Y-115250283D01*
X143140063Y-115247721D01*
X143321371Y-115247721D01*
X143369709Y-115265314D01*
X143395429Y-115309863D01*
X143386496Y-115360521D01*
X143356820Y-115389241D01*
X143250406Y-115446120D01*
X143250400Y-115446124D01*
X143097766Y-115571387D01*
X142972503Y-115724021D01*
X142972499Y-115724027D01*
X142879424Y-115898157D01*
X142879419Y-115898169D01*
X142822103Y-116087117D01*
X142822103Y-116087119D01*
X142815258Y-116156620D01*
X142815258Y-116156621D01*
X143326182Y-116156621D01*
X143310000Y-116211732D01*
X143310000Y-116355510D01*
X143326182Y-116410621D01*
X142815258Y-116410621D01*
X142822103Y-116480122D01*
X142822103Y-116480124D01*
X142879419Y-116669072D01*
X142879424Y-116669084D01*
X142972499Y-116843214D01*
X142972503Y-116843220D01*
X143097766Y-116995854D01*
X143250400Y-117121117D01*
X143250406Y-117121121D01*
X143424536Y-117214196D01*
X143424548Y-117214201D01*
X143613497Y-117271517D01*
X143683000Y-117278362D01*
X143683000Y-116770502D01*
X143774237Y-116783621D01*
X143845763Y-116783621D01*
X143937000Y-116770502D01*
X143937000Y-117278361D01*
X144006502Y-117271517D01*
X144195451Y-117214201D01*
X144195463Y-117214196D01*
X144369593Y-117121121D01*
X144369599Y-117121117D01*
X144522233Y-116995854D01*
X144647496Y-116843220D01*
X144647500Y-116843214D01*
X144740575Y-116669084D01*
X144740580Y-116669072D01*
X144797896Y-116480124D01*
X144797896Y-116480122D01*
X144804741Y-116410621D01*
X144293818Y-116410621D01*
X144310000Y-116355510D01*
X144310000Y-116211732D01*
X144293818Y-116156621D01*
X144804742Y-116156621D01*
X144804741Y-116156620D01*
X144797896Y-116087119D01*
X144797896Y-116087117D01*
X144740580Y-115898169D01*
X144740575Y-115898157D01*
X144647500Y-115724027D01*
X144647496Y-115724021D01*
X144522233Y-115571387D01*
X144369599Y-115446124D01*
X144369593Y-115446120D01*
X144263180Y-115389241D01*
X144228843Y-115350939D01*
X144227160Y-115299527D01*
X144258918Y-115259061D01*
X144298629Y-115247721D01*
X145861371Y-115247721D01*
X145909709Y-115265314D01*
X145935429Y-115309863D01*
X145926496Y-115360521D01*
X145896820Y-115389241D01*
X145790406Y-115446120D01*
X145790400Y-115446124D01*
X145637766Y-115571387D01*
X145512503Y-115724021D01*
X145512499Y-115724027D01*
X145419424Y-115898157D01*
X145419419Y-115898169D01*
X145362103Y-116087117D01*
X145362103Y-116087119D01*
X145355258Y-116156620D01*
X145355258Y-116156621D01*
X145866182Y-116156621D01*
X145850000Y-116211732D01*
X145850000Y-116355510D01*
X145866182Y-116410621D01*
X145355258Y-116410621D01*
X145362103Y-116480122D01*
X145362103Y-116480124D01*
X145419419Y-116669072D01*
X145419424Y-116669084D01*
X145512499Y-116843214D01*
X145512503Y-116843220D01*
X145637766Y-116995854D01*
X145790400Y-117121117D01*
X145790406Y-117121121D01*
X145964536Y-117214196D01*
X145964548Y-117214201D01*
X146153497Y-117271517D01*
X146223000Y-117278362D01*
X146223000Y-116770502D01*
X146314237Y-116783621D01*
X146385763Y-116783621D01*
X146477000Y-116770502D01*
X146477000Y-117278361D01*
X146546502Y-117271517D01*
X146735451Y-117214201D01*
X146735463Y-117214196D01*
X146909593Y-117121121D01*
X146909599Y-117121117D01*
X147062233Y-116995854D01*
X147187496Y-116843220D01*
X147187500Y-116843214D01*
X147280575Y-116669084D01*
X147280580Y-116669072D01*
X147337896Y-116480124D01*
X147337896Y-116480122D01*
X147344741Y-116410621D01*
X146833818Y-116410621D01*
X146850000Y-116355510D01*
X146850000Y-116211732D01*
X146833818Y-116156621D01*
X147344742Y-116156621D01*
X147344741Y-116156620D01*
X147337896Y-116087119D01*
X147337896Y-116087117D01*
X147280580Y-115898169D01*
X147280575Y-115898157D01*
X147187500Y-115724027D01*
X147187496Y-115724021D01*
X147062233Y-115571387D01*
X146909599Y-115446124D01*
X146909593Y-115446120D01*
X146803180Y-115389241D01*
X146768843Y-115350939D01*
X146767160Y-115299527D01*
X146798918Y-115259061D01*
X146838629Y-115247721D01*
X148400310Y-115247721D01*
X148448648Y-115265314D01*
X148474368Y-115309863D01*
X148465435Y-115360521D01*
X148435760Y-115389240D01*
X148360073Y-115429696D01*
X148330118Y-115445707D01*
X148330114Y-115445710D01*
X148177410Y-115571031D01*
X148052089Y-115723735D01*
X148052086Y-115723739D01*
X147958956Y-115897973D01*
X147958955Y-115897977D01*
X147901610Y-116087019D01*
X147901610Y-116087021D01*
X147882247Y-116283621D01*
X147901610Y-116480220D01*
X147901610Y-116480222D01*
X147958955Y-116669264D01*
X147958956Y-116669268D01*
X148052086Y-116843502D01*
X148052089Y-116843506D01*
X148177410Y-116996210D01*
X148330114Y-117121531D01*
X148330118Y-117121534D01*
X148330122Y-117121537D01*
X148503476Y-117214196D01*
X148504352Y-117214664D01*
X148504356Y-117214665D01*
X148547593Y-117227780D01*
X148693397Y-117272010D01*
X148890000Y-117291374D01*
X149086603Y-117272010D01*
X149275650Y-117214663D01*
X149449878Y-117121537D01*
X149602589Y-116996210D01*
X149727916Y-116843499D01*
X149821042Y-116669271D01*
X149878389Y-116480224D01*
X149897753Y-116283621D01*
X149878389Y-116087018D01*
X149821102Y-115898169D01*
X149821044Y-115897977D01*
X149821043Y-115897973D01*
X149770214Y-115802878D01*
X149727916Y-115723743D01*
X149727913Y-115723739D01*
X149727910Y-115723735D01*
X149602589Y-115571031D01*
X149449885Y-115445710D01*
X149449881Y-115445707D01*
X149449879Y-115445706D01*
X149449878Y-115445705D01*
X149344239Y-115389240D01*
X149309905Y-115350940D01*
X149308221Y-115299527D01*
X149339979Y-115259061D01*
X149379690Y-115247721D01*
X150038956Y-115247721D01*
X150087294Y-115265314D01*
X150092130Y-115269747D01*
X150536638Y-115714255D01*
X150558378Y-115760875D01*
X150549785Y-115802877D01*
X150498956Y-115897975D01*
X150441610Y-116087019D01*
X150441610Y-116087021D01*
X150422247Y-116283620D01*
X150441610Y-116480220D01*
X150441610Y-116480222D01*
X150498955Y-116669264D01*
X150498956Y-116669268D01*
X150592086Y-116843502D01*
X150592089Y-116843506D01*
X150717410Y-116996210D01*
X150870114Y-117121531D01*
X150870118Y-117121534D01*
X150870122Y-117121537D01*
X151043476Y-117214196D01*
X151044352Y-117214664D01*
X151044356Y-117214665D01*
X151087593Y-117227780D01*
X151233397Y-117272010D01*
X151430000Y-117291374D01*
X151626603Y-117272010D01*
X151815650Y-117214663D01*
X151989878Y-117121537D01*
X152142589Y-116996210D01*
X152267916Y-116843499D01*
X152361042Y-116669271D01*
X152418389Y-116480224D01*
X152437753Y-116283621D01*
X152418389Y-116087018D01*
X152361102Y-115898169D01*
X152361044Y-115897977D01*
X152361043Y-115897973D01*
X152310214Y-115802878D01*
X152267916Y-115723743D01*
X152267913Y-115723739D01*
X152267910Y-115723735D01*
X152142589Y-115571031D01*
X151989885Y-115445710D01*
X151989881Y-115445707D01*
X151989879Y-115445706D01*
X151989878Y-115445705D01*
X151884242Y-115389242D01*
X151815647Y-115352577D01*
X151815643Y-115352576D01*
X151626600Y-115295231D01*
X151430000Y-115275868D01*
X151233400Y-115295231D01*
X151233398Y-115295231D01*
X151044356Y-115352576D01*
X151044348Y-115352579D01*
X150949257Y-115403406D01*
X150898334Y-115410675D01*
X150860635Y-115390259D01*
X150601561Y-115131185D01*
X150331914Y-114861538D01*
X150330578Y-114860130D01*
X150302669Y-114829134D01*
X150280058Y-114819066D01*
X150269692Y-114813438D01*
X150248936Y-114799960D01*
X150248933Y-114799959D01*
X150240401Y-114798607D01*
X150221587Y-114793033D01*
X150213698Y-114789521D01*
X150213697Y-114789521D01*
X150188946Y-114789521D01*
X150177183Y-114788595D01*
X150161889Y-114786172D01*
X150152743Y-114784724D01*
X150152741Y-114784724D01*
X150144400Y-114786959D01*
X150124939Y-114789521D01*
X149360982Y-114789521D01*
X149312644Y-114771928D01*
X149286924Y-114727379D01*
X149295857Y-114676721D01*
X149325533Y-114648000D01*
X149449878Y-114581537D01*
X149602589Y-114456210D01*
X149727916Y-114303499D01*
X149821042Y-114129271D01*
X149878389Y-113940224D01*
X149897753Y-113743621D01*
X149878389Y-113547018D01*
X149821042Y-113357971D01*
X149727916Y-113183743D01*
X149727913Y-113183739D01*
X149727910Y-113183735D01*
X149602589Y-113031031D01*
X149492948Y-112941051D01*
X149466743Y-112896786D01*
X149475123Y-112846034D01*
X149514165Y-112812541D01*
X149540654Y-112807721D01*
X150779346Y-112807721D01*
X150827684Y-112825314D01*
X150853404Y-112869863D01*
X150844471Y-112920521D01*
X150827052Y-112941051D01*
X150717410Y-113031031D01*
X150592089Y-113183735D01*
X150592086Y-113183739D01*
X150498956Y-113357973D01*
X150498955Y-113357977D01*
X150441610Y-113547019D01*
X150441610Y-113547021D01*
X150422247Y-113743620D01*
X150441610Y-113940220D01*
X150441610Y-113940222D01*
X150498955Y-114129264D01*
X150498956Y-114129268D01*
X150592086Y-114303502D01*
X150592089Y-114303506D01*
X150717410Y-114456210D01*
X150870114Y-114581531D01*
X150870118Y-114581534D01*
X150870122Y-114581537D01*
X151004343Y-114653279D01*
X151044352Y-114674664D01*
X151044356Y-114674665D01*
X151051134Y-114676721D01*
X151233397Y-114732010D01*
X151430000Y-114751374D01*
X151626603Y-114732010D01*
X151815650Y-114674663D01*
X151989878Y-114581537D01*
X152142589Y-114456210D01*
X152267916Y-114303499D01*
X152319380Y-114207214D01*
X152357681Y-114172880D01*
X152409094Y-114171196D01*
X152449560Y-114202954D01*
X152460900Y-114242665D01*
X152460900Y-114996645D01*
X152460848Y-114998613D01*
X152458665Y-115040259D01*
X152467533Y-115063361D01*
X152470883Y-115074671D01*
X152476030Y-115098884D01*
X152476031Y-115098886D01*
X152481108Y-115105874D01*
X152490473Y-115123122D01*
X152493569Y-115131187D01*
X152511064Y-115148682D01*
X152518726Y-115157652D01*
X152533276Y-115177677D01*
X152533278Y-115177679D01*
X152540759Y-115181998D01*
X152556330Y-115193947D01*
X153076638Y-115714255D01*
X153098378Y-115760875D01*
X153089785Y-115802877D01*
X153038956Y-115897975D01*
X152981610Y-116087019D01*
X152981610Y-116087021D01*
X152962247Y-116283621D01*
X152981610Y-116480220D01*
X152981610Y-116480222D01*
X153038955Y-116669264D01*
X153038956Y-116669268D01*
X153132086Y-116843502D01*
X153132089Y-116843506D01*
X153257410Y-116996210D01*
X153410114Y-117121531D01*
X153410118Y-117121534D01*
X153410122Y-117121537D01*
X153583476Y-117214196D01*
X153584352Y-117214664D01*
X153584356Y-117214665D01*
X153627593Y-117227780D01*
X153773397Y-117272010D01*
X153970000Y-117291374D01*
X154166603Y-117272010D01*
X154355650Y-117214663D01*
X154529878Y-117121537D01*
X154682589Y-116996210D01*
X154807916Y-116843499D01*
X154901042Y-116669271D01*
X154958389Y-116480224D01*
X154977753Y-116283621D01*
X154958389Y-116087018D01*
X154901102Y-115898169D01*
X154901044Y-115897977D01*
X154901043Y-115897973D01*
X154850214Y-115802878D01*
X154807916Y-115723743D01*
X154807913Y-115723739D01*
X154807910Y-115723735D01*
X154682589Y-115571031D01*
X154529885Y-115445710D01*
X154529881Y-115445707D01*
X154529879Y-115445706D01*
X154529878Y-115445705D01*
X154424242Y-115389242D01*
X154355647Y-115352577D01*
X154355643Y-115352576D01*
X154166600Y-115295231D01*
X153970000Y-115275868D01*
X153773400Y-115295231D01*
X153773398Y-115295231D01*
X153584356Y-115352576D01*
X153584348Y-115352579D01*
X153489257Y-115403406D01*
X153438334Y-115410675D01*
X153400635Y-115390259D01*
X152941126Y-114930750D01*
X152919386Y-114884130D01*
X152919100Y-114877576D01*
X152919100Y-114205248D01*
X152936693Y-114156910D01*
X152981242Y-114131190D01*
X153031900Y-114140123D01*
X153060619Y-114169797D01*
X153099568Y-114242665D01*
X153132086Y-114303502D01*
X153132089Y-114303506D01*
X153257410Y-114456210D01*
X153410114Y-114581531D01*
X153410118Y-114581534D01*
X153410122Y-114581537D01*
X153544343Y-114653279D01*
X153584352Y-114674664D01*
X153584356Y-114674665D01*
X153591134Y-114676721D01*
X153773397Y-114732010D01*
X153970000Y-114751374D01*
X154166603Y-114732010D01*
X154355650Y-114674663D01*
X154529878Y-114581537D01*
X154682589Y-114456210D01*
X154807916Y-114303499D01*
X154901042Y-114129271D01*
X154958389Y-113940224D01*
X154977753Y-113743621D01*
X154958389Y-113547018D01*
X154901042Y-113357971D01*
X154807916Y-113183743D01*
X154807913Y-113183739D01*
X154807910Y-113183735D01*
X154682589Y-113031031D01*
X154529885Y-112905710D01*
X154529881Y-112905707D01*
X154529879Y-112905706D01*
X154529878Y-112905705D01*
X154426145Y-112850259D01*
X154355647Y-112812577D01*
X154355643Y-112812576D01*
X154166600Y-112755231D01*
X153994112Y-112738242D01*
X153970000Y-112735868D01*
X153969999Y-112735868D01*
X153773400Y-112755231D01*
X153773398Y-112755231D01*
X153584356Y-112812576D01*
X153584348Y-112812579D01*
X153489257Y-112863406D01*
X153438334Y-112870675D01*
X153400635Y-112850259D01*
X153034177Y-112483801D01*
X152661914Y-112111538D01*
X152660578Y-112110130D01*
X152632669Y-112079134D01*
X152610058Y-112069066D01*
X152599692Y-112063438D01*
X152578936Y-112049960D01*
X152578933Y-112049959D01*
X152570401Y-112048607D01*
X152551587Y-112043033D01*
X152543698Y-112039521D01*
X152543697Y-112039521D01*
X152518946Y-112039521D01*
X152507183Y-112038595D01*
X152491889Y-112036172D01*
X152482743Y-112034724D01*
X152482741Y-112034724D01*
X152474400Y-112036959D01*
X152454939Y-112039521D01*
X145076044Y-112039521D01*
X145027706Y-112021928D01*
X145022870Y-112017495D01*
X143621126Y-110615750D01*
X143599386Y-110569130D01*
X143599100Y-110562576D01*
X143599100Y-110027552D01*
X143616693Y-109979214D01*
X143661242Y-109953494D01*
X143711900Y-109962427D01*
X143732430Y-109979846D01*
X143807410Y-110071210D01*
X143960114Y-110196531D01*
X143960118Y-110196534D01*
X143960122Y-110196537D01*
X144094343Y-110268279D01*
X144134352Y-110289664D01*
X144134356Y-110289665D01*
X144177593Y-110302780D01*
X144323397Y-110347010D01*
X144520000Y-110366374D01*
X144716603Y-110347010D01*
X144905650Y-110289663D01*
X145079878Y-110196537D01*
X145232589Y-110071210D01*
X145357916Y-109918499D01*
X145451042Y-109744271D01*
X145508389Y-109555224D01*
X145527753Y-109358621D01*
X145508389Y-109162018D01*
X145451102Y-108973169D01*
X145451044Y-108972977D01*
X145451043Y-108972973D01*
X145400214Y-108877878D01*
X145357916Y-108798743D01*
X145357913Y-108798739D01*
X145357910Y-108798735D01*
X145232589Y-108646031D01*
X145079885Y-108520710D01*
X145079881Y-108520707D01*
X145079879Y-108520706D01*
X145079878Y-108520705D01*
X144905650Y-108427579D01*
X144802469Y-108396278D01*
X144761321Y-108365411D01*
X144749100Y-108324317D01*
X144749100Y-108085603D01*
X144749152Y-108083635D01*
X144751334Y-108041983D01*
X144749087Y-108036129D01*
X144742463Y-108018874D01*
X144739114Y-108007564D01*
X144733969Y-107983356D01*
X144728887Y-107976362D01*
X144719526Y-107959118D01*
X144716432Y-107951057D01*
X144716430Y-107951055D01*
X144716430Y-107951054D01*
X144698932Y-107933556D01*
X144691268Y-107924584D01*
X144676721Y-107904561D01*
X144669242Y-107900244D01*
X144653668Y-107888293D01*
X141401126Y-104635750D01*
X141379386Y-104589130D01*
X141379100Y-104582576D01*
X141379100Y-103716712D01*
X141396693Y-103668374D01*
X141413644Y-103653449D01*
X141415093Y-103652518D01*
X141469617Y-103617478D01*
X141560589Y-103512490D01*
X141603458Y-103418621D01*
X141618297Y-103386129D01*
X141618297Y-103386127D01*
X141618298Y-103386126D01*
X141638068Y-103248621D01*
X141618298Y-103111116D01*
X141618297Y-103111114D01*
X141618297Y-103111112D01*
X141560589Y-102984752D01*
X141560587Y-102984749D01*
X141469616Y-102879763D01*
X141469614Y-102879762D01*
X141352751Y-102804658D01*
X141219461Y-102765521D01*
X141219459Y-102765521D01*
X141080541Y-102765521D01*
X141080538Y-102765521D01*
X140947248Y-102804658D01*
X140830385Y-102879762D01*
X140830383Y-102879763D01*
X140739412Y-102984749D01*
X140739410Y-102984752D01*
X140681702Y-103111112D01*
X140661932Y-103248620D01*
X140379100Y-103248620D01*
X140379100Y-101956532D01*
X140396693Y-101908194D01*
X140441242Y-101882474D01*
X140491900Y-101891407D01*
X140494954Y-101893268D01*
X140499711Y-101896326D01*
X140587248Y-101952583D01*
X140655138Y-101972517D01*
X140720541Y-101991721D01*
X140720544Y-101991721D01*
X140846114Y-101991721D01*
X140894452Y-102009314D01*
X140899288Y-102013747D01*
X142050574Y-103165033D01*
X142072314Y-103211653D01*
X142072600Y-103218207D01*
X142072600Y-103647802D01*
X142055007Y-103696140D01*
X142027776Y-103716594D01*
X141962983Y-103745203D01*
X141962977Y-103745207D01*
X141881586Y-103826598D01*
X141881581Y-103826605D01*
X141835087Y-103931903D01*
X141835087Y-103931905D01*
X141832100Y-103957655D01*
X141832100Y-104359586D01*
X141835087Y-104385336D01*
X141835087Y-104385338D01*
X141881581Y-104490636D01*
X141881586Y-104490643D01*
X141962977Y-104572034D01*
X141962980Y-104572036D01*
X141962981Y-104572037D01*
X142027776Y-104600647D01*
X142064887Y-104636265D01*
X142072600Y-104669439D01*
X142072600Y-104677056D01*
X142073316Y-104680894D01*
X142073914Y-104686060D01*
X142075314Y-104716310D01*
X142075315Y-104716315D01*
X142079809Y-104726493D01*
X142084934Y-104743043D01*
X142086978Y-104753979D01*
X142086979Y-104753982D01*
X142086980Y-104753984D01*
X142086981Y-104753985D01*
X142102924Y-104779734D01*
X142105355Y-104784346D01*
X142117583Y-104812042D01*
X142117584Y-104812043D01*
X142125450Y-104819909D01*
X142136209Y-104833491D01*
X142142067Y-104842951D01*
X142142069Y-104842954D01*
X142142070Y-104842955D01*
X142142072Y-104842957D01*
X142166234Y-104861203D01*
X142170159Y-104864618D01*
X144110180Y-106804639D01*
X146035074Y-108729533D01*
X146056814Y-108776153D01*
X146057100Y-108782707D01*
X146057100Y-110223676D01*
X146057101Y-110223678D01*
X146065972Y-110268280D01*
X146099764Y-110318853D01*
X146099765Y-110318853D01*
X146099766Y-110318855D01*
X146150342Y-110352649D01*
X146194943Y-110361521D01*
X147925056Y-110361520D01*
X147969658Y-110352649D01*
X148020234Y-110318855D01*
X148054028Y-110268279D01*
X148062900Y-110223678D01*
X148062900Y-109713720D01*
X148080493Y-109665383D01*
X148125042Y-109639663D01*
X148138100Y-109638521D01*
X149582914Y-109638521D01*
X149631252Y-109656114D01*
X149636088Y-109660547D01*
X150156907Y-110181366D01*
X150178647Y-110227986D01*
X150178168Y-110245240D01*
X150174856Y-110268280D01*
X150171932Y-110288621D01*
X150172082Y-110289663D01*
X150191702Y-110426128D01*
X150249410Y-110552489D01*
X150249412Y-110552492D01*
X150340383Y-110657478D01*
X150340385Y-110657479D01*
X150457248Y-110732583D01*
X150510984Y-110748361D01*
X150590541Y-110771721D01*
X150590544Y-110771721D01*
X150729456Y-110771721D01*
X150729459Y-110771721D01*
X150862751Y-110732583D01*
X150979617Y-110657478D01*
X151034208Y-110594475D01*
X151079159Y-110569466D01*
X151091041Y-110568521D01*
X152649574Y-110568521D01*
X152661158Y-110570410D01*
X152661261Y-110569677D01*
X152668157Y-110570639D01*
X152668159Y-110570638D01*
X152668160Y-110570639D01*
X152694311Y-110569429D01*
X152713107Y-110568561D01*
X152714844Y-110568521D01*
X152733432Y-110568521D01*
X152733435Y-110568521D01*
X152737271Y-110567803D01*
X152742432Y-110567204D01*
X152772693Y-110565806D01*
X152782870Y-110561311D01*
X152799423Y-110556185D01*
X152810363Y-110554141D01*
X152836118Y-110538192D01*
X152840712Y-110535771D01*
X152868422Y-110523537D01*
X152876291Y-110515666D01*
X152889873Y-110504908D01*
X152899333Y-110499052D01*
X152917586Y-110474880D01*
X152920991Y-110470966D01*
X153793411Y-109598547D01*
X153840032Y-109576807D01*
X153846586Y-109576521D01*
X154155718Y-109576521D01*
X154155722Y-109576521D01*
X154247144Y-109562041D01*
X154357332Y-109505898D01*
X154444777Y-109418453D01*
X154500920Y-109308265D01*
X154515400Y-109216845D01*
X155059600Y-109216845D01*
X155074080Y-109308266D01*
X155099412Y-109357982D01*
X155130223Y-109418453D01*
X155217668Y-109505898D01*
X155327854Y-109562040D01*
X155327856Y-109562041D01*
X155419278Y-109576521D01*
X155425700Y-109576521D01*
X155474038Y-109594114D01*
X155499758Y-109638663D01*
X155500900Y-109651721D01*
X155500900Y-111240530D01*
X155483307Y-111288868D01*
X155466356Y-111303792D01*
X155410385Y-111339762D01*
X155410383Y-111339763D01*
X155319412Y-111444749D01*
X155319410Y-111444752D01*
X155261702Y-111571112D01*
X155241932Y-111708621D01*
X155261702Y-111846129D01*
X155319410Y-111972489D01*
X155319412Y-111972492D01*
X155389201Y-112053033D01*
X155410383Y-112077478D01*
X155428520Y-112089134D01*
X155527248Y-112152583D01*
X155591242Y-112171373D01*
X155660541Y-112191721D01*
X155660544Y-112191721D01*
X155799460Y-112191721D01*
X155811002Y-112188331D01*
X155825944Y-112183944D01*
X155877279Y-112187205D01*
X155900305Y-112202922D01*
X156024877Y-112327495D01*
X156133074Y-112435692D01*
X156134427Y-112437118D01*
X156162330Y-112468107D01*
X156184935Y-112478171D01*
X156195304Y-112483801D01*
X156216064Y-112497283D01*
X156224593Y-112498634D01*
X156243416Y-112504209D01*
X156251303Y-112507721D01*
X156276053Y-112507721D01*
X156287816Y-112508646D01*
X156312259Y-112512518D01*
X156317506Y-112511112D01*
X156320602Y-112510283D01*
X156340063Y-112507721D01*
X157343956Y-112507721D01*
X157392294Y-112525314D01*
X157397130Y-112529747D01*
X157490678Y-112623295D01*
X157512418Y-112669915D01*
X157499104Y-112719602D01*
X157456967Y-112749107D01*
X157422833Y-112750224D01*
X157375058Y-112740721D01*
X155644944Y-112740721D01*
X155644942Y-112740722D01*
X155600340Y-112749593D01*
X155549767Y-112783385D01*
X155515972Y-112833963D01*
X155515971Y-112833964D01*
X155507100Y-112878563D01*
X155507100Y-114608676D01*
X155507101Y-114608678D01*
X155515972Y-114653280D01*
X155549764Y-114703853D01*
X155549765Y-114703853D01*
X155549766Y-114703855D01*
X155600342Y-114737649D01*
X155644943Y-114746521D01*
X157375056Y-114746520D01*
X157419658Y-114737649D01*
X157470234Y-114703855D01*
X157504028Y-114653279D01*
X157512900Y-114608678D01*
X157512899Y-112878565D01*
X157504028Y-112833963D01*
X157504026Y-112833960D01*
X157503395Y-112830786D01*
X157511220Y-112779945D01*
X157549895Y-112746028D01*
X157601322Y-112744906D01*
X157630324Y-112762941D01*
X157728874Y-112861491D01*
X157750614Y-112908111D01*
X157750900Y-112914665D01*
X157750900Y-114687575D01*
X157733307Y-114735913D01*
X157728874Y-114740749D01*
X157079364Y-115390258D01*
X157032744Y-115411998D01*
X156990742Y-115403405D01*
X156895651Y-115352579D01*
X156895643Y-115352576D01*
X156706600Y-115295231D01*
X156534112Y-115278242D01*
X156510000Y-115275868D01*
X156509999Y-115275868D01*
X156313400Y-115295231D01*
X156313398Y-115295231D01*
X156124356Y-115352576D01*
X156124352Y-115352577D01*
X155950118Y-115445707D01*
X155950114Y-115445710D01*
X155797410Y-115571031D01*
X155672089Y-115723735D01*
X155672086Y-115723739D01*
X155578956Y-115897973D01*
X155578955Y-115897977D01*
X155521610Y-116087019D01*
X155521610Y-116087021D01*
X155502247Y-116283621D01*
X155521610Y-116480220D01*
X155521610Y-116480222D01*
X155578955Y-116669264D01*
X155578956Y-116669268D01*
X155672086Y-116843502D01*
X155672089Y-116843506D01*
X155797410Y-116996210D01*
X155950114Y-117121531D01*
X155950118Y-117121534D01*
X155950122Y-117121537D01*
X156123476Y-117214196D01*
X156124352Y-117214664D01*
X156124356Y-117214665D01*
X156167593Y-117227780D01*
X156313397Y-117272010D01*
X156510000Y-117291374D01*
X156706603Y-117272010D01*
X156895650Y-117214663D01*
X157069878Y-117121537D01*
X157222589Y-116996210D01*
X157347916Y-116843499D01*
X157441042Y-116669271D01*
X157498389Y-116480224D01*
X157517753Y-116283621D01*
X157498389Y-116087018D01*
X157441042Y-115897971D01*
X157390214Y-115802878D01*
X157382944Y-115751954D01*
X157403359Y-115714257D01*
X158137099Y-114980517D01*
X158138465Y-114979220D01*
X158169486Y-114951291D01*
X158179555Y-114928674D01*
X158185177Y-114918319D01*
X158198662Y-114897557D01*
X158200013Y-114889021D01*
X158205588Y-114870203D01*
X158209100Y-114862318D01*
X158209100Y-114837568D01*
X158210026Y-114825803D01*
X158211474Y-114816661D01*
X158213897Y-114801363D01*
X158212744Y-114797060D01*
X158211662Y-114793019D01*
X158209100Y-114773559D01*
X158209100Y-112795595D01*
X158209152Y-112793627D01*
X158211334Y-112751983D01*
X158209048Y-112746028D01*
X158202463Y-112728874D01*
X158199114Y-112717564D01*
X158193969Y-112693358D01*
X158193969Y-112693356D01*
X158188887Y-112686362D01*
X158179526Y-112669118D01*
X158176432Y-112661057D01*
X158176430Y-112661055D01*
X158176430Y-112661054D01*
X158158932Y-112643556D01*
X158151268Y-112634584D01*
X158136721Y-112614561D01*
X158129242Y-112610244D01*
X158113668Y-112598293D01*
X157900124Y-112384749D01*
X157636914Y-112121538D01*
X157635578Y-112120130D01*
X157607669Y-112089134D01*
X157585058Y-112079066D01*
X157574692Y-112073438D01*
X157553936Y-112059960D01*
X157553933Y-112059959D01*
X157545401Y-112058607D01*
X157526587Y-112053033D01*
X157518698Y-112049521D01*
X157518697Y-112049521D01*
X157493946Y-112049521D01*
X157482183Y-112048595D01*
X157466889Y-112046172D01*
X157457743Y-112044724D01*
X157457741Y-112044724D01*
X157449400Y-112046959D01*
X157429939Y-112049521D01*
X156426045Y-112049521D01*
X156377707Y-112031928D01*
X156372870Y-112027495D01*
X156224060Y-111878684D01*
X156202321Y-111832064D01*
X156202799Y-111814814D01*
X156218068Y-111708621D01*
X156198298Y-111571116D01*
X156198297Y-111571114D01*
X156198297Y-111571112D01*
X156140589Y-111444752D01*
X156140587Y-111444749D01*
X156049616Y-111339763D01*
X156049614Y-111339762D01*
X155993644Y-111303792D01*
X155962491Y-111262858D01*
X155959100Y-111240530D01*
X155959100Y-110496916D01*
X166749884Y-110496916D01*
X166769115Y-110729008D01*
X166769115Y-110729010D01*
X166769116Y-110729012D01*
X166789150Y-110808122D01*
X166826288Y-110954778D01*
X166826290Y-110954785D01*
X166919839Y-111168054D01*
X166919840Y-111168058D01*
X167047218Y-111363024D01*
X167204951Y-111534368D01*
X167204955Y-111534372D01*
X167388741Y-111677418D01*
X167578651Y-111780192D01*
X167593563Y-111788262D01*
X167813837Y-111863882D01*
X168043554Y-111902215D01*
X168043557Y-111902215D01*
X168276443Y-111902215D01*
X168276446Y-111902215D01*
X168506163Y-111863882D01*
X168726437Y-111788262D01*
X168931260Y-111677417D01*
X169115046Y-111534371D01*
X169272780Y-111363026D01*
X169338223Y-111262858D01*
X169400159Y-111168058D01*
X169400159Y-111168057D01*
X169400160Y-111168056D01*
X169493712Y-110954779D01*
X169550884Y-110729012D01*
X169570116Y-110496915D01*
X169550884Y-110264818D01*
X169493712Y-110039051D01*
X169400160Y-109825774D01*
X169400159Y-109825773D01*
X169400159Y-109825771D01*
X169272781Y-109630805D01*
X169115048Y-109459461D01*
X169115044Y-109459457D01*
X168931258Y-109316411D01*
X168726442Y-109205570D01*
X168726440Y-109205569D01*
X168599868Y-109162117D01*
X168506163Y-109129948D01*
X168506159Y-109129947D01*
X168506155Y-109129946D01*
X168276449Y-109091615D01*
X168276446Y-109091615D01*
X168043554Y-109091615D01*
X168043550Y-109091615D01*
X167813844Y-109129946D01*
X167813834Y-109129949D01*
X167593559Y-109205569D01*
X167593557Y-109205570D01*
X167388741Y-109316411D01*
X167204955Y-109459457D01*
X167204951Y-109459461D01*
X167047218Y-109630805D01*
X166919840Y-109825771D01*
X166919839Y-109825775D01*
X166826290Y-110039044D01*
X166826288Y-110039051D01*
X166769116Y-110264818D01*
X166769115Y-110264821D01*
X166749884Y-110496913D01*
X166749884Y-110496916D01*
X155959100Y-110496916D01*
X155959100Y-109644172D01*
X155976693Y-109595834D01*
X156021242Y-109570114D01*
X156022508Y-109569902D01*
X156072144Y-109562041D01*
X156182332Y-109505898D01*
X156269777Y-109418453D01*
X156325920Y-109308265D01*
X156340400Y-109216843D01*
X156340400Y-108680399D01*
X156325920Y-108588977D01*
X156269777Y-108478789D01*
X156182332Y-108391344D01*
X156072144Y-108335201D01*
X156072146Y-108335201D01*
X155980724Y-108320721D01*
X155980722Y-108320721D01*
X155419278Y-108320721D01*
X155419275Y-108320721D01*
X155327854Y-108335201D01*
X155217667Y-108391344D01*
X155130223Y-108478788D01*
X155074080Y-108588975D01*
X155059600Y-108680396D01*
X155059600Y-109216845D01*
X154515400Y-109216845D01*
X154515400Y-109216843D01*
X154515400Y-108680399D01*
X154500920Y-108588977D01*
X154444777Y-108478789D01*
X154357332Y-108391344D01*
X154247144Y-108335201D01*
X154247146Y-108335201D01*
X154155724Y-108320721D01*
X154155722Y-108320721D01*
X153766587Y-108320721D01*
X153718249Y-108303128D01*
X153713412Y-108298695D01*
X153471925Y-108057207D01*
X153450186Y-108010587D01*
X153449900Y-108004033D01*
X153449900Y-106975707D01*
X153467493Y-106927369D01*
X153471926Y-106922533D01*
X156105838Y-104288621D01*
X160241932Y-104288621D01*
X160261702Y-104426129D01*
X160319410Y-104552489D01*
X160319412Y-104552492D01*
X160410383Y-104657478D01*
X160410385Y-104657479D01*
X160527248Y-104732583D01*
X160622069Y-104760424D01*
X160660541Y-104771721D01*
X160660544Y-104771721D01*
X160799456Y-104771721D01*
X160799459Y-104771721D01*
X160932751Y-104732583D01*
X161049617Y-104657478D01*
X161140589Y-104552490D01*
X161140591Y-104552484D01*
X161140736Y-104552261D01*
X161140888Y-104552144D01*
X161144111Y-104548426D01*
X161144889Y-104549100D01*
X161181671Y-104521111D01*
X161203996Y-104517721D01*
X164033025Y-104517721D01*
X164034993Y-104517773D01*
X164076639Y-104519955D01*
X164099738Y-104511087D01*
X164111057Y-104507735D01*
X164135265Y-104502590D01*
X164142250Y-104497514D01*
X164159499Y-104488148D01*
X164167564Y-104485053D01*
X164185070Y-104467546D01*
X164194029Y-104459893D01*
X164214058Y-104445343D01*
X164218376Y-104437861D01*
X164230323Y-104422292D01*
X164729694Y-103922922D01*
X164776313Y-103901183D01*
X164804051Y-103903942D01*
X164830541Y-103911721D01*
X164830543Y-103911721D01*
X164969456Y-103911721D01*
X164969459Y-103911721D01*
X165102751Y-103872583D01*
X165219617Y-103797478D01*
X165310589Y-103692490D01*
X165353429Y-103598684D01*
X165368297Y-103566129D01*
X165368297Y-103566127D01*
X165368298Y-103566126D01*
X165388068Y-103428621D01*
X165368298Y-103291116D01*
X165368297Y-103291114D01*
X165368297Y-103291112D01*
X165310589Y-103164752D01*
X165310587Y-103164749D01*
X165229244Y-103070874D01*
X165219617Y-103059764D01*
X165219616Y-103059763D01*
X165219614Y-103059762D01*
X165102751Y-102984658D01*
X165078744Y-102977609D01*
X167691389Y-102977609D01*
X167691390Y-102977610D01*
X168125779Y-102977610D01*
X168124835Y-102979462D01*
X168105014Y-103104610D01*
X168124835Y-103229758D01*
X168125779Y-103231610D01*
X167691390Y-103231610D01*
X167696222Y-103277585D01*
X167749966Y-103442993D01*
X167749969Y-103443000D01*
X167836931Y-103593623D01*
X167953312Y-103722876D01*
X167953317Y-103722880D01*
X168094019Y-103825106D01*
X168252906Y-103895847D01*
X168383000Y-103923498D01*
X168383000Y-103488831D01*
X168384852Y-103489775D01*
X168478519Y-103504610D01*
X168541481Y-103504610D01*
X168635148Y-103489775D01*
X168637000Y-103488831D01*
X168637000Y-103923498D01*
X168767093Y-103895847D01*
X168925980Y-103825106D01*
X169066682Y-103722880D01*
X169066687Y-103722876D01*
X169183068Y-103593623D01*
X169270030Y-103443000D01*
X169270033Y-103442993D01*
X169323777Y-103277585D01*
X169328610Y-103231610D01*
X168894221Y-103231610D01*
X168895165Y-103229758D01*
X168914986Y-103104610D01*
X168895165Y-102979462D01*
X168894221Y-102977610D01*
X169328610Y-102977610D01*
X169328610Y-102977609D01*
X169323777Y-102931634D01*
X169270033Y-102766226D01*
X169270030Y-102766219D01*
X169183068Y-102615596D01*
X169066687Y-102486343D01*
X169066682Y-102486339D01*
X168925980Y-102384113D01*
X168767092Y-102313372D01*
X168637000Y-102285720D01*
X168637000Y-102720388D01*
X168635148Y-102719445D01*
X168541481Y-102704610D01*
X168478519Y-102704610D01*
X168384852Y-102719445D01*
X168383000Y-102720388D01*
X168383000Y-102285720D01*
X168252907Y-102313372D01*
X168094019Y-102384113D01*
X167953317Y-102486339D01*
X167953312Y-102486343D01*
X167836931Y-102615596D01*
X167749969Y-102766219D01*
X167749966Y-102766226D01*
X167696222Y-102931634D01*
X167691389Y-102977609D01*
X165078744Y-102977609D01*
X164969461Y-102945521D01*
X164969459Y-102945521D01*
X164830541Y-102945521D01*
X164830538Y-102945521D01*
X164697248Y-102984658D01*
X164580385Y-103059762D01*
X164580383Y-103059763D01*
X164489412Y-103164749D01*
X164489410Y-103164752D01*
X164431702Y-103291112D01*
X164411932Y-103428621D01*
X164427199Y-103534808D01*
X164416663Y-103585158D01*
X164405938Y-103598684D01*
X163967128Y-104037495D01*
X163920509Y-104059235D01*
X163913955Y-104059521D01*
X161203996Y-104059521D01*
X161155658Y-104041928D01*
X161144111Y-104028815D01*
X161144111Y-104028816D01*
X161144002Y-104028690D01*
X161140736Y-104024981D01*
X161140586Y-104024748D01*
X161049619Y-103919766D01*
X161049614Y-103919762D01*
X160932751Y-103844658D01*
X160799461Y-103805521D01*
X160799459Y-103805521D01*
X160660541Y-103805521D01*
X160660538Y-103805521D01*
X160527248Y-103844658D01*
X160410385Y-103919762D01*
X160410383Y-103919763D01*
X160319412Y-104024749D01*
X160319410Y-104024752D01*
X160261702Y-104151112D01*
X160241932Y-104288621D01*
X156105838Y-104288621D01*
X156956412Y-103438047D01*
X157003032Y-103416307D01*
X157009586Y-103416021D01*
X158606793Y-103416021D01*
X158655131Y-103433614D01*
X158663625Y-103441976D01*
X158720380Y-103507475D01*
X158720383Y-103507478D01*
X158728182Y-103512490D01*
X158837248Y-103582583D01*
X158892084Y-103598684D01*
X158970541Y-103621721D01*
X158970544Y-103621721D01*
X159109456Y-103621721D01*
X159109459Y-103621721D01*
X159242751Y-103582583D01*
X159359617Y-103507478D01*
X159450589Y-103402490D01*
X159482466Y-103332689D01*
X159508297Y-103276129D01*
X159508297Y-103276127D01*
X159508298Y-103276126D01*
X159528068Y-103138621D01*
X159508298Y-103001116D01*
X159508297Y-103001114D01*
X159508297Y-103001112D01*
X159450589Y-102874752D01*
X159450587Y-102874749D01*
X159359616Y-102769763D01*
X159359614Y-102769762D01*
X159242751Y-102694658D01*
X159109461Y-102655521D01*
X159109459Y-102655521D01*
X158970541Y-102655521D01*
X158970538Y-102655521D01*
X158837248Y-102694658D01*
X158720385Y-102769762D01*
X158720383Y-102769763D01*
X158667957Y-102830267D01*
X158623006Y-102855276D01*
X158611125Y-102856221D01*
X156920426Y-102856221D01*
X156908841Y-102854331D01*
X156908739Y-102855065D01*
X156901842Y-102854102D01*
X156856893Y-102856181D01*
X156855156Y-102856221D01*
X156836565Y-102856221D01*
X156832728Y-102856937D01*
X156827562Y-102857535D01*
X156797307Y-102858935D01*
X156797304Y-102858936D01*
X156787123Y-102863431D01*
X156770577Y-102868555D01*
X156759638Y-102870600D01*
X156759633Y-102870602D01*
X156733893Y-102886540D01*
X156729282Y-102888970D01*
X156701578Y-102901203D01*
X156701577Y-102901204D01*
X156693702Y-102909078D01*
X156680125Y-102919832D01*
X156670667Y-102925689D01*
X156652416Y-102949855D01*
X156648995Y-102953786D01*
X153013038Y-106589743D01*
X153003515Y-106596600D01*
X153003960Y-106597189D01*
X152998401Y-106601386D01*
X152968085Y-106634640D01*
X152966888Y-106635894D01*
X152953740Y-106649043D01*
X152953737Y-106649047D01*
X152951539Y-106652255D01*
X152948307Y-106656335D01*
X152927904Y-106678717D01*
X152927900Y-106678723D01*
X152923879Y-106689101D01*
X152915802Y-106704424D01*
X152909514Y-106713603D01*
X152909513Y-106713606D01*
X152902581Y-106743082D01*
X152901039Y-106748060D01*
X152890100Y-106776299D01*
X152890100Y-106787424D01*
X152888103Y-106804639D01*
X152885556Y-106815468D01*
X152885556Y-106815471D01*
X152889739Y-106845457D01*
X152890100Y-106850658D01*
X152890100Y-108093194D01*
X152888210Y-108104777D01*
X152888944Y-108104880D01*
X152887981Y-108111779D01*
X152890060Y-108156727D01*
X152890100Y-108158464D01*
X152890100Y-108177056D01*
X152890816Y-108180894D01*
X152891414Y-108186060D01*
X152892814Y-108216310D01*
X152892815Y-108216315D01*
X152897309Y-108226493D01*
X152902434Y-108243043D01*
X152904478Y-108253979D01*
X152904479Y-108253982D01*
X152904480Y-108253984D01*
X152904481Y-108253985D01*
X152920424Y-108279734D01*
X152922855Y-108284346D01*
X152935083Y-108312042D01*
X152935084Y-108312043D01*
X152942950Y-108319909D01*
X152953709Y-108333491D01*
X152959567Y-108342951D01*
X152959569Y-108342954D01*
X152959570Y-108342955D01*
X152959572Y-108342957D01*
X152983734Y-108361203D01*
X152987659Y-108364618D01*
X153108716Y-108485675D01*
X153216918Y-108593877D01*
X153238658Y-108640497D01*
X153238019Y-108658810D01*
X153234601Y-108680396D01*
X153234600Y-108680402D01*
X153234600Y-109216847D01*
X153248956Y-109307488D01*
X153239141Y-109357982D01*
X153227856Y-109372425D01*
X152613587Y-109986695D01*
X152566968Y-110008435D01*
X152560414Y-110008721D01*
X151091041Y-110008721D01*
X151042703Y-109991128D01*
X151034209Y-109982767D01*
X150979616Y-109919763D01*
X150979614Y-109919762D01*
X150862751Y-109844658D01*
X150729461Y-109805521D01*
X150729459Y-109805521D01*
X150603887Y-109805521D01*
X150555549Y-109787928D01*
X150550713Y-109783495D01*
X149968879Y-109201662D01*
X149962027Y-109192136D01*
X149961434Y-109192584D01*
X149957235Y-109187025D01*
X149957234Y-109187022D01*
X149923950Y-109156679D01*
X149922743Y-109155526D01*
X149909580Y-109142363D01*
X149909576Y-109142360D01*
X149906368Y-109140162D01*
X149902280Y-109136924D01*
X149879901Y-109116523D01*
X149869525Y-109112503D01*
X149854192Y-109104421D01*
X149845016Y-109098135D01*
X149845015Y-109098134D01*
X149845014Y-109098134D01*
X149815535Y-109091201D01*
X149810559Y-109089659D01*
X149782322Y-109078721D01*
X149771197Y-109078721D01*
X149753981Y-109076724D01*
X149743151Y-109074177D01*
X149743149Y-109074177D01*
X149713162Y-109078360D01*
X149707961Y-109078721D01*
X148138099Y-109078721D01*
X148089761Y-109061128D01*
X148064041Y-109016579D01*
X148062899Y-109003521D01*
X148062899Y-108493564D01*
X148062898Y-108493563D01*
X148054028Y-108448963D01*
X148039738Y-108427577D01*
X148020235Y-108398388D01*
X148009693Y-108391344D01*
X147969658Y-108364593D01*
X147969656Y-108364592D01*
X147925057Y-108355721D01*
X146484086Y-108355721D01*
X146435748Y-108338128D01*
X146430912Y-108333695D01*
X142758811Y-104661594D01*
X142737071Y-104614974D01*
X142750385Y-104565287D01*
X142758811Y-104555246D01*
X142823413Y-104490643D01*
X142823416Y-104490640D01*
X142851481Y-104427078D01*
X142887099Y-104389968D01*
X142938240Y-104384433D01*
X142980974Y-104413066D01*
X142989066Y-104427081D01*
X143017002Y-104490351D01*
X143017005Y-104490356D01*
X143098264Y-104571615D01*
X143098267Y-104571617D01*
X143203402Y-104618039D01*
X143229105Y-104621020D01*
X143360500Y-104621020D01*
X143360500Y-104285621D01*
X143614500Y-104285621D01*
X143614500Y-104621020D01*
X143745888Y-104621020D01*
X143771596Y-104618039D01*
X143876732Y-104571617D01*
X143876735Y-104571615D01*
X143957994Y-104490356D01*
X143957996Y-104490353D01*
X144004418Y-104385218D01*
X144007400Y-104359515D01*
X144007400Y-104285621D01*
X143614500Y-104285621D01*
X143360500Y-104285621D01*
X143360500Y-103696221D01*
X143614500Y-103696221D01*
X143614500Y-104031621D01*
X144007399Y-104031621D01*
X144007399Y-103957732D01*
X144004418Y-103932024D01*
X143957996Y-103826888D01*
X143957994Y-103826885D01*
X143876735Y-103745626D01*
X143876732Y-103745624D01*
X143771597Y-103699202D01*
X143745895Y-103696221D01*
X143614500Y-103696221D01*
X143360500Y-103696221D01*
X143229111Y-103696221D01*
X143203403Y-103699202D01*
X143098267Y-103745624D01*
X143098264Y-103745626D01*
X143017005Y-103826885D01*
X143017000Y-103826892D01*
X142989065Y-103890160D01*
X142953446Y-103927273D01*
X142902305Y-103932807D01*
X142859571Y-103904173D01*
X142851481Y-103890160D01*
X142823418Y-103826605D01*
X142823413Y-103826598D01*
X142742022Y-103745207D01*
X142742016Y-103745203D01*
X142677224Y-103716594D01*
X142640112Y-103680975D01*
X142632400Y-103647802D01*
X142632400Y-103129046D01*
X142634290Y-103117462D01*
X142633556Y-103117360D01*
X142634518Y-103110463D01*
X142632440Y-103065513D01*
X142632400Y-103063776D01*
X142632400Y-103045190D01*
X142632400Y-103045186D01*
X142631682Y-103041349D01*
X142631083Y-103036182D01*
X142630977Y-103033886D01*
X142629685Y-103005928D01*
X142625192Y-102995752D01*
X142620065Y-102979196D01*
X142618020Y-102968258D01*
X142613925Y-102961645D01*
X142602074Y-102942506D01*
X142599653Y-102937912D01*
X142587417Y-102910199D01*
X142579543Y-102902325D01*
X142568786Y-102888744D01*
X142562931Y-102879288D01*
X142546597Y-102866953D01*
X142538769Y-102861041D01*
X142534837Y-102857619D01*
X141297761Y-101620544D01*
X141276021Y-101573924D01*
X141289335Y-101524237D01*
X141297755Y-101514202D01*
X142938211Y-99873747D01*
X142984831Y-99852007D01*
X142991385Y-99851721D01*
X143116956Y-99851721D01*
X143116959Y-99851721D01*
X143141323Y-99844566D01*
X143162509Y-99841521D01*
X143281664Y-99841521D01*
X143281666Y-99841521D01*
X143327234Y-99835522D01*
X143360569Y-99819977D01*
X143427237Y-99788890D01*
X143427237Y-99788889D01*
X143427241Y-99788888D01*
X143505267Y-99710862D01*
X143505705Y-99709924D01*
X143543084Y-99629763D01*
X143551901Y-99610855D01*
X143557900Y-99565287D01*
X143557900Y-99171955D01*
X143551901Y-99126387D01*
X143544150Y-99109764D01*
X143505269Y-99026383D01*
X143505263Y-99026375D01*
X143427245Y-98948357D01*
X143427237Y-98948351D01*
X143373356Y-98923226D01*
X143336982Y-98886853D01*
X143332499Y-98835608D01*
X143362004Y-98793472D01*
X143374757Y-98786281D01*
X143407019Y-98772037D01*
X143488416Y-98690640D01*
X143488542Y-98690356D01*
X143521681Y-98615303D01*
X143534913Y-98585336D01*
X143537900Y-98559589D01*
X143537900Y-98157653D01*
X143534913Y-98131906D01*
X143532868Y-98127274D01*
X143488418Y-98026605D01*
X143488413Y-98026598D01*
X143407022Y-97945207D01*
X143407016Y-97945203D01*
X143342224Y-97916594D01*
X143305112Y-97880975D01*
X143297400Y-97847802D01*
X143297400Y-97298206D01*
X143314993Y-97249868D01*
X143319414Y-97245044D01*
X145431725Y-95132732D01*
X145478346Y-95110993D01*
X145528033Y-95124307D01*
X145557538Y-95166444D01*
X145560100Y-95185907D01*
X145560100Y-96710694D01*
X145558210Y-96722277D01*
X145558944Y-96722380D01*
X145557981Y-96729279D01*
X145560060Y-96774227D01*
X145560100Y-96775964D01*
X145560100Y-96794556D01*
X145560816Y-96798394D01*
X145561414Y-96803560D01*
X145562814Y-96833810D01*
X145562815Y-96833815D01*
X145567309Y-96843993D01*
X145572434Y-96860543D01*
X145574478Y-96871479D01*
X145574479Y-96871482D01*
X145574480Y-96871484D01*
X145583027Y-96885287D01*
X145590424Y-96897234D01*
X145592855Y-96901846D01*
X145605083Y-96929542D01*
X145605084Y-96929543D01*
X145612950Y-96937409D01*
X145623709Y-96950991D01*
X145627517Y-96957140D01*
X145629569Y-96960454D01*
X145629570Y-96960455D01*
X145629574Y-96960459D01*
X145653733Y-96978702D01*
X145657658Y-96982117D01*
X146517161Y-97841621D01*
X146801121Y-98125581D01*
X146807976Y-98135104D01*
X146808566Y-98134659D01*
X146812765Y-98140219D01*
X146846007Y-98170523D01*
X146847242Y-98171702D01*
X146860419Y-98184879D01*
X146863643Y-98187087D01*
X146867713Y-98190311D01*
X146890099Y-98210719D01*
X146890100Y-98210719D01*
X146890101Y-98210720D01*
X146894183Y-98212301D01*
X146900469Y-98214736D01*
X146915803Y-98222818D01*
X146924984Y-98229107D01*
X146929620Y-98232283D01*
X146959554Y-98274116D01*
X146955595Y-98325403D01*
X146919595Y-98362147D01*
X146887119Y-98369521D01*
X145516984Y-98369521D01*
X145515016Y-98369469D01*
X145473362Y-98367286D01*
X145450254Y-98376156D01*
X145438946Y-98379505D01*
X145414736Y-98384651D01*
X145414734Y-98384652D01*
X145407748Y-98389728D01*
X145390502Y-98399092D01*
X145382439Y-98402187D01*
X145382434Y-98402190D01*
X145364931Y-98419692D01*
X145355965Y-98427350D01*
X145335942Y-98441898D01*
X145335940Y-98441901D01*
X145331622Y-98449380D01*
X145319673Y-98464950D01*
X144192936Y-99591687D01*
X144191509Y-99593041D01*
X144160514Y-99620950D01*
X144160512Y-99620954D01*
X144150446Y-99643560D01*
X144144821Y-99653921D01*
X144131338Y-99674686D01*
X144129986Y-99683220D01*
X144124414Y-99702030D01*
X144120900Y-99709924D01*
X144120900Y-99734674D01*
X144119974Y-99746439D01*
X144116103Y-99770877D01*
X144116103Y-99770878D01*
X144118337Y-99779215D01*
X144120900Y-99798680D01*
X144120900Y-100410530D01*
X144103307Y-100458868D01*
X144086356Y-100473792D01*
X144030385Y-100509762D01*
X144030383Y-100509763D01*
X143939412Y-100614749D01*
X143939410Y-100614752D01*
X143881702Y-100741112D01*
X143861932Y-100878621D01*
X143881702Y-101016129D01*
X143939410Y-101142489D01*
X143939412Y-101142492D01*
X144030383Y-101247478D01*
X144030385Y-101247479D01*
X144147248Y-101322583D01*
X144242069Y-101350424D01*
X144280541Y-101361721D01*
X144280544Y-101361721D01*
X144419456Y-101361721D01*
X144419459Y-101361721D01*
X144552751Y-101322583D01*
X144669617Y-101247478D01*
X144760589Y-101142490D01*
X144814007Y-101025522D01*
X144818297Y-101016129D01*
X144818297Y-101016127D01*
X144818298Y-101016126D01*
X144838068Y-100878621D01*
X144818298Y-100741116D01*
X144818297Y-100741114D01*
X144818297Y-100741112D01*
X144760589Y-100614752D01*
X144760587Y-100614749D01*
X144669616Y-100509763D01*
X144669614Y-100509762D01*
X144613644Y-100473792D01*
X144582491Y-100432858D01*
X144579100Y-100410530D01*
X144579100Y-99998620D01*
X144951932Y-99998620D01*
X144971702Y-100136129D01*
X145029410Y-100262489D01*
X145029412Y-100262492D01*
X145120383Y-100367478D01*
X145120385Y-100367479D01*
X145237248Y-100442583D01*
X145301242Y-100461373D01*
X145370541Y-100481721D01*
X145370544Y-100481721D01*
X145509456Y-100481721D01*
X145509459Y-100481721D01*
X145535947Y-100473943D01*
X145587281Y-100477205D01*
X145610306Y-100492923D01*
X147013055Y-101895672D01*
X147014409Y-101897097D01*
X147042330Y-101928107D01*
X147064934Y-101938171D01*
X147075302Y-101943801D01*
X147096061Y-101957282D01*
X147096064Y-101957283D01*
X147104593Y-101958634D01*
X147123416Y-101964209D01*
X147131303Y-101967721D01*
X147156053Y-101967721D01*
X147167816Y-101968646D01*
X147192259Y-101972518D01*
X147197399Y-101971140D01*
X147200602Y-101970283D01*
X147220063Y-101967721D01*
X164633025Y-101967721D01*
X164634993Y-101967773D01*
X164676639Y-101969955D01*
X164699738Y-101961087D01*
X164711057Y-101957735D01*
X164716717Y-101956532D01*
X164735265Y-101952590D01*
X164742250Y-101947514D01*
X164759499Y-101938148D01*
X164767564Y-101935053D01*
X164785070Y-101917546D01*
X164794029Y-101909893D01*
X164814058Y-101895343D01*
X164818376Y-101887861D01*
X164830323Y-101872292D01*
X165598005Y-101104610D01*
X167677540Y-101104610D01*
X167695731Y-101277688D01*
X167695731Y-101277689D01*
X167749507Y-101443197D01*
X167749510Y-101443204D01*
X167836523Y-101593914D01*
X167836524Y-101593916D01*
X167871258Y-101632492D01*
X167952976Y-101723248D01*
X168093770Y-101825542D01*
X168252756Y-101896327D01*
X168422984Y-101932510D01*
X168422986Y-101932510D01*
X168597014Y-101932510D01*
X168597016Y-101932510D01*
X168767244Y-101896327D01*
X168926230Y-101825542D01*
X169067024Y-101723248D01*
X169183474Y-101593918D01*
X169270490Y-101443202D01*
X169324269Y-101277688D01*
X169342460Y-101104610D01*
X169324269Y-100931532D01*
X169272594Y-100772492D01*
X169270492Y-100766022D01*
X169270489Y-100766015D01*
X169183476Y-100615305D01*
X169183475Y-100615303D01*
X169067024Y-100485972D01*
X169029719Y-100458868D01*
X168926230Y-100383678D01*
X168926229Y-100383677D01*
X168926227Y-100383676D01*
X168767245Y-100312893D01*
X168700099Y-100298621D01*
X168597016Y-100276710D01*
X168422984Y-100276710D01*
X168337869Y-100294801D01*
X168252754Y-100312893D01*
X168093772Y-100383676D01*
X167952975Y-100485972D01*
X167836524Y-100615303D01*
X167836523Y-100615305D01*
X167749510Y-100766015D01*
X167749507Y-100766022D01*
X167695731Y-100931530D01*
X167695731Y-100931531D01*
X167677540Y-101104609D01*
X167677540Y-101104610D01*
X165598005Y-101104610D01*
X166417099Y-100285517D01*
X166418465Y-100284220D01*
X166449486Y-100256291D01*
X166459556Y-100233671D01*
X166465174Y-100223323D01*
X166478661Y-100202557D01*
X166480011Y-100194028D01*
X166485585Y-100175211D01*
X166489100Y-100167318D01*
X166489100Y-100142566D01*
X166490026Y-100130801D01*
X166490274Y-100129235D01*
X166493897Y-100106363D01*
X166491875Y-100098815D01*
X166491662Y-100098019D01*
X166489100Y-100078559D01*
X166489100Y-99104610D01*
X167677540Y-99104610D01*
X167695731Y-99277688D01*
X167695731Y-99277689D01*
X167749507Y-99443197D01*
X167749510Y-99443204D01*
X167836523Y-99593914D01*
X167836524Y-99593916D01*
X167941827Y-99710866D01*
X167952976Y-99723248D01*
X168093770Y-99825542D01*
X168093771Y-99825542D01*
X168093772Y-99825543D01*
X168129659Y-99841521D01*
X168252756Y-99896327D01*
X168422984Y-99932510D01*
X168422986Y-99932510D01*
X168597014Y-99932510D01*
X168597016Y-99932510D01*
X168767244Y-99896327D01*
X168926230Y-99825542D01*
X169067024Y-99723248D01*
X169183474Y-99593918D01*
X169270490Y-99443202D01*
X169271979Y-99438621D01*
X169310482Y-99320120D01*
X169324269Y-99277688D01*
X169342460Y-99104610D01*
X169324269Y-98931532D01*
X169297695Y-98849747D01*
X169270492Y-98766022D01*
X169270489Y-98766015D01*
X169183476Y-98615305D01*
X169183475Y-98615303D01*
X169067024Y-98485972D01*
X169064969Y-98484479D01*
X168926230Y-98383678D01*
X168926229Y-98383677D01*
X168926227Y-98383676D01*
X168767245Y-98312893D01*
X168700099Y-98298621D01*
X168597016Y-98276710D01*
X168422984Y-98276710D01*
X168354028Y-98291367D01*
X168252754Y-98312893D01*
X168093772Y-98383676D01*
X167952975Y-98485972D01*
X167836524Y-98615303D01*
X167836523Y-98615305D01*
X167749510Y-98766015D01*
X167749507Y-98766022D01*
X167695731Y-98931530D01*
X167695731Y-98931531D01*
X167677540Y-99104609D01*
X167677540Y-99104610D01*
X166489100Y-99104610D01*
X166489100Y-98400594D01*
X166489152Y-98398626D01*
X166491334Y-98356981D01*
X166482467Y-98333882D01*
X166479116Y-98322568D01*
X166473969Y-98298358D01*
X166473969Y-98298356D01*
X166468890Y-98291365D01*
X166459524Y-98274112D01*
X166456432Y-98266058D01*
X166456430Y-98266054D01*
X166438932Y-98248556D01*
X166431268Y-98239584D01*
X166416721Y-98219561D01*
X166409242Y-98215244D01*
X166393668Y-98203293D01*
X165985041Y-97794665D01*
X167682100Y-97794665D01*
X167682101Y-97794667D01*
X167690972Y-97839269D01*
X167724764Y-97889842D01*
X167724765Y-97889842D01*
X167724766Y-97889844D01*
X167775342Y-97923638D01*
X167819943Y-97932510D01*
X169200056Y-97932509D01*
X169244658Y-97923638D01*
X169295234Y-97889844D01*
X169329028Y-97839268D01*
X169337900Y-97794667D01*
X169337899Y-96414554D01*
X169329028Y-96369952D01*
X169313274Y-96346375D01*
X169295235Y-96319377D01*
X169295231Y-96319374D01*
X169244658Y-96285582D01*
X169244656Y-96285581D01*
X169200057Y-96276710D01*
X167819944Y-96276710D01*
X167819942Y-96276711D01*
X167775340Y-96285582D01*
X167724767Y-96319374D01*
X167690972Y-96369952D01*
X167690971Y-96369953D01*
X167682100Y-96414552D01*
X167682100Y-97794665D01*
X165985041Y-97794665D01*
X165656561Y-97466185D01*
X165634821Y-97419565D01*
X165635299Y-97402314D01*
X165650568Y-97296121D01*
X165630798Y-97158616D01*
X165630797Y-97158614D01*
X165630797Y-97158612D01*
X165573089Y-97032252D01*
X165573087Y-97032249D01*
X165485230Y-96930857D01*
X165482117Y-96927264D01*
X165482116Y-96927263D01*
X165482114Y-96927262D01*
X165365251Y-96852158D01*
X165231961Y-96813021D01*
X165231959Y-96813021D01*
X165093041Y-96813021D01*
X165093038Y-96813021D01*
X164959748Y-96852158D01*
X164842885Y-96927262D01*
X164842883Y-96927263D01*
X164751912Y-97032249D01*
X164751910Y-97032252D01*
X164694202Y-97158612D01*
X164674432Y-97296120D01*
X164694202Y-97433629D01*
X164751910Y-97559989D01*
X164751912Y-97559992D01*
X164842883Y-97664978D01*
X164842885Y-97664979D01*
X164959748Y-97740083D01*
X165023742Y-97758873D01*
X165093041Y-97779221D01*
X165093044Y-97779221D01*
X165231956Y-97779221D01*
X165231959Y-97779221D01*
X165258447Y-97771443D01*
X165309781Y-97774705D01*
X165332806Y-97790423D01*
X166008874Y-98466491D01*
X166030614Y-98513110D01*
X166030900Y-98519664D01*
X166030900Y-99992575D01*
X166013307Y-100040913D01*
X166008874Y-100045749D01*
X164567129Y-101487495D01*
X164520509Y-101509235D01*
X164513955Y-101509521D01*
X147306044Y-101509521D01*
X147257706Y-101491928D01*
X147252870Y-101487495D01*
X146123997Y-100358621D01*
X149041932Y-100358621D01*
X149061702Y-100496129D01*
X149119410Y-100622489D01*
X149119412Y-100622492D01*
X149210383Y-100727478D01*
X149210385Y-100727479D01*
X149327248Y-100802583D01*
X149422069Y-100830424D01*
X149460541Y-100841721D01*
X149460544Y-100841721D01*
X149599456Y-100841721D01*
X149599459Y-100841721D01*
X149732751Y-100802583D01*
X149849617Y-100727478D01*
X149940589Y-100622490D01*
X149940591Y-100622484D01*
X149940736Y-100622261D01*
X149940888Y-100622144D01*
X149944111Y-100618426D01*
X149944889Y-100619100D01*
X149981671Y-100591111D01*
X150003996Y-100587721D01*
X150683025Y-100587721D01*
X150684993Y-100587773D01*
X150726639Y-100589955D01*
X150749738Y-100581087D01*
X150761057Y-100577735D01*
X150785265Y-100572590D01*
X150792250Y-100567514D01*
X150809499Y-100558148D01*
X150817564Y-100555053D01*
X150835070Y-100537546D01*
X150844029Y-100529893D01*
X150864058Y-100515343D01*
X150868376Y-100507863D01*
X150880321Y-100492295D01*
X151030771Y-100341846D01*
X151077392Y-100320107D01*
X151083946Y-100319821D01*
X163612291Y-100319821D01*
X163660629Y-100337414D01*
X163686349Y-100381963D01*
X163686726Y-100405722D01*
X163675188Y-100485972D01*
X163671932Y-100508621D01*
X163674989Y-100529885D01*
X163691702Y-100646129D01*
X163749410Y-100772489D01*
X163749412Y-100772492D01*
X163840383Y-100877478D01*
X163840385Y-100877479D01*
X163957248Y-100952583D01*
X164052069Y-100980424D01*
X164090541Y-100991721D01*
X164090544Y-100991721D01*
X164229456Y-100991721D01*
X164229459Y-100991721D01*
X164362751Y-100952583D01*
X164479617Y-100877478D01*
X164570589Y-100772490D01*
X164628298Y-100646126D01*
X164648068Y-100508621D01*
X164628298Y-100371116D01*
X164628297Y-100371114D01*
X164628297Y-100371112D01*
X164570589Y-100244752D01*
X164570587Y-100244749D01*
X164479616Y-100139763D01*
X164479614Y-100139762D01*
X164362751Y-100064658D01*
X164298438Y-100045775D01*
X164257015Y-100015276D01*
X164244887Y-99965286D01*
X164267730Y-99919196D01*
X164298438Y-99901467D01*
X164362751Y-99882583D01*
X164376500Y-99873747D01*
X164479617Y-99807478D01*
X164570589Y-99702490D01*
X164610029Y-99616129D01*
X164628297Y-99576129D01*
X164628297Y-99576127D01*
X164628298Y-99576126D01*
X164648068Y-99438621D01*
X164628298Y-99301116D01*
X164628297Y-99301114D01*
X164628297Y-99301112D01*
X164570589Y-99174752D01*
X164570587Y-99174749D01*
X164479616Y-99069763D01*
X164479614Y-99069762D01*
X164362751Y-98994658D01*
X164229461Y-98955521D01*
X164229459Y-98955521D01*
X164090541Y-98955521D01*
X164090538Y-98955521D01*
X163957248Y-98994658D01*
X163840385Y-99069762D01*
X163840383Y-99069763D01*
X163749412Y-99174749D01*
X163749410Y-99174752D01*
X163691702Y-99301112D01*
X163685951Y-99341116D01*
X163671932Y-99438621D01*
X163677890Y-99480063D01*
X163678402Y-99483619D01*
X163667866Y-99533969D01*
X163627432Y-99565766D01*
X163603967Y-99569521D01*
X151106045Y-99569521D01*
X151057707Y-99551928D01*
X151052870Y-99547495D01*
X150948579Y-99443204D01*
X150826924Y-99321548D01*
X150825569Y-99320120D01*
X150797669Y-99289134D01*
X150775058Y-99279066D01*
X150764692Y-99273438D01*
X150743936Y-99259960D01*
X150743933Y-99259959D01*
X150735401Y-99258607D01*
X150716587Y-99253033D01*
X150708698Y-99249521D01*
X150708697Y-99249521D01*
X150683946Y-99249521D01*
X150672183Y-99248595D01*
X150656889Y-99246172D01*
X150647743Y-99244724D01*
X150647741Y-99244724D01*
X150639400Y-99246959D01*
X150619939Y-99249521D01*
X150003996Y-99249521D01*
X149955658Y-99231928D01*
X149944111Y-99218815D01*
X149944111Y-99218816D01*
X149944002Y-99218690D01*
X149940736Y-99214981D01*
X149940586Y-99214748D01*
X149849619Y-99109766D01*
X149849614Y-99109762D01*
X149732751Y-99034658D01*
X149599461Y-98995521D01*
X149599459Y-98995521D01*
X149460541Y-98995521D01*
X149460538Y-98995521D01*
X149327248Y-99034658D01*
X149210385Y-99109762D01*
X149210383Y-99109763D01*
X149119412Y-99214749D01*
X149119410Y-99214752D01*
X149061702Y-99341112D01*
X149041932Y-99478621D01*
X149061702Y-99616129D01*
X149119410Y-99742489D01*
X149119412Y-99742492D01*
X149144008Y-99770877D01*
X149210383Y-99847478D01*
X149216984Y-99851720D01*
X149222647Y-99855360D01*
X149253798Y-99896295D01*
X149251349Y-99947676D01*
X149222647Y-99981882D01*
X149210384Y-99989763D01*
X149210383Y-99989763D01*
X149119412Y-100094749D01*
X149119410Y-100094752D01*
X149061702Y-100221112D01*
X149041932Y-100358621D01*
X146123997Y-100358621D01*
X145934061Y-100168685D01*
X145912321Y-100122065D01*
X145912799Y-100104814D01*
X145928068Y-99998621D01*
X145908298Y-99861116D01*
X145908297Y-99861114D01*
X145908297Y-99861112D01*
X145850589Y-99734752D01*
X145850587Y-99734749D01*
X145759616Y-99629763D01*
X145759614Y-99629762D01*
X145642751Y-99554658D01*
X145509461Y-99515521D01*
X145509459Y-99515521D01*
X145370541Y-99515521D01*
X145370538Y-99515521D01*
X145237248Y-99554658D01*
X145120385Y-99629762D01*
X145120383Y-99629763D01*
X145029412Y-99734749D01*
X145029410Y-99734752D01*
X144971702Y-99861112D01*
X144951932Y-99998620D01*
X144579100Y-99998620D01*
X144579100Y-99884665D01*
X144596693Y-99836327D01*
X144601126Y-99831491D01*
X145582871Y-98849747D01*
X145629491Y-98828007D01*
X145636045Y-98827721D01*
X152383025Y-98827721D01*
X152384993Y-98827773D01*
X152426639Y-98829955D01*
X152449738Y-98821087D01*
X152461057Y-98817735D01*
X152485265Y-98812590D01*
X152492250Y-98807514D01*
X152509499Y-98798148D01*
X152517564Y-98795053D01*
X152535070Y-98777546D01*
X152544029Y-98769893D01*
X152564058Y-98755343D01*
X152568376Y-98747861D01*
X152580320Y-98732295D01*
X153664025Y-97648593D01*
X153664025Y-97648591D01*
X153670210Y-97642407D01*
X153670213Y-97642402D01*
X154749025Y-96563593D01*
X154749025Y-96563591D01*
X154755213Y-96557404D01*
X154755216Y-96557399D01*
X159137099Y-92175517D01*
X159138465Y-92174220D01*
X159169486Y-92146291D01*
X159179555Y-92123674D01*
X159185177Y-92113319D01*
X159198662Y-92092557D01*
X159200013Y-92084021D01*
X159205588Y-92065203D01*
X159209100Y-92057318D01*
X159209100Y-92032567D01*
X159210026Y-92020802D01*
X159213897Y-91996362D01*
X159213419Y-91994580D01*
X159211662Y-91988018D01*
X159209100Y-91968558D01*
X159209100Y-89712306D01*
X166749884Y-89712306D01*
X166769115Y-89944398D01*
X166769115Y-89944400D01*
X166769116Y-89944402D01*
X166808169Y-90098616D01*
X166826288Y-90170168D01*
X166826290Y-90170175D01*
X166919839Y-90383444D01*
X166919840Y-90383448D01*
X167047218Y-90578414D01*
X167204951Y-90749758D01*
X167204955Y-90749762D01*
X167388741Y-90892808D01*
X167583969Y-90998460D01*
X167593563Y-91003652D01*
X167813837Y-91079272D01*
X168043554Y-91117605D01*
X168043557Y-91117605D01*
X168276443Y-91117605D01*
X168276446Y-91117605D01*
X168506163Y-91079272D01*
X168726437Y-91003652D01*
X168931260Y-90892807D01*
X169115046Y-90749761D01*
X169272780Y-90578416D01*
X169400160Y-90383446D01*
X169493712Y-90170169D01*
X169550884Y-89944402D01*
X169568729Y-89729048D01*
X169570116Y-89712306D01*
X169570116Y-89712303D01*
X169557708Y-89562558D01*
X169550884Y-89480208D01*
X169493712Y-89254441D01*
X169400160Y-89041164D01*
X169400159Y-89041163D01*
X169400159Y-89041161D01*
X169272781Y-88846195D01*
X169115048Y-88674851D01*
X169115044Y-88674847D01*
X168931258Y-88531801D01*
X168726442Y-88420960D01*
X168726440Y-88420959D01*
X168648205Y-88394101D01*
X168506163Y-88345338D01*
X168506159Y-88345337D01*
X168506155Y-88345336D01*
X168276449Y-88307005D01*
X168276446Y-88307005D01*
X168043554Y-88307005D01*
X168043550Y-88307005D01*
X167813844Y-88345336D01*
X167813834Y-88345339D01*
X167593559Y-88420959D01*
X167593557Y-88420960D01*
X167388741Y-88531801D01*
X167204955Y-88674847D01*
X167204951Y-88674851D01*
X167047218Y-88846195D01*
X166919840Y-89041161D01*
X166919839Y-89041165D01*
X166826290Y-89254434D01*
X166826288Y-89254441D01*
X166769116Y-89480208D01*
X166769115Y-89480211D01*
X166749884Y-89712303D01*
X166749884Y-89712306D01*
X159209100Y-89712306D01*
X159209100Y-89496712D01*
X159226693Y-89448374D01*
X159243644Y-89433449D01*
X159299617Y-89397478D01*
X159390589Y-89292490D01*
X159448298Y-89166126D01*
X159468068Y-89028621D01*
X159448298Y-88891116D01*
X159448297Y-88891114D01*
X159448297Y-88891112D01*
X159390589Y-88764752D01*
X159390587Y-88764749D01*
X159299616Y-88659763D01*
X159299614Y-88659762D01*
X159182751Y-88584658D01*
X159049461Y-88545521D01*
X159049459Y-88545521D01*
X158910541Y-88545521D01*
X158910538Y-88545521D01*
X158777248Y-88584658D01*
X158660385Y-88659762D01*
X158660383Y-88659763D01*
X158569412Y-88764749D01*
X158569410Y-88764752D01*
X158511702Y-88891112D01*
X158491932Y-89028621D01*
X158511702Y-89166129D01*
X158569410Y-89292489D01*
X158569412Y-89292492D01*
X158607890Y-89336897D01*
X158660383Y-89397478D01*
X158716356Y-89433449D01*
X158747508Y-89474383D01*
X158750900Y-89496712D01*
X158750900Y-91882575D01*
X158733307Y-91930913D01*
X158728874Y-91935749D01*
X154390975Y-96273649D01*
X152317129Y-98347495D01*
X152270509Y-98369235D01*
X152263955Y-98369521D01*
X149512865Y-98369521D01*
X149464527Y-98351928D01*
X149438807Y-98307379D01*
X149444072Y-98263946D01*
X149474418Y-98195218D01*
X149477400Y-98169515D01*
X149477400Y-98095621D01*
X148905700Y-98095621D01*
X148857362Y-98078028D01*
X148831642Y-98033479D01*
X148830500Y-98020421D01*
X148830500Y-97506221D01*
X149084500Y-97506221D01*
X149084500Y-97841621D01*
X149477399Y-97841621D01*
X149477399Y-97767732D01*
X149474418Y-97742024D01*
X149427996Y-97636888D01*
X149427994Y-97636885D01*
X149346735Y-97555626D01*
X149346732Y-97555624D01*
X149241597Y-97509202D01*
X149215895Y-97506221D01*
X149084500Y-97506221D01*
X148830500Y-97506221D01*
X148699111Y-97506221D01*
X148673403Y-97509202D01*
X148568267Y-97555624D01*
X148568264Y-97555626D01*
X148487005Y-97636885D01*
X148487000Y-97636892D01*
X148459065Y-97700160D01*
X148423446Y-97737273D01*
X148372305Y-97742807D01*
X148329571Y-97714173D01*
X148321481Y-97700160D01*
X148293418Y-97636605D01*
X148293413Y-97636598D01*
X148212022Y-97555207D01*
X148212015Y-97555202D01*
X148106716Y-97508708D01*
X148098132Y-97507712D01*
X148080968Y-97505721D01*
X148080966Y-97505721D01*
X147971566Y-97505721D01*
X147950380Y-97502675D01*
X147891961Y-97485521D01*
X147891959Y-97485521D01*
X147753041Y-97485521D01*
X147753038Y-97485521D01*
X147694620Y-97502675D01*
X147673434Y-97505721D01*
X147564032Y-97505721D01*
X147546867Y-97507712D01*
X147538284Y-97508708D01*
X147538282Y-97508708D01*
X147432984Y-97555202D01*
X147432977Y-97555207D01*
X147351586Y-97636598D01*
X147351582Y-97636604D01*
X147348364Y-97643894D01*
X147312746Y-97681008D01*
X147279571Y-97688721D01*
X147187086Y-97688721D01*
X147138748Y-97671128D01*
X147133912Y-97666695D01*
X146352502Y-96885285D01*
X149952100Y-96885285D01*
X149958098Y-96930852D01*
X149958099Y-96930855D01*
X149972209Y-96961116D01*
X149973958Y-96964865D01*
X149980237Y-96985942D01*
X149981700Y-96996120D01*
X149981700Y-96996124D01*
X150039409Y-97122487D01*
X150039412Y-97122492D01*
X150130383Y-97227478D01*
X150157698Y-97245032D01*
X150247248Y-97302583D01*
X150342069Y-97330424D01*
X150380541Y-97341721D01*
X150380544Y-97341721D01*
X150519456Y-97341721D01*
X150519459Y-97341721D01*
X150652751Y-97302583D01*
X150769617Y-97227478D01*
X150847176Y-97137970D01*
X150860586Y-97122494D01*
X150860586Y-97122493D01*
X150860585Y-97122493D01*
X150860589Y-97122490D01*
X150881810Y-97076020D01*
X150897039Y-97054090D01*
X150906664Y-97044464D01*
X150920267Y-97030862D01*
X150966901Y-96930855D01*
X150972900Y-96885287D01*
X150972900Y-96885285D01*
X151147100Y-96885285D01*
X151153099Y-96930857D01*
X151199730Y-97030858D01*
X151199736Y-97030866D01*
X151277754Y-97108884D01*
X151277762Y-97108890D01*
X151377763Y-97155521D01*
X151377764Y-97155521D01*
X151377766Y-97155522D01*
X151423334Y-97161521D01*
X151423336Y-97161521D01*
X151891664Y-97161521D01*
X151891666Y-97161521D01*
X151937234Y-97155522D01*
X152008067Y-97122492D01*
X152037237Y-97108890D01*
X152037237Y-97108889D01*
X152037241Y-97108888D01*
X152115267Y-97030862D01*
X152131468Y-96996120D01*
X152161900Y-96930857D01*
X152161899Y-96930857D01*
X152161901Y-96930855D01*
X152167900Y-96885287D01*
X152167900Y-96614662D01*
X152185493Y-96566324D01*
X152230042Y-96540604D01*
X152280700Y-96549537D01*
X152299930Y-96565414D01*
X152310383Y-96577478D01*
X152310385Y-96577479D01*
X152427248Y-96652583D01*
X152502603Y-96674709D01*
X152560541Y-96691721D01*
X152560544Y-96691721D01*
X152699456Y-96691721D01*
X152699459Y-96691721D01*
X152832751Y-96652583D01*
X152949617Y-96577478D01*
X153040589Y-96472490D01*
X153086258Y-96372490D01*
X153098297Y-96346129D01*
X153098297Y-96346127D01*
X153098298Y-96346126D01*
X153118068Y-96208621D01*
X153098298Y-96071116D01*
X153098297Y-96071114D01*
X153098297Y-96071112D01*
X153040589Y-95944752D01*
X153040587Y-95944749D01*
X152953936Y-95844749D01*
X152949617Y-95839764D01*
X152949616Y-95839763D01*
X152949614Y-95839762D01*
X152832751Y-95764658D01*
X152699461Y-95725521D01*
X152699459Y-95725521D01*
X152560541Y-95725521D01*
X152560538Y-95725521D01*
X152427248Y-95764658D01*
X152310385Y-95839762D01*
X152310380Y-95839766D01*
X152219413Y-95944748D01*
X152219264Y-95944981D01*
X152219111Y-95945097D01*
X152215889Y-95948816D01*
X152215110Y-95948141D01*
X152178329Y-95976131D01*
X152156004Y-95979521D01*
X152144495Y-95979521D01*
X152142527Y-95979469D01*
X152100861Y-95977285D01*
X152100859Y-95977285D01*
X152077753Y-95986155D01*
X152066444Y-95989505D01*
X152042237Y-95994651D01*
X152042235Y-95994652D01*
X152035244Y-95999731D01*
X152018001Y-96009093D01*
X152009934Y-96012189D01*
X151992433Y-96029691D01*
X151983463Y-96037352D01*
X151963443Y-96051898D01*
X151963440Y-96051901D01*
X151959123Y-96059378D01*
X151947175Y-96074948D01*
X151828430Y-96193695D01*
X151781810Y-96215435D01*
X151775255Y-96215721D01*
X151423334Y-96215721D01*
X151405106Y-96218120D01*
X151377763Y-96221720D01*
X151277762Y-96268351D01*
X151277754Y-96268357D01*
X151199736Y-96346375D01*
X151199730Y-96346383D01*
X151153099Y-96446384D01*
X151147100Y-96491956D01*
X151147100Y-96885285D01*
X150972900Y-96885285D01*
X150972900Y-96491955D01*
X150966901Y-96446387D01*
X150953988Y-96418695D01*
X150920269Y-96346383D01*
X150920263Y-96346375D01*
X150842245Y-96268357D01*
X150842237Y-96268351D01*
X150742236Y-96221720D01*
X150719450Y-96218720D01*
X150696666Y-96215721D01*
X150228334Y-96215721D01*
X150210106Y-96218120D01*
X150182763Y-96221720D01*
X150082762Y-96268351D01*
X150082754Y-96268357D01*
X150004736Y-96346375D01*
X150004730Y-96346383D01*
X149958099Y-96446384D01*
X149952100Y-96491956D01*
X149952100Y-96885285D01*
X146352502Y-96885285D01*
X146141926Y-96674709D01*
X146120186Y-96628089D01*
X146119900Y-96621535D01*
X146119900Y-95258620D01*
X147501932Y-95258620D01*
X147521702Y-95396129D01*
X147579410Y-95522489D01*
X147579412Y-95522492D01*
X147670383Y-95627478D01*
X147706315Y-95650570D01*
X147787248Y-95702583D01*
X147791366Y-95703792D01*
X147920541Y-95741721D01*
X147920544Y-95741721D01*
X148059456Y-95741721D01*
X148059459Y-95741721D01*
X148192751Y-95702583D01*
X148309617Y-95627478D01*
X148400589Y-95522490D01*
X148458298Y-95396126D01*
X148478068Y-95258621D01*
X148462800Y-95152431D01*
X148473334Y-95102083D01*
X148484056Y-95088560D01*
X148662099Y-94910517D01*
X148663465Y-94909220D01*
X148694486Y-94881291D01*
X148704556Y-94858671D01*
X148710174Y-94848323D01*
X148723661Y-94827557D01*
X148725011Y-94819028D01*
X148730585Y-94800211D01*
X148734100Y-94792318D01*
X148734100Y-94767566D01*
X148735026Y-94755801D01*
X148738897Y-94731363D01*
X148738419Y-94729581D01*
X148736662Y-94723019D01*
X148734100Y-94703559D01*
X148734100Y-94658621D01*
X149291932Y-94658621D01*
X149311702Y-94796129D01*
X149369410Y-94922489D01*
X149369412Y-94922492D01*
X149460383Y-95027478D01*
X149460385Y-95027479D01*
X149577248Y-95102583D01*
X149651234Y-95124307D01*
X149710541Y-95141721D01*
X149710544Y-95141721D01*
X149849456Y-95141721D01*
X149849459Y-95141721D01*
X149982751Y-95102583D01*
X150099617Y-95027478D01*
X150190589Y-94922490D01*
X150233944Y-94827556D01*
X150248297Y-94796129D01*
X150248297Y-94796127D01*
X150248298Y-94796126D01*
X150268068Y-94658621D01*
X150252799Y-94552427D01*
X150263334Y-94502082D01*
X150274056Y-94488559D01*
X154127099Y-90635517D01*
X154128465Y-90634220D01*
X154159486Y-90606291D01*
X154169555Y-90583674D01*
X154175177Y-90573319D01*
X154188662Y-90552557D01*
X154190013Y-90544021D01*
X154195588Y-90525203D01*
X154199100Y-90517318D01*
X154199100Y-90492567D01*
X154200026Y-90480802D01*
X154203897Y-90456362D01*
X154203419Y-90454580D01*
X154201662Y-90448018D01*
X154199100Y-90428558D01*
X154199100Y-90236120D01*
X154601932Y-90236120D01*
X154621702Y-90373626D01*
X154623218Y-90378787D01*
X154622159Y-90379097D01*
X154627100Y-90401804D01*
X154627100Y-90494589D01*
X154629737Y-90517316D01*
X154630087Y-90520336D01*
X154630087Y-90520338D01*
X154676581Y-90625636D01*
X154676586Y-90625643D01*
X154757977Y-90707034D01*
X154757984Y-90707039D01*
X154847745Y-90746672D01*
X154863285Y-90753534D01*
X154889032Y-90756521D01*
X154889034Y-90756521D01*
X155290966Y-90756521D01*
X155290968Y-90756521D01*
X155316715Y-90753534D01*
X155316717Y-90753533D01*
X155325258Y-90749762D01*
X155351816Y-90738035D01*
X155422015Y-90707039D01*
X155422015Y-90707038D01*
X155422019Y-90707037D01*
X155503416Y-90625640D01*
X155521940Y-90583689D01*
X155549912Y-90520338D01*
X155549913Y-90520336D01*
X155552900Y-90494589D01*
X155552900Y-90401804D01*
X155557840Y-90379097D01*
X155556782Y-90378787D01*
X155558295Y-90373632D01*
X155558298Y-90373626D01*
X155578068Y-90236121D01*
X155558298Y-90098616D01*
X155558295Y-90098610D01*
X155556782Y-90093452D01*
X155557838Y-90093141D01*
X155552900Y-90070436D01*
X155552900Y-89977655D01*
X155552900Y-89977653D01*
X155549913Y-89951906D01*
X155546600Y-89944402D01*
X155503418Y-89846605D01*
X155503413Y-89846598D01*
X155422022Y-89765207D01*
X155422015Y-89765202D01*
X155358459Y-89737139D01*
X155321346Y-89701520D01*
X155315812Y-89650379D01*
X155344446Y-89607645D01*
X155358460Y-89599554D01*
X155421731Y-89571618D01*
X155421735Y-89571615D01*
X155502994Y-89490356D01*
X155502996Y-89490353D01*
X155549418Y-89385218D01*
X155552400Y-89359515D01*
X155552400Y-89228121D01*
X154627601Y-89228121D01*
X154627601Y-89359509D01*
X154630581Y-89385217D01*
X154677003Y-89490353D01*
X154677005Y-89490356D01*
X154758264Y-89571615D01*
X154758268Y-89571618D01*
X154821538Y-89599554D01*
X154858651Y-89635173D01*
X154864186Y-89686314D01*
X154835553Y-89729048D01*
X154821540Y-89737139D01*
X154757983Y-89765203D01*
X154757977Y-89765207D01*
X154676586Y-89846598D01*
X154676581Y-89846605D01*
X154630087Y-89951903D01*
X154630087Y-89951905D01*
X154627100Y-89977655D01*
X154627100Y-90070436D01*
X154622161Y-90093141D01*
X154623218Y-90093452D01*
X154621703Y-90098612D01*
X154621702Y-90098614D01*
X154621702Y-90098616D01*
X154606930Y-90201353D01*
X154601932Y-90236120D01*
X154199100Y-90236120D01*
X154199100Y-88974121D01*
X154627600Y-88974121D01*
X154963000Y-88974121D01*
X154963000Y-88581221D01*
X155217000Y-88581221D01*
X155217000Y-88974121D01*
X155552399Y-88974121D01*
X155552399Y-88842732D01*
X155549418Y-88817024D01*
X155502996Y-88711888D01*
X155502994Y-88711885D01*
X155421735Y-88630626D01*
X155421732Y-88630624D01*
X155316597Y-88584202D01*
X155290895Y-88581221D01*
X155217000Y-88581221D01*
X154963000Y-88581221D01*
X154889111Y-88581221D01*
X154863403Y-88584202D01*
X154758267Y-88630624D01*
X154758264Y-88630626D01*
X154677005Y-88711885D01*
X154677003Y-88711888D01*
X154630581Y-88817023D01*
X154627600Y-88842726D01*
X154627600Y-88974121D01*
X154199100Y-88974121D01*
X154199100Y-87499902D01*
X154216693Y-87451564D01*
X154252471Y-87427940D01*
X154355643Y-87396643D01*
X154355647Y-87396642D01*
X154355647Y-87396641D01*
X154355650Y-87396641D01*
X154529878Y-87303515D01*
X154682589Y-87178188D01*
X154807916Y-87025477D01*
X154901042Y-86851249D01*
X154958389Y-86662202D01*
X154977753Y-86465599D01*
X155502247Y-86465599D01*
X155521610Y-86662198D01*
X155521610Y-86662200D01*
X155578955Y-86851242D01*
X155578956Y-86851246D01*
X155672086Y-87025480D01*
X155672089Y-87025484D01*
X155797410Y-87178188D01*
X155950114Y-87303509D01*
X155950118Y-87303512D01*
X155950122Y-87303515D01*
X156084343Y-87375257D01*
X156124352Y-87396642D01*
X156124356Y-87396643D01*
X156167593Y-87409758D01*
X156313397Y-87453988D01*
X156510000Y-87473352D01*
X156706603Y-87453988D01*
X156895650Y-87396641D01*
X157069878Y-87303515D01*
X157222589Y-87178188D01*
X157347916Y-87025477D01*
X157441042Y-86851249D01*
X157498389Y-86662202D01*
X157517753Y-86465599D01*
X157498389Y-86268996D01*
X157441042Y-86079949D01*
X157347916Y-85905721D01*
X157347913Y-85905717D01*
X157347910Y-85905713D01*
X157222589Y-85753009D01*
X157069885Y-85627688D01*
X157069881Y-85627685D01*
X157069879Y-85627684D01*
X157069878Y-85627683D01*
X156935657Y-85555941D01*
X156895647Y-85534555D01*
X156895643Y-85534554D01*
X156706600Y-85477209D01*
X156534112Y-85460220D01*
X156510000Y-85457846D01*
X156509999Y-85457846D01*
X156313400Y-85477209D01*
X156313398Y-85477209D01*
X156124356Y-85534554D01*
X156124352Y-85534555D01*
X155950118Y-85627685D01*
X155950114Y-85627688D01*
X155797410Y-85753009D01*
X155672089Y-85905713D01*
X155672086Y-85905717D01*
X155578956Y-86079951D01*
X155578955Y-86079955D01*
X155521610Y-86268997D01*
X155521610Y-86268999D01*
X155502247Y-86465599D01*
X154977753Y-86465599D01*
X154958389Y-86268996D01*
X154901042Y-86079949D01*
X154807916Y-85905721D01*
X154807913Y-85905717D01*
X154807910Y-85905713D01*
X154682589Y-85753009D01*
X154529885Y-85627688D01*
X154529881Y-85627685D01*
X154529879Y-85627684D01*
X154529878Y-85627683D01*
X154395657Y-85555941D01*
X154355647Y-85534555D01*
X154355643Y-85534554D01*
X154166600Y-85477209D01*
X153970000Y-85457846D01*
X153773400Y-85477209D01*
X153773398Y-85477209D01*
X153584356Y-85534554D01*
X153584352Y-85534555D01*
X153410118Y-85627685D01*
X153410114Y-85627688D01*
X153257410Y-85753009D01*
X153132089Y-85905713D01*
X153132086Y-85905717D01*
X153038956Y-86079951D01*
X153038955Y-86079955D01*
X152981610Y-86268997D01*
X152981610Y-86268999D01*
X152962247Y-86465599D01*
X152981610Y-86662198D01*
X152981610Y-86662200D01*
X153038955Y-86851242D01*
X153038956Y-86851246D01*
X153132086Y-87025480D01*
X153132089Y-87025484D01*
X153257410Y-87178188D01*
X153410114Y-87303509D01*
X153410118Y-87303512D01*
X153410122Y-87303515D01*
X153544343Y-87375257D01*
X153584352Y-87396642D01*
X153584356Y-87396643D01*
X153687529Y-87427940D01*
X153728678Y-87458807D01*
X153740900Y-87499902D01*
X153740900Y-90342575D01*
X153723307Y-90390913D01*
X153718874Y-90395749D01*
X149950305Y-94164317D01*
X149903685Y-94186057D01*
X149875947Y-94183298D01*
X149849460Y-94175521D01*
X149849459Y-94175521D01*
X149710541Y-94175521D01*
X149710538Y-94175521D01*
X149577248Y-94214658D01*
X149460385Y-94289762D01*
X149460383Y-94289763D01*
X149369412Y-94394749D01*
X149369410Y-94394752D01*
X149311702Y-94521112D01*
X149291932Y-94658621D01*
X148734100Y-94658621D01*
X148734100Y-92529664D01*
X148751693Y-92481326D01*
X148756115Y-92476502D01*
X151587099Y-89645517D01*
X151588465Y-89644220D01*
X151619486Y-89616291D01*
X151629555Y-89593674D01*
X151635177Y-89583319D01*
X151648662Y-89562557D01*
X151650013Y-89554021D01*
X151655588Y-89535203D01*
X151659100Y-89527318D01*
X151659100Y-89502567D01*
X151660026Y-89490802D01*
X151660097Y-89490353D01*
X151663897Y-89466362D01*
X151663419Y-89464580D01*
X151661662Y-89458018D01*
X151659100Y-89438558D01*
X151659100Y-87499902D01*
X151676693Y-87451564D01*
X151712471Y-87427940D01*
X151815643Y-87396643D01*
X151815647Y-87396642D01*
X151815647Y-87396641D01*
X151815650Y-87396641D01*
X151989878Y-87303515D01*
X152142589Y-87178188D01*
X152267916Y-87025477D01*
X152361042Y-86851249D01*
X152418389Y-86662202D01*
X152437753Y-86465599D01*
X152418389Y-86268996D01*
X152361042Y-86079949D01*
X152267916Y-85905721D01*
X152267913Y-85905717D01*
X152267910Y-85905713D01*
X152142589Y-85753009D01*
X151989885Y-85627688D01*
X151989881Y-85627685D01*
X151989879Y-85627684D01*
X151989878Y-85627683D01*
X151855657Y-85555941D01*
X151815647Y-85534555D01*
X151815643Y-85534554D01*
X151626600Y-85477209D01*
X151454112Y-85460220D01*
X151430000Y-85457846D01*
X151429999Y-85457846D01*
X151233400Y-85477209D01*
X151233398Y-85477209D01*
X151044356Y-85534554D01*
X151044352Y-85534555D01*
X150870118Y-85627685D01*
X150870114Y-85627688D01*
X150717410Y-85753009D01*
X150592089Y-85905713D01*
X150592086Y-85905717D01*
X150498956Y-86079951D01*
X150498955Y-86079955D01*
X150441610Y-86268997D01*
X150441610Y-86268999D01*
X150422247Y-86465598D01*
X150441610Y-86662198D01*
X150441610Y-86662200D01*
X150498955Y-86851242D01*
X150498956Y-86851246D01*
X150592086Y-87025480D01*
X150592089Y-87025484D01*
X150717410Y-87178188D01*
X150870114Y-87303509D01*
X150870118Y-87303512D01*
X150870122Y-87303515D01*
X151004343Y-87375257D01*
X151044352Y-87396642D01*
X151044356Y-87396643D01*
X151147529Y-87427940D01*
X151188678Y-87458807D01*
X151200900Y-87499902D01*
X151200900Y-89352575D01*
X151183307Y-89400913D01*
X151178874Y-89405749D01*
X148347936Y-92236687D01*
X148346509Y-92238041D01*
X148315514Y-92265950D01*
X148315512Y-92265954D01*
X148305446Y-92288560D01*
X148299821Y-92298921D01*
X148286338Y-92319686D01*
X148284986Y-92328220D01*
X148279414Y-92347030D01*
X148275900Y-92354924D01*
X148275900Y-92379674D01*
X148274974Y-92391439D01*
X148271103Y-92415877D01*
X148271103Y-92415878D01*
X148273337Y-92424215D01*
X148275900Y-92443680D01*
X148275900Y-94617576D01*
X148258307Y-94665914D01*
X148253884Y-94670739D01*
X148201622Y-94723002D01*
X148160305Y-94764319D01*
X148113685Y-94786058D01*
X148085946Y-94783298D01*
X148059459Y-94775521D01*
X147920541Y-94775521D01*
X147920538Y-94775521D01*
X147787248Y-94814658D01*
X147670385Y-94889762D01*
X147670383Y-94889763D01*
X147579412Y-94994749D01*
X147579410Y-94994752D01*
X147521702Y-95121112D01*
X147501932Y-95258620D01*
X146119900Y-95258620D01*
X146119900Y-94764064D01*
X146137493Y-94715726D01*
X146154444Y-94700802D01*
X146159617Y-94697478D01*
X146250589Y-94592490D01*
X146308298Y-94466126D01*
X146328068Y-94328621D01*
X146308298Y-94191116D01*
X146308297Y-94191114D01*
X146308297Y-94191112D01*
X146250589Y-94064752D01*
X146250587Y-94064749D01*
X146159616Y-93959763D01*
X146159614Y-93959762D01*
X146042751Y-93884658D01*
X145909461Y-93845521D01*
X145909459Y-93845521D01*
X145770541Y-93845521D01*
X145770538Y-93845521D01*
X145637248Y-93884658D01*
X145520385Y-93959762D01*
X145520383Y-93959763D01*
X145429412Y-94064749D01*
X145429410Y-94064752D01*
X145371702Y-94191112D01*
X145351932Y-94328621D01*
X145358168Y-94371998D01*
X145347632Y-94422348D01*
X145336907Y-94435873D01*
X142860538Y-96912243D01*
X142851015Y-96919100D01*
X142851460Y-96919689D01*
X142845901Y-96923886D01*
X142815585Y-96957140D01*
X142814388Y-96958394D01*
X142801240Y-96971543D01*
X142801237Y-96971547D01*
X142799039Y-96974755D01*
X142795807Y-96978835D01*
X142775404Y-97001217D01*
X142775400Y-97001223D01*
X142771379Y-97011601D01*
X142763302Y-97026924D01*
X142757014Y-97036103D01*
X142757013Y-97036106D01*
X142750081Y-97065582D01*
X142748539Y-97070560D01*
X142737600Y-97098799D01*
X142737600Y-97109924D01*
X142735603Y-97127139D01*
X142733056Y-97137968D01*
X142733056Y-97137971D01*
X142737239Y-97167957D01*
X142737600Y-97173158D01*
X142737600Y-97847802D01*
X142720007Y-97896140D01*
X142692776Y-97916594D01*
X142627983Y-97945203D01*
X142627977Y-97945207D01*
X142546586Y-98026598D01*
X142546582Y-98026604D01*
X142518518Y-98090162D01*
X142482899Y-98127274D01*
X142431757Y-98132808D01*
X142389024Y-98104174D01*
X142380933Y-98090160D01*
X142352997Y-98026889D01*
X142352994Y-98026885D01*
X142271735Y-97945626D01*
X142271732Y-97945624D01*
X142166597Y-97899202D01*
X142140895Y-97896221D01*
X142009500Y-97896221D01*
X142009500Y-98410421D01*
X141991907Y-98458759D01*
X141947358Y-98484479D01*
X141934300Y-98485621D01*
X141362601Y-98485621D01*
X141362601Y-98559509D01*
X141365581Y-98585217D01*
X141412003Y-98690353D01*
X141412005Y-98690356D01*
X141493264Y-98771615D01*
X141493271Y-98771620D01*
X141525838Y-98786000D01*
X141562951Y-98821619D01*
X141568485Y-98872760D01*
X141539851Y-98915494D01*
X141527244Y-98922946D01*
X141472762Y-98948351D01*
X141472754Y-98948357D01*
X141394736Y-99026375D01*
X141394730Y-99026383D01*
X141348099Y-99126384D01*
X141342100Y-99171956D01*
X141342100Y-99523875D01*
X141324507Y-99572213D01*
X141320074Y-99577049D01*
X139992936Y-100904187D01*
X139991509Y-100905541D01*
X139960514Y-100933450D01*
X139960512Y-100933454D01*
X139950446Y-100956060D01*
X139944821Y-100966421D01*
X139931338Y-100987186D01*
X139929986Y-100995720D01*
X139924414Y-101014530D01*
X139920900Y-101022424D01*
X139920900Y-101047174D01*
X139919974Y-101058939D01*
X139916103Y-101083377D01*
X139916103Y-101083378D01*
X138069239Y-101083378D01*
X139980662Y-99171955D01*
X140920996Y-98231621D01*
X141362600Y-98231621D01*
X141755500Y-98231621D01*
X141755500Y-97896221D01*
X141624111Y-97896221D01*
X141598403Y-97899202D01*
X141493267Y-97945624D01*
X141493264Y-97945626D01*
X141412005Y-98026885D01*
X141412003Y-98026888D01*
X141365581Y-98132023D01*
X141362600Y-98157726D01*
X141362600Y-98231621D01*
X140920996Y-98231621D01*
X147957099Y-91195517D01*
X147958465Y-91194220D01*
X147989486Y-91166291D01*
X147999556Y-91143671D01*
X148005174Y-91133323D01*
X148018661Y-91112557D01*
X148020011Y-91104028D01*
X148025585Y-91085211D01*
X148029100Y-91077318D01*
X148029100Y-91052566D01*
X148030026Y-91040801D01*
X148033897Y-91016363D01*
X148033419Y-91014581D01*
X148031662Y-91008019D01*
X148029100Y-90988559D01*
X148029100Y-87207640D01*
X148046693Y-87159302D01*
X148091242Y-87133582D01*
X148141900Y-87142515D01*
X148162428Y-87159932D01*
X148167841Y-87166527D01*
X148177413Y-87178191D01*
X148330114Y-87303509D01*
X148330118Y-87303512D01*
X148330122Y-87303515D01*
X148464343Y-87375257D01*
X148504352Y-87396642D01*
X148504356Y-87396643D01*
X148547593Y-87409758D01*
X148693397Y-87453988D01*
X148890000Y-87473352D01*
X149086603Y-87453988D01*
X149275650Y-87396641D01*
X149449878Y-87303515D01*
X149602589Y-87178188D01*
X149727916Y-87025477D01*
X149821042Y-86851249D01*
X149878389Y-86662202D01*
X149897753Y-86465599D01*
X149878389Y-86268996D01*
X149821042Y-86079949D01*
X149727916Y-85905721D01*
X149727913Y-85905717D01*
X149727910Y-85905713D01*
X149602589Y-85753009D01*
X149449885Y-85627688D01*
X149449881Y-85627685D01*
X149449879Y-85627684D01*
X149449878Y-85627683D01*
X149315657Y-85555941D01*
X149275647Y-85534555D01*
X149275643Y-85534554D01*
X149086600Y-85477209D01*
X148890000Y-85457846D01*
X148693400Y-85477209D01*
X148693398Y-85477209D01*
X148504356Y-85534554D01*
X148504352Y-85534555D01*
X148330118Y-85627685D01*
X148330114Y-85627688D01*
X148177412Y-85753007D01*
X148162430Y-85771264D01*
X148118165Y-85797468D01*
X148067412Y-85789088D01*
X148033920Y-85750046D01*
X148029100Y-85723557D01*
X148029100Y-85141643D01*
X148046693Y-85093305D01*
X148051114Y-85088480D01*
X148320635Y-84818959D01*
X148367254Y-84797220D01*
X148409257Y-84805813D01*
X148504352Y-84856642D01*
X148504356Y-84856643D01*
X148522916Y-84862273D01*
X148693397Y-84913988D01*
X148890000Y-84933352D01*
X149086603Y-84913988D01*
X149275650Y-84856641D01*
X149449878Y-84763515D01*
X149602589Y-84638188D01*
X149727916Y-84485477D01*
X149821042Y-84311249D01*
X149878389Y-84122202D01*
X149885244Y-84052599D01*
X150435258Y-84052599D01*
X150442103Y-84122100D01*
X150442103Y-84122102D01*
X150499419Y-84311050D01*
X150499424Y-84311062D01*
X150592499Y-84485192D01*
X150592503Y-84485198D01*
X150717766Y-84637832D01*
X150870400Y-84763095D01*
X150870406Y-84763099D01*
X151044536Y-84856174D01*
X151044548Y-84856179D01*
X151233497Y-84913495D01*
X151303000Y-84920340D01*
X151303000Y-84412480D01*
X151394237Y-84425599D01*
X151465763Y-84425599D01*
X151557000Y-84412480D01*
X151557000Y-84920339D01*
X151626502Y-84913495D01*
X151815451Y-84856179D01*
X151815463Y-84856174D01*
X151989593Y-84763099D01*
X151989599Y-84763095D01*
X152142233Y-84637832D01*
X152267496Y-84485198D01*
X152267500Y-84485192D01*
X152360575Y-84311062D01*
X152360580Y-84311050D01*
X152417896Y-84122102D01*
X152417896Y-84122100D01*
X152424741Y-84052599D01*
X152975258Y-84052599D01*
X152982103Y-84122100D01*
X152982103Y-84122102D01*
X153039419Y-84311050D01*
X153039424Y-84311062D01*
X153132499Y-84485192D01*
X153132503Y-84485198D01*
X153257766Y-84637832D01*
X153410400Y-84763095D01*
X153410406Y-84763099D01*
X153584536Y-84856174D01*
X153584548Y-84856179D01*
X153773497Y-84913495D01*
X153843000Y-84920340D01*
X153843000Y-84412480D01*
X153934237Y-84425599D01*
X154005763Y-84425599D01*
X154097000Y-84412480D01*
X154097000Y-84920339D01*
X154166502Y-84913495D01*
X154355451Y-84856179D01*
X154355463Y-84856174D01*
X154529593Y-84763099D01*
X154529599Y-84763095D01*
X154682233Y-84637832D01*
X154807496Y-84485198D01*
X154807500Y-84485192D01*
X154900575Y-84311062D01*
X154900580Y-84311050D01*
X154957896Y-84122102D01*
X154957896Y-84122100D01*
X154964741Y-84052599D01*
X154453818Y-84052599D01*
X154470000Y-83997488D01*
X154470000Y-83925598D01*
X155502247Y-83925598D01*
X155521610Y-84122198D01*
X155521610Y-84122200D01*
X155578955Y-84311242D01*
X155578956Y-84311246D01*
X155672086Y-84485480D01*
X155672089Y-84485484D01*
X155797410Y-84638188D01*
X155950114Y-84763509D01*
X155950118Y-84763512D01*
X155950122Y-84763515D01*
X156093531Y-84840168D01*
X156124352Y-84856642D01*
X156124356Y-84856643D01*
X156142916Y-84862273D01*
X156313397Y-84913988D01*
X156510000Y-84933352D01*
X156706603Y-84913988D01*
X156895650Y-84856641D01*
X157069878Y-84763515D01*
X157222589Y-84638188D01*
X157347916Y-84485477D01*
X157441042Y-84311249D01*
X157498389Y-84122202D01*
X157517753Y-83925599D01*
X157498389Y-83728996D01*
X157441102Y-83540147D01*
X157441044Y-83539955D01*
X157441043Y-83539951D01*
X157420035Y-83500647D01*
X157347916Y-83365721D01*
X157347913Y-83365717D01*
X157347910Y-83365713D01*
X157222589Y-83213009D01*
X157069885Y-83087688D01*
X157069881Y-83087685D01*
X157069879Y-83087684D01*
X157069878Y-83087683D01*
X156982764Y-83041120D01*
X156895647Y-82994555D01*
X156895643Y-82994554D01*
X156706600Y-82937209D01*
X156534112Y-82920220D01*
X156510000Y-82917846D01*
X156509999Y-82917846D01*
X156313400Y-82937209D01*
X156313398Y-82937209D01*
X156124356Y-82994554D01*
X156124352Y-82994555D01*
X155950118Y-83087685D01*
X155950114Y-83087688D01*
X155797410Y-83213009D01*
X155672089Y-83365713D01*
X155672086Y-83365717D01*
X155578956Y-83539951D01*
X155578955Y-83539955D01*
X155521610Y-83728997D01*
X155521610Y-83728999D01*
X155502247Y-83925598D01*
X154470000Y-83925598D01*
X154470000Y-83853710D01*
X154453818Y-83798599D01*
X154964742Y-83798599D01*
X154964741Y-83798598D01*
X154957896Y-83729097D01*
X154957896Y-83729095D01*
X154900580Y-83540147D01*
X154900575Y-83540135D01*
X154807500Y-83366005D01*
X154807496Y-83365999D01*
X154682233Y-83213365D01*
X154529599Y-83088102D01*
X154529593Y-83088098D01*
X154355463Y-82995023D01*
X154355451Y-82995018D01*
X154166502Y-82937702D01*
X154097000Y-82930857D01*
X154097000Y-83438717D01*
X154005763Y-83425599D01*
X153934237Y-83425599D01*
X153843000Y-83438717D01*
X153843000Y-82930857D01*
X153842999Y-82930857D01*
X153773498Y-82937702D01*
X153773496Y-82937702D01*
X153584548Y-82995018D01*
X153584536Y-82995023D01*
X153410406Y-83088098D01*
X153410400Y-83088102D01*
X153257766Y-83213365D01*
X153132503Y-83365999D01*
X153132499Y-83366005D01*
X153039424Y-83540135D01*
X153039419Y-83540147D01*
X152982103Y-83729095D01*
X152982103Y-83729097D01*
X152975258Y-83798598D01*
X152975258Y-83798599D01*
X153486182Y-83798599D01*
X153470000Y-83853710D01*
X153470000Y-83997488D01*
X153486182Y-84052599D01*
X152975258Y-84052599D01*
X152424741Y-84052599D01*
X151913818Y-84052599D01*
X151930000Y-83997488D01*
X151930000Y-83853710D01*
X151913818Y-83798599D01*
X152424742Y-83798599D01*
X152424741Y-83798598D01*
X152417896Y-83729097D01*
X152417896Y-83729095D01*
X152360580Y-83540147D01*
X152360575Y-83540135D01*
X152267500Y-83366005D01*
X152267496Y-83365999D01*
X152142233Y-83213365D01*
X151989599Y-83088102D01*
X151989593Y-83088098D01*
X151815463Y-82995023D01*
X151815451Y-82995018D01*
X151626502Y-82937702D01*
X151557000Y-82930857D01*
X151557000Y-83438717D01*
X151465763Y-83425599D01*
X151394237Y-83425599D01*
X151303000Y-83438717D01*
X151303000Y-82930857D01*
X151302999Y-82930857D01*
X151233498Y-82937702D01*
X151233496Y-82937702D01*
X151044548Y-82995018D01*
X151044536Y-82995023D01*
X150870406Y-83088098D01*
X150870400Y-83088102D01*
X150717766Y-83213365D01*
X150592503Y-83365999D01*
X150592499Y-83366005D01*
X150499424Y-83540135D01*
X150499419Y-83540147D01*
X150442103Y-83729095D01*
X150442103Y-83729097D01*
X150435258Y-83798598D01*
X150435258Y-83798599D01*
X150946182Y-83798599D01*
X150930000Y-83853710D01*
X150930000Y-83997488D01*
X150946182Y-84052599D01*
X150435258Y-84052599D01*
X149885244Y-84052599D01*
X149897753Y-83925599D01*
X149878389Y-83728996D01*
X149821102Y-83540147D01*
X149821044Y-83539955D01*
X149821043Y-83539951D01*
X149800035Y-83500647D01*
X149727916Y-83365721D01*
X149727913Y-83365717D01*
X149727910Y-83365713D01*
X149602589Y-83213009D01*
X149449885Y-83087688D01*
X149449881Y-83087685D01*
X149449879Y-83087684D01*
X149449878Y-83087683D01*
X149362764Y-83041120D01*
X149275647Y-82994555D01*
X149275643Y-82994554D01*
X149086600Y-82937209D01*
X148890000Y-82917846D01*
X148693400Y-82937209D01*
X148693398Y-82937209D01*
X148504356Y-82994554D01*
X148504352Y-82994555D01*
X148330118Y-83087685D01*
X148330114Y-83087688D01*
X148177410Y-83213009D01*
X148052089Y-83365713D01*
X148052086Y-83365717D01*
X147958956Y-83539951D01*
X147958955Y-83539955D01*
X147901610Y-83728997D01*
X147901610Y-83728999D01*
X147882247Y-83925598D01*
X147901610Y-84122198D01*
X147901610Y-84122200D01*
X147958955Y-84311242D01*
X147958958Y-84311250D01*
X148009784Y-84406341D01*
X148017053Y-84457264D01*
X147996639Y-84494962D01*
X147673172Y-84818428D01*
X147626553Y-84840168D01*
X147576866Y-84826854D01*
X147566825Y-84818428D01*
X147243361Y-84494964D01*
X147221621Y-84448344D01*
X147230214Y-84406341D01*
X147230216Y-84406338D01*
X147281042Y-84311249D01*
X147338389Y-84122202D01*
X147357753Y-83925599D01*
X147338389Y-83728996D01*
X147281102Y-83540147D01*
X147281044Y-83539955D01*
X147281043Y-83539951D01*
X147260035Y-83500647D01*
X147187916Y-83365721D01*
X147187913Y-83365717D01*
X147187910Y-83365713D01*
X147062589Y-83213009D01*
X146909885Y-83087688D01*
X146909881Y-83087685D01*
X146909879Y-83087684D01*
X146909878Y-83087683D01*
X146822764Y-83041120D01*
X146735647Y-82994555D01*
X146735643Y-82994554D01*
X146546600Y-82937209D01*
X146374112Y-82920220D01*
X146350000Y-82917846D01*
X146349999Y-82917846D01*
X146153400Y-82937209D01*
X146153398Y-82937209D01*
X145964356Y-82994554D01*
X145964352Y-82994555D01*
X145790118Y-83087685D01*
X145790114Y-83087688D01*
X145637410Y-83213009D01*
X145512089Y-83365713D01*
X145512086Y-83365717D01*
X145418956Y-83539951D01*
X145418955Y-83539955D01*
X145361610Y-83728997D01*
X145361610Y-83728999D01*
X145342247Y-83925598D01*
X145361610Y-84122198D01*
X145361610Y-84122200D01*
X145418955Y-84311242D01*
X145418956Y-84311246D01*
X145512086Y-84485480D01*
X145512089Y-84485484D01*
X145637410Y-84638188D01*
X145790114Y-84763509D01*
X145790118Y-84763512D01*
X145790122Y-84763515D01*
X145933531Y-84840168D01*
X145964352Y-84856642D01*
X145964356Y-84856643D01*
X145982916Y-84862273D01*
X146153397Y-84913988D01*
X146350000Y-84933352D01*
X146546603Y-84913988D01*
X146735650Y-84856641D01*
X146830743Y-84805812D01*
X146881666Y-84798543D01*
X146919365Y-84818960D01*
X147218874Y-85118469D01*
X147240614Y-85165089D01*
X147240900Y-85171643D01*
X147240900Y-85760112D01*
X147223307Y-85808450D01*
X147178758Y-85834170D01*
X147128100Y-85825237D01*
X147107570Y-85807819D01*
X147091434Y-85788158D01*
X147062589Y-85753010D01*
X147062587Y-85753008D01*
X147062586Y-85753007D01*
X146909885Y-85627688D01*
X146909881Y-85627685D01*
X146909879Y-85627684D01*
X146909878Y-85627683D01*
X146775657Y-85555941D01*
X146735647Y-85534555D01*
X146735643Y-85534554D01*
X146546600Y-85477209D01*
X146374112Y-85460220D01*
X146350000Y-85457846D01*
X146349999Y-85457846D01*
X146153400Y-85477209D01*
X146153398Y-85477209D01*
X145964356Y-85534554D01*
X145964352Y-85534555D01*
X145790118Y-85627685D01*
X145790114Y-85627688D01*
X145637410Y-85753009D01*
X145512089Y-85905713D01*
X145512086Y-85905717D01*
X145512083Y-85905721D01*
X145512084Y-85905721D01*
X145489569Y-85947845D01*
X145470621Y-85983294D01*
X145432318Y-86017630D01*
X145380906Y-86019314D01*
X145340440Y-85987556D01*
X145329100Y-85947845D01*
X145329100Y-85222572D01*
X145329152Y-85220604D01*
X145331334Y-85178959D01*
X145322467Y-85155860D01*
X145319116Y-85144546D01*
X145313970Y-85120339D01*
X145313969Y-85120334D01*
X145308892Y-85113346D01*
X145299524Y-85096090D01*
X145296432Y-85088034D01*
X145296431Y-85088032D01*
X145278932Y-85070533D01*
X145271269Y-85061562D01*
X145256722Y-85041541D01*
X145249241Y-85037222D01*
X145233671Y-85025273D01*
X144703360Y-84494962D01*
X144681620Y-84448342D01*
X144690212Y-84406342D01*
X144741042Y-84311249D01*
X144798389Y-84122202D01*
X144817753Y-83925599D01*
X144798389Y-83728996D01*
X144741102Y-83540147D01*
X144741044Y-83539955D01*
X144741043Y-83539951D01*
X144720035Y-83500647D01*
X144647916Y-83365721D01*
X144647913Y-83365717D01*
X144647910Y-83365713D01*
X144522589Y-83213009D01*
X144369885Y-83087688D01*
X144369881Y-83087685D01*
X144369879Y-83087684D01*
X144369878Y-83087683D01*
X144282764Y-83041120D01*
X144195647Y-82994555D01*
X144195643Y-82994554D01*
X144006600Y-82937209D01*
X143810000Y-82917846D01*
X143613400Y-82937209D01*
X143613398Y-82937209D01*
X143424356Y-82994554D01*
X143424352Y-82994555D01*
X143250118Y-83087685D01*
X143250114Y-83087688D01*
X143097410Y-83213009D01*
X142972089Y-83365713D01*
X142972086Y-83365717D01*
X142878956Y-83539951D01*
X142878955Y-83539955D01*
X142821610Y-83728997D01*
X142821610Y-83728999D01*
X142802247Y-83925598D01*
X142821610Y-84122198D01*
X142821610Y-84122200D01*
X142878955Y-84311242D01*
X142878956Y-84311246D01*
X142972086Y-84485480D01*
X142972089Y-84485484D01*
X143097410Y-84638188D01*
X143250114Y-84763509D01*
X143250118Y-84763512D01*
X143250122Y-84763515D01*
X143393531Y-84840168D01*
X143424352Y-84856642D01*
X143424356Y-84856643D01*
X143442916Y-84862273D01*
X143613397Y-84913988D01*
X143810000Y-84933352D01*
X144006603Y-84913988D01*
X144195650Y-84856641D01*
X144290743Y-84805812D01*
X144341666Y-84798543D01*
X144379365Y-84818960D01*
X144848874Y-85288469D01*
X144870614Y-85335088D01*
X144870900Y-85341642D01*
X144870900Y-85431938D01*
X144853307Y-85480276D01*
X144808758Y-85505996D01*
X144758100Y-85497063D01*
X144753922Y-85494465D01*
X144719660Y-85471572D01*
X144719656Y-85471570D01*
X144675057Y-85462699D01*
X142944944Y-85462699D01*
X142944942Y-85462700D01*
X142900340Y-85471571D01*
X142849767Y-85505363D01*
X142815972Y-85555941D01*
X142815971Y-85555942D01*
X142807100Y-85600541D01*
X142807100Y-87113353D01*
X142789507Y-87161691D01*
X142785074Y-87166527D01*
X134110975Y-95840627D01*
X134110973Y-95840629D01*
X133502936Y-96448665D01*
X133501509Y-96450019D01*
X133470514Y-96477928D01*
X133470512Y-96477932D01*
X133460446Y-96500538D01*
X133454821Y-96510899D01*
X133441338Y-96531664D01*
X133439986Y-96540198D01*
X133434414Y-96559008D01*
X133430900Y-96566901D01*
X133430899Y-96566903D01*
X133430899Y-96591650D01*
X133429974Y-96603408D01*
X133428192Y-96614662D01*
X133426103Y-96627857D01*
X133428337Y-96636196D01*
X133430900Y-96655658D01*
X133430900Y-100900530D01*
X133413307Y-100948868D01*
X133396356Y-100963792D01*
X133340385Y-100999762D01*
X133340383Y-100999763D01*
X133249412Y-101104749D01*
X133249410Y-101104752D01*
X133191702Y-101231112D01*
X133171932Y-101368621D01*
X130465300Y-101368621D01*
X130465300Y-100988633D01*
X131032600Y-100988633D01*
X131041441Y-101033083D01*
X131041442Y-101033085D01*
X131075126Y-101083494D01*
X131125535Y-101117178D01*
X131125537Y-101117179D01*
X131169987Y-101126021D01*
X131733000Y-101126021D01*
X131733000Y-100682842D01*
X131734852Y-100683786D01*
X131828519Y-100698621D01*
X131891481Y-100698621D01*
X131985148Y-100683786D01*
X131987000Y-100682842D01*
X131987000Y-101126021D01*
X132550013Y-101126021D01*
X132594462Y-101117179D01*
X132594464Y-101117178D01*
X132644873Y-101083494D01*
X132678557Y-101033085D01*
X132678558Y-101033083D01*
X132687400Y-100988633D01*
X132687400Y-100425621D01*
X132244221Y-100425621D01*
X132245165Y-100423769D01*
X132264986Y-100298621D01*
X132245165Y-100173473D01*
X132244221Y-100171621D01*
X132687400Y-100171621D01*
X132687400Y-99608608D01*
X132678558Y-99564158D01*
X132678557Y-99564156D01*
X132644873Y-99513747D01*
X132594464Y-99480063D01*
X132594462Y-99480062D01*
X132550013Y-99471221D01*
X131987000Y-99471221D01*
X131987000Y-99914399D01*
X131985148Y-99913456D01*
X131891481Y-99898621D01*
X131828519Y-99898621D01*
X131734852Y-99913456D01*
X131733000Y-99914399D01*
X131733000Y-99471221D01*
X131169987Y-99471221D01*
X131125537Y-99480062D01*
X131125535Y-99480063D01*
X131075126Y-99513747D01*
X131041442Y-99564156D01*
X131041441Y-99564158D01*
X131032600Y-99608608D01*
X131032600Y-100171621D01*
X131475779Y-100171621D01*
X131474835Y-100173473D01*
X131455014Y-100298621D01*
X131474835Y-100423769D01*
X131475779Y-100425621D01*
X131032600Y-100425621D01*
X131032600Y-100988633D01*
X130465300Y-100988633D01*
X130465300Y-98298621D01*
X131027540Y-98298621D01*
X131045731Y-98471699D01*
X131045731Y-98471700D01*
X131099507Y-98637208D01*
X131099510Y-98637215D01*
X131186523Y-98787925D01*
X131186524Y-98787927D01*
X131301387Y-98915494D01*
X131302976Y-98917259D01*
X131443770Y-99019553D01*
X131602756Y-99090338D01*
X131772984Y-99126521D01*
X131772986Y-99126521D01*
X131947014Y-99126521D01*
X131947016Y-99126521D01*
X132117244Y-99090338D01*
X132276230Y-99019553D01*
X132417024Y-98917259D01*
X132533474Y-98787929D01*
X132620490Y-98637213D01*
X132623783Y-98627080D01*
X132658684Y-98519664D01*
X132674269Y-98471699D01*
X132692460Y-98298621D01*
X132674269Y-98125543D01*
X132656342Y-98070371D01*
X132620492Y-97960033D01*
X132620489Y-97960026D01*
X132533476Y-97809316D01*
X132533475Y-97809314D01*
X132417024Y-97679983D01*
X132357715Y-97636892D01*
X132276230Y-97577689D01*
X132276229Y-97577688D01*
X132276227Y-97577687D01*
X132117245Y-97506904D01*
X132060501Y-97494842D01*
X131947016Y-97470721D01*
X131772984Y-97470721D01*
X131687869Y-97488812D01*
X131602754Y-97506904D01*
X131443772Y-97577687D01*
X131302975Y-97679983D01*
X131186524Y-97809314D01*
X131186523Y-97809316D01*
X131099510Y-97960026D01*
X131099507Y-97960033D01*
X131045731Y-98125541D01*
X131045731Y-98125542D01*
X131027540Y-98298620D01*
X131027540Y-98298621D01*
X130465300Y-98298621D01*
X130465300Y-89712306D01*
X130749884Y-89712306D01*
X130769115Y-89944398D01*
X130769115Y-89944400D01*
X130769116Y-89944402D01*
X130808169Y-90098616D01*
X130826288Y-90170168D01*
X130826290Y-90170175D01*
X130919839Y-90383444D01*
X130919840Y-90383448D01*
X131047218Y-90578414D01*
X131204951Y-90749758D01*
X131204955Y-90749762D01*
X131388741Y-90892808D01*
X131583969Y-90998460D01*
X131593563Y-91003652D01*
X131813837Y-91079272D01*
X132043554Y-91117605D01*
X132043557Y-91117605D01*
X132276443Y-91117605D01*
X132276446Y-91117605D01*
X132506163Y-91079272D01*
X132726437Y-91003652D01*
X132931260Y-90892807D01*
X133115046Y-90749761D01*
X133272780Y-90578416D01*
X133400160Y-90383446D01*
X133493712Y-90170169D01*
X133550884Y-89944402D01*
X133568729Y-89729048D01*
X133570116Y-89712306D01*
X133570116Y-89712303D01*
X133557708Y-89562558D01*
X133550884Y-89480208D01*
X133493712Y-89254441D01*
X133400160Y-89041164D01*
X133400159Y-89041163D01*
X133400159Y-89041161D01*
X133272781Y-88846195D01*
X133115048Y-88674851D01*
X133115044Y-88674847D01*
X132931258Y-88531801D01*
X132726442Y-88420960D01*
X132726440Y-88420959D01*
X132648205Y-88394101D01*
X132506163Y-88345338D01*
X132506159Y-88345337D01*
X132506155Y-88345336D01*
X132276449Y-88307005D01*
X132276446Y-88307005D01*
X132043554Y-88307005D01*
X132043550Y-88307005D01*
X131813844Y-88345336D01*
X131813834Y-88345339D01*
X131593559Y-88420959D01*
X131593557Y-88420960D01*
X131388741Y-88531801D01*
X131204955Y-88674847D01*
X131204951Y-88674851D01*
X131047218Y-88846195D01*
X130919840Y-89041161D01*
X130919839Y-89041165D01*
X130826290Y-89254434D01*
X130826288Y-89254441D01*
X130769116Y-89480208D01*
X130769115Y-89480211D01*
X130749884Y-89712303D01*
X130749884Y-89712306D01*
X130465300Y-89712306D01*
X130465300Y-88777286D01*
X130482893Y-88728948D01*
X130502897Y-88712163D01*
X146770596Y-79320001D01*
X148749884Y-79320001D01*
X148769115Y-79552093D01*
X148769116Y-79552096D01*
X148826288Y-79777863D01*
X148826290Y-79777870D01*
X148919839Y-79991139D01*
X148919840Y-79991143D01*
X149047218Y-80186109D01*
X149204951Y-80357453D01*
X149204955Y-80357457D01*
X149388741Y-80500503D01*
X149593557Y-80611344D01*
X149593563Y-80611347D01*
X149813837Y-80686967D01*
X150043554Y-80725300D01*
X150043557Y-80725300D01*
X150276443Y-80725300D01*
X150276446Y-80725300D01*
X150506163Y-80686967D01*
X150726437Y-80611347D01*
X150931260Y-80500502D01*
X151115046Y-80357456D01*
X151272780Y-80186111D01*
X151400160Y-79991141D01*
X151493712Y-79777864D01*
X151550884Y-79552097D01*
X151570116Y-79320000D01*
X151550884Y-79087903D01*
X151493712Y-78862136D01*
X151400160Y-78648859D01*
X151400159Y-78648858D01*
X151400159Y-78648856D01*
X151272781Y-78453890D01*
X151115048Y-78282546D01*
X151115044Y-78282542D01*
X150931258Y-78139496D01*
X150726442Y-78028655D01*
X150726440Y-78028654D01*
X150707255Y-78022068D01*
X150506163Y-77953033D01*
X150506159Y-77953032D01*
X150506155Y-77953031D01*
X150276449Y-77914700D01*
X150276446Y-77914700D01*
X150043554Y-77914700D01*
X150043550Y-77914700D01*
X149813844Y-77953031D01*
X149813834Y-77953034D01*
X149593559Y-78028654D01*
X149593557Y-78028655D01*
X149388741Y-78139496D01*
X149204955Y-78282542D01*
X149204951Y-78282546D01*
X149047218Y-78453890D01*
X148919840Y-78648856D01*
X148919839Y-78648860D01*
X148826290Y-78862129D01*
X148826288Y-78862136D01*
X148769116Y-79087903D01*
X148769115Y-79087906D01*
X148749884Y-79319998D01*
X148749884Y-79320001D01*
X146770596Y-79320001D01*
X150122399Y-77384836D01*
X150173057Y-77375904D01*
X150197597Y-77384836D01*
G37*
%TD.AperFunction*%
%TD*%
M02*
