M48
; DRILL file {KiCad 7.0.5} date Wed Jan 17 11:16:10 2024
; FORMAT={-:-/ absolute / inch / decimal}
; #@! TF.CreationDate,2024-01-17T11:16:10-05:00
; #@! TF.GenerationSoftware,Kicad,Pcbnew,7.0.5
; #@! TF.FileFunction,Plated,1,2,PTH
FMAT,2
INCH
; #@! TA.AperFunction,Plated,PTH,ViaDrill
T1C0.0130
; #@! TA.AperFunction,Plated,PTH,ComponentDrill
T2C0.0315
; #@! TA.AperFunction,Plated,PTH,ComponentDrill
T3C0.0394
%
G90
G05
T1
X5.1638Y-4.0629
X5.1638Y-4.1417
X5.1638Y-4.2204
X5.1835Y-3.6496
X5.2189Y-4.0314
X5.2189Y-4.1102
X5.2189Y-4.1889
X5.2189Y-4.2677
X5.2425Y-3.6496
X5.2622Y-3.9909
X5.2819Y-3.4527
X5.2917Y-4.0519
X5.2976Y-4.1236
X5.2976Y-4.1889
X5.2976Y-4.2677
X5.2976Y-4.3464
X5.2976Y-4.4251
X5.3016Y-3.5118
X5.3016Y-3.5905
X5.3764Y-4.2677
X5.3764Y-4.3464
X5.3764Y-4.4251
X5.4118Y-4.0385
X5.4161Y-4.0716
X5.4197Y-3.3543
X5.4551Y-4.5039
X5.4591Y-3.4133
X5.461Y-3.7263
X5.485Y-3.8228
X5.502Y-4.3787
X5.5287Y-3.7838
X5.5339Y-4.5826
X5.5378Y-3.4527
X5.5429Y-3.9964
X5.5571Y-4.0649
X5.5575Y-3.2952
X5.5677Y-4.435
X5.5847Y-3.9122
X5.587Y-4.3787
X5.6044Y-4.1007
X5.6318Y-3.9122
X5.6398Y-4.3964
X5.6445Y-4.248
X5.6461Y-3.994
X5.6461Y-4.0531
X5.6831Y-3.9716
X5.7Y-4.3653
X5.715Y-3.2362
X5.715Y-4.6535
X5.7248Y-4.0334
X5.7248Y-4.0925
X5.726Y-3.937
X5.7417Y-3.7137
X5.7657Y-4.3897
X5.7799Y-4.2184
X5.7937Y-3.1574
X5.7937Y-3.2362
X5.7937Y-4.6535
X5.7937Y-4.7322
X5.8198Y-3.857
X5.8217Y-4.3897
X5.8264Y-3.7503
X5.8528Y-3.807
X5.8598Y-4.1122
X5.8598Y-4.1614
X5.8724Y-3.2362
X5.8724Y-4.6535
X5.8862Y-4.3413
X5.8866Y-4.3913
X5.887Y-3.9165
X5.887Y-3.9511
X5.8969Y-3.7267
X5.9185Y-4.1122
X5.9185Y-4.1614
X5.9232Y-3.8133
X5.9315Y-4.3421
X5.9512Y-3.2362
X5.9512Y-4.3881
X5.9512Y-4.6535
X5.9783Y-4.1125
X5.9827Y-3.6944
X5.9827Y-3.7519
X6.0091Y-3.7877
X6.0161Y-4.3759
X6.0297Y-3.1574
X6.0299Y-3.2362
X6.0299Y-4.6535
X6.0299Y-4.7322
X6.0398Y-3.9744
X6.0697Y-4.3464
X6.0791Y-3.9744
X6.0791Y-4.0334
X6.0811Y-4.2401
X6.1055Y-3.5078
X6.1059Y-3.5526
X6.1087Y-3.2362
X6.1087Y-4.6535
X6.1185Y-3.9744
X6.1185Y-4.0334
X6.1185Y-4.0728
X6.1311Y-4.398
X6.148Y-3.5251
X6.1583Y-4.1354
X6.1874Y-4.1692
X6.1874Y-4.2184
X6.1874Y-4.2677
X6.1921Y-4.3649
X6.2228Y-3.7657
X6.2268Y-3.5905
X6.2327Y-3.874
X6.2425Y-4.5826
X6.2591Y-3.5051
X6.2594Y-4.3645
X6.2594Y-4.4287
X6.2614Y-4.0606
X6.2661Y-3.3149
X6.2819Y-3.7657
X6.2819Y-3.8247
X6.2819Y-3.8838
X6.2835Y-3.6736
X6.3213Y-4.5039
X6.3236Y-4.3645
X6.328Y-4.1059
X6.3449Y-3.3543
X6.3449Y-3.433
X6.3449Y-3.5118
X6.3449Y-3.5905
X6.3449Y-3.6692
X6.3449Y-3.748
X6.3449Y-3.8267
X6.3516Y-3.887
X6.4Y-4.2677
X6.4Y-4.3464
X6.4Y-4.4251
X6.4Y-4.5039
X6.4236Y-3.3936
X6.4236Y-3.5118
X6.4236Y-3.5905
X6.4236Y-3.6692
X6.4236Y-3.748
X6.4236Y-3.8267
X6.463Y-3.9149
X6.463Y-3.957
X6.4787Y-4.1889
X6.4787Y-4.2677
X6.4787Y-4.3464
X6.4787Y-4.4251
X6.4921Y-4.072
X6.5024Y-3.433
X6.5024Y-3.5118
X6.5024Y-3.5905
X6.5024Y-3.6692
X6.5024Y-3.748
X6.5025Y-3.8306
X6.5575Y-4.1023
X6.5575Y-4.1889
X6.5575Y-4.2677
X6.5811Y-3.6692
X6.5811Y-3.748
X6.6362Y-4.1889
X6.6598Y-3.6692
X6.6598Y-3.748
T2
X5.1913Y-3.87
X5.1913Y-3.9488
X6.6343Y-3.823
X6.6343Y-3.9018
X6.6343Y-3.9805
X6.6343Y-4.0592
T3
X5.4898Y-4.3055
X5.5898Y-4.3055
X5.6618Y-3.3042
X5.6618Y-3.4042
X5.6618Y-4.4781
X5.6618Y-4.5781
X5.6898Y-4.3055
X5.7618Y-3.3042
X5.7618Y-3.4042
X5.7618Y-4.4781
X5.7618Y-4.5781
X5.7898Y-4.3055
X5.8618Y-3.3042
X5.8618Y-3.4042
X5.8618Y-4.4781
X5.8618Y-4.5781
X5.9618Y-3.3042
X5.9618Y-3.4042
X5.9618Y-4.4781
X5.9618Y-4.5781
X6.0618Y-3.3042
X6.0618Y-3.4042
X6.0618Y-4.4781
X6.0618Y-4.5781
X6.1618Y-3.3042
X6.1618Y-3.4042
X6.1618Y-4.4781
X6.1618Y-4.5781
T0
M30
