%TF.GenerationSoftware,KiCad,Pcbnew,7.0.5*%
%TF.CreationDate,2024-01-17T11:16:08-05:00*%
%TF.ProjectId,MCU,4d43552e-6b69-4636-9164-5f7063625858,rev?*%
%TF.SameCoordinates,Original*%
%TF.FileFunction,Legend,Top*%
%TF.FilePolarity,Positive*%
%FSLAX46Y46*%
G04 Gerber Fmt 4.6, Leading zero omitted, Abs format (unit mm)*
G04 Created by KiCad (PCBNEW 7.0.5) date 2024-01-17 11:16:08*
%MOMM*%
%LPD*%
G01*
G04 APERTURE LIST*
%ADD10C,0.150000*%
%ADD11C,0.428553*%
%ADD12C,0.120000*%
%ADD13C,0.200000*%
G04 APERTURE END LIST*
D10*
X158875000Y-94158621D02*
X159125000Y-93658621D01*
X161125000Y-91868621D02*
X160625000Y-92118621D01*
D11*
X159089276Y-91868621D02*
G75*
G03*
X159089276Y-91868621I-214276J0D01*
G01*
D10*
X158875000Y-91868621D02*
X158875000Y-94158621D01*
X158875000Y-91868621D02*
X161125000Y-91868621D01*
X158875000Y-94158621D02*
X158625000Y-93658621D01*
X161125000Y-91868621D02*
X160625000Y-91618621D01*
X157316541Y-91338440D02*
X157983207Y-91338440D01*
X157983207Y-91338440D02*
X157316541Y-92338440D01*
X157316541Y-92338440D02*
X157983207Y-92338440D01*
X158852255Y-95102249D02*
X158852255Y-95578440D01*
X158518922Y-94578440D02*
X158852255Y-95102249D01*
X158852255Y-95102249D02*
X159185588Y-94578440D01*
X161566541Y-91288440D02*
X162233207Y-92288440D01*
X162233207Y-91288440D02*
X161566541Y-92288440D01*
D12*
%TO.C,C7*%
X165875835Y-96598621D02*
X165644165Y-96598621D01*
X165875835Y-95878621D02*
X165644165Y-95878621D01*
%TO.C,R15*%
X165592379Y-97983621D02*
X165927621Y-97983621D01*
X165592379Y-98743621D02*
X165927621Y-98743621D01*
%TO.C,R6*%
X165592379Y-100118621D02*
X165927621Y-100118621D01*
X165592379Y-100878621D02*
X165927621Y-100878621D01*
%TO.C,U4*%
X144877500Y-91658621D02*
X144877500Y-89858621D01*
X144877500Y-91658621D02*
X144877500Y-92458621D01*
X141757500Y-91658621D02*
X141757500Y-90858621D01*
X141757500Y-91658621D02*
X141757500Y-92458621D01*
%TO.C,R8*%
X136135121Y-103408621D02*
X135799879Y-103408621D01*
X136135121Y-102648621D02*
X135799879Y-102648621D01*
%TO.C,J1*%
X142480000Y-87795599D02*
X142480000Y-86465599D01*
X143810000Y-87795599D02*
X142480000Y-87795599D01*
X145080000Y-87795599D02*
X157840000Y-87795599D01*
X145080000Y-87795599D02*
X145080000Y-85195599D01*
X157840000Y-87795599D02*
X157840000Y-82595599D01*
X142480000Y-85195599D02*
X142480000Y-82595599D01*
X145080000Y-85195599D02*
X142480000Y-85195599D01*
X142480000Y-82595599D02*
X157840000Y-82595599D01*
%TO.C,R14*%
X165927621Y-97676121D02*
X165592379Y-97676121D01*
X165927621Y-96916121D02*
X165592379Y-96916121D01*
%TO.C,Y1*%
X136185000Y-98643621D02*
X136185000Y-99993621D01*
X134435000Y-98643621D02*
X134435000Y-99993621D01*
%TO.C,U6*%
X151060000Y-91658621D02*
X151060000Y-89858621D01*
X151060000Y-91658621D02*
X151060000Y-92458621D01*
X147940000Y-91658621D02*
X147940000Y-90858621D01*
X147940000Y-91658621D02*
X147940000Y-92458621D01*
%TO.C,C9*%
X146347500Y-91902354D02*
X146347500Y-92194888D01*
X145327500Y-91902354D02*
X145327500Y-92194888D01*
%TO.C,R12*%
X150237621Y-108413621D02*
X149902379Y-108413621D01*
X150237621Y-107653621D02*
X149902379Y-107653621D01*
%TO.C,C1*%
X162854165Y-102818621D02*
X163085835Y-102818621D01*
X162854165Y-103538621D02*
X163085835Y-103538621D01*
%TO.C,C4*%
X136650000Y-100334456D02*
X136650000Y-100102786D01*
X137370000Y-100334456D02*
X137370000Y-100102786D01*
%TO.C,U3*%
X136100000Y-91448621D02*
X136100000Y-93248621D01*
X136100000Y-91448621D02*
X136100000Y-90648621D01*
X139220000Y-91448621D02*
X139220000Y-92248621D01*
X139220000Y-91448621D02*
X139220000Y-90648621D01*
%TO.C,J2*%
X157840000Y-112413621D02*
X157840000Y-113743621D01*
X156510000Y-112413621D02*
X157840000Y-112413621D01*
X155240000Y-112413621D02*
X142480000Y-112413621D01*
X155240000Y-112413621D02*
X155240000Y-115013621D01*
X142480000Y-112413621D02*
X142480000Y-117613621D01*
X157840000Y-115013621D02*
X157840000Y-117613621D01*
X155240000Y-115013621D02*
X157840000Y-115013621D01*
X157840000Y-117613621D02*
X142480000Y-117613621D01*
%TO.C,R4*%
X137036359Y-93648621D02*
X137343641Y-93648621D01*
X137036359Y-94408621D02*
X137343641Y-94408621D01*
%TO.C,R1*%
X158107621Y-101018621D02*
X157772379Y-101018621D01*
X158107621Y-100258621D02*
X157772379Y-100258621D01*
%TO.C,TP3*%
X138503782Y-84192403D02*
X139716218Y-83492403D01*
X139203782Y-85404839D02*
X138503782Y-84192403D01*
X139716218Y-83492403D02*
X140416218Y-84704839D01*
X140416218Y-84704839D02*
X139203782Y-85404839D01*
%TO.C,R19*%
X134575000Y-99545685D02*
X134575000Y-99091557D01*
X136045000Y-99545685D02*
X136045000Y-99091557D01*
%TO.C,C13*%
X143990000Y-95716457D02*
X143990000Y-95500785D01*
X144710000Y-95716457D02*
X144710000Y-95500785D01*
%TO.C,U2*%
X139500000Y-98138621D02*
X139500000Y-98588621D01*
X139500000Y-98588621D02*
X138210000Y-98588621D01*
X139500000Y-105358621D02*
X139500000Y-104908621D01*
X139950000Y-98138621D02*
X139500000Y-98138621D01*
X139950000Y-105358621D02*
X139500000Y-105358621D01*
X146270000Y-98138621D02*
X146720000Y-98138621D01*
X146270000Y-105358621D02*
X146720000Y-105358621D01*
X146720000Y-98138621D02*
X146720000Y-98588621D01*
X146720000Y-105358621D02*
X146720000Y-104908621D01*
%TO.C,C11*%
X152570000Y-89764456D02*
X152570000Y-89532786D01*
X153290000Y-89764456D02*
X153290000Y-89532786D01*
%TO.C,R13*%
X161842379Y-106388621D02*
X162177621Y-106388621D01*
X161842379Y-107148621D02*
X162177621Y-107148621D01*
%TO.C,C3*%
X150205835Y-109668621D02*
X149974165Y-109668621D01*
X150205835Y-108948621D02*
X149974165Y-108948621D01*
%TO.C,R3*%
X162790000Y-98571000D02*
X162790000Y-98906242D01*
X162030000Y-98571000D02*
X162030000Y-98906242D01*
%TO.C,J4*%
X148390000Y-108028621D02*
X148390000Y-109358621D01*
X147060000Y-108028621D02*
X148390000Y-108028621D01*
X145790000Y-108028621D02*
X138110000Y-108028621D01*
X145790000Y-108028621D02*
X145790000Y-110688621D01*
X138110000Y-108028621D02*
X138110000Y-110688621D01*
X145790000Y-110688621D02*
X138110000Y-110688621D01*
D13*
%TO.C,Q2*%
X154210000Y-96875621D02*
X154210000Y-97350621D01*
X154030000Y-97700621D02*
X154030000Y-98200621D01*
X152430000Y-97700621D02*
X154030000Y-97700621D01*
X154030000Y-98200621D02*
X152430000Y-98200621D01*
X152430000Y-98200621D02*
X152430000Y-97700621D01*
D12*
%TO.C,R18*%
X157562379Y-96818621D02*
X157897621Y-96818621D01*
X157562379Y-97578621D02*
X157897621Y-97578621D01*
D10*
%TO.C,U5*%
X156460000Y-95198621D02*
X156110000Y-95198621D01*
X156460000Y-91998621D02*
X156460000Y-92348621D01*
X156460000Y-91998621D02*
X156110000Y-91998621D01*
X153260000Y-95198621D02*
X153610000Y-95198621D01*
X153260000Y-95198621D02*
X153260000Y-94848621D01*
X153260000Y-91998621D02*
X153610000Y-91998621D01*
X153260000Y-91998621D02*
X153260000Y-92348621D01*
D12*
%TO.C,R11*%
X136130000Y-105138500D02*
X136130000Y-105473742D01*
X135370000Y-105138500D02*
X135370000Y-105473742D01*
%TO.C,R2*%
X158107621Y-102318621D02*
X157772379Y-102318621D01*
X158107621Y-101558621D02*
X157772379Y-101558621D01*
D13*
%TO.C,IC2*%
X163002500Y-102488621D02*
X161802500Y-102488621D01*
D12*
%TO.C,C2*%
X137725835Y-98128621D02*
X137494165Y-98128621D01*
X137725835Y-97408621D02*
X137494165Y-97408621D01*
%TO.C,C10*%
X137072164Y-88478621D02*
X137287836Y-88478621D01*
X137072164Y-89198621D02*
X137287836Y-89198621D01*
%TO.C,JP1*%
X135550000Y-95078621D02*
X135550000Y-95678621D01*
X135000000Y-93878621D02*
X134400000Y-93878621D01*
X134900000Y-96378621D02*
X132100000Y-96378621D01*
X134700000Y-94178621D02*
X135000000Y-93878621D01*
X134700000Y-94178621D02*
X134400000Y-93878621D01*
X132100000Y-94378621D02*
X134900000Y-94378621D01*
X131450000Y-95678621D02*
X131450000Y-95078621D01*
X134850000Y-96378621D02*
G75*
G03*
X135550000Y-95678621I1J699999D01*
G01*
X135550000Y-95078621D02*
G75*
G03*
X134850000Y-94378621I-699999J1D01*
G01*
X131450000Y-95678621D02*
G75*
G03*
X132150000Y-96378621I700000J0D01*
G01*
X132150000Y-94378621D02*
G75*
G03*
X131450000Y-95078621I0J-700000D01*
G01*
%TO.C,TP2*%
X134953782Y-86242403D02*
X136166218Y-85542403D01*
X135653782Y-87454839D02*
X134953782Y-86242403D01*
X136166218Y-85542403D02*
X136866218Y-86754839D01*
X136866218Y-86754839D02*
X135653782Y-87454839D01*
D13*
%TO.C,Q1*%
X156520000Y-96875621D02*
X156520000Y-97350621D01*
X156340000Y-97700621D02*
X156340000Y-98200621D01*
X154740000Y-97700621D02*
X156340000Y-97700621D01*
X156340000Y-98200621D02*
X154740000Y-98200621D01*
X154740000Y-98200621D02*
X154740000Y-97700621D01*
D12*
%TO.C,R9*%
X137182379Y-95018621D02*
X137517621Y-95018621D01*
X137182379Y-95778621D02*
X137517621Y-95778621D01*
%TO.C,R16*%
X146800000Y-90876242D02*
X146800000Y-90541000D01*
X147560000Y-90876242D02*
X147560000Y-90541000D01*
%TO.C,J6*%
X167450000Y-96044610D02*
X168510000Y-96044610D01*
X167450000Y-97104610D02*
X167450000Y-96044610D01*
X167450000Y-98104610D02*
X167450000Y-104164610D01*
X167450000Y-98104610D02*
X169570000Y-98104610D01*
X167450000Y-104164610D02*
X169570000Y-104164610D01*
X169570000Y-98104610D02*
X169570000Y-104164610D01*
%TO.C,C8*%
X144714165Y-88668621D02*
X144945835Y-88668621D01*
X144714165Y-89388621D02*
X144945835Y-89388621D01*
%TO.C,R5*%
X165592379Y-99051121D02*
X165927621Y-99051121D01*
X165592379Y-99811121D02*
X165927621Y-99811121D01*
%TO.C,TP1*%
X139837500Y-90348621D02*
X141237500Y-90348621D01*
X139837500Y-91748621D02*
X139837500Y-90348621D01*
X141237500Y-90348621D02*
X141237500Y-91748621D01*
X141237500Y-91748621D02*
X139837500Y-91748621D01*
%TO.C,R17*%
X151215121Y-97578621D02*
X150879879Y-97578621D01*
X151215121Y-96818621D02*
X150879879Y-96818621D01*
%TO.C,U1*%
X158745000Y-104668621D02*
X158745000Y-104933621D01*
X158510000Y-110128621D02*
X158510000Y-109863621D01*
X158510000Y-109863621D02*
X160010000Y-109863621D01*
X156010000Y-110128621D02*
X158510000Y-110128621D01*
X156010000Y-110128621D02*
X153275000Y-110128621D01*
X156010000Y-104668621D02*
X158745000Y-104668621D01*
X156010000Y-104668621D02*
X153275000Y-104668621D01*
X153275000Y-110128621D02*
X153275000Y-109863621D01*
X153275000Y-104668621D02*
X153275000Y-104933621D01*
%TO.C,R7*%
X135799879Y-101628621D02*
X136135121Y-101628621D01*
X135799879Y-102388621D02*
X136135121Y-102388621D01*
%TO.C,C12*%
X142184165Y-95688621D02*
X142415835Y-95688621D01*
X142184165Y-96408621D02*
X142415835Y-96408621D01*
%TO.C,D1*%
X137815000Y-104241121D02*
X136345000Y-104241121D01*
X136345000Y-104241121D02*
X136345000Y-106701121D01*
X137815000Y-106701121D02*
X137815000Y-104241121D01*
%TO.C,C14*%
X150894165Y-88668621D02*
X151125835Y-88668621D01*
X150894165Y-89388621D02*
X151125835Y-89388621D01*
%TO.C,J5*%
X132920000Y-101358621D02*
X131860000Y-101358621D01*
X132920000Y-100298621D02*
X132920000Y-101358621D01*
X132920000Y-99298621D02*
X132920000Y-97238621D01*
X132920000Y-99298621D02*
X130800000Y-99298621D01*
X132920000Y-97238621D02*
X130800000Y-97238621D01*
X130800000Y-99298621D02*
X130800000Y-97238621D01*
%TD*%
M02*
