%TF.GenerationSoftware,KiCad,Pcbnew,7.0.5*%
%TF.CreationDate,2024-01-17T11:16:08-05:00*%
%TF.ProjectId,MCU,4d43552e-6b69-4636-9164-5f7063625858,rev?*%
%TF.SameCoordinates,Original*%
%TF.FileFunction,Soldermask,Top*%
%TF.FilePolarity,Negative*%
%FSLAX46Y46*%
G04 Gerber Fmt 4.6, Leading zero omitted, Abs format (unit mm)*
G04 Created by KiCad (PCBNEW 7.0.5) date 2024-01-17 11:16:08*
%MOMM*%
%LPD*%
G01*
G04 APERTURE LIST*
G04 Aperture macros list*
%AMRoundRect*
0 Rectangle with rounded corners*
0 $1 Rounding radius*
0 $2 $3 $4 $5 $6 $7 $8 $9 X,Y pos of 4 corners*
0 Add a 4 corners polygon primitive as box body*
4,1,4,$2,$3,$4,$5,$6,$7,$8,$9,$2,$3,0*
0 Add four circle primitives for the rounded corners*
1,1,$1+$1,$2,$3*
1,1,$1+$1,$4,$5*
1,1,$1+$1,$6,$7*
1,1,$1+$1,$8,$9*
0 Add four rect primitives between the rounded corners*
20,1,$1+$1,$2,$3,$4,$5,0*
20,1,$1+$1,$4,$5,$6,$7,0*
20,1,$1+$1,$6,$7,$8,$9,0*
20,1,$1+$1,$8,$9,$2,$3,0*%
%AMRotRect*
0 Rectangle, with rotation*
0 The origin of the aperture is its center*
0 $1 length*
0 $2 width*
0 $3 Rotation angle, in degrees counterclockwise*
0 Add horizontal line*
21,1,$1,$2,0,0,$3*%
%AMFreePoly0*
4,1,19,0.550000,-0.750000,0.000000,-0.750000,0.000000,-0.744911,-0.071157,-0.744911,-0.207708,-0.704816,-0.327430,-0.627875,-0.420627,-0.520320,-0.479746,-0.390866,-0.500000,-0.250000,-0.500000,0.250000,-0.479746,0.390866,-0.420627,0.520320,-0.327430,0.627875,-0.207708,0.704816,-0.071157,0.744911,0.000000,0.744911,0.000000,0.750000,0.550000,0.750000,0.550000,-0.750000,0.550000,-0.750000,
$1*%
%AMFreePoly1*
4,1,19,0.000000,0.744911,0.071157,0.744911,0.207708,0.704816,0.327430,0.627875,0.420627,0.520320,0.479746,0.390866,0.500000,0.250000,0.500000,-0.250000,0.479746,-0.390866,0.420627,-0.520320,0.327430,-0.627875,0.207708,-0.704816,0.071157,-0.744911,0.000000,-0.744911,0.000000,-0.750000,-0.550000,-0.750000,-0.550000,0.750000,0.000000,0.750000,0.000000,0.744911,0.000000,0.744911,
$1*%
G04 Aperture macros list end*
%ADD10RoundRect,0.155000X0.212500X0.155000X-0.212500X0.155000X-0.212500X-0.155000X0.212500X-0.155000X0*%
%ADD11RoundRect,0.160000X-0.197500X-0.160000X0.197500X-0.160000X0.197500X0.160000X-0.197500X0.160000X0*%
%ADD12RoundRect,0.150000X-0.150000X0.512500X-0.150000X-0.512500X0.150000X-0.512500X0.150000X0.512500X0*%
%ADD13RoundRect,0.160000X0.197500X0.160000X-0.197500X0.160000X-0.197500X-0.160000X0.197500X-0.160000X0*%
%ADD14R,1.700000X1.700000*%
%ADD15O,1.700000X1.700000*%
%ADD16R,1.800000X1.000000*%
%ADD17RoundRect,0.237500X-0.237500X0.300000X-0.237500X-0.300000X0.237500X-0.300000X0.237500X0.300000X0*%
%ADD18RoundRect,0.155000X-0.212500X-0.155000X0.212500X-0.155000X0.212500X0.155000X-0.212500X0.155000X0*%
%ADD19RoundRect,0.155000X0.155000X-0.212500X0.155000X0.212500X-0.155000X0.212500X-0.155000X-0.212500X0*%
%ADD20RoundRect,0.125000X0.125000X-0.537500X0.125000X0.537500X-0.125000X0.537500X-0.125000X-0.537500X0*%
%ADD21RoundRect,0.135000X-0.135000X-0.185000X0.135000X-0.185000X0.135000X0.185000X-0.135000X0.185000X0*%
%ADD22RotRect,1.000000X1.000000X30.000000*%
%ADD23RoundRect,0.250000X0.450000X-0.350000X0.450000X0.350000X-0.450000X0.350000X-0.450000X-0.350000X0*%
%ADD24RoundRect,0.140000X0.170000X-0.140000X0.170000X0.140000X-0.170000X0.140000X-0.170000X-0.140000X0*%
%ADD25RoundRect,0.075000X-0.662500X-0.075000X0.662500X-0.075000X0.662500X0.075000X-0.662500X0.075000X0*%
%ADD26RoundRect,0.075000X-0.075000X-0.662500X0.075000X-0.662500X0.075000X0.662500X-0.075000X0.662500X0*%
%ADD27RoundRect,0.160000X-0.160000X0.197500X-0.160000X-0.197500X0.160000X-0.197500X0.160000X0.197500X0*%
%ADD28R,0.460000X0.700000*%
%ADD29R,0.500000X0.700000*%
%ADD30RoundRect,0.050000X0.262500X0.050000X-0.262500X0.050000X-0.262500X-0.050000X0.262500X-0.050000X0*%
%ADD31RoundRect,0.050000X-0.050000X0.262500X-0.050000X-0.262500X0.050000X-0.262500X0.050000X0.262500X0*%
%ADD32R,1.200000X0.400000*%
%ADD33RoundRect,0.140000X-0.140000X-0.170000X0.140000X-0.170000X0.140000X0.170000X-0.140000X0.170000X0*%
%ADD34FreePoly0,180.000000*%
%ADD35R,1.000000X1.500000*%
%ADD36FreePoly1,180.000000*%
%ADD37RoundRect,0.160000X0.160000X-0.197500X0.160000X0.197500X-0.160000X0.197500X-0.160000X-0.197500X0*%
%ADD38R,1.350000X1.350000*%
%ADD39O,1.350000X1.350000*%
%ADD40R,1.000000X1.000000*%
%ADD41RoundRect,0.150000X0.712500X0.150000X-0.712500X0.150000X-0.712500X-0.150000X0.712500X-0.150000X0*%
%ADD42RoundRect,0.237500X-0.237500X0.287500X-0.237500X-0.287500X0.237500X-0.287500X0.237500X0.287500X0*%
G04 APERTURE END LIST*
D10*
%TO.C,C7*%
X166327500Y-96238621D03*
X165192500Y-96238621D03*
%TD*%
D11*
%TO.C,R15*%
X165162500Y-98363621D03*
X166357500Y-98363621D03*
%TD*%
%TO.C,R6*%
X165162500Y-100498621D03*
X166357500Y-100498621D03*
%TD*%
D12*
%TO.C,U4*%
X144267500Y-90521121D03*
X143317500Y-90521121D03*
X142367500Y-90521121D03*
X142367500Y-92796121D03*
X144267500Y-92796121D03*
%TD*%
D13*
%TO.C,R8*%
X136565000Y-103028621D03*
X135370000Y-103028621D03*
%TD*%
D14*
%TO.C,J1*%
X143810000Y-86465599D03*
D15*
X143810000Y-83925599D03*
X146350000Y-86465599D03*
X146350000Y-83925599D03*
X148890000Y-86465599D03*
X148890000Y-83925599D03*
X151430000Y-86465599D03*
X151430000Y-83925599D03*
X153970000Y-86465599D03*
X153970000Y-83925599D03*
X156510000Y-86465599D03*
X156510000Y-83925599D03*
%TD*%
D13*
%TO.C,R14*%
X166357500Y-97296121D03*
X165162500Y-97296121D03*
%TD*%
D16*
%TO.C,Y1*%
X135310000Y-100568621D03*
X135310000Y-98068621D03*
%TD*%
D12*
%TO.C,U6*%
X150450000Y-90521121D03*
X149500000Y-90521121D03*
X148550000Y-90521121D03*
X148550000Y-92796121D03*
X150450000Y-92796121D03*
%TD*%
D17*
%TO.C,C9*%
X145837500Y-91186121D03*
X145837500Y-92911121D03*
%TD*%
D13*
%TO.C,R12*%
X150667500Y-108033621D03*
X149472500Y-108033621D03*
%TD*%
D18*
%TO.C,C1*%
X162402500Y-103178621D03*
X163537500Y-103178621D03*
%TD*%
D19*
%TO.C,C4*%
X137010000Y-100786121D03*
X137010000Y-99651121D03*
%TD*%
D20*
%TO.C,U3*%
X136685000Y-92586121D03*
X137335000Y-92586121D03*
X137985000Y-92586121D03*
X138635000Y-92586121D03*
X138635000Y-90311121D03*
X137985000Y-90311121D03*
X137335000Y-90311121D03*
X136685000Y-90311121D03*
%TD*%
D14*
%TO.C,J2*%
X156510000Y-113743621D03*
D15*
X156510000Y-116283621D03*
X153970000Y-113743621D03*
X153970000Y-116283621D03*
X151430000Y-113743621D03*
X151430000Y-116283621D03*
X148890000Y-113743621D03*
X148890000Y-116283621D03*
X146350000Y-113743621D03*
X146350000Y-116283621D03*
X143810000Y-113743621D03*
X143810000Y-116283621D03*
%TD*%
D21*
%TO.C,R4*%
X136680000Y-94028621D03*
X137700000Y-94028621D03*
%TD*%
D13*
%TO.C,R1*%
X158537500Y-100638621D03*
X157342500Y-100638621D03*
%TD*%
D22*
%TO.C,TP3*%
X139460000Y-84448621D03*
%TD*%
D23*
%TO.C,R19*%
X135310000Y-100318621D03*
X135310000Y-98318621D03*
%TD*%
D24*
%TO.C,C13*%
X144350000Y-96088621D03*
X144350000Y-95128621D03*
%TD*%
D25*
%TO.C,U2*%
X138947500Y-98998621D03*
X138947500Y-99498621D03*
X138947500Y-99998621D03*
X138947500Y-100498621D03*
X138947500Y-100998621D03*
X138947500Y-101498621D03*
X138947500Y-101998621D03*
X138947500Y-102498621D03*
X138947500Y-102998621D03*
X138947500Y-103498621D03*
X138947500Y-103998621D03*
X138947500Y-104498621D03*
D26*
X140360000Y-105911121D03*
X140860000Y-105911121D03*
X141360000Y-105911121D03*
X141860000Y-105911121D03*
X142360000Y-105911121D03*
X142860000Y-105911121D03*
X143360000Y-105911121D03*
X143860000Y-105911121D03*
X144360000Y-105911121D03*
X144860000Y-105911121D03*
X145360000Y-105911121D03*
X145860000Y-105911121D03*
D25*
X147272500Y-104498621D03*
X147272500Y-103998621D03*
X147272500Y-103498621D03*
X147272500Y-102998621D03*
X147272500Y-102498621D03*
X147272500Y-101998621D03*
X147272500Y-101498621D03*
X147272500Y-100998621D03*
X147272500Y-100498621D03*
X147272500Y-99998621D03*
X147272500Y-99498621D03*
X147272500Y-98998621D03*
D26*
X145860000Y-97586121D03*
X145360000Y-97586121D03*
X144860000Y-97586121D03*
X144360000Y-97586121D03*
X143860000Y-97586121D03*
X143360000Y-97586121D03*
X142860000Y-97586121D03*
X142360000Y-97586121D03*
X141860000Y-97586121D03*
X141360000Y-97586121D03*
X140860000Y-97586121D03*
X140360000Y-97586121D03*
%TD*%
D19*
%TO.C,C11*%
X152930000Y-90216121D03*
X152930000Y-89081121D03*
%TD*%
D11*
%TO.C,R13*%
X161412500Y-106768621D03*
X162607500Y-106768621D03*
%TD*%
D10*
%TO.C,C3*%
X150657500Y-109308621D03*
X149522500Y-109308621D03*
%TD*%
D27*
%TO.C,R3*%
X162410000Y-98141121D03*
X162410000Y-99336121D03*
%TD*%
D14*
%TO.C,J4*%
X147060000Y-109358621D03*
D15*
X144520000Y-109358621D03*
X141980000Y-109358621D03*
X139440000Y-109358621D03*
%TD*%
D28*
%TO.C,Q2*%
X153730000Y-97150621D03*
X152730000Y-97150621D03*
D29*
X153230000Y-98750621D03*
%TD*%
D11*
%TO.C,R18*%
X157132500Y-97198621D03*
X158327500Y-97198621D03*
%TD*%
D30*
%TO.C,U5*%
X156397500Y-94598621D03*
X156397500Y-94198621D03*
X156397500Y-93798621D03*
X156397500Y-93398621D03*
X156397500Y-92998621D03*
X156397500Y-92598621D03*
D31*
X155860000Y-92061121D03*
X155460000Y-92061121D03*
X155060000Y-92061121D03*
X154660000Y-92061121D03*
X154260000Y-92061121D03*
X153860000Y-92061121D03*
D30*
X153322500Y-92598621D03*
X153322500Y-92998621D03*
X153322500Y-93398621D03*
X153322500Y-93798621D03*
X153322500Y-94198621D03*
X153322500Y-94598621D03*
D31*
X153860000Y-95136121D03*
X154260000Y-95136121D03*
X154660000Y-95136121D03*
X155060000Y-95136121D03*
X155460000Y-95136121D03*
X155860000Y-95136121D03*
%TD*%
D27*
%TO.C,R11*%
X135750000Y-104708621D03*
X135750000Y-105903621D03*
%TD*%
D13*
%TO.C,R2*%
X158537500Y-101938621D03*
X157342500Y-101938621D03*
%TD*%
D32*
%TO.C,IC2*%
X162402500Y-101938621D03*
X162402500Y-101288621D03*
X162402500Y-100638621D03*
X160502500Y-100638621D03*
X160502500Y-101288621D03*
X160502500Y-101938621D03*
%TD*%
D10*
%TO.C,C2*%
X138177500Y-97768621D03*
X137042500Y-97768621D03*
%TD*%
D33*
%TO.C,C10*%
X136700000Y-88838621D03*
X137660000Y-88838621D03*
%TD*%
D34*
%TO.C,JP1*%
X134800000Y-95378621D03*
D35*
X133500000Y-95378621D03*
D36*
X132200000Y-95378621D03*
%TD*%
D22*
%TO.C,TP2*%
X135910000Y-86498621D03*
%TD*%
D28*
%TO.C,Q1*%
X156040000Y-97150621D03*
X155040000Y-97150621D03*
D29*
X155540000Y-98750621D03*
%TD*%
D11*
%TO.C,R9*%
X136752500Y-95398621D03*
X137947500Y-95398621D03*
%TD*%
D37*
%TO.C,R16*%
X147180000Y-91306121D03*
X147180000Y-90111121D03*
%TD*%
D38*
%TO.C,J6*%
X168510000Y-97104610D03*
D39*
X168510000Y-99104610D03*
X168510000Y-101104610D03*
X168510000Y-103104610D03*
%TD*%
D18*
%TO.C,C8*%
X144262500Y-89028621D03*
X145397500Y-89028621D03*
%TD*%
D11*
%TO.C,R5*%
X165162500Y-99431121D03*
X166357500Y-99431121D03*
%TD*%
D40*
%TO.C,TP1*%
X140537500Y-91048621D03*
%TD*%
D13*
%TO.C,R17*%
X151645000Y-97198621D03*
X150450000Y-97198621D03*
%TD*%
D41*
%TO.C,U1*%
X159260000Y-109303621D03*
X159260000Y-108033621D03*
X159260000Y-106763621D03*
X159260000Y-105498621D03*
X152760000Y-105498621D03*
X152760000Y-106763621D03*
X152760000Y-108033621D03*
X152760000Y-109303621D03*
%TD*%
D11*
%TO.C,R7*%
X135370000Y-102008621D03*
X136565000Y-102008621D03*
%TD*%
D18*
%TO.C,C12*%
X141732500Y-96048621D03*
X142867500Y-96048621D03*
%TD*%
D42*
%TO.C,D1*%
X137080000Y-105026121D03*
X137080000Y-106776121D03*
%TD*%
D18*
%TO.C,C14*%
X150442500Y-89028621D03*
X151577500Y-89028621D03*
%TD*%
D38*
%TO.C,J5*%
X131860000Y-100298621D03*
D39*
X131860000Y-98298621D03*
%TD*%
M02*
