%TF.GenerationSoftware,KiCad,Pcbnew,7.0.5*%
%TF.CreationDate,2024-01-23T00:39:16-05:00*%
%TF.ProjectId,SIDE,53494445-2e6b-4696-9361-645f70636258,rev?*%
%TF.SameCoordinates,Original*%
%TF.FileFunction,Copper,L1,Top*%
%TF.FilePolarity,Positive*%
%FSLAX46Y46*%
G04 Gerber Fmt 4.6, Leading zero omitted, Abs format (unit mm)*
G04 Created by KiCad (PCBNEW 7.0.5) date 2024-01-23 00:39:16*
%MOMM*%
%LPD*%
G01*
G04 APERTURE LIST*
%ADD10C,0.200000*%
%TA.AperFunction,NonConductor*%
%ADD11C,0.200000*%
%TD*%
%TA.AperFunction,SMDPad,CuDef*%
%ADD12R,14.000000X3.000000*%
%TD*%
%TA.AperFunction,ComponentPad*%
%ADD13C,1.600000*%
%TD*%
%TA.AperFunction,ComponentPad*%
%ADD14O,1.600000X1.600000*%
%TD*%
%TA.AperFunction,ViaPad*%
%ADD15C,0.660400*%
%TD*%
G04 APERTURE END LIST*
D10*
D11*
X172505828Y-89035314D02*
X172448685Y-89206742D01*
X172448685Y-89206742D02*
X172391542Y-89263885D01*
X172391542Y-89263885D02*
X172277257Y-89321028D01*
X172277257Y-89321028D02*
X172105828Y-89321028D01*
X172105828Y-89321028D02*
X171991542Y-89263885D01*
X171991542Y-89263885D02*
X171934400Y-89206742D01*
X171934400Y-89206742D02*
X171877257Y-89092457D01*
X171877257Y-89092457D02*
X171877257Y-88635314D01*
X171877257Y-88635314D02*
X173077257Y-88635314D01*
X173077257Y-88635314D02*
X173077257Y-89035314D01*
X173077257Y-89035314D02*
X173020114Y-89149600D01*
X173020114Y-89149600D02*
X172962971Y-89206742D01*
X172962971Y-89206742D02*
X172848685Y-89263885D01*
X172848685Y-89263885D02*
X172734400Y-89263885D01*
X172734400Y-89263885D02*
X172620114Y-89206742D01*
X172620114Y-89206742D02*
X172562971Y-89149600D01*
X172562971Y-89149600D02*
X172505828Y-89035314D01*
X172505828Y-89035314D02*
X172505828Y-88635314D01*
X173077257Y-89835314D02*
X172105828Y-89835314D01*
X172105828Y-89835314D02*
X171991542Y-89892457D01*
X171991542Y-89892457D02*
X171934400Y-89949600D01*
X171934400Y-89949600D02*
X171877257Y-90063885D01*
X171877257Y-90063885D02*
X171877257Y-90292457D01*
X171877257Y-90292457D02*
X171934400Y-90406742D01*
X171934400Y-90406742D02*
X171991542Y-90463885D01*
X171991542Y-90463885D02*
X172105828Y-90521028D01*
X172105828Y-90521028D02*
X173077257Y-90521028D01*
X171877257Y-91778171D02*
X172448685Y-91378171D01*
X171877257Y-91092457D02*
X173077257Y-91092457D01*
X173077257Y-91092457D02*
X173077257Y-91549600D01*
X173077257Y-91549600D02*
X173020114Y-91663885D01*
X173020114Y-91663885D02*
X172962971Y-91721028D01*
X172962971Y-91721028D02*
X172848685Y-91778171D01*
X172848685Y-91778171D02*
X172677257Y-91778171D01*
X172677257Y-91778171D02*
X172562971Y-91721028D01*
X172562971Y-91721028D02*
X172505828Y-91663885D01*
X172505828Y-91663885D02*
X172448685Y-91549600D01*
X172448685Y-91549600D02*
X172448685Y-91092457D01*
X171877257Y-92292457D02*
X173077257Y-92292457D01*
X173077257Y-92292457D02*
X171877257Y-92978171D01*
X171877257Y-92978171D02*
X173077257Y-92978171D01*
X171877257Y-93549600D02*
X173077257Y-93549600D01*
X171877257Y-94121029D02*
X173077257Y-94121029D01*
X173077257Y-94121029D02*
X171877257Y-94806743D01*
X171877257Y-94806743D02*
X173077257Y-94806743D01*
X173020114Y-96006743D02*
X173077257Y-95892458D01*
X173077257Y-95892458D02*
X173077257Y-95721029D01*
X173077257Y-95721029D02*
X173020114Y-95549600D01*
X173020114Y-95549600D02*
X172905828Y-95435315D01*
X172905828Y-95435315D02*
X172791542Y-95378172D01*
X172791542Y-95378172D02*
X172562971Y-95321029D01*
X172562971Y-95321029D02*
X172391542Y-95321029D01*
X172391542Y-95321029D02*
X172162971Y-95378172D01*
X172162971Y-95378172D02*
X172048685Y-95435315D01*
X172048685Y-95435315D02*
X171934400Y-95549600D01*
X171934400Y-95549600D02*
X171877257Y-95721029D01*
X171877257Y-95721029D02*
X171877257Y-95835315D01*
X171877257Y-95835315D02*
X171934400Y-96006743D01*
X171934400Y-96006743D02*
X171991542Y-96063886D01*
X171991542Y-96063886D02*
X172391542Y-96063886D01*
X172391542Y-96063886D02*
X172391542Y-95835315D01*
X171877257Y-98178172D02*
X172448685Y-97778172D01*
X171877257Y-97492458D02*
X173077257Y-97492458D01*
X173077257Y-97492458D02*
X173077257Y-97949601D01*
X173077257Y-97949601D02*
X173020114Y-98063886D01*
X173020114Y-98063886D02*
X172962971Y-98121029D01*
X172962971Y-98121029D02*
X172848685Y-98178172D01*
X172848685Y-98178172D02*
X172677257Y-98178172D01*
X172677257Y-98178172D02*
X172562971Y-98121029D01*
X172562971Y-98121029D02*
X172505828Y-98063886D01*
X172505828Y-98063886D02*
X172448685Y-97949601D01*
X172448685Y-97949601D02*
X172448685Y-97492458D01*
X172505828Y-98692458D02*
X172505828Y-99092458D01*
X171877257Y-99263886D02*
X171877257Y-98692458D01*
X171877257Y-98692458D02*
X173077257Y-98692458D01*
X173077257Y-98692458D02*
X173077257Y-99263886D01*
X171934400Y-99721029D02*
X171877257Y-99892458D01*
X171877257Y-99892458D02*
X171877257Y-100178172D01*
X171877257Y-100178172D02*
X171934400Y-100292458D01*
X171934400Y-100292458D02*
X171991542Y-100349600D01*
X171991542Y-100349600D02*
X172105828Y-100406743D01*
X172105828Y-100406743D02*
X172220114Y-100406743D01*
X172220114Y-100406743D02*
X172334400Y-100349600D01*
X172334400Y-100349600D02*
X172391542Y-100292458D01*
X172391542Y-100292458D02*
X172448685Y-100178172D01*
X172448685Y-100178172D02*
X172505828Y-99949600D01*
X172505828Y-99949600D02*
X172562971Y-99835315D01*
X172562971Y-99835315D02*
X172620114Y-99778172D01*
X172620114Y-99778172D02*
X172734400Y-99721029D01*
X172734400Y-99721029D02*
X172848685Y-99721029D01*
X172848685Y-99721029D02*
X172962971Y-99778172D01*
X172962971Y-99778172D02*
X173020114Y-99835315D01*
X173020114Y-99835315D02*
X173077257Y-99949600D01*
X173077257Y-99949600D02*
X173077257Y-100235315D01*
X173077257Y-100235315D02*
X173020114Y-100406743D01*
X171877257Y-100921029D02*
X173077257Y-100921029D01*
X171934400Y-101435315D02*
X171877257Y-101606744D01*
X171877257Y-101606744D02*
X171877257Y-101892458D01*
X171877257Y-101892458D02*
X171934400Y-102006744D01*
X171934400Y-102006744D02*
X171991542Y-102063886D01*
X171991542Y-102063886D02*
X172105828Y-102121029D01*
X172105828Y-102121029D02*
X172220114Y-102121029D01*
X172220114Y-102121029D02*
X172334400Y-102063886D01*
X172334400Y-102063886D02*
X172391542Y-102006744D01*
X172391542Y-102006744D02*
X172448685Y-101892458D01*
X172448685Y-101892458D02*
X172505828Y-101663886D01*
X172505828Y-101663886D02*
X172562971Y-101549601D01*
X172562971Y-101549601D02*
X172620114Y-101492458D01*
X172620114Y-101492458D02*
X172734400Y-101435315D01*
X172734400Y-101435315D02*
X172848685Y-101435315D01*
X172848685Y-101435315D02*
X172962971Y-101492458D01*
X172962971Y-101492458D02*
X173020114Y-101549601D01*
X173020114Y-101549601D02*
X173077257Y-101663886D01*
X173077257Y-101663886D02*
X173077257Y-101949601D01*
X173077257Y-101949601D02*
X173020114Y-102121029D01*
X173077257Y-102463886D02*
X173077257Y-103149601D01*
X171877257Y-102806743D02*
X173077257Y-102806743D01*
X173077257Y-103778172D02*
X173077257Y-104006744D01*
X173077257Y-104006744D02*
X173020114Y-104121029D01*
X173020114Y-104121029D02*
X172905828Y-104235315D01*
X172905828Y-104235315D02*
X172677257Y-104292458D01*
X172677257Y-104292458D02*
X172277257Y-104292458D01*
X172277257Y-104292458D02*
X172048685Y-104235315D01*
X172048685Y-104235315D02*
X171934400Y-104121029D01*
X171934400Y-104121029D02*
X171877257Y-104006744D01*
X171877257Y-104006744D02*
X171877257Y-103778172D01*
X171877257Y-103778172D02*
X171934400Y-103663887D01*
X171934400Y-103663887D02*
X172048685Y-103549601D01*
X172048685Y-103549601D02*
X172277257Y-103492458D01*
X172277257Y-103492458D02*
X172677257Y-103492458D01*
X172677257Y-103492458D02*
X172905828Y-103549601D01*
X172905828Y-103549601D02*
X173020114Y-103663887D01*
X173020114Y-103663887D02*
X173077257Y-103778172D01*
X171877257Y-105492458D02*
X172448685Y-105092458D01*
X171877257Y-104806744D02*
X173077257Y-104806744D01*
X173077257Y-104806744D02*
X173077257Y-105263887D01*
X173077257Y-105263887D02*
X173020114Y-105378172D01*
X173020114Y-105378172D02*
X172962971Y-105435315D01*
X172962971Y-105435315D02*
X172848685Y-105492458D01*
X172848685Y-105492458D02*
X172677257Y-105492458D01*
X172677257Y-105492458D02*
X172562971Y-105435315D01*
X172562971Y-105435315D02*
X172505828Y-105378172D01*
X172505828Y-105378172D02*
X172448685Y-105263887D01*
X172448685Y-105263887D02*
X172448685Y-104806744D01*
X172334400Y-106921030D02*
X172334400Y-107835316D01*
X171877257Y-109321030D02*
X173077257Y-109321030D01*
X172505828Y-109321030D02*
X172505828Y-110006744D01*
X171877257Y-110006744D02*
X173077257Y-110006744D01*
X173077257Y-110806744D02*
X173077257Y-111035316D01*
X173077257Y-111035316D02*
X173020114Y-111149601D01*
X173020114Y-111149601D02*
X172905828Y-111263887D01*
X172905828Y-111263887D02*
X172677257Y-111321030D01*
X172677257Y-111321030D02*
X172277257Y-111321030D01*
X172277257Y-111321030D02*
X172048685Y-111263887D01*
X172048685Y-111263887D02*
X171934400Y-111149601D01*
X171934400Y-111149601D02*
X171877257Y-111035316D01*
X171877257Y-111035316D02*
X171877257Y-110806744D01*
X171877257Y-110806744D02*
X171934400Y-110692459D01*
X171934400Y-110692459D02*
X172048685Y-110578173D01*
X172048685Y-110578173D02*
X172277257Y-110521030D01*
X172277257Y-110521030D02*
X172677257Y-110521030D01*
X172677257Y-110521030D02*
X172905828Y-110578173D01*
X172905828Y-110578173D02*
X173020114Y-110692459D01*
X173020114Y-110692459D02*
X173077257Y-110806744D01*
X173077257Y-111663887D02*
X173077257Y-112349602D01*
X171877257Y-112006744D02*
X173077257Y-112006744D01*
X171991542Y-113663888D02*
X171934400Y-113721031D01*
X171934400Y-113721031D02*
X171877257Y-113663888D01*
X171877257Y-113663888D02*
X171934400Y-113606745D01*
X171934400Y-113606745D02*
X171991542Y-113663888D01*
X171991542Y-113663888D02*
X171877257Y-113663888D01*
X172334400Y-113663888D02*
X173020114Y-113606745D01*
X173020114Y-113606745D02*
X173077257Y-113663888D01*
X173077257Y-113663888D02*
X173020114Y-113721031D01*
X173020114Y-113721031D02*
X172334400Y-113663888D01*
X172334400Y-113663888D02*
X173077257Y-113663888D01*
X171991542Y-114235317D02*
X171934400Y-114292460D01*
X171934400Y-114292460D02*
X171877257Y-114235317D01*
X171877257Y-114235317D02*
X171934400Y-114178174D01*
X171934400Y-114178174D02*
X171991542Y-114235317D01*
X171991542Y-114235317D02*
X171877257Y-114235317D01*
X172334400Y-114235317D02*
X173020114Y-114178174D01*
X173020114Y-114178174D02*
X173077257Y-114235317D01*
X173077257Y-114235317D02*
X173020114Y-114292460D01*
X173020114Y-114292460D02*
X172334400Y-114235317D01*
X172334400Y-114235317D02*
X173077257Y-114235317D01*
X171991542Y-114806746D02*
X171934400Y-114863889D01*
X171934400Y-114863889D02*
X171877257Y-114806746D01*
X171877257Y-114806746D02*
X171934400Y-114749603D01*
X171934400Y-114749603D02*
X171991542Y-114806746D01*
X171991542Y-114806746D02*
X171877257Y-114806746D01*
X172334400Y-114806746D02*
X173020114Y-114749603D01*
X173020114Y-114749603D02*
X173077257Y-114806746D01*
X173077257Y-114806746D02*
X173020114Y-114863889D01*
X173020114Y-114863889D02*
X172334400Y-114806746D01*
X172334400Y-114806746D02*
X173077257Y-114806746D01*
D12*
%TO.P,SC2,1,+*%
%TO.N,Net-(D1-A)*%
X186720000Y-127018022D03*
%TO.P,SC2,2,-*%
%TO.N,GND*%
X186720000Y-86018022D03*
%TD*%
D13*
%TO.P,R6,1*%
%TO.N,/BR+*%
X172320000Y-83930000D03*
D14*
%TO.P,R6,2*%
%TO.N,/BR-*%
X172320000Y-73770000D03*
%TD*%
D15*
%TO.N,GND*%
X194720000Y-112718022D03*
X184720000Y-120218022D03*
X179720000Y-95218022D03*
X179720000Y-102718022D03*
X184720000Y-107718022D03*
X189720000Y-97718022D03*
X192220000Y-107718022D03*
X177220000Y-107718022D03*
X179720000Y-100218022D03*
X182220000Y-117718022D03*
X194720000Y-120218022D03*
X192220000Y-120218022D03*
X179720000Y-110218022D03*
X182220000Y-71218022D03*
X177220000Y-100218022D03*
X179720000Y-115218022D03*
X187220000Y-115218022D03*
X182220000Y-110218022D03*
X189720000Y-92718022D03*
X177220000Y-115218022D03*
X179220000Y-71218022D03*
X182220000Y-102718022D03*
X189720000Y-107718022D03*
X177220000Y-122718022D03*
X182220000Y-120218022D03*
X177220000Y-105218022D03*
X184720000Y-102718022D03*
X189720000Y-115218022D03*
X192220000Y-115218022D03*
X177220000Y-117718022D03*
X177220000Y-120218022D03*
X187220000Y-120218022D03*
X191220000Y-71218022D03*
X192220000Y-122718022D03*
X187220000Y-112718022D03*
X189720000Y-117718022D03*
X189720000Y-112718022D03*
X177220000Y-95218022D03*
X182220000Y-97718022D03*
X194720000Y-107718022D03*
X194220000Y-71218022D03*
X194720000Y-92718022D03*
X184720000Y-112718022D03*
X192220000Y-100218022D03*
X184720000Y-105218022D03*
X192220000Y-110218022D03*
X182220000Y-92718022D03*
X179720000Y-112718022D03*
X179720000Y-120218022D03*
X192220000Y-95218022D03*
X194720000Y-122718022D03*
X189720000Y-105218022D03*
X187220000Y-95218022D03*
X182220000Y-115218022D03*
X194720000Y-102718022D03*
X187220000Y-92718022D03*
X182220000Y-107718022D03*
X179720000Y-117718022D03*
X192220000Y-117718022D03*
X187220000Y-97718022D03*
X192220000Y-112718022D03*
X187220000Y-105218022D03*
X189720000Y-102718022D03*
X192220000Y-97718022D03*
X184720000Y-110218022D03*
X188220000Y-71218022D03*
X189720000Y-120218022D03*
X179720000Y-92718022D03*
X187220000Y-110218022D03*
X184720000Y-117718022D03*
X194720000Y-105218022D03*
X189720000Y-100218022D03*
X194720000Y-100218022D03*
X182220000Y-112718022D03*
X179720000Y-97718022D03*
X177220000Y-97718022D03*
X182220000Y-100218022D03*
X192220000Y-102718022D03*
X187220000Y-107718022D03*
X177220000Y-112718022D03*
X187220000Y-100218022D03*
X194720000Y-115218022D03*
X184720000Y-92718022D03*
X177220000Y-102718022D03*
X189720000Y-110218022D03*
X179720000Y-122718022D03*
X187220000Y-102718022D03*
X184720000Y-95218022D03*
X187220000Y-117718022D03*
X192220000Y-105218022D03*
X192220000Y-92718022D03*
X179720000Y-105218022D03*
X194720000Y-110218022D03*
X182220000Y-95218022D03*
X189720000Y-95218022D03*
X177220000Y-92718022D03*
X179720000Y-107718022D03*
X194720000Y-117718022D03*
X184720000Y-97718022D03*
X177220000Y-110218022D03*
X184720000Y-115218022D03*
X185220000Y-71218022D03*
X184720000Y-100218022D03*
X182220000Y-105218022D03*
X194720000Y-95218022D03*
X194720000Y-97718022D03*
%TO.N,Net-(D1-A)*%
X188820000Y-126718022D03*
X188120000Y-127418022D03*
X187020000Y-127418022D03*
X185920000Y-127418022D03*
%TD*%
%TA.AperFunction,Conductor*%
%TO.N,GND*%
G36*
X198585569Y-65817401D02*
G01*
X198613461Y-65865711D01*
X198614700Y-65879872D01*
X198614700Y-133106172D01*
X198595621Y-133158591D01*
X198547311Y-133186483D01*
X198533150Y-133187722D01*
X170306850Y-133187722D01*
X170254431Y-133168643D01*
X170226539Y-133120333D01*
X170225300Y-133106172D01*
X170225300Y-131293028D01*
X173509884Y-131293028D01*
X173529115Y-131525116D01*
X173586287Y-131750882D01*
X173586289Y-131750888D01*
X173679840Y-131964163D01*
X173807224Y-132159139D01*
X173964949Y-132330473D01*
X173964954Y-132330478D01*
X174148740Y-132473524D01*
X174148742Y-132473525D01*
X174148746Y-132473528D01*
X174353559Y-132584367D01*
X174353563Y-132584369D01*
X174353570Y-132584371D01*
X174353569Y-132584371D01*
X174573833Y-132659988D01*
X174573835Y-132659988D01*
X174573837Y-132659989D01*
X174803554Y-132698322D01*
X174803559Y-132698322D01*
X175036441Y-132698322D01*
X175036446Y-132698322D01*
X175266163Y-132659989D01*
X175486437Y-132584369D01*
X175691260Y-132473524D01*
X175875046Y-132330478D01*
X175959475Y-132238763D01*
X176032775Y-132159139D01*
X176032776Y-132159137D01*
X176032780Y-132159133D01*
X176160160Y-131964163D01*
X176253712Y-131750886D01*
X176310884Y-131525119D01*
X176330116Y-131293028D01*
X183009884Y-131293028D01*
X183029115Y-131525116D01*
X183086287Y-131750882D01*
X183086289Y-131750888D01*
X183179840Y-131964163D01*
X183307224Y-132159139D01*
X183464949Y-132330473D01*
X183464954Y-132330478D01*
X183648740Y-132473524D01*
X183648742Y-132473525D01*
X183648746Y-132473528D01*
X183853559Y-132584367D01*
X183853563Y-132584369D01*
X183853570Y-132584371D01*
X183853569Y-132584371D01*
X184073833Y-132659988D01*
X184073835Y-132659988D01*
X184073837Y-132659989D01*
X184303554Y-132698322D01*
X184303559Y-132698322D01*
X184536441Y-132698322D01*
X184536446Y-132698322D01*
X184766163Y-132659989D01*
X184986437Y-132584369D01*
X185191260Y-132473524D01*
X185375046Y-132330478D01*
X185459475Y-132238763D01*
X185532775Y-132159139D01*
X185532776Y-132159137D01*
X185532780Y-132159133D01*
X185660160Y-131964163D01*
X185753712Y-131750886D01*
X185810884Y-131525119D01*
X185830116Y-131293028D01*
X192509884Y-131293028D01*
X192529115Y-131525116D01*
X192586287Y-131750882D01*
X192586289Y-131750888D01*
X192679840Y-131964163D01*
X192807224Y-132159139D01*
X192964949Y-132330473D01*
X192964954Y-132330478D01*
X193148740Y-132473524D01*
X193148742Y-132473525D01*
X193148746Y-132473528D01*
X193353559Y-132584367D01*
X193353563Y-132584369D01*
X193353570Y-132584371D01*
X193353569Y-132584371D01*
X193573833Y-132659988D01*
X193573835Y-132659988D01*
X193573837Y-132659989D01*
X193803554Y-132698322D01*
X193803559Y-132698322D01*
X194036441Y-132698322D01*
X194036446Y-132698322D01*
X194266163Y-132659989D01*
X194486437Y-132584369D01*
X194691260Y-132473524D01*
X194875046Y-132330478D01*
X194959475Y-132238763D01*
X195032775Y-132159139D01*
X195032776Y-132159137D01*
X195032780Y-132159133D01*
X195160160Y-131964163D01*
X195253712Y-131750886D01*
X195310884Y-131525119D01*
X195330116Y-131293022D01*
X195330116Y-131293015D01*
X195310884Y-131060927D01*
X195310884Y-131060925D01*
X195253712Y-130835158D01*
X195160160Y-130621881D01*
X195032780Y-130426911D01*
X195032778Y-130426909D01*
X195032775Y-130426904D01*
X194875050Y-130255570D01*
X194875047Y-130255567D01*
X194875046Y-130255566D01*
X194691260Y-130112520D01*
X194691258Y-130112518D01*
X194691253Y-130112515D01*
X194486440Y-130001676D01*
X194486430Y-130001672D01*
X194266166Y-129926055D01*
X194036448Y-129887722D01*
X194036446Y-129887722D01*
X193803554Y-129887722D01*
X193803551Y-129887722D01*
X193573833Y-129926055D01*
X193353569Y-130001672D01*
X193353559Y-130001676D01*
X193148746Y-130112515D01*
X192964952Y-130255567D01*
X192964949Y-130255570D01*
X192807224Y-130426904D01*
X192679840Y-130621880D01*
X192586289Y-130835155D01*
X192586287Y-130835161D01*
X192529115Y-131060927D01*
X192509884Y-131293015D01*
X192509884Y-131293028D01*
X185830116Y-131293028D01*
X185830116Y-131293022D01*
X185830116Y-131293015D01*
X185810884Y-131060927D01*
X185810884Y-131060925D01*
X185753712Y-130835158D01*
X185660160Y-130621881D01*
X185532780Y-130426911D01*
X185532778Y-130426909D01*
X185532775Y-130426904D01*
X185375050Y-130255570D01*
X185375047Y-130255567D01*
X185375046Y-130255566D01*
X185191260Y-130112520D01*
X185191258Y-130112518D01*
X185191253Y-130112515D01*
X184986440Y-130001676D01*
X184986430Y-130001672D01*
X184766166Y-129926055D01*
X184536448Y-129887722D01*
X184536446Y-129887722D01*
X184303554Y-129887722D01*
X184303551Y-129887722D01*
X184073833Y-129926055D01*
X183853569Y-130001672D01*
X183853559Y-130001676D01*
X183648746Y-130112515D01*
X183464952Y-130255567D01*
X183464949Y-130255570D01*
X183307224Y-130426904D01*
X183179840Y-130621880D01*
X183086289Y-130835155D01*
X183086287Y-130835161D01*
X183029115Y-131060927D01*
X183009884Y-131293015D01*
X183009884Y-131293028D01*
X176330116Y-131293028D01*
X176330116Y-131293022D01*
X176330116Y-131293015D01*
X176310884Y-131060927D01*
X176310884Y-131060925D01*
X176253712Y-130835158D01*
X176160160Y-130621881D01*
X176032780Y-130426911D01*
X176032778Y-130426909D01*
X176032775Y-130426904D01*
X175875050Y-130255570D01*
X175875047Y-130255567D01*
X175875046Y-130255566D01*
X175691260Y-130112520D01*
X175691258Y-130112518D01*
X175691253Y-130112515D01*
X175486440Y-130001676D01*
X175486430Y-130001672D01*
X175266166Y-129926055D01*
X175036448Y-129887722D01*
X175036446Y-129887722D01*
X174803554Y-129887722D01*
X174803551Y-129887722D01*
X174573833Y-129926055D01*
X174353569Y-130001672D01*
X174353559Y-130001676D01*
X174148746Y-130112515D01*
X173964952Y-130255567D01*
X173964949Y-130255570D01*
X173807224Y-130426904D01*
X173679840Y-130621880D01*
X173586289Y-130835155D01*
X173586287Y-130835161D01*
X173529115Y-131060927D01*
X173509884Y-131293015D01*
X173509884Y-131293028D01*
X170225300Y-131293028D01*
X170225300Y-128533074D01*
X179567100Y-128533074D01*
X179567101Y-128533084D01*
X179575971Y-128577677D01*
X179575972Y-128577680D01*
X179609766Y-128628256D01*
X179609769Y-128628258D01*
X179660340Y-128662049D01*
X179660342Y-128662050D01*
X179704943Y-128670922D01*
X193735056Y-128670921D01*
X193735060Y-128670920D01*
X193735062Y-128670920D01*
X193745975Y-128668749D01*
X193779658Y-128662050D01*
X193830234Y-128628256D01*
X193864028Y-128577680D01*
X193872900Y-128533079D01*
X193872899Y-125502966D01*
X193864028Y-125458364D01*
X193830234Y-125407788D01*
X193830230Y-125407785D01*
X193779659Y-125373994D01*
X193735058Y-125365122D01*
X179704947Y-125365122D01*
X179704937Y-125365123D01*
X179660344Y-125373993D01*
X179660338Y-125373996D01*
X179609769Y-125407785D01*
X179609763Y-125407791D01*
X179575972Y-125458362D01*
X179567100Y-125502962D01*
X179567100Y-128533074D01*
X170225300Y-128533074D01*
X170225300Y-87893693D01*
X171395671Y-87893693D01*
X171395671Y-115545212D01*
X171395672Y-115545212D01*
X173744328Y-115545212D01*
X173744329Y-115545212D01*
X173744329Y-87893693D01*
X171395671Y-87893693D01*
X170225300Y-87893693D01*
X170225300Y-87533038D01*
X179567600Y-87533038D01*
X179576441Y-87577485D01*
X179610123Y-87627893D01*
X179610128Y-87627898D01*
X179660536Y-87661580D01*
X179704983Y-87670421D01*
X179704990Y-87670422D01*
X184887993Y-87670422D01*
X185247206Y-87670422D01*
X188192794Y-87670422D01*
X186720000Y-86197628D01*
X185247206Y-87670422D01*
X184887993Y-87670422D01*
X186540394Y-86018022D01*
X186899605Y-86018022D01*
X188552006Y-87670422D01*
X193735010Y-87670422D01*
X193735016Y-87670421D01*
X193779463Y-87661580D01*
X193829871Y-87627898D01*
X193829876Y-87627893D01*
X193863558Y-87577485D01*
X193872399Y-87533038D01*
X193872400Y-87533031D01*
X193872400Y-84503012D01*
X193872399Y-84503005D01*
X193863558Y-84458558D01*
X193829876Y-84408150D01*
X193829871Y-84408145D01*
X193779463Y-84374463D01*
X193735016Y-84365622D01*
X188552006Y-84365622D01*
X186899605Y-86018022D01*
X186540394Y-86018022D01*
X184887994Y-84365622D01*
X185247206Y-84365622D01*
X186720000Y-85838416D01*
X188192794Y-84365622D01*
X185247206Y-84365622D01*
X184887994Y-84365622D01*
X179704983Y-84365622D01*
X179660536Y-84374463D01*
X179610128Y-84408145D01*
X179610123Y-84408150D01*
X179576441Y-84458558D01*
X179567600Y-84503005D01*
X179567600Y-87533038D01*
X170225300Y-87533038D01*
X170225300Y-85681550D01*
X170244379Y-85629131D01*
X170292689Y-85601239D01*
X170306850Y-85600000D01*
X174319999Y-85600000D01*
X174320000Y-85600000D01*
X174320000Y-82427446D01*
X174332218Y-82384512D01*
X174334064Y-82381530D01*
X174334064Y-82381528D01*
X174334067Y-82381526D01*
X174335188Y-82378630D01*
X174346157Y-82358938D01*
X174348027Y-82356463D01*
X174359271Y-82316937D01*
X174360453Y-82313411D01*
X174375300Y-82275092D01*
X174375300Y-82271984D01*
X174378414Y-82249665D01*
X174379263Y-82246680D01*
X174375474Y-82205788D01*
X174375300Y-82202024D01*
X174375300Y-75571984D01*
X174378414Y-75549665D01*
X174379263Y-75546680D01*
X174375474Y-75505788D01*
X174375300Y-75502024D01*
X174375300Y-75489734D01*
X174375300Y-75489733D01*
X174373042Y-75477654D01*
X174372521Y-75473920D01*
X174368732Y-75433029D01*
X174368732Y-75433026D01*
X174367343Y-75430237D01*
X174360185Y-75408876D01*
X174359615Y-75405826D01*
X174359615Y-75405825D01*
X174337985Y-75370892D01*
X174336165Y-75367621D01*
X174328547Y-75352322D01*
X174320000Y-75315976D01*
X174320000Y-72100001D01*
X174320000Y-72100000D01*
X170320000Y-72100000D01*
X170306850Y-72100000D01*
X170254431Y-72080921D01*
X170226539Y-72032611D01*
X170225300Y-72018450D01*
X170225300Y-68493028D01*
X173509884Y-68493028D01*
X173529115Y-68725116D01*
X173586287Y-68950882D01*
X173586289Y-68950888D01*
X173679840Y-69164163D01*
X173807224Y-69359139D01*
X173964949Y-69530473D01*
X173964954Y-69530478D01*
X174148740Y-69673524D01*
X174148742Y-69673525D01*
X174148746Y-69673528D01*
X174353559Y-69784367D01*
X174353563Y-69784369D01*
X174353570Y-69784371D01*
X174353569Y-69784371D01*
X174573833Y-69859988D01*
X174573835Y-69859988D01*
X174573837Y-69859989D01*
X174803554Y-69898322D01*
X174803559Y-69898322D01*
X175036441Y-69898322D01*
X175036446Y-69898322D01*
X175266163Y-69859989D01*
X175486437Y-69784369D01*
X175691260Y-69673524D01*
X175875046Y-69530478D01*
X175959475Y-69438763D01*
X176032775Y-69359139D01*
X176032776Y-69359137D01*
X176032780Y-69359133D01*
X176160160Y-69164163D01*
X176253712Y-68950886D01*
X176310884Y-68725119D01*
X176330116Y-68493028D01*
X183009884Y-68493028D01*
X183029115Y-68725116D01*
X183086287Y-68950882D01*
X183086289Y-68950888D01*
X183179840Y-69164163D01*
X183307224Y-69359139D01*
X183464949Y-69530473D01*
X183464954Y-69530478D01*
X183648740Y-69673524D01*
X183648742Y-69673525D01*
X183648746Y-69673528D01*
X183853559Y-69784367D01*
X183853563Y-69784369D01*
X183853570Y-69784371D01*
X183853569Y-69784371D01*
X184073833Y-69859988D01*
X184073835Y-69859988D01*
X184073837Y-69859989D01*
X184303554Y-69898322D01*
X184303559Y-69898322D01*
X184536441Y-69898322D01*
X184536446Y-69898322D01*
X184766163Y-69859989D01*
X184986437Y-69784369D01*
X185191260Y-69673524D01*
X185375046Y-69530478D01*
X185459475Y-69438763D01*
X185532775Y-69359139D01*
X185532776Y-69359137D01*
X185532780Y-69359133D01*
X185660160Y-69164163D01*
X185753712Y-68950886D01*
X185810884Y-68725119D01*
X185830116Y-68493028D01*
X192509884Y-68493028D01*
X192529115Y-68725116D01*
X192586287Y-68950882D01*
X192586289Y-68950888D01*
X192679840Y-69164163D01*
X192807224Y-69359139D01*
X192964949Y-69530473D01*
X192964954Y-69530478D01*
X193148740Y-69673524D01*
X193148742Y-69673525D01*
X193148746Y-69673528D01*
X193353559Y-69784367D01*
X193353563Y-69784369D01*
X193353570Y-69784371D01*
X193353569Y-69784371D01*
X193573833Y-69859988D01*
X193573835Y-69859988D01*
X193573837Y-69859989D01*
X193803554Y-69898322D01*
X193803559Y-69898322D01*
X194036441Y-69898322D01*
X194036446Y-69898322D01*
X194266163Y-69859989D01*
X194486437Y-69784369D01*
X194691260Y-69673524D01*
X194875046Y-69530478D01*
X194959475Y-69438763D01*
X195032775Y-69359139D01*
X195032776Y-69359137D01*
X195032780Y-69359133D01*
X195160160Y-69164163D01*
X195253712Y-68950886D01*
X195310884Y-68725119D01*
X195330116Y-68493022D01*
X195330116Y-68493015D01*
X195310884Y-68260927D01*
X195310884Y-68260925D01*
X195253712Y-68035158D01*
X195160160Y-67821881D01*
X195032780Y-67626911D01*
X195032778Y-67626909D01*
X195032775Y-67626904D01*
X194875050Y-67455570D01*
X194875047Y-67455567D01*
X194875046Y-67455566D01*
X194691260Y-67312520D01*
X194691258Y-67312518D01*
X194691253Y-67312515D01*
X194486440Y-67201676D01*
X194486430Y-67201672D01*
X194266166Y-67126055D01*
X194036448Y-67087722D01*
X194036446Y-67087722D01*
X193803554Y-67087722D01*
X193803551Y-67087722D01*
X193573833Y-67126055D01*
X193353569Y-67201672D01*
X193353559Y-67201676D01*
X193148746Y-67312515D01*
X192964952Y-67455567D01*
X192964949Y-67455570D01*
X192807224Y-67626904D01*
X192679840Y-67821880D01*
X192586289Y-68035155D01*
X192586287Y-68035161D01*
X192529115Y-68260927D01*
X192509884Y-68493015D01*
X192509884Y-68493028D01*
X185830116Y-68493028D01*
X185830116Y-68493022D01*
X185830116Y-68493015D01*
X185810884Y-68260927D01*
X185810884Y-68260925D01*
X185753712Y-68035158D01*
X185660160Y-67821881D01*
X185532780Y-67626911D01*
X185532778Y-67626909D01*
X185532775Y-67626904D01*
X185375050Y-67455570D01*
X185375047Y-67455567D01*
X185375046Y-67455566D01*
X185191260Y-67312520D01*
X185191258Y-67312518D01*
X185191253Y-67312515D01*
X184986440Y-67201676D01*
X184986430Y-67201672D01*
X184766166Y-67126055D01*
X184536448Y-67087722D01*
X184536446Y-67087722D01*
X184303554Y-67087722D01*
X184303551Y-67087722D01*
X184073833Y-67126055D01*
X183853569Y-67201672D01*
X183853559Y-67201676D01*
X183648746Y-67312515D01*
X183464952Y-67455567D01*
X183464949Y-67455570D01*
X183307224Y-67626904D01*
X183179840Y-67821880D01*
X183086289Y-68035155D01*
X183086287Y-68035161D01*
X183029115Y-68260927D01*
X183009884Y-68493015D01*
X183009884Y-68493028D01*
X176330116Y-68493028D01*
X176330116Y-68493022D01*
X176330116Y-68493015D01*
X176310884Y-68260927D01*
X176310884Y-68260925D01*
X176253712Y-68035158D01*
X176160160Y-67821881D01*
X176032780Y-67626911D01*
X176032778Y-67626909D01*
X176032775Y-67626904D01*
X175875050Y-67455570D01*
X175875047Y-67455567D01*
X175875046Y-67455566D01*
X175691260Y-67312520D01*
X175691258Y-67312518D01*
X175691253Y-67312515D01*
X175486440Y-67201676D01*
X175486430Y-67201672D01*
X175266166Y-67126055D01*
X175036448Y-67087722D01*
X175036446Y-67087722D01*
X174803554Y-67087722D01*
X174803551Y-67087722D01*
X174573833Y-67126055D01*
X174353569Y-67201672D01*
X174353559Y-67201676D01*
X174148746Y-67312515D01*
X173964952Y-67455567D01*
X173964949Y-67455570D01*
X173807224Y-67626904D01*
X173679840Y-67821880D01*
X173586289Y-68035155D01*
X173586287Y-68035161D01*
X173529115Y-68260927D01*
X173509884Y-68493015D01*
X173509884Y-68493028D01*
X170225300Y-68493028D01*
X170225300Y-65879872D01*
X170244379Y-65827453D01*
X170292689Y-65799561D01*
X170306850Y-65798322D01*
X198533150Y-65798322D01*
X198585569Y-65817401D01*
G37*
%TD.AperFunction*%
%TD*%
M02*
