%TF.GenerationSoftware,KiCad,Pcbnew,7.0.5*%
%TF.CreationDate,2024-01-23T00:39:16-05:00*%
%TF.ProjectId,SIDE,53494445-2e6b-4696-9361-645f70636258,rev?*%
%TF.SameCoordinates,Original*%
%TF.FileFunction,Copper,L2,Bot*%
%TF.FilePolarity,Positive*%
%FSLAX46Y46*%
G04 Gerber Fmt 4.6, Leading zero omitted, Abs format (unit mm)*
G04 Created by KiCad (PCBNEW 7.0.5) date 2024-01-23 00:39:16*
%MOMM*%
%LPD*%
G01*
G04 APERTURE LIST*
G04 Aperture macros list*
%AMRoundRect*
0 Rectangle with rounded corners*
0 $1 Rounding radius*
0 $2 $3 $4 $5 $6 $7 $8 $9 X,Y pos of 4 corners*
0 Add a 4 corners polygon primitive as box body*
4,1,4,$2,$3,$4,$5,$6,$7,$8,$9,$2,$3,0*
0 Add four circle primitives for the rounded corners*
1,1,$1+$1,$2,$3*
1,1,$1+$1,$4,$5*
1,1,$1+$1,$6,$7*
1,1,$1+$1,$8,$9*
0 Add four rect primitives between the rounded corners*
20,1,$1+$1,$2,$3,$4,$5,0*
20,1,$1+$1,$4,$5,$6,$7,0*
20,1,$1+$1,$6,$7,$8,$9,0*
20,1,$1+$1,$8,$9,$2,$3,0*%
G04 Aperture macros list end*
%TA.AperFunction,ComponentPad*%
%ADD10C,1.600000*%
%TD*%
%TA.AperFunction,ComponentPad*%
%ADD11O,1.600000X1.600000*%
%TD*%
%TA.AperFunction,SMDPad,CuDef*%
%ADD12R,0.600000X1.550000*%
%TD*%
%TA.AperFunction,SMDPad,CuDef*%
%ADD13R,1.200000X1.800000*%
%TD*%
%TA.AperFunction,SMDPad,CuDef*%
%ADD14R,2.500000X1.500000*%
%TD*%
%TA.AperFunction,SMDPad,CuDef*%
%ADD15RoundRect,0.250000X-0.450000X0.325000X-0.450000X-0.325000X0.450000X-0.325000X0.450000X0.325000X0*%
%TD*%
%TA.AperFunction,ViaPad*%
%ADD16C,0.660400*%
%TD*%
%TA.AperFunction,Conductor*%
%ADD17C,0.508000*%
%TD*%
%TA.AperFunction,Conductor*%
%ADD18C,2.500000*%
%TD*%
G04 APERTURE END LIST*
D10*
%TO.P,R6,1*%
%TO.N,/BR+*%
X172320000Y-83930000D03*
D11*
%TO.P,R6,2*%
%TO.N,/BR-*%
X172320000Y-73770000D03*
%TD*%
D12*
%TO.P,J3,1,1*%
%TO.N,/SC*%
X183820000Y-125943022D03*
%TO.P,J3,2,2*%
%TO.N,GND*%
X184820000Y-125943022D03*
D13*
%TO.P,J3,3,3*%
X182520000Y-122068022D03*
%TO.P,J3,4,4*%
X186120000Y-122068022D03*
%TD*%
D14*
%TO.P,J2,1*%
%TO.N,/BR-*%
X179820000Y-77718022D03*
%TD*%
D15*
%TO.P,D1,1,K*%
%TO.N,/SC*%
X189420000Y-121993022D03*
%TO.P,D1,2,A*%
%TO.N,Net-(D1-A)*%
X189420000Y-124043022D03*
%TD*%
D14*
%TO.P,J1,1*%
%TO.N,/BR+*%
X179820000Y-82018022D03*
%TD*%
D16*
%TO.N,GND*%
X194720000Y-112718022D03*
X184720000Y-120218022D03*
X179720000Y-95218022D03*
X179720000Y-102718022D03*
X184720000Y-107718022D03*
X189720000Y-97718022D03*
X192220000Y-107718022D03*
X177220000Y-107718022D03*
X179720000Y-100218022D03*
X182220000Y-117718022D03*
X194720000Y-120218022D03*
X192220000Y-120218022D03*
X179720000Y-110218022D03*
X182220000Y-71218022D03*
X177220000Y-100218022D03*
X179720000Y-115218022D03*
X187220000Y-115218022D03*
X182220000Y-110218022D03*
X189720000Y-92718022D03*
X177220000Y-115218022D03*
X179220000Y-71218022D03*
X182220000Y-102718022D03*
X189720000Y-107718022D03*
X177220000Y-122718022D03*
X182220000Y-120218022D03*
X177220000Y-105218022D03*
X184720000Y-102718022D03*
X189720000Y-115218022D03*
X192220000Y-115218022D03*
X177220000Y-117718022D03*
X177220000Y-120218022D03*
X187220000Y-120218022D03*
X191220000Y-71218022D03*
X192220000Y-122718022D03*
X187220000Y-112718022D03*
X189720000Y-117718022D03*
X189720000Y-112718022D03*
X177220000Y-95218022D03*
X182220000Y-97718022D03*
X194720000Y-107718022D03*
X194220000Y-71218022D03*
X194720000Y-92718022D03*
X184720000Y-112718022D03*
X192220000Y-100218022D03*
X184720000Y-105218022D03*
X192220000Y-110218022D03*
X182220000Y-92718022D03*
X179720000Y-112718022D03*
X179720000Y-120218022D03*
X192220000Y-95218022D03*
X194720000Y-122718022D03*
X189720000Y-105218022D03*
X187220000Y-95218022D03*
X182220000Y-115218022D03*
X194720000Y-102718022D03*
X187220000Y-92718022D03*
X182220000Y-107718022D03*
X179720000Y-117718022D03*
X192220000Y-117718022D03*
X187220000Y-97718022D03*
X192220000Y-112718022D03*
X187220000Y-105218022D03*
X189720000Y-102718022D03*
X192220000Y-97718022D03*
X184720000Y-110218022D03*
X188220000Y-71218022D03*
X189720000Y-120218022D03*
X179720000Y-92718022D03*
X187220000Y-110218022D03*
X184720000Y-117718022D03*
X194720000Y-105218022D03*
X189720000Y-100218022D03*
X194720000Y-100218022D03*
X182220000Y-112718022D03*
X179720000Y-97718022D03*
X177220000Y-97718022D03*
X182220000Y-100218022D03*
X192220000Y-102718022D03*
X187220000Y-107718022D03*
X177220000Y-112718022D03*
X187220000Y-100218022D03*
X194720000Y-115218022D03*
X184720000Y-92718022D03*
X177220000Y-102718022D03*
X189720000Y-110218022D03*
X179720000Y-122718022D03*
X187220000Y-102718022D03*
X184720000Y-95218022D03*
X187220000Y-117718022D03*
X192220000Y-105218022D03*
X192220000Y-92718022D03*
X179720000Y-105218022D03*
X194720000Y-110218022D03*
X182220000Y-95218022D03*
X189720000Y-95218022D03*
X177220000Y-92718022D03*
X179720000Y-107718022D03*
X194720000Y-117718022D03*
X184720000Y-97718022D03*
X177220000Y-110218022D03*
X184720000Y-115218022D03*
X185220000Y-71218022D03*
X184720000Y-100218022D03*
X182220000Y-105218022D03*
X194720000Y-95218022D03*
X194720000Y-97718022D03*
%TO.N,Net-(D1-A)*%
X188820000Y-126718022D03*
X188120000Y-127418022D03*
X187020000Y-127418022D03*
X185920000Y-127418022D03*
%TD*%
D17*
%TO.N,/SC*%
X189420000Y-121993022D02*
X189145000Y-121993022D01*
X184520000Y-124018022D02*
X183820000Y-124718022D01*
X187120000Y-124018022D02*
X184520000Y-124018022D01*
X183820000Y-125943022D02*
X183820000Y-124718022D01*
X189145000Y-121993022D02*
X187120000Y-124018022D01*
%TO.N,Net-(D1-A)*%
X188820000Y-126718022D02*
X188120000Y-127418022D01*
X189420000Y-124043022D02*
X189420000Y-126118022D01*
X187020000Y-127418022D02*
X188120000Y-127418022D01*
X189420000Y-126118022D02*
X188820000Y-126718022D01*
X185920000Y-127418022D02*
X187020000Y-127418022D01*
D18*
%TO.N,/BR+*%
X172320000Y-83930000D02*
X177908022Y-83930000D01*
X177908022Y-83930000D02*
X179820000Y-82018022D01*
%TO.N,/BR-*%
X175871978Y-73770000D02*
X179820000Y-77718022D01*
X172320000Y-73770000D02*
X175871978Y-73770000D01*
%TD*%
%TA.AperFunction,Conductor*%
%TO.N,GND*%
G36*
X198585569Y-65817401D02*
G01*
X198613461Y-65865711D01*
X198614700Y-65879872D01*
X198614700Y-133106172D01*
X198595621Y-133158591D01*
X198547311Y-133186483D01*
X198533150Y-133187722D01*
X170306850Y-133187722D01*
X170254431Y-133168643D01*
X170226539Y-133120333D01*
X170225300Y-133106172D01*
X170225300Y-131293028D01*
X173509884Y-131293028D01*
X173529115Y-131525116D01*
X173586287Y-131750882D01*
X173586289Y-131750888D01*
X173679840Y-131964163D01*
X173807224Y-132159139D01*
X173964949Y-132330473D01*
X173964954Y-132330478D01*
X174148740Y-132473524D01*
X174148742Y-132473525D01*
X174148746Y-132473528D01*
X174353559Y-132584367D01*
X174353563Y-132584369D01*
X174353570Y-132584371D01*
X174353569Y-132584371D01*
X174573833Y-132659988D01*
X174573835Y-132659988D01*
X174573837Y-132659989D01*
X174803554Y-132698322D01*
X174803559Y-132698322D01*
X175036441Y-132698322D01*
X175036446Y-132698322D01*
X175266163Y-132659989D01*
X175486437Y-132584369D01*
X175691260Y-132473524D01*
X175875046Y-132330478D01*
X175959475Y-132238763D01*
X176032775Y-132159139D01*
X176032776Y-132159137D01*
X176032780Y-132159133D01*
X176160160Y-131964163D01*
X176253712Y-131750886D01*
X176310884Y-131525119D01*
X176330116Y-131293028D01*
X183009884Y-131293028D01*
X183029115Y-131525116D01*
X183086287Y-131750882D01*
X183086289Y-131750888D01*
X183179840Y-131964163D01*
X183307224Y-132159139D01*
X183464949Y-132330473D01*
X183464954Y-132330478D01*
X183648740Y-132473524D01*
X183648742Y-132473525D01*
X183648746Y-132473528D01*
X183853559Y-132584367D01*
X183853563Y-132584369D01*
X183853570Y-132584371D01*
X183853569Y-132584371D01*
X184073833Y-132659988D01*
X184073835Y-132659988D01*
X184073837Y-132659989D01*
X184303554Y-132698322D01*
X184303559Y-132698322D01*
X184536441Y-132698322D01*
X184536446Y-132698322D01*
X184766163Y-132659989D01*
X184986437Y-132584369D01*
X185191260Y-132473524D01*
X185375046Y-132330478D01*
X185459475Y-132238763D01*
X185532775Y-132159139D01*
X185532776Y-132159137D01*
X185532780Y-132159133D01*
X185660160Y-131964163D01*
X185753712Y-131750886D01*
X185810884Y-131525119D01*
X185830116Y-131293028D01*
X192509884Y-131293028D01*
X192529115Y-131525116D01*
X192586287Y-131750882D01*
X192586289Y-131750888D01*
X192679840Y-131964163D01*
X192807224Y-132159139D01*
X192964949Y-132330473D01*
X192964954Y-132330478D01*
X193148740Y-132473524D01*
X193148742Y-132473525D01*
X193148746Y-132473528D01*
X193353559Y-132584367D01*
X193353563Y-132584369D01*
X193353570Y-132584371D01*
X193353569Y-132584371D01*
X193573833Y-132659988D01*
X193573835Y-132659988D01*
X193573837Y-132659989D01*
X193803554Y-132698322D01*
X193803559Y-132698322D01*
X194036441Y-132698322D01*
X194036446Y-132698322D01*
X194266163Y-132659989D01*
X194486437Y-132584369D01*
X194691260Y-132473524D01*
X194875046Y-132330478D01*
X194959475Y-132238763D01*
X195032775Y-132159139D01*
X195032776Y-132159137D01*
X195032780Y-132159133D01*
X195160160Y-131964163D01*
X195253712Y-131750886D01*
X195310884Y-131525119D01*
X195330116Y-131293022D01*
X195330116Y-131293015D01*
X195310884Y-131060927D01*
X195310884Y-131060925D01*
X195253712Y-130835158D01*
X195160160Y-130621881D01*
X195032780Y-130426911D01*
X195032778Y-130426909D01*
X195032775Y-130426904D01*
X194875050Y-130255570D01*
X194875047Y-130255567D01*
X194875046Y-130255566D01*
X194691260Y-130112520D01*
X194691258Y-130112518D01*
X194691253Y-130112515D01*
X194486440Y-130001676D01*
X194486430Y-130001672D01*
X194266166Y-129926055D01*
X194036448Y-129887722D01*
X194036446Y-129887722D01*
X193803554Y-129887722D01*
X193803551Y-129887722D01*
X193573833Y-129926055D01*
X193353569Y-130001672D01*
X193353559Y-130001676D01*
X193148746Y-130112515D01*
X192964952Y-130255567D01*
X192964949Y-130255570D01*
X192807224Y-130426904D01*
X192679840Y-130621880D01*
X192586289Y-130835155D01*
X192586287Y-130835161D01*
X192529115Y-131060927D01*
X192509884Y-131293015D01*
X192509884Y-131293028D01*
X185830116Y-131293028D01*
X185830116Y-131293022D01*
X185830116Y-131293015D01*
X185810884Y-131060927D01*
X185810884Y-131060925D01*
X185753712Y-130835158D01*
X185660160Y-130621881D01*
X185532780Y-130426911D01*
X185532778Y-130426909D01*
X185532775Y-130426904D01*
X185375050Y-130255570D01*
X185375047Y-130255567D01*
X185375046Y-130255566D01*
X185191260Y-130112520D01*
X185191258Y-130112518D01*
X185191253Y-130112515D01*
X184986440Y-130001676D01*
X184986430Y-130001672D01*
X184766166Y-129926055D01*
X184536448Y-129887722D01*
X184536446Y-129887722D01*
X184303554Y-129887722D01*
X184303551Y-129887722D01*
X184073833Y-129926055D01*
X183853569Y-130001672D01*
X183853559Y-130001676D01*
X183648746Y-130112515D01*
X183464952Y-130255567D01*
X183464949Y-130255570D01*
X183307224Y-130426904D01*
X183179840Y-130621880D01*
X183086289Y-130835155D01*
X183086287Y-130835161D01*
X183029115Y-131060927D01*
X183009884Y-131293015D01*
X183009884Y-131293028D01*
X176330116Y-131293028D01*
X176330116Y-131293022D01*
X176330116Y-131293015D01*
X176310884Y-131060927D01*
X176310884Y-131060925D01*
X176253712Y-130835158D01*
X176160160Y-130621881D01*
X176032780Y-130426911D01*
X176032778Y-130426909D01*
X176032775Y-130426904D01*
X175875050Y-130255570D01*
X175875047Y-130255567D01*
X175875046Y-130255566D01*
X175691260Y-130112520D01*
X175691258Y-130112518D01*
X175691253Y-130112515D01*
X175486440Y-130001676D01*
X175486430Y-130001672D01*
X175266166Y-129926055D01*
X175036448Y-129887722D01*
X175036446Y-129887722D01*
X174803554Y-129887722D01*
X174803551Y-129887722D01*
X174573833Y-129926055D01*
X174353569Y-130001672D01*
X174353559Y-130001676D01*
X174148746Y-130112515D01*
X173964952Y-130255567D01*
X173964949Y-130255570D01*
X173807224Y-130426904D01*
X173679840Y-130621880D01*
X173586289Y-130835155D01*
X173586287Y-130835161D01*
X173529115Y-131060927D01*
X173509884Y-131293015D01*
X173509884Y-131293028D01*
X170225300Y-131293028D01*
X170225300Y-127418022D01*
X185431932Y-127418022D01*
X185451701Y-127555525D01*
X185451702Y-127555527D01*
X185509411Y-127681891D01*
X185600383Y-127786879D01*
X185600385Y-127786880D01*
X185717243Y-127861981D01*
X185717245Y-127861982D01*
X185717246Y-127861982D01*
X185717249Y-127861984D01*
X185850541Y-127901122D01*
X185850542Y-127901122D01*
X185989458Y-127901122D01*
X185989459Y-127901122D01*
X186122751Y-127861984D01*
X186149246Y-127844956D01*
X186160277Y-127837868D01*
X186204366Y-127824922D01*
X186735634Y-127824922D01*
X186779723Y-127837868D01*
X186805782Y-127854615D01*
X186817249Y-127861984D01*
X186950541Y-127901122D01*
X186950542Y-127901122D01*
X187089458Y-127901122D01*
X187089459Y-127901122D01*
X187222751Y-127861984D01*
X187249246Y-127844956D01*
X187260277Y-127837868D01*
X187304366Y-127824922D01*
X187835634Y-127824922D01*
X187879723Y-127837868D01*
X187905782Y-127854615D01*
X187917249Y-127861984D01*
X188050541Y-127901122D01*
X188050542Y-127901122D01*
X188189458Y-127901122D01*
X188189459Y-127901122D01*
X188322751Y-127861984D01*
X188322758Y-127861980D01*
X188360276Y-127837868D01*
X188439617Y-127786879D01*
X188530589Y-127681891D01*
X188588298Y-127555527D01*
X188589532Y-127546937D01*
X188612586Y-127500877D01*
X188907139Y-127206325D01*
X188941824Y-127185745D01*
X189022751Y-127161984D01*
X189139617Y-127086879D01*
X189230589Y-126981891D01*
X189288298Y-126855527D01*
X189289532Y-126846937D01*
X189312587Y-126800876D01*
X189730366Y-126383099D01*
X189730365Y-126383099D01*
X189753292Y-126360173D01*
X189765100Y-126336996D01*
X189771774Y-126326105D01*
X189787070Y-126305054D01*
X189795108Y-126280312D01*
X189800002Y-126268498D01*
X189811809Y-126245328D01*
X189815877Y-126219633D01*
X189818864Y-126207199D01*
X189826900Y-126182471D01*
X189826900Y-124852193D01*
X189845979Y-124799774D01*
X189894289Y-124771882D01*
X189901160Y-124771008D01*
X189901703Y-124770922D01*
X189901708Y-124770922D01*
X189996055Y-124755979D01*
X190109771Y-124698038D01*
X190200016Y-124607793D01*
X190257957Y-124494077D01*
X190272900Y-124399730D01*
X190272900Y-123686314D01*
X190257957Y-123591967D01*
X190200016Y-123478251D01*
X190109771Y-123388006D01*
X189996055Y-123330065D01*
X189996053Y-123330064D01*
X189996052Y-123330064D01*
X189923577Y-123318585D01*
X189901708Y-123315122D01*
X188938292Y-123315122D01*
X188920538Y-123317933D01*
X188843947Y-123330064D01*
X188730229Y-123388006D01*
X188639984Y-123478251D01*
X188582042Y-123591969D01*
X188567100Y-123686314D01*
X188567100Y-124399729D01*
X188582042Y-124494074D01*
X188582042Y-124494075D01*
X188582043Y-124494077D01*
X188639984Y-124607793D01*
X188730229Y-124698038D01*
X188843945Y-124755979D01*
X188938292Y-124770922D01*
X188938293Y-124770922D01*
X188941456Y-124771423D01*
X188941297Y-124772424D01*
X188988701Y-124794020D01*
X189012724Y-124844366D01*
X189013100Y-124852193D01*
X189013100Y-125915698D01*
X188994021Y-125968117D01*
X188989214Y-125973363D01*
X188732860Y-126229716D01*
X188698173Y-126250297D01*
X188617248Y-126274060D01*
X188617243Y-126274062D01*
X188500385Y-126349163D01*
X188409411Y-126454153D01*
X188409409Y-126454156D01*
X188351703Y-126580513D01*
X188351700Y-126580523D01*
X188350465Y-126589112D01*
X188327411Y-126635166D01*
X188032861Y-126929716D01*
X187998173Y-126950297D01*
X187917248Y-126974060D01*
X187917246Y-126974060D01*
X187879724Y-126998176D01*
X187835634Y-127011122D01*
X187304366Y-127011122D01*
X187260277Y-126998176D01*
X187222756Y-126974063D01*
X187222754Y-126974062D01*
X187222751Y-126974060D01*
X187089459Y-126934922D01*
X186950541Y-126934922D01*
X186817248Y-126974060D01*
X186817249Y-126974060D01*
X186817243Y-126974063D01*
X186779723Y-126998176D01*
X186735634Y-127011122D01*
X186204366Y-127011122D01*
X186160277Y-126998176D01*
X186122756Y-126974063D01*
X186122754Y-126974062D01*
X186122751Y-126974060D01*
X185989459Y-126934922D01*
X185850541Y-126934922D01*
X185766933Y-126959471D01*
X185717245Y-126974061D01*
X185717243Y-126974062D01*
X185600385Y-127049163D01*
X185509411Y-127154153D01*
X185509409Y-127154156D01*
X185451703Y-127280513D01*
X185451701Y-127280518D01*
X185431932Y-127418022D01*
X170225300Y-127418022D01*
X170225300Y-126733074D01*
X183367100Y-126733074D01*
X183367101Y-126733084D01*
X183375971Y-126777677D01*
X183375974Y-126777683D01*
X183409526Y-126827898D01*
X183409766Y-126828256D01*
X183409769Y-126828258D01*
X183460340Y-126862049D01*
X183460342Y-126862050D01*
X183504943Y-126870922D01*
X184135056Y-126870921D01*
X184135060Y-126870920D01*
X184135062Y-126870920D01*
X184145975Y-126868749D01*
X184179658Y-126862050D01*
X184230234Y-126828256D01*
X184252493Y-126794942D01*
X184297480Y-126761957D01*
X184353144Y-126765605D01*
X184388106Y-126794942D01*
X184410123Y-126827893D01*
X184410128Y-126827898D01*
X184460536Y-126861580D01*
X184504983Y-126870421D01*
X184504990Y-126870422D01*
X185135010Y-126870422D01*
X185135016Y-126870421D01*
X185179463Y-126861580D01*
X185229871Y-126827898D01*
X185229876Y-126827893D01*
X185263558Y-126777485D01*
X185272399Y-126733038D01*
X185272400Y-126733031D01*
X185272400Y-126575028D01*
X184698059Y-126000687D01*
X184674484Y-125950130D01*
X184676389Y-125943021D01*
X184999605Y-125943021D01*
X185272400Y-126215816D01*
X185272400Y-125670227D01*
X184999605Y-125943021D01*
X184676389Y-125943021D01*
X184688922Y-125896247D01*
X184698060Y-125885357D01*
X184820001Y-125763417D01*
X185272399Y-125311016D01*
X185272400Y-125311015D01*
X185272400Y-125153012D01*
X185272399Y-125153005D01*
X185263558Y-125108558D01*
X185229876Y-125058150D01*
X185229871Y-125058145D01*
X185179463Y-125024463D01*
X185135016Y-125015622D01*
X184504983Y-125015622D01*
X184460536Y-125024463D01*
X184410128Y-125058145D01*
X184410125Y-125058148D01*
X184388106Y-125091102D01*
X184343119Y-125124086D01*
X184287455Y-125120437D01*
X184252496Y-125091105D01*
X184251169Y-125089119D01*
X184240643Y-125073366D01*
X184226900Y-125028062D01*
X184226900Y-124920343D01*
X184245980Y-124867924D01*
X184250786Y-124862679D01*
X184664659Y-124448807D01*
X184715216Y-124425232D01*
X184722323Y-124424922D01*
X187184448Y-124424922D01*
X187184448Y-124424921D01*
X187197370Y-124420722D01*
X187209179Y-124416886D01*
X187221621Y-124413898D01*
X187247306Y-124409831D01*
X187270475Y-124398024D01*
X187282291Y-124393129D01*
X187307032Y-124385092D01*
X187328083Y-124369796D01*
X187338976Y-124363121D01*
X187362151Y-124351314D01*
X187453292Y-124260173D01*
X187453291Y-124260173D01*
X188398343Y-123315122D01*
X188968659Y-122744807D01*
X189019217Y-122721232D01*
X189026324Y-122720922D01*
X189901707Y-122720922D01*
X189901708Y-122720922D01*
X189996055Y-122705979D01*
X190109771Y-122648038D01*
X190200016Y-122557793D01*
X190257957Y-122444077D01*
X190272900Y-122349730D01*
X190272900Y-121636314D01*
X190257957Y-121541967D01*
X190200016Y-121428251D01*
X190109771Y-121338006D01*
X189996055Y-121280065D01*
X189996053Y-121280064D01*
X189996052Y-121280064D01*
X189923577Y-121268585D01*
X189901708Y-121265122D01*
X188938292Y-121265122D01*
X188920538Y-121267933D01*
X188843947Y-121280064D01*
X188730229Y-121338006D01*
X188639984Y-121428251D01*
X188582042Y-121541969D01*
X188567100Y-121636314D01*
X188567100Y-121961698D01*
X188548021Y-122014117D01*
X188543215Y-122019363D01*
X186975342Y-123587237D01*
X186924785Y-123610812D01*
X186917677Y-123611122D01*
X184486314Y-123611122D01*
X184486290Y-123611123D01*
X184455549Y-123611123D01*
X184430823Y-123619157D01*
X184418383Y-123622144D01*
X184392692Y-123626213D01*
X184392691Y-123626213D01*
X184369519Y-123638020D01*
X184357701Y-123642916D01*
X184332968Y-123650952D01*
X184332963Y-123650955D01*
X184311927Y-123666238D01*
X184301023Y-123672921D01*
X184277850Y-123684729D01*
X184277849Y-123684730D01*
X184254925Y-123707653D01*
X184254922Y-123707656D01*
X184254917Y-123707660D01*
X183916382Y-124046194D01*
X183577848Y-124384730D01*
X183577849Y-124384730D01*
X183486708Y-124475870D01*
X183474900Y-124499043D01*
X183468217Y-124509948D01*
X183452931Y-124530987D01*
X183452930Y-124530990D01*
X183444892Y-124555727D01*
X183439997Y-124567544D01*
X183428189Y-124590719D01*
X183424120Y-124616404D01*
X183421136Y-124628836D01*
X183413100Y-124653573D01*
X183413100Y-125028059D01*
X183399356Y-125073366D01*
X183375972Y-125108361D01*
X183367100Y-125152962D01*
X183367100Y-126733074D01*
X170225300Y-126733074D01*
X170225300Y-122997207D01*
X181770419Y-122997207D01*
X181776441Y-123027484D01*
X181776441Y-123027485D01*
X181810123Y-123077893D01*
X181810128Y-123077898D01*
X181860536Y-123111580D01*
X181904983Y-123120421D01*
X181904990Y-123120422D01*
X183135010Y-123120422D01*
X183135016Y-123120421D01*
X183179463Y-123111580D01*
X183229871Y-123077898D01*
X183229874Y-123077895D01*
X183263557Y-123027486D01*
X183269579Y-122997207D01*
X185370419Y-122997207D01*
X185376441Y-123027484D01*
X185376441Y-123027485D01*
X185410123Y-123077893D01*
X185410128Y-123077898D01*
X185460536Y-123111580D01*
X185504983Y-123120421D01*
X185504990Y-123120422D01*
X186735010Y-123120422D01*
X186735016Y-123120421D01*
X186779463Y-123111580D01*
X186829871Y-123077898D01*
X186829874Y-123077895D01*
X186863557Y-123027486D01*
X186869579Y-122997207D01*
X186119999Y-122247627D01*
X185370419Y-122997207D01*
X183269579Y-122997207D01*
X182519999Y-122247627D01*
X181770419Y-122997207D01*
X170225300Y-122997207D01*
X170225300Y-121495227D01*
X181767600Y-121495227D01*
X181767600Y-122640816D01*
X182340393Y-122068022D01*
X182699604Y-122068022D01*
X183272400Y-122640816D01*
X183272400Y-121495227D01*
X185367600Y-121495227D01*
X185367600Y-122640816D01*
X185940394Y-122068021D01*
X186299605Y-122068021D01*
X186872400Y-122640816D01*
X186872400Y-121495227D01*
X186299605Y-122068021D01*
X185940394Y-122068021D01*
X185367600Y-121495227D01*
X183272400Y-121495227D01*
X182699604Y-122068022D01*
X182340393Y-122068022D01*
X182340394Y-122068021D01*
X181767600Y-121495227D01*
X170225300Y-121495227D01*
X170225300Y-121138835D01*
X181770419Y-121138835D01*
X182519999Y-121888415D01*
X183269579Y-121138835D01*
X185370419Y-121138835D01*
X186119999Y-121888415D01*
X186869579Y-121138835D01*
X186863558Y-121108560D01*
X186863556Y-121108555D01*
X186829876Y-121058150D01*
X186829871Y-121058145D01*
X186779463Y-121024463D01*
X186735016Y-121015622D01*
X185504983Y-121015622D01*
X185460536Y-121024463D01*
X185410128Y-121058145D01*
X185410123Y-121058150D01*
X185376441Y-121108558D01*
X185370419Y-121138835D01*
X183269579Y-121138835D01*
X183263558Y-121108560D01*
X183263556Y-121108555D01*
X183229876Y-121058150D01*
X183229871Y-121058145D01*
X183179463Y-121024463D01*
X183135016Y-121015622D01*
X181904983Y-121015622D01*
X181860536Y-121024463D01*
X181810128Y-121058145D01*
X181810123Y-121058150D01*
X181776441Y-121108558D01*
X181770419Y-121138835D01*
X170225300Y-121138835D01*
X170225300Y-85681550D01*
X170244379Y-85629131D01*
X170292689Y-85601239D01*
X170306850Y-85600000D01*
X174319999Y-85600000D01*
X174320000Y-85600000D01*
X174320000Y-85414450D01*
X174339079Y-85362031D01*
X174387389Y-85334139D01*
X174401550Y-85332900D01*
X177862038Y-85332900D01*
X177864634Y-85332983D01*
X177893489Y-85334822D01*
X177937906Y-85337655D01*
X178041449Y-85326622D01*
X178042150Y-85326555D01*
X178145970Y-85317720D01*
X178154591Y-85315474D01*
X178166510Y-85313299D01*
X178175371Y-85312356D01*
X178275577Y-85283979D01*
X178276252Y-85283796D01*
X178377074Y-85257545D01*
X178385203Y-85253869D01*
X178396563Y-85249720D01*
X178405146Y-85247290D01*
X178499084Y-85202400D01*
X178499786Y-85202074D01*
X178594683Y-85159179D01*
X178602067Y-85154187D01*
X178612571Y-85148172D01*
X178620618Y-85144328D01*
X178705728Y-85084131D01*
X178706168Y-85083827D01*
X178792538Y-85025453D01*
X178798975Y-85019282D01*
X178808311Y-85011578D01*
X178815591Y-85006431D01*
X178889225Y-84932795D01*
X178889703Y-84932326D01*
X178964948Y-84860212D01*
X178970249Y-84853043D01*
X178978141Y-84843880D01*
X180854139Y-82967884D01*
X180869296Y-82949905D01*
X180917671Y-82922127D01*
X180931645Y-82920921D01*
X181085052Y-82920921D01*
X181085056Y-82920921D01*
X181085060Y-82920920D01*
X181085062Y-82920920D01*
X181095975Y-82918749D01*
X181129658Y-82912050D01*
X181180234Y-82878256D01*
X181214028Y-82827680D01*
X181222900Y-82783079D01*
X181222899Y-82033391D01*
X181222908Y-82032526D01*
X181223247Y-82016535D01*
X181225119Y-81928422D01*
X181223798Y-81919597D01*
X181222899Y-81907523D01*
X181222899Y-81252969D01*
X181222898Y-81252959D01*
X181214028Y-81208366D01*
X181214028Y-81208364D01*
X181180234Y-81157788D01*
X181180230Y-81157785D01*
X181129659Y-81123994D01*
X181085059Y-81115122D01*
X181085057Y-81115122D01*
X180935268Y-81115122D01*
X180882849Y-81096043D01*
X180870747Y-81083446D01*
X180856943Y-81065587D01*
X180721944Y-80941590D01*
X180681064Y-80904041D01*
X180480419Y-80774547D01*
X180480416Y-80774545D01*
X180260768Y-80680820D01*
X180260765Y-80680819D01*
X180260760Y-80680817D01*
X180028448Y-80625566D01*
X180028441Y-80625565D01*
X179790115Y-80610367D01*
X179790109Y-80610367D01*
X179552650Y-80635666D01*
X179322873Y-80700732D01*
X179322869Y-80700734D01*
X179107402Y-80803695D01*
X178912431Y-80941590D01*
X178762783Y-81091237D01*
X178712226Y-81114812D01*
X178705120Y-81115122D01*
X178554947Y-81115122D01*
X178554937Y-81115123D01*
X178510344Y-81123993D01*
X178510338Y-81123996D01*
X178459769Y-81157785D01*
X178459763Y-81157791D01*
X178425972Y-81208362D01*
X178417100Y-81252962D01*
X178417100Y-81403141D01*
X178398021Y-81455560D01*
X178393215Y-81460806D01*
X177350807Y-82503215D01*
X177300250Y-82526790D01*
X177293142Y-82527100D01*
X174401550Y-82527100D01*
X174349131Y-82508021D01*
X174321239Y-82459711D01*
X174320000Y-82445550D01*
X174320000Y-82427447D01*
X174332218Y-82384512D01*
X174334064Y-82381530D01*
X174334064Y-82381528D01*
X174334067Y-82381526D01*
X174335188Y-82378630D01*
X174346157Y-82358938D01*
X174348027Y-82356463D01*
X174359271Y-82316937D01*
X174360453Y-82313411D01*
X174375300Y-82275092D01*
X174375300Y-82271984D01*
X174378414Y-82249665D01*
X174379263Y-82246680D01*
X174375474Y-82205788D01*
X174375300Y-82202024D01*
X174375300Y-75571984D01*
X174378414Y-75549665D01*
X174379263Y-75546680D01*
X174375474Y-75505788D01*
X174375300Y-75502024D01*
X174375300Y-75489734D01*
X174375300Y-75489733D01*
X174373042Y-75477654D01*
X174372521Y-75473920D01*
X174368732Y-75433029D01*
X174368732Y-75433026D01*
X174367343Y-75430237D01*
X174360185Y-75408876D01*
X174359615Y-75405826D01*
X174359615Y-75405825D01*
X174337985Y-75370892D01*
X174336165Y-75367621D01*
X174328547Y-75352322D01*
X174320000Y-75315976D01*
X174320000Y-75254450D01*
X174339079Y-75202031D01*
X174387389Y-75174139D01*
X174401550Y-75172900D01*
X175257098Y-75172900D01*
X175309517Y-75191979D01*
X175314763Y-75196785D01*
X178393215Y-78275238D01*
X178416790Y-78325795D01*
X178417100Y-78332902D01*
X178417100Y-78483074D01*
X178417101Y-78483084D01*
X178425971Y-78527677D01*
X178425972Y-78527680D01*
X178459766Y-78578256D01*
X178459769Y-78578258D01*
X178510340Y-78612049D01*
X178510342Y-78612050D01*
X178554943Y-78620922D01*
X178705117Y-78620921D01*
X178757537Y-78640000D01*
X178762782Y-78644806D01*
X178870134Y-78752156D01*
X178870138Y-78752161D01*
X179006988Y-78867543D01*
X179006990Y-78867544D01*
X179006991Y-78867545D01*
X179212948Y-78988405D01*
X179212950Y-78988406D01*
X179212954Y-78988408D01*
X179436382Y-79072725D01*
X179436388Y-79072726D01*
X179436391Y-79072727D01*
X179514250Y-79087785D01*
X179670845Y-79118071D01*
X179909600Y-79123141D01*
X180145777Y-79087786D01*
X180372583Y-79013026D01*
X180583491Y-78901012D01*
X180772435Y-78754965D01*
X180772439Y-78754960D01*
X180772442Y-78754958D01*
X180871320Y-78647306D01*
X180920830Y-78621606D01*
X180931380Y-78620921D01*
X181085052Y-78620921D01*
X181085056Y-78620921D01*
X181085060Y-78620920D01*
X181085062Y-78620920D01*
X181095975Y-78618749D01*
X181129658Y-78612050D01*
X181180234Y-78578256D01*
X181214028Y-78527680D01*
X181222900Y-78483079D01*
X181222899Y-77764012D01*
X181222982Y-77761417D01*
X181224843Y-77732217D01*
X181227655Y-77688137D01*
X181223129Y-77645654D01*
X181222899Y-77641332D01*
X181222899Y-76952969D01*
X181222898Y-76952959D01*
X181214028Y-76908366D01*
X181214028Y-76908364D01*
X181180234Y-76857788D01*
X181180230Y-76857785D01*
X181129659Y-76823994D01*
X181085059Y-76815122D01*
X181085057Y-76815122D01*
X180934880Y-76815122D01*
X180882461Y-76796043D01*
X180877215Y-76791237D01*
X176896484Y-72810505D01*
X176894707Y-72808611D01*
X176846209Y-72753506D01*
X176846203Y-72753501D01*
X176846201Y-72753499D01*
X176765247Y-72688134D01*
X176764579Y-72687583D01*
X176732720Y-72660722D01*
X176684990Y-72620479D01*
X176684987Y-72620477D01*
X176677294Y-72615962D01*
X176667344Y-72609082D01*
X176660410Y-72603484D01*
X176660404Y-72603480D01*
X176569549Y-72552725D01*
X176568798Y-72552295D01*
X176479029Y-72499616D01*
X176479018Y-72499611D01*
X176470678Y-72496464D01*
X176459709Y-72491365D01*
X176451923Y-72487016D01*
X176451919Y-72487014D01*
X176451918Y-72487014D01*
X176426149Y-72477909D01*
X176353748Y-72452328D01*
X176352990Y-72452051D01*
X176255598Y-72415297D01*
X176255595Y-72415296D01*
X176246842Y-72413603D01*
X176235173Y-72410432D01*
X176226754Y-72407458D01*
X176124146Y-72389864D01*
X176123295Y-72389708D01*
X176021138Y-72369950D01*
X176021123Y-72369949D01*
X176012208Y-72369759D01*
X176000169Y-72368606D01*
X175991386Y-72367100D01*
X175991382Y-72367100D01*
X175887345Y-72367100D01*
X175886480Y-72367091D01*
X175782378Y-72364881D01*
X175782371Y-72364881D01*
X175774307Y-72366089D01*
X175773559Y-72366201D01*
X175761487Y-72367100D01*
X174401550Y-72367100D01*
X174349131Y-72348021D01*
X174321239Y-72299711D01*
X174320000Y-72285550D01*
X174320000Y-72100000D01*
X170320000Y-72100000D01*
X170306850Y-72100000D01*
X170254431Y-72080921D01*
X170226539Y-72032611D01*
X170225300Y-72018450D01*
X170225300Y-68493028D01*
X173509884Y-68493028D01*
X173529115Y-68725116D01*
X173586287Y-68950882D01*
X173586289Y-68950888D01*
X173679840Y-69164163D01*
X173807224Y-69359139D01*
X173964949Y-69530473D01*
X173964954Y-69530478D01*
X174148740Y-69673524D01*
X174148742Y-69673525D01*
X174148746Y-69673528D01*
X174353559Y-69784367D01*
X174353563Y-69784369D01*
X174353570Y-69784371D01*
X174353569Y-69784371D01*
X174573833Y-69859988D01*
X174573835Y-69859988D01*
X174573837Y-69859989D01*
X174803554Y-69898322D01*
X174803559Y-69898322D01*
X175036441Y-69898322D01*
X175036446Y-69898322D01*
X175266163Y-69859989D01*
X175486437Y-69784369D01*
X175691260Y-69673524D01*
X175875046Y-69530478D01*
X175959475Y-69438763D01*
X176032775Y-69359139D01*
X176032776Y-69359137D01*
X176032780Y-69359133D01*
X176160160Y-69164163D01*
X176253712Y-68950886D01*
X176310884Y-68725119D01*
X176330116Y-68493028D01*
X183009884Y-68493028D01*
X183029115Y-68725116D01*
X183086287Y-68950882D01*
X183086289Y-68950888D01*
X183179840Y-69164163D01*
X183307224Y-69359139D01*
X183464949Y-69530473D01*
X183464954Y-69530478D01*
X183648740Y-69673524D01*
X183648742Y-69673525D01*
X183648746Y-69673528D01*
X183853559Y-69784367D01*
X183853563Y-69784369D01*
X183853570Y-69784371D01*
X183853569Y-69784371D01*
X184073833Y-69859988D01*
X184073835Y-69859988D01*
X184073837Y-69859989D01*
X184303554Y-69898322D01*
X184303559Y-69898322D01*
X184536441Y-69898322D01*
X184536446Y-69898322D01*
X184766163Y-69859989D01*
X184986437Y-69784369D01*
X185191260Y-69673524D01*
X185375046Y-69530478D01*
X185459475Y-69438763D01*
X185532775Y-69359139D01*
X185532776Y-69359137D01*
X185532780Y-69359133D01*
X185660160Y-69164163D01*
X185753712Y-68950886D01*
X185810884Y-68725119D01*
X185830116Y-68493028D01*
X192509884Y-68493028D01*
X192529115Y-68725116D01*
X192586287Y-68950882D01*
X192586289Y-68950888D01*
X192679840Y-69164163D01*
X192807224Y-69359139D01*
X192964949Y-69530473D01*
X192964954Y-69530478D01*
X193148740Y-69673524D01*
X193148742Y-69673525D01*
X193148746Y-69673528D01*
X193353559Y-69784367D01*
X193353563Y-69784369D01*
X193353570Y-69784371D01*
X193353569Y-69784371D01*
X193573833Y-69859988D01*
X193573835Y-69859988D01*
X193573837Y-69859989D01*
X193803554Y-69898322D01*
X193803559Y-69898322D01*
X194036441Y-69898322D01*
X194036446Y-69898322D01*
X194266163Y-69859989D01*
X194486437Y-69784369D01*
X194691260Y-69673524D01*
X194875046Y-69530478D01*
X194959475Y-69438763D01*
X195032775Y-69359139D01*
X195032776Y-69359137D01*
X195032780Y-69359133D01*
X195160160Y-69164163D01*
X195253712Y-68950886D01*
X195310884Y-68725119D01*
X195330116Y-68493022D01*
X195330116Y-68493015D01*
X195310884Y-68260927D01*
X195310884Y-68260925D01*
X195253712Y-68035158D01*
X195160160Y-67821881D01*
X195032780Y-67626911D01*
X195032778Y-67626909D01*
X195032775Y-67626904D01*
X194875050Y-67455570D01*
X194875047Y-67455567D01*
X194875046Y-67455566D01*
X194691260Y-67312520D01*
X194691258Y-67312518D01*
X194691253Y-67312515D01*
X194486440Y-67201676D01*
X194486430Y-67201672D01*
X194266166Y-67126055D01*
X194036448Y-67087722D01*
X194036446Y-67087722D01*
X193803554Y-67087722D01*
X193803551Y-67087722D01*
X193573833Y-67126055D01*
X193353569Y-67201672D01*
X193353559Y-67201676D01*
X193148746Y-67312515D01*
X192964952Y-67455567D01*
X192964949Y-67455570D01*
X192807224Y-67626904D01*
X192679840Y-67821880D01*
X192586289Y-68035155D01*
X192586287Y-68035161D01*
X192529115Y-68260927D01*
X192509884Y-68493015D01*
X192509884Y-68493028D01*
X185830116Y-68493028D01*
X185830116Y-68493022D01*
X185830116Y-68493015D01*
X185810884Y-68260927D01*
X185810884Y-68260925D01*
X185753712Y-68035158D01*
X185660160Y-67821881D01*
X185532780Y-67626911D01*
X185532778Y-67626909D01*
X185532775Y-67626904D01*
X185375050Y-67455570D01*
X185375047Y-67455567D01*
X185375046Y-67455566D01*
X185191260Y-67312520D01*
X185191258Y-67312518D01*
X185191253Y-67312515D01*
X184986440Y-67201676D01*
X184986430Y-67201672D01*
X184766166Y-67126055D01*
X184536448Y-67087722D01*
X184536446Y-67087722D01*
X184303554Y-67087722D01*
X184303551Y-67087722D01*
X184073833Y-67126055D01*
X183853569Y-67201672D01*
X183853559Y-67201676D01*
X183648746Y-67312515D01*
X183464952Y-67455567D01*
X183464949Y-67455570D01*
X183307224Y-67626904D01*
X183179840Y-67821880D01*
X183086289Y-68035155D01*
X183086287Y-68035161D01*
X183029115Y-68260927D01*
X183009884Y-68493015D01*
X183009884Y-68493028D01*
X176330116Y-68493028D01*
X176330116Y-68493022D01*
X176330116Y-68493015D01*
X176310884Y-68260927D01*
X176310884Y-68260925D01*
X176253712Y-68035158D01*
X176160160Y-67821881D01*
X176032780Y-67626911D01*
X176032778Y-67626909D01*
X176032775Y-67626904D01*
X175875050Y-67455570D01*
X175875047Y-67455567D01*
X175875046Y-67455566D01*
X175691260Y-67312520D01*
X175691258Y-67312518D01*
X175691253Y-67312515D01*
X175486440Y-67201676D01*
X175486430Y-67201672D01*
X175266166Y-67126055D01*
X175036448Y-67087722D01*
X175036446Y-67087722D01*
X174803554Y-67087722D01*
X174803551Y-67087722D01*
X174573833Y-67126055D01*
X174353569Y-67201672D01*
X174353559Y-67201676D01*
X174148746Y-67312515D01*
X173964952Y-67455567D01*
X173964949Y-67455570D01*
X173807224Y-67626904D01*
X173679840Y-67821880D01*
X173586289Y-68035155D01*
X173586287Y-68035161D01*
X173529115Y-68260927D01*
X173509884Y-68493015D01*
X173509884Y-68493028D01*
X170225300Y-68493028D01*
X170225300Y-65879872D01*
X170244379Y-65827453D01*
X170292689Y-65799561D01*
X170306850Y-65798322D01*
X198533150Y-65798322D01*
X198585569Y-65817401D01*
G37*
%TD.AperFunction*%
%TD*%
M02*
