%TF.GenerationSoftware,KiCad,Pcbnew,7.0.5*%
%TF.CreationDate,2024-01-23T00:39:19-05:00*%
%TF.ProjectId,SIDE,53494445-2e6b-4696-9361-645f70636258,rev?*%
%TF.SameCoordinates,Original*%
%TF.FileFunction,Drillmap*%
%TF.FilePolarity,Positive*%
%FSLAX45Y45*%
G04 Gerber Fmt 4.5, Leading zero omitted, Abs format (unit mm)*
G04 Created by KiCad (PCBNEW 7.0.5) date 2024-01-23 00:39:19*
%MOMM*%
%LPD*%
G01*
G04 APERTURE LIST*
%ADD10C,0.100000*%
%ADD11C,0.200000*%
%ADD12C,0.033020*%
%ADD13C,0.080000*%
G04 APERTURE END LIST*
D10*
X16992000Y-13349302D02*
X19892000Y-13349302D01*
X18552000Y-13129302D02*
G75*
G03*
X18552000Y-13129302I-110000J0D01*
G01*
X19892000Y-13349302D02*
X19892000Y-6549302D01*
X17602000Y-13129302D02*
G75*
G03*
X17602000Y-13129302I-110000J0D01*
G01*
X19502000Y-13129302D02*
G75*
G03*
X19502000Y-13129302I-110000J0D01*
G01*
X19502000Y-6849302D02*
G75*
G03*
X19502000Y-6849302I-110000J0D01*
G01*
X18552000Y-6849302D02*
G75*
G03*
X18552000Y-6849302I-110000J0D01*
G01*
X19892000Y-6549302D02*
X16992000Y-6549302D01*
X17602000Y-6849302D02*
G75*
G03*
X17602000Y-6849302I-110000J0D01*
G01*
X16992000Y-6549302D02*
X16992000Y-13349302D01*
X17057000Y-7551802D02*
X17407000Y-7551802D01*
X17407000Y-8221802D01*
X17057000Y-8221802D01*
X17057000Y-7551802D01*
D11*
D12*
X17705490Y-9255292D02*
X17738510Y-9288312D01*
X17738510Y-9255292D02*
X17705490Y-9288312D01*
X17705490Y-9505292D02*
X17738510Y-9538312D01*
X17738510Y-9505292D02*
X17705490Y-9538312D01*
X17705490Y-9755292D02*
X17738510Y-9788312D01*
X17738510Y-9755292D02*
X17705490Y-9788312D01*
X17705490Y-10005292D02*
X17738510Y-10038312D01*
X17738510Y-10005292D02*
X17705490Y-10038312D01*
X17705490Y-10255292D02*
X17738510Y-10288312D01*
X17738510Y-10255292D02*
X17705490Y-10288312D01*
X17705490Y-10505292D02*
X17738510Y-10538312D01*
X17738510Y-10505292D02*
X17705490Y-10538312D01*
X17705490Y-10755292D02*
X17738510Y-10788312D01*
X17738510Y-10755292D02*
X17705490Y-10788312D01*
X17705490Y-11005292D02*
X17738510Y-11038312D01*
X17738510Y-11005292D02*
X17705490Y-11038312D01*
X17705490Y-11255292D02*
X17738510Y-11288312D01*
X17738510Y-11255292D02*
X17705490Y-11288312D01*
X17705490Y-11505292D02*
X17738510Y-11538312D01*
X17738510Y-11505292D02*
X17705490Y-11538312D01*
X17705490Y-11755292D02*
X17738510Y-11788312D01*
X17738510Y-11755292D02*
X17705490Y-11788312D01*
X17705490Y-12005292D02*
X17738510Y-12038312D01*
X17738510Y-12005292D02*
X17705490Y-12038312D01*
X17705490Y-12255292D02*
X17738510Y-12288312D01*
X17738510Y-12255292D02*
X17705490Y-12288312D01*
X17905490Y-7105292D02*
X17938510Y-7138312D01*
X17938510Y-7105292D02*
X17905490Y-7138312D01*
X17955490Y-9255292D02*
X17988510Y-9288312D01*
X17988510Y-9255292D02*
X17955490Y-9288312D01*
X17955490Y-9505292D02*
X17988510Y-9538312D01*
X17988510Y-9505292D02*
X17955490Y-9538312D01*
X17955490Y-9755292D02*
X17988510Y-9788312D01*
X17988510Y-9755292D02*
X17955490Y-9788312D01*
X17955490Y-10005292D02*
X17988510Y-10038312D01*
X17988510Y-10005292D02*
X17955490Y-10038312D01*
X17955490Y-10255292D02*
X17988510Y-10288312D01*
X17988510Y-10255292D02*
X17955490Y-10288312D01*
X17955490Y-10505292D02*
X17988510Y-10538312D01*
X17988510Y-10505292D02*
X17955490Y-10538312D01*
X17955490Y-10755292D02*
X17988510Y-10788312D01*
X17988510Y-10755292D02*
X17955490Y-10788312D01*
X17955490Y-11005292D02*
X17988510Y-11038312D01*
X17988510Y-11005292D02*
X17955490Y-11038312D01*
X17955490Y-11255292D02*
X17988510Y-11288312D01*
X17988510Y-11255292D02*
X17955490Y-11288312D01*
X17955490Y-11505292D02*
X17988510Y-11538312D01*
X17988510Y-11505292D02*
X17955490Y-11538312D01*
X17955490Y-11755292D02*
X17988510Y-11788312D01*
X17988510Y-11755292D02*
X17955490Y-11788312D01*
X17955490Y-12005292D02*
X17988510Y-12038312D01*
X17988510Y-12005292D02*
X17955490Y-12038312D01*
X17955490Y-12255292D02*
X17988510Y-12288312D01*
X17988510Y-12255292D02*
X17955490Y-12288312D01*
X18205490Y-7105292D02*
X18238510Y-7138312D01*
X18238510Y-7105292D02*
X18205490Y-7138312D01*
X18205490Y-9255292D02*
X18238510Y-9288312D01*
X18238510Y-9255292D02*
X18205490Y-9288312D01*
X18205490Y-9505292D02*
X18238510Y-9538312D01*
X18238510Y-9505292D02*
X18205490Y-9538312D01*
X18205490Y-9755292D02*
X18238510Y-9788312D01*
X18238510Y-9755292D02*
X18205490Y-9788312D01*
X18205490Y-10005292D02*
X18238510Y-10038312D01*
X18238510Y-10005292D02*
X18205490Y-10038312D01*
X18205490Y-10255292D02*
X18238510Y-10288312D01*
X18238510Y-10255292D02*
X18205490Y-10288312D01*
X18205490Y-10505292D02*
X18238510Y-10538312D01*
X18238510Y-10505292D02*
X18205490Y-10538312D01*
X18205490Y-10755292D02*
X18238510Y-10788312D01*
X18238510Y-10755292D02*
X18205490Y-10788312D01*
X18205490Y-11005292D02*
X18238510Y-11038312D01*
X18238510Y-11005292D02*
X18205490Y-11038312D01*
X18205490Y-11255292D02*
X18238510Y-11288312D01*
X18238510Y-11255292D02*
X18205490Y-11288312D01*
X18205490Y-11505292D02*
X18238510Y-11538312D01*
X18238510Y-11505292D02*
X18205490Y-11538312D01*
X18205490Y-11755292D02*
X18238510Y-11788312D01*
X18238510Y-11755292D02*
X18205490Y-11788312D01*
X18205490Y-12005292D02*
X18238510Y-12038312D01*
X18238510Y-12005292D02*
X18205490Y-12038312D01*
X18455490Y-9255292D02*
X18488510Y-9288312D01*
X18488510Y-9255292D02*
X18455490Y-9288312D01*
X18455490Y-9505292D02*
X18488510Y-9538312D01*
X18488510Y-9505292D02*
X18455490Y-9538312D01*
X18455490Y-9755292D02*
X18488510Y-9788312D01*
X18488510Y-9755292D02*
X18455490Y-9788312D01*
X18455490Y-10005292D02*
X18488510Y-10038312D01*
X18488510Y-10005292D02*
X18455490Y-10038312D01*
X18455490Y-10255292D02*
X18488510Y-10288312D01*
X18488510Y-10255292D02*
X18455490Y-10288312D01*
X18455490Y-10505292D02*
X18488510Y-10538312D01*
X18488510Y-10505292D02*
X18455490Y-10538312D01*
X18455490Y-10755292D02*
X18488510Y-10788312D01*
X18488510Y-10755292D02*
X18455490Y-10788312D01*
X18455490Y-11005292D02*
X18488510Y-11038312D01*
X18488510Y-11005292D02*
X18455490Y-11038312D01*
X18455490Y-11255292D02*
X18488510Y-11288312D01*
X18488510Y-11255292D02*
X18455490Y-11288312D01*
X18455490Y-11505292D02*
X18488510Y-11538312D01*
X18488510Y-11505292D02*
X18455490Y-11538312D01*
X18455490Y-11755292D02*
X18488510Y-11788312D01*
X18488510Y-11755292D02*
X18455490Y-11788312D01*
X18455490Y-12005292D02*
X18488510Y-12038312D01*
X18488510Y-12005292D02*
X18455490Y-12038312D01*
X18505490Y-7105292D02*
X18538510Y-7138312D01*
X18538510Y-7105292D02*
X18505490Y-7138312D01*
X18575490Y-12725292D02*
X18608510Y-12758312D01*
X18608510Y-12725292D02*
X18575490Y-12758312D01*
X18685490Y-12725292D02*
X18718510Y-12758312D01*
X18718510Y-12725292D02*
X18685490Y-12758312D01*
X18705490Y-9255292D02*
X18738510Y-9288312D01*
X18738510Y-9255292D02*
X18705490Y-9288312D01*
X18705490Y-9505292D02*
X18738510Y-9538312D01*
X18738510Y-9505292D02*
X18705490Y-9538312D01*
X18705490Y-9755292D02*
X18738510Y-9788312D01*
X18738510Y-9755292D02*
X18705490Y-9788312D01*
X18705490Y-10005292D02*
X18738510Y-10038312D01*
X18738510Y-10005292D02*
X18705490Y-10038312D01*
X18705490Y-10255292D02*
X18738510Y-10288312D01*
X18738510Y-10255292D02*
X18705490Y-10288312D01*
X18705490Y-10505292D02*
X18738510Y-10538312D01*
X18738510Y-10505292D02*
X18705490Y-10538312D01*
X18705490Y-10755292D02*
X18738510Y-10788312D01*
X18738510Y-10755292D02*
X18705490Y-10788312D01*
X18705490Y-11005292D02*
X18738510Y-11038312D01*
X18738510Y-11005292D02*
X18705490Y-11038312D01*
X18705490Y-11255292D02*
X18738510Y-11288312D01*
X18738510Y-11255292D02*
X18705490Y-11288312D01*
X18705490Y-11505292D02*
X18738510Y-11538312D01*
X18738510Y-11505292D02*
X18705490Y-11538312D01*
X18705490Y-11755292D02*
X18738510Y-11788312D01*
X18738510Y-11755292D02*
X18705490Y-11788312D01*
X18705490Y-12005292D02*
X18738510Y-12038312D01*
X18738510Y-12005292D02*
X18705490Y-12038312D01*
X18795490Y-12725292D02*
X18828510Y-12758312D01*
X18828510Y-12725292D02*
X18795490Y-12758312D01*
X18805490Y-7105292D02*
X18838510Y-7138312D01*
X18838510Y-7105292D02*
X18805490Y-7138312D01*
X18865490Y-12655292D02*
X18898510Y-12688312D01*
X18898510Y-12655292D02*
X18865490Y-12688312D01*
X18955490Y-9255292D02*
X18988510Y-9288312D01*
X18988510Y-9255292D02*
X18955490Y-9288312D01*
X18955490Y-9505292D02*
X18988510Y-9538312D01*
X18988510Y-9505292D02*
X18955490Y-9538312D01*
X18955490Y-9755292D02*
X18988510Y-9788312D01*
X18988510Y-9755292D02*
X18955490Y-9788312D01*
X18955490Y-10005292D02*
X18988510Y-10038312D01*
X18988510Y-10005292D02*
X18955490Y-10038312D01*
X18955490Y-10255292D02*
X18988510Y-10288312D01*
X18988510Y-10255292D02*
X18955490Y-10288312D01*
X18955490Y-10505292D02*
X18988510Y-10538312D01*
X18988510Y-10505292D02*
X18955490Y-10538312D01*
X18955490Y-10755292D02*
X18988510Y-10788312D01*
X18988510Y-10755292D02*
X18955490Y-10788312D01*
X18955490Y-11005292D02*
X18988510Y-11038312D01*
X18988510Y-11005292D02*
X18955490Y-11038312D01*
X18955490Y-11255292D02*
X18988510Y-11288312D01*
X18988510Y-11255292D02*
X18955490Y-11288312D01*
X18955490Y-11505292D02*
X18988510Y-11538312D01*
X18988510Y-11505292D02*
X18955490Y-11538312D01*
X18955490Y-11755292D02*
X18988510Y-11788312D01*
X18988510Y-11755292D02*
X18955490Y-11788312D01*
X18955490Y-12005292D02*
X18988510Y-12038312D01*
X18988510Y-12005292D02*
X18955490Y-12038312D01*
X19105490Y-7105292D02*
X19138510Y-7138312D01*
X19138510Y-7105292D02*
X19105490Y-7138312D01*
X19205490Y-9255292D02*
X19238510Y-9288312D01*
X19238510Y-9255292D02*
X19205490Y-9288312D01*
X19205490Y-9505292D02*
X19238510Y-9538312D01*
X19238510Y-9505292D02*
X19205490Y-9538312D01*
X19205490Y-9755292D02*
X19238510Y-9788312D01*
X19238510Y-9755292D02*
X19205490Y-9788312D01*
X19205490Y-10005292D02*
X19238510Y-10038312D01*
X19238510Y-10005292D02*
X19205490Y-10038312D01*
X19205490Y-10255292D02*
X19238510Y-10288312D01*
X19238510Y-10255292D02*
X19205490Y-10288312D01*
X19205490Y-10505292D02*
X19238510Y-10538312D01*
X19238510Y-10505292D02*
X19205490Y-10538312D01*
X19205490Y-10755292D02*
X19238510Y-10788312D01*
X19238510Y-10755292D02*
X19205490Y-10788312D01*
X19205490Y-11005292D02*
X19238510Y-11038312D01*
X19238510Y-11005292D02*
X19205490Y-11038312D01*
X19205490Y-11255292D02*
X19238510Y-11288312D01*
X19238510Y-11255292D02*
X19205490Y-11288312D01*
X19205490Y-11505292D02*
X19238510Y-11538312D01*
X19238510Y-11505292D02*
X19205490Y-11538312D01*
X19205490Y-11755292D02*
X19238510Y-11788312D01*
X19238510Y-11755292D02*
X19205490Y-11788312D01*
X19205490Y-12005292D02*
X19238510Y-12038312D01*
X19238510Y-12005292D02*
X19205490Y-12038312D01*
X19205490Y-12255292D02*
X19238510Y-12288312D01*
X19238510Y-12255292D02*
X19205490Y-12288312D01*
X19405490Y-7105292D02*
X19438510Y-7138312D01*
X19438510Y-7105292D02*
X19405490Y-7138312D01*
X19455490Y-9255292D02*
X19488510Y-9288312D01*
X19488510Y-9255292D02*
X19455490Y-9288312D01*
X19455490Y-9505292D02*
X19488510Y-9538312D01*
X19488510Y-9505292D02*
X19455490Y-9538312D01*
X19455490Y-9755292D02*
X19488510Y-9788312D01*
X19488510Y-9755292D02*
X19455490Y-9788312D01*
X19455490Y-10005292D02*
X19488510Y-10038312D01*
X19488510Y-10005292D02*
X19455490Y-10038312D01*
X19455490Y-10255292D02*
X19488510Y-10288312D01*
X19488510Y-10255292D02*
X19455490Y-10288312D01*
X19455490Y-10505292D02*
X19488510Y-10538312D01*
X19488510Y-10505292D02*
X19455490Y-10538312D01*
X19455490Y-10755292D02*
X19488510Y-10788312D01*
X19488510Y-10755292D02*
X19455490Y-10788312D01*
X19455490Y-11005292D02*
X19488510Y-11038312D01*
X19488510Y-11005292D02*
X19455490Y-11038312D01*
X19455490Y-11255292D02*
X19488510Y-11288312D01*
X19488510Y-11255292D02*
X19455490Y-11288312D01*
X19455490Y-11505292D02*
X19488510Y-11538312D01*
X19488510Y-11505292D02*
X19455490Y-11538312D01*
X19455490Y-11755292D02*
X19488510Y-11788312D01*
X19488510Y-11755292D02*
X19455490Y-11788312D01*
X19455490Y-12005292D02*
X19488510Y-12038312D01*
X19488510Y-12005292D02*
X19455490Y-12038312D01*
X19455490Y-12255292D02*
X19488510Y-12288312D01*
X19488510Y-12255292D02*
X19455490Y-12288312D01*
D13*
X17272000Y-7377000D02*
G75*
G03*
X17272000Y-7377000I-40000J0D01*
G01*
X17272000Y-8393000D02*
G75*
G03*
X17272000Y-8393000I-40000J0D01*
G01*
D11*
X17247777Y-13665786D02*
X17247777Y-13465786D01*
X17247777Y-13465786D02*
X17295396Y-13465786D01*
X17295396Y-13465786D02*
X17323967Y-13475310D01*
X17323967Y-13475310D02*
X17343015Y-13494357D01*
X17343015Y-13494357D02*
X17352539Y-13513405D01*
X17352539Y-13513405D02*
X17362063Y-13551500D01*
X17362063Y-13551500D02*
X17362063Y-13580072D01*
X17362063Y-13580072D02*
X17352539Y-13618167D01*
X17352539Y-13618167D02*
X17343015Y-13637214D01*
X17343015Y-13637214D02*
X17323967Y-13656262D01*
X17323967Y-13656262D02*
X17295396Y-13665786D01*
X17295396Y-13665786D02*
X17247777Y-13665786D01*
X17447777Y-13665786D02*
X17447777Y-13532453D01*
X17447777Y-13570548D02*
X17457301Y-13551500D01*
X17457301Y-13551500D02*
X17466824Y-13541976D01*
X17466824Y-13541976D02*
X17485872Y-13532453D01*
X17485872Y-13532453D02*
X17504920Y-13532453D01*
X17571586Y-13665786D02*
X17571586Y-13532453D01*
X17571586Y-13465786D02*
X17562063Y-13475310D01*
X17562063Y-13475310D02*
X17571586Y-13484834D01*
X17571586Y-13484834D02*
X17581110Y-13475310D01*
X17581110Y-13475310D02*
X17571586Y-13465786D01*
X17571586Y-13465786D02*
X17571586Y-13484834D01*
X17695396Y-13665786D02*
X17676348Y-13656262D01*
X17676348Y-13656262D02*
X17666824Y-13637214D01*
X17666824Y-13637214D02*
X17666824Y-13465786D01*
X17800158Y-13665786D02*
X17781110Y-13656262D01*
X17781110Y-13656262D02*
X17771586Y-13637214D01*
X17771586Y-13637214D02*
X17771586Y-13465786D01*
X18028729Y-13665786D02*
X18028729Y-13465786D01*
X18028729Y-13465786D02*
X18095396Y-13608643D01*
X18095396Y-13608643D02*
X18162063Y-13465786D01*
X18162063Y-13465786D02*
X18162063Y-13665786D01*
X18343015Y-13665786D02*
X18343015Y-13561024D01*
X18343015Y-13561024D02*
X18333491Y-13541976D01*
X18333491Y-13541976D02*
X18314444Y-13532453D01*
X18314444Y-13532453D02*
X18276348Y-13532453D01*
X18276348Y-13532453D02*
X18257301Y-13541976D01*
X18343015Y-13656262D02*
X18323967Y-13665786D01*
X18323967Y-13665786D02*
X18276348Y-13665786D01*
X18276348Y-13665786D02*
X18257301Y-13656262D01*
X18257301Y-13656262D02*
X18247777Y-13637214D01*
X18247777Y-13637214D02*
X18247777Y-13618167D01*
X18247777Y-13618167D02*
X18257301Y-13599119D01*
X18257301Y-13599119D02*
X18276348Y-13589595D01*
X18276348Y-13589595D02*
X18323967Y-13589595D01*
X18323967Y-13589595D02*
X18343015Y-13580072D01*
X18438253Y-13532453D02*
X18438253Y-13732453D01*
X18438253Y-13541976D02*
X18457301Y-13532453D01*
X18457301Y-13532453D02*
X18495396Y-13532453D01*
X18495396Y-13532453D02*
X18514444Y-13541976D01*
X18514444Y-13541976D02*
X18523967Y-13551500D01*
X18523967Y-13551500D02*
X18533491Y-13570548D01*
X18533491Y-13570548D02*
X18533491Y-13627691D01*
X18533491Y-13627691D02*
X18523967Y-13646738D01*
X18523967Y-13646738D02*
X18514444Y-13656262D01*
X18514444Y-13656262D02*
X18495396Y-13665786D01*
X18495396Y-13665786D02*
X18457301Y-13665786D01*
X18457301Y-13665786D02*
X18438253Y-13656262D01*
X18619205Y-13646738D02*
X18628729Y-13656262D01*
X18628729Y-13656262D02*
X18619205Y-13665786D01*
X18619205Y-13665786D02*
X18609682Y-13656262D01*
X18609682Y-13656262D02*
X18619205Y-13646738D01*
X18619205Y-13646738D02*
X18619205Y-13665786D01*
X18619205Y-13541976D02*
X18628729Y-13551500D01*
X18628729Y-13551500D02*
X18619205Y-13561024D01*
X18619205Y-13561024D02*
X18609682Y-13551500D01*
X18609682Y-13551500D02*
X18619205Y-13541976D01*
X18619205Y-13541976D02*
X18619205Y-13561024D01*
D12*
X16953980Y-13977792D02*
X16987000Y-14010812D01*
X16987000Y-13977792D02*
X16953980Y-14010812D01*
D11*
X17285872Y-13885786D02*
X17304920Y-13885786D01*
X17304920Y-13885786D02*
X17323967Y-13895310D01*
X17323967Y-13895310D02*
X17333491Y-13904834D01*
X17333491Y-13904834D02*
X17343015Y-13923881D01*
X17343015Y-13923881D02*
X17352539Y-13961976D01*
X17352539Y-13961976D02*
X17352539Y-14009595D01*
X17352539Y-14009595D02*
X17343015Y-14047691D01*
X17343015Y-14047691D02*
X17333491Y-14066738D01*
X17333491Y-14066738D02*
X17323967Y-14076262D01*
X17323967Y-14076262D02*
X17304920Y-14085786D01*
X17304920Y-14085786D02*
X17285872Y-14085786D01*
X17285872Y-14085786D02*
X17266824Y-14076262D01*
X17266824Y-14076262D02*
X17257301Y-14066738D01*
X17257301Y-14066738D02*
X17247777Y-14047691D01*
X17247777Y-14047691D02*
X17238253Y-14009595D01*
X17238253Y-14009595D02*
X17238253Y-13961976D01*
X17238253Y-13961976D02*
X17247777Y-13923881D01*
X17247777Y-13923881D02*
X17257301Y-13904834D01*
X17257301Y-13904834D02*
X17266824Y-13895310D01*
X17266824Y-13895310D02*
X17285872Y-13885786D01*
X17438253Y-14066738D02*
X17447777Y-14076262D01*
X17447777Y-14076262D02*
X17438253Y-14085786D01*
X17438253Y-14085786D02*
X17428729Y-14076262D01*
X17428729Y-14076262D02*
X17438253Y-14066738D01*
X17438253Y-14066738D02*
X17438253Y-14085786D01*
X17514444Y-13885786D02*
X17638253Y-13885786D01*
X17638253Y-13885786D02*
X17571586Y-13961976D01*
X17571586Y-13961976D02*
X17600158Y-13961976D01*
X17600158Y-13961976D02*
X17619205Y-13971500D01*
X17619205Y-13971500D02*
X17628729Y-13981024D01*
X17628729Y-13981024D02*
X17638253Y-14000072D01*
X17638253Y-14000072D02*
X17638253Y-14047691D01*
X17638253Y-14047691D02*
X17628729Y-14066738D01*
X17628729Y-14066738D02*
X17619205Y-14076262D01*
X17619205Y-14076262D02*
X17600158Y-14085786D01*
X17600158Y-14085786D02*
X17543015Y-14085786D01*
X17543015Y-14085786D02*
X17523967Y-14076262D01*
X17523967Y-14076262D02*
X17514444Y-14066738D01*
X17704920Y-13885786D02*
X17828729Y-13885786D01*
X17828729Y-13885786D02*
X17762063Y-13961976D01*
X17762063Y-13961976D02*
X17790634Y-13961976D01*
X17790634Y-13961976D02*
X17809682Y-13971500D01*
X17809682Y-13971500D02*
X17819205Y-13981024D01*
X17819205Y-13981024D02*
X17828729Y-14000072D01*
X17828729Y-14000072D02*
X17828729Y-14047691D01*
X17828729Y-14047691D02*
X17819205Y-14066738D01*
X17819205Y-14066738D02*
X17809682Y-14076262D01*
X17809682Y-14076262D02*
X17790634Y-14085786D01*
X17790634Y-14085786D02*
X17733491Y-14085786D01*
X17733491Y-14085786D02*
X17714444Y-14076262D01*
X17714444Y-14076262D02*
X17704920Y-14066738D01*
X17952539Y-13885786D02*
X17971586Y-13885786D01*
X17971586Y-13885786D02*
X17990634Y-13895310D01*
X17990634Y-13895310D02*
X18000158Y-13904834D01*
X18000158Y-13904834D02*
X18009682Y-13923881D01*
X18009682Y-13923881D02*
X18019205Y-13961976D01*
X18019205Y-13961976D02*
X18019205Y-14009595D01*
X18019205Y-14009595D02*
X18009682Y-14047691D01*
X18009682Y-14047691D02*
X18000158Y-14066738D01*
X18000158Y-14066738D02*
X17990634Y-14076262D01*
X17990634Y-14076262D02*
X17971586Y-14085786D01*
X17971586Y-14085786D02*
X17952539Y-14085786D01*
X17952539Y-14085786D02*
X17933491Y-14076262D01*
X17933491Y-14076262D02*
X17923967Y-14066738D01*
X17923967Y-14066738D02*
X17914444Y-14047691D01*
X17914444Y-14047691D02*
X17904920Y-14009595D01*
X17904920Y-14009595D02*
X17904920Y-13961976D01*
X17904920Y-13961976D02*
X17914444Y-13923881D01*
X17914444Y-13923881D02*
X17923967Y-13904834D01*
X17923967Y-13904834D02*
X17933491Y-13895310D01*
X17933491Y-13895310D02*
X17952539Y-13885786D01*
X18104920Y-14085786D02*
X18104920Y-13952453D01*
X18104920Y-13971500D02*
X18114444Y-13961976D01*
X18114444Y-13961976D02*
X18133491Y-13952453D01*
X18133491Y-13952453D02*
X18162063Y-13952453D01*
X18162063Y-13952453D02*
X18181110Y-13961976D01*
X18181110Y-13961976D02*
X18190634Y-13981024D01*
X18190634Y-13981024D02*
X18190634Y-14085786D01*
X18190634Y-13981024D02*
X18200158Y-13961976D01*
X18200158Y-13961976D02*
X18219205Y-13952453D01*
X18219205Y-13952453D02*
X18247777Y-13952453D01*
X18247777Y-13952453D02*
X18266825Y-13961976D01*
X18266825Y-13961976D02*
X18276348Y-13981024D01*
X18276348Y-13981024D02*
X18276348Y-14085786D01*
X18371586Y-14085786D02*
X18371586Y-13952453D01*
X18371586Y-13971500D02*
X18381110Y-13961976D01*
X18381110Y-13961976D02*
X18400158Y-13952453D01*
X18400158Y-13952453D02*
X18428729Y-13952453D01*
X18428729Y-13952453D02*
X18447777Y-13961976D01*
X18447777Y-13961976D02*
X18457301Y-13981024D01*
X18457301Y-13981024D02*
X18457301Y-14085786D01*
X18457301Y-13981024D02*
X18466825Y-13961976D01*
X18466825Y-13961976D02*
X18485872Y-13952453D01*
X18485872Y-13952453D02*
X18514444Y-13952453D01*
X18514444Y-13952453D02*
X18533491Y-13961976D01*
X18533491Y-13961976D02*
X18543015Y-13981024D01*
X18543015Y-13981024D02*
X18543015Y-14085786D01*
X18933491Y-13876262D02*
X18762063Y-14133405D01*
X19190634Y-13885786D02*
X19209682Y-13885786D01*
X19209682Y-13885786D02*
X19228729Y-13895310D01*
X19228729Y-13895310D02*
X19238253Y-13904834D01*
X19238253Y-13904834D02*
X19247777Y-13923881D01*
X19247777Y-13923881D02*
X19257301Y-13961976D01*
X19257301Y-13961976D02*
X19257301Y-14009595D01*
X19257301Y-14009595D02*
X19247777Y-14047691D01*
X19247777Y-14047691D02*
X19238253Y-14066738D01*
X19238253Y-14066738D02*
X19228729Y-14076262D01*
X19228729Y-14076262D02*
X19209682Y-14085786D01*
X19209682Y-14085786D02*
X19190634Y-14085786D01*
X19190634Y-14085786D02*
X19171587Y-14076262D01*
X19171587Y-14076262D02*
X19162063Y-14066738D01*
X19162063Y-14066738D02*
X19152539Y-14047691D01*
X19152539Y-14047691D02*
X19143015Y-14009595D01*
X19143015Y-14009595D02*
X19143015Y-13961976D01*
X19143015Y-13961976D02*
X19152539Y-13923881D01*
X19152539Y-13923881D02*
X19162063Y-13904834D01*
X19162063Y-13904834D02*
X19171587Y-13895310D01*
X19171587Y-13895310D02*
X19190634Y-13885786D01*
X19343015Y-14066738D02*
X19352539Y-14076262D01*
X19352539Y-14076262D02*
X19343015Y-14085786D01*
X19343015Y-14085786D02*
X19333491Y-14076262D01*
X19333491Y-14076262D02*
X19343015Y-14066738D01*
X19343015Y-14066738D02*
X19343015Y-14085786D01*
X19476348Y-13885786D02*
X19495396Y-13885786D01*
X19495396Y-13885786D02*
X19514444Y-13895310D01*
X19514444Y-13895310D02*
X19523968Y-13904834D01*
X19523968Y-13904834D02*
X19533491Y-13923881D01*
X19533491Y-13923881D02*
X19543015Y-13961976D01*
X19543015Y-13961976D02*
X19543015Y-14009595D01*
X19543015Y-14009595D02*
X19533491Y-14047691D01*
X19533491Y-14047691D02*
X19523968Y-14066738D01*
X19523968Y-14066738D02*
X19514444Y-14076262D01*
X19514444Y-14076262D02*
X19495396Y-14085786D01*
X19495396Y-14085786D02*
X19476348Y-14085786D01*
X19476348Y-14085786D02*
X19457301Y-14076262D01*
X19457301Y-14076262D02*
X19447777Y-14066738D01*
X19447777Y-14066738D02*
X19438253Y-14047691D01*
X19438253Y-14047691D02*
X19428729Y-14009595D01*
X19428729Y-14009595D02*
X19428729Y-13961976D01*
X19428729Y-13961976D02*
X19438253Y-13923881D01*
X19438253Y-13923881D02*
X19447777Y-13904834D01*
X19447777Y-13904834D02*
X19457301Y-13895310D01*
X19457301Y-13895310D02*
X19476348Y-13885786D01*
X19733491Y-14085786D02*
X19619206Y-14085786D01*
X19676348Y-14085786D02*
X19676348Y-13885786D01*
X19676348Y-13885786D02*
X19657301Y-13914357D01*
X19657301Y-13914357D02*
X19638253Y-13933405D01*
X19638253Y-13933405D02*
X19619206Y-13942929D01*
X19800158Y-13885786D02*
X19923968Y-13885786D01*
X19923968Y-13885786D02*
X19857301Y-13961976D01*
X19857301Y-13961976D02*
X19885872Y-13961976D01*
X19885872Y-13961976D02*
X19904920Y-13971500D01*
X19904920Y-13971500D02*
X19914444Y-13981024D01*
X19914444Y-13981024D02*
X19923968Y-14000072D01*
X19923968Y-14000072D02*
X19923968Y-14047691D01*
X19923968Y-14047691D02*
X19914444Y-14066738D01*
X19914444Y-14066738D02*
X19904920Y-14076262D01*
X19904920Y-14076262D02*
X19885872Y-14085786D01*
X19885872Y-14085786D02*
X19828729Y-14085786D01*
X19828729Y-14085786D02*
X19809682Y-14076262D01*
X19809682Y-14076262D02*
X19800158Y-14066738D01*
X20047777Y-13885786D02*
X20066825Y-13885786D01*
X20066825Y-13885786D02*
X20085872Y-13895310D01*
X20085872Y-13895310D02*
X20095396Y-13904834D01*
X20095396Y-13904834D02*
X20104920Y-13923881D01*
X20104920Y-13923881D02*
X20114444Y-13961976D01*
X20114444Y-13961976D02*
X20114444Y-14009595D01*
X20114444Y-14009595D02*
X20104920Y-14047691D01*
X20104920Y-14047691D02*
X20095396Y-14066738D01*
X20095396Y-14066738D02*
X20085872Y-14076262D01*
X20085872Y-14076262D02*
X20066825Y-14085786D01*
X20066825Y-14085786D02*
X20047777Y-14085786D01*
X20047777Y-14085786D02*
X20028729Y-14076262D01*
X20028729Y-14076262D02*
X20019206Y-14066738D01*
X20019206Y-14066738D02*
X20009682Y-14047691D01*
X20009682Y-14047691D02*
X20000158Y-14009595D01*
X20000158Y-14009595D02*
X20000158Y-13961976D01*
X20000158Y-13961976D02*
X20009682Y-13923881D01*
X20009682Y-13923881D02*
X20019206Y-13904834D01*
X20019206Y-13904834D02*
X20028729Y-13895310D01*
X20028729Y-13895310D02*
X20047777Y-13885786D01*
X20190634Y-13885786D02*
X20190634Y-13923881D01*
X20266825Y-13885786D02*
X20266825Y-13923881D01*
X20562063Y-14161976D02*
X20552539Y-14152453D01*
X20552539Y-14152453D02*
X20533491Y-14123881D01*
X20533491Y-14123881D02*
X20523968Y-14104834D01*
X20523968Y-14104834D02*
X20514444Y-14076262D01*
X20514444Y-14076262D02*
X20504920Y-14028643D01*
X20504920Y-14028643D02*
X20504920Y-13990548D01*
X20504920Y-13990548D02*
X20514444Y-13942929D01*
X20514444Y-13942929D02*
X20523968Y-13914357D01*
X20523968Y-13914357D02*
X20533491Y-13895310D01*
X20533491Y-13895310D02*
X20552539Y-13866738D01*
X20552539Y-13866738D02*
X20562063Y-13857214D01*
X20743015Y-14085786D02*
X20628730Y-14085786D01*
X20685872Y-14085786D02*
X20685872Y-13885786D01*
X20685872Y-13885786D02*
X20666825Y-13914357D01*
X20666825Y-13914357D02*
X20647777Y-13933405D01*
X20647777Y-13933405D02*
X20628730Y-13942929D01*
X20933491Y-14085786D02*
X20819206Y-14085786D01*
X20876349Y-14085786D02*
X20876349Y-13885786D01*
X20876349Y-13885786D02*
X20857301Y-13914357D01*
X20857301Y-13914357D02*
X20838253Y-13933405D01*
X20838253Y-13933405D02*
X20819206Y-13942929D01*
X21057301Y-13885786D02*
X21076349Y-13885786D01*
X21076349Y-13885786D02*
X21095396Y-13895310D01*
X21095396Y-13895310D02*
X21104920Y-13904834D01*
X21104920Y-13904834D02*
X21114444Y-13923881D01*
X21114444Y-13923881D02*
X21123968Y-13961976D01*
X21123968Y-13961976D02*
X21123968Y-14009595D01*
X21123968Y-14009595D02*
X21114444Y-14047691D01*
X21114444Y-14047691D02*
X21104920Y-14066738D01*
X21104920Y-14066738D02*
X21095396Y-14076262D01*
X21095396Y-14076262D02*
X21076349Y-14085786D01*
X21076349Y-14085786D02*
X21057301Y-14085786D01*
X21057301Y-14085786D02*
X21038253Y-14076262D01*
X21038253Y-14076262D02*
X21028730Y-14066738D01*
X21028730Y-14066738D02*
X21019206Y-14047691D01*
X21019206Y-14047691D02*
X21009682Y-14009595D01*
X21009682Y-14009595D02*
X21009682Y-13961976D01*
X21009682Y-13961976D02*
X21019206Y-13923881D01*
X21019206Y-13923881D02*
X21028730Y-13904834D01*
X21028730Y-13904834D02*
X21038253Y-13895310D01*
X21038253Y-13895310D02*
X21057301Y-13885786D01*
X21362063Y-14085786D02*
X21362063Y-13885786D01*
X21447777Y-14085786D02*
X21447777Y-13981024D01*
X21447777Y-13981024D02*
X21438253Y-13961976D01*
X21438253Y-13961976D02*
X21419206Y-13952453D01*
X21419206Y-13952453D02*
X21390634Y-13952453D01*
X21390634Y-13952453D02*
X21371587Y-13961976D01*
X21371587Y-13961976D02*
X21362063Y-13971500D01*
X21571587Y-14085786D02*
X21552539Y-14076262D01*
X21552539Y-14076262D02*
X21543015Y-14066738D01*
X21543015Y-14066738D02*
X21533492Y-14047691D01*
X21533492Y-14047691D02*
X21533492Y-13990548D01*
X21533492Y-13990548D02*
X21543015Y-13971500D01*
X21543015Y-13971500D02*
X21552539Y-13961976D01*
X21552539Y-13961976D02*
X21571587Y-13952453D01*
X21571587Y-13952453D02*
X21600158Y-13952453D01*
X21600158Y-13952453D02*
X21619206Y-13961976D01*
X21619206Y-13961976D02*
X21628730Y-13971500D01*
X21628730Y-13971500D02*
X21638253Y-13990548D01*
X21638253Y-13990548D02*
X21638253Y-14047691D01*
X21638253Y-14047691D02*
X21628730Y-14066738D01*
X21628730Y-14066738D02*
X21619206Y-14076262D01*
X21619206Y-14076262D02*
X21600158Y-14085786D01*
X21600158Y-14085786D02*
X21571587Y-14085786D01*
X21752539Y-14085786D02*
X21733492Y-14076262D01*
X21733492Y-14076262D02*
X21723968Y-14057214D01*
X21723968Y-14057214D02*
X21723968Y-13885786D01*
X21904920Y-14076262D02*
X21885873Y-14085786D01*
X21885873Y-14085786D02*
X21847777Y-14085786D01*
X21847777Y-14085786D02*
X21828730Y-14076262D01*
X21828730Y-14076262D02*
X21819206Y-14057214D01*
X21819206Y-14057214D02*
X21819206Y-13981024D01*
X21819206Y-13981024D02*
X21828730Y-13961976D01*
X21828730Y-13961976D02*
X21847777Y-13952453D01*
X21847777Y-13952453D02*
X21885873Y-13952453D01*
X21885873Y-13952453D02*
X21904920Y-13961976D01*
X21904920Y-13961976D02*
X21914444Y-13981024D01*
X21914444Y-13981024D02*
X21914444Y-14000072D01*
X21914444Y-14000072D02*
X21819206Y-14019119D01*
X21990634Y-14076262D02*
X22009682Y-14085786D01*
X22009682Y-14085786D02*
X22047777Y-14085786D01*
X22047777Y-14085786D02*
X22066825Y-14076262D01*
X22066825Y-14076262D02*
X22076349Y-14057214D01*
X22076349Y-14057214D02*
X22076349Y-14047691D01*
X22076349Y-14047691D02*
X22066825Y-14028643D01*
X22066825Y-14028643D02*
X22047777Y-14019119D01*
X22047777Y-14019119D02*
X22019206Y-14019119D01*
X22019206Y-14019119D02*
X22000158Y-14009595D01*
X22000158Y-14009595D02*
X21990634Y-13990548D01*
X21990634Y-13990548D02*
X21990634Y-13981024D01*
X21990634Y-13981024D02*
X22000158Y-13961976D01*
X22000158Y-13961976D02*
X22019206Y-13952453D01*
X22019206Y-13952453D02*
X22047777Y-13952453D01*
X22047777Y-13952453D02*
X22066825Y-13961976D01*
X22143015Y-14161976D02*
X22152539Y-14152453D01*
X22152539Y-14152453D02*
X22171587Y-14123881D01*
X22171587Y-14123881D02*
X22181111Y-14104834D01*
X22181111Y-14104834D02*
X22190634Y-14076262D01*
X22190634Y-14076262D02*
X22200158Y-14028643D01*
X22200158Y-14028643D02*
X22200158Y-13990548D01*
X22200158Y-13990548D02*
X22190634Y-13942929D01*
X22190634Y-13942929D02*
X22181111Y-13914357D01*
X22181111Y-13914357D02*
X22171587Y-13895310D01*
X22171587Y-13895310D02*
X22152539Y-13866738D01*
X22152539Y-13866738D02*
X22143015Y-13857214D01*
D13*
X16987000Y-14258302D02*
G75*
G03*
X16987000Y-14258302I-40000J0D01*
G01*
D11*
X17285872Y-14149786D02*
X17304920Y-14149786D01*
X17304920Y-14149786D02*
X17323967Y-14159310D01*
X17323967Y-14159310D02*
X17333491Y-14168834D01*
X17333491Y-14168834D02*
X17343015Y-14187881D01*
X17343015Y-14187881D02*
X17352539Y-14225976D01*
X17352539Y-14225976D02*
X17352539Y-14273595D01*
X17352539Y-14273595D02*
X17343015Y-14311691D01*
X17343015Y-14311691D02*
X17333491Y-14330738D01*
X17333491Y-14330738D02*
X17323967Y-14340262D01*
X17323967Y-14340262D02*
X17304920Y-14349786D01*
X17304920Y-14349786D02*
X17285872Y-14349786D01*
X17285872Y-14349786D02*
X17266824Y-14340262D01*
X17266824Y-14340262D02*
X17257301Y-14330738D01*
X17257301Y-14330738D02*
X17247777Y-14311691D01*
X17247777Y-14311691D02*
X17238253Y-14273595D01*
X17238253Y-14273595D02*
X17238253Y-14225976D01*
X17238253Y-14225976D02*
X17247777Y-14187881D01*
X17247777Y-14187881D02*
X17257301Y-14168834D01*
X17257301Y-14168834D02*
X17266824Y-14159310D01*
X17266824Y-14159310D02*
X17285872Y-14149786D01*
X17438253Y-14330738D02*
X17447777Y-14340262D01*
X17447777Y-14340262D02*
X17438253Y-14349786D01*
X17438253Y-14349786D02*
X17428729Y-14340262D01*
X17428729Y-14340262D02*
X17438253Y-14330738D01*
X17438253Y-14330738D02*
X17438253Y-14349786D01*
X17562063Y-14235500D02*
X17543015Y-14225976D01*
X17543015Y-14225976D02*
X17533491Y-14216453D01*
X17533491Y-14216453D02*
X17523967Y-14197405D01*
X17523967Y-14197405D02*
X17523967Y-14187881D01*
X17523967Y-14187881D02*
X17533491Y-14168834D01*
X17533491Y-14168834D02*
X17543015Y-14159310D01*
X17543015Y-14159310D02*
X17562063Y-14149786D01*
X17562063Y-14149786D02*
X17600158Y-14149786D01*
X17600158Y-14149786D02*
X17619205Y-14159310D01*
X17619205Y-14159310D02*
X17628729Y-14168834D01*
X17628729Y-14168834D02*
X17638253Y-14187881D01*
X17638253Y-14187881D02*
X17638253Y-14197405D01*
X17638253Y-14197405D02*
X17628729Y-14216453D01*
X17628729Y-14216453D02*
X17619205Y-14225976D01*
X17619205Y-14225976D02*
X17600158Y-14235500D01*
X17600158Y-14235500D02*
X17562063Y-14235500D01*
X17562063Y-14235500D02*
X17543015Y-14245024D01*
X17543015Y-14245024D02*
X17533491Y-14254548D01*
X17533491Y-14254548D02*
X17523967Y-14273595D01*
X17523967Y-14273595D02*
X17523967Y-14311691D01*
X17523967Y-14311691D02*
X17533491Y-14330738D01*
X17533491Y-14330738D02*
X17543015Y-14340262D01*
X17543015Y-14340262D02*
X17562063Y-14349786D01*
X17562063Y-14349786D02*
X17600158Y-14349786D01*
X17600158Y-14349786D02*
X17619205Y-14340262D01*
X17619205Y-14340262D02*
X17628729Y-14330738D01*
X17628729Y-14330738D02*
X17638253Y-14311691D01*
X17638253Y-14311691D02*
X17638253Y-14273595D01*
X17638253Y-14273595D02*
X17628729Y-14254548D01*
X17628729Y-14254548D02*
X17619205Y-14245024D01*
X17619205Y-14245024D02*
X17600158Y-14235500D01*
X17762063Y-14149786D02*
X17781110Y-14149786D01*
X17781110Y-14149786D02*
X17800158Y-14159310D01*
X17800158Y-14159310D02*
X17809682Y-14168834D01*
X17809682Y-14168834D02*
X17819205Y-14187881D01*
X17819205Y-14187881D02*
X17828729Y-14225976D01*
X17828729Y-14225976D02*
X17828729Y-14273595D01*
X17828729Y-14273595D02*
X17819205Y-14311691D01*
X17819205Y-14311691D02*
X17809682Y-14330738D01*
X17809682Y-14330738D02*
X17800158Y-14340262D01*
X17800158Y-14340262D02*
X17781110Y-14349786D01*
X17781110Y-14349786D02*
X17762063Y-14349786D01*
X17762063Y-14349786D02*
X17743015Y-14340262D01*
X17743015Y-14340262D02*
X17733491Y-14330738D01*
X17733491Y-14330738D02*
X17723967Y-14311691D01*
X17723967Y-14311691D02*
X17714444Y-14273595D01*
X17714444Y-14273595D02*
X17714444Y-14225976D01*
X17714444Y-14225976D02*
X17723967Y-14187881D01*
X17723967Y-14187881D02*
X17733491Y-14168834D01*
X17733491Y-14168834D02*
X17743015Y-14159310D01*
X17743015Y-14159310D02*
X17762063Y-14149786D01*
X17952539Y-14149786D02*
X17971586Y-14149786D01*
X17971586Y-14149786D02*
X17990634Y-14159310D01*
X17990634Y-14159310D02*
X18000158Y-14168834D01*
X18000158Y-14168834D02*
X18009682Y-14187881D01*
X18009682Y-14187881D02*
X18019205Y-14225976D01*
X18019205Y-14225976D02*
X18019205Y-14273595D01*
X18019205Y-14273595D02*
X18009682Y-14311691D01*
X18009682Y-14311691D02*
X18000158Y-14330738D01*
X18000158Y-14330738D02*
X17990634Y-14340262D01*
X17990634Y-14340262D02*
X17971586Y-14349786D01*
X17971586Y-14349786D02*
X17952539Y-14349786D01*
X17952539Y-14349786D02*
X17933491Y-14340262D01*
X17933491Y-14340262D02*
X17923967Y-14330738D01*
X17923967Y-14330738D02*
X17914444Y-14311691D01*
X17914444Y-14311691D02*
X17904920Y-14273595D01*
X17904920Y-14273595D02*
X17904920Y-14225976D01*
X17904920Y-14225976D02*
X17914444Y-14187881D01*
X17914444Y-14187881D02*
X17923967Y-14168834D01*
X17923967Y-14168834D02*
X17933491Y-14159310D01*
X17933491Y-14159310D02*
X17952539Y-14149786D01*
X18104920Y-14349786D02*
X18104920Y-14216453D01*
X18104920Y-14235500D02*
X18114444Y-14225976D01*
X18114444Y-14225976D02*
X18133491Y-14216453D01*
X18133491Y-14216453D02*
X18162063Y-14216453D01*
X18162063Y-14216453D02*
X18181110Y-14225976D01*
X18181110Y-14225976D02*
X18190634Y-14245024D01*
X18190634Y-14245024D02*
X18190634Y-14349786D01*
X18190634Y-14245024D02*
X18200158Y-14225976D01*
X18200158Y-14225976D02*
X18219205Y-14216453D01*
X18219205Y-14216453D02*
X18247777Y-14216453D01*
X18247777Y-14216453D02*
X18266825Y-14225976D01*
X18266825Y-14225976D02*
X18276348Y-14245024D01*
X18276348Y-14245024D02*
X18276348Y-14349786D01*
X18371586Y-14349786D02*
X18371586Y-14216453D01*
X18371586Y-14235500D02*
X18381110Y-14225976D01*
X18381110Y-14225976D02*
X18400158Y-14216453D01*
X18400158Y-14216453D02*
X18428729Y-14216453D01*
X18428729Y-14216453D02*
X18447777Y-14225976D01*
X18447777Y-14225976D02*
X18457301Y-14245024D01*
X18457301Y-14245024D02*
X18457301Y-14349786D01*
X18457301Y-14245024D02*
X18466825Y-14225976D01*
X18466825Y-14225976D02*
X18485872Y-14216453D01*
X18485872Y-14216453D02*
X18514444Y-14216453D01*
X18514444Y-14216453D02*
X18533491Y-14225976D01*
X18533491Y-14225976D02*
X18543015Y-14245024D01*
X18543015Y-14245024D02*
X18543015Y-14349786D01*
X18933491Y-14140262D02*
X18762063Y-14397405D01*
X19190634Y-14149786D02*
X19209682Y-14149786D01*
X19209682Y-14149786D02*
X19228729Y-14159310D01*
X19228729Y-14159310D02*
X19238253Y-14168834D01*
X19238253Y-14168834D02*
X19247777Y-14187881D01*
X19247777Y-14187881D02*
X19257301Y-14225976D01*
X19257301Y-14225976D02*
X19257301Y-14273595D01*
X19257301Y-14273595D02*
X19247777Y-14311691D01*
X19247777Y-14311691D02*
X19238253Y-14330738D01*
X19238253Y-14330738D02*
X19228729Y-14340262D01*
X19228729Y-14340262D02*
X19209682Y-14349786D01*
X19209682Y-14349786D02*
X19190634Y-14349786D01*
X19190634Y-14349786D02*
X19171587Y-14340262D01*
X19171587Y-14340262D02*
X19162063Y-14330738D01*
X19162063Y-14330738D02*
X19152539Y-14311691D01*
X19152539Y-14311691D02*
X19143015Y-14273595D01*
X19143015Y-14273595D02*
X19143015Y-14225976D01*
X19143015Y-14225976D02*
X19152539Y-14187881D01*
X19152539Y-14187881D02*
X19162063Y-14168834D01*
X19162063Y-14168834D02*
X19171587Y-14159310D01*
X19171587Y-14159310D02*
X19190634Y-14149786D01*
X19343015Y-14330738D02*
X19352539Y-14340262D01*
X19352539Y-14340262D02*
X19343015Y-14349786D01*
X19343015Y-14349786D02*
X19333491Y-14340262D01*
X19333491Y-14340262D02*
X19343015Y-14330738D01*
X19343015Y-14330738D02*
X19343015Y-14349786D01*
X19476348Y-14149786D02*
X19495396Y-14149786D01*
X19495396Y-14149786D02*
X19514444Y-14159310D01*
X19514444Y-14159310D02*
X19523968Y-14168834D01*
X19523968Y-14168834D02*
X19533491Y-14187881D01*
X19533491Y-14187881D02*
X19543015Y-14225976D01*
X19543015Y-14225976D02*
X19543015Y-14273595D01*
X19543015Y-14273595D02*
X19533491Y-14311691D01*
X19533491Y-14311691D02*
X19523968Y-14330738D01*
X19523968Y-14330738D02*
X19514444Y-14340262D01*
X19514444Y-14340262D02*
X19495396Y-14349786D01*
X19495396Y-14349786D02*
X19476348Y-14349786D01*
X19476348Y-14349786D02*
X19457301Y-14340262D01*
X19457301Y-14340262D02*
X19447777Y-14330738D01*
X19447777Y-14330738D02*
X19438253Y-14311691D01*
X19438253Y-14311691D02*
X19428729Y-14273595D01*
X19428729Y-14273595D02*
X19428729Y-14225976D01*
X19428729Y-14225976D02*
X19438253Y-14187881D01*
X19438253Y-14187881D02*
X19447777Y-14168834D01*
X19447777Y-14168834D02*
X19457301Y-14159310D01*
X19457301Y-14159310D02*
X19476348Y-14149786D01*
X19609682Y-14149786D02*
X19733491Y-14149786D01*
X19733491Y-14149786D02*
X19666825Y-14225976D01*
X19666825Y-14225976D02*
X19695396Y-14225976D01*
X19695396Y-14225976D02*
X19714444Y-14235500D01*
X19714444Y-14235500D02*
X19723968Y-14245024D01*
X19723968Y-14245024D02*
X19733491Y-14264072D01*
X19733491Y-14264072D02*
X19733491Y-14311691D01*
X19733491Y-14311691D02*
X19723968Y-14330738D01*
X19723968Y-14330738D02*
X19714444Y-14340262D01*
X19714444Y-14340262D02*
X19695396Y-14349786D01*
X19695396Y-14349786D02*
X19638253Y-14349786D01*
X19638253Y-14349786D02*
X19619206Y-14340262D01*
X19619206Y-14340262D02*
X19609682Y-14330738D01*
X19923968Y-14349786D02*
X19809682Y-14349786D01*
X19866825Y-14349786D02*
X19866825Y-14149786D01*
X19866825Y-14149786D02*
X19847777Y-14178357D01*
X19847777Y-14178357D02*
X19828729Y-14197405D01*
X19828729Y-14197405D02*
X19809682Y-14206929D01*
X20104920Y-14149786D02*
X20009682Y-14149786D01*
X20009682Y-14149786D02*
X20000158Y-14245024D01*
X20000158Y-14245024D02*
X20009682Y-14235500D01*
X20009682Y-14235500D02*
X20028729Y-14225976D01*
X20028729Y-14225976D02*
X20076349Y-14225976D01*
X20076349Y-14225976D02*
X20095396Y-14235500D01*
X20095396Y-14235500D02*
X20104920Y-14245024D01*
X20104920Y-14245024D02*
X20114444Y-14264072D01*
X20114444Y-14264072D02*
X20114444Y-14311691D01*
X20114444Y-14311691D02*
X20104920Y-14330738D01*
X20104920Y-14330738D02*
X20095396Y-14340262D01*
X20095396Y-14340262D02*
X20076349Y-14349786D01*
X20076349Y-14349786D02*
X20028729Y-14349786D01*
X20028729Y-14349786D02*
X20009682Y-14340262D01*
X20009682Y-14340262D02*
X20000158Y-14330738D01*
X20190634Y-14149786D02*
X20190634Y-14187881D01*
X20266825Y-14149786D02*
X20266825Y-14187881D01*
X20562063Y-14425976D02*
X20552539Y-14416453D01*
X20552539Y-14416453D02*
X20533491Y-14387881D01*
X20533491Y-14387881D02*
X20523968Y-14368834D01*
X20523968Y-14368834D02*
X20514444Y-14340262D01*
X20514444Y-14340262D02*
X20504920Y-14292643D01*
X20504920Y-14292643D02*
X20504920Y-14254548D01*
X20504920Y-14254548D02*
X20514444Y-14206929D01*
X20514444Y-14206929D02*
X20523968Y-14178357D01*
X20523968Y-14178357D02*
X20533491Y-14159310D01*
X20533491Y-14159310D02*
X20552539Y-14130738D01*
X20552539Y-14130738D02*
X20562063Y-14121214D01*
X20628730Y-14168834D02*
X20638253Y-14159310D01*
X20638253Y-14159310D02*
X20657301Y-14149786D01*
X20657301Y-14149786D02*
X20704920Y-14149786D01*
X20704920Y-14149786D02*
X20723968Y-14159310D01*
X20723968Y-14159310D02*
X20733491Y-14168834D01*
X20733491Y-14168834D02*
X20743015Y-14187881D01*
X20743015Y-14187881D02*
X20743015Y-14206929D01*
X20743015Y-14206929D02*
X20733491Y-14235500D01*
X20733491Y-14235500D02*
X20619206Y-14349786D01*
X20619206Y-14349786D02*
X20743015Y-14349786D01*
X20981111Y-14349786D02*
X20981111Y-14149786D01*
X21066825Y-14349786D02*
X21066825Y-14245024D01*
X21066825Y-14245024D02*
X21057301Y-14225976D01*
X21057301Y-14225976D02*
X21038253Y-14216453D01*
X21038253Y-14216453D02*
X21009682Y-14216453D01*
X21009682Y-14216453D02*
X20990634Y-14225976D01*
X20990634Y-14225976D02*
X20981111Y-14235500D01*
X21190634Y-14349786D02*
X21171587Y-14340262D01*
X21171587Y-14340262D02*
X21162063Y-14330738D01*
X21162063Y-14330738D02*
X21152539Y-14311691D01*
X21152539Y-14311691D02*
X21152539Y-14254548D01*
X21152539Y-14254548D02*
X21162063Y-14235500D01*
X21162063Y-14235500D02*
X21171587Y-14225976D01*
X21171587Y-14225976D02*
X21190634Y-14216453D01*
X21190634Y-14216453D02*
X21219206Y-14216453D01*
X21219206Y-14216453D02*
X21238253Y-14225976D01*
X21238253Y-14225976D02*
X21247777Y-14235500D01*
X21247777Y-14235500D02*
X21257301Y-14254548D01*
X21257301Y-14254548D02*
X21257301Y-14311691D01*
X21257301Y-14311691D02*
X21247777Y-14330738D01*
X21247777Y-14330738D02*
X21238253Y-14340262D01*
X21238253Y-14340262D02*
X21219206Y-14349786D01*
X21219206Y-14349786D02*
X21190634Y-14349786D01*
X21371587Y-14349786D02*
X21352539Y-14340262D01*
X21352539Y-14340262D02*
X21343015Y-14321214D01*
X21343015Y-14321214D02*
X21343015Y-14149786D01*
X21523968Y-14340262D02*
X21504920Y-14349786D01*
X21504920Y-14349786D02*
X21466825Y-14349786D01*
X21466825Y-14349786D02*
X21447777Y-14340262D01*
X21447777Y-14340262D02*
X21438253Y-14321214D01*
X21438253Y-14321214D02*
X21438253Y-14245024D01*
X21438253Y-14245024D02*
X21447777Y-14225976D01*
X21447777Y-14225976D02*
X21466825Y-14216453D01*
X21466825Y-14216453D02*
X21504920Y-14216453D01*
X21504920Y-14216453D02*
X21523968Y-14225976D01*
X21523968Y-14225976D02*
X21533492Y-14245024D01*
X21533492Y-14245024D02*
X21533492Y-14264072D01*
X21533492Y-14264072D02*
X21438253Y-14283119D01*
X21609682Y-14340262D02*
X21628730Y-14349786D01*
X21628730Y-14349786D02*
X21666825Y-14349786D01*
X21666825Y-14349786D02*
X21685873Y-14340262D01*
X21685873Y-14340262D02*
X21695396Y-14321214D01*
X21695396Y-14321214D02*
X21695396Y-14311691D01*
X21695396Y-14311691D02*
X21685873Y-14292643D01*
X21685873Y-14292643D02*
X21666825Y-14283119D01*
X21666825Y-14283119D02*
X21638253Y-14283119D01*
X21638253Y-14283119D02*
X21619206Y-14273595D01*
X21619206Y-14273595D02*
X21609682Y-14254548D01*
X21609682Y-14254548D02*
X21609682Y-14245024D01*
X21609682Y-14245024D02*
X21619206Y-14225976D01*
X21619206Y-14225976D02*
X21638253Y-14216453D01*
X21638253Y-14216453D02*
X21666825Y-14216453D01*
X21666825Y-14216453D02*
X21685873Y-14225976D01*
X21762063Y-14425976D02*
X21771587Y-14416453D01*
X21771587Y-14416453D02*
X21790634Y-14387881D01*
X21790634Y-14387881D02*
X21800158Y-14368834D01*
X21800158Y-14368834D02*
X21809682Y-14340262D01*
X21809682Y-14340262D02*
X21819206Y-14292643D01*
X21819206Y-14292643D02*
X21819206Y-14254548D01*
X21819206Y-14254548D02*
X21809682Y-14206929D01*
X21809682Y-14206929D02*
X21800158Y-14178357D01*
X21800158Y-14178357D02*
X21790634Y-14159310D01*
X21790634Y-14159310D02*
X21771587Y-14130738D01*
X21771587Y-14130738D02*
X21762063Y-14121214D01*
M02*
