%TF.GenerationSoftware,KiCad,Pcbnew,7.0.5*%
%TF.CreationDate,2024-01-23T00:39:19-05:00*%
%TF.ProjectId,SIDE,53494445-2e6b-4696-9361-645f70636258,rev?*%
%TF.SameCoordinates,Original*%
%TF.FileFunction,Drillmap*%
%TF.FilePolarity,Positive*%
%FSLAX45Y45*%
G04 Gerber Fmt 4.5, Leading zero omitted, Abs format (unit mm)*
G04 Created by KiCad (PCBNEW 7.0.5) date 2024-01-23 00:39:19*
%MOMM*%
%LPD*%
G01*
G04 APERTURE LIST*
%ADD10C,0.100000*%
%ADD11C,0.200000*%
G04 APERTURE END LIST*
D10*
X16992000Y-13349302D02*
X19892000Y-13349302D01*
X18552000Y-13129302D02*
G75*
G03*
X18552000Y-13129302I-110000J0D01*
G01*
X19892000Y-13349302D02*
X19892000Y-6549302D01*
X17602000Y-13129302D02*
G75*
G03*
X17602000Y-13129302I-110000J0D01*
G01*
X19502000Y-13129302D02*
G75*
G03*
X19502000Y-13129302I-110000J0D01*
G01*
X19502000Y-6849302D02*
G75*
G03*
X19502000Y-6849302I-110000J0D01*
G01*
X18552000Y-6849302D02*
G75*
G03*
X18552000Y-6849302I-110000J0D01*
G01*
X19892000Y-6549302D02*
X16992000Y-6549302D01*
X17602000Y-6849302D02*
G75*
G03*
X17602000Y-6849302I-110000J0D01*
G01*
X16992000Y-6549302D02*
X16992000Y-13349302D01*
X17057000Y-7551802D02*
X17407000Y-7551802D01*
X17407000Y-8221802D01*
X17057000Y-8221802D01*
X17057000Y-7551802D01*
D11*
X17247777Y-13665786D02*
X17247777Y-13465786D01*
X17247777Y-13465786D02*
X17295396Y-13465786D01*
X17295396Y-13465786D02*
X17323967Y-13475310D01*
X17323967Y-13475310D02*
X17343015Y-13494357D01*
X17343015Y-13494357D02*
X17352539Y-13513405D01*
X17352539Y-13513405D02*
X17362063Y-13551500D01*
X17362063Y-13551500D02*
X17362063Y-13580072D01*
X17362063Y-13580072D02*
X17352539Y-13618167D01*
X17352539Y-13618167D02*
X17343015Y-13637214D01*
X17343015Y-13637214D02*
X17323967Y-13656262D01*
X17323967Y-13656262D02*
X17295396Y-13665786D01*
X17295396Y-13665786D02*
X17247777Y-13665786D01*
X17447777Y-13665786D02*
X17447777Y-13532453D01*
X17447777Y-13570548D02*
X17457301Y-13551500D01*
X17457301Y-13551500D02*
X17466824Y-13541976D01*
X17466824Y-13541976D02*
X17485872Y-13532453D01*
X17485872Y-13532453D02*
X17504920Y-13532453D01*
X17571586Y-13665786D02*
X17571586Y-13532453D01*
X17571586Y-13465786D02*
X17562063Y-13475310D01*
X17562063Y-13475310D02*
X17571586Y-13484834D01*
X17571586Y-13484834D02*
X17581110Y-13475310D01*
X17581110Y-13475310D02*
X17571586Y-13465786D01*
X17571586Y-13465786D02*
X17571586Y-13484834D01*
X17695396Y-13665786D02*
X17676348Y-13656262D01*
X17676348Y-13656262D02*
X17666824Y-13637214D01*
X17666824Y-13637214D02*
X17666824Y-13465786D01*
X17800158Y-13665786D02*
X17781110Y-13656262D01*
X17781110Y-13656262D02*
X17771586Y-13637214D01*
X17771586Y-13637214D02*
X17771586Y-13465786D01*
X18028729Y-13665786D02*
X18028729Y-13465786D01*
X18028729Y-13465786D02*
X18095396Y-13608643D01*
X18095396Y-13608643D02*
X18162063Y-13465786D01*
X18162063Y-13465786D02*
X18162063Y-13665786D01*
X18343015Y-13665786D02*
X18343015Y-13561024D01*
X18343015Y-13561024D02*
X18333491Y-13541976D01*
X18333491Y-13541976D02*
X18314444Y-13532453D01*
X18314444Y-13532453D02*
X18276348Y-13532453D01*
X18276348Y-13532453D02*
X18257301Y-13541976D01*
X18343015Y-13656262D02*
X18323967Y-13665786D01*
X18323967Y-13665786D02*
X18276348Y-13665786D01*
X18276348Y-13665786D02*
X18257301Y-13656262D01*
X18257301Y-13656262D02*
X18247777Y-13637214D01*
X18247777Y-13637214D02*
X18247777Y-13618167D01*
X18247777Y-13618167D02*
X18257301Y-13599119D01*
X18257301Y-13599119D02*
X18276348Y-13589595D01*
X18276348Y-13589595D02*
X18323967Y-13589595D01*
X18323967Y-13589595D02*
X18343015Y-13580072D01*
X18438253Y-13532453D02*
X18438253Y-13732453D01*
X18438253Y-13541976D02*
X18457301Y-13532453D01*
X18457301Y-13532453D02*
X18495396Y-13532453D01*
X18495396Y-13532453D02*
X18514444Y-13541976D01*
X18514444Y-13541976D02*
X18523967Y-13551500D01*
X18523967Y-13551500D02*
X18533491Y-13570548D01*
X18533491Y-13570548D02*
X18533491Y-13627691D01*
X18533491Y-13627691D02*
X18523967Y-13646738D01*
X18523967Y-13646738D02*
X18514444Y-13656262D01*
X18514444Y-13656262D02*
X18495396Y-13665786D01*
X18495396Y-13665786D02*
X18457301Y-13665786D01*
X18457301Y-13665786D02*
X18438253Y-13656262D01*
X18619205Y-13646738D02*
X18628729Y-13656262D01*
X18628729Y-13656262D02*
X18619205Y-13665786D01*
X18619205Y-13665786D02*
X18609682Y-13656262D01*
X18609682Y-13656262D02*
X18619205Y-13646738D01*
X18619205Y-13646738D02*
X18619205Y-13665786D01*
X18619205Y-13541976D02*
X18628729Y-13551500D01*
X18628729Y-13551500D02*
X18619205Y-13561024D01*
X18619205Y-13561024D02*
X18609682Y-13551500D01*
X18609682Y-13551500D02*
X18619205Y-13541976D01*
X18619205Y-13541976D02*
X18619205Y-13561024D01*
M02*
