M48
; DRILL file {KiCad 7.0.5} date Tue Jan 23 00:39:18 2024
; FORMAT={-:-/ absolute / inch / decimal}
; #@! TF.CreationDate,2024-01-23T00:39:18-05:00
; #@! TF.GenerationSoftware,Kicad,Pcbnew,7.0.5
; #@! TF.FileFunction,Plated,1,2,PTH
FMAT,2
INCH
; #@! TA.AperFunction,Plated,PTH,ViaDrill
T1C0.0130
; #@! TA.AperFunction,Plated,PTH,ComponentDrill
T2C0.0315
%
G90
G05
T1
X6.9772Y-3.6503
X6.9772Y-3.7487
X6.9772Y-3.8472
X6.9772Y-3.9456
X6.9772Y-4.044
X6.9772Y-4.1424
X6.9772Y-4.2409
X6.9772Y-4.3393
X6.9772Y-4.4377
X6.9772Y-4.5361
X6.9772Y-4.6346
X6.9772Y-4.733
X6.9772Y-4.8314
X7.0559Y-2.8039
X7.0756Y-3.6503
X7.0756Y-3.7487
X7.0756Y-3.8472
X7.0756Y-3.9456
X7.0756Y-4.044
X7.0756Y-4.1424
X7.0756Y-4.2409
X7.0756Y-4.3393
X7.0756Y-4.4377
X7.0756Y-4.5361
X7.0756Y-4.6346
X7.0756Y-4.733
X7.0756Y-4.8314
X7.174Y-2.8039
X7.174Y-3.6503
X7.174Y-3.7487
X7.174Y-3.8472
X7.174Y-3.9456
X7.174Y-4.044
X7.174Y-4.1424
X7.174Y-4.2409
X7.174Y-4.3393
X7.174Y-4.4377
X7.174Y-4.5361
X7.174Y-4.6346
X7.174Y-4.733
X7.2724Y-3.6503
X7.2724Y-3.7487
X7.2724Y-3.8472
X7.2724Y-3.9456
X7.2724Y-4.044
X7.2724Y-4.1424
X7.2724Y-4.2409
X7.2724Y-4.3393
X7.2724Y-4.4377
X7.2724Y-4.5361
X7.2724Y-4.6346
X7.2724Y-4.733
X7.2921Y-2.8039
X7.3197Y-5.0165
X7.363Y-5.0165
X7.3709Y-3.6503
X7.3709Y-3.7487
X7.3709Y-3.8472
X7.3709Y-3.9456
X7.3709Y-4.044
X7.3709Y-4.1424
X7.3709Y-4.2409
X7.3709Y-4.3393
X7.3709Y-4.4377
X7.3709Y-4.5361
X7.3709Y-4.6346
X7.3709Y-4.733
X7.4063Y-5.0165
X7.4102Y-2.8039
X7.4339Y-4.9889
X7.4693Y-3.6503
X7.4693Y-3.7487
X7.4693Y-3.8472
X7.4693Y-3.9456
X7.4693Y-4.044
X7.4693Y-4.1424
X7.4693Y-4.2409
X7.4693Y-4.3393
X7.4693Y-4.4377
X7.4693Y-4.5361
X7.4693Y-4.6346
X7.4693Y-4.733
X7.5283Y-2.8039
X7.5677Y-3.6503
X7.5677Y-3.7487
X7.5677Y-3.8472
X7.5677Y-3.9456
X7.5677Y-4.044
X7.5677Y-4.1424
X7.5677Y-4.2409
X7.5677Y-4.3393
X7.5677Y-4.4377
X7.5677Y-4.5361
X7.5677Y-4.6346
X7.5677Y-4.733
X7.5677Y-4.8314
X7.6465Y-2.8039
X7.6661Y-3.6503
X7.6661Y-3.7487
X7.6661Y-3.8472
X7.6661Y-3.9456
X7.6661Y-4.044
X7.6661Y-4.1424
X7.6661Y-4.2409
X7.6661Y-4.3393
X7.6661Y-4.4377
X7.6661Y-4.5361
X7.6661Y-4.6346
X7.6661Y-4.733
X7.6661Y-4.8314
T2
X6.7843Y-2.9043
X6.7843Y-3.3043
T0
M30
