%TF.GenerationSoftware,KiCad,Pcbnew,7.0.5*%
%TF.CreationDate,2024-01-26T22:20:05-05:00*%
%TF.ProjectId,LORA,4c4f5241-2e6b-4696-9361-645f70636258,rev?*%
%TF.SameCoordinates,Original*%
%TF.FileFunction,Copper,L2,Bot*%
%TF.FilePolarity,Positive*%
%FSLAX46Y46*%
G04 Gerber Fmt 4.6, Leading zero omitted, Abs format (unit mm)*
G04 Created by KiCad (PCBNEW 7.0.5) date 2024-01-26 22:20:05*
%MOMM*%
%LPD*%
G01*
G04 APERTURE LIST*
G04 Aperture macros list*
%AMRoundRect*
0 Rectangle with rounded corners*
0 $1 Rounding radius*
0 $2 $3 $4 $5 $6 $7 $8 $9 X,Y pos of 4 corners*
0 Add a 4 corners polygon primitive as box body*
4,1,4,$2,$3,$4,$5,$6,$7,$8,$9,$2,$3,0*
0 Add four circle primitives for the rounded corners*
1,1,$1+$1,$2,$3*
1,1,$1+$1,$4,$5*
1,1,$1+$1,$6,$7*
1,1,$1+$1,$8,$9*
0 Add four rect primitives between the rounded corners*
20,1,$1+$1,$2,$3,$4,$5,0*
20,1,$1+$1,$4,$5,$6,$7,0*
20,1,$1+$1,$6,$7,$8,$9,0*
20,1,$1+$1,$8,$9,$2,$3,0*%
G04 Aperture macros list end*
%TA.AperFunction,ComponentPad*%
%ADD10R,1.350000X1.350000*%
%TD*%
%TA.AperFunction,ComponentPad*%
%ADD11O,1.350000X1.350000*%
%TD*%
%TA.AperFunction,SMDPad,CuDef*%
%ADD12RoundRect,0.150000X-0.625000X0.150000X-0.625000X-0.150000X0.625000X-0.150000X0.625000X0.150000X0*%
%TD*%
%TA.AperFunction,SMDPad,CuDef*%
%ADD13RoundRect,0.250000X-0.650000X0.350000X-0.650000X-0.350000X0.650000X-0.350000X0.650000X0.350000X0*%
%TD*%
%TA.AperFunction,SMDPad,CuDef*%
%ADD14RoundRect,0.250000X-0.650000X0.412500X-0.650000X-0.412500X0.650000X-0.412500X0.650000X0.412500X0*%
%TD*%
%TA.AperFunction,ComponentPad*%
%ADD15R,1.700000X1.700000*%
%TD*%
%TA.AperFunction,ComponentPad*%
%ADD16O,1.700000X1.700000*%
%TD*%
%TA.AperFunction,ComponentPad*%
%ADD17C,2.800000*%
%TD*%
%TA.AperFunction,ViaPad*%
%ADD18C,0.660400*%
%TD*%
%TA.AperFunction,ViaPad*%
%ADD19C,1.016000*%
%TD*%
%TA.AperFunction,Conductor*%
%ADD20C,0.152400*%
%TD*%
%TA.AperFunction,Conductor*%
%ADD21C,0.635000*%
%TD*%
G04 APERTURE END LIST*
D10*
%TO.P,J6,1,Pin_1*%
%TO.N,/LED31*%
X162190000Y-89868621D03*
D11*
%TO.P,J6,2,Pin_2*%
%TO.N,/LED32*%
X160190000Y-89868621D03*
%TD*%
D10*
%TO.P,J5,1,Pin_1*%
%TO.N,/A3*%
X167610000Y-101748621D03*
D11*
%TO.P,J5,2,Pin_2*%
%TO.N,/RST_LoRa*%
X167610000Y-103748621D03*
%TD*%
D12*
%TO.P,J3,1,1*%
%TO.N,GND*%
X157535000Y-97548621D03*
%TO.P,J3,2,2*%
%TO.N,/MISO*%
X157535000Y-98548621D03*
%TO.P,J3,3,3*%
%TO.N,/SCK*%
X157535000Y-99548621D03*
%TO.P,J3,4,4*%
%TO.N,/MOSI*%
X157535000Y-100548621D03*
%TO.P,J3,5,5*%
%TO.N,/LoRa_CS*%
X157535000Y-101548621D03*
%TO.P,J3,6,6*%
%TO.N,VCC*%
X157535000Y-102548621D03*
D13*
%TO.P,J3,MP,MP*%
%TO.N,GND*%
X155010000Y-103848621D03*
X155010000Y-96248621D03*
%TD*%
D14*
%TO.P,C1,1*%
%TO.N,VCC*%
X143610000Y-101836121D03*
%TO.P,C1,2*%
%TO.N,GND*%
X143610000Y-104961121D03*
%TD*%
D12*
%TO.P,J4,1,1*%
%TO.N,/LED02*%
X162860000Y-97548621D03*
%TO.P,J4,2,2*%
%TO.N,/LED01*%
X162860000Y-98548621D03*
%TO.P,J4,3,3*%
%TO.N,/LED12*%
X162860000Y-99548621D03*
%TO.P,J4,4,4*%
%TO.N,/LED11*%
X162860000Y-100548621D03*
%TO.P,J4,5,5*%
%TO.N,/LED22*%
X162860000Y-101548621D03*
%TO.P,J4,6,6*%
%TO.N,/LED21*%
X162860000Y-102548621D03*
D13*
%TO.P,J4,MP,MP*%
%TO.N,GND*%
X160335000Y-103848621D03*
X160335000Y-96248621D03*
%TD*%
D14*
%TO.P,C2,1*%
%TO.N,VCC*%
X152110000Y-102548621D03*
%TO.P,C2,2*%
%TO.N,GND*%
X152110000Y-105673621D03*
%TD*%
D15*
%TO.P,J1,1,Pin_1*%
%TO.N,/VBAT*%
X143810000Y-86465599D03*
D16*
%TO.P,J1,2,Pin_2*%
%TO.N,/D8*%
X143810000Y-83925599D03*
%TO.P,J1,3,Pin_3*%
%TO.N,/A5*%
X146350000Y-86465599D03*
%TO.P,J1,4,Pin_4*%
%TO.N,/A3*%
X146350000Y-83925599D03*
%TO.P,J1,5,Pin_5*%
%TO.N,/VBUS*%
X148890000Y-86465599D03*
%TO.P,J1,6,Pin_6*%
%TO.N,/A2*%
X148890000Y-83925599D03*
%TO.P,J1,7,Pin_7*%
%TO.N,/LoRa_CS*%
X151430000Y-86465599D03*
%TO.P,J1,8,Pin_8*%
%TO.N,GND*%
X151430000Y-83925599D03*
%TO.P,J1,9,Pin_9*%
%TO.N,/BURN_EN*%
X153970000Y-86465599D03*
%TO.P,J1,10,Pin_10*%
%TO.N,GND*%
X153970000Y-83925599D03*
%TO.P,J1,11,Pin_11*%
%TO.N,/SDA*%
X156510000Y-86465599D03*
%TO.P,J1,12,Pin_12*%
%TO.N,/SCL*%
X156510000Y-83925599D03*
%TD*%
D15*
%TO.P,J2,1,Pin_1*%
%TO.N,/D12*%
X156510000Y-113743621D03*
D16*
%TO.P,J2,2,Pin_2*%
%TO.N,/D10*%
X156510000Y-116283621D03*
%TO.P,J2,3,Pin_3*%
%TO.N,/MOSI*%
X153970000Y-113743621D03*
%TO.P,J2,4,Pin_4*%
%TO.N,/D1*%
X153970000Y-116283621D03*
%TO.P,J2,5,Pin_5*%
%TO.N,/SCK*%
X151430000Y-113743621D03*
%TO.P,J2,6,Pin_6*%
%TO.N,/D3*%
X151430000Y-116283621D03*
%TO.P,J2,7,Pin_7*%
%TO.N,/D2*%
X148890000Y-113743621D03*
%TO.P,J2,8,Pin_8*%
%TO.N,/A4*%
X148890000Y-116283621D03*
%TO.P,J2,9,Pin_9*%
%TO.N,/MISO*%
X146350000Y-113743621D03*
%TO.P,J2,10,Pin_10*%
%TO.N,GND*%
X146350000Y-116283621D03*
%TO.P,J2,11,Pin_11*%
%TO.N,/BAT_BR*%
X143810000Y-113743621D03*
%TO.P,J2,12,Pin_12*%
%TO.N,GND*%
X143810000Y-116283621D03*
%TD*%
D17*
%TO.P,U2,1,ANT*%
%TO.N,unconnected-(U2-ANT-Pad1)*%
X138860000Y-112998621D03*
%TO.P,U2,2,NC*%
%TO.N,Net-(U1-ANT)*%
X138860000Y-87598621D03*
%TD*%
D18*
%TO.N,GND*%
X146160000Y-105698621D03*
X148160000Y-107698621D03*
X152660000Y-111198621D03*
X156160000Y-111198621D03*
X157160000Y-112198621D03*
X157160000Y-110198621D03*
X158660000Y-110198621D03*
X158660000Y-112198621D03*
X158660000Y-114198621D03*
X158660000Y-116198621D03*
X160160000Y-116198621D03*
X160160000Y-114198621D03*
X160160000Y-112198621D03*
X160160000Y-110198621D03*
X161660000Y-110198621D03*
X161660000Y-112198621D03*
X161660000Y-114198621D03*
X163160000Y-114198621D03*
X163160000Y-112198621D03*
X164660000Y-112198621D03*
X164660000Y-110198621D03*
X163160000Y-110198621D03*
X163160000Y-108198621D03*
X164660000Y-108198621D03*
X166160000Y-108198621D03*
X167660000Y-106698621D03*
X166160000Y-106698621D03*
X164660000Y-106698621D03*
X161360000Y-98998621D03*
X163160000Y-95198621D03*
X164660000Y-96198621D03*
X165660000Y-102198621D03*
X161660000Y-106198621D03*
X163160000Y-104198621D03*
X150660000Y-104198621D03*
X152160000Y-104198621D03*
X150160000Y-105698621D03*
X155160000Y-92698621D03*
X153160000Y-96198621D03*
X155160000Y-98198621D03*
X153660000Y-100698621D03*
X156160000Y-106198621D03*
X150660000Y-110198621D03*
X150660000Y-111198621D03*
X149160000Y-111198621D03*
X147160000Y-111198621D03*
X145160000Y-111198621D03*
X143160000Y-111198621D03*
X142160000Y-111698621D03*
X142160000Y-110698621D03*
X142160000Y-109698621D03*
X143160000Y-89198621D03*
X143160000Y-90198621D03*
X143160000Y-91198621D03*
X142160000Y-91698621D03*
X142160000Y-90698621D03*
X142160000Y-89698621D03*
X142160000Y-88698621D03*
X152660000Y-110198621D03*
X149160000Y-110198621D03*
X147160000Y-110198621D03*
X145160000Y-110198621D03*
X143160000Y-110198621D03*
X146160000Y-107698621D03*
X149160000Y-104198621D03*
X146160000Y-100198621D03*
X146160000Y-94198621D03*
X146160000Y-96198621D03*
X146160000Y-98198621D03*
X151160000Y-98198621D03*
X151160000Y-100198621D03*
X149160000Y-100198621D03*
X149160000Y-98198621D03*
X149160000Y-96198621D03*
X149160000Y-94198621D03*
X154160000Y-94198621D03*
X161160000Y-92198621D03*
X163160000Y-93198621D03*
X165160000Y-94198621D03*
X167160000Y-93198621D03*
X165160000Y-92198621D03*
X165160000Y-90198621D03*
X165160000Y-88198621D03*
X161160000Y-85198621D03*
X159160000Y-85198621D03*
X159160000Y-87198621D03*
X158160000Y-91198621D03*
X158160000Y-89198621D03*
X156160000Y-89198621D03*
X154160000Y-89198621D03*
X152160000Y-91198621D03*
X152160000Y-89198621D03*
X149160000Y-89198621D03*
X149160000Y-91198621D03*
X144660000Y-91198621D03*
X146160000Y-91198621D03*
X146160000Y-89198621D03*
X144660000Y-89198621D03*
%TO.N,VCC*%
X154470000Y-90878621D03*
%TO.N,/LoRa_CS*%
X155500000Y-99798621D03*
%TO.N,/MISO*%
X159047500Y-105798621D03*
%TO.N,/MOSI*%
X158170000Y-103818621D03*
%TO.N,/SCK*%
X160120000Y-101838621D03*
%TO.N,/A3*%
X146310000Y-103798621D03*
%TO.N,/LED21*%
X168610000Y-98748621D03*
%TO.N,/LED22*%
X166860000Y-98748621D03*
%TO.N,/LED12*%
X166860000Y-97148621D03*
%TO.N,/LED11*%
X168610000Y-97148621D03*
%TO.N,/LED02*%
X166860000Y-95542632D03*
%TO.N,/LED01*%
X168610000Y-95542632D03*
D19*
%TO.N,VCC*%
X143610000Y-101836121D03*
D18*
%TO.N,GND*%
X150160000Y-82198621D03*
X146160000Y-118698621D03*
X147660000Y-118698621D03*
X153660000Y-118698621D03*
X152160000Y-118698621D03*
X152760000Y-120173621D03*
X146160000Y-82198621D03*
X156160000Y-82198621D03*
X154160000Y-82198621D03*
X150660000Y-118698621D03*
X148160000Y-82198621D03*
X155160000Y-118698621D03*
X148160000Y-80198621D03*
X144160000Y-82198621D03*
X149160000Y-118698621D03*
X147660000Y-120198621D03*
X152160000Y-82198621D03*
X152160000Y-80198621D03*
%TD*%
D20*
%TO.N,VCC*%
X152110000Y-93238621D02*
X152110000Y-102548621D01*
X154470000Y-90878621D02*
X152110000Y-93238621D01*
%TO.N,/LoRa_CS*%
X156000000Y-101548621D02*
X155500000Y-101048621D01*
X155500000Y-101048621D02*
X155500000Y-99798621D01*
X157535000Y-101548621D02*
X156000000Y-101548621D01*
%TO.N,/MISO*%
X160690000Y-105798621D02*
X159047500Y-105798621D01*
X161650000Y-104838621D02*
X160690000Y-105798621D01*
X161650000Y-100728621D02*
X161650000Y-104838621D01*
X159470000Y-98548621D02*
X161650000Y-100728621D01*
X157535000Y-98548621D02*
X159470000Y-98548621D01*
%TO.N,/MOSI*%
X158990000Y-102998621D02*
X158170000Y-103818621D01*
X158990000Y-100968621D02*
X158990000Y-102998621D01*
X158570000Y-100548621D02*
X158990000Y-100968621D01*
X157535000Y-100548621D02*
X158570000Y-100548621D01*
%TO.N,/SCK*%
X159140000Y-99548621D02*
X160120000Y-100528621D01*
X157535000Y-99548621D02*
X159140000Y-99548621D01*
X160120000Y-100528621D02*
X160120000Y-101838621D01*
%TO.N,/A3*%
X161760000Y-107598621D02*
X167610000Y-101748621D01*
X150110000Y-107598621D02*
X161760000Y-107598621D01*
X146310000Y-103798621D02*
X150110000Y-107598621D01*
%TO.N,/LED21*%
X167860000Y-99498621D02*
X168610000Y-98748621D01*
X163610000Y-102548621D02*
X166660000Y-99498621D01*
X162860000Y-102548621D02*
X163610000Y-102548621D01*
X166660000Y-99498621D02*
X167860000Y-99498621D01*
%TO.N,/LED22*%
X164060000Y-101548621D02*
X166860000Y-98748621D01*
X162860000Y-101548621D02*
X164060000Y-101548621D01*
%TO.N,/LED01*%
X166560000Y-96348621D02*
X167804011Y-96348621D01*
X167804011Y-96348621D02*
X168610000Y-95542632D01*
X164360000Y-98548621D02*
X166560000Y-96348621D01*
X162860000Y-98548621D02*
X164360000Y-98548621D01*
%TO.N,/LED02*%
X164854011Y-97548621D02*
X166860000Y-95542632D01*
X162860000Y-97548621D02*
X164854011Y-97548621D01*
%TO.N,/LED12*%
X164460000Y-99548621D02*
X166860000Y-97148621D01*
X162860000Y-99548621D02*
X164460000Y-99548621D01*
%TO.N,/LED11*%
X167810000Y-97948621D02*
X168610000Y-97148621D01*
X166560000Y-97948621D02*
X167810000Y-97948621D01*
X163960000Y-100548621D02*
X166560000Y-97948621D01*
X162860000Y-100548621D02*
X163960000Y-100548621D01*
D21*
%TO.N,VCC*%
X144322500Y-102548621D02*
X143610000Y-101836121D01*
X152110000Y-102548621D02*
X144322500Y-102548621D01*
X152110000Y-102548621D02*
X157535000Y-102548621D01*
%TD*%
%TA.AperFunction,Conductor*%
%TO.N,GND*%
G36*
X150203946Y-77388502D02*
G01*
X169810750Y-88708494D01*
X169849399Y-88754554D01*
X169854700Y-88784618D01*
X169854700Y-111424599D01*
X169834135Y-111481100D01*
X169810750Y-111500723D01*
X150203949Y-122820715D01*
X150144735Y-122831156D01*
X150116049Y-122820715D01*
X146770602Y-120889220D01*
X148749884Y-120889220D01*
X148769115Y-121121316D01*
X148769116Y-121121322D01*
X148826286Y-121347080D01*
X148826289Y-121347088D01*
X148897987Y-121510541D01*
X148919840Y-121560361D01*
X148919844Y-121560367D01*
X149047215Y-121755325D01*
X149047216Y-121755327D01*
X149047220Y-121755331D01*
X149204954Y-121926676D01*
X149388740Y-122069722D01*
X149593563Y-122180567D01*
X149813837Y-122256187D01*
X149813839Y-122256187D01*
X149813841Y-122256188D01*
X150043550Y-122294520D01*
X150043554Y-122294520D01*
X150276450Y-122294520D01*
X150506158Y-122256188D01*
X150506158Y-122256187D01*
X150506163Y-122256187D01*
X150726437Y-122180567D01*
X150931260Y-122069722D01*
X151115046Y-121926676D01*
X151272780Y-121755331D01*
X151400160Y-121560361D01*
X151493712Y-121347084D01*
X151550884Y-121121317D01*
X151570116Y-120889220D01*
X151550884Y-120657123D01*
X151550883Y-120657117D01*
X151493713Y-120431359D01*
X151493710Y-120431351D01*
X151400164Y-120218089D01*
X151400160Y-120218079D01*
X151319435Y-120094520D01*
X151272784Y-120023114D01*
X151272783Y-120023112D01*
X151115050Y-119851768D01*
X151115048Y-119851767D01*
X151115046Y-119851764D01*
X150931260Y-119708718D01*
X150726437Y-119597873D01*
X150726433Y-119597871D01*
X150726430Y-119597870D01*
X150506167Y-119522254D01*
X150506158Y-119522251D01*
X150276450Y-119483920D01*
X150276446Y-119483920D01*
X150043554Y-119483920D01*
X150043550Y-119483920D01*
X149813841Y-119522251D01*
X149813832Y-119522254D01*
X149593569Y-119597870D01*
X149388740Y-119708718D01*
X149204949Y-119851768D01*
X149047216Y-120023112D01*
X149047215Y-120023114D01*
X148919844Y-120218072D01*
X148919835Y-120218089D01*
X148826289Y-120431351D01*
X148826286Y-120431359D01*
X148769116Y-120657117D01*
X148769115Y-120657123D01*
X148749884Y-120889220D01*
X146770602Y-120889220D01*
X141453950Y-117819649D01*
X141415301Y-117773589D01*
X141410000Y-117743525D01*
X141410000Y-116410621D01*
X142789735Y-116410621D01*
X142797072Y-116485109D01*
X142855842Y-116678846D01*
X142855844Y-116678849D01*
X142951281Y-116857399D01*
X143079717Y-117013899D01*
X143079721Y-117013903D01*
X143236221Y-117142339D01*
X143414771Y-117237776D01*
X143414774Y-117237778D01*
X143608515Y-117296550D01*
X143683000Y-117303884D01*
X143683000Y-116770502D01*
X143774237Y-116783621D01*
X143845763Y-116783621D01*
X143937000Y-116770502D01*
X143937000Y-117303884D01*
X144011484Y-117296550D01*
X144205225Y-117237778D01*
X144205228Y-117237776D01*
X144383778Y-117142339D01*
X144540278Y-117013903D01*
X144540282Y-117013899D01*
X144668718Y-116857399D01*
X144764155Y-116678849D01*
X144764157Y-116678846D01*
X144822927Y-116485109D01*
X144830265Y-116410621D01*
X145329735Y-116410621D01*
X145337072Y-116485109D01*
X145395842Y-116678846D01*
X145395844Y-116678849D01*
X145491281Y-116857399D01*
X145619717Y-117013899D01*
X145619721Y-117013903D01*
X145776221Y-117142339D01*
X145954771Y-117237776D01*
X145954774Y-117237778D01*
X146148515Y-117296550D01*
X146223000Y-117303884D01*
X146223000Y-116770502D01*
X146314237Y-116783621D01*
X146385763Y-116783621D01*
X146477000Y-116770502D01*
X146477000Y-117303884D01*
X146551484Y-117296550D01*
X146745225Y-117237778D01*
X146745228Y-117237776D01*
X146923778Y-117142339D01*
X147080278Y-117013903D01*
X147080282Y-117013899D01*
X147208718Y-116857399D01*
X147304155Y-116678849D01*
X147304157Y-116678846D01*
X147362927Y-116485109D01*
X147370265Y-116410621D01*
X146833818Y-116410621D01*
X146850000Y-116355510D01*
X146850000Y-116283621D01*
X147882247Y-116283621D01*
X147901612Y-116480230D01*
X147958957Y-116669269D01*
X147958958Y-116669271D01*
X148052084Y-116843499D01*
X148177411Y-116996210D01*
X148330122Y-117121537D01*
X148504350Y-117214663D01*
X148693397Y-117272010D01*
X148890000Y-117291374D01*
X149086603Y-117272010D01*
X149275650Y-117214663D01*
X149449878Y-117121537D01*
X149602589Y-116996210D01*
X149727916Y-116843499D01*
X149821042Y-116669271D01*
X149878389Y-116480224D01*
X149897753Y-116283621D01*
X150422247Y-116283621D01*
X150441612Y-116480230D01*
X150498957Y-116669269D01*
X150498958Y-116669271D01*
X150592084Y-116843499D01*
X150717411Y-116996210D01*
X150870122Y-117121537D01*
X151044350Y-117214663D01*
X151233397Y-117272010D01*
X151430000Y-117291374D01*
X151626603Y-117272010D01*
X151815650Y-117214663D01*
X151989878Y-117121537D01*
X152142589Y-116996210D01*
X152267916Y-116843499D01*
X152361042Y-116669271D01*
X152418389Y-116480224D01*
X152437753Y-116283621D01*
X152962247Y-116283621D01*
X152981612Y-116480230D01*
X153038957Y-116669269D01*
X153038958Y-116669271D01*
X153132084Y-116843499D01*
X153257411Y-116996210D01*
X153410122Y-117121537D01*
X153584350Y-117214663D01*
X153773397Y-117272010D01*
X153970000Y-117291374D01*
X154166603Y-117272010D01*
X154355650Y-117214663D01*
X154529878Y-117121537D01*
X154682589Y-116996210D01*
X154807916Y-116843499D01*
X154901042Y-116669271D01*
X154958389Y-116480224D01*
X154977753Y-116283621D01*
X155502247Y-116283621D01*
X155521612Y-116480230D01*
X155578957Y-116669269D01*
X155578958Y-116669271D01*
X155672084Y-116843499D01*
X155797411Y-116996210D01*
X155950122Y-117121537D01*
X156124350Y-117214663D01*
X156313397Y-117272010D01*
X156510000Y-117291374D01*
X156706603Y-117272010D01*
X156895650Y-117214663D01*
X157069878Y-117121537D01*
X157222589Y-116996210D01*
X157347916Y-116843499D01*
X157441042Y-116669271D01*
X157498389Y-116480224D01*
X157517753Y-116283621D01*
X157498389Y-116087018D01*
X157441042Y-115897971D01*
X157347916Y-115723743D01*
X157222589Y-115571032D01*
X157069878Y-115445705D01*
X156895650Y-115352579D01*
X156895649Y-115352578D01*
X156895648Y-115352578D01*
X156706609Y-115295233D01*
X156706604Y-115295232D01*
X156706603Y-115295232D01*
X156510000Y-115275868D01*
X156509999Y-115275868D01*
X156462657Y-115280530D01*
X156313397Y-115295232D01*
X156313395Y-115295232D01*
X156313390Y-115295233D01*
X156124351Y-115352578D01*
X155950121Y-115445705D01*
X155797413Y-115571030D01*
X155797409Y-115571034D01*
X155672084Y-115723742D01*
X155578957Y-115897972D01*
X155521612Y-116087011D01*
X155502247Y-116283621D01*
X154977753Y-116283621D01*
X154958389Y-116087018D01*
X154901042Y-115897971D01*
X154807916Y-115723743D01*
X154682589Y-115571032D01*
X154529878Y-115445705D01*
X154355650Y-115352579D01*
X154355649Y-115352578D01*
X154355648Y-115352578D01*
X154166609Y-115295233D01*
X154166604Y-115295232D01*
X154166603Y-115295232D01*
X153970000Y-115275868D01*
X153773397Y-115295232D01*
X153773395Y-115295232D01*
X153773390Y-115295233D01*
X153584351Y-115352578D01*
X153410121Y-115445705D01*
X153257413Y-115571030D01*
X153257409Y-115571034D01*
X153132084Y-115723742D01*
X153038957Y-115897972D01*
X152981612Y-116087011D01*
X152962247Y-116283621D01*
X152437753Y-116283621D01*
X152418389Y-116087018D01*
X152361042Y-115897971D01*
X152267916Y-115723743D01*
X152142589Y-115571032D01*
X151989878Y-115445705D01*
X151815650Y-115352579D01*
X151815649Y-115352578D01*
X151815648Y-115352578D01*
X151626609Y-115295233D01*
X151626604Y-115295232D01*
X151626603Y-115295232D01*
X151430000Y-115275868D01*
X151429999Y-115275868D01*
X151382657Y-115280530D01*
X151233397Y-115295232D01*
X151233395Y-115295232D01*
X151233390Y-115295233D01*
X151044351Y-115352578D01*
X150870121Y-115445705D01*
X150717413Y-115571030D01*
X150717409Y-115571034D01*
X150592084Y-115723742D01*
X150498957Y-115897972D01*
X150441612Y-116087011D01*
X150422247Y-116283621D01*
X149897753Y-116283621D01*
X149878389Y-116087018D01*
X149821042Y-115897971D01*
X149727916Y-115723743D01*
X149602589Y-115571032D01*
X149449878Y-115445705D01*
X149275650Y-115352579D01*
X149275649Y-115352578D01*
X149275648Y-115352578D01*
X149086609Y-115295233D01*
X149086604Y-115295232D01*
X149086603Y-115295232D01*
X148890000Y-115275868D01*
X148889999Y-115275868D01*
X148842657Y-115280530D01*
X148693397Y-115295232D01*
X148693395Y-115295232D01*
X148693390Y-115295233D01*
X148504351Y-115352578D01*
X148330121Y-115445705D01*
X148177413Y-115571030D01*
X148177409Y-115571034D01*
X148052084Y-115723742D01*
X147958957Y-115897972D01*
X147901612Y-116087011D01*
X147882247Y-116283621D01*
X146850000Y-116283621D01*
X146850000Y-116211732D01*
X146833818Y-116156621D01*
X147370264Y-116156621D01*
X147362927Y-116082132D01*
X147304157Y-115888395D01*
X147304155Y-115888392D01*
X147208718Y-115709842D01*
X147080282Y-115553342D01*
X147080278Y-115553338D01*
X146923778Y-115424902D01*
X146745228Y-115329465D01*
X146745225Y-115329463D01*
X146551488Y-115270693D01*
X146477000Y-115263356D01*
X146477000Y-115796739D01*
X146385763Y-115783621D01*
X146314237Y-115783621D01*
X146223000Y-115796739D01*
X146223000Y-115263356D01*
X146148511Y-115270693D01*
X145954774Y-115329463D01*
X145954771Y-115329465D01*
X145776221Y-115424902D01*
X145619721Y-115553338D01*
X145619717Y-115553342D01*
X145491281Y-115709842D01*
X145395844Y-115888392D01*
X145395842Y-115888395D01*
X145337072Y-116082132D01*
X145329735Y-116156621D01*
X145866182Y-116156621D01*
X145850000Y-116211732D01*
X145850000Y-116355510D01*
X145866182Y-116410621D01*
X145329735Y-116410621D01*
X144830265Y-116410621D01*
X144293818Y-116410621D01*
X144310000Y-116355510D01*
X144310000Y-116211732D01*
X144293818Y-116156621D01*
X144830264Y-116156621D01*
X144822927Y-116082132D01*
X144764157Y-115888395D01*
X144764155Y-115888392D01*
X144668718Y-115709842D01*
X144540282Y-115553342D01*
X144540278Y-115553338D01*
X144383778Y-115424902D01*
X144205228Y-115329465D01*
X144205225Y-115329463D01*
X144011488Y-115270693D01*
X143937000Y-115263356D01*
X143937000Y-115796739D01*
X143845763Y-115783621D01*
X143774237Y-115783621D01*
X143683000Y-115796739D01*
X143683000Y-115263356D01*
X143608511Y-115270693D01*
X143414774Y-115329463D01*
X143414771Y-115329465D01*
X143236221Y-115424902D01*
X143079721Y-115553338D01*
X143079717Y-115553342D01*
X142951281Y-115709842D01*
X142855844Y-115888392D01*
X142855842Y-115888395D01*
X142797072Y-116082132D01*
X142789735Y-116156621D01*
X143326182Y-116156621D01*
X143310000Y-116211732D01*
X143310000Y-116355510D01*
X143326182Y-116410621D01*
X142789735Y-116410621D01*
X141410000Y-116410621D01*
X141410000Y-113743621D01*
X142802247Y-113743621D01*
X142821612Y-113940230D01*
X142878957Y-114129269D01*
X142878958Y-114129271D01*
X142972084Y-114303499D01*
X143097411Y-114456210D01*
X143250122Y-114581537D01*
X143424350Y-114674663D01*
X143613397Y-114732010D01*
X143810000Y-114751374D01*
X144006603Y-114732010D01*
X144195650Y-114674663D01*
X144369878Y-114581537D01*
X144522589Y-114456210D01*
X144647916Y-114303499D01*
X144741042Y-114129271D01*
X144798389Y-113940224D01*
X144817753Y-113743621D01*
X145342247Y-113743621D01*
X145361612Y-113940230D01*
X145418957Y-114129269D01*
X145418958Y-114129271D01*
X145512084Y-114303499D01*
X145637411Y-114456210D01*
X145790122Y-114581537D01*
X145964350Y-114674663D01*
X146153397Y-114732010D01*
X146350000Y-114751374D01*
X146546603Y-114732010D01*
X146735650Y-114674663D01*
X146909878Y-114581537D01*
X147062589Y-114456210D01*
X147187916Y-114303499D01*
X147281042Y-114129271D01*
X147338389Y-113940224D01*
X147357753Y-113743621D01*
X147357753Y-113743620D01*
X147882247Y-113743620D01*
X147901612Y-113940230D01*
X147958957Y-114129269D01*
X147958958Y-114129271D01*
X148052084Y-114303499D01*
X148177411Y-114456210D01*
X148330122Y-114581537D01*
X148504350Y-114674663D01*
X148693397Y-114732010D01*
X148890000Y-114751374D01*
X149086603Y-114732010D01*
X149275650Y-114674663D01*
X149449878Y-114581537D01*
X149602589Y-114456210D01*
X149727916Y-114303499D01*
X149821042Y-114129271D01*
X149878389Y-113940224D01*
X149897753Y-113743621D01*
X149897753Y-113743620D01*
X150422247Y-113743620D01*
X150441612Y-113940230D01*
X150498957Y-114129269D01*
X150498958Y-114129271D01*
X150592084Y-114303499D01*
X150717411Y-114456210D01*
X150870122Y-114581537D01*
X151044350Y-114674663D01*
X151233397Y-114732010D01*
X151430000Y-114751374D01*
X151626603Y-114732010D01*
X151815650Y-114674663D01*
X151989878Y-114581537D01*
X152142589Y-114456210D01*
X152267916Y-114303499D01*
X152361042Y-114129271D01*
X152418389Y-113940224D01*
X152437753Y-113743621D01*
X152437753Y-113743620D01*
X152962247Y-113743620D01*
X152981612Y-113940230D01*
X153038957Y-114129269D01*
X153038958Y-114129271D01*
X153132084Y-114303499D01*
X153257411Y-114456210D01*
X153410122Y-114581537D01*
X153584350Y-114674663D01*
X153773397Y-114732010D01*
X153970000Y-114751374D01*
X154166603Y-114732010D01*
X154355650Y-114674663D01*
X154479098Y-114608679D01*
X155507100Y-114608679D01*
X155515972Y-114653279D01*
X155549766Y-114703855D01*
X155566701Y-114715171D01*
X155600341Y-114737649D01*
X155607741Y-114739120D01*
X155644943Y-114746521D01*
X157375056Y-114746520D01*
X157375058Y-114746520D01*
X157387750Y-114743995D01*
X157419658Y-114737649D01*
X157470234Y-114703855D01*
X157504028Y-114653279D01*
X157512900Y-114608678D01*
X157512899Y-112878565D01*
X157512899Y-112878564D01*
X157512899Y-112878562D01*
X157509111Y-112859523D01*
X157504028Y-112833963D01*
X157470234Y-112783387D01*
X157470002Y-112783232D01*
X157419658Y-112749592D01*
X157382456Y-112742192D01*
X157375057Y-112740721D01*
X157375056Y-112740721D01*
X155644941Y-112740721D01*
X155600341Y-112749593D01*
X155549767Y-112783386D01*
X155549764Y-112783389D01*
X155515971Y-112833962D01*
X155507100Y-112878564D01*
X155507100Y-114608679D01*
X154479098Y-114608679D01*
X154529878Y-114581537D01*
X154682589Y-114456210D01*
X154807916Y-114303499D01*
X154901042Y-114129271D01*
X154958389Y-113940224D01*
X154977753Y-113743621D01*
X154958389Y-113547018D01*
X154901042Y-113357971D01*
X154807916Y-113183743D01*
X154682589Y-113031032D01*
X154529878Y-112905705D01*
X154355650Y-112812579D01*
X154355649Y-112812578D01*
X154355648Y-112812578D01*
X154166609Y-112755233D01*
X154166604Y-112755232D01*
X154166603Y-112755232D01*
X153970000Y-112735868D01*
X153773397Y-112755232D01*
X153773395Y-112755232D01*
X153773390Y-112755233D01*
X153584351Y-112812578D01*
X153410121Y-112905705D01*
X153257413Y-113031030D01*
X153257409Y-113031034D01*
X153132084Y-113183742D01*
X153038957Y-113357972D01*
X152981612Y-113547011D01*
X152962247Y-113743620D01*
X152437753Y-113743620D01*
X152418389Y-113547018D01*
X152361042Y-113357971D01*
X152267916Y-113183743D01*
X152142589Y-113031032D01*
X151989878Y-112905705D01*
X151815650Y-112812579D01*
X151815649Y-112812578D01*
X151815648Y-112812578D01*
X151626609Y-112755233D01*
X151626604Y-112755232D01*
X151626603Y-112755232D01*
X151430000Y-112735868D01*
X151429999Y-112735868D01*
X151382657Y-112740530D01*
X151233397Y-112755232D01*
X151233395Y-112755232D01*
X151233390Y-112755233D01*
X151044351Y-112812578D01*
X150870121Y-112905705D01*
X150717413Y-113031030D01*
X150717409Y-113031034D01*
X150592084Y-113183742D01*
X150498957Y-113357972D01*
X150441612Y-113547011D01*
X150422247Y-113743620D01*
X149897753Y-113743620D01*
X149878389Y-113547018D01*
X149821042Y-113357971D01*
X149727916Y-113183743D01*
X149602589Y-113031032D01*
X149449878Y-112905705D01*
X149275650Y-112812579D01*
X149275649Y-112812578D01*
X149275648Y-112812578D01*
X149086609Y-112755233D01*
X149086604Y-112755232D01*
X149086603Y-112755232D01*
X148890000Y-112735868D01*
X148693397Y-112755232D01*
X148693395Y-112755232D01*
X148693390Y-112755233D01*
X148504351Y-112812578D01*
X148330121Y-112905705D01*
X148177413Y-113031030D01*
X148177409Y-113031034D01*
X148052084Y-113183742D01*
X147958957Y-113357972D01*
X147901612Y-113547011D01*
X147882247Y-113743620D01*
X147357753Y-113743620D01*
X147338389Y-113547018D01*
X147281042Y-113357971D01*
X147187916Y-113183743D01*
X147062589Y-113031032D01*
X146909878Y-112905705D01*
X146735650Y-112812579D01*
X146735649Y-112812578D01*
X146735648Y-112812578D01*
X146546609Y-112755233D01*
X146546604Y-112755232D01*
X146546603Y-112755232D01*
X146350000Y-112735868D01*
X146153397Y-112755232D01*
X146153395Y-112755232D01*
X146153390Y-112755233D01*
X145964351Y-112812578D01*
X145790121Y-112905705D01*
X145637413Y-113031030D01*
X145637409Y-113031034D01*
X145512084Y-113183742D01*
X145418957Y-113357972D01*
X145361612Y-113547011D01*
X145342247Y-113743621D01*
X144817753Y-113743621D01*
X144798389Y-113547018D01*
X144741042Y-113357971D01*
X144647916Y-113183743D01*
X144522589Y-113031032D01*
X144369878Y-112905705D01*
X144195650Y-112812579D01*
X144195649Y-112812578D01*
X144195648Y-112812578D01*
X144006609Y-112755233D01*
X144006604Y-112755232D01*
X144006603Y-112755232D01*
X143810000Y-112735868D01*
X143613397Y-112755232D01*
X143613395Y-112755232D01*
X143613390Y-112755233D01*
X143424351Y-112812578D01*
X143250121Y-112905705D01*
X143097413Y-113031030D01*
X143097409Y-113031034D01*
X142972084Y-113183742D01*
X142878957Y-113357972D01*
X142821612Y-113547011D01*
X142802247Y-113743621D01*
X141410000Y-113743621D01*
X141410000Y-110496914D01*
X166749884Y-110496914D01*
X166769115Y-110729011D01*
X166769116Y-110729017D01*
X166826286Y-110954775D01*
X166826289Y-110954783D01*
X166897987Y-111118236D01*
X166919840Y-111168056D01*
X166919844Y-111168062D01*
X167047215Y-111363020D01*
X167047216Y-111363022D01*
X167173978Y-111500723D01*
X167204954Y-111534371D01*
X167388740Y-111677417D01*
X167593563Y-111788262D01*
X167813837Y-111863882D01*
X167813839Y-111863882D01*
X167813841Y-111863883D01*
X168043550Y-111902215D01*
X168043554Y-111902215D01*
X168276450Y-111902215D01*
X168506158Y-111863883D01*
X168506158Y-111863882D01*
X168506163Y-111863882D01*
X168726437Y-111788262D01*
X168931260Y-111677417D01*
X169115046Y-111534371D01*
X169272780Y-111363026D01*
X169400160Y-111168056D01*
X169493712Y-110954779D01*
X169550884Y-110729012D01*
X169570116Y-110496915D01*
X169550884Y-110264818D01*
X169550883Y-110264812D01*
X169493713Y-110039054D01*
X169493710Y-110039046D01*
X169400164Y-109825784D01*
X169400160Y-109825774D01*
X169319435Y-109702215D01*
X169272784Y-109630809D01*
X169272783Y-109630807D01*
X169115050Y-109459463D01*
X169115048Y-109459462D01*
X169115046Y-109459459D01*
X168931260Y-109316413D01*
X168726437Y-109205568D01*
X168726433Y-109205566D01*
X168726430Y-109205565D01*
X168506167Y-109129949D01*
X168506158Y-109129946D01*
X168276450Y-109091615D01*
X168276446Y-109091615D01*
X168043554Y-109091615D01*
X168043550Y-109091615D01*
X167813841Y-109129946D01*
X167813832Y-109129949D01*
X167593569Y-109205565D01*
X167388740Y-109316413D01*
X167204949Y-109459463D01*
X167047216Y-109630807D01*
X167047215Y-109630809D01*
X166919844Y-109825767D01*
X166919835Y-109825784D01*
X166826289Y-110039046D01*
X166826286Y-110039054D01*
X166769116Y-110264812D01*
X166769115Y-110264818D01*
X166749884Y-110496914D01*
X141410000Y-110496914D01*
X141410000Y-105088121D01*
X142532200Y-105088121D01*
X142532200Y-105425154D01*
X142534909Y-105454050D01*
X142534910Y-105454055D01*
X142577501Y-105575774D01*
X142577502Y-105575775D01*
X142654080Y-105679535D01*
X142654085Y-105679540D01*
X142757845Y-105756118D01*
X142757846Y-105756119D01*
X142879565Y-105798710D01*
X142879570Y-105798711D01*
X142908466Y-105801420D01*
X142908470Y-105801421D01*
X143482999Y-105801421D01*
X143483000Y-105801420D01*
X143483000Y-105088122D01*
X143482999Y-105088121D01*
X143737000Y-105088121D01*
X143737000Y-105801420D01*
X143737001Y-105801421D01*
X144311530Y-105801421D01*
X144311533Y-105801420D01*
X144340429Y-105798711D01*
X144340434Y-105798710D01*
X144462153Y-105756119D01*
X144462154Y-105756118D01*
X144565914Y-105679540D01*
X144565919Y-105679535D01*
X144642497Y-105575775D01*
X144642498Y-105575774D01*
X144685089Y-105454055D01*
X144685090Y-105454050D01*
X144687799Y-105425154D01*
X144687800Y-105425151D01*
X144687800Y-105088121D01*
X143737000Y-105088121D01*
X143482999Y-105088121D01*
X142532200Y-105088121D01*
X141410000Y-105088121D01*
X141410000Y-104834120D01*
X142532200Y-104834120D01*
X142532201Y-104834121D01*
X143482999Y-104834121D01*
X143483000Y-104834120D01*
X143483000Y-104120821D01*
X143737000Y-104120821D01*
X143737000Y-104834120D01*
X143737001Y-104834121D01*
X144687799Y-104834121D01*
X144687800Y-104834120D01*
X144687800Y-104497090D01*
X144687799Y-104497087D01*
X144685090Y-104468191D01*
X144685089Y-104468186D01*
X144642498Y-104346467D01*
X144642497Y-104346466D01*
X144565919Y-104242706D01*
X144565914Y-104242701D01*
X144462154Y-104166123D01*
X144462153Y-104166122D01*
X144340434Y-104123531D01*
X144340429Y-104123530D01*
X144311533Y-104120821D01*
X143737000Y-104120821D01*
X143483000Y-104120821D01*
X142908466Y-104120821D01*
X142879570Y-104123530D01*
X142879565Y-104123531D01*
X142757846Y-104166122D01*
X142757845Y-104166123D01*
X142654085Y-104242701D01*
X142654080Y-104242706D01*
X142577502Y-104346466D01*
X142577501Y-104346467D01*
X142534910Y-104468186D01*
X142534909Y-104468191D01*
X142532200Y-104497087D01*
X142532200Y-104834120D01*
X141410000Y-104834120D01*
X141410000Y-103798624D01*
X145821932Y-103798624D01*
X145841700Y-103936119D01*
X145841701Y-103936124D01*
X145841702Y-103936126D01*
X145899411Y-104062490D01*
X145990383Y-104167478D01*
X145990385Y-104167479D01*
X145990386Y-104167480D01*
X146107245Y-104242581D01*
X146107246Y-104242581D01*
X146107249Y-104242583D01*
X146198035Y-104269240D01*
X146240536Y-104281720D01*
X146240539Y-104281720D01*
X146240541Y-104281721D01*
X146240542Y-104281721D01*
X146379460Y-104281721D01*
X146379463Y-104281720D01*
X146398711Y-104276068D01*
X146458718Y-104279879D01*
X146485634Y-104298251D01*
X149942951Y-107755569D01*
X149944535Y-107757238D01*
X149972330Y-107788107D01*
X149994027Y-107797767D01*
X150006141Y-107804344D01*
X150026064Y-107817283D01*
X150032940Y-107818371D01*
X150054944Y-107824889D01*
X150061303Y-107827721D01*
X150085052Y-107827721D01*
X150098801Y-107828803D01*
X150103877Y-107829606D01*
X150122259Y-107832518D01*
X150128984Y-107830715D01*
X150151734Y-107827721D01*
X161752851Y-107827721D01*
X161755152Y-107827781D01*
X161762843Y-107828183D01*
X161796639Y-107829955D01*
X161818809Y-107821444D01*
X161832027Y-107817528D01*
X161855265Y-107812590D01*
X161860894Y-107808499D01*
X161881061Y-107797548D01*
X161887564Y-107795053D01*
X161904365Y-107778250D01*
X161914840Y-107769304D01*
X161934058Y-107755343D01*
X161937540Y-107749311D01*
X161951503Y-107731112D01*
X165933990Y-103748625D01*
X166777540Y-103748625D01*
X166795729Y-103921693D01*
X166795731Y-103921699D01*
X166849510Y-104087213D01*
X166936526Y-104237929D01*
X167052976Y-104367259D01*
X167193770Y-104469553D01*
X167352756Y-104540338D01*
X167522984Y-104576521D01*
X167697016Y-104576521D01*
X167867244Y-104540338D01*
X168026230Y-104469553D01*
X168167024Y-104367259D01*
X168283474Y-104237929D01*
X168370490Y-104087213D01*
X168424269Y-103921699D01*
X168426706Y-103898514D01*
X168442460Y-103748625D01*
X168442460Y-103748616D01*
X168424270Y-103575548D01*
X168424269Y-103575545D01*
X168424269Y-103575543D01*
X168370490Y-103410029D01*
X168283474Y-103259313D01*
X168167024Y-103129983D01*
X168026230Y-103027689D01*
X167867244Y-102956904D01*
X167867242Y-102956903D01*
X167867241Y-102956903D01*
X167697016Y-102920721D01*
X167522984Y-102920721D01*
X167352758Y-102956903D01*
X167352754Y-102956905D01*
X167193769Y-103027689D01*
X167052977Y-103129982D01*
X167052975Y-103129983D01*
X166936527Y-103259311D01*
X166936525Y-103259313D01*
X166936526Y-103259313D01*
X166849510Y-103410029D01*
X166837469Y-103447087D01*
X166795729Y-103575548D01*
X166777540Y-103748616D01*
X166777540Y-103748625D01*
X165933990Y-103748625D01*
X167080351Y-102602264D01*
X167134845Y-102576854D01*
X167142506Y-102576520D01*
X168300058Y-102576520D01*
X168312750Y-102573995D01*
X168344658Y-102567649D01*
X168395234Y-102533855D01*
X168429028Y-102483279D01*
X168437900Y-102438678D01*
X168437899Y-101058565D01*
X168437899Y-101058564D01*
X168437899Y-101058562D01*
X168430372Y-101020721D01*
X168429028Y-101013963D01*
X168395234Y-100963387D01*
X168395002Y-100963232D01*
X168344658Y-100929592D01*
X168302163Y-100921140D01*
X168300057Y-100920721D01*
X168300056Y-100920721D01*
X166919941Y-100920721D01*
X166875341Y-100929593D01*
X166824767Y-100963386D01*
X166824764Y-100963389D01*
X166790971Y-101013962D01*
X166782100Y-101058564D01*
X166782100Y-102216113D01*
X166761535Y-102272614D01*
X166756355Y-102278268D01*
X161690848Y-107343776D01*
X161636354Y-107369187D01*
X161628693Y-107369521D01*
X150241306Y-107369521D01*
X150184805Y-107348956D01*
X150179151Y-107343776D01*
X148973030Y-106137654D01*
X151032200Y-106137654D01*
X151034909Y-106166550D01*
X151034910Y-106166555D01*
X151077501Y-106288274D01*
X151077502Y-106288275D01*
X151154080Y-106392035D01*
X151154085Y-106392040D01*
X151257845Y-106468618D01*
X151257846Y-106468619D01*
X151379565Y-106511210D01*
X151379570Y-106511211D01*
X151408466Y-106513920D01*
X151408470Y-106513921D01*
X151982999Y-106513921D01*
X151983000Y-106513920D01*
X152237000Y-106513920D01*
X152237001Y-106513921D01*
X152811530Y-106513921D01*
X152811533Y-106513920D01*
X152840429Y-106511211D01*
X152840434Y-106511210D01*
X152962153Y-106468619D01*
X152962154Y-106468618D01*
X153065914Y-106392040D01*
X153065919Y-106392035D01*
X153142497Y-106288275D01*
X153142498Y-106288274D01*
X153185089Y-106166555D01*
X153185090Y-106166550D01*
X153187799Y-106137654D01*
X153187800Y-106137651D01*
X153187800Y-105800622D01*
X153187799Y-105800621D01*
X152237001Y-105800621D01*
X152237000Y-105800622D01*
X152237000Y-106513920D01*
X151983000Y-106513920D01*
X151983000Y-105800622D01*
X151982999Y-105800621D01*
X151032201Y-105800621D01*
X151032200Y-105800622D01*
X151032200Y-106137654D01*
X148973030Y-106137654D01*
X148381996Y-105546620D01*
X151032200Y-105546620D01*
X151032201Y-105546621D01*
X151982999Y-105546621D01*
X151983000Y-105546620D01*
X152237000Y-105546620D01*
X152237001Y-105546621D01*
X153187799Y-105546621D01*
X153187800Y-105546619D01*
X153187800Y-105209590D01*
X153187799Y-105209587D01*
X153185090Y-105180691D01*
X153185089Y-105180686D01*
X153142498Y-105058967D01*
X153142497Y-105058966D01*
X153065919Y-104955206D01*
X153065914Y-104955201D01*
X152962154Y-104878623D01*
X152962153Y-104878622D01*
X152840434Y-104836031D01*
X152840429Y-104836030D01*
X152811533Y-104833321D01*
X152237001Y-104833321D01*
X152237000Y-104833322D01*
X152237000Y-105546620D01*
X151983000Y-105546620D01*
X151983000Y-105546619D01*
X151983000Y-104833322D01*
X151982999Y-104833321D01*
X151408466Y-104833321D01*
X151379570Y-104836030D01*
X151379565Y-104836031D01*
X151257846Y-104878622D01*
X151257845Y-104878623D01*
X151154085Y-104955201D01*
X151154080Y-104955206D01*
X151077502Y-105058966D01*
X151077501Y-105058967D01*
X151034910Y-105180686D01*
X151034909Y-105180691D01*
X151032200Y-105209587D01*
X151032200Y-105546620D01*
X148381996Y-105546620D01*
X147085530Y-104250154D01*
X153932200Y-104250154D01*
X153934909Y-104279050D01*
X153934910Y-104279055D01*
X153977501Y-104400774D01*
X153977502Y-104400775D01*
X154054080Y-104504535D01*
X154054085Y-104504540D01*
X154157845Y-104581118D01*
X154157846Y-104581119D01*
X154279565Y-104623710D01*
X154279570Y-104623711D01*
X154308466Y-104626420D01*
X154308470Y-104626421D01*
X154882999Y-104626421D01*
X154883000Y-104626420D01*
X154883000Y-103975621D01*
X155137000Y-103975621D01*
X155137000Y-104626420D01*
X155137001Y-104626421D01*
X155711530Y-104626421D01*
X155711533Y-104626420D01*
X155740429Y-104623711D01*
X155740434Y-104623710D01*
X155862153Y-104581119D01*
X155862154Y-104581118D01*
X155965914Y-104504540D01*
X155965919Y-104504535D01*
X156042497Y-104400775D01*
X156042498Y-104400774D01*
X156085089Y-104279055D01*
X156085090Y-104279050D01*
X156087799Y-104250154D01*
X156087800Y-104250151D01*
X156087800Y-103975621D01*
X155137000Y-103975621D01*
X154883000Y-103975621D01*
X153932201Y-103975621D01*
X153932200Y-103975622D01*
X153932200Y-104250154D01*
X147085530Y-104250154D01*
X146808555Y-103973179D01*
X146783144Y-103918685D01*
X146783704Y-103898520D01*
X146798068Y-103798621D01*
X146798068Y-103798617D01*
X146778299Y-103661122D01*
X146778298Y-103661121D01*
X146778298Y-103661116D01*
X146720589Y-103534752D01*
X146629617Y-103429764D01*
X146629615Y-103429763D01*
X146629613Y-103429761D01*
X146512754Y-103354660D01*
X146512751Y-103354659D01*
X146486092Y-103346831D01*
X146379463Y-103315521D01*
X146379459Y-103315521D01*
X146240541Y-103315521D01*
X146240536Y-103315521D01*
X146107249Y-103354659D01*
X146107245Y-103354660D01*
X145990386Y-103429761D01*
X145990381Y-103429765D01*
X145899410Y-103534753D01*
X145841702Y-103661116D01*
X145841700Y-103661122D01*
X145821932Y-103798617D01*
X145821932Y-103798624D01*
X141410000Y-103798624D01*
X141410000Y-102280327D01*
X142557100Y-102280327D01*
X142572042Y-102374674D01*
X142627378Y-102483279D01*
X142629984Y-102488392D01*
X142720229Y-102578637D01*
X142833945Y-102636578D01*
X142928292Y-102651521D01*
X143723744Y-102651521D01*
X143780245Y-102672086D01*
X143785899Y-102677266D01*
X143947436Y-102838803D01*
X143959224Y-102853430D01*
X143963340Y-102859835D01*
X144000570Y-102892095D01*
X144002855Y-102894223D01*
X144012357Y-102903724D01*
X144013666Y-102905033D01*
X144021305Y-102910751D01*
X144025890Y-102914184D01*
X144028334Y-102916153D01*
X144065567Y-102948416D01*
X144072488Y-102951576D01*
X144088651Y-102961167D01*
X144094743Y-102965727D01*
X144140923Y-102982950D01*
X144143795Y-102984141D01*
X144188610Y-103004608D01*
X144196143Y-103005690D01*
X144214345Y-103010336D01*
X144221481Y-103012998D01*
X144270623Y-103016512D01*
X144273719Y-103016844D01*
X144288857Y-103019021D01*
X144304132Y-103019021D01*
X144307265Y-103019132D01*
X144331302Y-103020851D01*
X144356401Y-103022647D01*
X144356401Y-103022646D01*
X144356403Y-103022647D01*
X144363836Y-103021029D01*
X144382522Y-103019021D01*
X150986174Y-103019021D01*
X151042675Y-103039586D01*
X151066912Y-103081565D01*
X151069904Y-103080593D01*
X151072043Y-103087176D01*
X151111620Y-103164852D01*
X151129984Y-103200892D01*
X151220229Y-103291137D01*
X151333945Y-103349078D01*
X151428292Y-103364021D01*
X151428294Y-103364021D01*
X152791706Y-103364021D01*
X152791708Y-103364021D01*
X152886055Y-103349078D01*
X152999771Y-103291137D01*
X153090016Y-103200892D01*
X153147957Y-103087176D01*
X153147957Y-103087170D01*
X153150096Y-103080593D01*
X153153384Y-103081661D01*
X153176167Y-103040574D01*
X153232304Y-103019034D01*
X153233826Y-103019021D01*
X154022289Y-103019021D01*
X154078790Y-103039586D01*
X154108854Y-103091657D01*
X154098413Y-103150871D01*
X154074486Y-103177645D01*
X154054085Y-103192701D01*
X154054080Y-103192706D01*
X153977502Y-103296466D01*
X153977501Y-103296467D01*
X153934910Y-103418186D01*
X153934909Y-103418191D01*
X153932200Y-103447087D01*
X153932200Y-103721619D01*
X153932201Y-103721621D01*
X156087799Y-103721621D01*
X156087800Y-103721620D01*
X156087800Y-103447090D01*
X156087799Y-103447087D01*
X156085090Y-103418191D01*
X156085089Y-103418186D01*
X156042498Y-103296467D01*
X156042497Y-103296466D01*
X155965919Y-103192706D01*
X155965914Y-103192701D01*
X155945514Y-103177645D01*
X155912265Y-103127547D01*
X155918998Y-103067798D01*
X155962561Y-103026355D01*
X155997711Y-103019021D01*
X157568642Y-103019021D01*
X157568643Y-103019021D01*
X157610535Y-103012998D01*
X157675112Y-103003714D01*
X157675145Y-103003950D01*
X157692042Y-103001521D01*
X158205219Y-103001521D01*
X158205226Y-103001521D01*
X158230550Y-102998583D01*
X158334145Y-102952841D01*
X158414220Y-102872766D01*
X158459962Y-102769171D01*
X158462900Y-102743847D01*
X158462900Y-102353395D01*
X158459962Y-102328071D01*
X158414220Y-102224476D01*
X158334145Y-102144401D01*
X158299334Y-102129030D01*
X158255955Y-102087397D01*
X158249486Y-102027619D01*
X158282955Y-101977668D01*
X158299333Y-101968211D01*
X158334145Y-101952841D01*
X158414220Y-101872766D01*
X158459962Y-101769171D01*
X158462900Y-101743847D01*
X158462900Y-101353395D01*
X158459962Y-101328071D01*
X158414220Y-101224476D01*
X158334145Y-101144401D01*
X158299334Y-101129030D01*
X158255955Y-101087397D01*
X158249486Y-101027619D01*
X158282955Y-100977668D01*
X158299333Y-100968211D01*
X158334145Y-100952841D01*
X158414220Y-100872766D01*
X158414222Y-100872760D01*
X158417786Y-100867559D01*
X158466682Y-100832566D01*
X158526631Y-100837189D01*
X158552460Y-100855077D01*
X158735155Y-101037772D01*
X158760565Y-101092265D01*
X158760900Y-101099926D01*
X158760900Y-102867313D01*
X158740335Y-102923814D01*
X158735155Y-102929468D01*
X158345632Y-103318990D01*
X158291138Y-103344401D01*
X158258712Y-103341174D01*
X158239463Y-103335521D01*
X158239459Y-103335521D01*
X158100541Y-103335521D01*
X158100536Y-103335521D01*
X157967249Y-103374659D01*
X157967245Y-103374660D01*
X157850386Y-103449761D01*
X157850381Y-103449765D01*
X157759410Y-103554753D01*
X157701702Y-103681116D01*
X157701700Y-103681122D01*
X157681932Y-103818617D01*
X157681932Y-103818624D01*
X157701700Y-103956119D01*
X157701701Y-103956124D01*
X157701702Y-103956126D01*
X157759411Y-104082490D01*
X157850383Y-104187478D01*
X157850385Y-104187479D01*
X157850386Y-104187480D01*
X157967245Y-104262581D01*
X157967246Y-104262581D01*
X157967249Y-104262583D01*
X158058035Y-104289240D01*
X158100536Y-104301720D01*
X158100539Y-104301720D01*
X158100541Y-104301721D01*
X158100542Y-104301721D01*
X158239458Y-104301721D01*
X158239459Y-104301721D01*
X158239461Y-104301720D01*
X158239463Y-104301720D01*
X158255305Y-104297067D01*
X158372751Y-104262583D01*
X158392091Y-104250154D01*
X159257200Y-104250154D01*
X159259909Y-104279050D01*
X159259910Y-104279055D01*
X159302501Y-104400774D01*
X159302502Y-104400775D01*
X159379080Y-104504535D01*
X159379085Y-104504540D01*
X159482845Y-104581118D01*
X159482846Y-104581119D01*
X159604565Y-104623710D01*
X159604570Y-104623711D01*
X159633466Y-104626420D01*
X159633470Y-104626421D01*
X160207999Y-104626421D01*
X160208000Y-104626420D01*
X160208000Y-103975622D01*
X160207999Y-103975621D01*
X159257201Y-103975621D01*
X159257200Y-103975622D01*
X159257200Y-104250154D01*
X158392091Y-104250154D01*
X158489617Y-104187478D01*
X158580589Y-104082490D01*
X158638298Y-103956126D01*
X158658068Y-103818621D01*
X158658068Y-103818617D01*
X158644122Y-103721620D01*
X159257200Y-103721620D01*
X159257201Y-103721621D01*
X160207999Y-103721621D01*
X160208000Y-103721620D01*
X160208000Y-103070822D01*
X160207999Y-103070821D01*
X159633466Y-103070821D01*
X159604570Y-103073530D01*
X159604565Y-103073531D01*
X159482846Y-103116122D01*
X159482845Y-103116123D01*
X159379085Y-103192701D01*
X159379080Y-103192706D01*
X159302502Y-103296466D01*
X159302501Y-103296467D01*
X159259910Y-103418186D01*
X159259909Y-103418191D01*
X159257200Y-103447087D01*
X159257200Y-103721620D01*
X158644122Y-103721620D01*
X158643706Y-103718724D01*
X158656020Y-103659871D01*
X158668552Y-103644064D01*
X159146975Y-103165641D01*
X159148608Y-103164092D01*
X159179486Y-103136291D01*
X159182295Y-103129983D01*
X159189145Y-103114596D01*
X159195723Y-103102478D01*
X159208661Y-103082557D01*
X159209749Y-103075681D01*
X159216269Y-103053676D01*
X159219100Y-103047318D01*
X159219100Y-103023568D01*
X159220182Y-103009817D01*
X159221111Y-103003950D01*
X159223897Y-102986363D01*
X159223896Y-102986359D01*
X159223896Y-102986357D01*
X159222095Y-102979635D01*
X159219100Y-102956887D01*
X159219100Y-100975776D01*
X159219160Y-100973476D01*
X159219688Y-100963387D01*
X159221334Y-100931982D01*
X159212819Y-100909800D01*
X159208907Y-100896592D01*
X159203969Y-100873356D01*
X159199874Y-100867720D01*
X159188927Y-100847556D01*
X159186433Y-100841059D01*
X159186432Y-100841058D01*
X159186432Y-100841057D01*
X159169630Y-100824255D01*
X159160677Y-100813771D01*
X159149052Y-100797771D01*
X159146722Y-100794563D01*
X159146721Y-100794562D01*
X159146722Y-100794562D01*
X159140692Y-100791081D01*
X159122488Y-100777113D01*
X158737039Y-100391662D01*
X158735470Y-100390010D01*
X158707670Y-100359135D01*
X158707669Y-100359134D01*
X158685972Y-100349473D01*
X158673858Y-100342896D01*
X158661022Y-100334561D01*
X158653936Y-100329960D01*
X158653933Y-100329959D01*
X158653932Y-100329959D01*
X158647058Y-100328870D01*
X158625064Y-100322355D01*
X158618699Y-100319521D01*
X158618697Y-100319521D01*
X158594947Y-100319521D01*
X158581197Y-100318439D01*
X158569119Y-100316526D01*
X158557743Y-100314724D01*
X158557740Y-100314724D01*
X158551017Y-100316526D01*
X158528267Y-100319521D01*
X158513462Y-100319521D01*
X158456961Y-100298956D01*
X158433052Y-100267126D01*
X158414220Y-100224477D01*
X158414220Y-100224476D01*
X158334145Y-100144401D01*
X158299334Y-100129030D01*
X158255955Y-100087397D01*
X158249486Y-100027619D01*
X158282955Y-99977668D01*
X158299333Y-99968211D01*
X158334145Y-99952841D01*
X158414220Y-99872766D01*
X158433052Y-99830115D01*
X158474686Y-99786736D01*
X158513462Y-99777721D01*
X159008694Y-99777721D01*
X159065195Y-99798286D01*
X159070848Y-99803465D01*
X159865155Y-100597772D01*
X159890566Y-100652265D01*
X159890900Y-100659926D01*
X159890900Y-101363595D01*
X159870335Y-101420096D01*
X159850523Y-101437541D01*
X159800383Y-101469764D01*
X159800381Y-101469765D01*
X159709410Y-101574753D01*
X159651702Y-101701116D01*
X159651700Y-101701122D01*
X159631932Y-101838617D01*
X159631932Y-101838624D01*
X159651700Y-101976119D01*
X159651701Y-101976124D01*
X159651702Y-101976126D01*
X159709411Y-102102490D01*
X159800383Y-102207478D01*
X159800385Y-102207479D01*
X159800386Y-102207480D01*
X159917245Y-102282581D01*
X159917246Y-102282581D01*
X159917249Y-102282583D01*
X160008035Y-102309240D01*
X160050536Y-102321720D01*
X160050539Y-102321720D01*
X160050541Y-102321721D01*
X160050542Y-102321721D01*
X160189458Y-102321721D01*
X160189459Y-102321721D01*
X160189461Y-102321720D01*
X160189463Y-102321720D01*
X160205305Y-102317068D01*
X160322751Y-102282583D01*
X160439617Y-102207478D01*
X160530589Y-102102490D01*
X160588298Y-101976126D01*
X160598212Y-101907171D01*
X160608068Y-101838624D01*
X160608068Y-101838617D01*
X160588299Y-101701122D01*
X160588298Y-101701121D01*
X160588298Y-101701116D01*
X160530589Y-101574752D01*
X160439617Y-101469764D01*
X160389476Y-101437540D01*
X160353064Y-101389694D01*
X160349100Y-101363595D01*
X160349100Y-100535768D01*
X160349160Y-100533467D01*
X160349421Y-100528468D01*
X160351334Y-100491981D01*
X160342823Y-100469808D01*
X160338906Y-100456584D01*
X160333969Y-100433357D01*
X160333967Y-100433353D01*
X160329875Y-100427721D01*
X160318927Y-100407556D01*
X160316433Y-100401059D01*
X160316432Y-100401058D01*
X160316432Y-100401057D01*
X160299630Y-100384255D01*
X160290677Y-100373771D01*
X160280043Y-100359135D01*
X160276722Y-100354563D01*
X160276721Y-100354562D01*
X160276722Y-100354562D01*
X160270692Y-100351081D01*
X160252488Y-100337113D01*
X159307039Y-99391662D01*
X159305470Y-99390010D01*
X159277670Y-99359135D01*
X159277669Y-99359134D01*
X159255972Y-99349473D01*
X159243858Y-99342896D01*
X159231022Y-99334561D01*
X159223936Y-99329960D01*
X159223933Y-99329959D01*
X159223932Y-99329959D01*
X159217058Y-99328870D01*
X159195064Y-99322355D01*
X159188699Y-99319521D01*
X159188697Y-99319521D01*
X159164947Y-99319521D01*
X159151197Y-99318439D01*
X159139119Y-99316526D01*
X159127743Y-99314724D01*
X159127740Y-99314724D01*
X159121017Y-99316526D01*
X159098267Y-99319521D01*
X158513462Y-99319521D01*
X158456961Y-99298956D01*
X158433052Y-99267126D01*
X158417419Y-99231721D01*
X158414220Y-99224476D01*
X158334145Y-99144401D01*
X158299334Y-99129030D01*
X158255955Y-99087397D01*
X158249486Y-99027619D01*
X158282955Y-98977668D01*
X158299333Y-98968211D01*
X158334145Y-98952841D01*
X158414220Y-98872766D01*
X158433052Y-98830115D01*
X158474686Y-98786736D01*
X158513462Y-98777721D01*
X159338694Y-98777721D01*
X159395195Y-98798286D01*
X159400849Y-98803466D01*
X161395155Y-100797771D01*
X161420566Y-100852265D01*
X161420900Y-100859926D01*
X161420900Y-103114514D01*
X161400335Y-103171015D01*
X161348264Y-103201079D01*
X161289050Y-103190638D01*
X161280804Y-103185238D01*
X161187158Y-103116125D01*
X161187153Y-103116122D01*
X161065434Y-103073531D01*
X161065429Y-103073530D01*
X161036533Y-103070821D01*
X160462001Y-103070821D01*
X160462000Y-103070822D01*
X160462000Y-104626420D01*
X160462001Y-104626421D01*
X161036530Y-104626421D01*
X161036533Y-104626420D01*
X161065429Y-104623711D01*
X161065434Y-104623710D01*
X161187153Y-104581119D01*
X161187154Y-104581118D01*
X161280803Y-104512003D01*
X161338476Y-104494998D01*
X161393586Y-104519042D01*
X161420347Y-104572885D01*
X161420900Y-104582727D01*
X161420900Y-104707313D01*
X161400335Y-104763814D01*
X161395155Y-104769468D01*
X160620848Y-105543776D01*
X160566354Y-105569187D01*
X160558693Y-105569521D01*
X159528359Y-105569521D01*
X159471858Y-105548956D01*
X159461928Y-105539183D01*
X159367118Y-105429765D01*
X159367113Y-105429761D01*
X159250254Y-105354660D01*
X159250251Y-105354659D01*
X159223592Y-105346831D01*
X159116963Y-105315521D01*
X159116959Y-105315521D01*
X158978041Y-105315521D01*
X158978036Y-105315521D01*
X158844749Y-105354659D01*
X158844745Y-105354660D01*
X158727886Y-105429761D01*
X158727881Y-105429765D01*
X158636910Y-105534753D01*
X158579202Y-105661116D01*
X158579200Y-105661122D01*
X158559432Y-105798617D01*
X158559432Y-105798624D01*
X158579200Y-105936119D01*
X158579201Y-105936124D01*
X158579202Y-105936126D01*
X158636911Y-106062490D01*
X158727883Y-106167478D01*
X158727885Y-106167479D01*
X158727886Y-106167480D01*
X158844745Y-106242581D01*
X158844746Y-106242581D01*
X158844749Y-106242583D01*
X158935535Y-106269240D01*
X158978036Y-106281720D01*
X158978039Y-106281720D01*
X158978041Y-106281721D01*
X158978042Y-106281721D01*
X159116958Y-106281721D01*
X159116959Y-106281721D01*
X159116961Y-106281720D01*
X159116963Y-106281720D01*
X159132805Y-106277068D01*
X159250251Y-106242583D01*
X159367117Y-106167478D01*
X159458089Y-106062490D01*
X159458089Y-106062488D01*
X159461928Y-106058059D01*
X159514470Y-106028825D01*
X159528359Y-106027721D01*
X160682851Y-106027721D01*
X160685152Y-106027781D01*
X160692843Y-106028183D01*
X160726639Y-106029955D01*
X160748809Y-106021444D01*
X160762027Y-106017528D01*
X160785265Y-106012590D01*
X160790894Y-106008499D01*
X160811061Y-105997548D01*
X160817564Y-105995053D01*
X160834365Y-105978250D01*
X160844840Y-105969304D01*
X160864058Y-105955343D01*
X160867540Y-105949311D01*
X160881503Y-105931112D01*
X161806975Y-105005641D01*
X161808608Y-105004092D01*
X161839486Y-104976291D01*
X161849145Y-104954594D01*
X161855723Y-104942478D01*
X161868661Y-104922557D01*
X161869749Y-104915681D01*
X161876269Y-104893676D01*
X161879100Y-104887318D01*
X161879100Y-104863568D01*
X161880182Y-104849817D01*
X161883897Y-104826363D01*
X161883896Y-104826359D01*
X161883896Y-104826357D01*
X161882095Y-104819635D01*
X161879100Y-104796887D01*
X161879100Y-102983295D01*
X161899665Y-102926794D01*
X161951736Y-102896730D01*
X162010950Y-102907171D01*
X162029150Y-102921136D01*
X162060855Y-102952841D01*
X162164450Y-102998583D01*
X162189774Y-103001521D01*
X162189781Y-103001521D01*
X163530219Y-103001521D01*
X163530226Y-103001521D01*
X163555550Y-102998583D01*
X163659145Y-102952841D01*
X163739220Y-102872766D01*
X163784962Y-102769171D01*
X163787900Y-102743847D01*
X163787900Y-102731126D01*
X163808465Y-102674625D01*
X163813645Y-102668971D01*
X166729151Y-99753466D01*
X166783645Y-99728055D01*
X166791306Y-99727721D01*
X167852851Y-99727721D01*
X167855152Y-99727781D01*
X167862843Y-99728183D01*
X167896639Y-99729955D01*
X167918809Y-99721444D01*
X167932027Y-99717528D01*
X167955265Y-99712590D01*
X167960894Y-99708499D01*
X167981061Y-99697548D01*
X167987564Y-99695053D01*
X168004365Y-99678250D01*
X168014840Y-99669304D01*
X168034058Y-99655343D01*
X168037540Y-99649311D01*
X168051503Y-99631112D01*
X168434365Y-99248250D01*
X168488858Y-99222840D01*
X168521284Y-99226067D01*
X168540536Y-99231720D01*
X168540539Y-99231720D01*
X168540541Y-99231721D01*
X168540542Y-99231721D01*
X168679458Y-99231721D01*
X168679459Y-99231721D01*
X168679461Y-99231720D01*
X168679463Y-99231720D01*
X168704133Y-99224476D01*
X168812751Y-99192583D01*
X168929617Y-99117478D01*
X169020589Y-99012490D01*
X169078298Y-98886126D01*
X169090183Y-98803466D01*
X169098068Y-98748624D01*
X169098068Y-98748617D01*
X169078299Y-98611122D01*
X169078298Y-98611121D01*
X169078298Y-98611116D01*
X169020589Y-98484752D01*
X168929617Y-98379764D01*
X168929615Y-98379763D01*
X168929613Y-98379761D01*
X168812754Y-98304660D01*
X168812751Y-98304659D01*
X168768685Y-98291720D01*
X168679463Y-98265521D01*
X168679459Y-98265521D01*
X168540541Y-98265521D01*
X168540536Y-98265521D01*
X168407249Y-98304659D01*
X168407245Y-98304660D01*
X168290386Y-98379761D01*
X168290381Y-98379765D01*
X168199410Y-98484753D01*
X168141702Y-98611116D01*
X168141700Y-98611122D01*
X168121932Y-98748617D01*
X168121932Y-98748623D01*
X168136294Y-98848515D01*
X168123980Y-98907367D01*
X168111444Y-98923179D01*
X167790848Y-99243776D01*
X167736354Y-99269187D01*
X167728693Y-99269521D01*
X167239819Y-99269521D01*
X167183318Y-99248956D01*
X167153254Y-99196885D01*
X167163695Y-99137671D01*
X167176051Y-99122706D01*
X167175500Y-99122229D01*
X167179617Y-99117478D01*
X167270589Y-99012490D01*
X167328298Y-98886126D01*
X167340183Y-98803466D01*
X167348068Y-98748624D01*
X167348068Y-98748617D01*
X167328299Y-98611122D01*
X167328298Y-98611121D01*
X167328298Y-98611116D01*
X167270589Y-98484752D01*
X167179617Y-98379764D01*
X167117068Y-98339566D01*
X167080656Y-98291720D01*
X167083517Y-98231661D01*
X167124314Y-98187492D01*
X167164592Y-98177721D01*
X167802851Y-98177721D01*
X167805152Y-98177781D01*
X167812843Y-98178183D01*
X167846639Y-98179955D01*
X167868809Y-98171444D01*
X167882027Y-98167528D01*
X167905265Y-98162590D01*
X167910894Y-98158499D01*
X167931061Y-98147548D01*
X167937564Y-98145053D01*
X167954365Y-98128250D01*
X167964840Y-98119304D01*
X167984058Y-98105343D01*
X167987540Y-98099311D01*
X168001503Y-98081112D01*
X168434366Y-97648250D01*
X168488859Y-97622840D01*
X168521285Y-97626066D01*
X168540541Y-97631721D01*
X168679458Y-97631721D01*
X168679459Y-97631721D01*
X168679461Y-97631720D01*
X168679463Y-97631720D01*
X168698715Y-97626067D01*
X168812751Y-97592583D01*
X168929617Y-97517478D01*
X169020589Y-97412490D01*
X169078298Y-97286126D01*
X169089573Y-97207704D01*
X169098068Y-97148624D01*
X169098068Y-97148617D01*
X169078299Y-97011122D01*
X169078298Y-97011121D01*
X169078298Y-97011116D01*
X169020589Y-96884752D01*
X168929617Y-96779764D01*
X168929615Y-96779763D01*
X168929613Y-96779761D01*
X168812754Y-96704660D01*
X168812751Y-96704659D01*
X168768685Y-96691720D01*
X168679463Y-96665521D01*
X168679459Y-96665521D01*
X168540541Y-96665521D01*
X168540536Y-96665521D01*
X168407249Y-96704659D01*
X168407245Y-96704660D01*
X168290386Y-96779761D01*
X168290381Y-96779765D01*
X168199410Y-96884753D01*
X168141702Y-97011116D01*
X168141700Y-97011122D01*
X168121932Y-97148617D01*
X168121932Y-97148624D01*
X168136293Y-97248515D01*
X168123978Y-97307368D01*
X168111443Y-97323179D01*
X167740848Y-97693776D01*
X167686354Y-97719186D01*
X167678693Y-97719521D01*
X167164592Y-97719521D01*
X167108091Y-97698956D01*
X167078027Y-97646885D01*
X167088468Y-97587671D01*
X167117069Y-97557675D01*
X167179617Y-97517478D01*
X167270589Y-97412490D01*
X167328298Y-97286126D01*
X167339573Y-97207704D01*
X167348068Y-97148624D01*
X167348068Y-97148617D01*
X167328299Y-97011122D01*
X167328298Y-97011121D01*
X167328298Y-97011116D01*
X167270589Y-96884752D01*
X167179617Y-96779764D01*
X167117068Y-96739566D01*
X167080656Y-96691720D01*
X167083517Y-96631661D01*
X167124314Y-96587492D01*
X167164592Y-96577721D01*
X167796862Y-96577721D01*
X167799163Y-96577781D01*
X167806854Y-96578183D01*
X167840650Y-96579955D01*
X167862820Y-96571444D01*
X167876038Y-96567528D01*
X167899276Y-96562590D01*
X167904905Y-96558499D01*
X167925072Y-96547548D01*
X167931575Y-96545053D01*
X167948376Y-96528250D01*
X167958851Y-96519304D01*
X167978069Y-96505343D01*
X167981551Y-96499311D01*
X167995514Y-96481112D01*
X168434365Y-96042261D01*
X168488858Y-96016851D01*
X168521284Y-96020078D01*
X168540536Y-96025731D01*
X168540539Y-96025731D01*
X168540541Y-96025732D01*
X168540542Y-96025732D01*
X168679458Y-96025732D01*
X168679459Y-96025732D01*
X168679461Y-96025731D01*
X168679463Y-96025731D01*
X168698715Y-96020078D01*
X168812751Y-95986594D01*
X168929617Y-95911489D01*
X169020589Y-95806501D01*
X169078298Y-95680137D01*
X169090869Y-95592706D01*
X169098068Y-95542635D01*
X169098068Y-95542628D01*
X169078299Y-95405133D01*
X169078298Y-95405132D01*
X169078298Y-95405127D01*
X169020589Y-95278763D01*
X168929617Y-95173775D01*
X168929615Y-95173774D01*
X168929613Y-95173772D01*
X168812754Y-95098671D01*
X168812751Y-95098670D01*
X168786092Y-95090842D01*
X168679463Y-95059532D01*
X168679459Y-95059532D01*
X168540541Y-95059532D01*
X168540536Y-95059532D01*
X168407249Y-95098670D01*
X168407245Y-95098671D01*
X168290386Y-95173772D01*
X168290381Y-95173776D01*
X168199410Y-95278764D01*
X168141702Y-95405127D01*
X168141700Y-95405133D01*
X168121932Y-95542628D01*
X168121932Y-95542635D01*
X168136293Y-95642526D01*
X168123978Y-95701379D01*
X168111443Y-95717190D01*
X167734859Y-96093776D01*
X167680365Y-96119186D01*
X167672704Y-96119521D01*
X167155273Y-96119521D01*
X167098772Y-96098956D01*
X167068708Y-96046885D01*
X167079149Y-95987671D01*
X167107750Y-95957675D01*
X167108506Y-95957189D01*
X167179617Y-95911489D01*
X167270589Y-95806501D01*
X167328298Y-95680137D01*
X167340869Y-95592706D01*
X167348068Y-95542635D01*
X167348068Y-95542628D01*
X167328299Y-95405133D01*
X167328298Y-95405132D01*
X167328298Y-95405127D01*
X167270589Y-95278763D01*
X167179617Y-95173775D01*
X167179615Y-95173774D01*
X167179613Y-95173772D01*
X167062754Y-95098671D01*
X167062751Y-95098670D01*
X167036092Y-95090842D01*
X166929463Y-95059532D01*
X166929459Y-95059532D01*
X166790541Y-95059532D01*
X166790536Y-95059532D01*
X166657249Y-95098670D01*
X166657245Y-95098671D01*
X166540386Y-95173772D01*
X166540381Y-95173776D01*
X166449410Y-95278764D01*
X166391702Y-95405127D01*
X166391700Y-95405133D01*
X166371932Y-95542628D01*
X166371932Y-95542635D01*
X166386293Y-95642526D01*
X166373978Y-95701379D01*
X166361443Y-95717190D01*
X164784859Y-97293776D01*
X164730365Y-97319187D01*
X164722704Y-97319521D01*
X163838462Y-97319521D01*
X163781961Y-97298956D01*
X163758052Y-97267126D01*
X163739220Y-97224477D01*
X163739220Y-97224476D01*
X163659145Y-97144401D01*
X163659143Y-97144400D01*
X163555553Y-97098660D01*
X163555551Y-97098659D01*
X163555550Y-97098659D01*
X163548061Y-97097790D01*
X163530237Y-97095722D01*
X163530232Y-97095721D01*
X163530226Y-97095721D01*
X162189774Y-97095721D01*
X162189768Y-97095721D01*
X162189762Y-97095722D01*
X162164450Y-97098659D01*
X162164446Y-97098660D01*
X162060856Y-97144400D01*
X161980779Y-97224477D01*
X161935039Y-97328067D01*
X161935038Y-97328071D01*
X161932101Y-97353383D01*
X161932100Y-97353402D01*
X161932100Y-97743839D01*
X161932101Y-97743858D01*
X161935038Y-97769170D01*
X161935039Y-97769174D01*
X161961948Y-97830116D01*
X161980780Y-97872766D01*
X162060855Y-97952841D01*
X162084404Y-97963239D01*
X162095664Y-97968211D01*
X162139044Y-98009846D01*
X162145513Y-98069624D01*
X162112044Y-98119575D01*
X162095664Y-98129031D01*
X162060856Y-98144400D01*
X161980779Y-98224477D01*
X161935039Y-98328067D01*
X161935038Y-98328071D01*
X161932100Y-98353395D01*
X161932100Y-98743847D01*
X161934274Y-98762590D01*
X161935038Y-98769170D01*
X161935039Y-98769174D01*
X161950181Y-98803466D01*
X161980780Y-98872766D01*
X162060855Y-98952841D01*
X162084404Y-98963239D01*
X162095664Y-98968211D01*
X162139044Y-99009846D01*
X162145513Y-99069624D01*
X162112044Y-99119575D01*
X162095664Y-99129031D01*
X162060856Y-99144400D01*
X161980779Y-99224477D01*
X161935039Y-99328067D01*
X161935038Y-99328071D01*
X161932101Y-99353383D01*
X161932100Y-99353402D01*
X161932100Y-99743839D01*
X161932101Y-99743858D01*
X161935038Y-99769170D01*
X161935039Y-99769174D01*
X161948043Y-99798624D01*
X161980780Y-99872766D01*
X162060855Y-99952841D01*
X162084404Y-99963239D01*
X162095664Y-99968211D01*
X162139044Y-100009846D01*
X162145513Y-100069624D01*
X162112044Y-100119575D01*
X162095664Y-100129031D01*
X162060856Y-100144400D01*
X161980779Y-100224477D01*
X161935039Y-100328067D01*
X161935038Y-100328071D01*
X161932101Y-100353383D01*
X161932100Y-100353402D01*
X161932100Y-100474514D01*
X161911535Y-100531015D01*
X161859464Y-100561079D01*
X161800250Y-100550638D01*
X161782045Y-100536669D01*
X159637039Y-98391662D01*
X159635470Y-98390010D01*
X159607670Y-98359135D01*
X159607669Y-98359134D01*
X159585972Y-98349473D01*
X159573858Y-98342896D01*
X159561022Y-98334561D01*
X159553936Y-98329960D01*
X159553933Y-98329959D01*
X159553932Y-98329959D01*
X159547058Y-98328870D01*
X159525064Y-98322355D01*
X159518699Y-98319521D01*
X159518697Y-98319521D01*
X159494947Y-98319521D01*
X159481197Y-98318439D01*
X159469119Y-98316526D01*
X159457743Y-98314724D01*
X159457740Y-98314724D01*
X159451017Y-98316526D01*
X159428267Y-98319521D01*
X158513462Y-98319521D01*
X158456961Y-98298956D01*
X158433052Y-98267126D01*
X158432343Y-98265521D01*
X158414220Y-98224476D01*
X158334145Y-98144401D01*
X158334143Y-98144400D01*
X158329229Y-98142230D01*
X158285852Y-98100592D01*
X158279387Y-98040814D01*
X158312860Y-97990865D01*
X158327593Y-97982157D01*
X158350918Y-97971280D01*
X158432661Y-97889537D01*
X158481512Y-97784775D01*
X158481515Y-97784766D01*
X158487800Y-97737033D01*
X158487800Y-97675622D01*
X158487799Y-97675621D01*
X156582201Y-97675621D01*
X156582201Y-97737036D01*
X156588483Y-97784766D01*
X156588485Y-97784772D01*
X156637339Y-97889538D01*
X156719081Y-97971280D01*
X156742407Y-97982157D01*
X156784924Y-98024672D01*
X156790165Y-98084571D01*
X156755679Y-98133824D01*
X156740771Y-98142230D01*
X156735856Y-98144400D01*
X156655779Y-98224477D01*
X156610039Y-98328067D01*
X156610038Y-98328071D01*
X156607100Y-98353395D01*
X156607100Y-98743847D01*
X156609274Y-98762590D01*
X156610038Y-98769170D01*
X156610039Y-98769174D01*
X156625181Y-98803466D01*
X156655780Y-98872766D01*
X156735855Y-98952841D01*
X156759404Y-98963239D01*
X156770664Y-98968211D01*
X156814044Y-99009846D01*
X156820513Y-99069624D01*
X156787044Y-99119575D01*
X156770664Y-99129031D01*
X156735856Y-99144400D01*
X156655779Y-99224477D01*
X156610039Y-99328067D01*
X156610038Y-99328071D01*
X156607101Y-99353383D01*
X156607100Y-99353402D01*
X156607100Y-99743839D01*
X156607101Y-99743858D01*
X156610038Y-99769170D01*
X156610039Y-99769174D01*
X156623043Y-99798624D01*
X156655780Y-99872766D01*
X156735855Y-99952841D01*
X156759404Y-99963239D01*
X156770664Y-99968211D01*
X156814044Y-100009846D01*
X156820513Y-100069624D01*
X156787044Y-100119575D01*
X156770664Y-100129031D01*
X156735856Y-100144400D01*
X156655779Y-100224477D01*
X156610039Y-100328067D01*
X156610038Y-100328071D01*
X156608040Y-100345295D01*
X156607100Y-100353395D01*
X156607100Y-100743847D01*
X156609274Y-100762590D01*
X156610038Y-100769170D01*
X156610039Y-100769174D01*
X156653481Y-100867559D01*
X156655780Y-100872766D01*
X156735855Y-100952841D01*
X156759404Y-100963239D01*
X156770664Y-100968211D01*
X156814044Y-101009846D01*
X156820513Y-101069624D01*
X156787044Y-101119575D01*
X156770664Y-101129031D01*
X156735856Y-101144400D01*
X156655779Y-101224477D01*
X156636948Y-101267126D01*
X156595314Y-101310506D01*
X156556538Y-101319521D01*
X156131306Y-101319521D01*
X156074805Y-101298956D01*
X156069151Y-101293776D01*
X155754845Y-100979469D01*
X155729434Y-100924975D01*
X155729100Y-100917314D01*
X155729100Y-100273646D01*
X155749665Y-100217145D01*
X155769477Y-100199700D01*
X155819617Y-100167478D01*
X155910589Y-100062490D01*
X155968298Y-99936126D01*
X155983540Y-99830116D01*
X155988068Y-99798624D01*
X155988068Y-99798617D01*
X155968299Y-99661122D01*
X155968298Y-99661121D01*
X155968298Y-99661116D01*
X155910589Y-99534752D01*
X155819617Y-99429764D01*
X155819615Y-99429763D01*
X155819613Y-99429761D01*
X155702754Y-99354660D01*
X155702751Y-99354659D01*
X155662690Y-99342896D01*
X155569463Y-99315521D01*
X155569459Y-99315521D01*
X155430541Y-99315521D01*
X155430536Y-99315521D01*
X155297249Y-99354659D01*
X155297245Y-99354660D01*
X155180386Y-99429761D01*
X155180381Y-99429765D01*
X155089410Y-99534753D01*
X155031702Y-99661116D01*
X155031700Y-99661122D01*
X155011932Y-99798617D01*
X155011932Y-99798624D01*
X155031700Y-99936119D01*
X155031701Y-99936124D01*
X155031702Y-99936126D01*
X155089411Y-100062490D01*
X155147069Y-100129031D01*
X155180384Y-100167479D01*
X155206673Y-100184373D01*
X155230521Y-100199699D01*
X155266935Y-100247545D01*
X155270900Y-100273646D01*
X155270900Y-101041471D01*
X155270840Y-101043772D01*
X155268666Y-101085260D01*
X155277177Y-101107433D01*
X155281092Y-101120650D01*
X155286031Y-101143888D01*
X155290124Y-101149521D01*
X155301071Y-101169682D01*
X155303567Y-101176183D01*
X155303568Y-101176185D01*
X155320364Y-101192982D01*
X155329320Y-101203468D01*
X155343276Y-101222677D01*
X155343278Y-101222679D01*
X155349308Y-101226160D01*
X155367510Y-101240127D01*
X155832959Y-101705578D01*
X155834543Y-101707247D01*
X155862328Y-101738105D01*
X155862331Y-101738108D01*
X155884019Y-101747764D01*
X155896141Y-101754345D01*
X155916062Y-101767282D01*
X155916064Y-101767283D01*
X155922940Y-101768371D01*
X155944944Y-101774889D01*
X155951303Y-101777721D01*
X155975052Y-101777721D01*
X155988801Y-101778803D01*
X155993877Y-101779606D01*
X156012259Y-101782518D01*
X156018984Y-101780715D01*
X156041734Y-101777721D01*
X156556538Y-101777721D01*
X156613039Y-101798286D01*
X156636947Y-101830115D01*
X156655780Y-101872766D01*
X156711181Y-101928167D01*
X156736592Y-101982660D01*
X156721029Y-102040738D01*
X156671776Y-102075226D01*
X156649026Y-102078221D01*
X153233826Y-102078221D01*
X153177325Y-102057656D01*
X153153087Y-102015676D01*
X153150096Y-102016649D01*
X153147957Y-102010070D01*
X153147957Y-102010066D01*
X153090016Y-101896350D01*
X152999771Y-101806105D01*
X152999768Y-101806103D01*
X152886053Y-101748163D01*
X152886054Y-101748163D01*
X152806649Y-101735587D01*
X152791708Y-101733221D01*
X152791707Y-101733221D01*
X152427000Y-101733221D01*
X152370499Y-101712656D01*
X152340435Y-101660585D01*
X152339100Y-101645321D01*
X152339100Y-97421620D01*
X156582200Y-97421620D01*
X156582201Y-97421621D01*
X157407999Y-97421621D01*
X157408000Y-97421620D01*
X157662000Y-97421620D01*
X157662001Y-97421621D01*
X158487798Y-97421621D01*
X158487799Y-97421620D01*
X158487799Y-97360207D01*
X158487798Y-97360205D01*
X158481516Y-97312475D01*
X158481514Y-97312469D01*
X158432660Y-97207703D01*
X158350916Y-97125959D01*
X158246154Y-97077108D01*
X158246145Y-97077105D01*
X158198413Y-97070821D01*
X157662001Y-97070821D01*
X157662000Y-97070822D01*
X157662000Y-97421620D01*
X157408000Y-97421620D01*
X157408000Y-97070822D01*
X157407999Y-97070821D01*
X156871586Y-97070821D01*
X156871584Y-97070822D01*
X156823854Y-97077104D01*
X156823848Y-97077106D01*
X156719082Y-97125960D01*
X156637338Y-97207704D01*
X156588487Y-97312466D01*
X156588484Y-97312475D01*
X156582200Y-97360208D01*
X156582200Y-97421620D01*
X152339100Y-97421620D01*
X152339100Y-96650154D01*
X153932200Y-96650154D01*
X153934909Y-96679050D01*
X153934910Y-96679055D01*
X153977501Y-96800774D01*
X153977502Y-96800775D01*
X154054080Y-96904535D01*
X154054085Y-96904540D01*
X154157845Y-96981118D01*
X154157846Y-96981119D01*
X154279565Y-97023710D01*
X154279570Y-97023711D01*
X154308466Y-97026420D01*
X154308470Y-97026421D01*
X154882999Y-97026421D01*
X154883000Y-97026420D01*
X155137000Y-97026420D01*
X155137001Y-97026421D01*
X155711530Y-97026421D01*
X155711533Y-97026420D01*
X155740429Y-97023711D01*
X155740434Y-97023710D01*
X155862153Y-96981119D01*
X155862154Y-96981118D01*
X155965914Y-96904540D01*
X155965919Y-96904535D01*
X156042497Y-96800775D01*
X156042498Y-96800774D01*
X156085089Y-96679055D01*
X156085090Y-96679050D01*
X156087799Y-96650154D01*
X159257200Y-96650154D01*
X159259909Y-96679050D01*
X159259910Y-96679055D01*
X159302501Y-96800774D01*
X159302502Y-96800775D01*
X159379080Y-96904535D01*
X159379085Y-96904540D01*
X159482845Y-96981118D01*
X159482846Y-96981119D01*
X159604565Y-97023710D01*
X159604570Y-97023711D01*
X159633466Y-97026420D01*
X159633470Y-97026421D01*
X160207999Y-97026421D01*
X160208000Y-97026419D01*
X160208000Y-96375622D01*
X160207999Y-96375621D01*
X160462000Y-96375621D01*
X160462000Y-97026420D01*
X160462001Y-97026421D01*
X161036530Y-97026421D01*
X161036533Y-97026420D01*
X161065429Y-97023711D01*
X161065434Y-97023710D01*
X161187153Y-96981119D01*
X161187154Y-96981118D01*
X161290914Y-96904540D01*
X161290919Y-96904535D01*
X161367497Y-96800775D01*
X161367498Y-96800774D01*
X161410089Y-96679055D01*
X161410090Y-96679050D01*
X161412799Y-96650154D01*
X161412800Y-96650151D01*
X161412800Y-96375622D01*
X161412799Y-96375621D01*
X160462000Y-96375621D01*
X160207999Y-96375621D01*
X159257201Y-96375621D01*
X159257200Y-96375622D01*
X159257200Y-96650154D01*
X156087799Y-96650154D01*
X156087800Y-96650151D01*
X156087800Y-96375622D01*
X156087799Y-96375621D01*
X155137001Y-96375621D01*
X155137000Y-96375622D01*
X155137000Y-97026420D01*
X154883000Y-97026420D01*
X154883000Y-96375622D01*
X154882999Y-96375621D01*
X153932201Y-96375621D01*
X153932200Y-96375622D01*
X153932200Y-96650154D01*
X152339100Y-96650154D01*
X152339100Y-96121619D01*
X153932200Y-96121619D01*
X153932201Y-96121621D01*
X154882999Y-96121621D01*
X154883000Y-96121620D01*
X154883000Y-95470821D01*
X155137000Y-95470821D01*
X155137000Y-96121620D01*
X155137001Y-96121621D01*
X156087799Y-96121621D01*
X156087800Y-96121620D01*
X156087800Y-96121619D01*
X159257200Y-96121619D01*
X159257201Y-96121621D01*
X160207999Y-96121621D01*
X160208000Y-96121620D01*
X160208000Y-95470822D01*
X160207999Y-95470821D01*
X160462000Y-95470821D01*
X160462000Y-96121620D01*
X160462001Y-96121621D01*
X161412799Y-96121621D01*
X161412800Y-96121620D01*
X161412800Y-95847090D01*
X161412799Y-95847087D01*
X161410090Y-95818191D01*
X161410089Y-95818186D01*
X161367498Y-95696467D01*
X161367497Y-95696466D01*
X161290919Y-95592706D01*
X161290914Y-95592701D01*
X161187154Y-95516123D01*
X161187153Y-95516122D01*
X161065434Y-95473531D01*
X161065429Y-95473530D01*
X161036533Y-95470821D01*
X160462000Y-95470821D01*
X160207999Y-95470821D01*
X159633466Y-95470821D01*
X159604570Y-95473530D01*
X159604565Y-95473531D01*
X159482846Y-95516122D01*
X159482845Y-95516123D01*
X159379085Y-95592701D01*
X159379080Y-95592706D01*
X159302502Y-95696466D01*
X159302501Y-95696467D01*
X159259910Y-95818186D01*
X159259909Y-95818191D01*
X159257200Y-95847087D01*
X159257200Y-96121619D01*
X156087800Y-96121619D01*
X156087800Y-95847090D01*
X156087799Y-95847087D01*
X156085090Y-95818191D01*
X156085089Y-95818186D01*
X156042498Y-95696467D01*
X156042497Y-95696466D01*
X155965919Y-95592706D01*
X155965914Y-95592701D01*
X155862154Y-95516123D01*
X155862153Y-95516122D01*
X155740434Y-95473531D01*
X155740429Y-95473530D01*
X155711533Y-95470821D01*
X155137000Y-95470821D01*
X154883000Y-95470821D01*
X154308466Y-95470821D01*
X154279570Y-95473530D01*
X154279565Y-95473531D01*
X154157846Y-95516122D01*
X154157845Y-95516123D01*
X154054085Y-95592701D01*
X154054080Y-95592706D01*
X153977502Y-95696466D01*
X153977501Y-95696467D01*
X153934910Y-95818186D01*
X153934909Y-95818191D01*
X153932200Y-95847087D01*
X153932200Y-96121619D01*
X152339100Y-96121619D01*
X152339100Y-93369927D01*
X152359665Y-93313426D01*
X152364845Y-93307772D01*
X152601035Y-93071582D01*
X154294366Y-91378250D01*
X154348859Y-91352840D01*
X154381285Y-91356066D01*
X154400541Y-91361721D01*
X154539458Y-91361721D01*
X154539459Y-91361721D01*
X154539461Y-91361720D01*
X154539463Y-91361720D01*
X154558715Y-91356067D01*
X154672751Y-91322583D01*
X154789617Y-91247478D01*
X154880589Y-91142490D01*
X154938298Y-91016126D01*
X154940091Y-91003654D01*
X154958068Y-90878624D01*
X154958068Y-90878617D01*
X154938299Y-90741122D01*
X154938298Y-90741121D01*
X154938298Y-90741116D01*
X154880589Y-90614752D01*
X154789617Y-90509764D01*
X154789615Y-90509763D01*
X154789613Y-90509761D01*
X154672754Y-90434660D01*
X154672751Y-90434659D01*
X154646092Y-90426831D01*
X154539463Y-90395521D01*
X154539459Y-90395521D01*
X154400541Y-90395521D01*
X154400536Y-90395521D01*
X154267249Y-90434659D01*
X154267245Y-90434660D01*
X154150386Y-90509761D01*
X154150381Y-90509765D01*
X154059410Y-90614753D01*
X154001702Y-90741116D01*
X154001700Y-90741122D01*
X153981932Y-90878617D01*
X153981932Y-90878624D01*
X153996293Y-90978515D01*
X153983978Y-91037368D01*
X153971443Y-91053179D01*
X151953040Y-93071582D01*
X151951372Y-93073165D01*
X151920514Y-93100950D01*
X151920513Y-93100951D01*
X151920514Y-93100951D01*
X151910849Y-93122655D01*
X151904278Y-93134758D01*
X151895226Y-93148697D01*
X151891338Y-93154686D01*
X151890248Y-93161568D01*
X151883735Y-93183555D01*
X151880900Y-93189924D01*
X151880900Y-93213672D01*
X151879818Y-93227421D01*
X151876103Y-93250876D01*
X151876103Y-93250879D01*
X151877905Y-93257603D01*
X151880900Y-93280354D01*
X151880900Y-101645321D01*
X151860335Y-101701822D01*
X151808264Y-101731886D01*
X151793000Y-101733221D01*
X151428292Y-101733221D01*
X151413350Y-101735587D01*
X151333946Y-101748163D01*
X151220231Y-101806103D01*
X151129982Y-101896352D01*
X151072043Y-102010065D01*
X151069904Y-102016649D01*
X151066615Y-102015580D01*
X151043833Y-102056668D01*
X150987696Y-102078208D01*
X150986174Y-102078221D01*
X144750800Y-102078221D01*
X144694299Y-102057656D01*
X144664235Y-102005585D01*
X144662900Y-101990321D01*
X144662900Y-101391914D01*
X144662549Y-101389694D01*
X144647957Y-101297566D01*
X144590016Y-101183850D01*
X144499771Y-101093605D01*
X144499768Y-101093603D01*
X144386053Y-101035663D01*
X144386054Y-101035663D01*
X144306650Y-101023087D01*
X144291708Y-101020721D01*
X142928292Y-101020721D01*
X142913349Y-101023087D01*
X142833946Y-101035663D01*
X142720231Y-101093603D01*
X142629982Y-101183852D01*
X142572042Y-101297567D01*
X142561585Y-101363595D01*
X142557452Y-101389694D01*
X142557100Y-101391914D01*
X142557100Y-102280327D01*
X141410000Y-102280327D01*
X141410000Y-89868625D01*
X159357540Y-89868625D01*
X159375729Y-90041693D01*
X159375731Y-90041699D01*
X159429510Y-90207213D01*
X159516526Y-90357929D01*
X159632976Y-90487259D01*
X159773770Y-90589553D01*
X159932756Y-90660338D01*
X160102984Y-90696521D01*
X160277016Y-90696521D01*
X160447244Y-90660338D01*
X160606230Y-90589553D01*
X160648724Y-90558679D01*
X161362100Y-90558679D01*
X161368242Y-90589553D01*
X161370972Y-90603279D01*
X161404766Y-90653855D01*
X161421701Y-90665171D01*
X161455341Y-90687649D01*
X161462741Y-90689120D01*
X161499943Y-90696521D01*
X162880056Y-90696520D01*
X162880058Y-90696520D01*
X162892750Y-90693995D01*
X162924658Y-90687649D01*
X162975234Y-90653855D01*
X163009028Y-90603279D01*
X163017900Y-90558678D01*
X163017899Y-89712305D01*
X166749884Y-89712305D01*
X166769115Y-89944401D01*
X166769116Y-89944407D01*
X166826286Y-90170165D01*
X166826289Y-90170173D01*
X166919835Y-90383435D01*
X166919840Y-90383446D01*
X166919844Y-90383452D01*
X167047215Y-90578410D01*
X167047216Y-90578412D01*
X167196995Y-90741116D01*
X167204954Y-90749761D01*
X167388740Y-90892807D01*
X167593563Y-91003652D01*
X167813837Y-91079272D01*
X167813839Y-91079272D01*
X167813841Y-91079273D01*
X168043550Y-91117605D01*
X168043554Y-91117605D01*
X168276450Y-91117605D01*
X168506158Y-91079273D01*
X168506158Y-91079272D01*
X168506163Y-91079272D01*
X168726437Y-91003652D01*
X168931260Y-90892807D01*
X169115046Y-90749761D01*
X169272780Y-90578416D01*
X169400160Y-90383446D01*
X169493712Y-90170169D01*
X169550884Y-89944402D01*
X169570116Y-89712305D01*
X169550884Y-89480208D01*
X169550883Y-89480202D01*
X169493713Y-89254444D01*
X169493710Y-89254436D01*
X169422013Y-89090984D01*
X169400160Y-89041164D01*
X169319435Y-88917605D01*
X169272784Y-88846199D01*
X169272783Y-88846197D01*
X169115050Y-88674853D01*
X169115048Y-88674852D01*
X169115046Y-88674849D01*
X168931260Y-88531803D01*
X168726437Y-88420958D01*
X168726433Y-88420956D01*
X168726430Y-88420955D01*
X168506167Y-88345339D01*
X168506158Y-88345336D01*
X168276450Y-88307005D01*
X168276446Y-88307005D01*
X168043554Y-88307005D01*
X168043550Y-88307005D01*
X167813841Y-88345336D01*
X167813832Y-88345339D01*
X167593569Y-88420955D01*
X167593564Y-88420957D01*
X167593563Y-88420958D01*
X167388739Y-88531803D01*
X167388740Y-88531803D01*
X167204949Y-88674853D01*
X167047216Y-88846197D01*
X167047215Y-88846199D01*
X166919844Y-89041157D01*
X166919835Y-89041174D01*
X166826289Y-89254436D01*
X166826286Y-89254444D01*
X166769116Y-89480202D01*
X166769115Y-89480208D01*
X166749884Y-89712305D01*
X163017899Y-89712305D01*
X163017899Y-89178565D01*
X163017899Y-89178564D01*
X163017899Y-89178562D01*
X163011758Y-89147689D01*
X163009028Y-89133963D01*
X162975234Y-89083387D01*
X162965530Y-89076903D01*
X162924658Y-89049592D01*
X162882334Y-89041174D01*
X162880057Y-89040721D01*
X162880056Y-89040721D01*
X161499941Y-89040721D01*
X161455341Y-89049593D01*
X161404767Y-89083386D01*
X161404764Y-89083389D01*
X161370971Y-89133962D01*
X161362100Y-89178564D01*
X161362100Y-90558679D01*
X160648724Y-90558679D01*
X160747024Y-90487259D01*
X160863474Y-90357929D01*
X160950490Y-90207213D01*
X161004269Y-90041699D01*
X161014495Y-89944407D01*
X161022460Y-89868625D01*
X161022460Y-89868616D01*
X161004270Y-89695548D01*
X161004269Y-89695545D01*
X161004269Y-89695543D01*
X160950490Y-89530029D01*
X160863474Y-89379313D01*
X160747024Y-89249983D01*
X160606230Y-89147689D01*
X160447244Y-89076904D01*
X160447242Y-89076903D01*
X160447241Y-89076903D01*
X160277016Y-89040721D01*
X160102984Y-89040721D01*
X159932758Y-89076903D01*
X159932756Y-89076904D01*
X159901361Y-89090881D01*
X159773769Y-89147689D01*
X159632977Y-89249982D01*
X159632975Y-89249983D01*
X159516527Y-89379311D01*
X159429511Y-89530027D01*
X159375729Y-89695548D01*
X159357540Y-89868616D01*
X159357540Y-89868625D01*
X141410000Y-89868625D01*
X141410000Y-87330657D01*
X142807100Y-87330657D01*
X142815972Y-87375256D01*
X142815972Y-87375257D01*
X142849766Y-87425833D01*
X142866701Y-87437149D01*
X142900341Y-87459627D01*
X142907741Y-87461098D01*
X142944943Y-87468499D01*
X144675056Y-87468498D01*
X144675058Y-87468498D01*
X144687750Y-87465973D01*
X144719658Y-87459627D01*
X144770234Y-87425833D01*
X144804028Y-87375257D01*
X144812900Y-87330656D01*
X144812899Y-86465598D01*
X145342247Y-86465598D01*
X145361612Y-86662208D01*
X145418957Y-86851247D01*
X145418958Y-86851249D01*
X145512084Y-87025477D01*
X145637411Y-87178188D01*
X145790122Y-87303515D01*
X145964350Y-87396641D01*
X146153397Y-87453988D01*
X146350000Y-87473352D01*
X146546603Y-87453988D01*
X146735650Y-87396641D01*
X146909878Y-87303515D01*
X147062589Y-87178188D01*
X147187916Y-87025477D01*
X147281042Y-86851249D01*
X147338389Y-86662202D01*
X147357753Y-86465599D01*
X147357753Y-86465598D01*
X147882247Y-86465598D01*
X147901612Y-86662208D01*
X147958957Y-86851247D01*
X147958958Y-86851249D01*
X148052084Y-87025477D01*
X148177411Y-87178188D01*
X148330122Y-87303515D01*
X148504350Y-87396641D01*
X148693397Y-87453988D01*
X148890000Y-87473352D01*
X149086603Y-87453988D01*
X149275650Y-87396641D01*
X149449878Y-87303515D01*
X149602589Y-87178188D01*
X149727916Y-87025477D01*
X149821042Y-86851249D01*
X149878389Y-86662202D01*
X149897753Y-86465599D01*
X150422247Y-86465599D01*
X150441612Y-86662208D01*
X150498957Y-86851247D01*
X150498958Y-86851249D01*
X150592084Y-87025477D01*
X150717411Y-87178188D01*
X150870122Y-87303515D01*
X151044350Y-87396641D01*
X151233397Y-87453988D01*
X151430000Y-87473352D01*
X151626603Y-87453988D01*
X151815650Y-87396641D01*
X151989878Y-87303515D01*
X152142589Y-87178188D01*
X152267916Y-87025477D01*
X152361042Y-86851249D01*
X152418389Y-86662202D01*
X152437753Y-86465599D01*
X152962247Y-86465599D01*
X152981612Y-86662208D01*
X153038957Y-86851247D01*
X153038958Y-86851249D01*
X153132084Y-87025477D01*
X153257411Y-87178188D01*
X153410122Y-87303515D01*
X153584350Y-87396641D01*
X153773397Y-87453988D01*
X153970000Y-87473352D01*
X154166603Y-87453988D01*
X154355650Y-87396641D01*
X154529878Y-87303515D01*
X154682589Y-87178188D01*
X154807916Y-87025477D01*
X154901042Y-86851249D01*
X154958389Y-86662202D01*
X154977753Y-86465599D01*
X155502247Y-86465599D01*
X155521612Y-86662208D01*
X155578957Y-86851247D01*
X155578958Y-86851249D01*
X155672084Y-87025477D01*
X155797411Y-87178188D01*
X155950122Y-87303515D01*
X156124350Y-87396641D01*
X156313397Y-87453988D01*
X156510000Y-87473352D01*
X156706603Y-87453988D01*
X156895650Y-87396641D01*
X157069878Y-87303515D01*
X157222589Y-87178188D01*
X157347916Y-87025477D01*
X157441042Y-86851249D01*
X157498389Y-86662202D01*
X157517753Y-86465599D01*
X157498389Y-86268996D01*
X157441042Y-86079949D01*
X157347916Y-85905721D01*
X157222589Y-85753010D01*
X157069878Y-85627683D01*
X156895650Y-85534557D01*
X156895649Y-85534556D01*
X156895648Y-85534556D01*
X156706609Y-85477211D01*
X156706604Y-85477210D01*
X156706603Y-85477210D01*
X156510000Y-85457846D01*
X156509999Y-85457846D01*
X156462657Y-85462508D01*
X156313397Y-85477210D01*
X156313395Y-85477210D01*
X156313390Y-85477211D01*
X156124351Y-85534556D01*
X155950121Y-85627683D01*
X155797413Y-85753008D01*
X155797409Y-85753012D01*
X155672084Y-85905720D01*
X155578957Y-86079950D01*
X155521612Y-86268989D01*
X155502247Y-86465599D01*
X154977753Y-86465599D01*
X154958389Y-86268996D01*
X154901042Y-86079949D01*
X154807916Y-85905721D01*
X154682589Y-85753010D01*
X154529878Y-85627683D01*
X154355650Y-85534557D01*
X154355649Y-85534556D01*
X154355648Y-85534556D01*
X154166609Y-85477211D01*
X154166604Y-85477210D01*
X154166603Y-85477210D01*
X153970000Y-85457846D01*
X153773397Y-85477210D01*
X153773395Y-85477210D01*
X153773390Y-85477211D01*
X153584351Y-85534556D01*
X153410121Y-85627683D01*
X153257413Y-85753008D01*
X153257409Y-85753012D01*
X153132084Y-85905720D01*
X153038957Y-86079950D01*
X152981612Y-86268989D01*
X152962247Y-86465599D01*
X152437753Y-86465599D01*
X152418389Y-86268996D01*
X152361042Y-86079949D01*
X152267916Y-85905721D01*
X152142589Y-85753010D01*
X151989878Y-85627683D01*
X151815650Y-85534557D01*
X151815649Y-85534556D01*
X151815648Y-85534556D01*
X151626609Y-85477211D01*
X151626604Y-85477210D01*
X151626603Y-85477210D01*
X151430000Y-85457846D01*
X151233397Y-85477210D01*
X151233395Y-85477210D01*
X151233390Y-85477211D01*
X151044351Y-85534556D01*
X150870121Y-85627683D01*
X150717413Y-85753008D01*
X150717409Y-85753012D01*
X150592084Y-85905720D01*
X150498957Y-86079950D01*
X150441612Y-86268989D01*
X150422247Y-86465599D01*
X149897753Y-86465599D01*
X149878389Y-86268996D01*
X149821042Y-86079949D01*
X149727916Y-85905721D01*
X149602589Y-85753010D01*
X149449878Y-85627683D01*
X149275650Y-85534557D01*
X149275649Y-85534556D01*
X149275648Y-85534556D01*
X149086609Y-85477211D01*
X149086604Y-85477210D01*
X149086603Y-85477210D01*
X148890000Y-85457846D01*
X148889999Y-85457846D01*
X148842657Y-85462508D01*
X148693397Y-85477210D01*
X148693395Y-85477210D01*
X148693390Y-85477211D01*
X148504351Y-85534556D01*
X148330121Y-85627683D01*
X148177413Y-85753008D01*
X148177409Y-85753012D01*
X148052084Y-85905720D01*
X147958957Y-86079950D01*
X147901612Y-86268989D01*
X147882247Y-86465598D01*
X147357753Y-86465598D01*
X147338389Y-86268996D01*
X147281042Y-86079949D01*
X147187916Y-85905721D01*
X147062589Y-85753010D01*
X146909878Y-85627683D01*
X146735650Y-85534557D01*
X146735649Y-85534556D01*
X146735648Y-85534556D01*
X146546609Y-85477211D01*
X146546604Y-85477210D01*
X146546603Y-85477210D01*
X146350000Y-85457846D01*
X146153397Y-85477210D01*
X146153395Y-85477210D01*
X146153390Y-85477211D01*
X145964351Y-85534556D01*
X145790121Y-85627683D01*
X145637413Y-85753008D01*
X145637409Y-85753012D01*
X145512084Y-85905720D01*
X145418957Y-86079950D01*
X145361612Y-86268989D01*
X145342247Y-86465598D01*
X144812899Y-86465598D01*
X144812899Y-85600543D01*
X144812899Y-85600542D01*
X144812899Y-85600540D01*
X144809111Y-85581501D01*
X144804028Y-85555941D01*
X144770234Y-85505365D01*
X144770002Y-85505210D01*
X144719658Y-85471570D01*
X144682456Y-85464170D01*
X144675057Y-85462699D01*
X144675056Y-85462699D01*
X142944941Y-85462699D01*
X142900341Y-85471571D01*
X142849767Y-85505364D01*
X142849764Y-85505367D01*
X142815971Y-85555940D01*
X142807100Y-85600542D01*
X142807100Y-87330657D01*
X141410000Y-87330657D01*
X141410000Y-83925599D01*
X142802247Y-83925599D01*
X142821612Y-84122208D01*
X142878957Y-84311247D01*
X142878958Y-84311249D01*
X142972084Y-84485477D01*
X143097411Y-84638188D01*
X143250122Y-84763515D01*
X143424350Y-84856641D01*
X143613397Y-84913988D01*
X143810000Y-84933352D01*
X144006603Y-84913988D01*
X144195650Y-84856641D01*
X144369878Y-84763515D01*
X144522589Y-84638188D01*
X144647916Y-84485477D01*
X144741042Y-84311249D01*
X144798389Y-84122202D01*
X144817753Y-83925599D01*
X145342247Y-83925599D01*
X145361612Y-84122208D01*
X145418957Y-84311247D01*
X145418958Y-84311249D01*
X145512084Y-84485477D01*
X145637411Y-84638188D01*
X145790122Y-84763515D01*
X145964350Y-84856641D01*
X146153397Y-84913988D01*
X146350000Y-84933352D01*
X146546603Y-84913988D01*
X146735650Y-84856641D01*
X146909878Y-84763515D01*
X147062589Y-84638188D01*
X147187916Y-84485477D01*
X147281042Y-84311249D01*
X147338389Y-84122202D01*
X147357753Y-83925599D01*
X147882247Y-83925599D01*
X147901612Y-84122208D01*
X147958957Y-84311247D01*
X147958958Y-84311249D01*
X148052084Y-84485477D01*
X148177411Y-84638188D01*
X148330122Y-84763515D01*
X148504350Y-84856641D01*
X148693397Y-84913988D01*
X148890000Y-84933352D01*
X149086603Y-84913988D01*
X149275650Y-84856641D01*
X149449878Y-84763515D01*
X149602589Y-84638188D01*
X149727916Y-84485477D01*
X149821042Y-84311249D01*
X149878389Y-84122202D01*
X149885244Y-84052599D01*
X150409735Y-84052599D01*
X150417072Y-84127087D01*
X150475842Y-84320824D01*
X150475844Y-84320827D01*
X150571281Y-84499377D01*
X150699717Y-84655877D01*
X150699721Y-84655881D01*
X150856221Y-84784317D01*
X151034771Y-84879754D01*
X151034774Y-84879756D01*
X151228515Y-84938528D01*
X151303000Y-84945862D01*
X151303000Y-84412480D01*
X151394237Y-84425599D01*
X151465763Y-84425599D01*
X151557000Y-84412480D01*
X151557000Y-84945862D01*
X151631484Y-84938528D01*
X151825225Y-84879756D01*
X151825228Y-84879754D01*
X152003778Y-84784317D01*
X152160278Y-84655881D01*
X152160282Y-84655877D01*
X152288718Y-84499377D01*
X152384155Y-84320827D01*
X152384157Y-84320824D01*
X152442927Y-84127087D01*
X152450265Y-84052599D01*
X152949735Y-84052599D01*
X152957072Y-84127087D01*
X153015842Y-84320824D01*
X153015844Y-84320827D01*
X153111281Y-84499377D01*
X153239717Y-84655877D01*
X153239721Y-84655881D01*
X153396221Y-84784317D01*
X153574771Y-84879754D01*
X153574774Y-84879756D01*
X153768515Y-84938528D01*
X153843000Y-84945862D01*
X153843000Y-84412480D01*
X153934237Y-84425599D01*
X154005763Y-84425599D01*
X154097000Y-84412480D01*
X154097000Y-84945862D01*
X154171484Y-84938528D01*
X154365225Y-84879756D01*
X154365228Y-84879754D01*
X154543778Y-84784317D01*
X154700278Y-84655881D01*
X154700282Y-84655877D01*
X154828718Y-84499377D01*
X154924155Y-84320827D01*
X154924157Y-84320824D01*
X154982927Y-84127087D01*
X154990265Y-84052599D01*
X154453818Y-84052599D01*
X154470000Y-83997488D01*
X154470000Y-83925599D01*
X155502247Y-83925599D01*
X155521612Y-84122208D01*
X155578957Y-84311247D01*
X155578958Y-84311249D01*
X155672084Y-84485477D01*
X155797411Y-84638188D01*
X155950122Y-84763515D01*
X156124350Y-84856641D01*
X156313397Y-84913988D01*
X156510000Y-84933352D01*
X156706603Y-84913988D01*
X156895650Y-84856641D01*
X157069878Y-84763515D01*
X157222589Y-84638188D01*
X157347916Y-84485477D01*
X157441042Y-84311249D01*
X157498389Y-84122202D01*
X157517753Y-83925599D01*
X157498389Y-83728996D01*
X157441042Y-83539949D01*
X157347916Y-83365721D01*
X157222589Y-83213010D01*
X157069878Y-83087683D01*
X156895650Y-82994557D01*
X156895649Y-82994556D01*
X156895648Y-82994556D01*
X156706609Y-82937211D01*
X156706604Y-82937210D01*
X156706603Y-82937210D01*
X156510000Y-82917846D01*
X156313397Y-82937210D01*
X156313395Y-82937210D01*
X156313390Y-82937211D01*
X156124351Y-82994556D01*
X155950121Y-83087683D01*
X155797413Y-83213008D01*
X155797409Y-83213012D01*
X155672084Y-83365720D01*
X155578957Y-83539950D01*
X155521612Y-83728989D01*
X155502247Y-83925599D01*
X154470000Y-83925599D01*
X154470000Y-83853710D01*
X154453818Y-83798599D01*
X154990264Y-83798599D01*
X154982927Y-83724110D01*
X154924157Y-83530373D01*
X154924155Y-83530370D01*
X154828718Y-83351820D01*
X154700282Y-83195320D01*
X154700278Y-83195316D01*
X154543778Y-83066880D01*
X154365228Y-82971443D01*
X154365225Y-82971441D01*
X154171488Y-82912671D01*
X154097000Y-82905334D01*
X154097000Y-83438717D01*
X154005763Y-83425599D01*
X153934237Y-83425599D01*
X153843000Y-83438717D01*
X153843000Y-82905334D01*
X153768511Y-82912671D01*
X153574774Y-82971441D01*
X153574771Y-82971443D01*
X153396221Y-83066880D01*
X153239721Y-83195316D01*
X153239717Y-83195320D01*
X153111281Y-83351820D01*
X153015844Y-83530370D01*
X153015842Y-83530373D01*
X152957072Y-83724110D01*
X152949735Y-83798599D01*
X153486182Y-83798599D01*
X153470000Y-83853710D01*
X153470000Y-83997488D01*
X153486182Y-84052599D01*
X152949735Y-84052599D01*
X152450265Y-84052599D01*
X151913818Y-84052599D01*
X151930000Y-83997488D01*
X151930000Y-83853710D01*
X151913818Y-83798599D01*
X152450264Y-83798599D01*
X152442927Y-83724110D01*
X152384157Y-83530373D01*
X152384155Y-83530370D01*
X152288718Y-83351820D01*
X152160282Y-83195320D01*
X152160278Y-83195316D01*
X152003778Y-83066880D01*
X151825228Y-82971443D01*
X151825225Y-82971441D01*
X151631488Y-82912671D01*
X151557000Y-82905334D01*
X151557000Y-83438717D01*
X151465763Y-83425599D01*
X151394237Y-83425599D01*
X151303000Y-83438717D01*
X151303000Y-82905334D01*
X151228511Y-82912671D01*
X151034774Y-82971441D01*
X151034771Y-82971443D01*
X150856221Y-83066880D01*
X150699721Y-83195316D01*
X150699717Y-83195320D01*
X150571281Y-83351820D01*
X150475844Y-83530370D01*
X150475842Y-83530373D01*
X150417072Y-83724110D01*
X150409735Y-83798599D01*
X150946182Y-83798599D01*
X150930000Y-83853710D01*
X150930000Y-83997488D01*
X150946182Y-84052599D01*
X150409735Y-84052599D01*
X149885244Y-84052599D01*
X149897753Y-83925599D01*
X149878389Y-83728996D01*
X149821042Y-83539949D01*
X149727916Y-83365721D01*
X149602589Y-83213010D01*
X149449878Y-83087683D01*
X149275650Y-82994557D01*
X149275649Y-82994556D01*
X149275648Y-82994556D01*
X149086609Y-82937211D01*
X149086604Y-82937210D01*
X149086603Y-82937210D01*
X148890000Y-82917846D01*
X148693397Y-82937210D01*
X148693395Y-82937210D01*
X148693390Y-82937211D01*
X148504351Y-82994556D01*
X148330121Y-83087683D01*
X148177413Y-83213008D01*
X148177409Y-83213012D01*
X148052084Y-83365720D01*
X147958957Y-83539950D01*
X147901612Y-83728989D01*
X147882247Y-83925599D01*
X147357753Y-83925599D01*
X147338389Y-83728996D01*
X147281042Y-83539949D01*
X147187916Y-83365721D01*
X147062589Y-83213010D01*
X146909878Y-83087683D01*
X146735650Y-82994557D01*
X146735649Y-82994556D01*
X146735648Y-82994556D01*
X146546609Y-82937211D01*
X146546604Y-82937210D01*
X146546603Y-82937210D01*
X146350000Y-82917846D01*
X146153397Y-82937210D01*
X146153395Y-82937210D01*
X146153390Y-82937211D01*
X145964351Y-82994556D01*
X145790121Y-83087683D01*
X145637413Y-83213008D01*
X145637409Y-83213012D01*
X145512084Y-83365720D01*
X145418957Y-83539950D01*
X145361612Y-83728989D01*
X145342247Y-83925599D01*
X144817753Y-83925599D01*
X144798389Y-83728996D01*
X144741042Y-83539949D01*
X144647916Y-83365721D01*
X144522589Y-83213010D01*
X144369878Y-83087683D01*
X144195650Y-82994557D01*
X144195649Y-82994556D01*
X144195648Y-82994556D01*
X144006609Y-82937211D01*
X144006604Y-82937210D01*
X144006603Y-82937210D01*
X143810000Y-82917846D01*
X143613397Y-82937210D01*
X143613395Y-82937210D01*
X143613390Y-82937211D01*
X143424351Y-82994556D01*
X143250121Y-83087683D01*
X143097413Y-83213008D01*
X143097409Y-83213012D01*
X142972084Y-83365720D01*
X142878957Y-83539950D01*
X142821612Y-83728989D01*
X142802247Y-83925599D01*
X141410000Y-83925599D01*
X141410000Y-82465693D01*
X141430565Y-82409192D01*
X141453948Y-82389570D01*
X146770598Y-79320000D01*
X148749884Y-79320000D01*
X148769115Y-79552096D01*
X148769116Y-79552102D01*
X148826286Y-79777860D01*
X148826289Y-79777868D01*
X148897987Y-79941321D01*
X148919840Y-79991141D01*
X148919844Y-79991147D01*
X149047215Y-80186105D01*
X149047216Y-80186107D01*
X149047220Y-80186111D01*
X149204954Y-80357456D01*
X149388740Y-80500502D01*
X149593563Y-80611347D01*
X149813837Y-80686967D01*
X149813839Y-80686967D01*
X149813841Y-80686968D01*
X150043550Y-80725300D01*
X150043554Y-80725300D01*
X150276450Y-80725300D01*
X150506158Y-80686968D01*
X150506158Y-80686967D01*
X150506163Y-80686967D01*
X150726437Y-80611347D01*
X150931260Y-80500502D01*
X151115046Y-80357456D01*
X151272780Y-80186111D01*
X151400160Y-79991141D01*
X151493712Y-79777864D01*
X151550884Y-79552097D01*
X151570116Y-79320000D01*
X151550884Y-79087903D01*
X151550883Y-79087897D01*
X151493713Y-78862139D01*
X151493710Y-78862131D01*
X151400164Y-78648869D01*
X151400160Y-78648859D01*
X151319435Y-78525300D01*
X151272784Y-78453894D01*
X151272783Y-78453892D01*
X151115050Y-78282548D01*
X151115048Y-78282547D01*
X151115046Y-78282544D01*
X150931260Y-78139498D01*
X150726437Y-78028653D01*
X150726433Y-78028651D01*
X150726430Y-78028650D01*
X150506167Y-77953034D01*
X150506158Y-77953031D01*
X150276450Y-77914700D01*
X150276446Y-77914700D01*
X150043554Y-77914700D01*
X150043550Y-77914700D01*
X149813841Y-77953031D01*
X149813832Y-77953034D01*
X149593569Y-78028650D01*
X149388740Y-78139498D01*
X149204949Y-78282548D01*
X149047216Y-78453892D01*
X149047215Y-78453894D01*
X148919844Y-78648852D01*
X148919835Y-78648869D01*
X148826289Y-78862131D01*
X148826286Y-78862139D01*
X148769116Y-79087897D01*
X148769115Y-79087903D01*
X148749884Y-79320000D01*
X146770598Y-79320000D01*
X150116050Y-77388502D01*
X150175263Y-77378062D01*
X150203946Y-77388502D01*
G37*
%TD.AperFunction*%
%TD*%
M02*
