M48
; DRILL file {KiCad 7.0.5} date Fri Jan 26 22:20:07 2024
; FORMAT={-:-/ absolute / inch / decimal}
; #@! TF.CreationDate,2024-01-26T22:20:07-05:00
; #@! TF.GenerationSoftware,Kicad,Pcbnew,7.0.5
; #@! TF.FileFunction,Plated,1,2,PTH
FMAT,2
INCH
; #@! TA.AperFunction,Plated,PTH,ViaDrill
T1C0.0130
; #@! TA.AperFunction,Plated,PTH,ViaDrill
T2C0.0200
; #@! TA.AperFunction,Plated,PTH,ComponentDrill
T3C0.0315
; #@! TA.AperFunction,Plated,PTH,ComponentDrill
T4C0.0394
; #@! TA.AperFunction,Plated,PTH,ComponentDrill
T5C0.0591
%
G90
G05
T1
X5.5969Y-3.4921
X5.5969Y-3.5314
X5.5969Y-3.5708
X5.5969Y-3.6102
X5.5969Y-4.3188
X5.5969Y-4.3582
X5.5969Y-4.3976
X5.6362Y-3.5118
X5.6362Y-3.5511
X5.6362Y-3.5905
X5.6362Y-4.3385
X5.6362Y-4.3779
X5.6756Y-3.2362
X5.6953Y-3.5118
X5.6953Y-3.5905
X5.715Y-4.3385
X5.715Y-4.3779
X5.7543Y-3.2362
X5.7543Y-3.5118
X5.7543Y-3.5905
X5.7543Y-3.7086
X5.7543Y-3.7873
X5.7543Y-3.8661
X5.7543Y-3.9448
X5.7543Y-4.1614
X5.7543Y-4.2401
X5.7543Y-4.6732
X5.7602Y-4.0866
X5.7937Y-4.3385
X5.7937Y-4.3779
X5.8134Y-4.6732
X5.8134Y-4.7322
X5.8331Y-3.1574
X5.8331Y-3.2362
X5.8331Y-4.2401
X5.8724Y-3.5118
X5.8724Y-3.5905
X5.8724Y-3.7086
X5.8724Y-3.7873
X5.8724Y-3.8661
X5.8724Y-3.9448
X5.8724Y-4.1023
X5.8724Y-4.3385
X5.8724Y-4.3779
X5.8724Y-4.6732
X5.9118Y-3.2362
X5.9118Y-4.1614
X5.9315Y-4.1023
X5.9315Y-4.3385
X5.9315Y-4.3779
X5.9315Y-4.6732
X5.9512Y-3.8661
X5.9512Y-3.9448
X5.9906Y-3.1574
X5.9906Y-3.2362
X5.9906Y-3.5118
X5.9906Y-3.5905
X5.9906Y-4.1023
X5.9906Y-4.6732
X6.0102Y-4.3385
X6.0102Y-4.3779
X6.0142Y-4.7312
X6.0299Y-3.7873
X6.0496Y-3.9645
X6.0496Y-4.6732
X6.0693Y-3.2362
X6.0693Y-3.5118
X6.0693Y-3.7086
X6.0815Y-3.5779
X6.1087Y-3.6496
X6.1087Y-3.8661
X6.1087Y-4.6732
X6.122Y-3.9291
X6.148Y-3.2362
X6.148Y-3.5118
X6.148Y-4.181
X6.148Y-4.3779
X6.1874Y-4.3385
X6.1874Y-4.4173
X6.2268Y-3.5118
X6.2268Y-3.5905
X6.2272Y-4.0873
X6.2465Y-4.3385
X6.2465Y-4.4173
X6.2465Y-4.496
X6.2465Y-4.5747
X6.2617Y-4.1653
X6.2661Y-3.3543
X6.2661Y-3.433
X6.3039Y-4.0094
X6.3055Y-4.3385
X6.3055Y-4.4173
X6.3055Y-4.496
X6.3055Y-4.5747
X6.3449Y-3.3543
X6.3449Y-3.6299
X6.3528Y-3.8976
X6.3646Y-4.181
X6.3646Y-4.3385
X6.3646Y-4.4173
X6.3646Y-4.496
X6.4236Y-3.6692
X6.4236Y-3.748
X6.4236Y-4.1023
X6.4236Y-4.2598
X6.4236Y-4.3385
X6.4236Y-4.4173
X6.4236Y-4.496
X6.4827Y-3.7873
X6.4827Y-4.2007
X6.4827Y-4.2598
X6.4827Y-4.3385
X6.4827Y-4.4173
X6.5024Y-3.4724
X6.5024Y-3.5511
X6.5024Y-3.6299
X6.5024Y-3.7086
X6.522Y-4.0236
X6.5417Y-4.2007
X6.5417Y-4.2598
X6.5693Y-3.7615
X6.5693Y-3.8247
X6.5693Y-3.8877
X6.5811Y-3.6692
X6.6008Y-4.2007
X6.6382Y-3.7615
X6.6382Y-3.8247
X6.6382Y-3.8877
T2
X5.6539Y-4.0093
T3
X6.3067Y-3.5381
X6.3854Y-3.5381
X6.5988Y-4.0059
X6.5988Y-4.0846
T4
X5.6618Y-3.3042
X5.6618Y-3.4042
X5.6618Y-4.4781
X5.6618Y-4.5781
X5.7618Y-3.3042
X5.7618Y-3.4042
X5.7618Y-4.4781
X5.7618Y-4.5781
X5.8618Y-3.3042
X5.8618Y-3.4042
X5.8618Y-4.4781
X5.8618Y-4.5781
X5.9618Y-3.3042
X5.9618Y-3.4042
X5.9618Y-4.4781
X5.9618Y-4.5781
X6.0618Y-3.3042
X6.0618Y-3.4042
X6.0618Y-4.4781
X6.0618Y-4.5781
X6.1618Y-3.3042
X6.1618Y-3.4042
X6.1618Y-4.4781
X6.1618Y-4.5781
T5
X5.4669Y-3.4488
X5.4669Y-4.4488
T0
M30
