<?xml version="1.0" standalone="no"?>
<!DOCTYPE svg PUBLIC "-//W3C//DTD SVG 1.1//EN"
"http://www.w3.org/Graphics/SVG/1.1/DTD/svg11.dtd">
<svg width="173.726" height="183.262" viewBox="0 0 3619.29 3817.95" version="1.1"
xmlns="http://www.w3.org/2000/svg"
xmlns:xlink="http://www.w3.org/1999/xlink">
<polyline points="1649.49,1965.59 1649.49,1867.16 1649.94,1862.44 1650.65,1859.19 1654.27,1851.96 1660.02,1846.28 1667.2,1842.57 1673.18,1841.51 1750.05,1841.51 1756.02,1842.57 1763.2,1846.28 1768.95,1851.96 1772.57,1859.18 1773.28,1862.44 1774.26,1870.15 1775.07,1873.45 1776.59,1877.5 1782.28,1879.44 1789.52,1880.36 1879.77,1880.36 1885.21,1879.84 1888.64,1879.02 1892.7,1877.5 1893.36,1876.06 1894.62,1871.95 1896.72,1859.18 1900.33,1851.96 1904.52,1847.62 1907.85,1845.2 1913.27,1842.57 1919.24,1841.51 1984.56,1841.46 1991.61,1842.43 1997.66,1845.21 1999.42,1846.28 2001.91,1848.5 2005.17,1851.96 2008.8,1859.19 2009.51,1862.44 2009.95,1867.16 2009.87,1967.61 2008.8,1973.56 2005.17,1980.79 1999.42,1986.47 1992.24,1990.19 1986.27,1991.24 1919.24,1991.24 1913.26,1990.19 1906.09,1986.47 1900.33,1980.79 1896.72,1973.58 1896.01,1970.31 1895.02,1962.61 1894.21,1959.31 1892.7,1955.25 1887,1953.31 1881.5,1952.52 1789.52,1952.4 1784.07,1952.91 1780.64,1953.74 1776.59,1955.25 1775.93,1956.69 1774.67,1960.8 1772.57,1973.58 1768.95,1980.79 1764.77,1985.13 1761.44,1987.55 1756.02,1990.19 1750.05,1991.25 1675.2,1991.3 1672.82,1991.21 1667.2,1990.19 1660.02,1986.47 1654.27,1980.79 1650.65,1973.57 1649.94,1970.31 1649.49,1965.59" style="stroke:rgb(255,0,0);stroke-width:31.496063;fill:none;stroke-opacity:0.5;stroke-linecap:round;stroke-linejoin:round;;fill:none"/>
<polyline points="1649.49,1965.59 1649.49,1867.16 1649.94,1862.44 1650.65,1859.19 1654.27,1851.96 1660.02,1846.28 1667.2,1842.57 1673.18,1841.51 1750.05,1841.51 1756.02,1842.57 1763.2,1846.28 1768.95,1851.96 1772.57,1859.18 1773.28,1862.44 1774.26,1870.15 1775.07,1873.45 1776.59,1877.5 1782.28,1879.44 1789.52,1880.36 1879.77,1880.36 1885.21,1879.84 1888.64,1879.02 1892.7,1877.5 1893.36,1876.06 1894.62,1871.95 1896.72,1859.18 1900.33,1851.96 1904.52,1847.62 1907.85,1845.2 1913.27,1842.57 1919.24,1841.51 1984.56,1841.46 1991.61,1842.43 1997.66,1845.21 1999.42,1846.28 2001.91,1848.5 2005.17,1851.96 2008.8,1859.19 2009.51,1862.44 2009.95,1867.16 2009.87,1967.61 2008.8,1973.56 2005.17,1980.79 1999.42,1986.47 1992.24,1990.19 1986.27,1991.24 1919.24,1991.24 1913.26,1990.19 1906.09,1986.47 1900.33,1980.79 1896.72,1973.58 1896.01,1970.31 1895.02,1962.61 1894.21,1959.31 1892.7,1955.25 1887,1953.31 1881.5,1952.52 1789.52,1952.4 1784.07,1952.91 1780.64,1953.74 1776.59,1955.25 1775.93,1956.69 1774.67,1960.8 1772.57,1973.58 1768.95,1980.79 1764.77,1985.13 1761.44,1987.55 1756.02,1990.19 1750.05,1991.25 1675.2,1991.3 1672.82,1991.21 1667.2,1990.19 1660.02,1986.47 1654.27,1980.79 1650.65,1973.57 1649.94,1970.31 1649.49,1965.59" style="stroke:rgb(0,0,0);stroke-width:1px;fill:none;stroke-opacity:1;stroke-linecap:round;stroke-linejoin:round;;fill:none"/>
<polyline points="1649.49,1768.74 1649.49,1670.32 1649.94,1665.59 1650.65,1662.34 1654.27,1655.11 1660.02,1649.43 1667.2,1645.72 1673.18,1644.66 1750.05,1644.66 1756.02,1645.72 1763.2,1649.43 1768.95,1655.11 1772.57,1662.33 1773.28,1665.59 1774.26,1673.3 1775.07,1676.6 1776.59,1680.65 1782.29,1682.59 1789.52,1683.51 1879.77,1683.51 1885.21,1682.99 1888.64,1682.17 1892.7,1680.65 1893.36,1679.21 1894.62,1675.1 1896.72,1662.33 1900.33,1655.11 1904.52,1650.77 1907.85,1648.35 1913.27,1645.72 1919.24,1644.66 1984.25,1644.61 1986.62,1644.7 1991.61,1645.58 1997.66,1648.36 1999.42,1649.43 2001.91,1651.64 2005.17,1655.11 2008.8,1662.34 2009.51,1665.59 2009.95,1670.32 2009.87,1770.76 2008.8,1776.71 2005.17,1783.94 1999.42,1789.62 1992.24,1793.34 1986.27,1794.39 1919.24,1794.39 1913.26,1793.34 1906.09,1789.62 1900.33,1783.94 1896.72,1776.73 1896.01,1773.46 1895.02,1765.76 1894.21,1762.45 1892.7,1758.4 1887,1756.46 1879.77,1755.55 1789.52,1755.55 1784.07,1756.06 1780.64,1756.89 1776.59,1758.4 1775.93,1759.84 1774.67,1763.95 1772.57,1776.73 1768.95,1783.94 1764.77,1788.28 1761.44,1790.7 1756.02,1793.34 1750.05,1794.4 1674.88,1794.44 1672.82,1794.36 1667.2,1793.34 1660.02,1789.62 1654.27,1783.94 1650.65,1776.72 1649.94,1773.46 1649.49,1768.74" style="stroke:rgb(255,0,0);stroke-width:31.496063;fill:none;stroke-opacity:0.5;stroke-linecap:round;stroke-linejoin:round;;fill:none"/>
<polyline points="1649.49,1768.74 1649.49,1670.32 1649.94,1665.59 1650.65,1662.34 1654.27,1655.11 1660.02,1649.43 1667.2,1645.72 1673.18,1644.66 1750.05,1644.66 1756.02,1645.72 1763.2,1649.43 1768.95,1655.11 1772.57,1662.33 1773.28,1665.59 1774.26,1673.3 1775.07,1676.6 1776.59,1680.65 1782.29,1682.59 1789.52,1683.51 1879.77,1683.51 1885.21,1682.99 1888.64,1682.17 1892.7,1680.65 1893.36,1679.21 1894.62,1675.1 1896.72,1662.33 1900.33,1655.11 1904.52,1650.77 1907.85,1648.35 1913.27,1645.72 1919.24,1644.66 1984.25,1644.61 1986.62,1644.7 1991.61,1645.58 1997.66,1648.36 1999.42,1649.43 2001.91,1651.64 2005.17,1655.11 2008.8,1662.34 2009.51,1665.59 2009.95,1670.32 2009.87,1770.76 2008.8,1776.71 2005.17,1783.94 1999.42,1789.62 1992.24,1793.34 1986.27,1794.39 1919.24,1794.39 1913.26,1793.34 1906.09,1789.62 1900.33,1783.94 1896.72,1776.73 1896.01,1773.46 1895.02,1765.76 1894.21,1762.45 1892.7,1758.4 1887,1756.46 1879.77,1755.55 1789.52,1755.55 1784.07,1756.06 1780.64,1756.89 1776.59,1758.4 1775.93,1759.84 1774.67,1763.95 1772.57,1776.73 1768.95,1783.94 1764.77,1788.28 1761.44,1790.7 1756.02,1793.34 1750.05,1794.4 1674.88,1794.44 1672.82,1794.36 1667.2,1793.34 1660.02,1789.62 1654.27,1783.94 1650.65,1776.72 1649.94,1773.46 1649.49,1768.74" style="stroke:rgb(0,0,0);stroke-width:1px;fill:none;stroke-opacity:1;stroke-linecap:round;stroke-linejoin:round;;fill:none"/>
<polyline points="2139.65,1965.59 2139.65,1867.16 2140.09,1862.44 2140.81,1859.19 2144.11,1852.52 2148.61,1847.62 2151.94,1845.21 2157.36,1842.57 2162.04,1841.68 2228.34,1841.46 2230.72,1841.55 2236.34,1842.57 2241.75,1845.21 2245.08,1847.62 2249.27,1851.96 2251.55,1856.14 2252.89,1859.19 2253.37,1861.19 2254.56,1873.17 2255.39,1876.6 2256.9,1880.65 2262.6,1882.59 2268.1,1883.38 2400.64,1883.44 2404.62,1883.03 2409.5,1881.7 2411.51,1877.92 2413.02,1875.86 2415,1874.54 2417.32,1874.14 2614.76,1874.15 2616.5,1874.54 2618.47,1875.86 2619.79,1877.83 2620.18,1879.57 2620.18,1959.49 2619.79,1961.22 2618.47,1963.19 2616.5,1964.51 2614.76,1964.9 2416.73,1964.9 2415,1964.51 2413.02,1963.19 2411.81,1961.54 2409.63,1957.22 2406.64,1956.46 2399.4,1955.55 2269.44,1955.55 2265.98,1955.75 2263.28,1956.23 2256.66,1958.16 2255.45,1961.65 2252.89,1973.56 2249.27,1980.79 2246,1984.26 2243.51,1986.47 2236.34,1990.19 2230.36,1991.24 2163.33,1991.24 2157.36,1990.19 2150.18,1986.47 2144.43,1980.79 2140.81,1973.56 2140.09,1970.31 2139.65,1965.59" style="stroke:rgb(255,0,0);stroke-width:31.496063;fill:none;stroke-opacity:0.5;stroke-linecap:round;stroke-linejoin:round;;fill:none"/>
<polyline points="2139.65,1965.59 2139.65,1867.16 2140.09,1862.44 2140.81,1859.19 2144.11,1852.52 2148.61,1847.62 2151.94,1845.21 2157.36,1842.57 2162.04,1841.68 2228.34,1841.46 2230.72,1841.55 2236.34,1842.57 2241.75,1845.21 2245.08,1847.62 2249.27,1851.96 2251.55,1856.14 2252.89,1859.19 2253.37,1861.19 2254.56,1873.17 2255.39,1876.6 2256.9,1880.65 2262.6,1882.59 2268.1,1883.38 2400.64,1883.44 2404.62,1883.03 2409.5,1881.7 2411.51,1877.92 2413.02,1875.86 2415,1874.54 2417.32,1874.14 2614.76,1874.15 2616.5,1874.54 2618.47,1875.86 2619.79,1877.83 2620.18,1879.57 2620.18,1959.49 2619.79,1961.22 2618.47,1963.19 2616.5,1964.51 2614.76,1964.9 2416.73,1964.9 2415,1964.51 2413.02,1963.19 2411.81,1961.54 2409.63,1957.22 2406.64,1956.46 2399.4,1955.55 2269.44,1955.55 2265.98,1955.75 2263.28,1956.23 2256.66,1958.16 2255.45,1961.65 2252.89,1973.56 2249.27,1980.79 2246,1984.26 2243.51,1986.47 2236.34,1990.19 2230.36,1991.24 2163.33,1991.24 2157.36,1990.19 2150.18,1986.47 2144.43,1980.79 2140.81,1973.56 2140.09,1970.31 2139.65,1965.59" style="stroke:rgb(0,0,0);stroke-width:1px;fill:none;stroke-opacity:1;stroke-linecap:round;stroke-linejoin:round;;fill:none"/>
<polyline points="2139.65,1768.74 2139.65,1670.32 2140.09,1665.59 2140.81,1662.34 2141.6,1660.43 2144.43,1655.11 2150.18,1649.43 2153.05,1647.75 2157.99,1645.58 2163.33,1644.66 2228.34,1644.61 2230.72,1644.7 2236.34,1645.72 2243.51,1649.43 2249.27,1655.11 2252.89,1662.33 2253.59,1665.59 2254.58,1673.3 2255.39,1676.6 2256.9,1680.65 2262.6,1682.59 2268.1,1683.38 2400.64,1683.44 2404.62,1683.03 2409.5,1681.7 2411.51,1677.92 2413.02,1675.86 2415,1674.54 2417.32,1674.14 2614.17,1674.14 2616.5,1674.54 2618.47,1675.86 2619.79,1677.83 2620.18,1679.57 2620.18,1759.49 2619.79,1761.22 2618.47,1763.19 2616.5,1764.51 2614.76,1764.9 2417.32,1764.92 2415,1764.51 2413.02,1763.19 2411.81,1761.54 2409.63,1757.22 2406.64,1756.46 2399.4,1755.55 2268.54,1755.62 2264.39,1756.06 2260.96,1756.89 2256.9,1758.4 2254.99,1763.95 2252.89,1776.73 2249.27,1783.94 2246.01,1787.41 2243.51,1789.62 2236.34,1793.34 2230.72,1794.36 2228.34,1794.44 2163.33,1794.39 2157.36,1793.34 2150.18,1789.62 2144.43,1783.94 2140.81,1776.71 2140.09,1773.46 2139.65,1768.74" style="stroke:rgb(255,0,0);stroke-width:31.496063;fill:none;stroke-opacity:0.5;stroke-linecap:round;stroke-linejoin:round;;fill:none"/>
<polyline points="2139.65,1768.74 2139.65,1670.32 2140.09,1665.59 2140.81,1662.34 2141.6,1660.43 2144.43,1655.11 2150.18,1649.43 2153.05,1647.75 2157.99,1645.58 2163.33,1644.66 2228.34,1644.61 2230.72,1644.7 2236.34,1645.72 2243.51,1649.43 2249.27,1655.11 2252.89,1662.33 2253.59,1665.59 2254.58,1673.3 2255.39,1676.6 2256.9,1680.65 2262.6,1682.59 2268.1,1683.38 2400.64,1683.44 2404.62,1683.03 2409.5,1681.7 2411.51,1677.92 2413.02,1675.86 2415,1674.54 2417.32,1674.14 2614.17,1674.14 2616.5,1674.54 2618.47,1675.86 2619.79,1677.83 2620.18,1679.57 2620.18,1759.49 2619.79,1761.22 2618.47,1763.19 2616.5,1764.51 2614.76,1764.9 2417.32,1764.92 2415,1764.51 2413.02,1763.19 2411.81,1761.54 2409.63,1757.22 2406.64,1756.46 2399.4,1755.55 2268.54,1755.62 2264.39,1756.06 2260.96,1756.89 2256.9,1758.4 2254.99,1763.95 2252.89,1776.73 2249.27,1783.94 2246.01,1787.41 2243.51,1789.62 2236.34,1793.34 2230.72,1794.36 2228.34,1794.44 2163.33,1794.39 2157.36,1793.34 2150.18,1789.62 2144.43,1783.94 2140.81,1776.71 2140.09,1773.46 2139.65,1768.74" style="stroke:rgb(0,0,0);stroke-width:1px;fill:none;stroke-opacity:1;stroke-linecap:round;stroke-linejoin:round;;fill:none"/>
</svg>
