<?xml version="1.0" standalone="no"?>
<!DOCTYPE svg PUBLIC "-//W3C//DTD SVG 1.1//EN"
"http://www.w3.org/Graphics/SVG/1.1/DTD/svg11.dtd">
<svg width="171.458" height="180.994" viewBox="0 0 3572.05 3770.71" version="1.1"
xmlns="http://www.w3.org/2000/svg"
xmlns:xlink="http://www.w3.org/1999/xlink">
<polyline points="1625.87,1941.97 1626.31,1946.69 1627.03,1949.94 1630.65,1957.17 1636.4,1962.85 1643.58,1966.57 1649.2,1967.59 1651.57,1967.67 1726.42,1967.62 1732.4,1966.57 1737.82,1963.93 1741.15,1961.51 1745.33,1957.17 1748.95,1949.95 1751.05,1937.18 1752.3,1933.07 1752.96,1931.63 1757.02,1930.11 1760.45,1929.29 1765.89,1928.78 1857.88,1928.9 1863.38,1929.69 1869.08,1931.63 1870.59,1935.68 1871.4,1938.99 1872.38,1946.69 1873.09,1949.95 1876.71,1957.17 1882.46,1962.85 1889.64,1966.57 1895.62,1967.62 1962.65,1967.62 1968.62,1966.57 1975.8,1962.85 1981.55,1957.17 1985.17,1949.94 1986.24,1943.98 1986.33,1843.54 1985.89,1838.82 1985.17,1835.57 1981.55,1828.34 1978.29,1824.87 1975.8,1822.66 1974.04,1821.58 1967.99,1818.81 1960.94,1817.84 1895.62,1817.89 1889.64,1818.94 1884.23,1821.58 1880.9,1824 1876.71,1828.34 1873.09,1835.56 1870.99,1848.33 1869.74,1852.44 1869.08,1853.88 1865.02,1855.4 1861.59,1856.22 1856.15,1856.74 1765.89,1856.74 1758.66,1855.82 1752.97,1853.88 1751.45,1849.83 1750.64,1846.53 1749.66,1838.82 1748.95,1835.56 1745.33,1828.34 1739.58,1822.66 1732.4,1818.94 1726.43,1817.89 1649.55,1817.89 1643.58,1818.94 1636.4,1822.66 1630.65,1828.34 1627.03,1835.57 1626.31,1838.82 1625.87,1843.54 1625.87,1941.97" style="stroke:rgb(255,0,0);stroke-width:47.244094;fill:none;stroke-opacity:0.5;stroke-linecap:round;stroke-linejoin:round;;fill:none"/>
<polyline points="1625.87,1941.97 1626.31,1946.69 1627.03,1949.94 1630.65,1957.17 1636.4,1962.85 1643.58,1966.57 1649.2,1967.59 1651.57,1967.67 1726.42,1967.62 1732.4,1966.57 1737.82,1963.93 1741.15,1961.51 1745.33,1957.17 1748.95,1949.95 1751.05,1937.18 1752.3,1933.07 1752.96,1931.63 1757.02,1930.11 1760.45,1929.29 1765.89,1928.78 1857.88,1928.9 1863.38,1929.69 1869.08,1931.63 1870.59,1935.68 1871.4,1938.99 1872.38,1946.69 1873.09,1949.95 1876.71,1957.17 1882.46,1962.85 1889.64,1966.57 1895.62,1967.62 1962.65,1967.62 1968.62,1966.57 1975.8,1962.85 1981.55,1957.17 1985.17,1949.94 1986.24,1943.98 1986.33,1843.54 1985.89,1838.82 1985.17,1835.57 1981.55,1828.34 1978.29,1824.87 1975.8,1822.66 1974.04,1821.58 1967.99,1818.81 1960.94,1817.84 1895.62,1817.89 1889.64,1818.94 1884.23,1821.58 1880.9,1824 1876.71,1828.34 1873.09,1835.56 1870.99,1848.33 1869.74,1852.44 1869.08,1853.88 1865.02,1855.4 1861.59,1856.22 1856.15,1856.74 1765.89,1856.74 1758.66,1855.82 1752.97,1853.88 1751.45,1849.83 1750.64,1846.53 1749.66,1838.82 1748.95,1835.56 1745.33,1828.34 1739.58,1822.66 1732.4,1818.94 1726.43,1817.89 1649.55,1817.89 1643.58,1818.94 1636.4,1822.66 1630.65,1828.34 1627.03,1835.57 1626.31,1838.82 1625.87,1843.54 1625.87,1941.97" style="stroke:rgb(0,0,0);stroke-width:1px;fill:none;stroke-opacity:1;stroke-linecap:round;stroke-linejoin:round;;fill:none"/>
<polyline points="1625.87,1745.12 1626.31,1749.84 1627.03,1753.09 1630.65,1760.32 1636.4,1766 1643.58,1769.72 1649.2,1770.74 1651.26,1770.82 1726.43,1770.77 1732.4,1769.72 1737.82,1767.08 1741.15,1764.66 1745.33,1760.32 1748.95,1753.1 1751.05,1740.33 1752.3,1736.22 1752.96,1734.78 1757.02,1733.26 1760.45,1732.44 1765.89,1731.92 1856.15,1731.92 1863.38,1732.84 1869.08,1734.78 1870.59,1738.83 1871.4,1742.14 1872.38,1749.84 1873.09,1753.1 1876.71,1760.32 1882.46,1766 1889.64,1769.72 1895.62,1770.77 1962.65,1770.77 1968.62,1769.72 1975.8,1766 1981.55,1760.32 1985.17,1753.09 1986.24,1747.13 1986.33,1646.69 1985.89,1641.97 1985.17,1638.72 1981.55,1631.49 1978.29,1628.02 1975.8,1625.81 1974.04,1624.73 1967.99,1621.96 1963,1621.07 1960.63,1620.99 1895.62,1621.04 1889.64,1622.09 1884.23,1624.73 1880.9,1627.15 1876.71,1631.49 1873.09,1638.71 1870.99,1651.48 1869.74,1655.59 1869.08,1657.03 1865.02,1658.55 1861.59,1659.37 1856.15,1659.89 1765.89,1659.89 1758.66,1658.97 1752.97,1657.03 1751.45,1652.98 1750.64,1649.67 1749.66,1641.97 1748.95,1638.71 1745.33,1631.49 1739.58,1625.81 1732.4,1622.09 1726.43,1621.04 1649.56,1621.04 1643.58,1622.09 1636.4,1625.81 1630.65,1631.49 1627.03,1638.72 1626.31,1641.97 1625.87,1646.69 1625.87,1745.12" style="stroke:rgb(255,0,0);stroke-width:47.244094;fill:none;stroke-opacity:0.5;stroke-linecap:round;stroke-linejoin:round;;fill:none"/>
<polyline points="1625.87,1745.12 1626.31,1749.84 1627.03,1753.09 1630.65,1760.32 1636.4,1766 1643.58,1769.72 1649.2,1770.74 1651.26,1770.82 1726.43,1770.77 1732.4,1769.72 1737.82,1767.08 1741.15,1764.66 1745.33,1760.32 1748.95,1753.1 1751.05,1740.33 1752.3,1736.22 1752.96,1734.78 1757.02,1733.26 1760.45,1732.44 1765.89,1731.92 1856.15,1731.92 1863.38,1732.84 1869.08,1734.78 1870.59,1738.83 1871.4,1742.14 1872.38,1749.84 1873.09,1753.1 1876.71,1760.32 1882.46,1766 1889.64,1769.72 1895.62,1770.77 1962.65,1770.77 1968.62,1769.72 1975.8,1766 1981.55,1760.32 1985.17,1753.09 1986.24,1747.13 1986.33,1646.69 1985.89,1641.97 1985.17,1638.72 1981.55,1631.49 1978.29,1628.02 1975.8,1625.81 1974.04,1624.73 1967.99,1621.96 1963,1621.07 1960.63,1620.99 1895.62,1621.04 1889.64,1622.09 1884.23,1624.73 1880.9,1627.15 1876.71,1631.49 1873.09,1638.71 1870.99,1651.48 1869.74,1655.59 1869.08,1657.03 1865.02,1658.55 1861.59,1659.37 1856.15,1659.89 1765.89,1659.89 1758.66,1658.97 1752.97,1657.03 1751.45,1652.98 1750.64,1649.67 1749.66,1641.97 1748.95,1638.71 1745.33,1631.49 1739.58,1625.81 1732.4,1622.09 1726.43,1621.04 1649.56,1621.04 1643.58,1622.09 1636.4,1625.81 1630.65,1631.49 1627.03,1638.72 1626.31,1641.97 1625.87,1646.69 1625.87,1745.12" style="stroke:rgb(0,0,0);stroke-width:1px;fill:none;stroke-opacity:1;stroke-linecap:round;stroke-linejoin:round;;fill:none"/>
<polyline points="2116.02,1941.97 2116.47,1946.69 2117.18,1949.94 2120.81,1957.17 2126.56,1962.85 2133.74,1966.57 2139.71,1967.62 2206.74,1967.62 2212.71,1966.57 2219.89,1962.85 2222.38,1960.64 2225.65,1957.17 2229.27,1949.94 2231.83,1938.03 2233.04,1934.54 2239.66,1932.61 2242.36,1932.13 2245.82,1931.93 2375.78,1931.93 2383.02,1932.84 2386.01,1933.6 2388.19,1937.92 2389.4,1939.57 2391.37,1940.89 2393.11,1941.28 2591.14,1941.28 2592.87,1940.89 2594.85,1939.57 2596.16,1937.6 2596.55,1935.87 2596.55,1855.94 2596.16,1854.21 2594.85,1852.24 2592.87,1850.92 2591.14,1850.53 2393.7,1850.52 2391.37,1850.92 2389.4,1852.24 2387.89,1854.3 2385.87,1858.08 2381,1859.41 2377.02,1859.82 2244.48,1859.76 2238.98,1858.97 2233.28,1857.03 2231.77,1852.98 2230.94,1849.55 2229.75,1837.57 2229.27,1835.57 2227.93,1832.51 2225.65,1828.34 2221.46,1824 2218.13,1821.58 2212.71,1818.94 2207.1,1817.92 2204.71,1817.84 2138.42,1818.06 2133.74,1818.94 2128.32,1821.58 2124.99,1824 2120.48,1828.9 2117.18,1835.57 2116.47,1838.82 2116.02,1843.54 2116.02,1941.97" style="stroke:rgb(255,0,0);stroke-width:47.244094;fill:none;stroke-opacity:0.5;stroke-linecap:round;stroke-linejoin:round;;fill:none"/>
<polyline points="2116.02,1941.97 2116.47,1946.69 2117.18,1949.94 2120.81,1957.17 2126.56,1962.85 2133.74,1966.57 2139.71,1967.62 2206.74,1967.62 2212.71,1966.57 2219.89,1962.85 2222.38,1960.64 2225.65,1957.17 2229.27,1949.94 2231.83,1938.03 2233.04,1934.54 2239.66,1932.61 2242.36,1932.13 2245.82,1931.93 2375.78,1931.93 2383.02,1932.84 2386.01,1933.6 2388.19,1937.92 2389.4,1939.57 2391.37,1940.89 2393.11,1941.28 2591.14,1941.28 2592.87,1940.89 2594.85,1939.57 2596.16,1937.6 2596.55,1935.87 2596.55,1855.94 2596.16,1854.21 2594.85,1852.24 2592.87,1850.92 2591.14,1850.53 2393.7,1850.52 2391.37,1850.92 2389.4,1852.24 2387.89,1854.3 2385.87,1858.08 2381,1859.41 2377.02,1859.82 2244.48,1859.76 2238.98,1858.97 2233.28,1857.03 2231.77,1852.98 2230.94,1849.55 2229.75,1837.57 2229.27,1835.57 2227.93,1832.51 2225.65,1828.34 2221.46,1824 2218.13,1821.58 2212.71,1818.94 2207.1,1817.92 2204.71,1817.84 2138.42,1818.06 2133.74,1818.94 2128.32,1821.58 2124.99,1824 2120.48,1828.9 2117.18,1835.57 2116.47,1838.82 2116.02,1843.54 2116.02,1941.97" style="stroke:rgb(0,0,0);stroke-width:1px;fill:none;stroke-opacity:1;stroke-linecap:round;stroke-linejoin:round;;fill:none"/>
<polyline points="2116.02,1745.12 2116.47,1749.84 2117.18,1753.09 2120.81,1760.32 2126.56,1766 2133.74,1769.72 2139.71,1770.77 2204.71,1770.82 2207.1,1770.74 2212.71,1769.72 2219.89,1766 2222.38,1763.78 2225.65,1760.32 2229.26,1753.1 2231.36,1740.33 2233.28,1734.78 2237.34,1733.26 2240.77,1732.44 2244.92,1731.99 2375.78,1731.92 2383.02,1732.84 2386.01,1733.6 2388.19,1737.92 2389.4,1739.57 2391.37,1740.89 2393.7,1741.3 2591.14,1741.28 2592.87,1740.89 2594.85,1739.57 2596.16,1737.6 2596.55,1735.87 2596.55,1655.94 2596.16,1654.21 2594.85,1652.24 2592.87,1650.92 2590.55,1650.51 2393.7,1650.51 2391.37,1650.92 2389.4,1652.24 2387.89,1654.3 2385.87,1658.08 2381,1659.41 2377.02,1659.82 2244.48,1659.76 2238.98,1658.97 2233.28,1657.03 2231.77,1652.98 2230.96,1649.67 2229.97,1641.97 2229.26,1638.71 2225.65,1631.49 2219.89,1625.81 2212.71,1622.09 2207.1,1621.07 2204.71,1620.99 2139.71,1621.04 2134.37,1621.96 2129.43,1624.13 2126.56,1625.81 2120.81,1631.49 2117.97,1636.81 2117.18,1638.72 2116.47,1641.97 2116.02,1646.69 2116.02,1745.12" style="stroke:rgb(255,0,0);stroke-width:47.244094;fill:none;stroke-opacity:0.5;stroke-linecap:round;stroke-linejoin:round;;fill:none"/>
<polyline points="2116.02,1745.12 2116.47,1749.84 2117.18,1753.09 2120.81,1760.32 2126.56,1766 2133.74,1769.72 2139.71,1770.77 2204.71,1770.82 2207.1,1770.74 2212.71,1769.72 2219.89,1766 2222.38,1763.78 2225.65,1760.32 2229.26,1753.1 2231.36,1740.33 2233.28,1734.78 2237.34,1733.26 2240.77,1732.44 2244.92,1731.99 2375.78,1731.92 2383.02,1732.84 2386.01,1733.6 2388.19,1737.92 2389.4,1739.57 2391.37,1740.89 2393.7,1741.3 2591.14,1741.28 2592.87,1740.89 2594.85,1739.57 2596.16,1737.6 2596.55,1735.87 2596.55,1655.94 2596.16,1654.21 2594.85,1652.24 2592.87,1650.92 2590.55,1650.51 2393.7,1650.51 2391.37,1650.92 2389.4,1652.24 2387.89,1654.3 2385.87,1658.08 2381,1659.41 2377.02,1659.82 2244.48,1659.76 2238.98,1658.97 2233.28,1657.03 2231.77,1652.98 2230.96,1649.67 2229.97,1641.97 2229.26,1638.71 2225.65,1631.49 2219.89,1625.81 2212.71,1622.09 2207.1,1621.07 2204.71,1620.99 2139.71,1621.04 2134.37,1621.96 2129.43,1624.13 2126.56,1625.81 2120.81,1631.49 2117.97,1636.81 2117.18,1638.72 2116.47,1641.97 2116.02,1646.69 2116.02,1745.12" style="stroke:rgb(0,0,0);stroke-width:1px;fill:none;stroke-opacity:1;stroke-linecap:round;stroke-linejoin:round;;fill:none"/>
</svg>
