%TF.GenerationSoftware,KiCad,Pcbnew,8.0.2-1*%
%TF.CreationDate,2024-05-06T20:00:43-04:00*%
%TF.ProjectId,LED_INDICATOR,4c45445f-494e-4444-9943-41544f522e6b,rev?*%
%TF.SameCoordinates,Original*%
%TF.FileFunction,Profile,NP*%
%FSLAX46Y46*%
G04 Gerber Fmt 4.6, Leading zero omitted, Abs format (unit mm)*
G04 Created by KiCad (PCBNEW 8.0.2-1) date 2024-05-06 20:00:43*
%MOMM*%
%LPD*%
G01*
G04 APERTURE LIST*
%TA.AperFunction,Profile*%
%ADD10C,0.100000*%
%TD*%
G04 APERTURE END LIST*
D10*
X130160000Y-88557605D02*
X130160000Y-111651615D01*
X169260000Y-110496915D02*
G75*
G02*
X167060000Y-110496915I-1100000J0D01*
G01*
X167060000Y-110496915D02*
G75*
G02*
X169260000Y-110496915I1100000J0D01*
G01*
X130160000Y-111651615D02*
X150160000Y-123198621D01*
X169260000Y-89712305D02*
G75*
G02*
X167060000Y-89712305I-1100000J0D01*
G01*
X167060000Y-89712305D02*
G75*
G02*
X169260000Y-89712305I1100000J0D01*
G01*
X133260000Y-89712305D02*
G75*
G02*
X131060000Y-89712305I-1100000J0D01*
G01*
X131060000Y-89712305D02*
G75*
G02*
X133260000Y-89712305I1100000J0D01*
G01*
X150160000Y-77010599D02*
X130160000Y-88557605D01*
X170160000Y-88557605D02*
X150160000Y-77010599D01*
X151260000Y-79320000D02*
G75*
G02*
X149060000Y-79320000I-1100000J0D01*
G01*
X149060000Y-79320000D02*
G75*
G02*
X151260000Y-79320000I1100000J0D01*
G01*
X151260000Y-120889220D02*
G75*
G02*
X149060000Y-120889220I-1100000J0D01*
G01*
X149060000Y-120889220D02*
G75*
G02*
X151260000Y-120889220I1100000J0D01*
G01*
X170160000Y-111651615D02*
X170160000Y-88557605D01*
X150160000Y-123198621D02*
X170160000Y-111651615D01*
X133260000Y-110496915D02*
G75*
G02*
X131060000Y-110496915I-1100000J0D01*
G01*
X131060000Y-110496915D02*
G75*
G02*
X133260000Y-110496915I1100000J0D01*
G01*
X163760000Y-94198621D02*
X173825000Y-94198621D01*
X173825000Y-106198621D01*
X163760000Y-106198621D01*
X163760000Y-94198621D01*
M02*
