<?xml version="1.0" standalone="no"?>
<!DOCTYPE svg PUBLIC "-//W3C//DTD SVG 1.1//EN"
"http://www.w3.org/Graphics/SVG/1.1/DTD/svg11.dtd">
<svg width="171.458" height="180.994" viewBox="0 0 3572.05 3770.71" version="1.1"
xmlns="http://www.w3.org/2000/svg"
xmlns:xlink="http://www.w3.org/1999/xlink">
<g fill-rule="evenodd"><path d="M 90.9682,2775.05 L 90.9682,995.656 L 92.5182,990.378 L 95.8502,987.202 L 1636.85,97.5044 L 1642.2,96.2084 L 1646.61,97.5044 L 3187.61,987.202 L 3191.41,991.182 L 3192.49,995.656 L 3192.49,1386.51 L 3190.94,1391.79 L 3186.79,1395.39 L 3182.73,1396.28 L 2709.43,1396.28 L 2703.32,1397.91 L 2697.84,1401.08 L 2693.36,1405.56 L 2690.2,1411.04 L 2688.56,1417.15 L 2688.56,2368.36 L 2690.2,2374.48 L 2693.36,2379.96 L 2697.84,2384.43 L 2703.32,2387.6 L 2709.43,2389.24 L 3182.73,2389.24 L 3188.01,2390.79 L 3191.61,2394.94 L 3192.49,2399 L 3192.49,2775.05 L 3190.94,2780.33 L 3187.61,2783.51 L 1646.61,3673.2 L 1641.27,3674.5 L 1636.85,3673.2 L 95.8502,2783.51 L 92.0522,2779.52 L 90.9682,2775.05M 113.376,2703.65 L 114.89,2721.92 L 119.392,2739.7 L 126.758,2756.49 L 136.788,2771.84 L 149.208,2785.33 L 163.678,2796.6 L 179.806,2805.33 L 197.15,2811.28 L 215.24,2814.3 L 233.578,2814.3 L 251.666,2811.28 L 269.01,2805.33 L 285.138,2796.6 L 299.608,2785.33 L 312.028,2771.84 L 322.058,2756.49 L 329.424,2739.7 L 333.926,2721.92 L 335.44,2703.65 L 333.926,2685.37 L 329.424,2667.59 L 322.058,2650.8 L 312.028,2635.45 L 310.616,2633.91 L 299.608,2621.96 L 285.138,2610.69 L 269.008,2601.96 L 251.666,2596.01 L 233.578,2592.99 L 215.24,2592.99 L 197.15,2596.01 L 179.806,2601.96 L 163.678,2610.69 L 149.208,2621.96 L 136.788,2635.45 L 126.758,2650.8 L 119.392,2667.59 L 114.89,2685.37 L 113.376,2703.65M 113.376,1067.06 L 114.89,1085.34 L 119.392,1103.11 L 126.758,1119.91 L 136.788,1135.26 L 149.208,1148.75 L 163.678,1160.01 L 179.806,1168.74 L 197.15,1174.7 L 215.24,1177.72 L 233.578,1177.72 L 251.666,1174.7 L 269.01,1168.74 L 285.138,1160.01 L 299.608,1148.75 L 312.028,1135.26 L 322.058,1119.91 L 329.424,1103.11 L 333.926,1085.34 L 335.44,1067.06 L 333.926,1048.79 L 329.424,1031.01 L 322.058,1014.22 L 312.028,998.864 L 304.958,991.182 L 299.608,985.372 L 285.138,974.11 L 269.008,965.38 L 251.666,959.426 L 233.578,956.408 L 215.24,956.408 L 197.15,959.426 L 179.806,965.382 L 163.678,974.11 L 149.208,985.372 L 136.788,998.864 L 126.758,1014.22 L 119.392,1031.01 L 114.89,1048.79 L 113.376,1067.06M 1358.27,1945.9 L 1359.09,1953.99 L 1363.44,1967.1 L 1370.68,1978.85 L 1380.44,1988.61 L 1392.19,1995.86 L 1405.3,2000.2 L 1413.39,2001.02 L 1434.05,2001.02 L 1434.05,1961.66 L 1417.32,1961.66 L 1415.27,1961.55 L 1411.24,1960.69 L 1407.48,1959.02 L 1404.15,1956.6 L 1401.4,1953.54 L 1399.34,1949.98 L 1398.07,1946.06 L 1397.64,1941.97 L 1397.64,1912.44 L 1358.27,1912.44 L 1358.27,1945.9M 1358.27,1873.07 L 1397.64,1873.07 L 1397.64,1843.55 L 1398.07,1839.45 L 1399.34,1835.54 L 1401.4,1831.97 L 1404.15,1828.92 L 1407.48,1826.5 L 1411.24,1824.82 L 1415.27,1823.97 L 1417.32,1823.86 L 1434.05,1823.86 L 1434.05,1764.8 L 1417.32,1764.8 L 1415.27,1764.7 L 1411.24,1763.84 L 1407.48,1762.17 L 1404.15,1759.75 L 1401.4,1756.69 L 1399.34,1753.13 L 1398.07,1749.21 L 1397.64,1745.12 L 1397.64,1715.59 L 1358.27,1715.59 L 1358.27,1749.05 L 1359.09,1757.14 L 1363.44,1770.25 L 1370.68,1782 L 1376.11,1787.43 L 1378.75,1792.26 L 1378.36,1797.74 L 1376.11,1801.24 L 1370.68,1806.67 L 1363.44,1818.42 L 1359.09,1831.52 L 1358.27,1839.61 L 1358.27,1873.07M 1358.27,1676.22 L 1397.64,1676.22 L 1397.64,1646.69 L 1398.07,1642.6 L 1399.34,1638.69 L 1401.4,1635.12 L 1404.15,1632.07 L 1407.48,1629.65 L 1411.24,1627.97 L 1415.27,1627.12 L 1417.32,1627.01 L 1434.05,1627.01 L 1434.05,1587.64 L 1413.39,1587.64 L 1405.3,1588.46 L 1392.19,1592.81 L 1380.44,1600.05 L 1370.68,1609.82 L 1363.44,1621.57 L 1359.09,1634.67 L 1358.27,1642.76 L 1358.27,1676.22M 1473.42,1961.66 L 1473.42,2001.02 L 1494.09,2001.02 L 1502.18,2000.2 L 1515.28,1995.86 L 1527.03,1988.61 L 1536.8,1978.85 L 1544.04,1967.1 L 1548.38,1953.99 L 1549.21,1945.9 L 1549.21,1912.44 L 1509.84,1912.44 L 1509.84,1941.97 L 1509.41,1946.06 L 1508.14,1949.98 L 1506.08,1953.54 L 1503.33,1956.6 L 1500,1959.02 L 1496.24,1960.69 L 1492.22,1961.55 L 1490.16,1961.66 L 1473.42,1961.66M 1473.42,1823.86 L 1490.16,1823.86 L 1492.22,1823.97 L 1496.24,1824.82 L 1500,1826.5 L 1503.33,1828.92 L 1506.08,1831.97 L 1508.14,1835.54 L 1509.41,1839.45 L 1509.84,1843.55 L 1509.84,1873.07 L 1549.21,1873.07 L 1549.21,1839.61 L 1548.38,1831.52 L 1544.04,1818.42 L 1536.8,1806.67 L 1531.36,1801.24 L 1528.73,1796.41 L 1529.12,1790.92 L 1531.36,1787.43 L 1536.8,1782 L 1544.04,1770.25 L 1548.38,1757.14 L 1549.21,1749.05 L 1549.21,1715.59 L 1509.84,1715.59 L 1509.84,1745.12 L 1509.41,1749.21 L 1508.14,1753.13 L 1506.08,1756.69 L 1503.33,1759.75 L 1500,1762.17 L 1496.24,1763.84 L 1492.22,1764.7 L 1490.16,1764.8 L 1473.42,1764.8 L 1473.42,1823.86M 1473.42,1627.01 L 1490.16,1627.01 L 1492.22,1627.12 L 1496.24,1627.97 L 1500,1629.65 L 1503.33,1632.07 L 1506.08,1635.12 L 1508.14,1638.69 L 1509.41,1642.6 L 1509.84,1646.69 L 1509.84,1676.22 L 1549.21,1676.22 L 1549.21,1642.76 L 1548.38,1634.67 L 1544.04,1621.57 L 1536.8,1609.82 L 1527.03,1600.05 L 1515.28,1592.81 L 1502.18,1588.46 L 1494.09,1587.64 L 1473.42,1587.64 L 1473.42,1627.01M 1530.7,3521.94 L 1532.21,3540.21 L 1536.71,3557.99 L 1544.08,3574.78 L 1554.11,3590.13 L 1566.53,3603.63 L 1581,3614.89 L 1597.13,3623.62 L 1614.47,3629.57 L 1632.56,3632.59 L 1650.9,3632.59 L 1668.99,3629.57 L 1686.33,3623.62 L 1702.46,3614.89 L 1716.93,3603.63 L 1729.35,3590.13 L 1739.38,3574.78 L 1746.75,3557.99 L 1751.25,3540.21 L 1752.76,3521.94 L 1751.25,3503.66 L 1746.75,3485.88 L 1739.38,3469.09 L 1729.35,3453.74 L 1727.94,3452.21 L 1716.93,3440.25 L 1702.46,3428.98 L 1686.33,3420.26 L 1668.99,3414.3 L 1650.9,3411.28 L 1632.56,3411.28 L 1614.47,3414.3 L 1597.13,3420.26 L 1581,3428.98 L 1566.53,3440.25 L 1554.11,3453.74 L 1544.08,3469.09 L 1536.71,3485.88 L 1532.21,3503.66 L 1530.7,3521.94M 1530.7,248.77 L 1532.21,267.046 L 1536.71,284.822 L 1544.08,301.616 L 1554.11,316.968 L 1566.53,330.46 L 1581,341.722 L 1597.13,350.452 L 1614.47,356.406 L 1632.56,359.424 L 1650.9,359.424 L 1668.99,356.406 L 1686.33,350.452 L 1702.46,341.724 L 1716.93,330.46 L 1729.35,316.968 L 1739.38,301.616 L 1746.75,284.822 L 1751.25,267.046 L 1752.76,248.77 L 1751.25,230.494 L 1746.75,212.718 L 1739.38,195.924 L 1729.35,180.572 L 1727.94,179.038 L 1716.93,167.08 L 1702.46,155.818 L 1686.33,147.09 L 1668.99,141.136 L 1650.9,138.116 L 1632.56,138.116 L 1614.47,141.136 L 1597.13,147.09 L 1581,155.818 L 1566.53,167.08 L 1554.11,180.572 L 1544.08,195.924 L 1536.71,212.718 L 1532.21,230.496 L 1530.7,248.77M 1619.85,1944.47 L 1621.03,1951.89 L 1625.59,1960.85 L 1632.69,1967.95 L 1641.65,1972.52 L 1649.08,1973.69 L 1726.9,1973.69 L 1734.33,1972.52 L 1743.29,1967.95 L 1750.39,1960.85 L 1754.96,1951.89 L 1756.16,1944.08 L 1757.68,1939.28 L 1761.84,1935.68 L 1765.9,1934.8 L 1856.15,1934.8 L 1861.43,1936.35 L 1865.03,1940.5 L 1865.88,1944.08 L 1867.09,1951.89 L 1871.65,1960.85 L 1878.76,1967.95 L 1887.71,1972.52 L 1895.14,1973.69 L 1963.13,1973.69 L 1970.55,1972.52 L 1979.51,1967.95 L 1986.61,1960.85 L 1991.18,1951.89 L 1992.35,1944.47 L 1992.35,1841.05 L 1991.18,1833.62 L 1986.61,1824.66 L 1979.51,1817.56 L 1970.55,1813 L 1963.13,1811.82 L 1895.14,1811.82 L 1887.71,1813 L 1878.76,1817.56 L 1871.65,1824.66 L 1867.09,1833.62 L 1865.88,1841.43 L 1864.36,1846.23 L 1860.2,1849.83 L 1856.15,1850.72 L 1765.9,1850.72 L 1760.62,1849.17 L 1757.01,1845.01 L 1756.16,1841.43 L 1754.96,1833.62 L 1750.39,1824.66 L 1743.29,1817.56 L 1734.33,1813 L 1726.91,1811.82 L 1649.08,1811.82 L 1641.65,1813 L 1632.69,1817.56 L 1625.59,1824.66 L 1621.03,1833.62 L 1619.85,1841.05 L 1619.85,1944.47M 1619.85,1747.61 L 1621.03,1755.04 L 1625.59,1764 L 1632.69,1771.1 L 1641.65,1775.67 L 1649.08,1776.84 L 1726.9,1776.84 L 1734.33,1775.67 L 1743.29,1771.1 L 1750.39,1764 L 1754.96,1755.04 L 1756.16,1747.23 L 1757.68,1742.43 L 1761.84,1738.83 L 1765.9,1737.95 L 1856.15,1737.95 L 1861.43,1739.5 L 1865.03,1743.65 L 1865.88,1747.23 L 1867.09,1755.04 L 1871.65,1764 L 1878.76,1771.1 L 1887.71,1775.67 L 1895.14,1776.84 L 1963.13,1776.84 L 1970.55,1775.67 L 1979.51,1771.1 L 1986.61,1764 L 1991.18,1755.04 L 1992.35,1747.62 L 1992.35,1644.2 L 1991.18,1636.77 L 1986.61,1627.81 L 1979.51,1620.71 L 1970.55,1616.15 L 1963.13,1614.97 L 1895.14,1614.97 L 1887.71,1616.15 L 1878.76,1620.71 L 1871.65,1627.81 L 1867.09,1636.77 L 1865.88,1644.58 L 1864.36,1649.38 L 1860.2,1652.98 L 1856.15,1653.87 L 1765.9,1653.87 L 1760.62,1652.32 L 1757.01,1648.16 L 1756.16,1644.58 L 1754.96,1636.77 L 1750.39,1627.81 L 1743.29,1620.71 L 1734.33,1616.15 L 1726.91,1614.97 L 1649.08,1614.97 L 1641.65,1616.15 L 1632.69,1620.71 L 1625.59,1627.81 L 1621.03,1636.77 L 1619.85,1644.2 L 1619.85,1747.61M 2110.01,1944.47 L 2111.18,1951.89 L 2115.75,1960.85 L 2122.85,1967.95 L 2131.81,1972.52 L 2139.23,1973.69 L 2207.22,1973.69 L 2214.65,1972.52 L 2223.6,1967.95 L 2230.71,1960.85 L 2235.27,1951.89 L 2236.18,1946.18 L 2238.53,1941.21 L 2243.2,1938.3 L 2245.82,1937.95 L 2375.78,1937.95 L 2381.06,1939.5 L 2383.9,1942.28 L 2385.02,1943.96 L 2389,1946.62 L 2392.51,1947.32 L 2591.74,1947.32 L 2595.25,1946.62 L 2599.23,1943.96 L 2601.89,1939.97 L 2602.59,1936.46 L 2602.59,1855.35 L 2601.89,1851.84 L 2599.23,1847.86 L 2595.25,1845.19 L 2591.74,1844.5 L 2392.51,1844.5 L 2389,1845.2 L 2385.02,1847.86 L 2383.9,1849.53 L 2379.68,1853.06 L 2375.78,1853.87 L 2246.21,1853.87 L 2240.93,1852.32 L 2237.33,1848.16 L 2236.45,1844.1 L 2236.45,1841.05 L 2235.27,1833.62 L 2230.71,1824.66 L 2223.6,1817.56 L 2214.65,1813 L 2207.22,1811.82 L 2139.23,1811.82 L 2131.81,1813 L 2122.85,1817.56 L 2115.75,1824.66 L 2111.18,1833.62 L 2110.01,1841.05 L 2110.01,1944.47M 2110.01,1747.62 L 2111.18,1755.04 L 2115.75,1764 L 2122.85,1771.1 L 2131.81,1775.67 L 2139.23,1776.84 L 2207.22,1776.84 L 2214.65,1775.67 L 2223.6,1771.1 L 2230.71,1764 L 2235.27,1755.04 L 2236.48,1747.23 L 2238,1742.43 L 2242.16,1738.83 L 2246.21,1737.95 L 2375.78,1737.95 L 2381.06,1739.5 L 2383.9,1742.28 L 2385.02,1743.96 L 2389,1746.62 L 2392.51,1747.32 L 2591.74,1747.32 L 2595.25,1746.62 L 2599.23,1743.96 L 2601.89,1739.97 L 2602.59,1736.46 L 2602.59,1655.35 L 2601.89,1651.84 L 2599.23,1647.86 L 2595.25,1645.19 L 2591.74,1644.5 L 2392.51,1644.5 L 2389,1645.2 L 2385.02,1647.86 L 2383.9,1649.53 L 2379.68,1653.06 L 2375.78,1653.87 L 2246.21,1653.87 L 2240.93,1652.32 L 2237.33,1648.16 L 2236.48,1644.58 L 2235.27,1636.77 L 2230.71,1627.81 L 2223.6,1620.71 L 2214.65,1616.15 L 2207.22,1614.97 L 2139.23,1614.97 L 2131.81,1616.15 L 2122.85,1620.71 L 2115.75,1627.81 L 2111.18,1636.77 L 2110.01,1644.2 L 2110.01,1747.62M 2354.33,2139.04 L 2354.83,2143.73 L 2358.79,2154.34 L 2365.57,2163.4 L 2374.64,2170.19 L 2385.24,2174.14 L 2389.93,2174.65 L 2472.44,2174.65 L 2472.44,2135.28 L 2393.7,2135.28 L 2393.7,2115.59 L 2354.33,2115.59 L 2354.33,2139.04M 2354.33,2076.22 L 2393.7,2076.22 L 2393.7,2056.54 L 2472.44,2056.54 L 2472.44,2017.17 L 2389.93,2017.17 L 2385.24,2017.67 L 2374.64,2021.63 L 2365.57,2028.41 L 2358.79,2037.47 L 2354.83,2048.08 L 2354.33,2052.77 L 2354.33,2076.22M 2511.81,2174.65 L 2594.32,2174.65 L 2599,2174.14 L 2609.61,2170.19 L 2618.67,2163.4 L 2625.46,2154.34 L 2629.42,2143.73 L 2629.92,2139.04 L 2629.92,2115.59 L 2590.55,2115.59 L 2590.55,2135.28 L 2511.81,2135.28 L 2511.81,2174.65M 2511.81,2056.54 L 2590.55,2056.54 L 2590.55,2076.22 L 2629.92,2076.22 L 2629.92,2052.77 L 2629.42,2048.08 L 2625.46,2037.47 L 2618.67,2028.41 L 2609.61,2021.63 L 2599,2017.67 L 2594.32,2017.17 L 2511.81,2017.17 L 2511.81,2056.54M 2948.02,2703.65 L 2949.54,2721.92 L 2954.04,2739.7 L 2961.4,2756.49 L 2971.43,2771.84 L 2983.85,2785.33 L 2998.32,2796.6 L 3014.45,2805.33 L 3031.8,2811.28 L 3049.88,2814.3 L 3068.22,2814.3 L 3086.31,2811.28 L 3103.66,2805.33 L 3119.78,2796.6 L 3134.25,2785.33 L 3146.67,2771.84 L 3156.7,2756.49 L 3164.07,2739.7 L 3168.57,2721.92 L 3170.09,2703.65 L 3168.57,2685.37 L 3164.07,2667.59 L 3156.7,2650.8 L 3146.67,2635.45 L 3134.25,2621.96 L 3119.78,2610.69 L 3103.65,2601.96 L 3086.31,2596.01 L 3068.22,2592.99 L 3049.88,2592.99 L 3031.8,2596.01 L 3014.45,2601.96 L 2998.32,2610.69 L 2983.85,2621.96 L 2971.43,2635.45 L 2961.4,2650.8 L 2954.04,2667.59 L 2949.54,2685.37 L 2948.02,2703.65M 2948.02,1067.06 L 2949.54,1085.34 L 2954.04,1103.11 L 2961.4,1119.91 L 2971.43,1135.26 L 2983.85,1148.75 L 2998.32,1160.01 L 3014.45,1168.74 L 3031.8,1174.7 L 3049.88,1177.72 L 3068.22,1177.72 L 3086.31,1174.7 L 3103.66,1168.74 L 3119.78,1160.01 L 3134.25,1148.75 L 3146.67,1135.26 L 3156.7,1119.91 L 3164.07,1103.11 L 3168.57,1085.34 L 3170.09,1067.06 L 3168.57,1048.79 L 3164.07,1031.01 L 3156.7,1014.22 L 3146.67,998.864 L 3139.6,991.182 L 3134.25,985.372 L 3119.78,974.11 L 3103.65,965.38 L 3086.31,959.426 L 3068.22,956.408 L 3049.88,956.408 L 3031.8,959.426 L 3014.45,965.382 L 2998.32,974.11 L 2983.85,985.372 L 2971.43,998.864 L 2961.4,1014.22 L 2954.04,1031.01 L 2949.54,1048.79 L 2948.02,1067.06 z " style="fill-opacity:1.000000;fill:rgb(103,198,105);stroke:rgb(0,0,0);stroke-width:2"/></g>
<g fill-rule="evenodd"><path d="M 1631.89,1941.97 L 1631.89,1843.55 L 1632.32,1839.45 L 1633.59,1835.54 L 1635.65,1831.97 L 1638.4,1828.92 L 1641.73,1826.5 L 1645.49,1824.82 L 1649.52,1823.97 L 1726.47,1823.97 L 1730.49,1824.82 L 1734.25,1826.5 L 1737.58,1828.92 L 1740.33,1831.97 L 1742.39,1835.54 L 1743.66,1839.45 L 1744.09,1843.55 L 1744.09,1862.76 L 1877.95,1862.76 L 1877.95,1843.55 L 1878.38,1839.45 L 1879.65,1835.54 L 1881.71,1831.97 L 1884.47,1828.92 L 1887.8,1826.5 L 1891.55,1824.82 L 1895.58,1823.97 L 1897.64,1823.86 L 1960.63,1823.86 L 1962.69,1823.97 L 1966.71,1824.82 L 1970.47,1826.5 L 1973.8,1828.92 L 1976.56,1831.97 L 1978.61,1835.54 L 1979.88,1839.45 L 1980.31,1843.55 L 1980.31,1941.97 L 1979.88,1946.06 L 1978.61,1949.98 L 1976.56,1953.54 L 1973.8,1956.6 L 1970.47,1959.02 L 1966.71,1960.69 L 1962.69,1961.55 L 1895.58,1961.55 L 1891.55,1960.69 L 1887.8,1959.02 L 1884.47,1956.6 L 1881.71,1953.54 L 1879.65,1949.98 L 1878.38,1946.06 L 1877.95,1941.97 L 1877.95,1922.76 L 1744.09,1922.76 L 1744.09,1941.97 L 1743.66,1946.06 L 1742.39,1949.98 L 1740.33,1953.54 L 1737.58,1956.6 L 1734.25,1959.02 L 1730.49,1960.69 L 1726.47,1961.55 L 1724.41,1961.66 L 1651.57,1961.66 L 1649.52,1961.55 L 1645.49,1960.69 L 1641.73,1959.02 L 1638.4,1956.6 L 1635.65,1953.54 L 1633.59,1949.98 L 1632.32,1946.06 L 1631.89,1941.97 z " style="fill-opacity:1.000000;fill:rgb(115,81,255);stroke:rgb(0,0,0);stroke-width:2"/></g>
<g fill-rule="evenodd"><path d="M 1631.89,1745.12 L 1631.89,1646.69 L 1632.32,1642.6 L 1633.59,1638.69 L 1635.65,1635.12 L 1638.4,1632.07 L 1641.73,1629.65 L 1645.49,1627.97 L 1649.52,1627.12 L 1726.47,1627.12 L 1730.49,1627.97 L 1734.25,1629.65 L 1737.58,1632.07 L 1740.33,1635.12 L 1742.39,1638.69 L 1743.66,1642.6 L 1744.09,1646.69 L 1744.09,1665.91 L 1877.95,1665.91 L 1877.95,1646.69 L 1878.38,1642.6 L 1879.65,1638.69 L 1881.71,1635.12 L 1884.47,1632.07 L 1887.8,1629.65 L 1891.55,1627.97 L 1895.58,1627.12 L 1897.64,1627.01 L 1960.63,1627.01 L 1962.69,1627.12 L 1966.71,1627.97 L 1970.47,1629.65 L 1973.8,1632.07 L 1976.56,1635.12 L 1978.61,1638.69 L 1979.88,1642.6 L 1980.31,1646.69 L 1980.31,1745.12 L 1979.88,1749.21 L 1978.61,1753.13 L 1976.56,1756.69 L 1973.8,1759.75 L 1970.47,1762.17 L 1966.71,1763.84 L 1962.69,1764.7 L 1895.58,1764.7 L 1891.55,1763.84 L 1887.8,1762.17 L 1884.47,1759.75 L 1881.71,1756.69 L 1879.65,1753.13 L 1878.38,1749.21 L 1877.95,1745.12 L 1877.95,1725.91 L 1744.09,1725.91 L 1744.09,1745.12 L 1743.66,1749.21 L 1742.39,1753.13 L 1740.33,1756.69 L 1737.58,1759.75 L 1734.25,1762.17 L 1730.49,1763.84 L 1726.47,1764.7 L 1724.41,1764.8 L 1651.57,1764.8 L 1649.52,1764.7 L 1645.49,1763.84 L 1641.73,1762.17 L 1638.4,1759.75 L 1635.65,1756.69 L 1633.59,1753.13 L 1632.32,1749.21 L 1631.89,1745.12 z " style="fill-opacity:1.000000;fill:rgb(74,236,41);stroke:rgb(0,0,0);stroke-width:2"/></g>
<g fill-rule="evenodd"><path d="M 2122.05,1941.97 L 2122.05,1843.55 L 2122.48,1839.45 L 2123.75,1835.54 L 2125.81,1831.97 L 2128.56,1828.92 L 2131.89,1826.5 L 2135.65,1824.82 L 2139.67,1823.97 L 2204.72,1823.86 L 2206.78,1823.97 L 2210.81,1824.82 L 2214.57,1826.5 L 2217.9,1828.92 L 2220.65,1831.97 L 2222.71,1835.54 L 2223.98,1839.45 L 2224.41,1843.55 L 2224.41,1865.91 L 2393.7,1865.91 L 2393.7,1856.54 L 2590.55,1856.54 L 2590.55,1935.28 L 2393.7,1935.28 L 2393.7,1925.91 L 2224.41,1925.91 L 2224.41,1941.97 L 2223.98,1946.06 L 2222.71,1949.98 L 2220.65,1953.54 L 2217.9,1956.6 L 2214.57,1959.02 L 2210.81,1960.69 L 2206.78,1961.55 L 2139.67,1961.55 L 2135.65,1960.69 L 2131.89,1959.02 L 2128.56,1956.6 L 2125.81,1953.54 L 2123.75,1949.98 L 2122.48,1946.06 L 2122.05,1941.97 z " style="fill-opacity:1.000000;fill:rgb(205,186,171);stroke:rgb(0,0,0);stroke-width:2"/></g>
<g fill-rule="evenodd"><path d="M 2122.05,1745.12 L 2122.05,1646.69 L 2122.48,1642.6 L 2123.75,1638.69 L 2125.81,1635.12 L 2128.56,1632.07 L 2131.89,1629.65 L 2135.65,1627.97 L 2139.67,1627.12 L 2204.72,1627.01 L 2206.78,1627.12 L 2210.81,1627.97 L 2214.57,1629.65 L 2217.9,1632.07 L 2220.65,1635.12 L 2222.71,1638.69 L 2223.98,1642.6 L 2224.41,1646.69 L 2224.41,1665.91 L 2393.7,1665.91 L 2393.7,1656.54 L 2590.55,1656.54 L 2590.55,1735.28 L 2393.7,1735.28 L 2393.7,1725.91 L 2224.41,1725.91 L 2224.41,1745.12 L 2223.98,1749.21 L 2222.71,1753.13 L 2220.65,1756.69 L 2217.9,1759.75 L 2214.57,1762.17 L 2210.81,1763.84 L 2206.78,1764.7 L 2204.72,1764.8 L 2139.67,1764.7 L 2135.65,1763.84 L 2131.89,1762.17 L 2128.56,1759.75 L 2125.81,1756.69 L 2123.75,1753.13 L 2122.48,1749.21 L 2122.05,1745.12 z " style="fill-opacity:1.000000;fill:rgb(242,251,227);stroke:rgb(0,0,0);stroke-width:2"/></g>
</svg>
