<?xml version="1.0" standalone="no"?>
<!DOCTYPE svg PUBLIC "-//W3C//DTD SVG 1.1//EN"
"http://www.w3.org/Graphics/SVG/1.1/DTD/svg11.dtd">
<svg width="173.726" height="183.262" viewBox="0 0 3619.29 3817.95" version="1.1"
xmlns="http://www.w3.org/2000/svg"
xmlns:xlink="http://www.w3.org/1999/xlink">
<g fill-rule="evenodd"><path d="M 114.59,2798.67 L 114.59,1019.28 L 116.14,1014 L 119.472,1010.82 L 1660.47,121.126 L 1665.82,119.83 L 1670.23,121.126 L 3211.23,1010.82 L 3215.03,1014.8 L 3216.12,1019.28 L 3216.12,1410.13 L 3214.57,1415.41 L 3210.41,1419.02 L 3206.35,1419.9 L 2733.05,1419.9 L 2726.94,1421.54 L 2721.46,1424.7 L 2716.98,1429.18 L 2713.82,1434.66 L 2712.18,1440.77 L 2712.18,2391.98 L 2713.82,2398.1 L 2716.98,2403.58 L 2721.46,2408.06 L 2726.94,2411.22 L 2733.05,2412.86 L 3206.35,2412.86 L 3211.63,2414.41 L 3215.23,2418.57 L 3216.12,2422.62 L 3216.12,2798.67 L 3214.57,2803.95 L 3211.23,2807.13 L 1670.23,3696.82 L 1664.89,3698.12 L 1660.47,3696.82 L 119.472,2807.13 L 115.674,2803.15 L 114.59,2798.67M 136.998,2727.27 L 138.512,2745.54 L 143.014,2763.32 L 150.38,2780.11 L 160.41,2795.46 L 172.83,2808.96 L 187.3,2820.22 L 203.428,2828.95 L 220.772,2834.9 L 238.862,2837.92 L 257.2,2837.92 L 275.288,2834.9 L 292.632,2828.95 L 308.76,2820.22 L 323.23,2808.96 L 335.65,2795.47 L 345.68,2780.11 L 353.046,2763.32 L 357.548,2745.54 L 359.062,2727.27 L 357.548,2708.99 L 353.046,2691.22 L 345.68,2674.42 L 335.65,2659.07 L 334.238,2657.54 L 323.23,2645.58 L 308.76,2634.31 L 292.63,2625.59 L 275.288,2619.63 L 257.2,2616.61 L 238.862,2616.61 L 220.772,2619.63 L 203.428,2625.59 L 187.3,2634.31 L 172.83,2645.58 L 160.41,2659.07 L 150.38,2674.42 L 143.014,2691.22 L 138.512,2708.99 L 136.998,2727.27M 136.998,1090.68 L 138.512,1108.96 L 143.014,1126.74 L 150.38,1143.53 L 160.41,1158.88 L 172.83,1172.37 L 187.3,1183.64 L 203.428,1192.36 L 220.772,1198.32 L 238.862,1201.34 L 257.2,1201.34 L 275.288,1198.32 L 292.632,1192.36 L 308.76,1183.64 L 323.23,1172.37 L 335.65,1158.88 L 345.68,1143.53 L 353.046,1126.74 L 357.548,1108.96 L 359.062,1090.68 L 357.548,1072.41 L 353.046,1054.63 L 345.68,1037.84 L 335.65,1022.49 L 328.58,1014.8 L 323.23,1008.99 L 308.76,997.732 L 292.63,989.002 L 275.288,983.048 L 257.2,980.03 L 238.862,980.03 L 220.772,983.048 L 203.428,989.004 L 187.3,997.732 L 172.83,1008.99 L 160.41,1022.49 L 150.38,1037.84 L 143.014,1054.63 L 138.512,1072.41 L 136.998,1090.68M 1381.89,1969.53 L 1382.71,1977.61 L 1387.06,1990.72 L 1394.3,2002.47 L 1404.07,2012.23 L 1415.82,2019.48 L 1428.92,2023.82 L 1437.01,2024.65 L 1457.68,2024.65 L 1457.68,1985.28 L 1440.94,1985.28 L 1438.89,1985.17 L 1434.86,1984.31 L 1431.1,1982.64 L 1427.77,1980.22 L 1425.02,1977.16 L 1422.96,1973.6 L 1421.69,1969.68 L 1421.26,1965.59 L 1421.26,1936.06 L 1381.89,1936.06 L 1381.89,1969.53M 1381.89,1896.69 L 1421.26,1896.69 L 1421.26,1867.17 L 1421.69,1863.07 L 1422.96,1859.16 L 1425.02,1855.6 L 1427.77,1852.54 L 1431.1,1850.12 L 1434.86,1848.45 L 1438.89,1847.59 L 1440.94,1847.48 L 1457.68,1847.48 L 1457.68,1788.43 L 1440.94,1788.43 L 1438.89,1788.32 L 1434.86,1787.46 L 1431.1,1785.79 L 1427.77,1783.37 L 1425.02,1780.31 L 1422.96,1776.75 L 1421.69,1772.83 L 1421.26,1768.74 L 1421.26,1739.21 L 1381.89,1739.21 L 1381.89,1772.68 L 1382.71,1780.76 L 1387.06,1793.87 L 1394.3,1805.62 L 1399.74,1811.05 L 1402.37,1815.88 L 1401.98,1821.37 L 1399.74,1824.86 L 1394.3,1830.29 L 1387.06,1842.04 L 1382.71,1855.14 L 1381.89,1863.23 L 1381.89,1896.69M 1381.89,1699.84 L 1421.26,1699.84 L 1421.26,1670.32 L 1421.69,1666.22 L 1422.96,1662.31 L 1425.02,1658.75 L 1427.77,1655.69 L 1431.1,1653.27 L 1434.86,1651.6 L 1438.89,1650.74 L 1440.94,1650.63 L 1457.68,1650.63 L 1457.68,1611.26 L 1437.01,1611.26 L 1428.92,1612.09 L 1415.82,1616.43 L 1404.07,1623.68 L 1394.3,1633.44 L 1387.06,1645.19 L 1382.71,1658.29 L 1381.89,1666.38 L 1381.89,1699.84M 1497.05,2024.65 L 1517.71,2024.65 L 1525.8,2023.82 L 1538.91,2019.48 L 1550.66,2012.23 L 1560.42,2002.47 L 1567.66,1990.72 L 1572.01,1977.61 L 1572.83,1969.53 L 1572.83,1936.06 L 1533.46,1936.06 L 1533.46,1965.59 L 1533.03,1969.68 L 1531.76,1973.6 L 1529.71,1977.16 L 1526.95,1980.22 L 1523.62,1982.64 L 1519.86,1984.31 L 1515.84,1985.17 L 1513.78,1985.28 L 1497.05,1985.28 L 1497.05,2024.65M 1497.05,1847.48 L 1513.78,1847.48 L 1515.84,1847.59 L 1519.86,1848.45 L 1523.62,1850.12 L 1526.95,1852.54 L 1529.71,1855.6 L 1531.76,1859.16 L 1533.03,1863.07 L 1533.46,1867.17 L 1533.46,1896.69 L 1572.83,1896.69 L 1572.83,1863.23 L 1572.01,1855.14 L 1567.66,1842.04 L 1560.42,1830.29 L 1554.99,1824.86 L 1552.35,1820.03 L 1552.74,1814.54 L 1554.99,1811.05 L 1560.42,1805.62 L 1567.66,1793.87 L 1572.01,1780.76 L 1572.83,1772.68 L 1572.83,1739.21 L 1533.46,1739.21 L 1533.46,1768.74 L 1533.03,1772.83 L 1531.76,1776.75 L 1529.71,1780.31 L 1526.95,1783.37 L 1523.62,1785.79 L 1519.86,1787.46 L 1515.84,1788.32 L 1513.78,1788.43 L 1497.05,1788.43 L 1497.05,1847.48M 1497.05,1650.63 L 1513.78,1650.63 L 1515.84,1650.74 L 1519.86,1651.6 L 1523.62,1653.27 L 1526.95,1655.69 L 1529.71,1658.75 L 1531.76,1662.31 L 1533.03,1666.22 L 1533.46,1670.32 L 1533.46,1699.84 L 1572.83,1699.84 L 1572.83,1666.38 L 1572.01,1658.29 L 1567.66,1645.19 L 1560.42,1633.44 L 1550.66,1623.68 L 1538.91,1616.43 L 1525.8,1612.09 L 1517.71,1611.26 L 1497.05,1611.26 L 1497.05,1650.63M 1554.32,3545.56 L 1555.83,3563.83 L 1560.34,3581.61 L 1567.7,3598.4 L 1577.73,3613.76 L 1590.15,3627.25 L 1604.62,3638.51 L 1620.75,3647.24 L 1638.1,3653.19 L 1656.18,3656.21 L 1674.52,3656.21 L 1692.61,3653.19 L 1709.95,3647.24 L 1726.08,3638.51 L 1740.55,3627.25 L 1752.97,3613.76 L 1763,3598.4 L 1770.37,3581.61 L 1774.87,3563.83 L 1776.39,3545.56 L 1774.87,3527.28 L 1770.37,3509.51 L 1763,3492.71 L 1752.97,3477.36 L 1751.56,3475.83 L 1740.55,3463.87 L 1726.08,3452.61 L 1709.95,3443.88 L 1692.61,3437.92 L 1674.52,3434.91 L 1656.18,3434.91 L 1638.1,3437.92 L 1620.75,3443.88 L 1604.62,3452.61 L 1590.15,3463.87 L 1577.73,3477.36 L 1567.7,3492.71 L 1560.34,3509.51 L 1555.83,3527.28 L 1554.32,3545.56M 1554.32,272.392 L 1555.83,290.668 L 1560.34,308.444 L 1567.7,325.238 L 1577.73,340.59 L 1590.15,354.082 L 1604.62,365.344 L 1620.75,374.074 L 1638.1,380.028 L 1656.18,383.046 L 1674.52,383.046 L 1692.61,380.028 L 1709.95,374.074 L 1726.08,365.346 L 1740.55,354.082 L 1752.97,340.59 L 1763,325.238 L 1770.37,308.444 L 1774.87,290.668 L 1776.39,272.392 L 1774.87,254.116 L 1770.37,236.34 L 1763,219.546 L 1752.97,204.194 L 1751.56,202.66 L 1740.55,190.702 L 1726.08,179.44 L 1709.95,170.712 L 1692.61,164.758 L 1674.52,161.738 L 1656.18,161.738 L 1638.1,164.758 L 1620.75,170.712 L 1604.62,179.44 L 1590.15,190.702 L 1577.73,204.194 L 1567.7,219.546 L 1560.34,236.34 L 1555.83,254.118 L 1554.32,272.392M 1643.47,1968.09 L 1644.65,1975.52 L 1649.21,1984.47 L 1656.32,1991.58 L 1665.27,1996.14 L 1672.7,1997.32 L 1750.53,1997.32 L 1757.96,1996.14 L 1766.91,1991.58 L 1774.02,1984.47 L 1778.58,1975.52 L 1779.78,1967.71 L 1781.3,1962.9 L 1785.46,1959.3 L 1789.52,1958.42 L 1879.77,1958.42 L 1885.05,1959.97 L 1888.65,1964.13 L 1889.5,1967.71 L 1890.71,1975.52 L 1895.27,1984.47 L 1902.38,1991.58 L 1911.33,1996.14 L 1918.76,1997.32 L 1986.75,1997.32 L 1994.18,1996.14 L 2003.13,1991.58 L 2010.24,1984.47 L 2014.8,1975.52 L 2015.98,1968.09 L 2015.98,1864.67 L 2014.8,1857.24 L 2010.24,1848.29 L 2003.13,1841.18 L 1994.18,1836.62 L 1986.75,1835.44 L 1918.76,1835.44 L 1911.33,1836.62 L 1902.38,1841.18 L 1895.27,1848.29 L 1890.71,1857.24 L 1889.5,1865.05 L 1887.98,1869.85 L 1883.83,1873.46 L 1879.77,1874.34 L 1789.52,1874.34 L 1784.24,1872.79 L 1780.64,1868.63 L 1779.78,1865.05 L 1778.58,1857.24 L 1774.02,1848.29 L 1766.91,1841.18 L 1757.96,1836.62 L 1750.53,1835.44 L 1672.7,1835.44 L 1665.27,1836.62 L 1656.32,1841.18 L 1649.21,1848.29 L 1644.65,1857.24 L 1643.47,1864.67 L 1643.47,1968.09M 1643.47,1771.24 L 1644.65,1778.67 L 1649.21,1787.62 L 1656.32,1794.73 L 1665.27,1799.29 L 1672.7,1800.46 L 1750.53,1800.46 L 1757.96,1799.29 L 1766.91,1794.73 L 1774.02,1787.62 L 1778.58,1778.67 L 1779.78,1770.86 L 1781.3,1766.05 L 1785.46,1762.45 L 1789.52,1761.57 L 1879.77,1761.57 L 1885.05,1763.12 L 1888.65,1767.27 L 1889.5,1770.86 L 1890.71,1778.67 L 1895.27,1787.62 L 1902.38,1794.73 L 1911.33,1799.29 L 1918.76,1800.46 L 1986.75,1800.46 L 1994.18,1799.29 L 2003.13,1794.73 L 2010.24,1787.62 L 2014.8,1778.67 L 2015.98,1771.24 L 2015.98,1667.82 L 2014.8,1660.39 L 2010.24,1651.44 L 2003.13,1644.33 L 1994.18,1639.77 L 1986.75,1638.59 L 1918.76,1638.59 L 1911.33,1639.77 L 1902.38,1644.33 L 1895.27,1651.44 L 1890.71,1660.39 L 1889.5,1668.2 L 1887.98,1673 L 1883.83,1676.61 L 1879.77,1677.49 L 1789.52,1677.49 L 1784.24,1675.94 L 1780.64,1671.78 L 1779.78,1668.2 L 1778.58,1660.39 L 1774.02,1651.44 L 1766.91,1644.33 L 1757.96,1639.77 L 1750.53,1638.59 L 1672.7,1638.59 L 1665.27,1639.77 L 1656.32,1644.33 L 1649.21,1651.44 L 1644.65,1660.39 L 1643.47,1667.82 L 1643.47,1771.24M 2133.63,1968.09 L 2134.81,1975.52 L 2139.37,1984.47 L 2146.47,1991.58 L 2155.43,1996.14 L 2162.86,1997.32 L 2230.84,1997.32 L 2238.27,1996.14 L 2247.22,1991.58 L 2254.33,1984.47 L 2258.89,1975.52 L 2259.8,1969.8 L 2262.15,1964.83 L 2266.82,1961.92 L 2269.44,1961.57 L 2399.41,1961.57 L 2404.69,1963.12 L 2407.52,1965.91 L 2408.64,1967.58 L 2412.62,1970.24 L 2416.14,1970.94 L 2615.36,1970.94 L 2618.87,1970.24 L 2622.85,1967.58 L 2625.51,1963.6 L 2626.21,1960.08 L 2626.21,1878.97 L 2625.51,1875.46 L 2622.85,1871.48 L 2618.87,1868.82 L 2615.36,1868.12 L 2416.14,1868.12 L 2412.62,1868.82 L 2408.64,1871.48 L 2407.52,1873.15 L 2403.3,1876.68 L 2399.41,1877.49 L 2269.83,1877.49 L 2264.55,1875.94 L 2260.95,1871.78 L 2260.07,1867.72 L 2260.07,1864.67 L 2258.89,1857.24 L 2254.33,1848.29 L 2247.22,1841.18 L 2238.27,1836.62 L 2230.84,1835.44 L 2162.86,1835.44 L 2155.43,1836.62 L 2146.47,1841.18 L 2139.37,1848.29 L 2134.81,1857.24 L 2133.63,1864.67 L 2133.63,1968.09M 2133.63,1771.24 L 2134.81,1778.67 L 2139.37,1787.62 L 2146.47,1794.73 L 2155.43,1799.29 L 2162.86,1800.46 L 2230.84,1800.46 L 2238.27,1799.29 L 2247.22,1794.73 L 2254.33,1787.62 L 2258.89,1778.67 L 2260.1,1770.86 L 2261.62,1766.05 L 2265.78,1762.45 L 2269.83,1761.57 L 2399.41,1761.57 L 2404.69,1763.12 L 2407.52,1765.91 L 2408.64,1767.58 L 2412.62,1770.24 L 2416.14,1770.94 L 2615.36,1770.94 L 2618.87,1770.24 L 2622.85,1767.58 L 2625.51,1763.6 L 2626.21,1760.08 L 2626.21,1678.97 L 2625.51,1675.46 L 2622.85,1671.48 L 2618.87,1668.82 L 2615.36,1668.12 L 2416.14,1668.12 L 2412.62,1668.82 L 2408.64,1671.48 L 2407.52,1673.15 L 2403.3,1676.68 L 2399.41,1677.49 L 2269.83,1677.49 L 2264.55,1675.94 L 2260.95,1671.78 L 2260.1,1668.2 L 2258.89,1660.39 L 2254.33,1651.44 L 2247.22,1644.33 L 2238.27,1639.77 L 2230.84,1638.59 L 2162.86,1638.59 L 2155.43,1639.77 L 2146.47,1644.33 L 2139.37,1651.44 L 2134.81,1660.39 L 2133.63,1667.82 L 2133.63,1771.24M 2377.95,2162.67 L 2378.46,2167.35 L 2382.41,2177.96 L 2389.2,2187.02 L 2398.26,2193.81 L 2408.87,2197.76 L 2413.55,2198.27 L 2496.06,2198.27 L 2496.06,2158.9 L 2417.32,2158.9 L 2417.32,2139.21 L 2377.95,2139.21 L 2377.95,2162.67M 2377.95,2099.84 L 2417.32,2099.84 L 2417.32,2080.16 L 2496.06,2080.16 L 2496.06,2040.79 L 2413.55,2040.79 L 2408.87,2041.29 L 2398.26,2045.25 L 2389.2,2052.03 L 2382.41,2061.1 L 2378.46,2071.7 L 2377.95,2076.39 L 2377.95,2099.84M 2535.43,2198.27 L 2617.94,2198.27 L 2622.63,2197.76 L 2633.23,2193.81 L 2642.3,2187.02 L 2649.08,2177.96 L 2653.04,2167.35 L 2653.54,2162.67 L 2653.54,2139.21 L 2614.17,2139.21 L 2614.17,2158.9 L 2535.43,2158.9 L 2535.43,2198.27M 2535.43,2080.16 L 2614.17,2080.16 L 2614.17,2099.84 L 2653.54,2099.84 L 2653.54,2076.39 L 2653.04,2071.7 L 2649.08,2061.1 L 2642.3,2052.03 L 2633.23,2045.25 L 2622.63,2041.29 L 2617.94,2040.79 L 2535.43,2040.79 L 2535.43,2080.16M 2971.64,2727.27 L 2973.16,2745.54 L 2977.66,2763.32 L 2985.03,2780.11 L 2995.06,2795.46 L 3007.48,2808.96 L 3021.95,2820.22 L 3038.07,2828.95 L 3055.42,2834.9 L 3073.51,2837.92 L 3091.84,2837.92 L 3109.93,2834.9 L 3127.28,2828.95 L 3143.41,2820.22 L 3157.88,2808.96 L 3170.3,2795.47 L 3180.33,2780.11 L 3187.69,2763.32 L 3192.19,2745.54 L 3193.71,2727.27 L 3192.19,2708.99 L 3187.69,2691.22 L 3180.33,2674.42 L 3170.3,2659.07 L 3157.88,2645.58 L 3143.41,2634.31 L 3127.28,2625.59 L 3109.93,2619.63 L 3091.84,2616.61 L 3073.51,2616.61 L 3055.42,2619.63 L 3038.07,2625.59 L 3021.95,2634.31 L 3007.48,2645.58 L 2995.06,2659.07 L 2985.03,2674.42 L 2977.66,2691.22 L 2973.16,2708.99 L 2971.64,2727.27M 2971.64,1090.68 L 2973.16,1108.96 L 2977.66,1126.74 L 2985.03,1143.53 L 2995.06,1158.88 L 3007.48,1172.37 L 3021.95,1183.64 L 3038.07,1192.36 L 3055.42,1198.32 L 3073.51,1201.34 L 3091.84,1201.34 L 3109.93,1198.32 L 3127.28,1192.36 L 3143.41,1183.64 L 3157.88,1172.37 L 3170.3,1158.88 L 3180.33,1143.53 L 3187.69,1126.74 L 3192.19,1108.96 L 3193.71,1090.68 L 3192.19,1072.41 L 3187.69,1054.63 L 3180.33,1037.84 L 3170.3,1022.49 L 3163.23,1014.8 L 3157.88,1008.99 L 3143.41,997.732 L 3127.28,989.002 L 3109.93,983.048 L 3091.84,980.03 L 3073.51,980.03 L 3055.42,983.048 L 3038.07,989.004 L 3021.95,997.732 L 3007.48,1008.99 L 2995.06,1022.49 L 2985.03,1037.84 L 2977.66,1054.63 L 2973.16,1072.41 L 2971.64,1090.68 z " style="fill-opacity:1.000000;fill:rgb(167,241,217);stroke:rgb(0,0,0);stroke-width:2"/></g>
<g fill-rule="evenodd"><path d="M 1655.51,1965.59 L 1655.51,1867.17 L 1655.94,1863.07 L 1657.21,1859.16 L 1659.27,1855.6 L 1662.03,1852.54 L 1665.35,1850.12 L 1669.11,1848.45 L 1673.14,1847.59 L 1750.09,1847.59 L 1754.11,1848.45 L 1757.87,1850.12 L 1761.2,1852.54 L 1763.96,1855.6 L 1766.01,1859.16 L 1767.29,1863.07 L 1767.72,1867.17 L 1767.72,1886.38 L 1901.57,1886.38 L 1901.57,1867.17 L 1902,1863.07 L 1903.28,1859.16 L 1905.33,1855.6 L 1908.09,1852.54 L 1911.42,1850.12 L 1915.18,1848.45 L 1919.2,1847.59 L 1921.26,1847.48 L 1984.25,1847.48 L 1986.31,1847.59 L 1990.33,1848.45 L 1994.09,1850.12 L 1997.42,1852.54 L 2000.18,1855.6 L 2002.24,1859.16 L 2003.51,1863.07 L 2003.94,1867.17 L 2003.94,1965.59 L 2003.51,1969.69 L 2002.24,1973.6 L 2000.18,1977.16 L 1997.42,1980.22 L 1994.09,1982.64 L 1990.33,1984.31 L 1986.31,1985.17 L 1919.2,1985.17 L 1915.18,1984.31 L 1911.42,1982.64 L 1908.09,1980.22 L 1905.33,1977.16 L 1903.28,1973.6 L 1902,1969.69 L 1901.57,1965.59 L 1901.57,1946.38 L 1767.72,1946.38 L 1767.72,1965.59 L 1767.29,1969.68 L 1766.01,1973.6 L 1763.96,1977.16 L 1761.2,1980.22 L 1757.87,1982.64 L 1754.11,1984.31 L 1750.09,1985.17 L 1748.03,1985.28 L 1675.2,1985.28 L 1673.14,1985.17 L 1669.11,1984.31 L 1665.35,1982.64 L 1662.03,1980.22 L 1659.27,1977.16 L 1657.21,1973.6 L 1655.94,1969.68 L 1655.51,1965.59 z " style="fill-opacity:1.000000;fill:rgb(42,130,200);stroke:rgb(0,0,0);stroke-width:2"/></g>
<g fill-rule="evenodd"><path d="M 1655.51,1768.74 L 1655.51,1670.32 L 1655.94,1666.22 L 1657.21,1662.31 L 1659.27,1658.75 L 1662.03,1655.69 L 1665.35,1653.27 L 1669.11,1651.6 L 1673.14,1650.74 L 1750.09,1650.74 L 1754.11,1651.6 L 1757.87,1653.27 L 1761.2,1655.69 L 1763.96,1658.75 L 1766.01,1662.31 L 1767.29,1666.22 L 1767.72,1670.32 L 1767.72,1689.53 L 1901.57,1689.53 L 1901.57,1670.32 L 1902,1666.22 L 1903.28,1662.31 L 1905.33,1658.75 L 1908.09,1655.69 L 1911.42,1653.27 L 1915.18,1651.6 L 1919.2,1650.74 L 1921.26,1650.63 L 1984.25,1650.63 L 1986.31,1650.74 L 1990.33,1651.6 L 1994.09,1653.27 L 1997.42,1655.69 L 2000.18,1658.75 L 2002.24,1662.31 L 2003.51,1666.22 L 2003.94,1670.32 L 2003.94,1768.74 L 2003.51,1772.83 L 2002.24,1776.75 L 2000.18,1780.31 L 1997.42,1783.37 L 1994.09,1785.79 L 1990.33,1787.46 L 1986.31,1788.32 L 1919.2,1788.32 L 1915.18,1787.46 L 1911.42,1785.79 L 1908.09,1783.37 L 1905.33,1780.31 L 1903.28,1776.75 L 1902,1772.83 L 1901.57,1768.74 L 1901.57,1749.53 L 1767.72,1749.53 L 1767.72,1768.74 L 1767.29,1772.83 L 1766.01,1776.75 L 1763.96,1780.31 L 1761.2,1783.37 L 1757.87,1785.79 L 1754.11,1787.46 L 1750.09,1788.32 L 1748.03,1788.43 L 1675.2,1788.43 L 1673.14,1788.32 L 1669.11,1787.46 L 1665.35,1785.79 L 1662.03,1783.37 L 1659.27,1780.31 L 1657.21,1776.75 L 1655.94,1772.83 L 1655.51,1768.74 z " style="fill-opacity:1.000000;fill:rgb(216,254,67);stroke:rgb(0,0,0);stroke-width:2"/></g>
<g fill-rule="evenodd"><path d="M 2145.67,1965.59 L 2145.67,1867.17 L 2146.1,1863.07 L 2147.37,1859.16 L 2149.43,1855.6 L 2152.18,1852.54 L 2155.51,1850.12 L 2159.27,1848.45 L 2163.3,1847.59 L 2228.35,1847.48 L 2230.4,1847.59 L 2234.43,1848.45 L 2238.19,1850.12 L 2241.52,1852.54 L 2244.27,1855.6 L 2246.33,1859.16 L 2247.6,1863.07 L 2248.03,1867.17 L 2248.03,1889.53 L 2417.32,1889.53 L 2417.32,1880.16 L 2614.17,1880.16 L 2614.17,1958.9 L 2417.32,1958.9 L 2417.32,1949.53 L 2248.03,1949.53 L 2248.03,1965.59 L 2247.6,1969.69 L 2246.33,1973.6 L 2244.27,1977.16 L 2241.52,1980.22 L 2238.19,1982.64 L 2234.43,1984.31 L 2230.4,1985.17 L 2163.3,1985.17 L 2159.27,1984.31 L 2155.51,1982.64 L 2152.18,1980.22 L 2149.43,1977.16 L 2147.37,1973.6 L 2146.1,1969.69 L 2145.67,1965.59 z " style="fill-opacity:1.000000;fill:rgb(77,152,85);stroke:rgb(0,0,0);stroke-width:2"/></g>
<g fill-rule="evenodd"><path d="M 2145.67,1768.74 L 2145.67,1670.32 L 2146.1,1666.22 L 2147.37,1662.31 L 2149.43,1658.75 L 2152.18,1655.69 L 2155.51,1653.27 L 2159.27,1651.6 L 2163.3,1650.74 L 2228.35,1650.63 L 2230.4,1650.74 L 2234.43,1651.6 L 2238.19,1653.27 L 2241.52,1655.69 L 2244.27,1658.75 L 2246.33,1662.31 L 2247.6,1666.22 L 2248.03,1670.32 L 2248.03,1689.53 L 2417.32,1689.53 L 2417.32,1680.16 L 2614.17,1680.16 L 2614.17,1758.9 L 2417.32,1758.9 L 2417.32,1749.53 L 2248.03,1749.53 L 2248.03,1768.74 L 2247.6,1772.83 L 2246.33,1776.75 L 2244.27,1780.31 L 2241.52,1783.37 L 2238.19,1785.79 L 2234.43,1787.46 L 2230.4,1788.32 L 2228.35,1788.43 L 2163.3,1788.32 L 2159.27,1787.46 L 2155.51,1785.79 L 2152.18,1783.37 L 2149.43,1780.31 L 2147.37,1776.75 L 2146.1,1772.83 L 2145.67,1768.74 z " style="fill-opacity:1.000000;fill:rgb(140,226,179);stroke:rgb(0,0,0);stroke-width:2"/></g>
</svg>
