<?xml version="1.0" standalone="no"?>
<!DOCTYPE svg PUBLIC "-//W3C//DTD SVG 1.1//EN"
"http://www.w3.org/Graphics/SVG/1.1/DTD/svg11.dtd">
<svg width="173.726" height="183.262" viewBox="0 0 3619.29 3817.95" version="1.1"
xmlns="http://www.w3.org/2000/svg"
xmlns:xlink="http://www.w3.org/1999/xlink">
<g fill-rule="evenodd"><path d="M 90.5503,2818.19 L 90.5503,999.762 L 1665.35,90.5505 L 3240.16,999.762 L 3240.16,1443.94 L 2736.22,1443.94 L 2736.22,2388.82 L 3240.16,2388.82 L 3240.16,2818.19 L 1665.35,3727.4 L 90.5503,2818.19M 161.416,2727.27 L 163.308,2745.28 L 168.904,2762.5 L 177.958,2778.18 L 190.074,2791.63 L 204.724,2802.28 L 221.264,2809.64 L 238.976,2813.41 L 257.084,2813.41 L 274.796,2809.64 L 291.338,2802.28 L 305.986,2791.63 L 318.102,2778.18 L 327.156,2762.5 L 332.752,2745.28 L 334.644,2727.27 L 332.752,2709.26 L 327.156,2692.04 L 318.102,2676.36 L 305.986,2662.9 L 291.338,2652.26 L 274.796,2644.89 L 257.084,2641.13 L 238.976,2641.13 L 221.264,2644.89 L 204.724,2652.26 L 190.074,2662.9 L 177.958,2676.36 L 168.904,2692.04 L 163.308,2709.26 L 161.416,2727.27M 161.416,1090.68 L 163.308,1108.69 L 168.904,1125.91 L 177.958,1141.59 L 190.074,1155.05 L 204.724,1165.69 L 221.264,1173.06 L 238.976,1176.82 L 257.084,1176.82 L 274.796,1173.06 L 291.338,1165.69 L 305.986,1155.05 L 318.102,1141.59 L 327.156,1125.91 L 332.752,1108.69 L 334.644,1090.68 L 332.752,1072.68 L 327.156,1055.45 L 318.102,1039.77 L 305.986,1026.32 L 291.338,1015.67 L 274.796,1008.31 L 257.084,1004.54 L 238.976,1004.54 L 221.264,1008.31 L 204.724,1015.67 L 190.074,1026.32 L 177.958,1039.77 L 168.904,1055.45 L 163.308,1072.68 L 161.416,1090.68M 1578.74,3545.56 L 1580.63,3563.57 L 1586.23,3580.79 L 1595.28,3596.47 L 1607.4,3609.93 L 1622.05,3620.57 L 1638.59,3627.93 L 1656.3,3631.7 L 1674.41,3631.7 L 1692.12,3627.93 L 1708.66,3620.57 L 1723.31,3609.93 L 1735.43,3596.47 L 1744.48,3580.79 L 1750.07,3563.57 L 1751.97,3545.56 L 1750.07,3527.55 L 1744.48,3510.33 L 1735.43,3494.65 L 1723.31,3481.19 L 1708.66,3470.55 L 1692.12,3463.18 L 1674.41,3459.42 L 1656.3,3459.42 L 1638.59,3463.18 L 1622.05,3470.55 L 1607.4,3481.19 L 1595.28,3494.65 L 1586.23,3510.33 L 1580.63,3527.55 L 1578.74,3545.56M 1578.74,272.392 L 1580.63,290.4 L 1586.23,307.622 L 1595.28,323.302 L 1607.4,336.76 L 1622.05,347.402 L 1638.59,354.768 L 1656.3,358.532 L 1674.41,358.532 L 1692.12,354.768 L 1708.66,347.402 L 1723.31,336.76 L 1735.43,323.302 L 1744.48,307.622 L 1750.07,290.4 L 1751.97,272.392 L 1750.07,254.384 L 1744.48,237.164 L 1735.43,221.482 L 1723.31,208.026 L 1708.66,197.382 L 1692.12,190.018 L 1674.41,186.252 L 1656.3,186.252 L 1638.59,190.018 L 1622.05,197.382 L 1607.4,208.026 L 1595.28,221.482 L 1586.23,237.164 L 1580.63,254.384 L 1578.74,272.392M 2996.06,2727.27 L 2997.95,2745.28 L 3003.55,2762.5 L 3012.6,2778.18 L 3024.72,2791.63 L 3039.37,2802.28 L 3055.91,2809.64 L 3073.62,2813.41 L 3091.73,2813.41 L 3109.44,2809.64 L 3125.98,2802.28 L 3140.63,2791.63 L 3152.75,2778.18 L 3161.8,2762.5 L 3167.4,2745.28 L 3169.29,2727.27 L 3167.4,2709.26 L 3161.8,2692.04 L 3152.75,2676.36 L 3140.63,2662.9 L 3125.98,2652.26 L 3109.44,2644.89 L 3091.73,2641.13 L 3073.62,2641.13 L 3055.91,2644.89 L 3039.37,2652.26 L 3024.72,2662.9 L 3012.6,2676.36 L 3003.55,2692.04 L 2997.95,2709.26 L 2996.06,2727.27M 2996.06,1090.68 L 2997.95,1108.69 L 3003.55,1125.91 L 3012.6,1141.59 L 3024.72,1155.05 L 3039.37,1165.69 L 3055.91,1173.06 L 3073.62,1176.82 L 3091.73,1176.82 L 3109.44,1173.06 L 3125.98,1165.69 L 3140.63,1155.05 L 3152.75,1141.59 L 3161.8,1125.91 L 3167.4,1108.69 L 3169.29,1090.68 L 3167.4,1072.68 L 3161.8,1055.45 L 3152.75,1039.77 L 3140.63,1026.32 L 3125.98,1015.67 L 3109.44,1008.31 L 3091.73,1004.54 L 3073.62,1004.54 L 3055.91,1008.31 L 3039.37,1015.67 L 3024.72,1026.32 L 3012.6,1039.77 L 3003.55,1055.45 L 2997.95,1072.68 L 2996.06,1090.68 z " style="fill-opacity:1.000000;fill:rgb(167,241,217);stroke:rgb(0,0,0);stroke-width:2"/></g>
<g fill-rule="evenodd"><path d="M 3240.16,2388.82 L 3240.16,1443.94 L 3528.74,1443.94 L 3528.74,2388.82 L 3240.16,2388.82 z " style="fill-opacity:1.000000;fill:rgb(42,130,200);stroke:rgb(0,0,0);stroke-width:2"/></g>
</svg>
