<?xml version="1.0" standalone="no"?>
<!DOCTYPE svg PUBLIC "-//W3C//DTD SVG 1.1//EN"
"http://www.w3.org/Graphics/SVG/1.1/DTD/svg11.dtd">
<svg width="171.458" height="180.994" viewBox="0 0 3572.05 3770.71" version="1.1"
xmlns="http://www.w3.org/2000/svg"
xmlns:xlink="http://www.w3.org/1999/xlink">
<g fill-rule="evenodd"><path d="M 66.9282,2794.57 L 66.9282,976.14 L 1641.73,66.9284 L 3216.53,976.14 L 3216.53,1420.32 L 2712.6,1420.32 L 2712.6,2365.2 L 3216.53,2365.2 L 3216.53,2794.57 L 1641.73,3703.78 L 66.9282,2794.57M 137.794,2703.65 L 139.686,2721.65 L 145.282,2738.87 L 154.336,2754.56 L 166.452,2768.01 L 181.102,2778.66 L 197.642,2786.02 L 215.354,2789.79 L 233.462,2789.79 L 251.174,2786.02 L 267.716,2778.66 L 282.364,2768.01 L 294.48,2754.56 L 303.534,2738.87 L 309.13,2721.65 L 311.022,2703.65 L 309.13,2685.64 L 303.534,2668.42 L 294.48,2652.73 L 282.364,2639.28 L 267.716,2628.64 L 251.174,2621.27 L 233.462,2617.51 L 215.354,2617.51 L 197.642,2621.27 L 181.102,2628.64 L 166.452,2639.28 L 154.336,2652.73 L 145.282,2668.42 L 139.686,2685.64 L 137.794,2703.65M 137.794,1067.06 L 139.686,1085.07 L 145.282,1102.29 L 154.336,1117.97 L 166.452,1131.43 L 181.102,1142.07 L 197.642,1149.44 L 215.354,1153.2 L 233.462,1153.2 L 251.174,1149.44 L 267.716,1142.07 L 282.364,1131.43 L 294.48,1117.97 L 303.534,1102.29 L 309.13,1085.07 L 311.022,1067.06 L 309.13,1049.05 L 303.534,1031.83 L 294.48,1016.15 L 282.364,1002.7 L 267.716,992.052 L 251.174,984.688 L 233.462,980.922 L 215.354,980.922 L 197.642,984.688 L 181.102,992.052 L 166.452,1002.7 L 154.336,1016.15 L 145.282,1031.83 L 139.686,1049.05 L 137.794,1067.06M 1555.12,3521.94 L 1557.01,3539.95 L 1562.61,3557.17 L 1571.66,3572.85 L 1583.77,3586.3 L 1598.42,3596.95 L 1614.97,3604.31 L 1632.68,3608.08 L 1650.78,3608.08 L 1668.5,3604.31 L 1685.04,3596.95 L 1699.69,3586.3 L 1711.8,3572.85 L 1720.86,3557.17 L 1726.45,3539.95 L 1728.35,3521.94 L 1726.45,3503.93 L 1720.86,3486.71 L 1711.8,3471.03 L 1699.69,3457.57 L 1685.04,3446.93 L 1668.5,3439.56 L 1650.78,3435.8 L 1632.68,3435.8 L 1614.97,3439.56 L 1598.42,3446.93 L 1583.77,3457.57 L 1571.66,3471.03 L 1562.61,3486.71 L 1557.01,3503.93 L 1555.12,3521.94M 1555.12,248.77 L 1557.01,266.778 L 1562.61,284 L 1571.66,299.68 L 1583.77,313.138 L 1598.42,323.78 L 1614.97,331.146 L 1632.68,334.91 L 1650.78,334.91 L 1668.5,331.146 L 1685.04,323.78 L 1699.69,313.138 L 1711.8,299.68 L 1720.86,284 L 1726.45,266.778 L 1728.35,248.77 L 1726.45,230.762 L 1720.86,213.542 L 1711.8,197.86 L 1699.69,184.404 L 1685.04,173.76 L 1668.5,166.396 L 1650.78,162.63 L 1632.68,162.63 L 1614.97,166.396 L 1598.42,173.76 L 1583.77,184.404 L 1571.66,197.86 L 1562.61,213.542 L 1557.01,230.762 L 1555.12,248.77M 2972.44,2703.65 L 2974.33,2721.65 L 2979.93,2738.87 L 2988.98,2754.56 L 3001.1,2768.01 L 3015.75,2778.66 L 3032.29,2786.02 L 3050,2789.79 L 3068.11,2789.79 L 3085.82,2786.02 L 3102.36,2778.66 L 3117.01,2768.01 L 3129.13,2754.56 L 3138.18,2738.87 L 3143.78,2721.65 L 3145.67,2703.65 L 3143.78,2685.64 L 3138.18,2668.42 L 3129.13,2652.73 L 3117.01,2639.28 L 3102.36,2628.64 L 3085.82,2621.27 L 3068.11,2617.51 L 3050,2617.51 L 3032.29,2621.27 L 3015.75,2628.64 L 3001.1,2639.28 L 2988.98,2652.73 L 2979.93,2668.42 L 2974.33,2685.64 L 2972.44,2703.65M 2972.44,1067.06 L 2974.33,1085.07 L 2979.93,1102.29 L 2988.98,1117.97 L 3001.1,1131.43 L 3015.75,1142.07 L 3032.29,1149.44 L 3050,1153.2 L 3068.11,1153.2 L 3085.82,1149.44 L 3102.36,1142.07 L 3117.01,1131.43 L 3129.13,1117.97 L 3138.18,1102.29 L 3143.78,1085.07 L 3145.67,1067.06 L 3143.78,1049.05 L 3138.18,1031.83 L 3129.13,1016.15 L 3117.01,1002.7 L 3102.36,992.052 L 3085.82,984.688 L 3068.11,980.922 L 3050,980.922 L 3032.29,984.688 L 3015.75,992.052 L 3001.1,1002.7 L 2988.98,1016.15 L 2979.93,1031.83 L 2974.33,1049.05 L 2972.44,1067.06 z " style="fill-opacity:1.000000;fill:rgb(103,198,105);stroke:rgb(0,0,0);stroke-width:2"/></g>
<g fill-rule="evenodd"><path d="M 3216.53,2365.2 L 3216.53,1420.32 L 3505.12,1420.32 L 3505.12,2365.2 L 3216.53,2365.2 z " style="fill-opacity:1.000000;fill:rgb(115,81,255);stroke:rgb(0,0,0);stroke-width:2"/></g>
</svg>
