<?xml version="1.0" standalone="no"?>
<!DOCTYPE svg PUBLIC "-//W3C//DTD SVG 1.1//EN"
"http://www.w3.org/Graphics/SVG/1.1/DTD/svg11.dtd">
<svg width="173.726" height="183.262" viewBox="0 0 3619.29 3817.95" version="1.1"
xmlns="http://www.w3.org/2000/svg"
xmlns:xlink="http://www.w3.org/1999/xlink">
<g fill-rule="evenodd"><path d="M 3619.29,1075.86 L 3617.02,1077.56 L 3570.26,1116.46 L 3528.74,1155.36 L 3240.16,1443.94 L 2988.19,1695.91 L 2988.19,2136.85 L 3240.16,2388.82 L 3528.74,2677.4 L 3566.08,2712.6 L 3607.72,2747.79 L 3619.29,2756.66 L 3619.29,3817.95 L 0,3817.95 L 0,0 L 3619.29,0 L 3619.29,1075.86 z " style="fill-opacity:0.200000;fill:rgb(167,241,217);"/></g>
<g fill-rule="evenodd"><path d="M 3619.29,1075.86 L 3619.29,2756.66 L 3607.72,2747.79 L 3566.08,2712.6 L 3528.74,2677.4 L 3240.16,2388.82 L 2988.19,2136.85 L 2988.19,1695.91 L 3240.16,1443.94 L 3528.74,1155.36 L 3570.26,1116.46 L 3617.02,1077.56 L 3619.29,1075.86 z " style="fill-opacity:0.200000;fill:rgb(42,130,200);"/></g>
<polyline points="47.2423,2818.19 47.9003,2825.71 49.8543,2833 53.0443,2839.84 57.3743,2846.02 62.7123,2851.36 68.8963,2855.69 1643.7,3764.91 1650.54,3768.1 1657.83,3770.05 1665.35,3770.71 1672.87,3770.05 1680.16,3768.1 1687.01,3764.91 3261.81,2855.69 3267.99,2851.36 3273.33,2846.02 3277.66,2839.84 3280.85,2833 3282.8,2825.71 3283.46,2818.19 3283.46,2493.37 3283.46,2432.12 3196.85,2345.51 2779.53,2345.51 2779.53,1487.24 3135.6,1487.24 3196.85,1487.24 3283.46,1400.63 3283.46,999.762 3282.8,992.24 3280.85,984.95 3277.66,978.108 3273.33,971.924 3267.99,966.586 3261.81,962.256 1687.01,53.0445 1680.16,49.8545 1672.87,47.9005 1665.35,47.2425 1657.83,47.9005 1650.54,49.8545 1643.7,53.0445 68.8963,962.256 62.7123,966.586 57.3743,971.924 53.0443,978.108 49.8543,984.95 47.9003,992.24 47.2423,999.762 47.2423,2818.19" style="stroke:rgb(167,241,217);stroke-width:86.614173;fill:none;stroke-opacity:0.5;stroke-linecap:round;stroke-linejoin:round;;fill:none"/>
<polyline points="47.2423,2818.19 47.9003,2825.71 49.8543,2833 53.0443,2839.84 57.3743,2846.02 62.7123,2851.36 68.8963,2855.69 1643.7,3764.91 1650.54,3768.1 1657.83,3770.05 1665.35,3770.71 1672.87,3770.05 1680.16,3768.1 1687.01,3764.91 3261.81,2855.69 3267.99,2851.36 3273.33,2846.02 3277.66,2839.84 3280.85,2833 3282.8,2825.71 3283.46,2818.19 3283.46,2493.37 3283.46,2432.12 3196.85,2345.51 2779.53,2345.51 2779.53,1487.24 3135.6,1487.24 3196.85,1487.24 3283.46,1400.63 3283.46,999.762 3282.8,992.24 3280.85,984.95 3277.66,978.108 3273.33,971.924 3267.99,966.586 3261.81,962.256 1687.01,53.0445 1680.16,49.8545 1672.87,47.9005 1665.35,47.2425 1657.83,47.9005 1650.54,49.8545 1643.7,53.0445 68.8963,962.256 62.7123,966.586 57.3743,971.924 53.0443,978.108 49.8543,984.95 47.9003,992.24 47.2423,999.762 47.2423,2818.19" style="stroke:rgb(0,0,0);stroke-width:1px;fill:none;stroke-opacity:1;stroke-linecap:round;stroke-linejoin:round;;fill:none"/>
<polyline points="1622.28,3545.56 1623.22,3536.61 1626.01,3528.04 1630.51,3520.24 1636.53,3513.55 1643.82,3508.26 1652.04,3504.6 1660.85,3502.73 1669.85,3502.73 1678.66,3504.6 1686.89,3508.26 1694.17,3513.55 1700.2,3520.24 1704.7,3528.04 1707.48,3536.6 1708.42,3545.56 1707.48,3554.51 1704.7,3563.08 1700.2,3570.87 1694.17,3577.56 1686.89,3582.86 1678.66,3586.52 1669.85,3588.39 1660.85,3588.39 1652.04,3586.52 1643.82,3582.86 1636.53,3577.56 1630.51,3570.87 1626.01,3563.08 1623.22,3554.51 1622.28,3545.56" style="stroke:rgb(167,241,217);stroke-width:86.614173;fill:none;stroke-opacity:0.5;stroke-linecap:round;stroke-linejoin:round;;fill:none"/>
<polyline points="1622.28,3545.56 1623.22,3536.61 1626.01,3528.04 1630.51,3520.24 1636.53,3513.55 1643.82,3508.26 1652.04,3504.6 1660.85,3502.73 1669.85,3502.73 1678.66,3504.6 1686.89,3508.26 1694.17,3513.55 1700.2,3520.24 1704.7,3528.04 1707.48,3536.6 1708.42,3545.56 1707.48,3554.51 1704.7,3563.08 1700.2,3570.87 1694.17,3577.56 1686.89,3582.86 1678.66,3586.52 1669.85,3588.39 1660.85,3588.39 1652.04,3586.52 1643.82,3582.86 1636.53,3577.56 1630.51,3570.87 1626.01,3563.08 1623.22,3554.51 1622.28,3545.56" style="stroke:rgb(0,0,0);stroke-width:1px;fill:none;stroke-opacity:1;stroke-linecap:round;stroke-linejoin:round;;fill:none"/>
<polyline points="1622.28,272.392 1623.22,263.44 1626.01,254.874 1630.51,247.076 1636.53,240.386 1643.82,235.094 1652.04,231.432 1660.85,229.558 1669.85,229.558 1678.66,231.432 1686.89,235.094 1694.17,240.386 1700.2,247.076 1704.7,254.874 1707.48,263.436 1708.42,272.392 1707.48,281.346 1704.7,289.91 1700.2,297.706 1694.17,304.398 1686.89,309.69 1678.66,313.352 1669.85,315.224 1660.85,315.224 1652.04,313.352 1643.82,309.69 1636.53,304.398 1630.51,297.708 1626.01,289.91 1623.22,281.344 1622.28,272.392" style="stroke:rgb(167,241,217);stroke-width:86.614173;fill:none;stroke-opacity:0.5;stroke-linecap:round;stroke-linejoin:round;;fill:none"/>
<polyline points="1622.28,272.392 1623.22,263.44 1626.01,254.874 1630.51,247.076 1636.53,240.386 1643.82,235.094 1652.04,231.432 1660.85,229.558 1669.85,229.558 1678.66,231.432 1686.89,235.094 1694.17,240.386 1700.2,247.076 1704.7,254.874 1707.48,263.436 1708.42,272.392 1707.48,281.346 1704.7,289.91 1700.2,297.706 1694.17,304.398 1686.89,309.69 1678.66,313.352 1669.85,315.224 1660.85,315.224 1652.04,313.352 1643.82,309.69 1636.53,304.398 1630.51,297.708 1626.01,289.91 1623.22,281.344 1622.28,272.392" style="stroke:rgb(0,0,0);stroke-width:1px;fill:none;stroke-opacity:1;stroke-linecap:round;stroke-linejoin:round;;fill:none"/>
<polyline points="204.96,2727.27 205.902,2718.31 208.684,2709.75 213.186,2701.95 219.21,2695.26 226.496,2689.97 234.72,2686.31 243.526,2684.43 252.532,2684.43 261.338,2686.31 269.564,2689.97 276.848,2695.26 282.872,2701.95 287.374,2709.75 290.156,2718.31 291.098,2727.27 290.156,2736.22 287.374,2744.78 282.872,2752.58 276.846,2759.27 269.564,2764.57 261.338,2768.23 252.53,2770.1 243.528,2770.1 234.72,2768.23 226.496,2764.57 219.21,2759.27 213.186,2752.58 208.684,2744.78 205.902,2736.22 204.96,2727.27" style="stroke:rgb(167,241,217);stroke-width:86.614173;fill:none;stroke-opacity:0.5;stroke-linecap:round;stroke-linejoin:round;;fill:none"/>
<polyline points="204.96,2727.27 205.902,2718.31 208.684,2709.75 213.186,2701.95 219.21,2695.26 226.496,2689.97 234.72,2686.31 243.526,2684.43 252.532,2684.43 261.338,2686.31 269.564,2689.97 276.848,2695.26 282.872,2701.95 287.374,2709.75 290.156,2718.31 291.098,2727.27 290.156,2736.22 287.374,2744.78 282.872,2752.58 276.846,2759.27 269.564,2764.57 261.338,2768.23 252.53,2770.1 243.528,2770.1 234.72,2768.23 226.496,2764.57 219.21,2759.27 213.186,2752.58 208.684,2744.78 205.902,2736.22 204.96,2727.27" style="stroke:rgb(0,0,0);stroke-width:1px;fill:none;stroke-opacity:1;stroke-linecap:round;stroke-linejoin:round;;fill:none"/>
<polyline points="204.96,1090.68 205.902,1081.73 208.684,1073.17 213.186,1065.37 219.21,1058.68 226.496,1053.38 234.72,1049.72 243.528,1047.85 252.53,1047.85 261.338,1049.72 269.564,1053.38 276.846,1058.68 282.872,1065.37 287.374,1073.17 290.156,1081.73 291.098,1090.68 290.156,1099.64 287.374,1108.2 282.872,1116 276.846,1122.69 269.564,1127.98 261.338,1131.64 252.53,1133.52 243.528,1133.52 234.72,1131.64 226.496,1127.98 219.21,1122.69 213.186,1116 208.684,1108.2 205.902,1099.64 204.96,1090.68" style="stroke:rgb(167,241,217);stroke-width:86.614173;fill:none;stroke-opacity:0.5;stroke-linecap:round;stroke-linejoin:round;;fill:none"/>
<polyline points="204.96,1090.68 205.902,1081.73 208.684,1073.17 213.186,1065.37 219.21,1058.68 226.496,1053.38 234.72,1049.72 243.528,1047.85 252.53,1047.85 261.338,1049.72 269.564,1053.38 276.846,1058.68 282.872,1065.37 287.374,1073.17 290.156,1081.73 291.098,1090.68 290.156,1099.64 287.374,1108.2 282.872,1116 276.846,1122.69 269.564,1127.98 261.338,1131.64 252.53,1133.52 243.528,1133.52 234.72,1131.64 226.496,1127.98 219.21,1122.69 213.186,1116 208.684,1108.2 205.902,1099.64 204.96,1090.68" style="stroke:rgb(0,0,0);stroke-width:1px;fill:none;stroke-opacity:1;stroke-linecap:round;stroke-linejoin:round;;fill:none"/>
<polyline points="3039.61,2727.27 3040.55,2718.31 3043.33,2709.75 3047.83,2701.95 3053.86,2695.26 3061.14,2689.97 3069.37,2686.31 3078.17,2684.43 3087.18,2684.43 3095.98,2686.31 3104.21,2689.97 3111.49,2695.26 3117.52,2701.95 3122.02,2709.75 3124.8,2718.31 3125.74,2727.27 3124.8,2736.22 3122.02,2744.78 3117.52,2752.58 3111.49,2759.27 3104.21,2764.57 3095.98,2768.23 3087.18,2770.1 3078.17,2770.1 3069.37,2768.23 3061.14,2764.57 3053.86,2759.27 3047.83,2752.58 3043.33,2744.78 3040.55,2736.22 3039.61,2727.27" style="stroke:rgb(167,241,217);stroke-width:86.614173;fill:none;stroke-opacity:0.5;stroke-linecap:round;stroke-linejoin:round;;fill:none"/>
<polyline points="3039.61,2727.27 3040.55,2718.31 3043.33,2709.75 3047.83,2701.95 3053.86,2695.26 3061.14,2689.97 3069.37,2686.31 3078.17,2684.43 3087.18,2684.43 3095.98,2686.31 3104.21,2689.97 3111.49,2695.26 3117.52,2701.95 3122.02,2709.75 3124.8,2718.31 3125.74,2727.27 3124.8,2736.22 3122.02,2744.78 3117.52,2752.58 3111.49,2759.27 3104.21,2764.57 3095.98,2768.23 3087.18,2770.1 3078.17,2770.1 3069.37,2768.23 3061.14,2764.57 3053.86,2759.27 3047.83,2752.58 3043.33,2744.78 3040.55,2736.22 3039.61,2727.27" style="stroke:rgb(0,0,0);stroke-width:1px;fill:none;stroke-opacity:1;stroke-linecap:round;stroke-linejoin:round;;fill:none"/>
<polyline points="3039.61,1090.68 3040.55,1081.73 3043.33,1073.17 3047.83,1065.37 3053.86,1058.68 3061.14,1053.38 3069.37,1049.72 3078.17,1047.85 3087.18,1047.85 3095.98,1049.72 3104.21,1053.38 3111.49,1058.68 3117.52,1065.37 3122.02,1073.17 3124.8,1081.73 3125.74,1090.68 3124.8,1099.64 3122.02,1108.2 3117.52,1116 3111.49,1122.69 3104.21,1127.98 3095.98,1131.64 3087.18,1133.52 3078.17,1133.52 3069.37,1131.64 3061.14,1127.98 3053.86,1122.69 3047.83,1116 3043.33,1108.2 3040.55,1099.64 3039.61,1090.68" style="stroke:rgb(167,241,217);stroke-width:86.614173;fill:none;stroke-opacity:0.5;stroke-linecap:round;stroke-linejoin:round;;fill:none"/>
<polyline points="3039.61,1090.68 3040.55,1081.73 3043.33,1073.17 3047.83,1065.37 3053.86,1058.68 3061.14,1053.38 3069.37,1049.72 3078.17,1047.85 3087.18,1047.85 3095.98,1049.72 3104.21,1053.38 3111.49,1058.68 3117.52,1065.37 3122.02,1073.17 3124.8,1081.73 3125.74,1090.68 3124.8,1099.64 3122.02,1108.2 3117.52,1116 3111.49,1122.69 3104.21,1127.98 3095.98,1131.64 3087.18,1133.52 3078.17,1133.52 3069.37,1131.64 3061.14,1127.98 3053.86,1122.69 3047.83,1116 3043.33,1108.2 3040.55,1099.64 3039.61,1090.68" style="stroke:rgb(0,0,0);stroke-width:1px;fill:none;stroke-opacity:1;stroke-linecap:round;stroke-linejoin:round;;fill:none"/>
<polyline points="3196.85,2345.51 3283.46,2432.13 3528.74,2432.13 3537.19,2431.29 3545.31,2428.83 3552.8,2424.83 3559.36,2419.44 3564.75,2412.88 3568.75,2405.39 3571.21,2397.27 3572.04,2388.82 3572.04,1443.94 3571.21,1435.49 3568.75,1427.36 3564.75,1419.88 3559.36,1413.31 3552.8,1407.93 3545.31,1403.93 3537.19,1401.46 3528.74,1400.63 3344.71,1400.63 3283.46,1400.63 3196.85,1487.24 3196.85,2345.51" style="stroke:rgb(42,130,200);stroke-width:86.614173;fill:none;stroke-opacity:0.5;stroke-linecap:round;stroke-linejoin:round;;fill:none"/>
<polyline points="3196.85,2345.51 3283.46,2432.13 3528.74,2432.13 3537.19,2431.29 3545.31,2428.83 3552.8,2424.83 3559.36,2419.44 3564.75,2412.88 3568.75,2405.39 3571.21,2397.27 3572.04,2388.82 3572.04,1443.94 3571.21,1435.49 3568.75,1427.36 3564.75,1419.88 3559.36,1413.31 3552.8,1407.93 3545.31,1403.93 3537.19,1401.46 3528.74,1400.63 3344.71,1400.63 3283.46,1400.63 3196.85,1487.24 3196.85,2345.51" style="stroke:rgb(0,0,0);stroke-width:1px;fill:none;stroke-opacity:1;stroke-linecap:round;stroke-linejoin:round;;fill:none"/>
<g fill-rule="evenodd"><path d="M 90.5503,2818.19 L 90.5503,999.762 L 1665.35,90.5505 L 3240.16,999.762 L 3240.16,1443.94 L 2736.22,1443.94 L 2736.22,2388.82 L 3240.16,2388.82 L 3240.16,2818.19 L 1665.35,3727.4 L 90.5503,2818.19M 161.416,2727.27 L 163.308,2745.28 L 168.904,2762.5 L 177.958,2778.18 L 190.074,2791.63 L 204.724,2802.28 L 221.264,2809.64 L 238.976,2813.41 L 257.084,2813.41 L 274.796,2809.64 L 291.338,2802.28 L 305.986,2791.63 L 318.102,2778.18 L 327.156,2762.5 L 332.752,2745.28 L 334.644,2727.27 L 332.752,2709.26 L 327.156,2692.04 L 318.102,2676.36 L 305.986,2662.9 L 291.338,2652.26 L 274.796,2644.89 L 257.084,2641.13 L 238.976,2641.13 L 221.264,2644.89 L 204.724,2652.26 L 190.074,2662.9 L 177.958,2676.36 L 168.904,2692.04 L 163.308,2709.26 L 161.416,2727.27M 161.416,1090.68 L 163.308,1108.69 L 168.904,1125.91 L 177.958,1141.59 L 190.074,1155.05 L 204.724,1165.69 L 221.264,1173.06 L 238.976,1176.82 L 257.084,1176.82 L 274.796,1173.06 L 291.338,1165.69 L 305.986,1155.05 L 318.102,1141.59 L 327.156,1125.91 L 332.752,1108.69 L 334.644,1090.68 L 332.752,1072.68 L 327.156,1055.45 L 318.102,1039.77 L 305.986,1026.32 L 291.338,1015.67 L 274.796,1008.31 L 257.084,1004.54 L 238.976,1004.54 L 221.264,1008.31 L 204.724,1015.67 L 190.074,1026.32 L 177.958,1039.77 L 168.904,1055.45 L 163.308,1072.68 L 161.416,1090.68M 1578.74,3545.56 L 1580.63,3563.57 L 1586.23,3580.79 L 1595.28,3596.47 L 1607.4,3609.93 L 1622.05,3620.57 L 1638.59,3627.93 L 1656.3,3631.7 L 1674.41,3631.7 L 1692.12,3627.93 L 1708.66,3620.57 L 1723.31,3609.93 L 1735.43,3596.47 L 1744.48,3580.79 L 1750.07,3563.57 L 1751.97,3545.56 L 1750.07,3527.55 L 1744.48,3510.33 L 1735.43,3494.65 L 1723.31,3481.19 L 1708.66,3470.55 L 1692.12,3463.18 L 1674.41,3459.42 L 1656.3,3459.42 L 1638.59,3463.18 L 1622.05,3470.55 L 1607.4,3481.19 L 1595.28,3494.65 L 1586.23,3510.33 L 1580.63,3527.55 L 1578.74,3545.56M 1578.74,272.392 L 1580.63,290.4 L 1586.23,307.622 L 1595.28,323.302 L 1607.4,336.76 L 1622.05,347.402 L 1638.59,354.768 L 1656.3,358.532 L 1674.41,358.532 L 1692.12,354.768 L 1708.66,347.402 L 1723.31,336.76 L 1735.43,323.302 L 1744.48,307.622 L 1750.07,290.4 L 1751.97,272.392 L 1750.07,254.384 L 1744.48,237.164 L 1735.43,221.482 L 1723.31,208.026 L 1708.66,197.382 L 1692.12,190.018 L 1674.41,186.252 L 1656.3,186.252 L 1638.59,190.018 L 1622.05,197.382 L 1607.4,208.026 L 1595.28,221.482 L 1586.23,237.164 L 1580.63,254.384 L 1578.74,272.392M 2996.06,2727.27 L 2997.95,2745.28 L 3003.55,2762.5 L 3012.6,2778.18 L 3024.72,2791.63 L 3039.37,2802.28 L 3055.91,2809.64 L 3073.62,2813.41 L 3091.73,2813.41 L 3109.44,2809.64 L 3125.98,2802.28 L 3140.63,2791.63 L 3152.75,2778.18 L 3161.8,2762.5 L 3167.4,2745.28 L 3169.29,2727.27 L 3167.4,2709.26 L 3161.8,2692.04 L 3152.75,2676.36 L 3140.63,2662.9 L 3125.98,2652.26 L 3109.44,2644.89 L 3091.73,2641.13 L 3073.62,2641.13 L 3055.91,2644.89 L 3039.37,2652.26 L 3024.72,2662.9 L 3012.6,2676.36 L 3003.55,2692.04 L 2997.95,2709.26 L 2996.06,2727.27M 2996.06,1090.68 L 2997.95,1108.69 L 3003.55,1125.91 L 3012.6,1141.59 L 3024.72,1155.05 L 3039.37,1165.69 L 3055.91,1173.06 L 3073.62,1176.82 L 3091.73,1176.82 L 3109.44,1173.06 L 3125.98,1165.69 L 3140.63,1155.05 L 3152.75,1141.59 L 3161.8,1125.91 L 3167.4,1108.69 L 3169.29,1090.68 L 3167.4,1072.68 L 3161.8,1055.45 L 3152.75,1039.77 L 3140.63,1026.32 L 3125.98,1015.67 L 3109.44,1008.31 L 3091.73,1004.54 L 3073.62,1004.54 L 3055.91,1008.31 L 3039.37,1015.67 L 3024.72,1026.32 L 3012.6,1039.77 L 3003.55,1055.45 L 2997.95,1072.68 L 2996.06,1090.68 z " style="fill-opacity:1.000000;fill:rgb(167,241,217);stroke:rgb(0,0,0);stroke-width:2"/></g>
<g fill-rule="evenodd"><path d="M 3240.16,2388.82 L 3240.16,1443.94 L 3528.74,1443.94 L 3528.74,2388.82 L 3240.16,2388.82 z " style="fill-opacity:1.000000;fill:rgb(42,130,200);stroke:rgb(0,0,0);stroke-width:2"/></g>
</svg>
