<?xml version="1.0" standalone="no"?>
<!DOCTYPE svg PUBLIC "-//W3C//DTD SVG 1.1//EN"
"http://www.w3.org/Graphics/SVG/1.1/DTD/svg11.dtd">
<svg width="173.726" height="183.262" viewBox="0 0 3619.29 3817.95" version="1.1"
xmlns="http://www.w3.org/2000/svg"
xmlns:xlink="http://www.w3.org/1999/xlink">
<polyline points="152.798,1090.68 154.098,1075.01 157.958,1059.76 164.276,1045.36 172.88,1032.19 183.532,1020.62 195.942,1010.96 209.776,1003.47 224.65,998.366 240.166,995.778 255.894,995.778 271.408,998.366 286.28,1003.47 300.116,1010.96 312.528,1020.62 323.178,1032.19 331.782,1045.36 338.1,1059.76 341.96,1075.01 343.26,1090.68 341.96,1106.36 338.1,1121.6 331.782,1136.01 323.178,1149.18 312.526,1160.75 300.116,1170.41 286.282,1177.89 271.408,1183 255.894,1185.59 240.166,1185.59 224.65,1183 209.776,1177.89 195.942,1170.41 183.532,1160.75 172.88,1149.18 164.276,1136.01 157.958,1121.6 154.098,1106.36 152.798,1090.68 161.416,1090.68 163.222,1072.66 168.824,1055.42 177.886,1039.72 190.014,1026.25 204.68,1015.6 221.236,1008.23 238.966,1004.46 257.092,1004.46 274.822,1008.23 291.38,1015.6 306.044,1026.25 318.172,1039.72 327.234,1055.42 332.836,1072.66 334.73,1090.68 332.836,1108.71 327.234,1125.95 318.172,1141.64 306.044,1155.11 291.38,1165.77 274.822,1173.14 257.092,1176.91 238.966,1176.91 221.236,1173.14 204.68,1165.77 190.014,1155.11 177.886,1141.64 168.824,1125.95 163.222,1108.71 161.416,1090.68" style="stroke:rgb(167,241,217);stroke-width:31.496063;fill:none;stroke-opacity:0.5;stroke-linecap:round;stroke-linejoin:round;;fill:none"/>
<polyline points="152.798,1090.68 154.098,1075.01 157.958,1059.76 164.276,1045.36 172.88,1032.19 183.532,1020.62 195.942,1010.96 209.776,1003.47 224.65,998.366 240.166,995.778 255.894,995.778 271.408,998.366 286.28,1003.47 300.116,1010.96 312.528,1020.62 323.178,1032.19 331.782,1045.36 338.1,1059.76 341.96,1075.01 343.26,1090.68 341.96,1106.36 338.1,1121.6 331.782,1136.01 323.178,1149.18 312.526,1160.75 300.116,1170.41 286.282,1177.89 271.408,1183 255.894,1185.59 240.166,1185.59 224.65,1183 209.776,1177.89 195.942,1170.41 183.532,1160.75 172.88,1149.18 164.276,1136.01 157.958,1121.6 154.098,1106.36 152.798,1090.68 161.416,1090.68 163.222,1072.66 168.824,1055.42 177.886,1039.72 190.014,1026.25 204.68,1015.6 221.236,1008.23 238.966,1004.46 257.092,1004.46 274.822,1008.23 291.38,1015.6 306.044,1026.25 318.172,1039.72 327.234,1055.42 332.836,1072.66 334.73,1090.68 332.836,1108.71 327.234,1125.95 318.172,1141.64 306.044,1155.11 291.38,1165.77 274.822,1173.14 257.092,1176.91 238.966,1176.91 221.236,1173.14 204.68,1165.77 190.014,1155.11 177.886,1141.64 168.824,1125.95 163.222,1108.71 161.416,1090.68" style="stroke:rgb(0,0,0);stroke-width:1px;fill:none;stroke-opacity:1;stroke-linecap:round;stroke-linejoin:round;;fill:none"/>
<polyline points="1570.12,272.392 1571.42,256.718 1575.28,241.47 1581.6,227.066 1590.2,213.898 1600.85,202.328 1613.27,192.668 1627.1,185.182 1641.97,180.076 1657.49,177.486 1673.22,177.486 1688.73,180.076 1703.61,185.182 1717.44,192.668 1729.85,202.328 1740.5,213.898 1749.11,227.066 1755.42,241.47 1759.28,256.716 1760.58,272.392 1759.28,288.066 1755.42,303.312 1749.11,317.716 1740.5,330.884 1729.85,342.456 1717.44,352.116 1703.61,359.602 1688.73,364.708 1673.22,367.296 1657.49,367.296 1641.97,364.708 1627.1,359.602 1613.27,352.114 1600.85,342.454 1590.2,330.884 1581.6,317.716 1575.28,303.312 1571.42,288.066 1570.12,272.392 1578.74,272.392 1580.55,254.364 1586.15,237.128 1595.21,221.43 1607.34,207.96 1622,197.306 1638.56,189.934 1656.29,186.164 1674.41,186.164 1692.14,189.934 1708.7,197.306 1723.37,207.96 1735.5,221.43 1744.56,237.128 1750.16,254.364 1752.05,272.392 1750.16,290.418 1744.56,307.656 1735.5,323.352 1723.37,336.824 1708.7,347.476 1692.14,354.85 1674.41,358.618 1656.29,358.618 1638.56,354.85 1622,347.476 1607.34,336.824 1595.21,323.352 1586.15,307.656 1580.55,290.418 1578.74,272.392" style="stroke:rgb(167,241,217);stroke-width:31.496063;fill:none;stroke-opacity:0.5;stroke-linecap:round;stroke-linejoin:round;;fill:none"/>
<polyline points="1570.12,272.392 1571.42,256.718 1575.28,241.47 1581.6,227.066 1590.2,213.898 1600.85,202.328 1613.27,192.668 1627.1,185.182 1641.97,180.076 1657.49,177.486 1673.22,177.486 1688.73,180.076 1703.61,185.182 1717.44,192.668 1729.85,202.328 1740.5,213.898 1749.11,227.066 1755.42,241.47 1759.28,256.716 1760.58,272.392 1759.28,288.066 1755.42,303.312 1749.11,317.716 1740.5,330.884 1729.85,342.456 1717.44,352.116 1703.61,359.602 1688.73,364.708 1673.22,367.296 1657.49,367.296 1641.97,364.708 1627.1,359.602 1613.27,352.114 1600.85,342.454 1590.2,330.884 1581.6,317.716 1575.28,303.312 1571.42,288.066 1570.12,272.392 1578.74,272.392 1580.55,254.364 1586.15,237.128 1595.21,221.43 1607.34,207.96 1622,197.306 1638.56,189.934 1656.29,186.164 1674.41,186.164 1692.14,189.934 1708.7,197.306 1723.37,207.96 1735.5,221.43 1744.56,237.128 1750.16,254.364 1752.05,272.392 1750.16,290.418 1744.56,307.656 1735.5,323.352 1723.37,336.824 1708.7,347.476 1692.14,354.85 1674.41,358.618 1656.29,358.618 1638.56,354.85 1622,347.476 1607.34,336.824 1595.21,323.352 1586.15,307.656 1580.55,290.418 1578.74,272.392" style="stroke:rgb(0,0,0);stroke-width:1px;fill:none;stroke-opacity:1;stroke-linecap:round;stroke-linejoin:round;;fill:none"/>
<polyline points="2987.44,1090.68 2988.74,1075.01 2992.6,1059.76 2998.92,1045.36 3007.53,1032.19 3018.18,1020.62 3030.59,1010.96 3044.42,1003.47 3059.3,998.366 3074.81,995.778 3090.54,995.778 3106.05,998.366 3120.93,1003.47 3134.76,1010.96 3147.17,1020.62 3157.82,1032.19 3166.43,1045.36 3172.75,1059.76 3176.61,1075.01 3177.91,1090.68 3176.61,1106.36 3172.75,1121.6 3166.43,1136.01 3157.82,1149.18 3147.17,1160.75 3134.76,1170.41 3120.93,1177.89 3106.05,1183 3090.54,1185.59 3074.81,1185.59 3059.3,1183 3044.42,1177.89 3030.59,1170.41 3018.18,1160.75 3007.53,1149.18 2998.92,1136.01 2992.6,1121.6 2988.74,1106.36 2987.44,1090.68 2996.06,1090.68 2997.87,1072.66 3003.47,1055.42 3012.53,1039.72 3024.66,1026.25 3039.32,1015.6 3055.88,1008.23 3073.61,1004.46 3091.74,1004.46 3109.47,1008.23 3126.02,1015.6 3140.69,1026.25 3152.82,1039.72 3161.88,1055.42 3167.48,1072.66 3169.38,1090.68 3167.48,1108.71 3161.88,1125.95 3152.82,1141.64 3140.69,1155.11 3126.02,1165.77 3109.47,1173.14 3091.74,1176.91 3073.61,1176.91 3055.88,1173.14 3039.32,1165.77 3024.66,1155.11 3012.53,1141.64 3003.47,1125.95 2997.87,1108.71 2996.06,1090.68" style="stroke:rgb(167,241,217);stroke-width:31.496063;fill:none;stroke-opacity:0.5;stroke-linecap:round;stroke-linejoin:round;;fill:none"/>
<polyline points="2987.44,1090.68 2988.74,1075.01 2992.6,1059.76 2998.92,1045.36 3007.53,1032.19 3018.18,1020.62 3030.59,1010.96 3044.42,1003.47 3059.3,998.366 3074.81,995.778 3090.54,995.778 3106.05,998.366 3120.93,1003.47 3134.76,1010.96 3147.17,1020.62 3157.82,1032.19 3166.43,1045.36 3172.75,1059.76 3176.61,1075.01 3177.91,1090.68 3176.61,1106.36 3172.75,1121.6 3166.43,1136.01 3157.82,1149.18 3147.17,1160.75 3134.76,1170.41 3120.93,1177.89 3106.05,1183 3090.54,1185.59 3074.81,1185.59 3059.3,1183 3044.42,1177.89 3030.59,1170.41 3018.18,1160.75 3007.53,1149.18 2998.92,1136.01 2992.6,1121.6 2988.74,1106.36 2987.44,1090.68 2996.06,1090.68 2997.87,1072.66 3003.47,1055.42 3012.53,1039.72 3024.66,1026.25 3039.32,1015.6 3055.88,1008.23 3073.61,1004.46 3091.74,1004.46 3109.47,1008.23 3126.02,1015.6 3140.69,1026.25 3152.82,1039.72 3161.88,1055.42 3167.48,1072.66 3169.38,1090.68 3167.48,1108.71 3161.88,1125.95 3152.82,1141.64 3140.69,1155.11 3126.02,1165.77 3109.47,1173.14 3091.74,1176.91 3073.61,1176.91 3055.88,1173.14 3039.32,1165.77 3024.66,1155.11 3012.53,1141.64 3003.47,1125.95 2997.87,1108.71 2996.06,1090.68" style="stroke:rgb(0,0,0);stroke-width:1px;fill:none;stroke-opacity:1;stroke-linecap:round;stroke-linejoin:round;;fill:none"/>
<polyline points="3528.66,1443.94 3527.87,1454.96 3518.31,1498.88 3516.76,1504.16 3494.53,1559.71 3462.19,1610.05 3420.91,1653.36 3416.76,1656.97 3374.4,1687.92 3327.49,1711.41 3277.33,1726.78 3240.16,1733.03 3240.16,1717.1 3273.99,1711.39 3321.64,1696.79 3366.2,1674.47 3406.44,1645.07 3410.59,1641.47 3449.81,1600.31 3480.53,1552.49 3501.65,1499.72 3503.2,1494.44 3512.28,1452.72 3512.91,1443.94 3497.16,1443.94 3496.69,1450.48 3488.09,1490.01 3486.54,1495.28 3466.53,1545.28 3437.43,1590.58 3400.28,1629.57 3396.12,1633.17 3358,1661.03 3315.78,1682.17 3270.64,1696.01 3240.16,1701.17 3240.16,1685.24 3267.3,1680.62 3309.93,1667.55 3349.8,1647.58 3385.8,1621.27 3389.96,1617.67 3425.04,1580.85 3452.53,1538.06 3471.43,1490.85 3472.98,1485.57 3481.11,1448.24 3481.41,1443.94 3465.67,1443.94 3465.52,1446 3457.87,1481.13 3456.32,1486.41 3438.54,1530.85 3412.66,1571.12 3379.64,1605.77 3375.49,1609.38 3341.6,1634.14 3304.07,1652.93 3263.95,1665.23 3240.16,1669.31 3240.16,1653.38 3260.6,1649.84 3298.22,1638.31 3333.4,1620.69 3365.17,1597.48 3369.33,1593.87 3400.28,1561.39 3424.54,1523.63 3441.21,1481.97 3442.76,1476.69 3449.89,1443.94 3433.82,1443.94 3427.65,1472.26 3426.1,1477.53 3410.54,1516.42 3387.9,1551.66 3359.01,1581.98 3354.85,1585.58 3325.2,1607.25 3292.37,1623.69 3257.26,1634.45 3240.16,1637.45 3240.16,1621.52 3253.91,1619.06 3286.51,1609.07 3317,1593.8 3344.53,1573.68 3348.69,1570.08 3375.52,1541.92 3396.54,1509.2 3410.99,1473.1 3412.54,1467.82 3417.74,1443.94 3385.59,1443.94 3401.66,1443.94 3397.43,1463.38 3395.88,1468.66 3382.54,1501.99 3363.14,1532.19 3338.37,1558.18 3334.22,1561.79 3308.8,1580.36 3280.66,1594.45 3250.56,1603.68 3240.16,1605.59 3240.16,1589.66 3247.22,1588.29 3274.8,1579.83 3300.6,1566.91 3323.9,1549.89 3328.06,1546.28 3350.76,1522.46 3368.54,1494.77 3380.77,1464.22 3382.32,1458.94 3385.59,1443.94 3369.51,1443.94 3367.21,1454.51 3365.66,1459.78 3354.55,1487.56 3338.38,1512.73 3317.74,1534.39 3313.58,1537.99 3292.4,1553.47 3268.95,1565.21 3243.87,1572.9 3240.16,1573.71 3240.16,1557.59 3263.1,1550.59 3284.2,1540.02 3303.27,1526.09 3307.42,1522.49 3326,1503 3340.55,1480.34 3350.55,1455.35 3352.1,1450.07 3353.44,1443.94 3337.36,1443.94 3335.44,1450.91 3326.55,1473.13 3313.61,1493.27 3297.1,1510.59 3292.95,1514.2 3276,1526.58 3257.24,1535.97 3240.16,1541.21 3240.16,1508.38 3240.16,1524.8 3251.39,1521.35 3267.81,1513.13 3282.63,1502.3 3286.79,1498.69 3301.23,1483.53 3312.55,1465.91 3320.33,1446.47 3321.08,1443.94 3304.46,1443.94 3298.55,1458.7 3288.85,1473.8 3276.47,1486.8 3272.31,1490.4 3259.61,1499.69 3245.53,1506.73 3240.16,1508.38 3240.16,1491.87 3251.41,1486.24 3262,1478.5 3266.15,1474.9 3276.47,1464.07 3284.56,1451.48 3287.58,1443.94 3270.69,1443.94 3264.09,1454.34 3255.83,1463 3251.68,1466.61 3243.21,1472.8 3240.16,1474.32 3240.16,1455.59 3245.52,1451.1 3252.14,1443.94 3245.52,1451.1 3240.16,1455.59 3240.16,1433.59 3239.33,1434.87 3235.2,1439.21 3229.5,1443.94 3235.2,1439.21 3239.33,1434.87 3240.16,1433.59 3240.16,999.762 1665.35,90.5505 90.5503,999.762 90.5503,2818.19 98.8403,2798.67 99.2843,2802.38 100.368,2806.85 101.246,2809.46 102.562,2811.87 108.076,2818 111.596,2820.77 1652.6,3710.46 1656.03,3711.93 1660.45,3713.23 1663.14,3713.77 1665.89,3713.84 1673.95,3712.13 1678.11,3710.46 3219.11,2820.77 3222.1,2818.53 3225.43,2815.35 3227.25,2813.29 3228.68,2810.94 3231.23,2803.11 3231.86,2798.67 3231.86,2422.62 3230.62,2415.22 3229.85,2412.71 3228.68,2410.37 3223.53,2404.09 3221.37,2402.03 3218.85,2400.41 3216.07,2399.3 3210.79,2397.75 3206.35,2397.11 2735.13,2397.11 2733.02,2396.54 2731.13,2395.45 2729.58,2393.91 2728.49,2392.02 2727.93,2389.91 2727.93,1442.84 2728.49,1440.74 2729.58,1438.85 2731.13,1437.3 2733.02,1436.21 2735.13,1435.65 3206.35,1435.65 3209.7,1435.29 3216.26,1433.63 3218.61,1432.46 3220.73,1430.91 3224.88,1427.31 3226.95,1425.14 3228.56,1422.63 3231.22,1414.57 3231.86,1410.13 3231.86,1019.28 3231.42,1015.57 3230.34,1011.09 3229.46,1008.49 3228.14,1006.08 3222.63,999.952 3219.11,997.184 1678.11,107.486 1674.67,106.014 1667.56,104.178 1664.82,104.112 1662.11,104.524 1654.62,106.504 111.596,997.184 108.606,999.424 105.274,1002.6 103.458,1004.66 102.03,1007 99.4803,1014.84 98.8403,1019.28 98.8403,2798.67 90.5503,2818.19 1665.35,3727.4 3240.16,2818.19 3240.16,2084.57 3253.42,2085.52 3299.54,2095.55 3304.82,2097.1 3363.19,2120.47 3416.09,2154.47 3461.59,2197.87 3465.19,2202.03 3497.64,2246.47 3522.26,2295.68 3528.74,2316.8 3528.74,2388.82 3270.54,2388.82 3288.09,2388.82 3282.47,2377.59 3274.75,2367.01 3271.15,2362.85 3260.31,2352.52 3247.72,2344.42 3240.16,2341.39 3240.16,2324.51 3254.93,2330.42 3270.05,2340.14 3283.05,2352.54 3286.65,2356.7 3295.92,2369.4 3302.96,2383.45 3304.6,2388.82 3321.01,2388.82 3317.58,2377.6 3309.37,2361.2 3298.55,2346.38 3294.95,2342.23 3279.78,2327.76 3262.15,2316.43 3242.69,2308.64 3240.16,2307.89 3240.16,2291.61 3247.13,2293.53 3269.37,2302.43 3289.52,2315.38 3306.85,2331.92 3310.46,2336.07 3322.82,2353.01 3332.2,2371.75 3337.43,2388.82 3417.74,2388.82 3415.28,2375.06 3405.3,2342.49 3390.06,2312.03 3369.97,2284.52 3366.37,2280.36 3338.2,2253.5 3305.45,2232.45 3269.32,2217.98 3264.04,2216.43 3240.16,2211.23 3240.16,2195.15 3268.48,2201.32 3273.75,2202.87 3312.67,2218.45 3347.94,2241.12 3378.27,2270.05 3381.87,2274.21 3403.5,2303.84 3419.92,2336.64 3430.67,2371.71 3433.67,2388.82 3449.6,2388.82 3446.06,2368.37 3434.54,2330.79 3416.95,2295.64 3393.78,2263.89 3390.17,2259.74 3357.67,2228.74 3319.89,2204.45 3278.19,2187.76 3272.91,2186.21 3240.16,2179.08 3240.16,2100.31 3251.18,2101.1 3295.1,2110.66 3300.38,2112.21 3355.97,2134.47 3406.35,2166.85 3449.69,2208.18 3453.29,2212.34 3484.19,2254.67 3507.64,2301.53 3523,2351.64 3528.74,2385.66 3528.74,2388.82 3497.39,2388.82 3513.32,2388.82 3507.61,2354.99 3493.02,2307.38 3470.74,2262.86 3441.39,2222.65 3437.79,2218.49 3396.62,2179.23 3348.76,2148.46 3295.94,2127.32 3290.66,2125.77 3248.94,2116.69 3240.16,2116.06 3240.16,2131.81 3246.7,2132.28 3286.23,2140.88 3291.5,2142.43 3341.54,2162.46 3386.88,2191.61 3425.88,2228.8 3429.48,2232.96 3457.29,2271.06 3478.4,2313.24 3492.22,2358.33 3497.39,2388.82 3465.53,2388.82 3481.46,2388.82 3476.84,2361.68 3463.78,2319.09 3443.85,2279.25 3417.58,2243.27 3413.98,2239.11 3377.14,2203.98 3334.32,2176.46 3287.07,2157.54 3281.79,2155.99 3244.46,2147.87 3240.16,2147.56 3240.16,2163.31 3242.22,2163.45 3277.35,2171.1 3282.63,2172.65 3327.11,2190.46 3367.41,2216.36 3402.08,2249.43 3405.68,2253.58 3430.4,2287.45 3449.16,2324.94 3461.45,2365.02 3465.53,2388.82 3385.87,2388.82 3401.8,2388.82 3399.89,2378.41 3390.68,2348.35 3376.61,2320.23 3358.07,2294.83 3354.47,2290.67 3328.46,2265.87 3298.24,2246.44 3264.88,2233.09 3259.6,2231.54 3240.16,2227.31 3240.16,2243.38 3255.16,2246.65 3260.44,2248.2 3291.02,2260.44 3318.73,2278.25 3342.56,2300.98 3346.16,2305.14 3363.16,2328.42 3376.06,2354.2 3384.51,2381.76 3385.87,2388.82 3353.81,2388.82 3369.93,2388.82 3369.12,2385.1 3361.44,2360.05 3349.71,2336.62 3334.26,2315.45 3330.66,2311.29 3308.99,2290.63 3283.8,2274.44 3256,2263.31 3250.73,2261.76 3240.16,2259.46 3240.16,2275.53 3246.29,2276.87 3251.57,2278.42 3276.59,2288.43 3299.26,2303.01 3318.76,2321.6 3322.36,2325.76 3336.26,2344.81 3346.82,2365.9 3353.81,2388.82 3270.54,2388.82 3269.02,2385.79 3262.84,2377.32 3259.24,2373.16 3250.58,2364.9 3240.16,2358.28 3250.58,2364.9 3259.24,2373.16 3262.84,2377.32 3269.02,2385.79 3270.54,2388.82 3251.81,2388.82 3247.34,2383.47 3240.16,2376.83 3247.34,2383.47 3251.81,2388.82 3229.81,2388.82 3231.1,2389.65 3235.44,2393.78 3240.16,2399.47 3235.44,2393.78 3231.1,2389.65 3229.81,2388.82 2736.22,2388.82 2731.61,2393.43 2736.22,2388.82 2736.22,1443.94 2731.61,1439.32 2736.22,1443.94 3528.74,1443.94 3528.74,1516.43 3508.53,1566.92 3474.57,1619.78 3431.23,1665.26 3427.07,1668.86 3382.6,1701.36 3333.34,1726.02 3280.68,1742.17 3276.63,1743.05 3240.16,1748.79 3240.16,1474.32 3251.41,1486.24 3382.6,1701.36" style="stroke:rgb(167,241,217);stroke-width:31.496063;fill:none;stroke-opacity:0.5;stroke-linecap:round;stroke-linejoin:round;;fill:none"/>
<polyline points="3528.66,1443.94 3527.87,1454.96 3518.31,1498.88 3516.76,1504.16 3494.53,1559.71 3462.19,1610.05 3420.91,1653.36 3416.76,1656.97 3374.4,1687.92 3327.49,1711.41 3277.33,1726.78 3240.16,1733.03 3240.16,1717.1 3273.99,1711.39 3321.64,1696.79 3366.2,1674.47 3406.44,1645.07 3410.59,1641.47 3449.81,1600.31 3480.53,1552.49 3501.65,1499.72 3503.2,1494.44 3512.28,1452.72 3512.91,1443.94 3497.16,1443.94 3496.69,1450.48 3488.09,1490.01 3486.54,1495.28 3466.53,1545.28 3437.43,1590.58 3400.28,1629.57 3396.12,1633.17 3358,1661.03 3315.78,1682.17 3270.64,1696.01 3240.16,1701.17 3240.16,1685.24 3267.3,1680.62 3309.93,1667.55 3349.8,1647.58 3385.8,1621.27 3389.96,1617.67 3425.04,1580.85 3452.53,1538.06 3471.43,1490.85 3472.98,1485.57 3481.11,1448.24 3481.41,1443.94 3465.67,1443.94 3465.52,1446 3457.87,1481.13 3456.32,1486.41 3438.54,1530.85 3412.66,1571.12 3379.64,1605.77 3375.49,1609.38 3341.6,1634.14 3304.07,1652.93 3263.95,1665.23 3240.16,1669.31 3240.16,1653.38 3260.6,1649.84 3298.22,1638.31 3333.4,1620.69 3365.17,1597.48 3369.33,1593.87 3400.28,1561.39 3424.54,1523.63 3441.21,1481.97 3442.76,1476.69 3449.89,1443.94 3433.82,1443.94 3427.65,1472.26 3426.1,1477.53 3410.54,1516.42 3387.9,1551.66 3359.01,1581.98 3354.85,1585.58 3325.2,1607.25 3292.37,1623.69 3257.26,1634.45 3240.16,1637.45 3240.16,1621.52 3253.91,1619.06 3286.51,1609.07 3317,1593.8 3344.53,1573.68 3348.69,1570.08 3375.52,1541.92 3396.54,1509.2 3410.99,1473.1 3412.54,1467.82 3417.74,1443.94 3385.59,1443.94 3401.66,1443.94 3397.43,1463.38 3395.88,1468.66 3382.54,1501.99 3363.14,1532.19 3338.37,1558.18 3334.22,1561.79 3308.8,1580.36 3280.66,1594.45 3250.56,1603.68 3240.16,1605.59 3240.16,1589.66 3247.22,1588.29 3274.8,1579.83 3300.6,1566.91 3323.9,1549.89 3328.06,1546.28 3350.76,1522.46 3368.54,1494.77 3380.77,1464.22 3382.32,1458.94 3385.59,1443.94 3369.51,1443.94 3367.21,1454.51 3365.66,1459.78 3354.55,1487.56 3338.38,1512.73 3317.74,1534.39 3313.58,1537.99 3292.4,1553.47 3268.95,1565.21 3243.87,1572.9 3240.16,1573.71 3240.16,1557.59 3263.1,1550.59 3284.2,1540.02 3303.27,1526.09 3307.42,1522.49 3326,1503 3340.55,1480.34 3350.55,1455.35 3352.1,1450.07 3353.44,1443.94 3337.36,1443.94 3335.44,1450.91 3326.55,1473.13 3313.61,1493.27 3297.1,1510.59 3292.95,1514.2 3276,1526.58 3257.24,1535.97 3240.16,1541.21 3240.16,1508.38 3240.16,1524.8 3251.39,1521.35 3267.81,1513.13 3282.63,1502.3 3286.79,1498.69 3301.23,1483.53 3312.55,1465.91 3320.33,1446.47 3321.08,1443.94 3304.46,1443.94 3298.55,1458.7 3288.85,1473.8 3276.47,1486.8 3272.31,1490.4 3259.61,1499.69 3245.53,1506.73 3240.16,1508.38 3240.16,1491.87 3251.41,1486.24 3262,1478.5 3266.15,1474.9 3276.47,1464.07 3284.56,1451.48 3287.58,1443.94 3270.69,1443.94 3264.09,1454.34 3255.83,1463 3251.68,1466.61 3243.21,1472.8 3240.16,1474.32 3240.16,1455.59 3245.52,1451.1 3252.14,1443.94 3245.52,1451.1 3240.16,1455.59 3240.16,1433.59 3239.33,1434.87 3235.2,1439.21 3229.5,1443.94 3235.2,1439.21 3239.33,1434.87 3240.16,1433.59 3240.16,999.762 1665.35,90.5505 90.5503,999.762 90.5503,2818.19 98.8403,2798.67 99.2843,2802.38 100.368,2806.85 101.246,2809.46 102.562,2811.87 108.076,2818 111.596,2820.77 1652.6,3710.46 1656.03,3711.93 1660.45,3713.23 1663.14,3713.77 1665.89,3713.84 1673.95,3712.13 1678.11,3710.46 3219.11,2820.77 3222.1,2818.53 3225.43,2815.35 3227.25,2813.29 3228.68,2810.94 3231.23,2803.11 3231.86,2798.67 3231.86,2422.62 3230.62,2415.22 3229.85,2412.71 3228.68,2410.37 3223.53,2404.09 3221.37,2402.03 3218.85,2400.41 3216.07,2399.3 3210.79,2397.75 3206.35,2397.11 2735.13,2397.11 2733.02,2396.54 2731.13,2395.45 2729.58,2393.91 2728.49,2392.02 2727.93,2389.91 2727.93,1442.84 2728.49,1440.74 2729.58,1438.85 2731.13,1437.3 2733.02,1436.21 2735.13,1435.65 3206.35,1435.65 3209.7,1435.29 3216.26,1433.63 3218.61,1432.46 3220.73,1430.91 3224.88,1427.31 3226.95,1425.14 3228.56,1422.63 3231.22,1414.57 3231.86,1410.13 3231.86,1019.28 3231.42,1015.57 3230.34,1011.09 3229.46,1008.49 3228.14,1006.08 3222.63,999.952 3219.11,997.184 1678.11,107.486 1674.67,106.014 1667.56,104.178 1664.82,104.112 1662.11,104.524 1654.62,106.504 111.596,997.184 108.606,999.424 105.274,1002.6 103.458,1004.66 102.03,1007 99.4803,1014.84 98.8403,1019.28 98.8403,2798.67 90.5503,2818.19 1665.35,3727.4 3240.16,2818.19 3240.16,2084.57 3253.42,2085.52 3299.54,2095.55 3304.82,2097.1 3363.19,2120.47 3416.09,2154.47 3461.59,2197.87 3465.19,2202.03 3497.64,2246.47 3522.26,2295.68 3528.74,2316.8 3528.74,2388.82 3270.54,2388.82 3288.09,2388.82 3282.47,2377.59 3274.75,2367.01 3271.15,2362.85 3260.31,2352.52 3247.72,2344.42 3240.16,2341.39 3240.16,2324.51 3254.93,2330.42 3270.05,2340.14 3283.05,2352.54 3286.65,2356.7 3295.92,2369.4 3302.96,2383.45 3304.6,2388.82 3321.01,2388.82 3317.58,2377.6 3309.37,2361.2 3298.55,2346.38 3294.95,2342.23 3279.78,2327.76 3262.15,2316.43 3242.69,2308.64 3240.16,2307.89 3240.16,2291.61 3247.13,2293.53 3269.37,2302.43 3289.52,2315.38 3306.85,2331.92 3310.46,2336.07 3322.82,2353.01 3332.2,2371.75 3337.43,2388.82 3417.74,2388.82 3415.28,2375.06 3405.3,2342.49 3390.06,2312.03 3369.97,2284.52 3366.37,2280.36 3338.2,2253.5 3305.45,2232.45 3269.32,2217.98 3264.04,2216.43 3240.16,2211.23 3240.16,2195.15 3268.48,2201.32 3273.75,2202.87 3312.67,2218.45 3347.94,2241.12 3378.27,2270.05 3381.87,2274.21 3403.5,2303.84 3419.92,2336.64 3430.67,2371.71 3433.67,2388.82 3449.6,2388.82 3446.06,2368.37 3434.54,2330.79 3416.95,2295.64 3393.78,2263.89 3390.17,2259.74 3357.67,2228.74 3319.89,2204.45 3278.19,2187.76 3272.91,2186.21 3240.16,2179.08 3240.16,2100.31 3251.18,2101.1 3295.1,2110.66 3300.38,2112.21 3355.97,2134.47 3406.35,2166.85 3449.69,2208.18 3453.29,2212.34 3484.19,2254.67 3507.64,2301.53 3523,2351.64 3528.74,2385.66 3528.74,2388.82 3497.39,2388.82 3513.32,2388.82 3507.61,2354.99 3493.02,2307.38 3470.74,2262.86 3441.39,2222.65 3437.79,2218.49 3396.62,2179.23 3348.76,2148.46 3295.94,2127.32 3290.66,2125.77 3248.94,2116.69 3240.16,2116.06 3240.16,2131.81 3246.7,2132.28 3286.23,2140.88 3291.5,2142.43 3341.54,2162.46 3386.88,2191.61 3425.88,2228.8 3429.48,2232.96 3457.29,2271.06 3478.4,2313.24 3492.22,2358.33 3497.39,2388.82 3465.53,2388.82 3481.46,2388.82 3476.84,2361.68 3463.78,2319.09 3443.85,2279.25 3417.58,2243.27 3413.98,2239.11 3377.14,2203.98 3334.32,2176.46 3287.07,2157.54 3281.79,2155.99 3244.46,2147.87 3240.16,2147.56 3240.16,2163.31 3242.22,2163.45 3277.35,2171.1 3282.63,2172.65 3327.11,2190.46 3367.41,2216.36 3402.08,2249.43 3405.68,2253.58 3430.4,2287.45 3449.16,2324.94 3461.45,2365.02 3465.53,2388.82 3385.87,2388.82 3401.8,2388.82 3399.89,2378.41 3390.68,2348.35 3376.61,2320.23 3358.07,2294.83 3354.47,2290.67 3328.46,2265.87 3298.24,2246.44 3264.88,2233.09 3259.6,2231.54 3240.16,2227.31 3240.16,2243.38 3255.16,2246.65 3260.44,2248.2 3291.02,2260.44 3318.73,2278.25 3342.56,2300.98 3346.16,2305.14 3363.16,2328.42 3376.06,2354.2 3384.51,2381.76 3385.87,2388.82 3353.81,2388.82 3369.93,2388.82 3369.12,2385.1 3361.44,2360.05 3349.71,2336.62 3334.26,2315.45 3330.66,2311.29 3308.99,2290.63 3283.8,2274.44 3256,2263.31 3250.73,2261.76 3240.16,2259.46 3240.16,2275.53 3246.29,2276.87 3251.57,2278.42 3276.59,2288.43 3299.26,2303.01 3318.76,2321.6 3322.36,2325.76 3336.26,2344.81 3346.82,2365.9 3353.81,2388.82 3270.54,2388.82 3269.02,2385.79 3262.84,2377.32 3259.24,2373.16 3250.58,2364.9 3240.16,2358.28 3250.58,2364.9 3259.24,2373.16 3262.84,2377.32 3269.02,2385.79 3270.54,2388.82 3251.81,2388.82 3247.34,2383.47 3240.16,2376.83 3247.34,2383.47 3251.81,2388.82 3229.81,2388.82 3231.1,2389.65 3235.44,2393.78 3240.16,2399.47 3235.44,2393.78 3231.1,2389.65 3229.81,2388.82 2736.22,2388.82 2731.61,2393.43 2736.22,2388.82 2736.22,1443.94 2731.61,1439.32 2736.22,1443.94 3528.74,1443.94 3528.74,1516.43 3508.53,1566.92 3474.57,1619.78 3431.23,1665.26 3427.07,1668.86 3382.6,1701.36 3333.34,1726.02 3280.68,1742.17 3276.63,1743.05 3240.16,1748.79 3240.16,1474.32 3251.41,1486.24 3382.6,1701.36" style="stroke:rgb(0,0,0);stroke-width:1px;fill:none;stroke-opacity:1;stroke-linecap:round;stroke-linejoin:round;;fill:none"/>
<polyline points="2987.44,2727.27 2988.74,2711.59 2992.6,2696.35 2998.92,2681.94 3007.53,2668.77 3018.18,2657.2 3030.59,2647.54 3044.42,2640.06 3059.3,2634.95 3074.81,2632.36 3090.54,2632.36 3106.05,2634.95 3120.93,2640.06 3134.76,2647.54 3147.17,2657.2 3157.82,2668.77 3166.43,2681.94 3172.75,2696.35 3176.61,2711.59 3177.91,2727.27 3176.61,2742.94 3172.75,2758.19 3166.43,2772.59 3157.83,2785.76 3147.17,2797.33 3134.76,2806.99 3120.93,2814.48 3106.05,2819.58 3090.54,2822.17 3074.81,2822.17 3059.3,2819.58 3044.42,2814.48 3030.59,2806.99 3018.18,2797.33 3007.52,2785.76 2998.92,2772.59 2992.6,2758.19 2988.74,2742.94 2987.44,2727.27 2996.06,2727.27 2997.87,2709.24 3003.47,2692 3012.53,2676.3 3024.66,2662.83 3039.32,2652.18 3055.88,2644.81 3073.61,2641.04 3091.74,2641.04 3109.47,2644.81 3126.02,2652.18 3140.69,2662.83 3152.82,2676.3 3161.88,2692 3167.48,2709.24 3169.38,2727.27 3167.48,2745.29 3161.88,2762.53 3152.82,2778.23 3140.69,2791.7 3126.02,2802.35 3109.47,2809.72 3091.74,2813.49 3073.61,2813.49 3055.88,2809.72 3039.32,2802.35 3024.66,2791.7 3012.53,2778.23 3003.47,2762.53 2997.87,2745.29 2996.06,2727.27" style="stroke:rgb(167,241,217);stroke-width:31.496063;fill:none;stroke-opacity:0.5;stroke-linecap:round;stroke-linejoin:round;;fill:none"/>
<polyline points="2987.44,2727.27 2988.74,2711.59 2992.6,2696.35 2998.92,2681.94 3007.53,2668.77 3018.18,2657.2 3030.59,2647.54 3044.42,2640.06 3059.3,2634.95 3074.81,2632.36 3090.54,2632.36 3106.05,2634.95 3120.93,2640.06 3134.76,2647.54 3147.17,2657.2 3157.82,2668.77 3166.43,2681.94 3172.75,2696.35 3176.61,2711.59 3177.91,2727.27 3176.61,2742.94 3172.75,2758.19 3166.43,2772.59 3157.83,2785.76 3147.17,2797.33 3134.76,2806.99 3120.93,2814.48 3106.05,2819.58 3090.54,2822.17 3074.81,2822.17 3059.3,2819.58 3044.42,2814.48 3030.59,2806.99 3018.18,2797.33 3007.52,2785.76 2998.92,2772.59 2992.6,2758.19 2988.74,2742.94 2987.44,2727.27 2996.06,2727.27 2997.87,2709.24 3003.47,2692 3012.53,2676.3 3024.66,2662.83 3039.32,2652.18 3055.88,2644.81 3073.61,2641.04 3091.74,2641.04 3109.47,2644.81 3126.02,2652.18 3140.69,2662.83 3152.82,2676.3 3161.88,2692 3167.48,2709.24 3169.38,2727.27 3167.48,2745.29 3161.88,2762.53 3152.82,2778.23 3140.69,2791.7 3126.02,2802.35 3109.47,2809.72 3091.74,2813.49 3073.61,2813.49 3055.88,2809.72 3039.32,2802.35 3024.66,2791.7 3012.53,2778.23 3003.47,2762.53 2997.87,2745.29 2996.06,2727.27" style="stroke:rgb(0,0,0);stroke-width:1px;fill:none;stroke-opacity:1;stroke-linecap:round;stroke-linejoin:round;;fill:none"/>
<polyline points="2551.18,2182.52 2551.18,2174.64 2614.17,2174.64 2617.24,2174.34 2620.2,2173.45 2622.92,2171.99 2625.31,2170.03 2627.27,2167.65 2628.72,2164.92 2629.62,2161.97 2629.92,2154.96 2637.79,2154.96 2637.59,2163.7 2635.12,2170.33 2631.05,2175.77 2625.61,2179.84 2618.98,2182.32 2551.18,2182.52" style="stroke:rgb(167,241,217);stroke-width:31.496063;fill:none;stroke-opacity:0.5;stroke-linecap:round;stroke-linejoin:round;;fill:none"/>
<polyline points="2551.18,2182.52 2551.18,2174.64 2614.17,2174.64 2617.24,2174.34 2620.2,2173.45 2622.92,2171.99 2625.31,2170.03 2627.27,2167.65 2628.72,2164.92 2629.62,2161.97 2629.92,2154.96 2637.79,2154.96 2637.59,2163.7 2635.12,2170.33 2631.05,2175.77 2625.61,2179.84 2618.98,2182.32 2551.18,2182.52" style="stroke:rgb(0,0,0);stroke-width:1px;fill:none;stroke-opacity:1;stroke-linecap:round;stroke-linejoin:round;;fill:none"/>
<polyline points="2551.18,2064.41 2551.18,2056.54 2618.97,2056.74 2625.61,2059.21 2631.05,2063.28 2635.12,2068.72 2637.59,2075.35 2637.79,2084.09 2629.92,2084.09 2629.62,2077.09 2628.72,2074.13 2627.27,2071.41 2625.31,2069.02 2622.92,2067.06 2620.2,2065.61 2617.24,2064.71 2614.17,2064.41 2551.18,2064.41" style="stroke:rgb(167,241,217);stroke-width:31.496063;fill:none;stroke-opacity:0.5;stroke-linecap:round;stroke-linejoin:round;;fill:none"/>
<polyline points="2551.18,2064.41 2551.18,2056.54 2618.97,2056.74 2625.61,2059.21 2631.05,2063.28 2635.12,2068.72 2637.59,2075.35 2637.79,2084.09 2629.92,2084.09 2629.62,2077.09 2628.72,2074.13 2627.27,2071.41 2625.31,2069.02 2622.92,2067.06 2620.2,2065.61 2617.24,2064.71 2614.17,2064.41 2551.18,2064.41" style="stroke:rgb(0,0,0);stroke-width:1px;fill:none;stroke-opacity:1;stroke-linecap:round;stroke-linejoin:round;;fill:none"/>
<polyline points="2393.7,2161.82 2393.9,2163.7 2396.38,2170.33 2400.45,2175.77 2405.88,2179.84 2412.52,2182.32 2480.31,2182.52 2480.31,2174.64 2417.32,2174.64 2414.25,2174.34 2411.3,2173.45 2408.57,2171.99 2406.19,2170.03 2404.23,2167.65 2402.77,2164.92 2401.88,2161.97 2401.57,2154.96 2393.7,2154.96 2393.7,2161.82" style="stroke:rgb(167,241,217);stroke-width:31.496063;fill:none;stroke-opacity:0.5;stroke-linecap:round;stroke-linejoin:round;;fill:none"/>
<polyline points="2393.7,2161.82 2393.9,2163.7 2396.38,2170.33 2400.45,2175.77 2405.88,2179.84 2412.52,2182.32 2480.31,2182.52 2480.31,2174.64 2417.32,2174.64 2414.25,2174.34 2411.3,2173.45 2408.57,2171.99 2406.19,2170.03 2404.23,2167.65 2402.77,2164.92 2401.88,2161.97 2401.57,2154.96 2393.7,2154.96 2393.7,2161.82" style="stroke:rgb(0,0,0);stroke-width:1px;fill:none;stroke-opacity:1;stroke-linecap:round;stroke-linejoin:round;;fill:none"/>
<polyline points="2393.7,2084.09 2401.57,2084.09 2401.88,2077.09 2402.77,2074.13 2404.23,2071.41 2406.19,2069.02 2408.57,2067.06 2411.3,2065.61 2414.25,2064.71 2417.32,2064.41 2480.31,2064.41 2480.31,2056.54 2412.52,2056.74 2405.88,2059.21 2400.45,2063.28 2396.38,2068.72 2393.9,2075.35 2393.7,2084.09" style="stroke:rgb(167,241,217);stroke-width:31.496063;fill:none;stroke-opacity:0.5;stroke-linecap:round;stroke-linejoin:round;;fill:none"/>
<polyline points="2393.7,2084.09 2401.57,2084.09 2401.88,2077.09 2402.77,2074.13 2404.23,2071.41 2406.19,2069.02 2408.57,2067.06 2411.3,2065.61 2414.25,2064.71 2417.32,2064.41 2480.31,2064.41 2480.31,2056.54 2412.52,2056.74 2405.88,2059.21 2400.45,2063.28 2396.38,2068.72 2393.9,2075.35 2393.7,2084.09" style="stroke:rgb(0,0,0);stroke-width:1px;fill:none;stroke-opacity:1;stroke-linecap:round;stroke-linejoin:round;;fill:none"/>
<polyline points="2139.65,1965.59 2139.65,1867.16 2140.09,1862.44 2140.81,1859.19 2144.11,1852.52 2148.61,1847.62 2151.94,1845.21 2157.36,1842.57 2162.04,1841.68 2228.34,1841.46 2230.72,1841.55 2236.34,1842.57 2241.75,1845.21 2245.08,1847.62 2249.27,1851.96 2251.55,1856.14 2252.89,1859.19 2253.37,1861.19 2254.56,1873.17 2255.39,1876.6 2256.9,1880.65 2262.6,1882.59 2268.1,1883.38 2400.64,1883.44 2404.62,1883.03 2409.5,1881.7 2411.51,1877.92 2413.02,1875.86 2415,1874.54 2417.32,1874.14 2614.76,1874.15 2616.5,1874.54 2618.47,1875.86 2619.79,1877.83 2620.18,1879.57 2620.18,1959.49 2619.79,1961.22 2618.47,1963.19 2616.5,1964.51 2614.76,1964.9 2416.73,1964.9 2415,1964.51 2413.02,1963.19 2411.81,1961.54 2409.63,1957.22 2406.64,1956.46 2399.4,1955.55 2269.44,1955.55 2265.98,1955.75 2263.28,1956.23 2256.66,1958.16 2255.45,1961.65 2252.89,1973.56 2249.27,1980.79 2246,1984.26 2243.51,1986.47 2236.34,1990.19 2230.36,1991.24 2163.33,1991.24 2157.36,1990.19 2150.18,1986.47 2144.43,1980.79 2140.81,1973.56 2140.09,1970.31 2139.65,1965.59" style="stroke:rgb(167,241,217);stroke-width:31.496063;fill:none;stroke-opacity:0.5;stroke-linecap:round;stroke-linejoin:round;;fill:none"/>
<polyline points="2139.65,1965.59 2139.65,1867.16 2140.09,1862.44 2140.81,1859.19 2144.11,1852.52 2148.61,1847.62 2151.94,1845.21 2157.36,1842.57 2162.04,1841.68 2228.34,1841.46 2230.72,1841.55 2236.34,1842.57 2241.75,1845.21 2245.08,1847.62 2249.27,1851.96 2251.55,1856.14 2252.89,1859.19 2253.37,1861.19 2254.56,1873.17 2255.39,1876.6 2256.9,1880.65 2262.6,1882.59 2268.1,1883.38 2400.64,1883.44 2404.62,1883.03 2409.5,1881.7 2411.51,1877.92 2413.02,1875.86 2415,1874.54 2417.32,1874.14 2614.76,1874.15 2616.5,1874.54 2618.47,1875.86 2619.79,1877.83 2620.18,1879.57 2620.18,1959.49 2619.79,1961.22 2618.47,1963.19 2616.5,1964.51 2614.76,1964.9 2416.73,1964.9 2415,1964.51 2413.02,1963.19 2411.81,1961.54 2409.63,1957.22 2406.64,1956.46 2399.4,1955.55 2269.44,1955.55 2265.98,1955.75 2263.28,1956.23 2256.66,1958.16 2255.45,1961.65 2252.89,1973.56 2249.27,1980.79 2246,1984.26 2243.51,1986.47 2236.34,1990.19 2230.36,1991.24 2163.33,1991.24 2157.36,1990.19 2150.18,1986.47 2144.43,1980.79 2140.81,1973.56 2140.09,1970.31 2139.65,1965.59" style="stroke:rgb(0,0,0);stroke-width:1px;fill:none;stroke-opacity:1;stroke-linecap:round;stroke-linejoin:round;;fill:none"/>
<polyline points="2139.65,1768.74 2139.65,1670.32 2140.09,1665.59 2140.81,1662.34 2141.6,1660.43 2144.43,1655.11 2150.18,1649.43 2153.05,1647.75 2157.99,1645.58 2163.33,1644.66 2228.34,1644.61 2230.72,1644.7 2236.34,1645.72 2243.51,1649.43 2249.27,1655.11 2252.89,1662.33 2253.59,1665.59 2254.58,1673.3 2255.39,1676.6 2256.9,1680.65 2262.6,1682.59 2268.1,1683.38 2400.64,1683.44 2404.62,1683.03 2409.5,1681.7 2411.51,1677.92 2413.02,1675.86 2415,1674.54 2417.32,1674.14 2614.17,1674.14 2616.5,1674.54 2618.47,1675.86 2619.79,1677.83 2620.18,1679.57 2620.18,1759.49 2619.79,1761.22 2618.47,1763.19 2616.5,1764.51 2614.76,1764.9 2417.32,1764.92 2415,1764.51 2413.02,1763.19 2411.81,1761.54 2409.63,1757.22 2406.64,1756.46 2399.4,1755.55 2268.54,1755.62 2264.39,1756.06 2260.96,1756.89 2256.9,1758.4 2254.99,1763.95 2252.89,1776.73 2249.27,1783.94 2246.01,1787.41 2243.51,1789.62 2236.34,1793.34 2230.72,1794.36 2228.34,1794.44 2163.33,1794.39 2157.36,1793.34 2150.18,1789.62 2144.43,1783.94 2140.81,1776.71 2140.09,1773.46 2139.65,1768.74" style="stroke:rgb(167,241,217);stroke-width:31.496063;fill:none;stroke-opacity:0.5;stroke-linecap:round;stroke-linejoin:round;;fill:none"/>
<polyline points="2139.65,1768.74 2139.65,1670.32 2140.09,1665.59 2140.81,1662.34 2141.6,1660.43 2144.43,1655.11 2150.18,1649.43 2153.05,1647.75 2157.99,1645.58 2163.33,1644.66 2228.34,1644.61 2230.72,1644.7 2236.34,1645.72 2243.51,1649.43 2249.27,1655.11 2252.89,1662.33 2253.59,1665.59 2254.58,1673.3 2255.39,1676.6 2256.9,1680.65 2262.6,1682.59 2268.1,1683.38 2400.64,1683.44 2404.62,1683.03 2409.5,1681.7 2411.51,1677.92 2413.02,1675.86 2415,1674.54 2417.32,1674.14 2614.17,1674.14 2616.5,1674.54 2618.47,1675.86 2619.79,1677.83 2620.18,1679.57 2620.18,1759.49 2619.79,1761.22 2618.47,1763.19 2616.5,1764.51 2614.76,1764.9 2417.32,1764.92 2415,1764.51 2413.02,1763.19 2411.81,1761.54 2409.63,1757.22 2406.64,1756.46 2399.4,1755.55 2268.54,1755.62 2264.39,1756.06 2260.96,1756.89 2256.9,1758.4 2254.99,1763.95 2252.89,1776.73 2249.27,1783.94 2246.01,1787.41 2243.51,1789.62 2236.34,1793.34 2230.72,1794.36 2228.34,1794.44 2163.33,1794.39 2157.36,1793.34 2150.18,1789.62 2144.43,1783.94 2140.81,1776.71 2140.09,1773.46 2139.65,1768.74" style="stroke:rgb(0,0,0);stroke-width:1px;fill:none;stroke-opacity:1;stroke-linecap:round;stroke-linejoin:round;;fill:none"/>
<polyline points="1649.49,1768.74 1649.49,1670.32 1649.94,1665.59 1650.65,1662.34 1654.27,1655.11 1660.02,1649.43 1667.2,1645.72 1673.18,1644.66 1750.05,1644.66 1756.02,1645.72 1763.2,1649.43 1768.95,1655.11 1772.57,1662.33 1773.28,1665.59 1774.26,1673.3 1775.07,1676.6 1776.59,1680.65 1782.29,1682.59 1789.52,1683.51 1879.77,1683.51 1885.21,1682.99 1888.64,1682.17 1892.7,1680.65 1893.36,1679.21 1894.62,1675.1 1896.72,1662.33 1900.33,1655.11 1904.52,1650.77 1907.85,1648.35 1913.27,1645.72 1919.24,1644.66 1984.25,1644.61 1986.62,1644.7 1991.61,1645.58 1997.66,1648.36 1999.42,1649.43 2001.91,1651.64 2005.17,1655.11 2008.8,1662.34 2009.51,1665.59 2009.95,1670.32 2009.87,1770.76 2008.8,1776.71 2005.17,1783.94 1999.42,1789.62 1992.24,1793.34 1986.27,1794.39 1919.24,1794.39 1913.26,1793.34 1906.09,1789.62 1900.33,1783.94 1896.72,1776.73 1896.01,1773.46 1895.02,1765.76 1894.21,1762.45 1892.7,1758.4 1887,1756.46 1879.77,1755.55 1789.52,1755.55 1784.07,1756.06 1780.64,1756.89 1776.59,1758.4 1775.93,1759.84 1774.67,1763.95 1772.57,1776.73 1768.95,1783.94 1764.77,1788.28 1761.44,1790.7 1756.02,1793.34 1750.05,1794.4 1674.88,1794.44 1672.82,1794.36 1667.2,1793.34 1660.02,1789.62 1654.27,1783.94 1650.65,1776.72 1649.94,1773.46 1649.49,1768.74" style="stroke:rgb(167,241,217);stroke-width:31.496063;fill:none;stroke-opacity:0.5;stroke-linecap:round;stroke-linejoin:round;;fill:none"/>
<polyline points="1649.49,1768.74 1649.49,1670.32 1649.94,1665.59 1650.65,1662.34 1654.27,1655.11 1660.02,1649.43 1667.2,1645.72 1673.18,1644.66 1750.05,1644.66 1756.02,1645.72 1763.2,1649.43 1768.95,1655.11 1772.57,1662.33 1773.28,1665.59 1774.26,1673.3 1775.07,1676.6 1776.59,1680.65 1782.29,1682.59 1789.52,1683.51 1879.77,1683.51 1885.21,1682.99 1888.64,1682.17 1892.7,1680.65 1893.36,1679.21 1894.62,1675.1 1896.72,1662.33 1900.33,1655.11 1904.52,1650.77 1907.85,1648.35 1913.27,1645.72 1919.24,1644.66 1984.25,1644.61 1986.62,1644.7 1991.61,1645.58 1997.66,1648.36 1999.42,1649.43 2001.91,1651.64 2005.17,1655.11 2008.8,1662.34 2009.51,1665.59 2009.95,1670.32 2009.87,1770.76 2008.8,1776.71 2005.17,1783.94 1999.42,1789.62 1992.24,1793.34 1986.27,1794.39 1919.24,1794.39 1913.26,1793.34 1906.09,1789.62 1900.33,1783.94 1896.72,1776.73 1896.01,1773.46 1895.02,1765.76 1894.21,1762.45 1892.7,1758.4 1887,1756.46 1879.77,1755.55 1789.52,1755.55 1784.07,1756.06 1780.64,1756.89 1776.59,1758.4 1775.93,1759.84 1774.67,1763.95 1772.57,1776.73 1768.95,1783.94 1764.77,1788.28 1761.44,1790.7 1756.02,1793.34 1750.05,1794.4 1674.88,1794.44 1672.82,1794.36 1667.2,1793.34 1660.02,1789.62 1654.27,1783.94 1650.65,1776.72 1649.94,1773.46 1649.49,1768.74" style="stroke:rgb(0,0,0);stroke-width:1px;fill:none;stroke-opacity:1;stroke-linecap:round;stroke-linejoin:round;;fill:none"/>
<polyline points="1512.79,1634.88 1512.79,1627.01 1516.91,1627.01 1522.49,1627.58 1532.2,1630.8 1540.82,1636.11 1547.98,1643.27 1553.29,1651.89 1556.51,1661.61 1557.08,1667.18 1557.08,1684.09 1549.21,1684.09 1549.13,1668.67 1548.01,1661.36 1545.4,1654.43 1542.44,1649.49 1538.65,1645.15 1536.21,1642.95 1531.49,1639.63 1526.27,1637.21 1519.11,1635.33 1512.79,1634.88" style="stroke:rgb(167,241,217);stroke-width:31.496063;fill:none;stroke-opacity:0.5;stroke-linecap:round;stroke-linejoin:round;;fill:none"/>
<polyline points="1512.79,1634.88 1512.79,1627.01 1516.91,1627.01 1522.49,1627.58 1532.2,1630.8 1540.82,1636.11 1547.98,1643.27 1553.29,1651.89 1556.51,1661.61 1557.08,1667.18 1557.08,1684.09 1549.21,1684.09 1549.13,1668.67 1548.01,1661.36 1545.4,1654.43 1542.44,1649.49 1538.65,1645.15 1536.21,1642.95 1531.49,1639.63 1526.27,1637.21 1519.11,1635.33 1512.79,1634.88" style="stroke:rgb(0,0,0);stroke-width:1px;fill:none;stroke-opacity:1;stroke-linecap:round;stroke-linejoin:round;;fill:none"/>
<polyline points="1397.64,1684.09 1397.64,1667.18 1398.2,1661.61 1401.43,1651.89 1406.74,1643.27 1413.9,1636.11 1422.52,1630.8 1432.23,1627.58 1437.81,1627.01 1441.93,1627.01 1441.93,1634.88 1438.06,1635.01 1431.59,1636.19 1424.7,1638.88 1421.84,1640.53 1417.23,1643.98 1412.28,1649.49 1408.57,1655.9 1406.28,1662.95 1405.51,1670.32 1405.51,1684.09 1397.64,1684.09" style="stroke:rgb(167,241,217);stroke-width:31.496063;fill:none;stroke-opacity:0.5;stroke-linecap:round;stroke-linejoin:round;;fill:none"/>
<polyline points="1397.64,1684.09 1397.64,1667.18 1398.2,1661.61 1401.43,1651.89 1406.74,1643.27 1413.9,1636.11 1422.52,1630.8 1432.23,1627.58 1437.81,1627.01 1441.93,1627.01 1441.93,1634.88 1438.06,1635.01 1431.59,1636.19 1424.7,1638.88 1421.84,1640.53 1417.23,1643.98 1412.28,1649.49 1408.57,1655.9 1406.28,1662.95 1405.51,1670.32 1405.51,1684.09 1397.64,1684.09" style="stroke:rgb(0,0,0);stroke-width:1px;fill:none;stroke-opacity:1;stroke-linecap:round;stroke-linejoin:round;;fill:none"/>
<polyline points="1649.49,1965.59 1649.49,1867.16 1649.94,1862.44 1650.65,1859.19 1654.27,1851.96 1660.02,1846.28 1667.2,1842.57 1673.18,1841.51 1750.05,1841.51 1756.02,1842.57 1763.2,1846.28 1768.95,1851.96 1772.57,1859.18 1773.28,1862.44 1774.26,1870.15 1775.07,1873.45 1776.59,1877.5 1782.28,1879.44 1789.52,1880.36 1879.77,1880.36 1885.21,1879.84 1888.64,1879.02 1892.7,1877.5 1893.36,1876.06 1894.62,1871.95 1896.72,1859.18 1900.33,1851.96 1904.52,1847.62 1907.85,1845.2 1913.27,1842.57 1919.24,1841.51 1984.56,1841.46 1991.61,1842.43 1997.66,1845.21 1999.42,1846.28 2001.91,1848.5 2005.17,1851.96 2008.8,1859.19 2009.51,1862.44 2009.95,1867.16 2009.87,1967.61 2008.8,1973.56 2005.17,1980.79 1999.42,1986.47 1992.24,1990.19 1986.27,1991.24 1919.24,1991.24 1913.26,1990.19 1906.09,1986.47 1900.33,1980.79 1896.72,1973.58 1896.01,1970.31 1895.02,1962.61 1894.21,1959.31 1892.7,1955.25 1887,1953.31 1881.5,1952.52 1789.52,1952.4 1784.07,1952.91 1780.64,1953.74 1776.59,1955.25 1775.93,1956.69 1774.67,1960.8 1772.57,1973.58 1768.95,1980.79 1764.77,1985.13 1761.44,1987.55 1756.02,1990.19 1750.05,1991.25 1675.2,1991.3 1672.82,1991.21 1667.2,1990.19 1660.02,1986.47 1654.27,1980.79 1650.65,1973.57 1649.94,1970.31 1649.49,1965.59" style="stroke:rgb(167,241,217);stroke-width:31.496063;fill:none;stroke-opacity:0.5;stroke-linecap:round;stroke-linejoin:round;;fill:none"/>
<polyline points="1649.49,1965.59 1649.49,1867.16 1649.94,1862.44 1650.65,1859.19 1654.27,1851.96 1660.02,1846.28 1667.2,1842.57 1673.18,1841.51 1750.05,1841.51 1756.02,1842.57 1763.2,1846.28 1768.95,1851.96 1772.57,1859.18 1773.28,1862.44 1774.26,1870.15 1775.07,1873.45 1776.59,1877.5 1782.28,1879.44 1789.52,1880.36 1879.77,1880.36 1885.21,1879.84 1888.64,1879.02 1892.7,1877.5 1893.36,1876.06 1894.62,1871.95 1896.72,1859.18 1900.33,1851.96 1904.52,1847.62 1907.85,1845.2 1913.27,1842.57 1919.24,1841.51 1984.56,1841.46 1991.61,1842.43 1997.66,1845.21 1999.42,1846.28 2001.91,1848.5 2005.17,1851.96 2008.8,1859.19 2009.51,1862.44 2009.95,1867.16 2009.87,1967.61 2008.8,1973.56 2005.17,1980.79 1999.42,1986.47 1992.24,1990.19 1986.27,1991.24 1919.24,1991.24 1913.26,1990.19 1906.09,1986.47 1900.33,1980.79 1896.72,1973.58 1896.01,1970.31 1895.02,1962.61 1894.21,1959.31 1892.7,1955.25 1887,1953.31 1881.5,1952.52 1789.52,1952.4 1784.07,1952.91 1780.64,1953.74 1776.59,1955.25 1775.93,1956.69 1774.67,1960.8 1772.57,1973.58 1768.95,1980.79 1764.77,1985.13 1761.44,1987.55 1756.02,1990.19 1750.05,1991.25 1675.2,1991.3 1672.82,1991.21 1667.2,1990.19 1660.02,1986.47 1654.27,1980.79 1650.65,1973.57 1649.94,1970.31 1649.49,1965.59" style="stroke:rgb(0,0,0);stroke-width:1px;fill:none;stroke-opacity:1;stroke-linecap:round;stroke-linejoin:round;;fill:none"/>
<polyline points="1512.79,2008.9 1512.79,2001.02 1516.66,2000.89 1523.14,1999.72 1530.03,1997.03 1532.88,1995.38 1537.49,1991.92 1542.44,1986.42 1546.15,1980 1548.44,1972.96 1549.21,1965.59 1549.21,1951.81 1557.08,1951.81 1557.08,1968.72 1556.51,1974.3 1553.29,1984.02 1547.98,1992.63 1540.82,1999.79 1532.2,2005.11 1522.49,2008.33 1516.91,2008.9 1512.79,2008.9" style="stroke:rgb(167,241,217);stroke-width:31.496063;fill:none;stroke-opacity:0.5;stroke-linecap:round;stroke-linejoin:round;;fill:none"/>
<polyline points="1512.79,2008.9 1512.79,2001.02 1516.66,2000.89 1523.14,1999.72 1530.03,1997.03 1532.88,1995.38 1537.49,1991.92 1542.44,1986.42 1546.15,1980 1548.44,1972.96 1549.21,1965.59 1549.21,1951.81 1557.08,1951.81 1557.08,1968.72 1556.51,1974.3 1553.29,1984.02 1547.98,1992.63 1540.82,1999.79 1532.2,2005.11 1522.49,2008.33 1516.91,2008.9 1512.79,2008.9" style="stroke:rgb(0,0,0);stroke-width:1px;fill:none;stroke-opacity:1;stroke-linecap:round;stroke-linejoin:round;;fill:none"/>
<polyline points="1512.79,1831.73 1519.11,1832.18 1526.27,1834.06 1531.49,1836.48 1536.21,1839.8 1538.65,1842 1542.44,1846.34 1545.4,1851.29 1548.01,1858.21 1549.13,1865.52 1549.21,1880.94 1557.08,1880.94 1557.08,1864.03 1556.51,1858.46 1553.29,1848.74 1547.98,1840.12 1542.38,1834.29 1538.53,1827.57 1537.35,1824.82 1536.71,1821.9 1536.64,1818.9 1537.03,1813.42 1537.44,1810.83 1538.26,1808.34 1542.72,1801.16 1547.98,1795.78 1553.29,1787.17 1556.51,1777.45 1557.08,1771.87 1557.08,1754.96 1549.21,1754.96 1549.13,1770.39 1548.01,1777.7 1545.4,1784.62 1542.44,1789.57 1538.65,1793.91 1536.21,1796.11 1531.49,1799.43 1526.27,1801.85 1519.11,1803.72 1512.79,1804.17 1512.79,1831.73" style="stroke:rgb(167,241,217);stroke-width:31.496063;fill:none;stroke-opacity:0.5;stroke-linecap:round;stroke-linejoin:round;;fill:none"/>
<polyline points="1512.79,1831.73 1519.11,1832.18 1526.27,1834.06 1531.49,1836.48 1536.21,1839.8 1538.65,1842 1542.44,1846.34 1545.4,1851.29 1548.01,1858.21 1549.13,1865.52 1549.21,1880.94 1557.08,1880.94 1557.08,1864.03 1556.51,1858.46 1553.29,1848.74 1547.98,1840.12 1542.38,1834.29 1538.53,1827.57 1537.35,1824.82 1536.71,1821.9 1536.64,1818.9 1537.03,1813.42 1537.44,1810.83 1538.26,1808.34 1542.72,1801.16 1547.98,1795.78 1553.29,1787.17 1556.51,1777.45 1557.08,1771.87 1557.08,1754.96 1549.21,1754.96 1549.13,1770.39 1548.01,1777.7 1545.4,1784.62 1542.44,1789.57 1538.65,1793.91 1536.21,1796.11 1531.49,1799.43 1526.27,1801.85 1519.11,1803.72 1512.79,1804.17 1512.79,1831.73" style="stroke:rgb(0,0,0);stroke-width:1px;fill:none;stroke-opacity:1;stroke-linecap:round;stroke-linejoin:round;;fill:none"/>
<polyline points="1397.64,1880.94 1405.51,1880.94 1405.6,1865.52 1406.71,1858.21 1409.32,1851.29 1412.28,1846.34 1416.07,1842 1418.52,1839.8 1423.23,1836.48 1428.46,1834.06 1435.61,1832.18 1441.93,1831.73 1441.93,1804.17 1438.06,1804.04 1431.59,1802.87 1424.7,1800.17 1421.84,1798.53 1417.23,1795.07 1412.28,1789.57 1408.57,1783.15 1406.28,1776.11 1405.51,1768.74 1405.51,1754.96 1397.64,1754.96 1397.64,1771.87 1398.2,1777.45 1401.43,1787.17 1406.74,1795.78 1412.34,1801.61 1416.19,1808.33 1417.37,1811.08 1418.01,1814.01 1418.08,1817 1417.69,1822.49 1417.28,1825.08 1416.46,1827.56 1412,1834.74 1406.74,1840.12 1401.43,1848.74 1398.2,1858.46 1397.64,1864.03 1397.64,1880.94" style="stroke:rgb(167,241,217);stroke-width:31.496063;fill:none;stroke-opacity:0.5;stroke-linecap:round;stroke-linejoin:round;;fill:none"/>
<polyline points="1397.64,1880.94 1405.51,1880.94 1405.6,1865.52 1406.71,1858.21 1409.32,1851.29 1412.28,1846.34 1416.07,1842 1418.52,1839.8 1423.23,1836.48 1428.46,1834.06 1435.61,1832.18 1441.93,1831.73 1441.93,1804.17 1438.06,1804.04 1431.59,1802.87 1424.7,1800.17 1421.84,1798.53 1417.23,1795.07 1412.28,1789.57 1408.57,1783.15 1406.28,1776.11 1405.51,1768.74 1405.51,1754.96 1397.64,1754.96 1397.64,1771.87 1398.2,1777.45 1401.43,1787.17 1406.74,1795.78 1412.34,1801.61 1416.19,1808.33 1417.37,1811.08 1418.01,1814.01 1418.08,1817 1417.69,1822.49 1417.28,1825.08 1416.46,1827.56 1412,1834.74 1406.74,1840.12 1401.43,1848.74 1398.2,1858.46 1397.64,1864.03 1397.64,1880.94" style="stroke:rgb(0,0,0);stroke-width:1px;fill:none;stroke-opacity:1;stroke-linecap:round;stroke-linejoin:round;;fill:none"/>
<polyline points="1397.64,1968.72 1398.2,1974.3 1401.43,1984.02 1406.74,1992.63 1413.9,1999.79 1422.52,2005.11 1432.23,2008.33 1437.81,2008.9 1441.93,2008.9 1441.93,2001.02 1438.06,2000.89 1431.59,1999.72 1428.46,1998.7 1423.23,1996.28 1417.23,1991.92 1413.32,1987.7 1411.38,1985.04 1408.57,1980 1406.28,1972.96 1405.51,1965.59 1405.51,1951.81 1397.64,1951.81 1397.64,1968.72" style="stroke:rgb(167,241,217);stroke-width:31.496063;fill:none;stroke-opacity:0.5;stroke-linecap:round;stroke-linejoin:round;;fill:none"/>
<polyline points="1397.64,1968.72 1398.2,1974.3 1401.43,1984.02 1406.74,1992.63 1413.9,1999.79 1422.52,2005.11 1432.23,2008.33 1437.81,2008.9 1441.93,2008.9 1441.93,2001.02 1438.06,2000.89 1431.59,1999.72 1428.46,1998.7 1423.23,1996.28 1417.23,1991.92 1413.32,1987.7 1411.38,1985.04 1408.57,1980 1406.28,1972.96 1405.51,1965.59 1405.51,1951.81 1397.64,1951.81 1397.64,1968.72" style="stroke:rgb(0,0,0);stroke-width:1px;fill:none;stroke-opacity:1;stroke-linecap:round;stroke-linejoin:round;;fill:none"/>
<polyline points="161.416,2727.27 163.222,2745.29 168.824,2762.53 177.886,2778.23 190.014,2791.7 204.68,2802.35 221.236,2809.72 238.966,2813.49 257.092,2813.49 274.822,2809.72 291.38,2802.35 306.044,2791.7 318.172,2778.23 327.234,2762.53 332.836,2745.29 334.73,2727.27 332.836,2709.24 327.234,2692 318.172,2676.3 306.044,2662.83 291.38,2652.18 274.822,2644.81 257.092,2641.04 238.966,2641.04 221.236,2644.81 204.68,2652.18 190.014,2662.83 177.886,2676.3 168.824,2692 163.222,2709.24 161.416,2727.27 152.798,2727.27 154.098,2742.94 157.958,2758.19 164.276,2772.59 172.878,2785.76 183.532,2797.33 195.942,2806.99 209.774,2814.48 224.65,2819.58 240.166,2822.17 255.894,2822.17 271.408,2819.58 286.284,2814.48 300.116,2806.99 312.526,2797.33 323.18,2785.76 331.782,2772.59 338.1,2758.19 341.96,2742.94 343.26,2727.27 341.96,2711.59 338.1,2696.35 331.782,2681.94 323.178,2668.77 312.526,2657.2 300.116,2647.54 286.282,2640.06 271.408,2634.95 255.894,2632.36 240.166,2632.36 224.65,2634.95 209.774,2640.06 195.942,2647.54 183.532,2657.2 172.88,2668.77 164.276,2681.94 157.958,2696.35 154.098,2711.59 152.798,2727.27" style="stroke:rgb(167,241,217);stroke-width:31.496063;fill:none;stroke-opacity:0.5;stroke-linecap:round;stroke-linejoin:round;;fill:none"/>
<polyline points="161.416,2727.27 163.222,2745.29 168.824,2762.53 177.886,2778.23 190.014,2791.7 204.68,2802.35 221.236,2809.72 238.966,2813.49 257.092,2813.49 274.822,2809.72 291.38,2802.35 306.044,2791.7 318.172,2778.23 327.234,2762.53 332.836,2745.29 334.73,2727.27 332.836,2709.24 327.234,2692 318.172,2676.3 306.044,2662.83 291.38,2652.18 274.822,2644.81 257.092,2641.04 238.966,2641.04 221.236,2644.81 204.68,2652.18 190.014,2662.83 177.886,2676.3 168.824,2692 163.222,2709.24 161.416,2727.27 152.798,2727.27 154.098,2742.94 157.958,2758.19 164.276,2772.59 172.878,2785.76 183.532,2797.33 195.942,2806.99 209.774,2814.48 224.65,2819.58 240.166,2822.17 255.894,2822.17 271.408,2819.58 286.284,2814.48 300.116,2806.99 312.526,2797.33 323.18,2785.76 331.782,2772.59 338.1,2758.19 341.96,2742.94 343.26,2727.27 341.96,2711.59 338.1,2696.35 331.782,2681.94 323.178,2668.77 312.526,2657.2 300.116,2647.54 286.282,2640.06 271.408,2634.95 255.894,2632.36 240.166,2632.36 224.65,2634.95 209.774,2640.06 195.942,2647.54 183.532,2657.2 172.88,2668.77 164.276,2681.94 157.958,2696.35 154.098,2711.59 152.798,2727.27" style="stroke:rgb(0,0,0);stroke-width:1px;fill:none;stroke-opacity:1;stroke-linecap:round;stroke-linejoin:round;;fill:none"/>
<polyline points="1570.12,3545.56 1571.42,3529.88 1575.28,3514.64 1581.6,3500.23 1590.2,3487.07 1600.85,3475.49 1613.27,3465.83 1627.1,3458.35 1641.97,3453.24 1657.49,3450.65 1673.22,3450.65 1688.73,3453.24 1703.61,3458.35 1717.44,3465.83 1729.85,3475.49 1740.5,3487.07 1749.11,3500.23 1755.42,3514.64 1759.28,3529.88 1760.58,3545.56 1759.28,3561.23 1755.42,3576.48 1749.11,3590.88 1740.5,3604.05 1729.85,3615.62 1717.44,3625.28 1703.61,3632.77 1688.73,3637.87 1673.22,3640.46 1657.49,3640.46 1641.97,3637.87 1627.1,3632.77 1613.27,3625.28 1600.85,3615.62 1590.2,3604.05 1581.6,3590.88 1575.28,3576.48 1571.42,3561.23 1570.12,3545.56 1578.74,3545.56 1580.55,3527.53 1586.15,3510.29 1595.21,3494.6 1607.34,3481.13 1622,3470.47 1638.56,3463.1 1656.29,3459.33 1674.41,3459.33 1692.14,3463.1 1708.7,3470.47 1723.37,3481.13 1735.5,3494.6 1744.56,3510.29 1750.16,3527.53 1752.05,3545.56 1750.16,3563.59 1744.56,3580.82 1735.5,3596.52 1723.37,3609.99 1708.7,3620.64 1692.14,3628.02 1674.41,3631.78 1656.29,3631.78 1638.56,3628.02 1622,3620.64 1607.34,3609.99 1595.21,3596.52 1586.15,3580.82 1580.55,3563.59 1578.74,3545.56" style="stroke:rgb(167,241,217);stroke-width:31.496063;fill:none;stroke-opacity:0.5;stroke-linecap:round;stroke-linejoin:round;;fill:none"/>
<polyline points="1570.12,3545.56 1571.42,3529.88 1575.28,3514.64 1581.6,3500.23 1590.2,3487.07 1600.85,3475.49 1613.27,3465.83 1627.1,3458.35 1641.97,3453.24 1657.49,3450.65 1673.22,3450.65 1688.73,3453.24 1703.61,3458.35 1717.44,3465.83 1729.85,3475.49 1740.5,3487.07 1749.11,3500.23 1755.42,3514.64 1759.28,3529.88 1760.58,3545.56 1759.28,3561.23 1755.42,3576.48 1749.11,3590.88 1740.5,3604.05 1729.85,3615.62 1717.44,3625.28 1703.61,3632.77 1688.73,3637.87 1673.22,3640.46 1657.49,3640.46 1641.97,3637.87 1627.1,3632.77 1613.27,3625.28 1600.85,3615.62 1590.2,3604.05 1581.6,3590.88 1575.28,3576.48 1571.42,3561.23 1570.12,3545.56 1578.74,3545.56 1580.55,3527.53 1586.15,3510.29 1595.21,3494.6 1607.34,3481.13 1622,3470.47 1638.56,3463.1 1656.29,3459.33 1674.41,3459.33 1692.14,3463.1 1708.7,3470.47 1723.37,3481.13 1735.5,3494.6 1744.56,3510.29 1750.16,3527.53 1752.05,3545.56 1750.16,3563.59 1744.56,3580.82 1735.5,3596.52 1723.37,3609.99 1708.7,3620.64 1692.14,3628.02 1674.41,3631.78 1656.29,3631.78 1638.56,3628.02 1622,3620.64 1607.34,3609.99 1595.21,3596.52 1586.15,3580.82 1580.55,3563.59 1578.74,3545.56" style="stroke:rgb(0,0,0);stroke-width:1px;fill:none;stroke-opacity:1;stroke-linecap:round;stroke-linejoin:round;;fill:none"/>
</svg>
