<?xml version="1.0" standalone="no"?>
<!DOCTYPE svg PUBLIC "-//W3C//DTD SVG 1.1//EN"
"http://www.w3.org/Graphics/SVG/1.1/DTD/svg11.dtd">
<svg width="171.458" height="180.994" viewBox="0 0 3572.05 3770.71" version="1.1"
xmlns="http://www.w3.org/2000/svg"
xmlns:xlink="http://www.w3.org/1999/xlink">
<polyline points="35.4302,2794.57 35.9102,2800.03 37.3302,2805.34 39.6502,2810.31 42.8002,2814.81 46.6822,2818.69 51.1782,2821.84 1625.98,3731.06 1630.96,3733.38 1636.26,3734.8 1641.73,3735.28 1647.2,3734.8 1652.5,3733.38 1657.48,3731.06 3232.28,2821.84 3236.78,2818.69 3240.66,2814.81 3243.81,2810.31 3246.13,2805.34 3247.55,2800.03 3248.03,2794.57 3248.03,2441.23 3248.03,2396.69 3185.04,2333.7 2744.09,2333.7 2744.09,1451.81 3140.49,1451.81 3185.04,1451.81 3248.03,1388.82 3248.03,976.14 3247.55,970.67 3246.13,965.366 3243.81,960.39 3240.66,955.894 3236.78,952.012 3232.28,948.862 1657.48,39.6504 1652.5,37.3304 1647.2,35.9104 1641.73,35.4304 1636.26,35.9104 1630.96,37.3304 1625.98,39.6504 51.1782,948.862 46.6822,952.012 42.8002,955.894 39.6502,960.39 37.3302,965.366 35.9102,970.67 35.4302,976.14 35.4302,2794.57" style="stroke:rgb(103,198,105);stroke-width:62.992126;fill:none;stroke-opacity:0.5;stroke-linecap:round;stroke-linejoin:round;;fill:none"/>
<polyline points="35.4302,2794.57 35.9102,2800.03 37.3302,2805.34 39.6502,2810.31 42.8002,2814.81 46.6822,2818.69 51.1782,2821.84 1625.98,3731.06 1630.96,3733.38 1636.26,3734.8 1641.73,3735.28 1647.2,3734.8 1652.5,3733.38 1657.48,3731.06 3232.28,2821.84 3236.78,2818.69 3240.66,2814.81 3243.81,2810.31 3246.13,2805.34 3247.55,2800.03 3248.03,2794.57 3248.03,2441.23 3248.03,2396.69 3185.04,2333.7 2744.09,2333.7 2744.09,1451.81 3140.49,1451.81 3185.04,1451.81 3248.03,1388.82 3248.03,976.14 3247.55,970.67 3246.13,965.366 3243.81,960.39 3240.66,955.894 3236.78,952.012 3232.28,948.862 1657.48,39.6504 1652.5,37.3304 1647.2,35.9104 1641.73,35.4304 1636.26,35.9104 1630.96,37.3304 1625.98,39.6504 51.1782,948.862 46.6822,952.012 42.8002,955.894 39.6502,960.39 37.3302,965.366 35.9102,970.67 35.4302,976.14 35.4302,2794.57" style="stroke:rgb(0,0,0);stroke-width:1px;fill:none;stroke-opacity:1;stroke-linecap:round;stroke-linejoin:round;;fill:none"/>
<polyline points="1586.78,3521.94 1587.99,3510.52 1591.54,3499.59 1597.28,3489.64 1604.96,3481.1 1614.26,3474.35 1624.75,3469.68 1635.99,3467.29 1647.47,3467.29 1658.71,3469.68 1669.2,3474.35 1678.5,3481.11 1686.18,3489.64 1691.92,3499.59 1695.47,3510.51 1696.68,3521.94 1695.47,3533.36 1691.93,3544.28 1686.18,3554.23 1678.5,3562.77 1669.2,3569.52 1658.71,3574.19 1647.47,3576.58 1635.99,3576.58 1624.75,3574.19 1614.26,3569.52 1604.96,3562.77 1597.28,3554.23 1591.54,3544.29 1587.99,3533.36 1586.78,3521.94" style="stroke:rgb(103,198,105);stroke-width:62.992126;fill:none;stroke-opacity:0.5;stroke-linecap:round;stroke-linejoin:round;;fill:none"/>
<polyline points="1586.78,3521.94 1587.99,3510.52 1591.54,3499.59 1597.28,3489.64 1604.96,3481.1 1614.26,3474.35 1624.75,3469.68 1635.99,3467.29 1647.47,3467.29 1658.71,3469.68 1669.2,3474.35 1678.5,3481.11 1686.18,3489.64 1691.92,3499.59 1695.47,3510.51 1696.68,3521.94 1695.47,3533.36 1691.93,3544.28 1686.18,3554.23 1678.5,3562.77 1669.2,3569.52 1658.71,3574.19 1647.47,3576.58 1635.99,3576.58 1624.75,3574.19 1614.26,3569.52 1604.96,3562.77 1597.28,3554.23 1591.54,3544.29 1587.99,3533.36 1586.78,3521.94" style="stroke:rgb(0,0,0);stroke-width:1px;fill:none;stroke-opacity:1;stroke-linecap:round;stroke-linejoin:round;;fill:none"/>
<polyline points="1586.78,248.77 1587.99,237.348 1591.54,226.42 1597.28,216.474 1604.96,207.938 1614.26,201.186 1624.75,196.514 1635.99,194.126 1647.47,194.126 1658.71,196.514 1669.2,201.186 1678.5,207.938 1686.18,216.474 1691.93,226.422 1695.47,237.346 1696.68,248.77 1695.47,260.192 1691.92,271.118 1686.18,281.066 1678.5,289.602 1669.2,296.352 1658.71,301.026 1647.47,303.412 1635.99,303.412 1624.75,301.026 1614.26,296.352 1604.96,289.602 1597.28,281.066 1591.54,271.12 1587.99,260.19 1586.78,248.77" style="stroke:rgb(103,198,105);stroke-width:62.992126;fill:none;stroke-opacity:0.5;stroke-linecap:round;stroke-linejoin:round;;fill:none"/>
<polyline points="1586.78,248.77 1587.99,237.348 1591.54,226.42 1597.28,216.474 1604.96,207.938 1614.26,201.186 1624.75,196.514 1635.99,194.126 1647.47,194.126 1658.71,196.514 1669.2,201.186 1678.5,207.938 1686.18,216.474 1691.93,226.422 1695.47,237.346 1696.68,248.77 1695.47,260.192 1691.92,271.118 1686.18,281.066 1678.5,289.602 1669.2,296.352 1658.71,301.026 1647.47,303.412 1635.99,303.412 1624.75,301.026 1614.26,296.352 1604.96,289.602 1597.28,281.066 1591.54,271.12 1587.99,260.19 1586.78,248.77" style="stroke:rgb(0,0,0);stroke-width:1px;fill:none;stroke-opacity:1;stroke-linecap:round;stroke-linejoin:round;;fill:none"/>
<polyline points="169.462,2703.65 170.662,2692.22 174.212,2681.3 179.956,2671.35 187.64,2662.81 196.936,2656.06 207.428,2651.39 218.662,2649 230.152,2649 241.386,2651.39 251.88,2656.06 261.172,2662.81 268.858,2671.35 274.6,2681.3 278.152,2692.22 279.352,2703.65 278.152,2715.07 274.602,2725.99 268.858,2735.94 261.172,2744.48 251.88,2751.23 241.386,2755.9 230.148,2758.29 218.666,2758.29 207.426,2755.9 196.936,2751.23 187.642,2744.48 179.956,2735.94 174.212,2725.99 170.662,2715.07 169.462,2703.65" style="stroke:rgb(103,198,105);stroke-width:62.992126;fill:none;stroke-opacity:0.5;stroke-linecap:round;stroke-linejoin:round;;fill:none"/>
<polyline points="169.462,2703.65 170.662,2692.22 174.212,2681.3 179.956,2671.35 187.64,2662.81 196.936,2656.06 207.428,2651.39 218.662,2649 230.152,2649 241.386,2651.39 251.88,2656.06 261.172,2662.81 268.858,2671.35 274.6,2681.3 278.152,2692.22 279.352,2703.65 278.152,2715.07 274.602,2725.99 268.858,2735.94 261.172,2744.48 251.88,2751.23 241.386,2755.9 230.148,2758.29 218.666,2758.29 207.426,2755.9 196.936,2751.23 187.642,2744.48 179.956,2735.94 174.212,2725.99 170.662,2715.07 169.462,2703.65" style="stroke:rgb(0,0,0);stroke-width:1px;fill:none;stroke-opacity:1;stroke-linecap:round;stroke-linejoin:round;;fill:none"/>
<polyline points="169.462,1067.06 170.662,1055.64 174.212,1044.71 179.956,1034.77 187.642,1026.23 196.936,1019.48 207.428,1014.81 218.666,1012.42 230.148,1012.42 241.386,1014.81 251.88,1019.48 261.172,1026.23 268.858,1034.77 274.602,1044.71 278.152,1055.64 279.352,1067.06 278.152,1078.48 274.602,1089.41 268.858,1099.35 261.172,1107.89 251.88,1114.64 241.386,1119.32 230.148,1121.71 218.666,1121.71 207.428,1119.32 196.936,1114.64 187.642,1107.89 179.956,1099.36 174.212,1089.41 170.662,1078.49 169.462,1067.06" style="stroke:rgb(103,198,105);stroke-width:62.992126;fill:none;stroke-opacity:0.5;stroke-linecap:round;stroke-linejoin:round;;fill:none"/>
<polyline points="169.462,1067.06 170.662,1055.64 174.212,1044.71 179.956,1034.77 187.642,1026.23 196.936,1019.48 207.428,1014.81 218.666,1012.42 230.148,1012.42 241.386,1014.81 251.88,1019.48 261.172,1026.23 268.858,1034.77 274.602,1044.71 278.152,1055.64 279.352,1067.06 278.152,1078.48 274.602,1089.41 268.858,1099.35 261.172,1107.89 251.88,1114.64 241.386,1119.32 230.148,1121.71 218.666,1121.71 207.428,1119.32 196.936,1114.64 187.642,1107.89 179.956,1099.36 174.212,1089.41 170.662,1078.49 169.462,1067.06" style="stroke:rgb(0,0,0);stroke-width:1px;fill:none;stroke-opacity:1;stroke-linecap:round;stroke-linejoin:round;;fill:none"/>
<polyline points="3004.11,2703.65 3005.31,2692.22 3008.86,2681.3 3014.6,2671.35 3022.29,2662.81 3031.58,2656.06 3042.07,2651.39 3053.31,2649 3064.8,2649 3076.03,2651.39 3086.52,2656.06 3095.82,2662.81 3103.5,2671.35 3109.25,2681.3 3112.8,2692.22 3114,2703.65 3112.8,2715.07 3109.25,2725.99 3103.5,2735.94 3095.82,2744.48 3086.52,2751.23 3076.03,2755.9 3064.79,2758.29 3053.31,2758.29 3042.07,2755.9 3031.58,2751.23 3022.29,2744.48 3014.6,2735.94 3008.86,2725.99 3005.31,2715.07 3004.11,2703.65" style="stroke:rgb(103,198,105);stroke-width:62.992126;fill:none;stroke-opacity:0.5;stroke-linecap:round;stroke-linejoin:round;;fill:none"/>
<polyline points="3004.11,2703.65 3005.31,2692.22 3008.86,2681.3 3014.6,2671.35 3022.29,2662.81 3031.58,2656.06 3042.07,2651.39 3053.31,2649 3064.8,2649 3076.03,2651.39 3086.52,2656.06 3095.82,2662.81 3103.5,2671.35 3109.25,2681.3 3112.8,2692.22 3114,2703.65 3112.8,2715.07 3109.25,2725.99 3103.5,2735.94 3095.82,2744.48 3086.52,2751.23 3076.03,2755.9 3064.79,2758.29 3053.31,2758.29 3042.07,2755.9 3031.58,2751.23 3022.29,2744.48 3014.6,2735.94 3008.86,2725.99 3005.31,2715.07 3004.11,2703.65" style="stroke:rgb(0,0,0);stroke-width:1px;fill:none;stroke-opacity:1;stroke-linecap:round;stroke-linejoin:round;;fill:none"/>
<polyline points="3004.11,1067.06 3005.31,1055.64 3008.86,1044.71 3014.6,1034.77 3022.29,1026.23 3031.58,1019.48 3042.07,1014.81 3053.31,1012.42 3064.79,1012.42 3076.03,1014.81 3086.52,1019.48 3095.82,1026.23 3103.5,1034.77 3109.25,1044.71 3112.8,1055.64 3114,1067.06 3112.8,1078.48 3109.25,1089.41 3103.5,1099.35 3095.82,1107.89 3086.52,1114.64 3076.03,1119.32 3064.79,1121.71 3053.31,1121.71 3042.07,1119.32 3031.58,1114.64 3022.29,1107.89 3014.6,1099.36 3008.86,1089.41 3005.31,1078.49 3004.11,1067.06" style="stroke:rgb(103,198,105);stroke-width:62.992126;fill:none;stroke-opacity:0.5;stroke-linecap:round;stroke-linejoin:round;;fill:none"/>
<polyline points="3004.11,1067.06 3005.31,1055.64 3008.86,1044.71 3014.6,1034.77 3022.29,1026.23 3031.58,1019.48 3042.07,1014.81 3053.31,1012.42 3064.79,1012.42 3076.03,1014.81 3086.52,1019.48 3095.82,1026.23 3103.5,1034.77 3109.25,1044.71 3112.8,1055.64 3114,1067.06 3112.8,1078.48 3109.25,1089.41 3103.5,1099.35 3095.82,1107.89 3086.52,1114.64 3076.03,1119.32 3064.79,1121.71 3053.31,1121.71 3042.07,1119.32 3031.58,1114.64 3022.29,1107.89 3014.6,1099.36 3008.86,1089.41 3005.31,1078.49 3004.11,1067.06" style="stroke:rgb(0,0,0);stroke-width:1px;fill:none;stroke-opacity:1;stroke-linecap:round;stroke-linejoin:round;;fill:none"/>
<polyline points="3185.04,2333.7 3248.03,2396.69 3505.12,2396.69 3511.26,2396.09 3517.17,2394.3 3522.61,2391.39 3527.39,2387.47 3531.3,2382.7 3534.21,2377.25 3536.01,2371.34 3536.61,2365.2 3536.61,1420.32 3536.01,1414.17 3534.21,1408.26 3531.3,1402.82 3527.39,1398.04 3522.61,1394.13 3517.17,1391.22 3511.26,1389.42 3505.12,1388.82 3292.57,1388.82 3248.03,1388.82 3185.04,1451.81 3185.04,2333.7" style="stroke:rgb(115,81,255);stroke-width:62.992126;fill:none;stroke-opacity:0.5;stroke-linecap:round;stroke-linejoin:round;;fill:none"/>
<polyline points="3185.04,2333.7 3248.03,2396.69 3505.12,2396.69 3511.26,2396.09 3517.17,2394.3 3522.61,2391.39 3527.39,2387.47 3531.3,2382.7 3534.21,2377.25 3536.01,2371.34 3536.61,2365.2 3536.61,1420.32 3536.01,1414.17 3534.21,1408.26 3531.3,1402.82 3527.39,1398.04 3522.61,1394.13 3517.17,1391.22 3511.26,1389.42 3505.12,1388.82 3292.57,1388.82 3248.03,1388.82 3185.04,1451.81 3185.04,2333.7" style="stroke:rgb(0,0,0);stroke-width:1px;fill:none;stroke-opacity:1;stroke-linecap:round;stroke-linejoin:round;;fill:none"/>
</svg>
