M48
; DRILL file {KiCad 7.0.5} date Wed Jan 17 11:15:46 2024
; FORMAT={-:-/ absolute / inch / decimal}
; #@! TF.CreationDate,2024-01-17T11:15:46-05:00
; #@! TF.GenerationSoftware,Kicad,Pcbnew,7.0.5
; #@! TF.FileFunction,Plated,1,2,PTH
FMAT,2
INCH
; #@! TA.AperFunction,Plated,PTH,ViaDrill
T1C0.0130
; #@! TA.AperFunction,Plated,PTH,ComponentDrill
T2C0.0157
; #@! TA.AperFunction,Plated,PTH,ComponentDrill
T3C0.0177
; #@! TA.AperFunction,Plated,PTH,ComponentDrill
T4C0.0276
; #@! TA.AperFunction,Plated,PTH,ComponentDrill
T5C0.0315
; #@! TA.AperFunction,Plated,PTH,ComponentDrill
T6C0.0394
%
G90
G05
T1
X5.1638Y-4.2598
X5.2425Y-4.2598
X5.3213Y-3.433
X5.3213Y-3.5118
X5.3213Y-3.5905
X5.3213Y-3.6692
X5.3213Y-3.748
X5.3213Y-4.181
X5.3213Y-4.2598
X5.3213Y-4.3385
X5.3213Y-4.4173
X5.4Y-3.433
X5.4Y-3.5118
X5.4Y-3.5905
X5.4Y-3.6692
X5.4Y-3.748
X5.4Y-3.8267
X5.4Y-3.9645
X5.4Y-4.2598
X5.4Y-4.3385
X5.4Y-4.4173
X5.4Y-4.496
X5.4787Y-3.3543
X5.4787Y-3.433
X5.4787Y-3.5118
X5.4787Y-3.5905
X5.4787Y-3.748
X5.4787Y-3.9645
X5.4787Y-4.2598
X5.4787Y-4.3385
X5.4787Y-4.4173
X5.4787Y-4.496
X5.5575Y-3.3543
X5.5575Y-3.433
X5.5575Y-3.5118
X5.5575Y-3.5905
X5.5575Y-3.748
X5.5575Y-3.8267
X5.5575Y-3.9645
X5.5575Y-4.2598
X5.5575Y-4.3385
X5.5575Y-4.4173
X5.5575Y-4.496
X5.5575Y-4.5747
X5.6362Y-3.748
X5.6362Y-3.9645
X5.6362Y-4.2598
X5.6362Y-4.3385
X5.6559Y-3.5118
X5.6559Y-3.5905
X5.6559Y-3.6692
X5.715Y-3.2362
X5.715Y-3.5118
X5.715Y-3.5905
X5.715Y-3.6692
X5.715Y-4.2598
X5.715Y-4.3385
X5.715Y-4.6535
X5.7937Y-3.1574
X5.7937Y-3.2362
X5.7937Y-3.5118
X5.7937Y-3.5905
X5.7937Y-3.6692
X5.7937Y-4.3385
X5.7937Y-4.6535
X5.7937Y-4.7322
X5.8724Y-3.2362
X5.8724Y-3.5905
X5.8724Y-3.6692
X5.8724Y-4.181
X5.8724Y-4.6535
X5.9512Y-3.2362
X5.9512Y-4.181
X5.9512Y-4.2598
X5.9512Y-4.6535
X6.0297Y-3.1574
X6.0299Y-3.2362
X6.0299Y-4.181
X6.0299Y-4.2598
X6.0299Y-4.6535
X6.0299Y-4.7322
X6.1087Y-3.2362
X6.1087Y-3.6102
X6.1087Y-4.181
X6.1087Y-4.2598
X6.1087Y-4.6535
X6.1874Y-4.181
X6.1874Y-4.2598
X6.1874Y-4.3385
X6.2386Y-3.7401
X6.2661Y-4.181
X6.2661Y-4.2598
X6.2661Y-4.3385
X6.2661Y-4.4173
X6.2661Y-4.496
X6.2661Y-4.5747
X6.3055Y-3.3425
X6.3094Y-3.8287
X6.3449Y-3.5019
X6.3449Y-3.5905
X6.3449Y-4.1023
X6.3449Y-4.181
X6.3449Y-4.2598
X6.3449Y-4.3385
X6.3449Y-4.4173
X6.3449Y-4.496
X6.3547Y-3.746
X6.4236Y-3.5019
X6.4236Y-3.5905
X6.4236Y-3.6692
X6.4236Y-4.1023
X6.4236Y-4.181
X6.4236Y-4.2598
X6.4236Y-4.3385
X6.4236Y-4.4173
X6.4236Y-4.496
X6.4315Y-3.8208
X6.4386Y-3.9846
X6.4394Y-3.4212
X6.5024Y-3.5118
X6.5024Y-3.5905
X6.5024Y-3.6692
X6.5024Y-3.748
X6.5024Y-4.1023
X6.5024Y-4.181
X6.5024Y-4.2598
X6.5024Y-4.3385
X6.5024Y-4.4173
X6.5811Y-3.6692
X6.5811Y-3.748
X6.5811Y-4.181
X6.5811Y-4.2598
T3
X6.1832Y-3.9155
X6.1832Y-3.9667
X6.2225Y-3.8899
X6.2225Y-3.9411
X6.2225Y-3.9923
T5
X5.1949Y-3.7389
X5.1949Y-3.8177
X5.1949Y-4.0039
X5.1949Y-4.0826
X5.8331Y-3.8267
X5.8331Y-4.0433
X5.9118Y-3.8267
X5.9118Y-4.0433
X5.9906Y-3.8267
X5.9906Y-4.0433
X6.6366Y-3.8228
X6.6366Y-3.9015
X6.6366Y-3.9803
X6.6366Y-4.059
T6
X5.4689Y-3.807
X5.4689Y-4.0629
X5.6461Y-3.807
X5.6461Y-4.0629
X5.6618Y-3.3042
X5.6618Y-3.4042
X5.6618Y-4.4781
X5.6618Y-4.5781
X5.7618Y-3.3042
X5.7618Y-3.4042
X5.7618Y-4.4781
X5.7618Y-4.5781
X5.8618Y-3.3042
X5.8618Y-3.4042
X5.8618Y-4.4781
X5.8618Y-4.5781
X5.9618Y-3.3042
X5.9618Y-3.4042
X5.9618Y-4.4781
X5.9618Y-4.5781
X6.0618Y-3.3042
X6.0618Y-3.4042
X6.0618Y-4.4781
X6.0618Y-4.5781
X6.1618Y-3.3042
X6.1618Y-3.4042
X6.1618Y-4.4781
X6.1618Y-4.5781
T2
G00X6.1942Y-3.8004
M15
G01X6.2336Y-3.8004
M16
G05
G00X6.1942Y-4.0819
M15
G01X6.2336Y-4.0819
M16
G05
T4
G00X5.7465Y-3.811
M15
G01X5.7465Y-3.8425
M16
G05
G00X5.7465Y-4.059
M15
G01X5.7465Y-4.0275
M16
G05
G00X6.0772Y-3.811
M15
G01X6.0772Y-3.8425
M16
G05
G00X6.0772Y-4.059
M15
G01X6.0772Y-4.0275
M16
G05
T0
M30
