%TF.GenerationSoftware,KiCad,Pcbnew,7.0.5*%
%TF.CreationDate,2024-01-17T11:15:45-05:00*%
%TF.ProjectId,CTRL,4354524c-2e6b-4696-9361-645f70636258,rev?*%
%TF.SameCoordinates,Original*%
%TF.FileFunction,Soldermask,Bot*%
%TF.FilePolarity,Negative*%
%FSLAX46Y46*%
G04 Gerber Fmt 4.6, Leading zero omitted, Abs format (unit mm)*
G04 Created by KiCad (PCBNEW 7.0.5) date 2024-01-17 11:15:45*
%MOMM*%
%LPD*%
G01*
G04 APERTURE LIST*
G04 Aperture macros list*
%AMRoundRect*
0 Rectangle with rounded corners*
0 $1 Rounding radius*
0 $2 $3 $4 $5 $6 $7 $8 $9 X,Y pos of 4 corners*
0 Add a 4 corners polygon primitive as box body*
4,1,4,$2,$3,$4,$5,$6,$7,$8,$9,$2,$3,0*
0 Add four circle primitives for the rounded corners*
1,1,$1+$1,$2,$3*
1,1,$1+$1,$4,$5*
1,1,$1+$1,$6,$7*
1,1,$1+$1,$8,$9*
0 Add four rect primitives between the rounded corners*
20,1,$1+$1,$2,$3,$4,$5,0*
20,1,$1+$1,$4,$5,$6,$7,0*
20,1,$1+$1,$6,$7,$8,$9,0*
20,1,$1+$1,$8,$9,$2,$3,0*%
G04 Aperture macros list end*
%ADD10RoundRect,0.237500X-0.287500X-0.237500X0.287500X-0.237500X0.287500X0.237500X-0.287500X0.237500X0*%
%ADD11R,1.500000X1.500000*%
%ADD12R,1.700000X1.700000*%
%ADD13O,1.700000X1.700000*%
%ADD14R,1.350000X1.350000*%
%ADD15O,1.350000X1.350000*%
%ADD16RoundRect,0.102000X-0.654000X-0.654000X0.654000X-0.654000X0.654000X0.654000X-0.654000X0.654000X0*%
%ADD17C,1.512000*%
%ADD18O,1.434000X2.664000*%
%ADD19C,1.162000*%
%ADD20O,2.020000X1.112000*%
%ADD21RoundRect,0.102000X0.654000X0.654000X-0.654000X0.654000X-0.654000X-0.654000X0.654000X-0.654000X0*%
%ADD22RoundRect,0.102000X0.754000X-0.754000X0.754000X0.754000X-0.754000X0.754000X-0.754000X-0.754000X0*%
%ADD23C,1.712000*%
G04 APERTURE END LIST*
D10*
%TO.C,D1*%
X163785000Y-99198621D03*
X165535000Y-99198621D03*
%TD*%
D11*
%TO.C,TP1*%
X140910000Y-93298621D03*
%TD*%
D12*
%TO.C,J1*%
X143810000Y-86465599D03*
D13*
X143810000Y-83925599D03*
X146350000Y-86465599D03*
X146350000Y-83925599D03*
X148890000Y-86465599D03*
X148890000Y-83925599D03*
X151430000Y-86465599D03*
X151430000Y-83925599D03*
X153970000Y-86465599D03*
X153970000Y-83925599D03*
X156510000Y-86465599D03*
X156510000Y-83925599D03*
%TD*%
D12*
%TO.C,J2*%
X156510000Y-113743621D03*
D13*
X156510000Y-116283621D03*
X153970000Y-113743621D03*
X153970000Y-116283621D03*
X151430000Y-113743621D03*
X151430000Y-116283621D03*
X148890000Y-113743621D03*
X148890000Y-116283621D03*
X146350000Y-113743621D03*
X146350000Y-116283621D03*
X143810000Y-113743621D03*
X143810000Y-116283621D03*
%TD*%
D14*
%TO.C,J4*%
X131950000Y-103698621D03*
D15*
X131950000Y-101698621D03*
%TD*%
D14*
%TO.C,J6*%
X168570000Y-97098621D03*
D15*
X168570000Y-99098621D03*
X168570000Y-101098621D03*
X168570000Y-103098621D03*
%TD*%
D14*
%TO.C,J5*%
X131950000Y-94968621D03*
D15*
X131950000Y-96968621D03*
%TD*%
D16*
%TO.C,S2*%
X148160000Y-97198621D03*
D17*
X150160000Y-97198621D03*
X152160000Y-97198621D03*
D18*
X145960000Y-97198621D03*
X154360000Y-97198621D03*
%TD*%
D19*
%TO.C,J3*%
X158052500Y-101404610D03*
X157052500Y-100754610D03*
X158052500Y-100104610D03*
X157052500Y-99454610D03*
X158052500Y-98804610D03*
D20*
X157832500Y-103679610D03*
X157832500Y-96529610D03*
%TD*%
D21*
%TO.C,S3*%
X152160000Y-102698621D03*
D17*
X150160000Y-102698621D03*
X148160000Y-102698621D03*
D18*
X154360000Y-102698621D03*
X145960000Y-102698621D03*
%TD*%
D22*
%TO.C,S1*%
X138910000Y-103198621D03*
D23*
X138910000Y-96698621D03*
X143410000Y-103198621D03*
X143410000Y-96698621D03*
%TD*%
M02*
