%TF.GenerationSoftware,KiCad,Pcbnew,7.0.5*%
%TF.CreationDate,2024-01-17T11:15:44-05:00*%
%TF.ProjectId,CTRL,4354524c-2e6b-4696-9361-645f70636258,rev?*%
%TF.SameCoordinates,Original*%
%TF.FileFunction,Legend,Top*%
%TF.FilePolarity,Positive*%
%FSLAX46Y46*%
G04 Gerber Fmt 4.6, Leading zero omitted, Abs format (unit mm)*
G04 Created by KiCad (PCBNEW 7.0.5) date 2024-01-17 11:15:44*
%MOMM*%
%LPD*%
G01*
G04 APERTURE LIST*
%ADD10C,0.120000*%
%ADD11C,0.200000*%
G04 APERTURE END LIST*
D10*
%TO.C,TP3*%
X163907724Y-88196345D02*
X162262276Y-87246345D01*
X164857724Y-86550897D02*
X163907724Y-88196345D01*
X163212276Y-85600897D02*
X164857724Y-86550897D01*
X162262276Y-87246345D02*
X163212276Y-85600897D01*
%TO.C,TP2*%
X160507724Y-86196345D02*
X158862276Y-85246345D01*
X161457724Y-84550897D02*
X160507724Y-86196345D01*
X159812276Y-83600897D02*
X161457724Y-84550897D01*
X158862276Y-85246345D02*
X159812276Y-83600897D01*
%TO.C,R4*%
X150737500Y-91253345D02*
X150737500Y-90743897D01*
X151782500Y-91253345D02*
X151782500Y-90743897D01*
%TO.C,F1*%
X159070000Y-91016557D02*
X159070000Y-92220685D01*
X157250000Y-91016557D02*
X157250000Y-92220685D01*
%TO.C,R15*%
X165760121Y-98428621D02*
X165424879Y-98428621D01*
X165760121Y-97668621D02*
X165424879Y-97668621D01*
%TO.C,J1*%
X142480000Y-87795599D02*
X142480000Y-86465599D01*
X143810000Y-87795599D02*
X142480000Y-87795599D01*
X145080000Y-87795599D02*
X157840000Y-87795599D01*
X145080000Y-87795599D02*
X145080000Y-85195599D01*
X157840000Y-87795599D02*
X157840000Y-82595599D01*
X142480000Y-85195599D02*
X142480000Y-82595599D01*
X145080000Y-85195599D02*
X142480000Y-85195599D01*
X142480000Y-82595599D02*
X157840000Y-82595599D01*
%TO.C,R14*%
X165737621Y-102498621D02*
X165402379Y-102498621D01*
X165737621Y-101738621D02*
X165402379Y-101738621D01*
%TO.C,R2*%
X165402379Y-100718621D02*
X165737621Y-100718621D01*
X165402379Y-101478621D02*
X165737621Y-101478621D01*
%TO.C,J2*%
X157840000Y-112413621D02*
X157840000Y-113743621D01*
X156510000Y-112413621D02*
X157840000Y-112413621D01*
X155240000Y-112413621D02*
X142480000Y-112413621D01*
X155240000Y-112413621D02*
X155240000Y-115013621D01*
X142480000Y-112413621D02*
X142480000Y-117613621D01*
X157840000Y-115013621D02*
X157840000Y-117613621D01*
X155240000Y-115013621D02*
X157840000Y-115013621D01*
X157840000Y-117613621D02*
X142480000Y-117613621D01*
%TO.C,C3*%
X154170000Y-90937369D02*
X154170000Y-92359873D01*
X152350000Y-90937369D02*
X152350000Y-92359873D01*
%TO.C,J4*%
X133010000Y-104758621D02*
X131950000Y-104758621D01*
X133010000Y-103698621D02*
X133010000Y-104758621D01*
X133010000Y-102698621D02*
X133010000Y-100638621D01*
X133010000Y-102698621D02*
X130890000Y-102698621D01*
X133010000Y-100638621D02*
X130890000Y-100638621D01*
X130890000Y-102698621D02*
X130890000Y-100638621D01*
%TO.C,C4*%
X154800000Y-110446956D02*
X154800000Y-110215286D01*
X155520000Y-110446956D02*
X155520000Y-110215286D01*
%TO.C,R3*%
X153552621Y-111278621D02*
X153217379Y-111278621D01*
X153552621Y-110518621D02*
X153217379Y-110518621D01*
%TO.C,R1*%
X165424879Y-98718621D02*
X165760121Y-98718621D01*
X165424879Y-99478621D02*
X165760121Y-99478621D01*
%TO.C,J6*%
X167510000Y-96038621D02*
X168570000Y-96038621D01*
X167510000Y-97098621D02*
X167510000Y-96038621D01*
X167510000Y-98098621D02*
X167510000Y-104158621D01*
X167510000Y-98098621D02*
X169630000Y-98098621D01*
X167510000Y-104158621D02*
X169630000Y-104158621D01*
X169630000Y-98098621D02*
X169630000Y-104158621D01*
D11*
%TO.C,U4*%
X160400000Y-98508621D02*
X161600000Y-98508621D01*
X161950000Y-98658621D02*
X162550000Y-98658621D01*
X161950000Y-101558621D02*
X161950000Y-98658621D01*
X162550000Y-98658621D02*
X162550000Y-101558621D01*
X162550000Y-101558621D02*
X161950000Y-101558621D01*
D10*
%TO.C,C2*%
X156635000Y-90937369D02*
X156635000Y-92359873D01*
X154815000Y-90937369D02*
X154815000Y-92359873D01*
%TO.C,J5*%
X130890000Y-93908621D02*
X131950000Y-93908621D01*
X130890000Y-94968621D02*
X130890000Y-93908621D01*
X130890000Y-95968621D02*
X130890000Y-98028621D01*
X130890000Y-95968621D02*
X133010000Y-95968621D01*
X130890000Y-98028621D02*
X133010000Y-98028621D01*
X133010000Y-95968621D02*
X133010000Y-98028621D01*
%TD*%
M02*
