%TF.GenerationSoftware,KiCad,Pcbnew,7.0.5*%
%TF.CreationDate,2024-01-17T11:15:47-05:00*%
%TF.ProjectId,CTRL,4354524c-2e6b-4696-9361-645f70636258,rev?*%
%TF.SameCoordinates,Original*%
%TF.FileFunction,Drillmap*%
%TF.FilePolarity,Positive*%
%FSLAX45Y45*%
G04 Gerber Fmt 4.5, Leading zero omitted, Abs format (unit mm)*
G04 Created by KiCad (PCBNEW 7.0.5) date 2024-01-17 11:15:47*
%MOMM*%
%LPD*%
G01*
G04 APERTURE LIST*
%ADD10C,0.100000*%
%ADD11C,0.200000*%
%ADD12C,0.033020*%
%ADD13C,0.040000*%
%ADD14C,0.045000*%
%ADD15C,0.070000*%
%ADD16C,0.080000*%
G04 APERTURE END LIST*
D10*
X13016000Y-8855761D02*
X13016000Y-11165162D01*
X16926000Y-11049692D02*
G75*
G03*
X16926000Y-11049692I-110000J0D01*
G01*
X13016000Y-11165162D02*
X15016000Y-12319862D01*
X16926000Y-8971231D02*
G75*
G03*
X16926000Y-8971231I-110000J0D01*
G01*
X13326000Y-8971231D02*
G75*
G03*
X13326000Y-8971231I-110000J0D01*
G01*
X15016000Y-7701060D02*
X13016000Y-8855761D01*
X17016000Y-8855761D02*
X15016000Y-7701060D01*
X15126000Y-7932000D02*
G75*
G03*
X15126000Y-7932000I-110000J0D01*
G01*
X15126000Y-12088922D02*
G75*
G03*
X15126000Y-12088922I-110000J0D01*
G01*
X17016000Y-11165162D02*
X17016000Y-8855761D01*
X15016000Y-12319862D02*
X17016000Y-11165162D01*
X13326000Y-11049692D02*
G75*
G03*
X13326000Y-11049692I-110000J0D01*
G01*
D11*
D12*
X13099490Y-10803352D02*
X13132510Y-10836372D01*
X13132510Y-10803352D02*
X13099490Y-10836372D01*
X13299490Y-10803352D02*
X13332510Y-10836372D01*
X13332510Y-10803352D02*
X13299490Y-10836372D01*
X13499490Y-8703352D02*
X13532510Y-8736372D01*
X13532510Y-8703352D02*
X13499490Y-8736372D01*
X13499490Y-8903352D02*
X13532510Y-8936372D01*
X13532510Y-8903352D02*
X13499490Y-8936372D01*
X13499490Y-9103352D02*
X13532510Y-9136372D01*
X13532510Y-9103352D02*
X13499490Y-9136372D01*
X13499490Y-9303352D02*
X13532510Y-9336372D01*
X13532510Y-9303352D02*
X13499490Y-9336372D01*
X13499490Y-9503352D02*
X13532510Y-9536372D01*
X13532510Y-9503352D02*
X13499490Y-9536372D01*
X13499490Y-10603352D02*
X13532510Y-10636372D01*
X13532510Y-10603352D02*
X13499490Y-10636372D01*
X13499490Y-10803352D02*
X13532510Y-10836372D01*
X13532510Y-10803352D02*
X13499490Y-10836372D01*
X13499490Y-11003352D02*
X13532510Y-11036372D01*
X13532510Y-11003352D02*
X13499490Y-11036372D01*
X13499490Y-11203352D02*
X13532510Y-11236372D01*
X13532510Y-11203352D02*
X13499490Y-11236372D01*
X13699490Y-8703352D02*
X13732510Y-8736372D01*
X13732510Y-8703352D02*
X13699490Y-8736372D01*
X13699490Y-8903352D02*
X13732510Y-8936372D01*
X13732510Y-8903352D02*
X13699490Y-8936372D01*
X13699490Y-9103352D02*
X13732510Y-9136372D01*
X13732510Y-9103352D02*
X13699490Y-9136372D01*
X13699490Y-9303352D02*
X13732510Y-9336372D01*
X13732510Y-9303352D02*
X13699490Y-9336372D01*
X13699490Y-9503352D02*
X13732510Y-9536372D01*
X13732510Y-9503352D02*
X13699490Y-9536372D01*
X13699490Y-9703352D02*
X13732510Y-9736372D01*
X13732510Y-9703352D02*
X13699490Y-9736372D01*
X13699490Y-10053352D02*
X13732510Y-10086372D01*
X13732510Y-10053352D02*
X13699490Y-10086372D01*
X13699490Y-10803352D02*
X13732510Y-10836372D01*
X13732510Y-10803352D02*
X13699490Y-10836372D01*
X13699490Y-11003352D02*
X13732510Y-11036372D01*
X13732510Y-11003352D02*
X13699490Y-11036372D01*
X13699490Y-11203352D02*
X13732510Y-11236372D01*
X13732510Y-11203352D02*
X13699490Y-11236372D01*
X13699490Y-11403352D02*
X13732510Y-11436372D01*
X13732510Y-11403352D02*
X13699490Y-11436372D01*
X13899490Y-8503352D02*
X13932510Y-8536372D01*
X13932510Y-8503352D02*
X13899490Y-8536372D01*
X13899490Y-8703352D02*
X13932510Y-8736372D01*
X13932510Y-8703352D02*
X13899490Y-8736372D01*
X13899490Y-8903352D02*
X13932510Y-8936372D01*
X13932510Y-8903352D02*
X13899490Y-8936372D01*
X13899490Y-9103352D02*
X13932510Y-9136372D01*
X13932510Y-9103352D02*
X13899490Y-9136372D01*
X13899490Y-9503352D02*
X13932510Y-9536372D01*
X13932510Y-9503352D02*
X13899490Y-9536372D01*
X13899490Y-10053352D02*
X13932510Y-10086372D01*
X13932510Y-10053352D02*
X13899490Y-10086372D01*
X13899490Y-10803352D02*
X13932510Y-10836372D01*
X13932510Y-10803352D02*
X13899490Y-10836372D01*
X13899490Y-11003352D02*
X13932510Y-11036372D01*
X13932510Y-11003352D02*
X13899490Y-11036372D01*
X13899490Y-11203352D02*
X13932510Y-11236372D01*
X13932510Y-11203352D02*
X13899490Y-11236372D01*
X13899490Y-11403352D02*
X13932510Y-11436372D01*
X13932510Y-11403352D02*
X13899490Y-11436372D01*
X14099490Y-8503352D02*
X14132510Y-8536372D01*
X14132510Y-8503352D02*
X14099490Y-8536372D01*
X14099490Y-8703352D02*
X14132510Y-8736372D01*
X14132510Y-8703352D02*
X14099490Y-8736372D01*
X14099490Y-8903352D02*
X14132510Y-8936372D01*
X14132510Y-8903352D02*
X14099490Y-8936372D01*
X14099490Y-9103352D02*
X14132510Y-9136372D01*
X14132510Y-9103352D02*
X14099490Y-9136372D01*
X14099490Y-9503352D02*
X14132510Y-9536372D01*
X14132510Y-9503352D02*
X14099490Y-9536372D01*
X14099490Y-9703352D02*
X14132510Y-9736372D01*
X14132510Y-9703352D02*
X14099490Y-9736372D01*
X14099490Y-10053352D02*
X14132510Y-10086372D01*
X14132510Y-10053352D02*
X14099490Y-10086372D01*
X14099490Y-10803352D02*
X14132510Y-10836372D01*
X14132510Y-10803352D02*
X14099490Y-10836372D01*
X14099490Y-11003352D02*
X14132510Y-11036372D01*
X14132510Y-11003352D02*
X14099490Y-11036372D01*
X14099490Y-11203352D02*
X14132510Y-11236372D01*
X14132510Y-11203352D02*
X14099490Y-11236372D01*
X14099490Y-11403352D02*
X14132510Y-11436372D01*
X14132510Y-11403352D02*
X14099490Y-11436372D01*
X14099490Y-11603352D02*
X14132510Y-11636372D01*
X14132510Y-11603352D02*
X14099490Y-11636372D01*
X14299490Y-9503352D02*
X14332510Y-9536372D01*
X14332510Y-9503352D02*
X14299490Y-9536372D01*
X14299490Y-10053352D02*
X14332510Y-10086372D01*
X14332510Y-10053352D02*
X14299490Y-10086372D01*
X14299490Y-10803352D02*
X14332510Y-10836372D01*
X14332510Y-10803352D02*
X14299490Y-10836372D01*
X14299490Y-11003352D02*
X14332510Y-11036372D01*
X14332510Y-11003352D02*
X14299490Y-11036372D01*
X14349490Y-8903352D02*
X14382510Y-8936372D01*
X14382510Y-8903352D02*
X14349490Y-8936372D01*
X14349490Y-9103352D02*
X14382510Y-9136372D01*
X14382510Y-9103352D02*
X14349490Y-9136372D01*
X14349490Y-9303352D02*
X14382510Y-9336372D01*
X14382510Y-9303352D02*
X14349490Y-9336372D01*
X14499490Y-8203352D02*
X14532510Y-8236372D01*
X14532510Y-8203352D02*
X14499490Y-8236372D01*
X14499490Y-8903352D02*
X14532510Y-8936372D01*
X14532510Y-8903352D02*
X14499490Y-8936372D01*
X14499490Y-9103352D02*
X14532510Y-9136372D01*
X14532510Y-9103352D02*
X14499490Y-9136372D01*
X14499490Y-9303352D02*
X14532510Y-9336372D01*
X14532510Y-9303352D02*
X14499490Y-9336372D01*
X14499490Y-10803352D02*
X14532510Y-10836372D01*
X14532510Y-10803352D02*
X14499490Y-10836372D01*
X14499490Y-11003352D02*
X14532510Y-11036372D01*
X14532510Y-11003352D02*
X14499490Y-11036372D01*
X14499490Y-11803352D02*
X14532510Y-11836372D01*
X14532510Y-11803352D02*
X14499490Y-11836372D01*
X14699490Y-8003352D02*
X14732510Y-8036372D01*
X14732510Y-8003352D02*
X14699490Y-8036372D01*
X14699490Y-8203352D02*
X14732510Y-8236372D01*
X14732510Y-8203352D02*
X14699490Y-8236372D01*
X14699490Y-8903352D02*
X14732510Y-8936372D01*
X14732510Y-8903352D02*
X14699490Y-8936372D01*
X14699490Y-9103352D02*
X14732510Y-9136372D01*
X14732510Y-9103352D02*
X14699490Y-9136372D01*
X14699490Y-9303352D02*
X14732510Y-9336372D01*
X14732510Y-9303352D02*
X14699490Y-9336372D01*
X14699490Y-11003352D02*
X14732510Y-11036372D01*
X14732510Y-11003352D02*
X14699490Y-11036372D01*
X14699490Y-11803352D02*
X14732510Y-11836372D01*
X14732510Y-11803352D02*
X14699490Y-11836372D01*
X14699490Y-12003352D02*
X14732510Y-12036372D01*
X14732510Y-12003352D02*
X14699490Y-12036372D01*
X14899490Y-8203352D02*
X14932510Y-8236372D01*
X14932510Y-8203352D02*
X14899490Y-8236372D01*
X14899490Y-9103352D02*
X14932510Y-9136372D01*
X14932510Y-9103352D02*
X14899490Y-9136372D01*
X14899490Y-9303352D02*
X14932510Y-9336372D01*
X14932510Y-9303352D02*
X14899490Y-9336372D01*
X14899490Y-10603352D02*
X14932510Y-10636372D01*
X14932510Y-10603352D02*
X14899490Y-10636372D01*
X14899490Y-11803352D02*
X14932510Y-11836372D01*
X14932510Y-11803352D02*
X14899490Y-11836372D01*
X15099490Y-8203352D02*
X15132510Y-8236372D01*
X15132510Y-8203352D02*
X15099490Y-8236372D01*
X15099490Y-10603352D02*
X15132510Y-10636372D01*
X15132510Y-10603352D02*
X15099490Y-10636372D01*
X15099490Y-10803352D02*
X15132510Y-10836372D01*
X15132510Y-10803352D02*
X15099490Y-10836372D01*
X15099490Y-11803352D02*
X15132510Y-11836372D01*
X15132510Y-11803352D02*
X15099490Y-11836372D01*
X15298920Y-8003352D02*
X15331940Y-8036372D01*
X15331940Y-8003352D02*
X15298920Y-8036372D01*
X15299490Y-8203352D02*
X15332510Y-8236372D01*
X15332510Y-8203352D02*
X15299490Y-8236372D01*
X15299490Y-10603352D02*
X15332510Y-10636372D01*
X15332510Y-10603352D02*
X15299490Y-10636372D01*
X15299490Y-10803352D02*
X15332510Y-10836372D01*
X15332510Y-10803352D02*
X15299490Y-10836372D01*
X15299490Y-11803352D02*
X15332510Y-11836372D01*
X15332510Y-11803352D02*
X15299490Y-11836372D01*
X15299490Y-12003352D02*
X15332510Y-12036372D01*
X15332510Y-12003352D02*
X15299490Y-12036372D01*
X15499490Y-8203352D02*
X15532510Y-8236372D01*
X15532510Y-8203352D02*
X15499490Y-8236372D01*
X15499490Y-9153352D02*
X15532510Y-9186372D01*
X15532510Y-9153352D02*
X15499490Y-9186372D01*
X15499490Y-10603352D02*
X15532510Y-10636372D01*
X15532510Y-10603352D02*
X15499490Y-10636372D01*
X15499490Y-10803352D02*
X15532510Y-10836372D01*
X15532510Y-10803352D02*
X15499490Y-10836372D01*
X15499490Y-11803352D02*
X15532510Y-11836372D01*
X15532510Y-11803352D02*
X15499490Y-11836372D01*
X15699490Y-10603352D02*
X15732510Y-10636372D01*
X15732510Y-10603352D02*
X15699490Y-10636372D01*
X15699490Y-10803352D02*
X15732510Y-10836372D01*
X15732510Y-10803352D02*
X15699490Y-10836372D01*
X15699490Y-11003352D02*
X15732510Y-11036372D01*
X15732510Y-11003352D02*
X15699490Y-11036372D01*
X15829490Y-9483352D02*
X15862510Y-9516372D01*
X15862510Y-9483352D02*
X15829490Y-9516372D01*
X15899490Y-10603352D02*
X15932510Y-10636372D01*
X15932510Y-10603352D02*
X15899490Y-10636372D01*
X15899490Y-10803352D02*
X15932510Y-10836372D01*
X15932510Y-10803352D02*
X15899490Y-10836372D01*
X15899490Y-11003352D02*
X15932510Y-11036372D01*
X15932510Y-11003352D02*
X15899490Y-11036372D01*
X15899490Y-11203352D02*
X15932510Y-11236372D01*
X15932510Y-11203352D02*
X15899490Y-11236372D01*
X15899490Y-11403352D02*
X15932510Y-11436372D01*
X15932510Y-11403352D02*
X15899490Y-11436372D01*
X15899490Y-11603352D02*
X15932510Y-11636372D01*
X15932510Y-11603352D02*
X15899490Y-11636372D01*
X15999490Y-8473352D02*
X16032510Y-8506372D01*
X16032510Y-8473352D02*
X15999490Y-8506372D01*
X16009490Y-9708352D02*
X16042510Y-9741372D01*
X16042510Y-9708352D02*
X16009490Y-9741372D01*
X16099490Y-8878352D02*
X16132510Y-8911372D01*
X16132510Y-8878352D02*
X16099490Y-8911372D01*
X16099490Y-9103352D02*
X16132510Y-9136372D01*
X16132510Y-9103352D02*
X16099490Y-9136372D01*
X16099490Y-10403352D02*
X16132510Y-10436372D01*
X16132510Y-10403352D02*
X16099490Y-10436372D01*
X16099490Y-10603352D02*
X16132510Y-10636372D01*
X16132510Y-10603352D02*
X16099490Y-10636372D01*
X16099490Y-10803352D02*
X16132510Y-10836372D01*
X16132510Y-10803352D02*
X16099490Y-10836372D01*
X16099490Y-11003352D02*
X16132510Y-11036372D01*
X16132510Y-11003352D02*
X16099490Y-11036372D01*
X16099490Y-11203352D02*
X16132510Y-11236372D01*
X16132510Y-11203352D02*
X16099490Y-11236372D01*
X16099490Y-11403352D02*
X16132510Y-11436372D01*
X16132510Y-11403352D02*
X16099490Y-11436372D01*
X16124490Y-9498352D02*
X16157510Y-9531372D01*
X16157510Y-9498352D02*
X16124490Y-9531372D01*
X16299490Y-8878352D02*
X16332510Y-8911372D01*
X16332510Y-8878352D02*
X16299490Y-8911372D01*
X16299490Y-9103352D02*
X16332510Y-9136372D01*
X16332510Y-9103352D02*
X16299490Y-9136372D01*
X16299490Y-9303352D02*
X16332510Y-9336372D01*
X16332510Y-9303352D02*
X16299490Y-9336372D01*
X16299490Y-10403352D02*
X16332510Y-10436372D01*
X16332510Y-10403352D02*
X16299490Y-10436372D01*
X16299490Y-10603352D02*
X16332510Y-10636372D01*
X16332510Y-10603352D02*
X16299490Y-10636372D01*
X16299490Y-10803352D02*
X16332510Y-10836372D01*
X16332510Y-10803352D02*
X16299490Y-10836372D01*
X16299490Y-11003352D02*
X16332510Y-11036372D01*
X16332510Y-11003352D02*
X16299490Y-11036372D01*
X16299490Y-11203352D02*
X16332510Y-11236372D01*
X16332510Y-11203352D02*
X16299490Y-11236372D01*
X16299490Y-11403352D02*
X16332510Y-11436372D01*
X16332510Y-11403352D02*
X16299490Y-11436372D01*
X16319490Y-9688352D02*
X16352510Y-9721372D01*
X16352510Y-9688352D02*
X16319490Y-9721372D01*
X16337490Y-10104352D02*
X16370510Y-10137372D01*
X16370510Y-10104352D02*
X16337490Y-10137372D01*
X16339490Y-8673352D02*
X16372510Y-8706372D01*
X16372510Y-8673352D02*
X16339490Y-8706372D01*
X16499490Y-8903352D02*
X16532510Y-8936372D01*
X16532510Y-8903352D02*
X16499490Y-8936372D01*
X16499490Y-9103352D02*
X16532510Y-9136372D01*
X16532510Y-9103352D02*
X16499490Y-9136372D01*
X16499490Y-9303352D02*
X16532510Y-9336372D01*
X16532510Y-9303352D02*
X16499490Y-9336372D01*
X16499490Y-9503352D02*
X16532510Y-9536372D01*
X16532510Y-9503352D02*
X16499490Y-9536372D01*
X16499490Y-10403352D02*
X16532510Y-10436372D01*
X16532510Y-10403352D02*
X16499490Y-10436372D01*
X16499490Y-10603352D02*
X16532510Y-10636372D01*
X16532510Y-10603352D02*
X16499490Y-10636372D01*
X16499490Y-10803352D02*
X16532510Y-10836372D01*
X16532510Y-10803352D02*
X16499490Y-10836372D01*
X16499490Y-11003352D02*
X16532510Y-11036372D01*
X16532510Y-11003352D02*
X16499490Y-11036372D01*
X16499490Y-11203352D02*
X16532510Y-11236372D01*
X16532510Y-11203352D02*
X16499490Y-11236372D01*
X16699490Y-9303352D02*
X16732510Y-9336372D01*
X16732510Y-9303352D02*
X16699490Y-9336372D01*
X16699490Y-9503352D02*
X16732510Y-9536372D01*
X16732510Y-9503352D02*
X16699490Y-9536372D01*
X16699490Y-10603352D02*
X16732510Y-10636372D01*
X16732510Y-10603352D02*
X16699490Y-10636372D01*
X16699490Y-10803352D02*
X16732510Y-10836372D01*
X16732510Y-10803352D02*
X16699490Y-10836372D01*
D13*
X15803250Y-9652961D02*
G75*
G03*
X15803250Y-9652961I-20000J0D01*
G01*
D11*
X15733250Y-9672961D02*
X15833250Y-9672961D01*
X15833250Y-9672961D02*
G75*
G03*
X15833250Y-9632961I0J20000D01*
G01*
X15833250Y-9632961D02*
X15733250Y-9632961D01*
X15733250Y-9632961D02*
G75*
G03*
X15733250Y-9672961I0J-20000D01*
G01*
D13*
X15803250Y-10367961D02*
G75*
G03*
X15803250Y-10367961I-20000J0D01*
G01*
D11*
X15733250Y-10387961D02*
X15833250Y-10387961D01*
X15833250Y-10387961D02*
G75*
G03*
X15833250Y-10347961I0J20000D01*
G01*
X15833250Y-10347961D02*
X15733250Y-10347961D01*
X15733250Y-10347961D02*
G75*
G03*
X15733250Y-10387961I0J-20000D01*
G01*
D14*
X15705250Y-9922961D02*
X15705250Y-9967961D01*
X15682750Y-9945461D02*
X15727750Y-9945461D01*
X15705250Y-10052961D02*
X15705250Y-10097961D01*
X15682750Y-10075461D02*
X15727750Y-10075461D01*
X15805250Y-9857961D02*
X15805250Y-9902961D01*
X15782750Y-9880461D02*
X15827750Y-9880461D01*
X15805250Y-9987961D02*
X15805250Y-10032961D01*
X15782750Y-10010461D02*
X15827750Y-10010461D01*
X15805250Y-10117961D02*
X15805250Y-10162961D01*
X15782750Y-10140461D02*
X15827750Y-10140461D01*
D15*
X14620749Y-9744611D02*
X14620749Y-9695113D01*
X14571251Y-9695113D01*
X14571251Y-9744611D01*
X14620749Y-9744611D01*
D11*
X14561000Y-9679862D02*
X14561000Y-9759862D01*
X14561000Y-9759862D02*
G75*
G03*
X14631000Y-9759862I35000J0D01*
G01*
X14631000Y-9759862D02*
X14631000Y-9679862D01*
X14631000Y-9679862D02*
G75*
G03*
X14561000Y-9679862I-35000J0D01*
G01*
D15*
X14620749Y-10294611D02*
X14620749Y-10245113D01*
X14571251Y-10245113D01*
X14571251Y-10294611D01*
X14620749Y-10294611D01*
D11*
X14631000Y-10309862D02*
X14631000Y-10229862D01*
X14631000Y-10229862D02*
G75*
G03*
X14561000Y-10229862I-35000J0D01*
G01*
X14561000Y-10229862D02*
X14561000Y-10309862D01*
X14561000Y-10309862D02*
G75*
G03*
X14631000Y-10309862I35000J0D01*
G01*
D15*
X15460749Y-9744611D02*
X15460749Y-9695113D01*
X15411251Y-9695113D01*
X15411251Y-9744611D01*
X15460749Y-9744611D01*
D11*
X15401000Y-9679862D02*
X15401000Y-9759862D01*
X15401000Y-9759862D02*
G75*
G03*
X15471000Y-9759862I35000J0D01*
G01*
X15471000Y-9759862D02*
X15471000Y-9679862D01*
X15471000Y-9679862D02*
G75*
G03*
X15401000Y-9679862I-35000J0D01*
G01*
D15*
X15460749Y-10294611D02*
X15460749Y-10245113D01*
X15411251Y-10245113D01*
X15411251Y-10294611D01*
X15460749Y-10294611D01*
D11*
X15471000Y-10309862D02*
X15471000Y-10229862D01*
X15471000Y-10229862D02*
G75*
G03*
X15401000Y-10229862I-35000J0D01*
G01*
X15401000Y-10229862D02*
X15401000Y-10309862D01*
X15401000Y-10309862D02*
G75*
G03*
X15471000Y-10309862I35000J0D01*
G01*
D16*
X13195000Y-9536862D02*
X13235000Y-9496862D01*
X13195000Y-9456862D01*
X13155000Y-9496862D01*
X13195000Y-9536862D01*
X13195000Y-9736862D02*
X13235000Y-9696862D01*
X13195000Y-9656862D01*
X13155000Y-9696862D01*
X13195000Y-9736862D01*
X13195000Y-10209862D02*
X13235000Y-10169862D01*
X13195000Y-10129862D01*
X13155000Y-10169862D01*
X13195000Y-10209862D01*
X13195000Y-10409862D02*
X13235000Y-10369862D01*
X13195000Y-10329862D01*
X13155000Y-10369862D01*
X13195000Y-10409862D01*
X14816000Y-9759862D02*
X14856000Y-9719862D01*
X14816000Y-9679862D01*
X14776000Y-9719862D01*
X14816000Y-9759862D01*
X14816000Y-10309862D02*
X14856000Y-10269862D01*
X14816000Y-10229862D01*
X14776000Y-10269862D01*
X14816000Y-10309862D01*
X15016000Y-9759862D02*
X15056000Y-9719862D01*
X15016000Y-9679862D01*
X14976000Y-9719862D01*
X15016000Y-9759862D01*
X15016000Y-10309862D02*
X15056000Y-10269862D01*
X15016000Y-10229862D01*
X14976000Y-10269862D01*
X15016000Y-10309862D01*
X15216000Y-9759862D02*
X15256000Y-9719862D01*
X15216000Y-9679862D01*
X15176000Y-9719862D01*
X15216000Y-9759862D01*
X15216000Y-10309862D02*
X15256000Y-10269862D01*
X15216000Y-10229862D01*
X15176000Y-10269862D01*
X15216000Y-10309862D01*
X16857000Y-9749862D02*
X16897000Y-9709862D01*
X16857000Y-9669862D01*
X16817000Y-9709862D01*
X16857000Y-9749862D01*
X16857000Y-9949862D02*
X16897000Y-9909862D01*
X16857000Y-9869862D01*
X16817000Y-9909862D01*
X16857000Y-9949862D01*
X16857000Y-10149862D02*
X16897000Y-10109862D01*
X16857000Y-10069862D01*
X16817000Y-10109862D01*
X16857000Y-10149862D01*
X16857000Y-10349862D02*
X16897000Y-10309862D01*
X16857000Y-10269862D01*
X16817000Y-10309862D01*
X16857000Y-10349862D01*
D10*
X13841000Y-9619862D02*
X13941000Y-9719862D01*
X13941000Y-9619862D02*
X13841000Y-9719862D01*
X13941000Y-9669862D02*
G75*
G03*
X13941000Y-9669862I-50000J0D01*
G01*
X13841000Y-10269862D02*
X13941000Y-10369862D01*
X13941000Y-10269862D02*
X13841000Y-10369862D01*
X13941000Y-10319862D02*
G75*
G03*
X13941000Y-10319862I-50000J0D01*
G01*
X14291000Y-9619862D02*
X14391000Y-9719862D01*
X14391000Y-9619862D02*
X14291000Y-9719862D01*
X14391000Y-9669862D02*
G75*
G03*
X14391000Y-9669862I-50000J0D01*
G01*
X14291000Y-10269862D02*
X14391000Y-10369862D01*
X14391000Y-10269862D02*
X14291000Y-10369862D01*
X14391000Y-10319862D02*
G75*
G03*
X14391000Y-10319862I-50000J0D01*
G01*
X14331000Y-8342560D02*
X14431000Y-8442560D01*
X14431000Y-8342560D02*
X14331000Y-8442560D01*
X14431000Y-8392560D02*
G75*
G03*
X14431000Y-8392560I-50000J0D01*
G01*
X14331000Y-8596560D02*
X14431000Y-8696560D01*
X14431000Y-8596560D02*
X14331000Y-8696560D01*
X14431000Y-8646560D02*
G75*
G03*
X14431000Y-8646560I-50000J0D01*
G01*
X14331000Y-11324362D02*
X14431000Y-11424362D01*
X14431000Y-11324362D02*
X14331000Y-11424362D01*
X14431000Y-11374362D02*
G75*
G03*
X14431000Y-11374362I-50000J0D01*
G01*
X14331000Y-11578362D02*
X14431000Y-11678362D01*
X14431000Y-11578362D02*
X14331000Y-11678362D01*
X14431000Y-11628362D02*
G75*
G03*
X14431000Y-11628362I-50000J0D01*
G01*
X14585000Y-8342560D02*
X14685000Y-8442560D01*
X14685000Y-8342560D02*
X14585000Y-8442560D01*
X14685000Y-8392560D02*
G75*
G03*
X14685000Y-8392560I-50000J0D01*
G01*
X14585000Y-8596560D02*
X14685000Y-8696560D01*
X14685000Y-8596560D02*
X14585000Y-8696560D01*
X14685000Y-8646560D02*
G75*
G03*
X14685000Y-8646560I-50000J0D01*
G01*
X14585000Y-11324362D02*
X14685000Y-11424362D01*
X14685000Y-11324362D02*
X14585000Y-11424362D01*
X14685000Y-11374362D02*
G75*
G03*
X14685000Y-11374362I-50000J0D01*
G01*
X14585000Y-11578362D02*
X14685000Y-11678362D01*
X14685000Y-11578362D02*
X14585000Y-11678362D01*
X14685000Y-11628362D02*
G75*
G03*
X14685000Y-11628362I-50000J0D01*
G01*
X14839000Y-8342560D02*
X14939000Y-8442560D01*
X14939000Y-8342560D02*
X14839000Y-8442560D01*
X14939000Y-8392560D02*
G75*
G03*
X14939000Y-8392560I-50000J0D01*
G01*
X14839000Y-8596560D02*
X14939000Y-8696560D01*
X14939000Y-8596560D02*
X14839000Y-8696560D01*
X14939000Y-8646560D02*
G75*
G03*
X14939000Y-8646560I-50000J0D01*
G01*
X14839000Y-11324362D02*
X14939000Y-11424362D01*
X14939000Y-11324362D02*
X14839000Y-11424362D01*
X14939000Y-11374362D02*
G75*
G03*
X14939000Y-11374362I-50000J0D01*
G01*
X14839000Y-11578362D02*
X14939000Y-11678362D01*
X14939000Y-11578362D02*
X14839000Y-11678362D01*
X14939000Y-11628362D02*
G75*
G03*
X14939000Y-11628362I-50000J0D01*
G01*
X15093000Y-8342560D02*
X15193000Y-8442560D01*
X15193000Y-8342560D02*
X15093000Y-8442560D01*
X15193000Y-8392560D02*
G75*
G03*
X15193000Y-8392560I-50000J0D01*
G01*
X15093000Y-8596560D02*
X15193000Y-8696560D01*
X15193000Y-8596560D02*
X15093000Y-8696560D01*
X15193000Y-8646560D02*
G75*
G03*
X15193000Y-8646560I-50000J0D01*
G01*
X15093000Y-11324362D02*
X15193000Y-11424362D01*
X15193000Y-11324362D02*
X15093000Y-11424362D01*
X15193000Y-11374362D02*
G75*
G03*
X15193000Y-11374362I-50000J0D01*
G01*
X15093000Y-11578362D02*
X15193000Y-11678362D01*
X15193000Y-11578362D02*
X15093000Y-11678362D01*
X15193000Y-11628362D02*
G75*
G03*
X15193000Y-11628362I-50000J0D01*
G01*
X15347000Y-8342560D02*
X15447000Y-8442560D01*
X15447000Y-8342560D02*
X15347000Y-8442560D01*
X15447000Y-8392560D02*
G75*
G03*
X15447000Y-8392560I-50000J0D01*
G01*
X15347000Y-8596560D02*
X15447000Y-8696560D01*
X15447000Y-8596560D02*
X15347000Y-8696560D01*
X15447000Y-8646560D02*
G75*
G03*
X15447000Y-8646560I-50000J0D01*
G01*
X15347000Y-11324362D02*
X15447000Y-11424362D01*
X15447000Y-11324362D02*
X15347000Y-11424362D01*
X15447000Y-11374362D02*
G75*
G03*
X15447000Y-11374362I-50000J0D01*
G01*
X15347000Y-11578362D02*
X15447000Y-11678362D01*
X15447000Y-11578362D02*
X15347000Y-11678362D01*
X15447000Y-11628362D02*
G75*
G03*
X15447000Y-11628362I-50000J0D01*
G01*
X15601000Y-8342560D02*
X15701000Y-8442560D01*
X15701000Y-8342560D02*
X15601000Y-8442560D01*
X15701000Y-8392560D02*
G75*
G03*
X15701000Y-8392560I-50000J0D01*
G01*
X15601000Y-8596560D02*
X15701000Y-8696560D01*
X15701000Y-8596560D02*
X15601000Y-8696560D01*
X15701000Y-8646560D02*
G75*
G03*
X15701000Y-8646560I-50000J0D01*
G01*
X15601000Y-11324362D02*
X15701000Y-11424362D01*
X15701000Y-11324362D02*
X15601000Y-11424362D01*
X15701000Y-11374362D02*
G75*
G03*
X15701000Y-11374362I-50000J0D01*
G01*
X15601000Y-11578362D02*
X15701000Y-11678362D01*
X15701000Y-11578362D02*
X15601000Y-11678362D01*
X15701000Y-11628362D02*
G75*
G03*
X15701000Y-11628362I-50000J0D01*
G01*
D11*
X13271777Y-12636346D02*
X13271777Y-12436346D01*
X13271777Y-12436346D02*
X13319396Y-12436346D01*
X13319396Y-12436346D02*
X13347967Y-12445870D01*
X13347967Y-12445870D02*
X13367015Y-12464917D01*
X13367015Y-12464917D02*
X13376539Y-12483965D01*
X13376539Y-12483965D02*
X13386062Y-12522060D01*
X13386062Y-12522060D02*
X13386062Y-12550632D01*
X13386062Y-12550632D02*
X13376539Y-12588727D01*
X13376539Y-12588727D02*
X13367015Y-12607774D01*
X13367015Y-12607774D02*
X13347967Y-12626822D01*
X13347967Y-12626822D02*
X13319396Y-12636346D01*
X13319396Y-12636346D02*
X13271777Y-12636346D01*
X13471777Y-12636346D02*
X13471777Y-12503012D01*
X13471777Y-12541108D02*
X13481301Y-12522060D01*
X13481301Y-12522060D02*
X13490824Y-12512536D01*
X13490824Y-12512536D02*
X13509872Y-12503012D01*
X13509872Y-12503012D02*
X13528920Y-12503012D01*
X13595586Y-12636346D02*
X13595586Y-12503012D01*
X13595586Y-12436346D02*
X13586062Y-12445870D01*
X13586062Y-12445870D02*
X13595586Y-12455393D01*
X13595586Y-12455393D02*
X13605110Y-12445870D01*
X13605110Y-12445870D02*
X13595586Y-12436346D01*
X13595586Y-12436346D02*
X13595586Y-12455393D01*
X13719396Y-12636346D02*
X13700348Y-12626822D01*
X13700348Y-12626822D02*
X13690824Y-12607774D01*
X13690824Y-12607774D02*
X13690824Y-12436346D01*
X13824158Y-12636346D02*
X13805110Y-12626822D01*
X13805110Y-12626822D02*
X13795586Y-12607774D01*
X13795586Y-12607774D02*
X13795586Y-12436346D01*
X14052729Y-12636346D02*
X14052729Y-12436346D01*
X14052729Y-12436346D02*
X14119396Y-12579203D01*
X14119396Y-12579203D02*
X14186062Y-12436346D01*
X14186062Y-12436346D02*
X14186062Y-12636346D01*
X14367015Y-12636346D02*
X14367015Y-12531584D01*
X14367015Y-12531584D02*
X14357491Y-12512536D01*
X14357491Y-12512536D02*
X14338443Y-12503012D01*
X14338443Y-12503012D02*
X14300348Y-12503012D01*
X14300348Y-12503012D02*
X14281301Y-12512536D01*
X14367015Y-12626822D02*
X14347967Y-12636346D01*
X14347967Y-12636346D02*
X14300348Y-12636346D01*
X14300348Y-12636346D02*
X14281301Y-12626822D01*
X14281301Y-12626822D02*
X14271777Y-12607774D01*
X14271777Y-12607774D02*
X14271777Y-12588727D01*
X14271777Y-12588727D02*
X14281301Y-12569679D01*
X14281301Y-12569679D02*
X14300348Y-12560155D01*
X14300348Y-12560155D02*
X14347967Y-12560155D01*
X14347967Y-12560155D02*
X14367015Y-12550632D01*
X14462253Y-12503012D02*
X14462253Y-12703012D01*
X14462253Y-12512536D02*
X14481301Y-12503012D01*
X14481301Y-12503012D02*
X14519396Y-12503012D01*
X14519396Y-12503012D02*
X14538443Y-12512536D01*
X14538443Y-12512536D02*
X14547967Y-12522060D01*
X14547967Y-12522060D02*
X14557491Y-12541108D01*
X14557491Y-12541108D02*
X14557491Y-12598251D01*
X14557491Y-12598251D02*
X14547967Y-12617298D01*
X14547967Y-12617298D02*
X14538443Y-12626822D01*
X14538443Y-12626822D02*
X14519396Y-12636346D01*
X14519396Y-12636346D02*
X14481301Y-12636346D01*
X14481301Y-12636346D02*
X14462253Y-12626822D01*
X14643205Y-12617298D02*
X14652729Y-12626822D01*
X14652729Y-12626822D02*
X14643205Y-12636346D01*
X14643205Y-12636346D02*
X14633682Y-12626822D01*
X14633682Y-12626822D02*
X14643205Y-12617298D01*
X14643205Y-12617298D02*
X14643205Y-12636346D01*
X14643205Y-12512536D02*
X14652729Y-12522060D01*
X14652729Y-12522060D02*
X14643205Y-12531584D01*
X14643205Y-12531584D02*
X14633682Y-12522060D01*
X14633682Y-12522060D02*
X14643205Y-12512536D01*
X14643205Y-12512536D02*
X14643205Y-12531584D01*
D12*
X12977980Y-12948352D02*
X13011000Y-12981372D01*
X13011000Y-12948352D02*
X12977980Y-12981372D01*
D11*
X13309872Y-12856346D02*
X13328920Y-12856346D01*
X13328920Y-12856346D02*
X13347967Y-12865870D01*
X13347967Y-12865870D02*
X13357491Y-12875393D01*
X13357491Y-12875393D02*
X13367015Y-12894441D01*
X13367015Y-12894441D02*
X13376539Y-12932536D01*
X13376539Y-12932536D02*
X13376539Y-12980155D01*
X13376539Y-12980155D02*
X13367015Y-13018251D01*
X13367015Y-13018251D02*
X13357491Y-13037298D01*
X13357491Y-13037298D02*
X13347967Y-13046822D01*
X13347967Y-13046822D02*
X13328920Y-13056346D01*
X13328920Y-13056346D02*
X13309872Y-13056346D01*
X13309872Y-13056346D02*
X13290824Y-13046822D01*
X13290824Y-13046822D02*
X13281301Y-13037298D01*
X13281301Y-13037298D02*
X13271777Y-13018251D01*
X13271777Y-13018251D02*
X13262253Y-12980155D01*
X13262253Y-12980155D02*
X13262253Y-12932536D01*
X13262253Y-12932536D02*
X13271777Y-12894441D01*
X13271777Y-12894441D02*
X13281301Y-12875393D01*
X13281301Y-12875393D02*
X13290824Y-12865870D01*
X13290824Y-12865870D02*
X13309872Y-12856346D01*
X13462253Y-13037298D02*
X13471777Y-13046822D01*
X13471777Y-13046822D02*
X13462253Y-13056346D01*
X13462253Y-13056346D02*
X13452729Y-13046822D01*
X13452729Y-13046822D02*
X13462253Y-13037298D01*
X13462253Y-13037298D02*
X13462253Y-13056346D01*
X13538443Y-12856346D02*
X13662253Y-12856346D01*
X13662253Y-12856346D02*
X13595586Y-12932536D01*
X13595586Y-12932536D02*
X13624158Y-12932536D01*
X13624158Y-12932536D02*
X13643205Y-12942060D01*
X13643205Y-12942060D02*
X13652729Y-12951584D01*
X13652729Y-12951584D02*
X13662253Y-12970632D01*
X13662253Y-12970632D02*
X13662253Y-13018251D01*
X13662253Y-13018251D02*
X13652729Y-13037298D01*
X13652729Y-13037298D02*
X13643205Y-13046822D01*
X13643205Y-13046822D02*
X13624158Y-13056346D01*
X13624158Y-13056346D02*
X13567015Y-13056346D01*
X13567015Y-13056346D02*
X13547967Y-13046822D01*
X13547967Y-13046822D02*
X13538443Y-13037298D01*
X13728920Y-12856346D02*
X13852729Y-12856346D01*
X13852729Y-12856346D02*
X13786062Y-12932536D01*
X13786062Y-12932536D02*
X13814634Y-12932536D01*
X13814634Y-12932536D02*
X13833682Y-12942060D01*
X13833682Y-12942060D02*
X13843205Y-12951584D01*
X13843205Y-12951584D02*
X13852729Y-12970632D01*
X13852729Y-12970632D02*
X13852729Y-13018251D01*
X13852729Y-13018251D02*
X13843205Y-13037298D01*
X13843205Y-13037298D02*
X13833682Y-13046822D01*
X13833682Y-13046822D02*
X13814634Y-13056346D01*
X13814634Y-13056346D02*
X13757491Y-13056346D01*
X13757491Y-13056346D02*
X13738443Y-13046822D01*
X13738443Y-13046822D02*
X13728920Y-13037298D01*
X13976539Y-12856346D02*
X13995586Y-12856346D01*
X13995586Y-12856346D02*
X14014634Y-12865870D01*
X14014634Y-12865870D02*
X14024158Y-12875393D01*
X14024158Y-12875393D02*
X14033682Y-12894441D01*
X14033682Y-12894441D02*
X14043205Y-12932536D01*
X14043205Y-12932536D02*
X14043205Y-12980155D01*
X14043205Y-12980155D02*
X14033682Y-13018251D01*
X14033682Y-13018251D02*
X14024158Y-13037298D01*
X14024158Y-13037298D02*
X14014634Y-13046822D01*
X14014634Y-13046822D02*
X13995586Y-13056346D01*
X13995586Y-13056346D02*
X13976539Y-13056346D01*
X13976539Y-13056346D02*
X13957491Y-13046822D01*
X13957491Y-13046822D02*
X13947967Y-13037298D01*
X13947967Y-13037298D02*
X13938443Y-13018251D01*
X13938443Y-13018251D02*
X13928920Y-12980155D01*
X13928920Y-12980155D02*
X13928920Y-12932536D01*
X13928920Y-12932536D02*
X13938443Y-12894441D01*
X13938443Y-12894441D02*
X13947967Y-12875393D01*
X13947967Y-12875393D02*
X13957491Y-12865870D01*
X13957491Y-12865870D02*
X13976539Y-12856346D01*
X14128920Y-13056346D02*
X14128920Y-12923012D01*
X14128920Y-12942060D02*
X14138443Y-12932536D01*
X14138443Y-12932536D02*
X14157491Y-12923012D01*
X14157491Y-12923012D02*
X14186063Y-12923012D01*
X14186063Y-12923012D02*
X14205110Y-12932536D01*
X14205110Y-12932536D02*
X14214634Y-12951584D01*
X14214634Y-12951584D02*
X14214634Y-13056346D01*
X14214634Y-12951584D02*
X14224158Y-12932536D01*
X14224158Y-12932536D02*
X14243205Y-12923012D01*
X14243205Y-12923012D02*
X14271777Y-12923012D01*
X14271777Y-12923012D02*
X14290824Y-12932536D01*
X14290824Y-12932536D02*
X14300348Y-12951584D01*
X14300348Y-12951584D02*
X14300348Y-13056346D01*
X14395586Y-13056346D02*
X14395586Y-12923012D01*
X14395586Y-12942060D02*
X14405110Y-12932536D01*
X14405110Y-12932536D02*
X14424158Y-12923012D01*
X14424158Y-12923012D02*
X14452729Y-12923012D01*
X14452729Y-12923012D02*
X14471777Y-12932536D01*
X14471777Y-12932536D02*
X14481301Y-12951584D01*
X14481301Y-12951584D02*
X14481301Y-13056346D01*
X14481301Y-12951584D02*
X14490824Y-12932536D01*
X14490824Y-12932536D02*
X14509872Y-12923012D01*
X14509872Y-12923012D02*
X14538443Y-12923012D01*
X14538443Y-12923012D02*
X14557491Y-12932536D01*
X14557491Y-12932536D02*
X14567015Y-12951584D01*
X14567015Y-12951584D02*
X14567015Y-13056346D01*
X14957491Y-12846822D02*
X14786063Y-13103965D01*
X15214634Y-12856346D02*
X15233682Y-12856346D01*
X15233682Y-12856346D02*
X15252729Y-12865870D01*
X15252729Y-12865870D02*
X15262253Y-12875393D01*
X15262253Y-12875393D02*
X15271777Y-12894441D01*
X15271777Y-12894441D02*
X15281301Y-12932536D01*
X15281301Y-12932536D02*
X15281301Y-12980155D01*
X15281301Y-12980155D02*
X15271777Y-13018251D01*
X15271777Y-13018251D02*
X15262253Y-13037298D01*
X15262253Y-13037298D02*
X15252729Y-13046822D01*
X15252729Y-13046822D02*
X15233682Y-13056346D01*
X15233682Y-13056346D02*
X15214634Y-13056346D01*
X15214634Y-13056346D02*
X15195586Y-13046822D01*
X15195586Y-13046822D02*
X15186063Y-13037298D01*
X15186063Y-13037298D02*
X15176539Y-13018251D01*
X15176539Y-13018251D02*
X15167015Y-12980155D01*
X15167015Y-12980155D02*
X15167015Y-12932536D01*
X15167015Y-12932536D02*
X15176539Y-12894441D01*
X15176539Y-12894441D02*
X15186063Y-12875393D01*
X15186063Y-12875393D02*
X15195586Y-12865870D01*
X15195586Y-12865870D02*
X15214634Y-12856346D01*
X15367015Y-13037298D02*
X15376539Y-13046822D01*
X15376539Y-13046822D02*
X15367015Y-13056346D01*
X15367015Y-13056346D02*
X15357491Y-13046822D01*
X15357491Y-13046822D02*
X15367015Y-13037298D01*
X15367015Y-13037298D02*
X15367015Y-13056346D01*
X15500348Y-12856346D02*
X15519396Y-12856346D01*
X15519396Y-12856346D02*
X15538444Y-12865870D01*
X15538444Y-12865870D02*
X15547967Y-12875393D01*
X15547967Y-12875393D02*
X15557491Y-12894441D01*
X15557491Y-12894441D02*
X15567015Y-12932536D01*
X15567015Y-12932536D02*
X15567015Y-12980155D01*
X15567015Y-12980155D02*
X15557491Y-13018251D01*
X15557491Y-13018251D02*
X15547967Y-13037298D01*
X15547967Y-13037298D02*
X15538444Y-13046822D01*
X15538444Y-13046822D02*
X15519396Y-13056346D01*
X15519396Y-13056346D02*
X15500348Y-13056346D01*
X15500348Y-13056346D02*
X15481301Y-13046822D01*
X15481301Y-13046822D02*
X15471777Y-13037298D01*
X15471777Y-13037298D02*
X15462253Y-13018251D01*
X15462253Y-13018251D02*
X15452729Y-12980155D01*
X15452729Y-12980155D02*
X15452729Y-12932536D01*
X15452729Y-12932536D02*
X15462253Y-12894441D01*
X15462253Y-12894441D02*
X15471777Y-12875393D01*
X15471777Y-12875393D02*
X15481301Y-12865870D01*
X15481301Y-12865870D02*
X15500348Y-12856346D01*
X15757491Y-13056346D02*
X15643206Y-13056346D01*
X15700348Y-13056346D02*
X15700348Y-12856346D01*
X15700348Y-12856346D02*
X15681301Y-12884917D01*
X15681301Y-12884917D02*
X15662253Y-12903965D01*
X15662253Y-12903965D02*
X15643206Y-12913489D01*
X15824158Y-12856346D02*
X15947967Y-12856346D01*
X15947967Y-12856346D02*
X15881301Y-12932536D01*
X15881301Y-12932536D02*
X15909872Y-12932536D01*
X15909872Y-12932536D02*
X15928920Y-12942060D01*
X15928920Y-12942060D02*
X15938444Y-12951584D01*
X15938444Y-12951584D02*
X15947967Y-12970632D01*
X15947967Y-12970632D02*
X15947967Y-13018251D01*
X15947967Y-13018251D02*
X15938444Y-13037298D01*
X15938444Y-13037298D02*
X15928920Y-13046822D01*
X15928920Y-13046822D02*
X15909872Y-13056346D01*
X15909872Y-13056346D02*
X15852729Y-13056346D01*
X15852729Y-13056346D02*
X15833682Y-13046822D01*
X15833682Y-13046822D02*
X15824158Y-13037298D01*
X16071777Y-12856346D02*
X16090825Y-12856346D01*
X16090825Y-12856346D02*
X16109872Y-12865870D01*
X16109872Y-12865870D02*
X16119396Y-12875393D01*
X16119396Y-12875393D02*
X16128920Y-12894441D01*
X16128920Y-12894441D02*
X16138444Y-12932536D01*
X16138444Y-12932536D02*
X16138444Y-12980155D01*
X16138444Y-12980155D02*
X16128920Y-13018251D01*
X16128920Y-13018251D02*
X16119396Y-13037298D01*
X16119396Y-13037298D02*
X16109872Y-13046822D01*
X16109872Y-13046822D02*
X16090825Y-13056346D01*
X16090825Y-13056346D02*
X16071777Y-13056346D01*
X16071777Y-13056346D02*
X16052729Y-13046822D01*
X16052729Y-13046822D02*
X16043206Y-13037298D01*
X16043206Y-13037298D02*
X16033682Y-13018251D01*
X16033682Y-13018251D02*
X16024158Y-12980155D01*
X16024158Y-12980155D02*
X16024158Y-12932536D01*
X16024158Y-12932536D02*
X16033682Y-12894441D01*
X16033682Y-12894441D02*
X16043206Y-12875393D01*
X16043206Y-12875393D02*
X16052729Y-12865870D01*
X16052729Y-12865870D02*
X16071777Y-12856346D01*
X16214634Y-12856346D02*
X16214634Y-12894441D01*
X16290825Y-12856346D02*
X16290825Y-12894441D01*
X16586063Y-13132536D02*
X16576539Y-13123012D01*
X16576539Y-13123012D02*
X16557491Y-13094441D01*
X16557491Y-13094441D02*
X16547968Y-13075393D01*
X16547968Y-13075393D02*
X16538444Y-13046822D01*
X16538444Y-13046822D02*
X16528920Y-12999203D01*
X16528920Y-12999203D02*
X16528920Y-12961108D01*
X16528920Y-12961108D02*
X16538444Y-12913489D01*
X16538444Y-12913489D02*
X16547968Y-12884917D01*
X16547968Y-12884917D02*
X16557491Y-12865870D01*
X16557491Y-12865870D02*
X16576539Y-12837298D01*
X16576539Y-12837298D02*
X16586063Y-12827774D01*
X16767015Y-13056346D02*
X16652729Y-13056346D01*
X16709872Y-13056346D02*
X16709872Y-12856346D01*
X16709872Y-12856346D02*
X16690825Y-12884917D01*
X16690825Y-12884917D02*
X16671777Y-12903965D01*
X16671777Y-12903965D02*
X16652729Y-12913489D01*
X16833682Y-12856346D02*
X16957491Y-12856346D01*
X16957491Y-12856346D02*
X16890825Y-12932536D01*
X16890825Y-12932536D02*
X16919396Y-12932536D01*
X16919396Y-12932536D02*
X16938444Y-12942060D01*
X16938444Y-12942060D02*
X16947968Y-12951584D01*
X16947968Y-12951584D02*
X16957491Y-12970632D01*
X16957491Y-12970632D02*
X16957491Y-13018251D01*
X16957491Y-13018251D02*
X16947968Y-13037298D01*
X16947968Y-13037298D02*
X16938444Y-13046822D01*
X16938444Y-13046822D02*
X16919396Y-13056346D01*
X16919396Y-13056346D02*
X16862253Y-13056346D01*
X16862253Y-13056346D02*
X16843206Y-13046822D01*
X16843206Y-13046822D02*
X16833682Y-13037298D01*
X17033682Y-12875393D02*
X17043206Y-12865870D01*
X17043206Y-12865870D02*
X17062253Y-12856346D01*
X17062253Y-12856346D02*
X17109872Y-12856346D01*
X17109872Y-12856346D02*
X17128920Y-12865870D01*
X17128920Y-12865870D02*
X17138444Y-12875393D01*
X17138444Y-12875393D02*
X17147968Y-12894441D01*
X17147968Y-12894441D02*
X17147968Y-12913489D01*
X17147968Y-12913489D02*
X17138444Y-12942060D01*
X17138444Y-12942060D02*
X17024158Y-13056346D01*
X17024158Y-13056346D02*
X17147968Y-13056346D01*
X17386063Y-13056346D02*
X17386063Y-12856346D01*
X17471777Y-13056346D02*
X17471777Y-12951584D01*
X17471777Y-12951584D02*
X17462253Y-12932536D01*
X17462253Y-12932536D02*
X17443206Y-12923012D01*
X17443206Y-12923012D02*
X17414634Y-12923012D01*
X17414634Y-12923012D02*
X17395587Y-12932536D01*
X17395587Y-12932536D02*
X17386063Y-12942060D01*
X17595587Y-13056346D02*
X17576539Y-13046822D01*
X17576539Y-13046822D02*
X17567015Y-13037298D01*
X17567015Y-13037298D02*
X17557492Y-13018251D01*
X17557492Y-13018251D02*
X17557492Y-12961108D01*
X17557492Y-12961108D02*
X17567015Y-12942060D01*
X17567015Y-12942060D02*
X17576539Y-12932536D01*
X17576539Y-12932536D02*
X17595587Y-12923012D01*
X17595587Y-12923012D02*
X17624158Y-12923012D01*
X17624158Y-12923012D02*
X17643206Y-12932536D01*
X17643206Y-12932536D02*
X17652730Y-12942060D01*
X17652730Y-12942060D02*
X17662253Y-12961108D01*
X17662253Y-12961108D02*
X17662253Y-13018251D01*
X17662253Y-13018251D02*
X17652730Y-13037298D01*
X17652730Y-13037298D02*
X17643206Y-13046822D01*
X17643206Y-13046822D02*
X17624158Y-13056346D01*
X17624158Y-13056346D02*
X17595587Y-13056346D01*
X17776539Y-13056346D02*
X17757492Y-13046822D01*
X17757492Y-13046822D02*
X17747968Y-13027774D01*
X17747968Y-13027774D02*
X17747968Y-12856346D01*
X17928920Y-13046822D02*
X17909873Y-13056346D01*
X17909873Y-13056346D02*
X17871777Y-13056346D01*
X17871777Y-13056346D02*
X17852730Y-13046822D01*
X17852730Y-13046822D02*
X17843206Y-13027774D01*
X17843206Y-13027774D02*
X17843206Y-12951584D01*
X17843206Y-12951584D02*
X17852730Y-12932536D01*
X17852730Y-12932536D02*
X17871777Y-12923012D01*
X17871777Y-12923012D02*
X17909873Y-12923012D01*
X17909873Y-12923012D02*
X17928920Y-12932536D01*
X17928920Y-12932536D02*
X17938444Y-12951584D01*
X17938444Y-12951584D02*
X17938444Y-12970632D01*
X17938444Y-12970632D02*
X17843206Y-12989679D01*
X18014634Y-13046822D02*
X18033682Y-13056346D01*
X18033682Y-13056346D02*
X18071777Y-13056346D01*
X18071777Y-13056346D02*
X18090825Y-13046822D01*
X18090825Y-13046822D02*
X18100349Y-13027774D01*
X18100349Y-13027774D02*
X18100349Y-13018251D01*
X18100349Y-13018251D02*
X18090825Y-12999203D01*
X18090825Y-12999203D02*
X18071777Y-12989679D01*
X18071777Y-12989679D02*
X18043206Y-12989679D01*
X18043206Y-12989679D02*
X18024158Y-12980155D01*
X18024158Y-12980155D02*
X18014634Y-12961108D01*
X18014634Y-12961108D02*
X18014634Y-12951584D01*
X18014634Y-12951584D02*
X18024158Y-12932536D01*
X18024158Y-12932536D02*
X18043206Y-12923012D01*
X18043206Y-12923012D02*
X18071777Y-12923012D01*
X18071777Y-12923012D02*
X18090825Y-12932536D01*
X18167015Y-13132536D02*
X18176539Y-13123012D01*
X18176539Y-13123012D02*
X18195587Y-13094441D01*
X18195587Y-13094441D02*
X18205111Y-13075393D01*
X18205111Y-13075393D02*
X18214634Y-13046822D01*
X18214634Y-13046822D02*
X18224158Y-12999203D01*
X18224158Y-12999203D02*
X18224158Y-12961108D01*
X18224158Y-12961108D02*
X18214634Y-12913489D01*
X18214634Y-12913489D02*
X18205111Y-12884917D01*
X18205111Y-12884917D02*
X18195587Y-12865870D01*
X18195587Y-12865870D02*
X18176539Y-12837298D01*
X18176539Y-12837298D02*
X18167015Y-12827774D01*
D13*
X13011000Y-13228862D02*
G75*
G03*
X13011000Y-13228862I-20000J0D01*
G01*
D11*
X13309872Y-13120346D02*
X13328920Y-13120346D01*
X13328920Y-13120346D02*
X13347967Y-13129870D01*
X13347967Y-13129870D02*
X13357491Y-13139393D01*
X13357491Y-13139393D02*
X13367015Y-13158441D01*
X13367015Y-13158441D02*
X13376539Y-13196536D01*
X13376539Y-13196536D02*
X13376539Y-13244155D01*
X13376539Y-13244155D02*
X13367015Y-13282251D01*
X13367015Y-13282251D02*
X13357491Y-13301298D01*
X13357491Y-13301298D02*
X13347967Y-13310822D01*
X13347967Y-13310822D02*
X13328920Y-13320346D01*
X13328920Y-13320346D02*
X13309872Y-13320346D01*
X13309872Y-13320346D02*
X13290824Y-13310822D01*
X13290824Y-13310822D02*
X13281301Y-13301298D01*
X13281301Y-13301298D02*
X13271777Y-13282251D01*
X13271777Y-13282251D02*
X13262253Y-13244155D01*
X13262253Y-13244155D02*
X13262253Y-13196536D01*
X13262253Y-13196536D02*
X13271777Y-13158441D01*
X13271777Y-13158441D02*
X13281301Y-13139393D01*
X13281301Y-13139393D02*
X13290824Y-13129870D01*
X13290824Y-13129870D02*
X13309872Y-13120346D01*
X13462253Y-13301298D02*
X13471777Y-13310822D01*
X13471777Y-13310822D02*
X13462253Y-13320346D01*
X13462253Y-13320346D02*
X13452729Y-13310822D01*
X13452729Y-13310822D02*
X13462253Y-13301298D01*
X13462253Y-13301298D02*
X13462253Y-13320346D01*
X13643205Y-13187012D02*
X13643205Y-13320346D01*
X13595586Y-13110822D02*
X13547967Y-13253679D01*
X13547967Y-13253679D02*
X13671777Y-13253679D01*
X13786062Y-13120346D02*
X13805110Y-13120346D01*
X13805110Y-13120346D02*
X13824158Y-13129870D01*
X13824158Y-13129870D02*
X13833682Y-13139393D01*
X13833682Y-13139393D02*
X13843205Y-13158441D01*
X13843205Y-13158441D02*
X13852729Y-13196536D01*
X13852729Y-13196536D02*
X13852729Y-13244155D01*
X13852729Y-13244155D02*
X13843205Y-13282251D01*
X13843205Y-13282251D02*
X13833682Y-13301298D01*
X13833682Y-13301298D02*
X13824158Y-13310822D01*
X13824158Y-13310822D02*
X13805110Y-13320346D01*
X13805110Y-13320346D02*
X13786062Y-13320346D01*
X13786062Y-13320346D02*
X13767015Y-13310822D01*
X13767015Y-13310822D02*
X13757491Y-13301298D01*
X13757491Y-13301298D02*
X13747967Y-13282251D01*
X13747967Y-13282251D02*
X13738443Y-13244155D01*
X13738443Y-13244155D02*
X13738443Y-13196536D01*
X13738443Y-13196536D02*
X13747967Y-13158441D01*
X13747967Y-13158441D02*
X13757491Y-13139393D01*
X13757491Y-13139393D02*
X13767015Y-13129870D01*
X13767015Y-13129870D02*
X13786062Y-13120346D01*
X13976539Y-13120346D02*
X13995586Y-13120346D01*
X13995586Y-13120346D02*
X14014634Y-13129870D01*
X14014634Y-13129870D02*
X14024158Y-13139393D01*
X14024158Y-13139393D02*
X14033682Y-13158441D01*
X14033682Y-13158441D02*
X14043205Y-13196536D01*
X14043205Y-13196536D02*
X14043205Y-13244155D01*
X14043205Y-13244155D02*
X14033682Y-13282251D01*
X14033682Y-13282251D02*
X14024158Y-13301298D01*
X14024158Y-13301298D02*
X14014634Y-13310822D01*
X14014634Y-13310822D02*
X13995586Y-13320346D01*
X13995586Y-13320346D02*
X13976539Y-13320346D01*
X13976539Y-13320346D02*
X13957491Y-13310822D01*
X13957491Y-13310822D02*
X13947967Y-13301298D01*
X13947967Y-13301298D02*
X13938443Y-13282251D01*
X13938443Y-13282251D02*
X13928920Y-13244155D01*
X13928920Y-13244155D02*
X13928920Y-13196536D01*
X13928920Y-13196536D02*
X13938443Y-13158441D01*
X13938443Y-13158441D02*
X13947967Y-13139393D01*
X13947967Y-13139393D02*
X13957491Y-13129870D01*
X13957491Y-13129870D02*
X13976539Y-13120346D01*
X14128920Y-13320346D02*
X14128920Y-13187012D01*
X14128920Y-13206060D02*
X14138443Y-13196536D01*
X14138443Y-13196536D02*
X14157491Y-13187012D01*
X14157491Y-13187012D02*
X14186063Y-13187012D01*
X14186063Y-13187012D02*
X14205110Y-13196536D01*
X14205110Y-13196536D02*
X14214634Y-13215584D01*
X14214634Y-13215584D02*
X14214634Y-13320346D01*
X14214634Y-13215584D02*
X14224158Y-13196536D01*
X14224158Y-13196536D02*
X14243205Y-13187012D01*
X14243205Y-13187012D02*
X14271777Y-13187012D01*
X14271777Y-13187012D02*
X14290824Y-13196536D01*
X14290824Y-13196536D02*
X14300348Y-13215584D01*
X14300348Y-13215584D02*
X14300348Y-13320346D01*
X14395586Y-13320346D02*
X14395586Y-13187012D01*
X14395586Y-13206060D02*
X14405110Y-13196536D01*
X14405110Y-13196536D02*
X14424158Y-13187012D01*
X14424158Y-13187012D02*
X14452729Y-13187012D01*
X14452729Y-13187012D02*
X14471777Y-13196536D01*
X14471777Y-13196536D02*
X14481301Y-13215584D01*
X14481301Y-13215584D02*
X14481301Y-13320346D01*
X14481301Y-13215584D02*
X14490824Y-13196536D01*
X14490824Y-13196536D02*
X14509872Y-13187012D01*
X14509872Y-13187012D02*
X14538443Y-13187012D01*
X14538443Y-13187012D02*
X14557491Y-13196536D01*
X14557491Y-13196536D02*
X14567015Y-13215584D01*
X14567015Y-13215584D02*
X14567015Y-13320346D01*
X14957491Y-13110822D02*
X14786063Y-13367965D01*
X15214634Y-13120346D02*
X15233682Y-13120346D01*
X15233682Y-13120346D02*
X15252729Y-13129870D01*
X15252729Y-13129870D02*
X15262253Y-13139393D01*
X15262253Y-13139393D02*
X15271777Y-13158441D01*
X15271777Y-13158441D02*
X15281301Y-13196536D01*
X15281301Y-13196536D02*
X15281301Y-13244155D01*
X15281301Y-13244155D02*
X15271777Y-13282251D01*
X15271777Y-13282251D02*
X15262253Y-13301298D01*
X15262253Y-13301298D02*
X15252729Y-13310822D01*
X15252729Y-13310822D02*
X15233682Y-13320346D01*
X15233682Y-13320346D02*
X15214634Y-13320346D01*
X15214634Y-13320346D02*
X15195586Y-13310822D01*
X15195586Y-13310822D02*
X15186063Y-13301298D01*
X15186063Y-13301298D02*
X15176539Y-13282251D01*
X15176539Y-13282251D02*
X15167015Y-13244155D01*
X15167015Y-13244155D02*
X15167015Y-13196536D01*
X15167015Y-13196536D02*
X15176539Y-13158441D01*
X15176539Y-13158441D02*
X15186063Y-13139393D01*
X15186063Y-13139393D02*
X15195586Y-13129870D01*
X15195586Y-13129870D02*
X15214634Y-13120346D01*
X15367015Y-13301298D02*
X15376539Y-13310822D01*
X15376539Y-13310822D02*
X15367015Y-13320346D01*
X15367015Y-13320346D02*
X15357491Y-13310822D01*
X15357491Y-13310822D02*
X15367015Y-13301298D01*
X15367015Y-13301298D02*
X15367015Y-13320346D01*
X15500348Y-13120346D02*
X15519396Y-13120346D01*
X15519396Y-13120346D02*
X15538444Y-13129870D01*
X15538444Y-13129870D02*
X15547967Y-13139393D01*
X15547967Y-13139393D02*
X15557491Y-13158441D01*
X15557491Y-13158441D02*
X15567015Y-13196536D01*
X15567015Y-13196536D02*
X15567015Y-13244155D01*
X15567015Y-13244155D02*
X15557491Y-13282251D01*
X15557491Y-13282251D02*
X15547967Y-13301298D01*
X15547967Y-13301298D02*
X15538444Y-13310822D01*
X15538444Y-13310822D02*
X15519396Y-13320346D01*
X15519396Y-13320346D02*
X15500348Y-13320346D01*
X15500348Y-13320346D02*
X15481301Y-13310822D01*
X15481301Y-13310822D02*
X15471777Y-13301298D01*
X15471777Y-13301298D02*
X15462253Y-13282251D01*
X15462253Y-13282251D02*
X15452729Y-13244155D01*
X15452729Y-13244155D02*
X15452729Y-13196536D01*
X15452729Y-13196536D02*
X15462253Y-13158441D01*
X15462253Y-13158441D02*
X15471777Y-13139393D01*
X15471777Y-13139393D02*
X15481301Y-13129870D01*
X15481301Y-13129870D02*
X15500348Y-13120346D01*
X15757491Y-13320346D02*
X15643206Y-13320346D01*
X15700348Y-13320346D02*
X15700348Y-13120346D01*
X15700348Y-13120346D02*
X15681301Y-13148917D01*
X15681301Y-13148917D02*
X15662253Y-13167965D01*
X15662253Y-13167965D02*
X15643206Y-13177489D01*
X15938444Y-13120346D02*
X15843206Y-13120346D01*
X15843206Y-13120346D02*
X15833682Y-13215584D01*
X15833682Y-13215584D02*
X15843206Y-13206060D01*
X15843206Y-13206060D02*
X15862253Y-13196536D01*
X15862253Y-13196536D02*
X15909872Y-13196536D01*
X15909872Y-13196536D02*
X15928920Y-13206060D01*
X15928920Y-13206060D02*
X15938444Y-13215584D01*
X15938444Y-13215584D02*
X15947967Y-13234632D01*
X15947967Y-13234632D02*
X15947967Y-13282251D01*
X15947967Y-13282251D02*
X15938444Y-13301298D01*
X15938444Y-13301298D02*
X15928920Y-13310822D01*
X15928920Y-13310822D02*
X15909872Y-13320346D01*
X15909872Y-13320346D02*
X15862253Y-13320346D01*
X15862253Y-13320346D02*
X15843206Y-13310822D01*
X15843206Y-13310822D02*
X15833682Y-13301298D01*
X16014634Y-13120346D02*
X16147967Y-13120346D01*
X16147967Y-13120346D02*
X16062253Y-13320346D01*
X16214634Y-13120346D02*
X16214634Y-13158441D01*
X16290825Y-13120346D02*
X16290825Y-13158441D01*
X16586063Y-13396536D02*
X16576539Y-13387012D01*
X16576539Y-13387012D02*
X16557491Y-13358441D01*
X16557491Y-13358441D02*
X16547968Y-13339393D01*
X16547968Y-13339393D02*
X16538444Y-13310822D01*
X16538444Y-13310822D02*
X16528920Y-13263203D01*
X16528920Y-13263203D02*
X16528920Y-13225108D01*
X16528920Y-13225108D02*
X16538444Y-13177489D01*
X16538444Y-13177489D02*
X16547968Y-13148917D01*
X16547968Y-13148917D02*
X16557491Y-13129870D01*
X16557491Y-13129870D02*
X16576539Y-13101298D01*
X16576539Y-13101298D02*
X16586063Y-13091774D01*
X16700348Y-13120346D02*
X16719396Y-13120346D01*
X16719396Y-13120346D02*
X16738444Y-13129870D01*
X16738444Y-13129870D02*
X16747968Y-13139393D01*
X16747968Y-13139393D02*
X16757491Y-13158441D01*
X16757491Y-13158441D02*
X16767015Y-13196536D01*
X16767015Y-13196536D02*
X16767015Y-13244155D01*
X16767015Y-13244155D02*
X16757491Y-13282251D01*
X16757491Y-13282251D02*
X16747968Y-13301298D01*
X16747968Y-13301298D02*
X16738444Y-13310822D01*
X16738444Y-13310822D02*
X16719396Y-13320346D01*
X16719396Y-13320346D02*
X16700348Y-13320346D01*
X16700348Y-13320346D02*
X16681301Y-13310822D01*
X16681301Y-13310822D02*
X16671777Y-13301298D01*
X16671777Y-13301298D02*
X16662253Y-13282251D01*
X16662253Y-13282251D02*
X16652729Y-13244155D01*
X16652729Y-13244155D02*
X16652729Y-13196536D01*
X16652729Y-13196536D02*
X16662253Y-13158441D01*
X16662253Y-13158441D02*
X16671777Y-13139393D01*
X16671777Y-13139393D02*
X16681301Y-13129870D01*
X16681301Y-13129870D02*
X16700348Y-13120346D01*
X17005111Y-13320346D02*
X17005111Y-13120346D01*
X17090825Y-13320346D02*
X17090825Y-13215584D01*
X17090825Y-13215584D02*
X17081301Y-13196536D01*
X17081301Y-13196536D02*
X17062253Y-13187012D01*
X17062253Y-13187012D02*
X17033682Y-13187012D01*
X17033682Y-13187012D02*
X17014634Y-13196536D01*
X17014634Y-13196536D02*
X17005111Y-13206060D01*
X17214634Y-13320346D02*
X17195587Y-13310822D01*
X17195587Y-13310822D02*
X17186063Y-13301298D01*
X17186063Y-13301298D02*
X17176539Y-13282251D01*
X17176539Y-13282251D02*
X17176539Y-13225108D01*
X17176539Y-13225108D02*
X17186063Y-13206060D01*
X17186063Y-13206060D02*
X17195587Y-13196536D01*
X17195587Y-13196536D02*
X17214634Y-13187012D01*
X17214634Y-13187012D02*
X17243206Y-13187012D01*
X17243206Y-13187012D02*
X17262253Y-13196536D01*
X17262253Y-13196536D02*
X17271777Y-13206060D01*
X17271777Y-13206060D02*
X17281301Y-13225108D01*
X17281301Y-13225108D02*
X17281301Y-13282251D01*
X17281301Y-13282251D02*
X17271777Y-13301298D01*
X17271777Y-13301298D02*
X17262253Y-13310822D01*
X17262253Y-13310822D02*
X17243206Y-13320346D01*
X17243206Y-13320346D02*
X17214634Y-13320346D01*
X17395587Y-13320346D02*
X17376539Y-13310822D01*
X17376539Y-13310822D02*
X17367015Y-13291774D01*
X17367015Y-13291774D02*
X17367015Y-13120346D01*
X17547968Y-13310822D02*
X17528920Y-13320346D01*
X17528920Y-13320346D02*
X17490825Y-13320346D01*
X17490825Y-13320346D02*
X17471777Y-13310822D01*
X17471777Y-13310822D02*
X17462253Y-13291774D01*
X17462253Y-13291774D02*
X17462253Y-13215584D01*
X17462253Y-13215584D02*
X17471777Y-13196536D01*
X17471777Y-13196536D02*
X17490825Y-13187012D01*
X17490825Y-13187012D02*
X17528920Y-13187012D01*
X17528920Y-13187012D02*
X17547968Y-13196536D01*
X17547968Y-13196536D02*
X17557492Y-13215584D01*
X17557492Y-13215584D02*
X17557492Y-13234632D01*
X17557492Y-13234632D02*
X17462253Y-13253679D01*
X17633682Y-13310822D02*
X17652730Y-13320346D01*
X17652730Y-13320346D02*
X17690825Y-13320346D01*
X17690825Y-13320346D02*
X17709873Y-13310822D01*
X17709873Y-13310822D02*
X17719396Y-13291774D01*
X17719396Y-13291774D02*
X17719396Y-13282251D01*
X17719396Y-13282251D02*
X17709873Y-13263203D01*
X17709873Y-13263203D02*
X17690825Y-13253679D01*
X17690825Y-13253679D02*
X17662253Y-13253679D01*
X17662253Y-13253679D02*
X17643206Y-13244155D01*
X17643206Y-13244155D02*
X17633682Y-13225108D01*
X17633682Y-13225108D02*
X17633682Y-13215584D01*
X17633682Y-13215584D02*
X17643206Y-13196536D01*
X17643206Y-13196536D02*
X17662253Y-13187012D01*
X17662253Y-13187012D02*
X17690825Y-13187012D01*
X17690825Y-13187012D02*
X17709873Y-13196536D01*
X17957492Y-13244155D02*
X18109873Y-13244155D01*
X18033682Y-13320346D02*
X18033682Y-13167965D01*
X18347968Y-13139393D02*
X18357492Y-13129870D01*
X18357492Y-13129870D02*
X18376539Y-13120346D01*
X18376539Y-13120346D02*
X18424158Y-13120346D01*
X18424158Y-13120346D02*
X18443206Y-13129870D01*
X18443206Y-13129870D02*
X18452730Y-13139393D01*
X18452730Y-13139393D02*
X18462254Y-13158441D01*
X18462254Y-13158441D02*
X18462254Y-13177489D01*
X18462254Y-13177489D02*
X18452730Y-13206060D01*
X18452730Y-13206060D02*
X18338444Y-13320346D01*
X18338444Y-13320346D02*
X18462254Y-13320346D01*
X18690825Y-13310822D02*
X18709873Y-13320346D01*
X18709873Y-13320346D02*
X18747968Y-13320346D01*
X18747968Y-13320346D02*
X18767016Y-13310822D01*
X18767016Y-13310822D02*
X18776539Y-13291774D01*
X18776539Y-13291774D02*
X18776539Y-13282251D01*
X18776539Y-13282251D02*
X18767016Y-13263203D01*
X18767016Y-13263203D02*
X18747968Y-13253679D01*
X18747968Y-13253679D02*
X18719396Y-13253679D01*
X18719396Y-13253679D02*
X18700349Y-13244155D01*
X18700349Y-13244155D02*
X18690825Y-13225108D01*
X18690825Y-13225108D02*
X18690825Y-13215584D01*
X18690825Y-13215584D02*
X18700349Y-13196536D01*
X18700349Y-13196536D02*
X18719396Y-13187012D01*
X18719396Y-13187012D02*
X18747968Y-13187012D01*
X18747968Y-13187012D02*
X18767016Y-13196536D01*
X18890825Y-13320346D02*
X18871777Y-13310822D01*
X18871777Y-13310822D02*
X18862254Y-13291774D01*
X18862254Y-13291774D02*
X18862254Y-13120346D01*
X18995587Y-13320346D02*
X18976539Y-13310822D01*
X18976539Y-13310822D02*
X18967016Y-13301298D01*
X18967016Y-13301298D02*
X18957492Y-13282251D01*
X18957492Y-13282251D02*
X18957492Y-13225108D01*
X18957492Y-13225108D02*
X18967016Y-13206060D01*
X18967016Y-13206060D02*
X18976539Y-13196536D01*
X18976539Y-13196536D02*
X18995587Y-13187012D01*
X18995587Y-13187012D02*
X19024158Y-13187012D01*
X19024158Y-13187012D02*
X19043206Y-13196536D01*
X19043206Y-13196536D02*
X19052730Y-13206060D01*
X19052730Y-13206060D02*
X19062254Y-13225108D01*
X19062254Y-13225108D02*
X19062254Y-13282251D01*
X19062254Y-13282251D02*
X19052730Y-13301298D01*
X19052730Y-13301298D02*
X19043206Y-13310822D01*
X19043206Y-13310822D02*
X19024158Y-13320346D01*
X19024158Y-13320346D02*
X18995587Y-13320346D01*
X19119397Y-13187012D02*
X19195587Y-13187012D01*
X19147968Y-13120346D02*
X19147968Y-13291774D01*
X19147968Y-13291774D02*
X19157492Y-13310822D01*
X19157492Y-13310822D02*
X19176539Y-13320346D01*
X19176539Y-13320346D02*
X19195587Y-13320346D01*
X19252730Y-13310822D02*
X19271777Y-13320346D01*
X19271777Y-13320346D02*
X19309873Y-13320346D01*
X19309873Y-13320346D02*
X19328920Y-13310822D01*
X19328920Y-13310822D02*
X19338444Y-13291774D01*
X19338444Y-13291774D02*
X19338444Y-13282251D01*
X19338444Y-13282251D02*
X19328920Y-13263203D01*
X19328920Y-13263203D02*
X19309873Y-13253679D01*
X19309873Y-13253679D02*
X19281301Y-13253679D01*
X19281301Y-13253679D02*
X19262254Y-13244155D01*
X19262254Y-13244155D02*
X19252730Y-13225108D01*
X19252730Y-13225108D02*
X19252730Y-13215584D01*
X19252730Y-13215584D02*
X19262254Y-13196536D01*
X19262254Y-13196536D02*
X19281301Y-13187012D01*
X19281301Y-13187012D02*
X19309873Y-13187012D01*
X19309873Y-13187012D02*
X19328920Y-13196536D01*
X19405111Y-13396536D02*
X19414635Y-13387012D01*
X19414635Y-13387012D02*
X19433682Y-13358441D01*
X19433682Y-13358441D02*
X19443206Y-13339393D01*
X19443206Y-13339393D02*
X19452730Y-13310822D01*
X19452730Y-13310822D02*
X19462254Y-13263203D01*
X19462254Y-13263203D02*
X19462254Y-13225108D01*
X19462254Y-13225108D02*
X19452730Y-13177489D01*
X19452730Y-13177489D02*
X19443206Y-13148917D01*
X19443206Y-13148917D02*
X19433682Y-13129870D01*
X19433682Y-13129870D02*
X19414635Y-13101298D01*
X19414635Y-13101298D02*
X19405111Y-13091774D01*
D14*
X12988500Y-13470362D02*
X12988500Y-13515362D01*
X12966000Y-13492862D02*
X13011000Y-13492862D01*
D11*
X13309872Y-13384346D02*
X13328920Y-13384346D01*
X13328920Y-13384346D02*
X13347967Y-13393870D01*
X13347967Y-13393870D02*
X13357491Y-13403393D01*
X13357491Y-13403393D02*
X13367015Y-13422441D01*
X13367015Y-13422441D02*
X13376539Y-13460536D01*
X13376539Y-13460536D02*
X13376539Y-13508155D01*
X13376539Y-13508155D02*
X13367015Y-13546251D01*
X13367015Y-13546251D02*
X13357491Y-13565298D01*
X13357491Y-13565298D02*
X13347967Y-13574822D01*
X13347967Y-13574822D02*
X13328920Y-13584346D01*
X13328920Y-13584346D02*
X13309872Y-13584346D01*
X13309872Y-13584346D02*
X13290824Y-13574822D01*
X13290824Y-13574822D02*
X13281301Y-13565298D01*
X13281301Y-13565298D02*
X13271777Y-13546251D01*
X13271777Y-13546251D02*
X13262253Y-13508155D01*
X13262253Y-13508155D02*
X13262253Y-13460536D01*
X13262253Y-13460536D02*
X13271777Y-13422441D01*
X13271777Y-13422441D02*
X13281301Y-13403393D01*
X13281301Y-13403393D02*
X13290824Y-13393870D01*
X13290824Y-13393870D02*
X13309872Y-13384346D01*
X13462253Y-13565298D02*
X13471777Y-13574822D01*
X13471777Y-13574822D02*
X13462253Y-13584346D01*
X13462253Y-13584346D02*
X13452729Y-13574822D01*
X13452729Y-13574822D02*
X13462253Y-13565298D01*
X13462253Y-13565298D02*
X13462253Y-13584346D01*
X13643205Y-13451012D02*
X13643205Y-13584346D01*
X13595586Y-13374822D02*
X13547967Y-13517679D01*
X13547967Y-13517679D02*
X13671777Y-13517679D01*
X13843205Y-13384346D02*
X13747967Y-13384346D01*
X13747967Y-13384346D02*
X13738443Y-13479584D01*
X13738443Y-13479584D02*
X13747967Y-13470060D01*
X13747967Y-13470060D02*
X13767015Y-13460536D01*
X13767015Y-13460536D02*
X13814634Y-13460536D01*
X13814634Y-13460536D02*
X13833682Y-13470060D01*
X13833682Y-13470060D02*
X13843205Y-13479584D01*
X13843205Y-13479584D02*
X13852729Y-13498632D01*
X13852729Y-13498632D02*
X13852729Y-13546251D01*
X13852729Y-13546251D02*
X13843205Y-13565298D01*
X13843205Y-13565298D02*
X13833682Y-13574822D01*
X13833682Y-13574822D02*
X13814634Y-13584346D01*
X13814634Y-13584346D02*
X13767015Y-13584346D01*
X13767015Y-13584346D02*
X13747967Y-13574822D01*
X13747967Y-13574822D02*
X13738443Y-13565298D01*
X13976539Y-13384346D02*
X13995586Y-13384346D01*
X13995586Y-13384346D02*
X14014634Y-13393870D01*
X14014634Y-13393870D02*
X14024158Y-13403393D01*
X14024158Y-13403393D02*
X14033682Y-13422441D01*
X14033682Y-13422441D02*
X14043205Y-13460536D01*
X14043205Y-13460536D02*
X14043205Y-13508155D01*
X14043205Y-13508155D02*
X14033682Y-13546251D01*
X14033682Y-13546251D02*
X14024158Y-13565298D01*
X14024158Y-13565298D02*
X14014634Y-13574822D01*
X14014634Y-13574822D02*
X13995586Y-13584346D01*
X13995586Y-13584346D02*
X13976539Y-13584346D01*
X13976539Y-13584346D02*
X13957491Y-13574822D01*
X13957491Y-13574822D02*
X13947967Y-13565298D01*
X13947967Y-13565298D02*
X13938443Y-13546251D01*
X13938443Y-13546251D02*
X13928920Y-13508155D01*
X13928920Y-13508155D02*
X13928920Y-13460536D01*
X13928920Y-13460536D02*
X13938443Y-13422441D01*
X13938443Y-13422441D02*
X13947967Y-13403393D01*
X13947967Y-13403393D02*
X13957491Y-13393870D01*
X13957491Y-13393870D02*
X13976539Y-13384346D01*
X14128920Y-13584346D02*
X14128920Y-13451012D01*
X14128920Y-13470060D02*
X14138443Y-13460536D01*
X14138443Y-13460536D02*
X14157491Y-13451012D01*
X14157491Y-13451012D02*
X14186063Y-13451012D01*
X14186063Y-13451012D02*
X14205110Y-13460536D01*
X14205110Y-13460536D02*
X14214634Y-13479584D01*
X14214634Y-13479584D02*
X14214634Y-13584346D01*
X14214634Y-13479584D02*
X14224158Y-13460536D01*
X14224158Y-13460536D02*
X14243205Y-13451012D01*
X14243205Y-13451012D02*
X14271777Y-13451012D01*
X14271777Y-13451012D02*
X14290824Y-13460536D01*
X14290824Y-13460536D02*
X14300348Y-13479584D01*
X14300348Y-13479584D02*
X14300348Y-13584346D01*
X14395586Y-13584346D02*
X14395586Y-13451012D01*
X14395586Y-13470060D02*
X14405110Y-13460536D01*
X14405110Y-13460536D02*
X14424158Y-13451012D01*
X14424158Y-13451012D02*
X14452729Y-13451012D01*
X14452729Y-13451012D02*
X14471777Y-13460536D01*
X14471777Y-13460536D02*
X14481301Y-13479584D01*
X14481301Y-13479584D02*
X14481301Y-13584346D01*
X14481301Y-13479584D02*
X14490824Y-13460536D01*
X14490824Y-13460536D02*
X14509872Y-13451012D01*
X14509872Y-13451012D02*
X14538443Y-13451012D01*
X14538443Y-13451012D02*
X14557491Y-13460536D01*
X14557491Y-13460536D02*
X14567015Y-13479584D01*
X14567015Y-13479584D02*
X14567015Y-13584346D01*
X14957491Y-13374822D02*
X14786063Y-13631965D01*
X15214634Y-13384346D02*
X15233682Y-13384346D01*
X15233682Y-13384346D02*
X15252729Y-13393870D01*
X15252729Y-13393870D02*
X15262253Y-13403393D01*
X15262253Y-13403393D02*
X15271777Y-13422441D01*
X15271777Y-13422441D02*
X15281301Y-13460536D01*
X15281301Y-13460536D02*
X15281301Y-13508155D01*
X15281301Y-13508155D02*
X15271777Y-13546251D01*
X15271777Y-13546251D02*
X15262253Y-13565298D01*
X15262253Y-13565298D02*
X15252729Y-13574822D01*
X15252729Y-13574822D02*
X15233682Y-13584346D01*
X15233682Y-13584346D02*
X15214634Y-13584346D01*
X15214634Y-13584346D02*
X15195586Y-13574822D01*
X15195586Y-13574822D02*
X15186063Y-13565298D01*
X15186063Y-13565298D02*
X15176539Y-13546251D01*
X15176539Y-13546251D02*
X15167015Y-13508155D01*
X15167015Y-13508155D02*
X15167015Y-13460536D01*
X15167015Y-13460536D02*
X15176539Y-13422441D01*
X15176539Y-13422441D02*
X15186063Y-13403393D01*
X15186063Y-13403393D02*
X15195586Y-13393870D01*
X15195586Y-13393870D02*
X15214634Y-13384346D01*
X15367015Y-13565298D02*
X15376539Y-13574822D01*
X15376539Y-13574822D02*
X15367015Y-13584346D01*
X15367015Y-13584346D02*
X15357491Y-13574822D01*
X15357491Y-13574822D02*
X15367015Y-13565298D01*
X15367015Y-13565298D02*
X15367015Y-13584346D01*
X15500348Y-13384346D02*
X15519396Y-13384346D01*
X15519396Y-13384346D02*
X15538444Y-13393870D01*
X15538444Y-13393870D02*
X15547967Y-13403393D01*
X15547967Y-13403393D02*
X15557491Y-13422441D01*
X15557491Y-13422441D02*
X15567015Y-13460536D01*
X15567015Y-13460536D02*
X15567015Y-13508155D01*
X15567015Y-13508155D02*
X15557491Y-13546251D01*
X15557491Y-13546251D02*
X15547967Y-13565298D01*
X15547967Y-13565298D02*
X15538444Y-13574822D01*
X15538444Y-13574822D02*
X15519396Y-13584346D01*
X15519396Y-13584346D02*
X15500348Y-13584346D01*
X15500348Y-13584346D02*
X15481301Y-13574822D01*
X15481301Y-13574822D02*
X15471777Y-13565298D01*
X15471777Y-13565298D02*
X15462253Y-13546251D01*
X15462253Y-13546251D02*
X15452729Y-13508155D01*
X15452729Y-13508155D02*
X15452729Y-13460536D01*
X15452729Y-13460536D02*
X15462253Y-13422441D01*
X15462253Y-13422441D02*
X15471777Y-13403393D01*
X15471777Y-13403393D02*
X15481301Y-13393870D01*
X15481301Y-13393870D02*
X15500348Y-13384346D01*
X15757491Y-13584346D02*
X15643206Y-13584346D01*
X15700348Y-13584346D02*
X15700348Y-13384346D01*
X15700348Y-13384346D02*
X15681301Y-13412917D01*
X15681301Y-13412917D02*
X15662253Y-13431965D01*
X15662253Y-13431965D02*
X15643206Y-13441489D01*
X15824158Y-13384346D02*
X15957491Y-13384346D01*
X15957491Y-13384346D02*
X15871777Y-13584346D01*
X16014634Y-13384346D02*
X16147967Y-13384346D01*
X16147967Y-13384346D02*
X16062253Y-13584346D01*
X16214634Y-13384346D02*
X16214634Y-13422441D01*
X16290825Y-13384346D02*
X16290825Y-13422441D01*
X16586063Y-13660536D02*
X16576539Y-13651012D01*
X16576539Y-13651012D02*
X16557491Y-13622441D01*
X16557491Y-13622441D02*
X16547968Y-13603393D01*
X16547968Y-13603393D02*
X16538444Y-13574822D01*
X16538444Y-13574822D02*
X16528920Y-13527203D01*
X16528920Y-13527203D02*
X16528920Y-13489108D01*
X16528920Y-13489108D02*
X16538444Y-13441489D01*
X16538444Y-13441489D02*
X16547968Y-13412917D01*
X16547968Y-13412917D02*
X16557491Y-13393870D01*
X16557491Y-13393870D02*
X16576539Y-13365298D01*
X16576539Y-13365298D02*
X16586063Y-13355774D01*
X16757491Y-13384346D02*
X16662253Y-13384346D01*
X16662253Y-13384346D02*
X16652729Y-13479584D01*
X16652729Y-13479584D02*
X16662253Y-13470060D01*
X16662253Y-13470060D02*
X16681301Y-13460536D01*
X16681301Y-13460536D02*
X16728920Y-13460536D01*
X16728920Y-13460536D02*
X16747968Y-13470060D01*
X16747968Y-13470060D02*
X16757491Y-13479584D01*
X16757491Y-13479584D02*
X16767015Y-13498632D01*
X16767015Y-13498632D02*
X16767015Y-13546251D01*
X16767015Y-13546251D02*
X16757491Y-13565298D01*
X16757491Y-13565298D02*
X16747968Y-13574822D01*
X16747968Y-13574822D02*
X16728920Y-13584346D01*
X16728920Y-13584346D02*
X16681301Y-13584346D01*
X16681301Y-13584346D02*
X16662253Y-13574822D01*
X16662253Y-13574822D02*
X16652729Y-13565298D01*
X17005111Y-13584346D02*
X17005111Y-13384346D01*
X17090825Y-13584346D02*
X17090825Y-13479584D01*
X17090825Y-13479584D02*
X17081301Y-13460536D01*
X17081301Y-13460536D02*
X17062253Y-13451012D01*
X17062253Y-13451012D02*
X17033682Y-13451012D01*
X17033682Y-13451012D02*
X17014634Y-13460536D01*
X17014634Y-13460536D02*
X17005111Y-13470060D01*
X17214634Y-13584346D02*
X17195587Y-13574822D01*
X17195587Y-13574822D02*
X17186063Y-13565298D01*
X17186063Y-13565298D02*
X17176539Y-13546251D01*
X17176539Y-13546251D02*
X17176539Y-13489108D01*
X17176539Y-13489108D02*
X17186063Y-13470060D01*
X17186063Y-13470060D02*
X17195587Y-13460536D01*
X17195587Y-13460536D02*
X17214634Y-13451012D01*
X17214634Y-13451012D02*
X17243206Y-13451012D01*
X17243206Y-13451012D02*
X17262253Y-13460536D01*
X17262253Y-13460536D02*
X17271777Y-13470060D01*
X17271777Y-13470060D02*
X17281301Y-13489108D01*
X17281301Y-13489108D02*
X17281301Y-13546251D01*
X17281301Y-13546251D02*
X17271777Y-13565298D01*
X17271777Y-13565298D02*
X17262253Y-13574822D01*
X17262253Y-13574822D02*
X17243206Y-13584346D01*
X17243206Y-13584346D02*
X17214634Y-13584346D01*
X17395587Y-13584346D02*
X17376539Y-13574822D01*
X17376539Y-13574822D02*
X17367015Y-13555774D01*
X17367015Y-13555774D02*
X17367015Y-13384346D01*
X17547968Y-13574822D02*
X17528920Y-13584346D01*
X17528920Y-13584346D02*
X17490825Y-13584346D01*
X17490825Y-13584346D02*
X17471777Y-13574822D01*
X17471777Y-13574822D02*
X17462253Y-13555774D01*
X17462253Y-13555774D02*
X17462253Y-13479584D01*
X17462253Y-13479584D02*
X17471777Y-13460536D01*
X17471777Y-13460536D02*
X17490825Y-13451012D01*
X17490825Y-13451012D02*
X17528920Y-13451012D01*
X17528920Y-13451012D02*
X17547968Y-13460536D01*
X17547968Y-13460536D02*
X17557492Y-13479584D01*
X17557492Y-13479584D02*
X17557492Y-13498632D01*
X17557492Y-13498632D02*
X17462253Y-13517679D01*
X17633682Y-13574822D02*
X17652730Y-13584346D01*
X17652730Y-13584346D02*
X17690825Y-13584346D01*
X17690825Y-13584346D02*
X17709873Y-13574822D01*
X17709873Y-13574822D02*
X17719396Y-13555774D01*
X17719396Y-13555774D02*
X17719396Y-13546251D01*
X17719396Y-13546251D02*
X17709873Y-13527203D01*
X17709873Y-13527203D02*
X17690825Y-13517679D01*
X17690825Y-13517679D02*
X17662253Y-13517679D01*
X17662253Y-13517679D02*
X17643206Y-13508155D01*
X17643206Y-13508155D02*
X17633682Y-13489108D01*
X17633682Y-13489108D02*
X17633682Y-13479584D01*
X17633682Y-13479584D02*
X17643206Y-13460536D01*
X17643206Y-13460536D02*
X17662253Y-13451012D01*
X17662253Y-13451012D02*
X17690825Y-13451012D01*
X17690825Y-13451012D02*
X17709873Y-13460536D01*
X17786063Y-13660536D02*
X17795587Y-13651012D01*
X17795587Y-13651012D02*
X17814634Y-13622441D01*
X17814634Y-13622441D02*
X17824158Y-13603393D01*
X17824158Y-13603393D02*
X17833682Y-13574822D01*
X17833682Y-13574822D02*
X17843206Y-13527203D01*
X17843206Y-13527203D02*
X17843206Y-13489108D01*
X17843206Y-13489108D02*
X17833682Y-13441489D01*
X17833682Y-13441489D02*
X17824158Y-13412917D01*
X17824158Y-13412917D02*
X17814634Y-13393870D01*
X17814634Y-13393870D02*
X17795587Y-13365298D01*
X17795587Y-13365298D02*
X17786063Y-13355774D01*
D15*
X13000749Y-13781611D02*
X13000749Y-13732113D01*
X12951251Y-13732113D01*
X12951251Y-13781611D01*
X13000749Y-13781611D01*
D11*
X13309872Y-13648346D02*
X13328920Y-13648346D01*
X13328920Y-13648346D02*
X13347967Y-13657870D01*
X13347967Y-13657870D02*
X13357491Y-13667393D01*
X13357491Y-13667393D02*
X13367015Y-13686441D01*
X13367015Y-13686441D02*
X13376539Y-13724536D01*
X13376539Y-13724536D02*
X13376539Y-13772155D01*
X13376539Y-13772155D02*
X13367015Y-13810251D01*
X13367015Y-13810251D02*
X13357491Y-13829298D01*
X13357491Y-13829298D02*
X13347967Y-13838822D01*
X13347967Y-13838822D02*
X13328920Y-13848346D01*
X13328920Y-13848346D02*
X13309872Y-13848346D01*
X13309872Y-13848346D02*
X13290824Y-13838822D01*
X13290824Y-13838822D02*
X13281301Y-13829298D01*
X13281301Y-13829298D02*
X13271777Y-13810251D01*
X13271777Y-13810251D02*
X13262253Y-13772155D01*
X13262253Y-13772155D02*
X13262253Y-13724536D01*
X13262253Y-13724536D02*
X13271777Y-13686441D01*
X13271777Y-13686441D02*
X13281301Y-13667393D01*
X13281301Y-13667393D02*
X13290824Y-13657870D01*
X13290824Y-13657870D02*
X13309872Y-13648346D01*
X13462253Y-13829298D02*
X13471777Y-13838822D01*
X13471777Y-13838822D02*
X13462253Y-13848346D01*
X13462253Y-13848346D02*
X13452729Y-13838822D01*
X13452729Y-13838822D02*
X13462253Y-13829298D01*
X13462253Y-13829298D02*
X13462253Y-13848346D01*
X13538443Y-13648346D02*
X13671777Y-13648346D01*
X13671777Y-13648346D02*
X13586062Y-13848346D01*
X13786062Y-13648346D02*
X13805110Y-13648346D01*
X13805110Y-13648346D02*
X13824158Y-13657870D01*
X13824158Y-13657870D02*
X13833682Y-13667393D01*
X13833682Y-13667393D02*
X13843205Y-13686441D01*
X13843205Y-13686441D02*
X13852729Y-13724536D01*
X13852729Y-13724536D02*
X13852729Y-13772155D01*
X13852729Y-13772155D02*
X13843205Y-13810251D01*
X13843205Y-13810251D02*
X13833682Y-13829298D01*
X13833682Y-13829298D02*
X13824158Y-13838822D01*
X13824158Y-13838822D02*
X13805110Y-13848346D01*
X13805110Y-13848346D02*
X13786062Y-13848346D01*
X13786062Y-13848346D02*
X13767015Y-13838822D01*
X13767015Y-13838822D02*
X13757491Y-13829298D01*
X13757491Y-13829298D02*
X13747967Y-13810251D01*
X13747967Y-13810251D02*
X13738443Y-13772155D01*
X13738443Y-13772155D02*
X13738443Y-13724536D01*
X13738443Y-13724536D02*
X13747967Y-13686441D01*
X13747967Y-13686441D02*
X13757491Y-13667393D01*
X13757491Y-13667393D02*
X13767015Y-13657870D01*
X13767015Y-13657870D02*
X13786062Y-13648346D01*
X13976539Y-13648346D02*
X13995586Y-13648346D01*
X13995586Y-13648346D02*
X14014634Y-13657870D01*
X14014634Y-13657870D02*
X14024158Y-13667393D01*
X14024158Y-13667393D02*
X14033682Y-13686441D01*
X14033682Y-13686441D02*
X14043205Y-13724536D01*
X14043205Y-13724536D02*
X14043205Y-13772155D01*
X14043205Y-13772155D02*
X14033682Y-13810251D01*
X14033682Y-13810251D02*
X14024158Y-13829298D01*
X14024158Y-13829298D02*
X14014634Y-13838822D01*
X14014634Y-13838822D02*
X13995586Y-13848346D01*
X13995586Y-13848346D02*
X13976539Y-13848346D01*
X13976539Y-13848346D02*
X13957491Y-13838822D01*
X13957491Y-13838822D02*
X13947967Y-13829298D01*
X13947967Y-13829298D02*
X13938443Y-13810251D01*
X13938443Y-13810251D02*
X13928920Y-13772155D01*
X13928920Y-13772155D02*
X13928920Y-13724536D01*
X13928920Y-13724536D02*
X13938443Y-13686441D01*
X13938443Y-13686441D02*
X13947967Y-13667393D01*
X13947967Y-13667393D02*
X13957491Y-13657870D01*
X13957491Y-13657870D02*
X13976539Y-13648346D01*
X14128920Y-13848346D02*
X14128920Y-13715012D01*
X14128920Y-13734060D02*
X14138443Y-13724536D01*
X14138443Y-13724536D02*
X14157491Y-13715012D01*
X14157491Y-13715012D02*
X14186063Y-13715012D01*
X14186063Y-13715012D02*
X14205110Y-13724536D01*
X14205110Y-13724536D02*
X14214634Y-13743584D01*
X14214634Y-13743584D02*
X14214634Y-13848346D01*
X14214634Y-13743584D02*
X14224158Y-13724536D01*
X14224158Y-13724536D02*
X14243205Y-13715012D01*
X14243205Y-13715012D02*
X14271777Y-13715012D01*
X14271777Y-13715012D02*
X14290824Y-13724536D01*
X14290824Y-13724536D02*
X14300348Y-13743584D01*
X14300348Y-13743584D02*
X14300348Y-13848346D01*
X14395586Y-13848346D02*
X14395586Y-13715012D01*
X14395586Y-13734060D02*
X14405110Y-13724536D01*
X14405110Y-13724536D02*
X14424158Y-13715012D01*
X14424158Y-13715012D02*
X14452729Y-13715012D01*
X14452729Y-13715012D02*
X14471777Y-13724536D01*
X14471777Y-13724536D02*
X14481301Y-13743584D01*
X14481301Y-13743584D02*
X14481301Y-13848346D01*
X14481301Y-13743584D02*
X14490824Y-13724536D01*
X14490824Y-13724536D02*
X14509872Y-13715012D01*
X14509872Y-13715012D02*
X14538443Y-13715012D01*
X14538443Y-13715012D02*
X14557491Y-13724536D01*
X14557491Y-13724536D02*
X14567015Y-13743584D01*
X14567015Y-13743584D02*
X14567015Y-13848346D01*
X14957491Y-13638822D02*
X14786063Y-13895965D01*
X15214634Y-13648346D02*
X15233682Y-13648346D01*
X15233682Y-13648346D02*
X15252729Y-13657870D01*
X15252729Y-13657870D02*
X15262253Y-13667393D01*
X15262253Y-13667393D02*
X15271777Y-13686441D01*
X15271777Y-13686441D02*
X15281301Y-13724536D01*
X15281301Y-13724536D02*
X15281301Y-13772155D01*
X15281301Y-13772155D02*
X15271777Y-13810251D01*
X15271777Y-13810251D02*
X15262253Y-13829298D01*
X15262253Y-13829298D02*
X15252729Y-13838822D01*
X15252729Y-13838822D02*
X15233682Y-13848346D01*
X15233682Y-13848346D02*
X15214634Y-13848346D01*
X15214634Y-13848346D02*
X15195586Y-13838822D01*
X15195586Y-13838822D02*
X15186063Y-13829298D01*
X15186063Y-13829298D02*
X15176539Y-13810251D01*
X15176539Y-13810251D02*
X15167015Y-13772155D01*
X15167015Y-13772155D02*
X15167015Y-13724536D01*
X15167015Y-13724536D02*
X15176539Y-13686441D01*
X15176539Y-13686441D02*
X15186063Y-13667393D01*
X15186063Y-13667393D02*
X15195586Y-13657870D01*
X15195586Y-13657870D02*
X15214634Y-13648346D01*
X15367015Y-13829298D02*
X15376539Y-13838822D01*
X15376539Y-13838822D02*
X15367015Y-13848346D01*
X15367015Y-13848346D02*
X15357491Y-13838822D01*
X15357491Y-13838822D02*
X15367015Y-13829298D01*
X15367015Y-13829298D02*
X15367015Y-13848346D01*
X15500348Y-13648346D02*
X15519396Y-13648346D01*
X15519396Y-13648346D02*
X15538444Y-13657870D01*
X15538444Y-13657870D02*
X15547967Y-13667393D01*
X15547967Y-13667393D02*
X15557491Y-13686441D01*
X15557491Y-13686441D02*
X15567015Y-13724536D01*
X15567015Y-13724536D02*
X15567015Y-13772155D01*
X15567015Y-13772155D02*
X15557491Y-13810251D01*
X15557491Y-13810251D02*
X15547967Y-13829298D01*
X15547967Y-13829298D02*
X15538444Y-13838822D01*
X15538444Y-13838822D02*
X15519396Y-13848346D01*
X15519396Y-13848346D02*
X15500348Y-13848346D01*
X15500348Y-13848346D02*
X15481301Y-13838822D01*
X15481301Y-13838822D02*
X15471777Y-13829298D01*
X15471777Y-13829298D02*
X15462253Y-13810251D01*
X15462253Y-13810251D02*
X15452729Y-13772155D01*
X15452729Y-13772155D02*
X15452729Y-13724536D01*
X15452729Y-13724536D02*
X15462253Y-13686441D01*
X15462253Y-13686441D02*
X15471777Y-13667393D01*
X15471777Y-13667393D02*
X15481301Y-13657870D01*
X15481301Y-13657870D02*
X15500348Y-13648346D01*
X15643206Y-13667393D02*
X15652729Y-13657870D01*
X15652729Y-13657870D02*
X15671777Y-13648346D01*
X15671777Y-13648346D02*
X15719396Y-13648346D01*
X15719396Y-13648346D02*
X15738444Y-13657870D01*
X15738444Y-13657870D02*
X15747967Y-13667393D01*
X15747967Y-13667393D02*
X15757491Y-13686441D01*
X15757491Y-13686441D02*
X15757491Y-13705489D01*
X15757491Y-13705489D02*
X15747967Y-13734060D01*
X15747967Y-13734060D02*
X15633682Y-13848346D01*
X15633682Y-13848346D02*
X15757491Y-13848346D01*
X15824158Y-13648346D02*
X15957491Y-13648346D01*
X15957491Y-13648346D02*
X15871777Y-13848346D01*
X16119396Y-13648346D02*
X16081301Y-13648346D01*
X16081301Y-13648346D02*
X16062253Y-13657870D01*
X16062253Y-13657870D02*
X16052729Y-13667393D01*
X16052729Y-13667393D02*
X16033682Y-13695965D01*
X16033682Y-13695965D02*
X16024158Y-13734060D01*
X16024158Y-13734060D02*
X16024158Y-13810251D01*
X16024158Y-13810251D02*
X16033682Y-13829298D01*
X16033682Y-13829298D02*
X16043206Y-13838822D01*
X16043206Y-13838822D02*
X16062253Y-13848346D01*
X16062253Y-13848346D02*
X16100348Y-13848346D01*
X16100348Y-13848346D02*
X16119396Y-13838822D01*
X16119396Y-13838822D02*
X16128920Y-13829298D01*
X16128920Y-13829298D02*
X16138444Y-13810251D01*
X16138444Y-13810251D02*
X16138444Y-13762632D01*
X16138444Y-13762632D02*
X16128920Y-13743584D01*
X16128920Y-13743584D02*
X16119396Y-13734060D01*
X16119396Y-13734060D02*
X16100348Y-13724536D01*
X16100348Y-13724536D02*
X16062253Y-13724536D01*
X16062253Y-13724536D02*
X16043206Y-13734060D01*
X16043206Y-13734060D02*
X16033682Y-13743584D01*
X16033682Y-13743584D02*
X16024158Y-13762632D01*
X16214634Y-13648346D02*
X16214634Y-13686441D01*
X16290825Y-13648346D02*
X16290825Y-13686441D01*
X16586063Y-13924536D02*
X16576539Y-13915012D01*
X16576539Y-13915012D02*
X16557491Y-13886441D01*
X16557491Y-13886441D02*
X16547968Y-13867393D01*
X16547968Y-13867393D02*
X16538444Y-13838822D01*
X16538444Y-13838822D02*
X16528920Y-13791203D01*
X16528920Y-13791203D02*
X16528920Y-13753108D01*
X16528920Y-13753108D02*
X16538444Y-13705489D01*
X16538444Y-13705489D02*
X16547968Y-13676917D01*
X16547968Y-13676917D02*
X16557491Y-13657870D01*
X16557491Y-13657870D02*
X16576539Y-13629298D01*
X16576539Y-13629298D02*
X16586063Y-13619774D01*
X16700348Y-13648346D02*
X16719396Y-13648346D01*
X16719396Y-13648346D02*
X16738444Y-13657870D01*
X16738444Y-13657870D02*
X16747968Y-13667393D01*
X16747968Y-13667393D02*
X16757491Y-13686441D01*
X16757491Y-13686441D02*
X16767015Y-13724536D01*
X16767015Y-13724536D02*
X16767015Y-13772155D01*
X16767015Y-13772155D02*
X16757491Y-13810251D01*
X16757491Y-13810251D02*
X16747968Y-13829298D01*
X16747968Y-13829298D02*
X16738444Y-13838822D01*
X16738444Y-13838822D02*
X16719396Y-13848346D01*
X16719396Y-13848346D02*
X16700348Y-13848346D01*
X16700348Y-13848346D02*
X16681301Y-13838822D01*
X16681301Y-13838822D02*
X16671777Y-13829298D01*
X16671777Y-13829298D02*
X16662253Y-13810251D01*
X16662253Y-13810251D02*
X16652729Y-13772155D01*
X16652729Y-13772155D02*
X16652729Y-13724536D01*
X16652729Y-13724536D02*
X16662253Y-13686441D01*
X16662253Y-13686441D02*
X16671777Y-13667393D01*
X16671777Y-13667393D02*
X16681301Y-13657870D01*
X16681301Y-13657870D02*
X16700348Y-13648346D01*
X17005111Y-13848346D02*
X17005111Y-13648346D01*
X17090825Y-13848346D02*
X17090825Y-13743584D01*
X17090825Y-13743584D02*
X17081301Y-13724536D01*
X17081301Y-13724536D02*
X17062253Y-13715012D01*
X17062253Y-13715012D02*
X17033682Y-13715012D01*
X17033682Y-13715012D02*
X17014634Y-13724536D01*
X17014634Y-13724536D02*
X17005111Y-13734060D01*
X17214634Y-13848346D02*
X17195587Y-13838822D01*
X17195587Y-13838822D02*
X17186063Y-13829298D01*
X17186063Y-13829298D02*
X17176539Y-13810251D01*
X17176539Y-13810251D02*
X17176539Y-13753108D01*
X17176539Y-13753108D02*
X17186063Y-13734060D01*
X17186063Y-13734060D02*
X17195587Y-13724536D01*
X17195587Y-13724536D02*
X17214634Y-13715012D01*
X17214634Y-13715012D02*
X17243206Y-13715012D01*
X17243206Y-13715012D02*
X17262253Y-13724536D01*
X17262253Y-13724536D02*
X17271777Y-13734060D01*
X17271777Y-13734060D02*
X17281301Y-13753108D01*
X17281301Y-13753108D02*
X17281301Y-13810251D01*
X17281301Y-13810251D02*
X17271777Y-13829298D01*
X17271777Y-13829298D02*
X17262253Y-13838822D01*
X17262253Y-13838822D02*
X17243206Y-13848346D01*
X17243206Y-13848346D02*
X17214634Y-13848346D01*
X17395587Y-13848346D02*
X17376539Y-13838822D01*
X17376539Y-13838822D02*
X17367015Y-13819774D01*
X17367015Y-13819774D02*
X17367015Y-13648346D01*
X17547968Y-13838822D02*
X17528920Y-13848346D01*
X17528920Y-13848346D02*
X17490825Y-13848346D01*
X17490825Y-13848346D02*
X17471777Y-13838822D01*
X17471777Y-13838822D02*
X17462253Y-13819774D01*
X17462253Y-13819774D02*
X17462253Y-13743584D01*
X17462253Y-13743584D02*
X17471777Y-13724536D01*
X17471777Y-13724536D02*
X17490825Y-13715012D01*
X17490825Y-13715012D02*
X17528920Y-13715012D01*
X17528920Y-13715012D02*
X17547968Y-13724536D01*
X17547968Y-13724536D02*
X17557492Y-13743584D01*
X17557492Y-13743584D02*
X17557492Y-13762632D01*
X17557492Y-13762632D02*
X17462253Y-13781679D01*
X17633682Y-13838822D02*
X17652730Y-13848346D01*
X17652730Y-13848346D02*
X17690825Y-13848346D01*
X17690825Y-13848346D02*
X17709873Y-13838822D01*
X17709873Y-13838822D02*
X17719396Y-13819774D01*
X17719396Y-13819774D02*
X17719396Y-13810251D01*
X17719396Y-13810251D02*
X17709873Y-13791203D01*
X17709873Y-13791203D02*
X17690825Y-13781679D01*
X17690825Y-13781679D02*
X17662253Y-13781679D01*
X17662253Y-13781679D02*
X17643206Y-13772155D01*
X17643206Y-13772155D02*
X17633682Y-13753108D01*
X17633682Y-13753108D02*
X17633682Y-13743584D01*
X17633682Y-13743584D02*
X17643206Y-13724536D01*
X17643206Y-13724536D02*
X17662253Y-13715012D01*
X17662253Y-13715012D02*
X17690825Y-13715012D01*
X17690825Y-13715012D02*
X17709873Y-13724536D01*
X17957492Y-13772155D02*
X18109873Y-13772155D01*
X18033682Y-13848346D02*
X18033682Y-13695965D01*
X18443206Y-13715012D02*
X18443206Y-13848346D01*
X18395587Y-13638822D02*
X18347968Y-13781679D01*
X18347968Y-13781679D02*
X18471777Y-13781679D01*
X18690825Y-13838822D02*
X18709873Y-13848346D01*
X18709873Y-13848346D02*
X18747968Y-13848346D01*
X18747968Y-13848346D02*
X18767016Y-13838822D01*
X18767016Y-13838822D02*
X18776539Y-13819774D01*
X18776539Y-13819774D02*
X18776539Y-13810251D01*
X18776539Y-13810251D02*
X18767016Y-13791203D01*
X18767016Y-13791203D02*
X18747968Y-13781679D01*
X18747968Y-13781679D02*
X18719396Y-13781679D01*
X18719396Y-13781679D02*
X18700349Y-13772155D01*
X18700349Y-13772155D02*
X18690825Y-13753108D01*
X18690825Y-13753108D02*
X18690825Y-13743584D01*
X18690825Y-13743584D02*
X18700349Y-13724536D01*
X18700349Y-13724536D02*
X18719396Y-13715012D01*
X18719396Y-13715012D02*
X18747968Y-13715012D01*
X18747968Y-13715012D02*
X18767016Y-13724536D01*
X18890825Y-13848346D02*
X18871777Y-13838822D01*
X18871777Y-13838822D02*
X18862254Y-13819774D01*
X18862254Y-13819774D02*
X18862254Y-13648346D01*
X18995587Y-13848346D02*
X18976539Y-13838822D01*
X18976539Y-13838822D02*
X18967016Y-13829298D01*
X18967016Y-13829298D02*
X18957492Y-13810251D01*
X18957492Y-13810251D02*
X18957492Y-13753108D01*
X18957492Y-13753108D02*
X18967016Y-13734060D01*
X18967016Y-13734060D02*
X18976539Y-13724536D01*
X18976539Y-13724536D02*
X18995587Y-13715012D01*
X18995587Y-13715012D02*
X19024158Y-13715012D01*
X19024158Y-13715012D02*
X19043206Y-13724536D01*
X19043206Y-13724536D02*
X19052730Y-13734060D01*
X19052730Y-13734060D02*
X19062254Y-13753108D01*
X19062254Y-13753108D02*
X19062254Y-13810251D01*
X19062254Y-13810251D02*
X19052730Y-13829298D01*
X19052730Y-13829298D02*
X19043206Y-13838822D01*
X19043206Y-13838822D02*
X19024158Y-13848346D01*
X19024158Y-13848346D02*
X18995587Y-13848346D01*
X19119397Y-13715012D02*
X19195587Y-13715012D01*
X19147968Y-13648346D02*
X19147968Y-13819774D01*
X19147968Y-13819774D02*
X19157492Y-13838822D01*
X19157492Y-13838822D02*
X19176539Y-13848346D01*
X19176539Y-13848346D02*
X19195587Y-13848346D01*
X19252730Y-13838822D02*
X19271777Y-13848346D01*
X19271777Y-13848346D02*
X19309873Y-13848346D01*
X19309873Y-13848346D02*
X19328920Y-13838822D01*
X19328920Y-13838822D02*
X19338444Y-13819774D01*
X19338444Y-13819774D02*
X19338444Y-13810251D01*
X19338444Y-13810251D02*
X19328920Y-13791203D01*
X19328920Y-13791203D02*
X19309873Y-13781679D01*
X19309873Y-13781679D02*
X19281301Y-13781679D01*
X19281301Y-13781679D02*
X19262254Y-13772155D01*
X19262254Y-13772155D02*
X19252730Y-13753108D01*
X19252730Y-13753108D02*
X19252730Y-13743584D01*
X19252730Y-13743584D02*
X19262254Y-13724536D01*
X19262254Y-13724536D02*
X19281301Y-13715012D01*
X19281301Y-13715012D02*
X19309873Y-13715012D01*
X19309873Y-13715012D02*
X19328920Y-13724536D01*
X19405111Y-13924536D02*
X19414635Y-13915012D01*
X19414635Y-13915012D02*
X19433682Y-13886441D01*
X19433682Y-13886441D02*
X19443206Y-13867393D01*
X19443206Y-13867393D02*
X19452730Y-13838822D01*
X19452730Y-13838822D02*
X19462254Y-13791203D01*
X19462254Y-13791203D02*
X19462254Y-13753108D01*
X19462254Y-13753108D02*
X19452730Y-13705489D01*
X19452730Y-13705489D02*
X19443206Y-13676917D01*
X19443206Y-13676917D02*
X19433682Y-13657870D01*
X19433682Y-13657870D02*
X19414635Y-13629298D01*
X19414635Y-13629298D02*
X19405111Y-13619774D01*
D16*
X12971000Y-14060862D02*
X13011000Y-14020862D01*
X12971000Y-13980862D01*
X12931000Y-14020862D01*
X12971000Y-14060862D01*
D11*
X13309872Y-13912346D02*
X13328920Y-13912346D01*
X13328920Y-13912346D02*
X13347967Y-13921870D01*
X13347967Y-13921870D02*
X13357491Y-13931393D01*
X13357491Y-13931393D02*
X13367015Y-13950441D01*
X13367015Y-13950441D02*
X13376539Y-13988536D01*
X13376539Y-13988536D02*
X13376539Y-14036155D01*
X13376539Y-14036155D02*
X13367015Y-14074251D01*
X13367015Y-14074251D02*
X13357491Y-14093298D01*
X13357491Y-14093298D02*
X13347967Y-14102822D01*
X13347967Y-14102822D02*
X13328920Y-14112346D01*
X13328920Y-14112346D02*
X13309872Y-14112346D01*
X13309872Y-14112346D02*
X13290824Y-14102822D01*
X13290824Y-14102822D02*
X13281301Y-14093298D01*
X13281301Y-14093298D02*
X13271777Y-14074251D01*
X13271777Y-14074251D02*
X13262253Y-14036155D01*
X13262253Y-14036155D02*
X13262253Y-13988536D01*
X13262253Y-13988536D02*
X13271777Y-13950441D01*
X13271777Y-13950441D02*
X13281301Y-13931393D01*
X13281301Y-13931393D02*
X13290824Y-13921870D01*
X13290824Y-13921870D02*
X13309872Y-13912346D01*
X13462253Y-14093298D02*
X13471777Y-14102822D01*
X13471777Y-14102822D02*
X13462253Y-14112346D01*
X13462253Y-14112346D02*
X13452729Y-14102822D01*
X13452729Y-14102822D02*
X13462253Y-14093298D01*
X13462253Y-14093298D02*
X13462253Y-14112346D01*
X13586062Y-13998060D02*
X13567015Y-13988536D01*
X13567015Y-13988536D02*
X13557491Y-13979012D01*
X13557491Y-13979012D02*
X13547967Y-13959965D01*
X13547967Y-13959965D02*
X13547967Y-13950441D01*
X13547967Y-13950441D02*
X13557491Y-13931393D01*
X13557491Y-13931393D02*
X13567015Y-13921870D01*
X13567015Y-13921870D02*
X13586062Y-13912346D01*
X13586062Y-13912346D02*
X13624158Y-13912346D01*
X13624158Y-13912346D02*
X13643205Y-13921870D01*
X13643205Y-13921870D02*
X13652729Y-13931393D01*
X13652729Y-13931393D02*
X13662253Y-13950441D01*
X13662253Y-13950441D02*
X13662253Y-13959965D01*
X13662253Y-13959965D02*
X13652729Y-13979012D01*
X13652729Y-13979012D02*
X13643205Y-13988536D01*
X13643205Y-13988536D02*
X13624158Y-13998060D01*
X13624158Y-13998060D02*
X13586062Y-13998060D01*
X13586062Y-13998060D02*
X13567015Y-14007584D01*
X13567015Y-14007584D02*
X13557491Y-14017108D01*
X13557491Y-14017108D02*
X13547967Y-14036155D01*
X13547967Y-14036155D02*
X13547967Y-14074251D01*
X13547967Y-14074251D02*
X13557491Y-14093298D01*
X13557491Y-14093298D02*
X13567015Y-14102822D01*
X13567015Y-14102822D02*
X13586062Y-14112346D01*
X13586062Y-14112346D02*
X13624158Y-14112346D01*
X13624158Y-14112346D02*
X13643205Y-14102822D01*
X13643205Y-14102822D02*
X13652729Y-14093298D01*
X13652729Y-14093298D02*
X13662253Y-14074251D01*
X13662253Y-14074251D02*
X13662253Y-14036155D01*
X13662253Y-14036155D02*
X13652729Y-14017108D01*
X13652729Y-14017108D02*
X13643205Y-14007584D01*
X13643205Y-14007584D02*
X13624158Y-13998060D01*
X13786062Y-13912346D02*
X13805110Y-13912346D01*
X13805110Y-13912346D02*
X13824158Y-13921870D01*
X13824158Y-13921870D02*
X13833682Y-13931393D01*
X13833682Y-13931393D02*
X13843205Y-13950441D01*
X13843205Y-13950441D02*
X13852729Y-13988536D01*
X13852729Y-13988536D02*
X13852729Y-14036155D01*
X13852729Y-14036155D02*
X13843205Y-14074251D01*
X13843205Y-14074251D02*
X13833682Y-14093298D01*
X13833682Y-14093298D02*
X13824158Y-14102822D01*
X13824158Y-14102822D02*
X13805110Y-14112346D01*
X13805110Y-14112346D02*
X13786062Y-14112346D01*
X13786062Y-14112346D02*
X13767015Y-14102822D01*
X13767015Y-14102822D02*
X13757491Y-14093298D01*
X13757491Y-14093298D02*
X13747967Y-14074251D01*
X13747967Y-14074251D02*
X13738443Y-14036155D01*
X13738443Y-14036155D02*
X13738443Y-13988536D01*
X13738443Y-13988536D02*
X13747967Y-13950441D01*
X13747967Y-13950441D02*
X13757491Y-13931393D01*
X13757491Y-13931393D02*
X13767015Y-13921870D01*
X13767015Y-13921870D02*
X13786062Y-13912346D01*
X13976539Y-13912346D02*
X13995586Y-13912346D01*
X13995586Y-13912346D02*
X14014634Y-13921870D01*
X14014634Y-13921870D02*
X14024158Y-13931393D01*
X14024158Y-13931393D02*
X14033682Y-13950441D01*
X14033682Y-13950441D02*
X14043205Y-13988536D01*
X14043205Y-13988536D02*
X14043205Y-14036155D01*
X14043205Y-14036155D02*
X14033682Y-14074251D01*
X14033682Y-14074251D02*
X14024158Y-14093298D01*
X14024158Y-14093298D02*
X14014634Y-14102822D01*
X14014634Y-14102822D02*
X13995586Y-14112346D01*
X13995586Y-14112346D02*
X13976539Y-14112346D01*
X13976539Y-14112346D02*
X13957491Y-14102822D01*
X13957491Y-14102822D02*
X13947967Y-14093298D01*
X13947967Y-14093298D02*
X13938443Y-14074251D01*
X13938443Y-14074251D02*
X13928920Y-14036155D01*
X13928920Y-14036155D02*
X13928920Y-13988536D01*
X13928920Y-13988536D02*
X13938443Y-13950441D01*
X13938443Y-13950441D02*
X13947967Y-13931393D01*
X13947967Y-13931393D02*
X13957491Y-13921870D01*
X13957491Y-13921870D02*
X13976539Y-13912346D01*
X14128920Y-14112346D02*
X14128920Y-13979012D01*
X14128920Y-13998060D02*
X14138443Y-13988536D01*
X14138443Y-13988536D02*
X14157491Y-13979012D01*
X14157491Y-13979012D02*
X14186063Y-13979012D01*
X14186063Y-13979012D02*
X14205110Y-13988536D01*
X14205110Y-13988536D02*
X14214634Y-14007584D01*
X14214634Y-14007584D02*
X14214634Y-14112346D01*
X14214634Y-14007584D02*
X14224158Y-13988536D01*
X14224158Y-13988536D02*
X14243205Y-13979012D01*
X14243205Y-13979012D02*
X14271777Y-13979012D01*
X14271777Y-13979012D02*
X14290824Y-13988536D01*
X14290824Y-13988536D02*
X14300348Y-14007584D01*
X14300348Y-14007584D02*
X14300348Y-14112346D01*
X14395586Y-14112346D02*
X14395586Y-13979012D01*
X14395586Y-13998060D02*
X14405110Y-13988536D01*
X14405110Y-13988536D02*
X14424158Y-13979012D01*
X14424158Y-13979012D02*
X14452729Y-13979012D01*
X14452729Y-13979012D02*
X14471777Y-13988536D01*
X14471777Y-13988536D02*
X14481301Y-14007584D01*
X14481301Y-14007584D02*
X14481301Y-14112346D01*
X14481301Y-14007584D02*
X14490824Y-13988536D01*
X14490824Y-13988536D02*
X14509872Y-13979012D01*
X14509872Y-13979012D02*
X14538443Y-13979012D01*
X14538443Y-13979012D02*
X14557491Y-13988536D01*
X14557491Y-13988536D02*
X14567015Y-14007584D01*
X14567015Y-14007584D02*
X14567015Y-14112346D01*
X14957491Y-13902822D02*
X14786063Y-14159965D01*
X15214634Y-13912346D02*
X15233682Y-13912346D01*
X15233682Y-13912346D02*
X15252729Y-13921870D01*
X15252729Y-13921870D02*
X15262253Y-13931393D01*
X15262253Y-13931393D02*
X15271777Y-13950441D01*
X15271777Y-13950441D02*
X15281301Y-13988536D01*
X15281301Y-13988536D02*
X15281301Y-14036155D01*
X15281301Y-14036155D02*
X15271777Y-14074251D01*
X15271777Y-14074251D02*
X15262253Y-14093298D01*
X15262253Y-14093298D02*
X15252729Y-14102822D01*
X15252729Y-14102822D02*
X15233682Y-14112346D01*
X15233682Y-14112346D02*
X15214634Y-14112346D01*
X15214634Y-14112346D02*
X15195586Y-14102822D01*
X15195586Y-14102822D02*
X15186063Y-14093298D01*
X15186063Y-14093298D02*
X15176539Y-14074251D01*
X15176539Y-14074251D02*
X15167015Y-14036155D01*
X15167015Y-14036155D02*
X15167015Y-13988536D01*
X15167015Y-13988536D02*
X15176539Y-13950441D01*
X15176539Y-13950441D02*
X15186063Y-13931393D01*
X15186063Y-13931393D02*
X15195586Y-13921870D01*
X15195586Y-13921870D02*
X15214634Y-13912346D01*
X15367015Y-14093298D02*
X15376539Y-14102822D01*
X15376539Y-14102822D02*
X15367015Y-14112346D01*
X15367015Y-14112346D02*
X15357491Y-14102822D01*
X15357491Y-14102822D02*
X15367015Y-14093298D01*
X15367015Y-14093298D02*
X15367015Y-14112346D01*
X15500348Y-13912346D02*
X15519396Y-13912346D01*
X15519396Y-13912346D02*
X15538444Y-13921870D01*
X15538444Y-13921870D02*
X15547967Y-13931393D01*
X15547967Y-13931393D02*
X15557491Y-13950441D01*
X15557491Y-13950441D02*
X15567015Y-13988536D01*
X15567015Y-13988536D02*
X15567015Y-14036155D01*
X15567015Y-14036155D02*
X15557491Y-14074251D01*
X15557491Y-14074251D02*
X15547967Y-14093298D01*
X15547967Y-14093298D02*
X15538444Y-14102822D01*
X15538444Y-14102822D02*
X15519396Y-14112346D01*
X15519396Y-14112346D02*
X15500348Y-14112346D01*
X15500348Y-14112346D02*
X15481301Y-14102822D01*
X15481301Y-14102822D02*
X15471777Y-14093298D01*
X15471777Y-14093298D02*
X15462253Y-14074251D01*
X15462253Y-14074251D02*
X15452729Y-14036155D01*
X15452729Y-14036155D02*
X15452729Y-13988536D01*
X15452729Y-13988536D02*
X15462253Y-13950441D01*
X15462253Y-13950441D02*
X15471777Y-13931393D01*
X15471777Y-13931393D02*
X15481301Y-13921870D01*
X15481301Y-13921870D02*
X15500348Y-13912346D01*
X15633682Y-13912346D02*
X15757491Y-13912346D01*
X15757491Y-13912346D02*
X15690825Y-13988536D01*
X15690825Y-13988536D02*
X15719396Y-13988536D01*
X15719396Y-13988536D02*
X15738444Y-13998060D01*
X15738444Y-13998060D02*
X15747967Y-14007584D01*
X15747967Y-14007584D02*
X15757491Y-14026632D01*
X15757491Y-14026632D02*
X15757491Y-14074251D01*
X15757491Y-14074251D02*
X15747967Y-14093298D01*
X15747967Y-14093298D02*
X15738444Y-14102822D01*
X15738444Y-14102822D02*
X15719396Y-14112346D01*
X15719396Y-14112346D02*
X15662253Y-14112346D01*
X15662253Y-14112346D02*
X15643206Y-14102822D01*
X15643206Y-14102822D02*
X15633682Y-14093298D01*
X15947967Y-14112346D02*
X15833682Y-14112346D01*
X15890825Y-14112346D02*
X15890825Y-13912346D01*
X15890825Y-13912346D02*
X15871777Y-13940917D01*
X15871777Y-13940917D02*
X15852729Y-13959965D01*
X15852729Y-13959965D02*
X15833682Y-13969489D01*
X16128920Y-13912346D02*
X16033682Y-13912346D01*
X16033682Y-13912346D02*
X16024158Y-14007584D01*
X16024158Y-14007584D02*
X16033682Y-13998060D01*
X16033682Y-13998060D02*
X16052729Y-13988536D01*
X16052729Y-13988536D02*
X16100348Y-13988536D01*
X16100348Y-13988536D02*
X16119396Y-13998060D01*
X16119396Y-13998060D02*
X16128920Y-14007584D01*
X16128920Y-14007584D02*
X16138444Y-14026632D01*
X16138444Y-14026632D02*
X16138444Y-14074251D01*
X16138444Y-14074251D02*
X16128920Y-14093298D01*
X16128920Y-14093298D02*
X16119396Y-14102822D01*
X16119396Y-14102822D02*
X16100348Y-14112346D01*
X16100348Y-14112346D02*
X16052729Y-14112346D01*
X16052729Y-14112346D02*
X16033682Y-14102822D01*
X16033682Y-14102822D02*
X16024158Y-14093298D01*
X16214634Y-13912346D02*
X16214634Y-13950441D01*
X16290825Y-13912346D02*
X16290825Y-13950441D01*
X16586063Y-14188536D02*
X16576539Y-14179012D01*
X16576539Y-14179012D02*
X16557491Y-14150441D01*
X16557491Y-14150441D02*
X16547968Y-14131393D01*
X16547968Y-14131393D02*
X16538444Y-14102822D01*
X16538444Y-14102822D02*
X16528920Y-14055203D01*
X16528920Y-14055203D02*
X16528920Y-14017108D01*
X16528920Y-14017108D02*
X16538444Y-13969489D01*
X16538444Y-13969489D02*
X16547968Y-13940917D01*
X16547968Y-13940917D02*
X16557491Y-13921870D01*
X16557491Y-13921870D02*
X16576539Y-13893298D01*
X16576539Y-13893298D02*
X16586063Y-13883774D01*
X16767015Y-14112346D02*
X16652729Y-14112346D01*
X16709872Y-14112346D02*
X16709872Y-13912346D01*
X16709872Y-13912346D02*
X16690825Y-13940917D01*
X16690825Y-13940917D02*
X16671777Y-13959965D01*
X16671777Y-13959965D02*
X16652729Y-13969489D01*
X16938444Y-13979012D02*
X16938444Y-14112346D01*
X16890825Y-13902822D02*
X16843206Y-14045679D01*
X16843206Y-14045679D02*
X16967015Y-14045679D01*
X17195587Y-14112346D02*
X17195587Y-13912346D01*
X17281301Y-14112346D02*
X17281301Y-14007584D01*
X17281301Y-14007584D02*
X17271777Y-13988536D01*
X17271777Y-13988536D02*
X17252730Y-13979012D01*
X17252730Y-13979012D02*
X17224158Y-13979012D01*
X17224158Y-13979012D02*
X17205111Y-13988536D01*
X17205111Y-13988536D02*
X17195587Y-13998060D01*
X17405111Y-14112346D02*
X17386063Y-14102822D01*
X17386063Y-14102822D02*
X17376539Y-14093298D01*
X17376539Y-14093298D02*
X17367015Y-14074251D01*
X17367015Y-14074251D02*
X17367015Y-14017108D01*
X17367015Y-14017108D02*
X17376539Y-13998060D01*
X17376539Y-13998060D02*
X17386063Y-13988536D01*
X17386063Y-13988536D02*
X17405111Y-13979012D01*
X17405111Y-13979012D02*
X17433682Y-13979012D01*
X17433682Y-13979012D02*
X17452730Y-13988536D01*
X17452730Y-13988536D02*
X17462253Y-13998060D01*
X17462253Y-13998060D02*
X17471777Y-14017108D01*
X17471777Y-14017108D02*
X17471777Y-14074251D01*
X17471777Y-14074251D02*
X17462253Y-14093298D01*
X17462253Y-14093298D02*
X17452730Y-14102822D01*
X17452730Y-14102822D02*
X17433682Y-14112346D01*
X17433682Y-14112346D02*
X17405111Y-14112346D01*
X17586063Y-14112346D02*
X17567015Y-14102822D01*
X17567015Y-14102822D02*
X17557492Y-14083774D01*
X17557492Y-14083774D02*
X17557492Y-13912346D01*
X17738444Y-14102822D02*
X17719396Y-14112346D01*
X17719396Y-14112346D02*
X17681301Y-14112346D01*
X17681301Y-14112346D02*
X17662253Y-14102822D01*
X17662253Y-14102822D02*
X17652730Y-14083774D01*
X17652730Y-14083774D02*
X17652730Y-14007584D01*
X17652730Y-14007584D02*
X17662253Y-13988536D01*
X17662253Y-13988536D02*
X17681301Y-13979012D01*
X17681301Y-13979012D02*
X17719396Y-13979012D01*
X17719396Y-13979012D02*
X17738444Y-13988536D01*
X17738444Y-13988536D02*
X17747968Y-14007584D01*
X17747968Y-14007584D02*
X17747968Y-14026632D01*
X17747968Y-14026632D02*
X17652730Y-14045679D01*
X17824158Y-14102822D02*
X17843206Y-14112346D01*
X17843206Y-14112346D02*
X17881301Y-14112346D01*
X17881301Y-14112346D02*
X17900349Y-14102822D01*
X17900349Y-14102822D02*
X17909873Y-14083774D01*
X17909873Y-14083774D02*
X17909873Y-14074251D01*
X17909873Y-14074251D02*
X17900349Y-14055203D01*
X17900349Y-14055203D02*
X17881301Y-14045679D01*
X17881301Y-14045679D02*
X17852730Y-14045679D01*
X17852730Y-14045679D02*
X17833682Y-14036155D01*
X17833682Y-14036155D02*
X17824158Y-14017108D01*
X17824158Y-14017108D02*
X17824158Y-14007584D01*
X17824158Y-14007584D02*
X17833682Y-13988536D01*
X17833682Y-13988536D02*
X17852730Y-13979012D01*
X17852730Y-13979012D02*
X17881301Y-13979012D01*
X17881301Y-13979012D02*
X17900349Y-13988536D01*
X17976539Y-14188536D02*
X17986063Y-14179012D01*
X17986063Y-14179012D02*
X18005111Y-14150441D01*
X18005111Y-14150441D02*
X18014634Y-14131393D01*
X18014634Y-14131393D02*
X18024158Y-14102822D01*
X18024158Y-14102822D02*
X18033682Y-14055203D01*
X18033682Y-14055203D02*
X18033682Y-14017108D01*
X18033682Y-14017108D02*
X18024158Y-13969489D01*
X18024158Y-13969489D02*
X18014634Y-13940917D01*
X18014634Y-13940917D02*
X18005111Y-13921870D01*
X18005111Y-13921870D02*
X17986063Y-13893298D01*
X17986063Y-13893298D02*
X17976539Y-13883774D01*
D10*
X12911000Y-14234862D02*
X13011000Y-14334862D01*
X13011000Y-14234862D02*
X12911000Y-14334862D01*
X13011000Y-14284862D02*
G75*
G03*
X13011000Y-14284862I-50000J0D01*
G01*
D11*
X13376539Y-14376346D02*
X13262253Y-14376346D01*
X13319396Y-14376346D02*
X13319396Y-14176346D01*
X13319396Y-14176346D02*
X13300348Y-14204917D01*
X13300348Y-14204917D02*
X13281301Y-14223965D01*
X13281301Y-14223965D02*
X13262253Y-14233489D01*
X13462253Y-14357298D02*
X13471777Y-14366822D01*
X13471777Y-14366822D02*
X13462253Y-14376346D01*
X13462253Y-14376346D02*
X13452729Y-14366822D01*
X13452729Y-14366822D02*
X13462253Y-14357298D01*
X13462253Y-14357298D02*
X13462253Y-14376346D01*
X13595586Y-14176346D02*
X13614634Y-14176346D01*
X13614634Y-14176346D02*
X13633682Y-14185870D01*
X13633682Y-14185870D02*
X13643205Y-14195393D01*
X13643205Y-14195393D02*
X13652729Y-14214441D01*
X13652729Y-14214441D02*
X13662253Y-14252536D01*
X13662253Y-14252536D02*
X13662253Y-14300155D01*
X13662253Y-14300155D02*
X13652729Y-14338251D01*
X13652729Y-14338251D02*
X13643205Y-14357298D01*
X13643205Y-14357298D02*
X13633682Y-14366822D01*
X13633682Y-14366822D02*
X13614634Y-14376346D01*
X13614634Y-14376346D02*
X13595586Y-14376346D01*
X13595586Y-14376346D02*
X13576539Y-14366822D01*
X13576539Y-14366822D02*
X13567015Y-14357298D01*
X13567015Y-14357298D02*
X13557491Y-14338251D01*
X13557491Y-14338251D02*
X13547967Y-14300155D01*
X13547967Y-14300155D02*
X13547967Y-14252536D01*
X13547967Y-14252536D02*
X13557491Y-14214441D01*
X13557491Y-14214441D02*
X13567015Y-14195393D01*
X13567015Y-14195393D02*
X13576539Y-14185870D01*
X13576539Y-14185870D02*
X13595586Y-14176346D01*
X13786062Y-14176346D02*
X13805110Y-14176346D01*
X13805110Y-14176346D02*
X13824158Y-14185870D01*
X13824158Y-14185870D02*
X13833682Y-14195393D01*
X13833682Y-14195393D02*
X13843205Y-14214441D01*
X13843205Y-14214441D02*
X13852729Y-14252536D01*
X13852729Y-14252536D02*
X13852729Y-14300155D01*
X13852729Y-14300155D02*
X13843205Y-14338251D01*
X13843205Y-14338251D02*
X13833682Y-14357298D01*
X13833682Y-14357298D02*
X13824158Y-14366822D01*
X13824158Y-14366822D02*
X13805110Y-14376346D01*
X13805110Y-14376346D02*
X13786062Y-14376346D01*
X13786062Y-14376346D02*
X13767015Y-14366822D01*
X13767015Y-14366822D02*
X13757491Y-14357298D01*
X13757491Y-14357298D02*
X13747967Y-14338251D01*
X13747967Y-14338251D02*
X13738443Y-14300155D01*
X13738443Y-14300155D02*
X13738443Y-14252536D01*
X13738443Y-14252536D02*
X13747967Y-14214441D01*
X13747967Y-14214441D02*
X13757491Y-14195393D01*
X13757491Y-14195393D02*
X13767015Y-14185870D01*
X13767015Y-14185870D02*
X13786062Y-14176346D01*
X13976539Y-14176346D02*
X13995586Y-14176346D01*
X13995586Y-14176346D02*
X14014634Y-14185870D01*
X14014634Y-14185870D02*
X14024158Y-14195393D01*
X14024158Y-14195393D02*
X14033682Y-14214441D01*
X14033682Y-14214441D02*
X14043205Y-14252536D01*
X14043205Y-14252536D02*
X14043205Y-14300155D01*
X14043205Y-14300155D02*
X14033682Y-14338251D01*
X14033682Y-14338251D02*
X14024158Y-14357298D01*
X14024158Y-14357298D02*
X14014634Y-14366822D01*
X14014634Y-14366822D02*
X13995586Y-14376346D01*
X13995586Y-14376346D02*
X13976539Y-14376346D01*
X13976539Y-14376346D02*
X13957491Y-14366822D01*
X13957491Y-14366822D02*
X13947967Y-14357298D01*
X13947967Y-14357298D02*
X13938443Y-14338251D01*
X13938443Y-14338251D02*
X13928920Y-14300155D01*
X13928920Y-14300155D02*
X13928920Y-14252536D01*
X13928920Y-14252536D02*
X13938443Y-14214441D01*
X13938443Y-14214441D02*
X13947967Y-14195393D01*
X13947967Y-14195393D02*
X13957491Y-14185870D01*
X13957491Y-14185870D02*
X13976539Y-14176346D01*
X14128920Y-14376346D02*
X14128920Y-14243012D01*
X14128920Y-14262060D02*
X14138443Y-14252536D01*
X14138443Y-14252536D02*
X14157491Y-14243012D01*
X14157491Y-14243012D02*
X14186063Y-14243012D01*
X14186063Y-14243012D02*
X14205110Y-14252536D01*
X14205110Y-14252536D02*
X14214634Y-14271584D01*
X14214634Y-14271584D02*
X14214634Y-14376346D01*
X14214634Y-14271584D02*
X14224158Y-14252536D01*
X14224158Y-14252536D02*
X14243205Y-14243012D01*
X14243205Y-14243012D02*
X14271777Y-14243012D01*
X14271777Y-14243012D02*
X14290824Y-14252536D01*
X14290824Y-14252536D02*
X14300348Y-14271584D01*
X14300348Y-14271584D02*
X14300348Y-14376346D01*
X14395586Y-14376346D02*
X14395586Y-14243012D01*
X14395586Y-14262060D02*
X14405110Y-14252536D01*
X14405110Y-14252536D02*
X14424158Y-14243012D01*
X14424158Y-14243012D02*
X14452729Y-14243012D01*
X14452729Y-14243012D02*
X14471777Y-14252536D01*
X14471777Y-14252536D02*
X14481301Y-14271584D01*
X14481301Y-14271584D02*
X14481301Y-14376346D01*
X14481301Y-14271584D02*
X14490824Y-14252536D01*
X14490824Y-14252536D02*
X14509872Y-14243012D01*
X14509872Y-14243012D02*
X14538443Y-14243012D01*
X14538443Y-14243012D02*
X14557491Y-14252536D01*
X14557491Y-14252536D02*
X14567015Y-14271584D01*
X14567015Y-14271584D02*
X14567015Y-14376346D01*
X14957491Y-14166822D02*
X14786063Y-14423965D01*
X15214634Y-14176346D02*
X15233682Y-14176346D01*
X15233682Y-14176346D02*
X15252729Y-14185870D01*
X15252729Y-14185870D02*
X15262253Y-14195393D01*
X15262253Y-14195393D02*
X15271777Y-14214441D01*
X15271777Y-14214441D02*
X15281301Y-14252536D01*
X15281301Y-14252536D02*
X15281301Y-14300155D01*
X15281301Y-14300155D02*
X15271777Y-14338251D01*
X15271777Y-14338251D02*
X15262253Y-14357298D01*
X15262253Y-14357298D02*
X15252729Y-14366822D01*
X15252729Y-14366822D02*
X15233682Y-14376346D01*
X15233682Y-14376346D02*
X15214634Y-14376346D01*
X15214634Y-14376346D02*
X15195586Y-14366822D01*
X15195586Y-14366822D02*
X15186063Y-14357298D01*
X15186063Y-14357298D02*
X15176539Y-14338251D01*
X15176539Y-14338251D02*
X15167015Y-14300155D01*
X15167015Y-14300155D02*
X15167015Y-14252536D01*
X15167015Y-14252536D02*
X15176539Y-14214441D01*
X15176539Y-14214441D02*
X15186063Y-14195393D01*
X15186063Y-14195393D02*
X15195586Y-14185870D01*
X15195586Y-14185870D02*
X15214634Y-14176346D01*
X15367015Y-14357298D02*
X15376539Y-14366822D01*
X15376539Y-14366822D02*
X15367015Y-14376346D01*
X15367015Y-14376346D02*
X15357491Y-14366822D01*
X15357491Y-14366822D02*
X15367015Y-14357298D01*
X15367015Y-14357298D02*
X15367015Y-14376346D01*
X15500348Y-14176346D02*
X15519396Y-14176346D01*
X15519396Y-14176346D02*
X15538444Y-14185870D01*
X15538444Y-14185870D02*
X15547967Y-14195393D01*
X15547967Y-14195393D02*
X15557491Y-14214441D01*
X15557491Y-14214441D02*
X15567015Y-14252536D01*
X15567015Y-14252536D02*
X15567015Y-14300155D01*
X15567015Y-14300155D02*
X15557491Y-14338251D01*
X15557491Y-14338251D02*
X15547967Y-14357298D01*
X15547967Y-14357298D02*
X15538444Y-14366822D01*
X15538444Y-14366822D02*
X15519396Y-14376346D01*
X15519396Y-14376346D02*
X15500348Y-14376346D01*
X15500348Y-14376346D02*
X15481301Y-14366822D01*
X15481301Y-14366822D02*
X15471777Y-14357298D01*
X15471777Y-14357298D02*
X15462253Y-14338251D01*
X15462253Y-14338251D02*
X15452729Y-14300155D01*
X15452729Y-14300155D02*
X15452729Y-14252536D01*
X15452729Y-14252536D02*
X15462253Y-14214441D01*
X15462253Y-14214441D02*
X15471777Y-14195393D01*
X15471777Y-14195393D02*
X15481301Y-14185870D01*
X15481301Y-14185870D02*
X15500348Y-14176346D01*
X15633682Y-14176346D02*
X15757491Y-14176346D01*
X15757491Y-14176346D02*
X15690825Y-14252536D01*
X15690825Y-14252536D02*
X15719396Y-14252536D01*
X15719396Y-14252536D02*
X15738444Y-14262060D01*
X15738444Y-14262060D02*
X15747967Y-14271584D01*
X15747967Y-14271584D02*
X15757491Y-14290632D01*
X15757491Y-14290632D02*
X15757491Y-14338251D01*
X15757491Y-14338251D02*
X15747967Y-14357298D01*
X15747967Y-14357298D02*
X15738444Y-14366822D01*
X15738444Y-14366822D02*
X15719396Y-14376346D01*
X15719396Y-14376346D02*
X15662253Y-14376346D01*
X15662253Y-14376346D02*
X15643206Y-14366822D01*
X15643206Y-14366822D02*
X15633682Y-14357298D01*
X15852729Y-14376346D02*
X15890825Y-14376346D01*
X15890825Y-14376346D02*
X15909872Y-14366822D01*
X15909872Y-14366822D02*
X15919396Y-14357298D01*
X15919396Y-14357298D02*
X15938444Y-14328727D01*
X15938444Y-14328727D02*
X15947967Y-14290632D01*
X15947967Y-14290632D02*
X15947967Y-14214441D01*
X15947967Y-14214441D02*
X15938444Y-14195393D01*
X15938444Y-14195393D02*
X15928920Y-14185870D01*
X15928920Y-14185870D02*
X15909872Y-14176346D01*
X15909872Y-14176346D02*
X15871777Y-14176346D01*
X15871777Y-14176346D02*
X15852729Y-14185870D01*
X15852729Y-14185870D02*
X15843206Y-14195393D01*
X15843206Y-14195393D02*
X15833682Y-14214441D01*
X15833682Y-14214441D02*
X15833682Y-14262060D01*
X15833682Y-14262060D02*
X15843206Y-14281108D01*
X15843206Y-14281108D02*
X15852729Y-14290632D01*
X15852729Y-14290632D02*
X15871777Y-14300155D01*
X15871777Y-14300155D02*
X15909872Y-14300155D01*
X15909872Y-14300155D02*
X15928920Y-14290632D01*
X15928920Y-14290632D02*
X15938444Y-14281108D01*
X15938444Y-14281108D02*
X15947967Y-14262060D01*
X16119396Y-14243012D02*
X16119396Y-14376346D01*
X16071777Y-14166822D02*
X16024158Y-14309679D01*
X16024158Y-14309679D02*
X16147967Y-14309679D01*
X16214634Y-14176346D02*
X16214634Y-14214441D01*
X16290825Y-14176346D02*
X16290825Y-14214441D01*
X16586063Y-14452536D02*
X16576539Y-14443012D01*
X16576539Y-14443012D02*
X16557491Y-14414441D01*
X16557491Y-14414441D02*
X16547968Y-14395393D01*
X16547968Y-14395393D02*
X16538444Y-14366822D01*
X16538444Y-14366822D02*
X16528920Y-14319203D01*
X16528920Y-14319203D02*
X16528920Y-14281108D01*
X16528920Y-14281108D02*
X16538444Y-14233489D01*
X16538444Y-14233489D02*
X16547968Y-14204917D01*
X16547968Y-14204917D02*
X16557491Y-14185870D01*
X16557491Y-14185870D02*
X16576539Y-14157298D01*
X16576539Y-14157298D02*
X16586063Y-14147774D01*
X16652729Y-14195393D02*
X16662253Y-14185870D01*
X16662253Y-14185870D02*
X16681301Y-14176346D01*
X16681301Y-14176346D02*
X16728920Y-14176346D01*
X16728920Y-14176346D02*
X16747968Y-14185870D01*
X16747968Y-14185870D02*
X16757491Y-14195393D01*
X16757491Y-14195393D02*
X16767015Y-14214441D01*
X16767015Y-14214441D02*
X16767015Y-14233489D01*
X16767015Y-14233489D02*
X16757491Y-14262060D01*
X16757491Y-14262060D02*
X16643206Y-14376346D01*
X16643206Y-14376346D02*
X16767015Y-14376346D01*
X16881301Y-14262060D02*
X16862253Y-14252536D01*
X16862253Y-14252536D02*
X16852730Y-14243012D01*
X16852730Y-14243012D02*
X16843206Y-14223965D01*
X16843206Y-14223965D02*
X16843206Y-14214441D01*
X16843206Y-14214441D02*
X16852730Y-14195393D01*
X16852730Y-14195393D02*
X16862253Y-14185870D01*
X16862253Y-14185870D02*
X16881301Y-14176346D01*
X16881301Y-14176346D02*
X16919396Y-14176346D01*
X16919396Y-14176346D02*
X16938444Y-14185870D01*
X16938444Y-14185870D02*
X16947968Y-14195393D01*
X16947968Y-14195393D02*
X16957491Y-14214441D01*
X16957491Y-14214441D02*
X16957491Y-14223965D01*
X16957491Y-14223965D02*
X16947968Y-14243012D01*
X16947968Y-14243012D02*
X16938444Y-14252536D01*
X16938444Y-14252536D02*
X16919396Y-14262060D01*
X16919396Y-14262060D02*
X16881301Y-14262060D01*
X16881301Y-14262060D02*
X16862253Y-14271584D01*
X16862253Y-14271584D02*
X16852730Y-14281108D01*
X16852730Y-14281108D02*
X16843206Y-14300155D01*
X16843206Y-14300155D02*
X16843206Y-14338251D01*
X16843206Y-14338251D02*
X16852730Y-14357298D01*
X16852730Y-14357298D02*
X16862253Y-14366822D01*
X16862253Y-14366822D02*
X16881301Y-14376346D01*
X16881301Y-14376346D02*
X16919396Y-14376346D01*
X16919396Y-14376346D02*
X16938444Y-14366822D01*
X16938444Y-14366822D02*
X16947968Y-14357298D01*
X16947968Y-14357298D02*
X16957491Y-14338251D01*
X16957491Y-14338251D02*
X16957491Y-14300155D01*
X16957491Y-14300155D02*
X16947968Y-14281108D01*
X16947968Y-14281108D02*
X16938444Y-14271584D01*
X16938444Y-14271584D02*
X16919396Y-14262060D01*
X17195587Y-14376346D02*
X17195587Y-14176346D01*
X17281301Y-14376346D02*
X17281301Y-14271584D01*
X17281301Y-14271584D02*
X17271777Y-14252536D01*
X17271777Y-14252536D02*
X17252730Y-14243012D01*
X17252730Y-14243012D02*
X17224158Y-14243012D01*
X17224158Y-14243012D02*
X17205111Y-14252536D01*
X17205111Y-14252536D02*
X17195587Y-14262060D01*
X17405111Y-14376346D02*
X17386063Y-14366822D01*
X17386063Y-14366822D02*
X17376539Y-14357298D01*
X17376539Y-14357298D02*
X17367015Y-14338251D01*
X17367015Y-14338251D02*
X17367015Y-14281108D01*
X17367015Y-14281108D02*
X17376539Y-14262060D01*
X17376539Y-14262060D02*
X17386063Y-14252536D01*
X17386063Y-14252536D02*
X17405111Y-14243012D01*
X17405111Y-14243012D02*
X17433682Y-14243012D01*
X17433682Y-14243012D02*
X17452730Y-14252536D01*
X17452730Y-14252536D02*
X17462253Y-14262060D01*
X17462253Y-14262060D02*
X17471777Y-14281108D01*
X17471777Y-14281108D02*
X17471777Y-14338251D01*
X17471777Y-14338251D02*
X17462253Y-14357298D01*
X17462253Y-14357298D02*
X17452730Y-14366822D01*
X17452730Y-14366822D02*
X17433682Y-14376346D01*
X17433682Y-14376346D02*
X17405111Y-14376346D01*
X17586063Y-14376346D02*
X17567015Y-14366822D01*
X17567015Y-14366822D02*
X17557492Y-14347774D01*
X17557492Y-14347774D02*
X17557492Y-14176346D01*
X17738444Y-14366822D02*
X17719396Y-14376346D01*
X17719396Y-14376346D02*
X17681301Y-14376346D01*
X17681301Y-14376346D02*
X17662253Y-14366822D01*
X17662253Y-14366822D02*
X17652730Y-14347774D01*
X17652730Y-14347774D02*
X17652730Y-14271584D01*
X17652730Y-14271584D02*
X17662253Y-14252536D01*
X17662253Y-14252536D02*
X17681301Y-14243012D01*
X17681301Y-14243012D02*
X17719396Y-14243012D01*
X17719396Y-14243012D02*
X17738444Y-14252536D01*
X17738444Y-14252536D02*
X17747968Y-14271584D01*
X17747968Y-14271584D02*
X17747968Y-14290632D01*
X17747968Y-14290632D02*
X17652730Y-14309679D01*
X17824158Y-14366822D02*
X17843206Y-14376346D01*
X17843206Y-14376346D02*
X17881301Y-14376346D01*
X17881301Y-14376346D02*
X17900349Y-14366822D01*
X17900349Y-14366822D02*
X17909873Y-14347774D01*
X17909873Y-14347774D02*
X17909873Y-14338251D01*
X17909873Y-14338251D02*
X17900349Y-14319203D01*
X17900349Y-14319203D02*
X17881301Y-14309679D01*
X17881301Y-14309679D02*
X17852730Y-14309679D01*
X17852730Y-14309679D02*
X17833682Y-14300155D01*
X17833682Y-14300155D02*
X17824158Y-14281108D01*
X17824158Y-14281108D02*
X17824158Y-14271584D01*
X17824158Y-14271584D02*
X17833682Y-14252536D01*
X17833682Y-14252536D02*
X17852730Y-14243012D01*
X17852730Y-14243012D02*
X17881301Y-14243012D01*
X17881301Y-14243012D02*
X17900349Y-14252536D01*
X17976539Y-14452536D02*
X17986063Y-14443012D01*
X17986063Y-14443012D02*
X18005111Y-14414441D01*
X18005111Y-14414441D02*
X18014634Y-14395393D01*
X18014634Y-14395393D02*
X18024158Y-14366822D01*
X18024158Y-14366822D02*
X18033682Y-14319203D01*
X18033682Y-14319203D02*
X18033682Y-14281108D01*
X18033682Y-14281108D02*
X18024158Y-14233489D01*
X18024158Y-14233489D02*
X18014634Y-14204917D01*
X18014634Y-14204917D02*
X18005111Y-14185870D01*
X18005111Y-14185870D02*
X17986063Y-14157298D01*
X17986063Y-14157298D02*
X17976539Y-14147774D01*
M02*
