%TF.GenerationSoftware,KiCad,Pcbnew,7.0.5*%
%TF.CreationDate,2024-01-17T11:15:45-05:00*%
%TF.ProjectId,CTRL,4354524c-2e6b-4696-9361-645f70636258,rev?*%
%TF.SameCoordinates,Original*%
%TF.FileFunction,Soldermask,Top*%
%TF.FilePolarity,Negative*%
%FSLAX46Y46*%
G04 Gerber Fmt 4.6, Leading zero omitted, Abs format (unit mm)*
G04 Created by KiCad (PCBNEW 7.0.5) date 2024-01-17 11:15:45*
%MOMM*%
%LPD*%
G01*
G04 APERTURE LIST*
G04 Aperture macros list*
%AMRoundRect*
0 Rectangle with rounded corners*
0 $1 Rounding radius*
0 $2 $3 $4 $5 $6 $7 $8 $9 X,Y pos of 4 corners*
0 Add a 4 corners polygon primitive as box body*
4,1,4,$2,$3,$4,$5,$6,$7,$8,$9,$2,$3,0*
0 Add four circle primitives for the rounded corners*
1,1,$1+$1,$2,$3*
1,1,$1+$1,$4,$5*
1,1,$1+$1,$6,$7*
1,1,$1+$1,$8,$9*
0 Add four rect primitives between the rounded corners*
20,1,$1+$1,$2,$3,$4,$5,0*
20,1,$1+$1,$4,$5,$6,$7,0*
20,1,$1+$1,$6,$7,$8,$9,0*
20,1,$1+$1,$8,$9,$2,$3,0*%
%AMRotRect*
0 Rectangle, with rotation*
0 The origin of the aperture is its center*
0 $1 length*
0 $2 width*
0 $3 Rotation angle, in degrees counterclockwise*
0 Add horizontal line*
21,1,$1,$2,0,0,$3*%
G04 Aperture macros list end*
%ADD10RotRect,1.500000X1.500000X150.000000*%
%ADD11RoundRect,0.237500X0.237500X-0.250000X0.237500X0.250000X-0.237500X0.250000X-0.237500X-0.250000X0*%
%ADD12RoundRect,0.250001X-0.624999X0.462499X-0.624999X-0.462499X0.624999X-0.462499X0.624999X0.462499X0*%
%ADD13RoundRect,0.160000X0.197500X0.160000X-0.197500X0.160000X-0.197500X-0.160000X0.197500X-0.160000X0*%
%ADD14R,1.700000X1.700000*%
%ADD15O,1.700000X1.700000*%
%ADD16RoundRect,0.160000X-0.197500X-0.160000X0.197500X-0.160000X0.197500X0.160000X-0.197500X0.160000X0*%
%ADD17RoundRect,0.250000X-0.650000X0.412500X-0.650000X-0.412500X0.650000X-0.412500X0.650000X0.412500X0*%
%ADD18R,1.350000X1.350000*%
%ADD19O,1.350000X1.350000*%
%ADD20RoundRect,0.155000X0.155000X-0.212500X0.155000X0.212500X-0.155000X0.212500X-0.155000X-0.212500X0*%
%ADD21R,1.200000X0.600000*%
%ADD22RoundRect,0.102000X-0.654000X-0.654000X0.654000X-0.654000X0.654000X0.654000X-0.654000X0.654000X0*%
%ADD23C,1.512000*%
%ADD24O,1.434000X2.664000*%
%ADD25C,1.162000*%
%ADD26O,2.020000X1.112000*%
%ADD27RoundRect,0.102000X0.654000X0.654000X-0.654000X0.654000X-0.654000X-0.654000X0.654000X-0.654000X0*%
%ADD28RoundRect,0.102000X0.754000X-0.754000X0.754000X0.754000X-0.754000X0.754000X-0.754000X-0.754000X0*%
%ADD29C,1.712000*%
G04 APERTURE END LIST*
D10*
%TO.C,TP3*%
X163560000Y-86898621D03*
%TD*%
%TO.C,TP2*%
X160160000Y-84898621D03*
%TD*%
D11*
%TO.C,R4*%
X151260000Y-91911121D03*
X151260000Y-90086121D03*
%TD*%
D12*
%TO.C,F1*%
X158160000Y-90131121D03*
X158160000Y-93106121D03*
%TD*%
D13*
%TO.C,R15*%
X166190000Y-98048621D03*
X164995000Y-98048621D03*
%TD*%
D14*
%TO.C,J1*%
X143810000Y-86465599D03*
D15*
X143810000Y-83925599D03*
X146350000Y-86465599D03*
X146350000Y-83925599D03*
X148890000Y-86465599D03*
X148890000Y-83925599D03*
X151430000Y-86465599D03*
X151430000Y-83925599D03*
X153970000Y-86465599D03*
X153970000Y-83925599D03*
X156510000Y-86465599D03*
X156510000Y-83925599D03*
%TD*%
D13*
%TO.C,R14*%
X166167500Y-102118621D03*
X164972500Y-102118621D03*
%TD*%
D16*
%TO.C,R2*%
X164972500Y-101098621D03*
X166167500Y-101098621D03*
%TD*%
D14*
%TO.C,J2*%
X156510000Y-113743621D03*
D15*
X156510000Y-116283621D03*
X153970000Y-113743621D03*
X153970000Y-116283621D03*
X151430000Y-113743621D03*
X151430000Y-116283621D03*
X148890000Y-113743621D03*
X148890000Y-116283621D03*
X146350000Y-113743621D03*
X146350000Y-116283621D03*
X143810000Y-113743621D03*
X143810000Y-116283621D03*
%TD*%
D17*
%TO.C,C3*%
X153260000Y-90086121D03*
X153260000Y-93211121D03*
%TD*%
D18*
%TO.C,J4*%
X131950000Y-103698621D03*
D19*
X131950000Y-101698621D03*
%TD*%
D20*
%TO.C,C4*%
X155160000Y-110898621D03*
X155160000Y-109763621D03*
%TD*%
D13*
%TO.C,R3*%
X153982500Y-110898621D03*
X152787500Y-110898621D03*
%TD*%
D16*
%TO.C,R1*%
X164995000Y-99098621D03*
X166190000Y-99098621D03*
%TD*%
D18*
%TO.C,J6*%
X168570000Y-97098621D03*
D19*
X168570000Y-99098621D03*
X168570000Y-101098621D03*
X168570000Y-103098621D03*
%TD*%
D21*
%TO.C,U4*%
X161000000Y-99158621D03*
X161000000Y-100108621D03*
X161000000Y-101058621D03*
X163500000Y-101058621D03*
X163500000Y-100108621D03*
X163500000Y-99158621D03*
%TD*%
D17*
%TO.C,C2*%
X155725000Y-90086121D03*
X155725000Y-93211121D03*
%TD*%
D18*
%TO.C,J5*%
X131950000Y-94968621D03*
D19*
X131950000Y-96968621D03*
%TD*%
D22*
%TO.C,S2*%
X148160000Y-97198621D03*
D23*
X150160000Y-97198621D03*
X152160000Y-97198621D03*
D24*
X145960000Y-97198621D03*
X154360000Y-97198621D03*
%TD*%
D25*
%TO.C,J3*%
X158052500Y-101404610D03*
X157052500Y-100754610D03*
X158052500Y-100104610D03*
X157052500Y-99454610D03*
X158052500Y-98804610D03*
D26*
X157832500Y-103679610D03*
X157832500Y-96529610D03*
%TD*%
D27*
%TO.C,S3*%
X152160000Y-102698621D03*
D23*
X150160000Y-102698621D03*
X148160000Y-102698621D03*
D24*
X154360000Y-102698621D03*
X145960000Y-102698621D03*
%TD*%
D28*
%TO.C,S1*%
X138910000Y-103198621D03*
D29*
X138910000Y-96698621D03*
X143410000Y-103198621D03*
X143410000Y-96698621D03*
%TD*%
M02*
