%TF.GenerationSoftware,KiCad,Pcbnew,7.0.5*%
%TF.CreationDate,2024-01-18T17:38:35-05:00*%
%TF.ProjectId,CONN,434f4e4e-2e6b-4696-9361-645f70636258,rev?*%
%TF.SameCoordinates,Original*%
%TF.FileFunction,Copper,L1,Top*%
%TF.FilePolarity,Positive*%
%FSLAX46Y46*%
G04 Gerber Fmt 4.6, Leading zero omitted, Abs format (unit mm)*
G04 Created by KiCad (PCBNEW 7.0.5) date 2024-01-18 17:38:35*
%MOMM*%
%LPD*%
G01*
G04 APERTURE LIST*
G04 Aperture macros list*
%AMRoundRect*
0 Rectangle with rounded corners*
0 $1 Rounding radius*
0 $2 $3 $4 $5 $6 $7 $8 $9 X,Y pos of 4 corners*
0 Add a 4 corners polygon primitive as box body*
4,1,4,$2,$3,$4,$5,$6,$7,$8,$9,$2,$3,0*
0 Add four circle primitives for the rounded corners*
1,1,$1+$1,$2,$3*
1,1,$1+$1,$4,$5*
1,1,$1+$1,$6,$7*
1,1,$1+$1,$8,$9*
0 Add four rect primitives between the rounded corners*
20,1,$1+$1,$2,$3,$4,$5,0*
20,1,$1+$1,$4,$5,$6,$7,0*
20,1,$1+$1,$6,$7,$8,$9,0*
20,1,$1+$1,$8,$9,$2,$3,0*%
G04 Aperture macros list end*
%TA.AperFunction,SMDPad,CuDef*%
%ADD10R,1.000000X1.000000*%
%TD*%
%TA.AperFunction,SMDPad,CuDef*%
%ADD11RoundRect,0.250001X0.624999X-0.462499X0.624999X0.462499X-0.624999X0.462499X-0.624999X-0.462499X0*%
%TD*%
%TA.AperFunction,ComponentPad*%
%ADD12R,1.350000X1.350000*%
%TD*%
%TA.AperFunction,ComponentPad*%
%ADD13O,1.350000X1.350000*%
%TD*%
%TA.AperFunction,ComponentPad*%
%ADD14R,1.700000X1.700000*%
%TD*%
%TA.AperFunction,ComponentPad*%
%ADD15O,1.700000X1.700000*%
%TD*%
%TA.AperFunction,ComponentPad*%
%ADD16R,2.775000X2.775000*%
%TD*%
%TA.AperFunction,ComponentPad*%
%ADD17C,2.775000*%
%TD*%
%TA.AperFunction,SMDPad,CuDef*%
%ADD18RoundRect,0.250001X0.462499X0.624999X-0.462499X0.624999X-0.462499X-0.624999X0.462499X-0.624999X0*%
%TD*%
%TA.AperFunction,ViaPad*%
%ADD19C,0.660400*%
%TD*%
%TA.AperFunction,Conductor*%
%ADD20C,0.152400*%
%TD*%
%TA.AperFunction,Conductor*%
%ADD21C,1.270000*%
%TD*%
%TA.AperFunction,Conductor*%
%ADD22C,0.254000*%
%TD*%
G04 APERTURE END LIST*
D10*
%TO.P,TP1,1,1*%
%TO.N,Net-(D1-K)*%
X165010000Y-98048621D03*
%TD*%
D11*
%TO.P,D2,1,K*%
%TO.N,Net-(D2-K)*%
X143160000Y-95748621D03*
%TO.P,D2,2,A*%
%TO.N,Net-(D2-A)*%
X143160000Y-92773621D03*
%TD*%
D12*
%TO.P,J10,1,Pin_1*%
%TO.N,Net-(J10-Pin_1)*%
X131990000Y-95428621D03*
D13*
%TO.P,J10,2,Pin_2*%
%TO.N,Net-(J10-Pin_2)*%
X131990000Y-97428621D03*
%TD*%
D14*
%TO.P,J1,1,Pin_1*%
%TO.N,/VBAT*%
X143810000Y-86465599D03*
D15*
%TO.P,J1,2,Pin_2*%
%TO.N,/D8*%
X143810000Y-83925599D03*
%TO.P,J1,3,Pin_3*%
%TO.N,/A5*%
X146350000Y-86465599D03*
%TO.P,J1,4,Pin_4*%
%TO.N,/A3*%
X146350000Y-83925599D03*
%TO.P,J1,5,Pin_5*%
%TO.N,+5V*%
X148890000Y-86465599D03*
%TO.P,J1,6,Pin_6*%
%TO.N,/A2*%
X148890000Y-83925599D03*
%TO.P,J1,7,Pin_7*%
%TO.N,/RXD*%
X151430000Y-86465599D03*
%TO.P,J1,8,Pin_8*%
%TO.N,GND*%
X151430000Y-83925599D03*
%TO.P,J1,9,Pin_9*%
%TO.N,/BURN_EN*%
X153970000Y-86465599D03*
%TO.P,J1,10,Pin_10*%
%TO.N,GND*%
X153970000Y-83925599D03*
%TO.P,J1,11,Pin_11*%
%TO.N,/SDA*%
X156510000Y-86465599D03*
%TO.P,J1,12,Pin_12*%
%TO.N,/SCL*%
X156510000Y-83925599D03*
%TD*%
D16*
%TO.P,S1,1*%
%TO.N,Net-(J10-Pin_1)*%
X137240000Y-95804610D03*
D17*
%TO.P,S1,2*%
%TO.N,Net-(J10-Pin_2)*%
X137240000Y-100504610D03*
%TO.P,S1,3*%
%TO.N,unconnected-(S1-Pad3)*%
X137240000Y-105204610D03*
%TD*%
D18*
%TO.P,D1,1,K*%
%TO.N,Net-(D1-K)*%
X164597500Y-101848621D03*
%TO.P,D1,2,A*%
%TO.N,Net-(D1-A)*%
X161622500Y-101848621D03*
%TD*%
D14*
%TO.P,J2,1,Pin_1*%
%TO.N,/D12*%
X156510000Y-113743621D03*
D15*
%TO.P,J2,2,Pin_2*%
%TO.N,/D10*%
X156510000Y-116283621D03*
%TO.P,J2,3,Pin_3*%
%TO.N,/MOSI*%
X153970000Y-113743621D03*
%TO.P,J2,4,Pin_4*%
%TO.N,/D1*%
X153970000Y-116283621D03*
%TO.P,J2,5,Pin_5*%
%TO.N,/SCK*%
X151430000Y-113743621D03*
%TO.P,J2,6,Pin_6*%
%TO.N,/D3*%
X151430000Y-116283621D03*
%TO.P,J2,7,Pin_7*%
%TO.N,/D2*%
X148890000Y-113743621D03*
%TO.P,J2,8,Pin_8*%
%TO.N,/A4*%
X148890000Y-116283621D03*
%TO.P,J2,9,Pin_9*%
%TO.N,/MISO*%
X146350000Y-113743621D03*
%TO.P,J2,10,Pin_10*%
%TO.N,GND*%
X146350000Y-116283621D03*
%TO.P,J2,11,Pin_11*%
%TO.N,/BAT_BR*%
X143810000Y-113743621D03*
%TO.P,J2,12,Pin_12*%
%TO.N,GND*%
X143810000Y-116283621D03*
%TD*%
D10*
%TO.P,TP4,1,1*%
%TO.N,Net-(D2-A)*%
X140910000Y-88748621D03*
%TD*%
%TO.P,TP3,1,1*%
%TO.N,Net-(D2-K)*%
X137710000Y-88748621D03*
%TD*%
%TO.P,TP2,1,1*%
%TO.N,Net-(D1-A)*%
X165010000Y-94998621D03*
%TD*%
D14*
%TO.P,J3,1,Pin_1*%
%TO.N,/BAT_BR*%
X143810000Y-101373621D03*
D15*
%TO.P,J3,2,Pin_2*%
%TO.N,/A5*%
X143810000Y-98833621D03*
%TO.P,J3,3,Pin_3*%
%TO.N,/MISO*%
X146350000Y-101373621D03*
%TO.P,J3,4,Pin_4*%
%TO.N,/A2*%
X146350000Y-98833621D03*
%TO.P,J3,5,Pin_5*%
%TO.N,/A4*%
X148890000Y-101373621D03*
%TO.P,J3,6,Pin_6*%
%TO.N,/RXD*%
X148890000Y-98833621D03*
%TO.P,J3,7,Pin_7*%
%TO.N,/SCK*%
X151430000Y-101373621D03*
%TO.P,J3,8,Pin_8*%
%TO.N,/D2*%
X151430000Y-98833621D03*
%TO.P,J3,9,Pin_9*%
%TO.N,/MOSI*%
X153970000Y-101373621D03*
%TO.P,J3,10,Pin_10*%
%TO.N,/D3*%
X153970000Y-98833621D03*
%TO.P,J3,11,Pin_11*%
%TO.N,/D1*%
X156510000Y-101373621D03*
%TO.P,J3,12,Pin_12*%
%TO.N,GND*%
X156510000Y-98833621D03*
%TD*%
D19*
%TO.N,GND*%
X150410000Y-91198621D03*
X158160000Y-97198621D03*
X142160000Y-100698621D03*
X152160000Y-118198621D03*
X140160000Y-100698621D03*
X162160000Y-87198621D03*
X154160000Y-89198621D03*
X156160000Y-95198621D03*
X132160000Y-102698621D03*
X166160000Y-93198621D03*
X164160000Y-109198621D03*
X160160000Y-89198621D03*
X163260000Y-99598621D03*
X150160000Y-82198621D03*
X142160000Y-106698621D03*
X150160000Y-105198621D03*
X164160000Y-105198621D03*
X150410000Y-95198621D03*
X156160000Y-111198621D03*
X152160000Y-89198621D03*
X136160000Y-89198621D03*
X158160000Y-93198621D03*
X160160000Y-111198621D03*
X156160000Y-97198621D03*
X141010000Y-92048621D03*
X164160000Y-91198621D03*
X166160000Y-101198621D03*
X140160000Y-111198621D03*
X142160000Y-108698621D03*
X152160000Y-95198621D03*
X150410000Y-89198621D03*
X160160000Y-91198621D03*
X162160000Y-95198621D03*
X136160000Y-113198621D03*
X160160000Y-95198621D03*
X158160000Y-111198621D03*
X166160000Y-105198621D03*
X162160000Y-109198621D03*
X156160000Y-103198621D03*
X154160000Y-80198621D03*
X146160000Y-82198621D03*
X145160000Y-89198621D03*
X146160000Y-80198621D03*
X145160000Y-91198621D03*
X152160000Y-93198621D03*
X154160000Y-93198621D03*
X146160000Y-118198621D03*
X156160000Y-82198621D03*
X162160000Y-105198621D03*
X166160000Y-103198621D03*
X168160000Y-99198621D03*
X136160000Y-87198621D03*
X138160000Y-102698621D03*
X148410000Y-91198621D03*
X160160000Y-97198621D03*
X138160000Y-111198621D03*
X154160000Y-82198621D03*
X142160000Y-104698621D03*
X140160000Y-96198621D03*
X162160000Y-111198621D03*
X158160000Y-103198621D03*
X162160000Y-113198621D03*
X136160000Y-111198621D03*
X148410000Y-93198621D03*
X166160000Y-99198621D03*
X154160000Y-119698621D03*
X162160000Y-93198621D03*
X132160000Y-93198621D03*
X141660000Y-87198621D03*
X154160000Y-118198621D03*
X168160000Y-93198621D03*
X164160000Y-111198621D03*
X139510000Y-90248621D03*
X148160000Y-82198621D03*
X162160000Y-91198621D03*
X160160000Y-85198621D03*
X164160000Y-93198621D03*
X142160000Y-102698621D03*
X166160000Y-107198621D03*
X143160000Y-89198621D03*
X134160000Y-106698621D03*
X140160000Y-102698621D03*
X168160000Y-105198621D03*
X158160000Y-99198621D03*
X158160000Y-89198621D03*
X156160000Y-107198621D03*
X136160000Y-108698621D03*
X145160000Y-93198621D03*
X141660000Y-83698621D03*
X160160000Y-109198621D03*
X134160000Y-102698621D03*
X152160000Y-97198621D03*
X145160000Y-111198621D03*
X156160000Y-91198621D03*
X162160000Y-107198621D03*
X166160000Y-87198621D03*
X160160000Y-87198621D03*
X162160000Y-85198621D03*
X154160000Y-91198621D03*
X136160000Y-91198621D03*
X156160000Y-93198621D03*
X160160000Y-107198621D03*
X144160000Y-82198621D03*
X138160000Y-93198621D03*
X145160000Y-109198621D03*
X145160000Y-105198621D03*
X148160000Y-118198621D03*
X156160000Y-118198621D03*
X136160000Y-102698621D03*
X156160000Y-105198621D03*
X138160000Y-115198621D03*
X140160000Y-104698621D03*
X158160000Y-95198621D03*
X146160000Y-119698621D03*
X150160000Y-109198621D03*
X136160000Y-93198621D03*
X142160000Y-111198621D03*
X148410000Y-89198621D03*
X140160000Y-98198621D03*
X158160000Y-107198621D03*
X152160000Y-91198621D03*
X132160000Y-104698621D03*
X150410000Y-93198621D03*
X136160000Y-98198621D03*
X164160000Y-87198621D03*
X156160000Y-89198621D03*
X162160000Y-115198621D03*
X150160000Y-107198621D03*
X168160000Y-107198621D03*
X140160000Y-108698621D03*
X138160000Y-113198621D03*
X158160000Y-105198621D03*
X158160000Y-109198621D03*
X164160000Y-113198621D03*
X160160000Y-115198621D03*
X152160000Y-82198621D03*
X150160000Y-118198621D03*
X156160000Y-109198621D03*
X132160000Y-100698621D03*
X134160000Y-104698621D03*
X168160000Y-103198621D03*
X140160000Y-113198621D03*
X160160000Y-99198621D03*
X148410000Y-95198621D03*
X164160000Y-107198621D03*
X154160000Y-97198621D03*
X144160000Y-118198621D03*
X145160000Y-95198621D03*
X150160000Y-111198621D03*
X158160000Y-91198621D03*
X160160000Y-93198621D03*
X164160000Y-89198621D03*
X134160000Y-93198621D03*
X140160000Y-106698621D03*
X168160000Y-101198621D03*
X145160000Y-107198621D03*
X138160000Y-98198621D03*
X162160000Y-89198621D03*
X140160000Y-115198621D03*
X154160000Y-95198621D03*
X138160000Y-108698621D03*
X132160000Y-106698621D03*
X158160000Y-101198621D03*
X160160000Y-105198621D03*
X160160000Y-113198621D03*
X142160000Y-98198621D03*
%TD*%
D20*
%TO.N,/A5*%
X143810000Y-98833621D02*
X146350000Y-96293621D01*
X146350000Y-96293621D02*
X146350000Y-86465599D01*
%TO.N,/RXD*%
X151430000Y-96293621D02*
X151430000Y-86465599D01*
X148890000Y-98833621D02*
X151430000Y-96293621D01*
%TO.N,/A2*%
X148890000Y-83925599D02*
X147560000Y-85255599D01*
X147560000Y-85255599D02*
X147560000Y-97623621D01*
X147560000Y-97623621D02*
X146350000Y-98833621D01*
D21*
%TO.N,/BAT_BR*%
X143810000Y-101373621D02*
X143810000Y-113743621D01*
D20*
%TO.N,/MOSI*%
X153970000Y-113743621D02*
X153970000Y-101373621D01*
%TO.N,/D1*%
X155210000Y-115043621D02*
X155210000Y-102673621D01*
X155210000Y-102673621D02*
X156510000Y-101373621D01*
X153970000Y-116283621D02*
X155210000Y-115043621D01*
%TO.N,/SCK*%
X151430000Y-113743621D02*
X151430000Y-101373621D01*
%TO.N,/A4*%
X148890000Y-116283621D02*
X147610000Y-115003621D01*
X147610000Y-115003621D02*
X147610000Y-102653621D01*
X147610000Y-102653621D02*
X148890000Y-101373621D01*
%TO.N,/MISO*%
X146350000Y-113743621D02*
X146350000Y-101373621D01*
D22*
%TO.N,Net-(D1-K)*%
X165010000Y-101436121D02*
X165010000Y-98048621D01*
X164597500Y-101848621D02*
X165010000Y-101436121D01*
%TO.N,Net-(D1-A)*%
X161622500Y-98386121D02*
X161622500Y-101848621D01*
X165010000Y-94998621D02*
X161622500Y-98386121D01*
%TO.N,Net-(D2-K)*%
X137710000Y-88748621D02*
X137710000Y-90298621D01*
X137710000Y-90298621D02*
X143160000Y-95748621D01*
%TO.N,Net-(D2-A)*%
X140910000Y-90523621D02*
X143160000Y-92773621D01*
X140910000Y-88748621D02*
X140910000Y-90523621D01*
%TD*%
%TA.AperFunction,Conductor*%
%TO.N,GND*%
G36*
X150203946Y-77388502D02*
G01*
X169810750Y-88708494D01*
X169849399Y-88754554D01*
X169854700Y-88784618D01*
X169854700Y-95369390D01*
X169834135Y-95425891D01*
X169782064Y-95455955D01*
X169722850Y-95445514D01*
X169698077Y-95424195D01*
X169581609Y-95278149D01*
X169579048Y-95275773D01*
X169452369Y-95158232D01*
X169380989Y-95092001D01*
X169380985Y-95091998D01*
X169380981Y-95091995D01*
X169154863Y-94937830D01*
X169154864Y-94937830D01*
X168908293Y-94819089D01*
X168908290Y-94819088D01*
X168646771Y-94738420D01*
X168646767Y-94738419D01*
X168646766Y-94738419D01*
X168376151Y-94697630D01*
X168376149Y-94697630D01*
X168102471Y-94697630D01*
X168102468Y-94697630D01*
X167831853Y-94738419D01*
X167831850Y-94738419D01*
X167831849Y-94738420D01*
X167701089Y-94778753D01*
X167570326Y-94819089D01*
X167323757Y-94937830D01*
X167097637Y-95091995D01*
X167097628Y-95092003D01*
X166897013Y-95278146D01*
X166726377Y-95492116D01*
X166589536Y-95729131D01*
X166589535Y-95729132D01*
X166489551Y-95983890D01*
X166489549Y-95983895D01*
X166428652Y-96250702D01*
X166428650Y-96250710D01*
X166408199Y-96523618D01*
X166408199Y-96523623D01*
X166428650Y-96796531D01*
X166428651Y-96796534D01*
X166489550Y-97063350D01*
X166500020Y-97090027D01*
X166589535Y-97318109D01*
X166589536Y-97318110D01*
X166726375Y-97555123D01*
X166890789Y-97761290D01*
X166897013Y-97769095D01*
X166920264Y-97790669D01*
X167074306Y-97933599D01*
X167097628Y-97955238D01*
X167097637Y-97955246D01*
X167232595Y-98047258D01*
X167323755Y-98109410D01*
X167323757Y-98109411D01*
X167323756Y-98109411D01*
X167426495Y-98158887D01*
X167570330Y-98228154D01*
X167831849Y-98308822D01*
X168102471Y-98349612D01*
X168102476Y-98349612D01*
X168376144Y-98349612D01*
X168376149Y-98349612D01*
X168646771Y-98308822D01*
X168908290Y-98228154D01*
X169154866Y-98109410D01*
X169380989Y-97955241D01*
X169581609Y-97769093D01*
X169698078Y-97623044D01*
X169749383Y-97591694D01*
X169808839Y-97600655D01*
X169848624Y-97645738D01*
X169854700Y-97677851D01*
X169854700Y-111424599D01*
X169834135Y-111481100D01*
X169810750Y-111500723D01*
X150203949Y-122820715D01*
X150144735Y-122831156D01*
X150116049Y-122820715D01*
X149138254Y-122256185D01*
X146770601Y-120889220D01*
X148749884Y-120889220D01*
X148769115Y-121121316D01*
X148769116Y-121121322D01*
X148826286Y-121347080D01*
X148826289Y-121347088D01*
X148897987Y-121510541D01*
X148919840Y-121560361D01*
X148919844Y-121560367D01*
X149047215Y-121755325D01*
X149047216Y-121755327D01*
X149047220Y-121755331D01*
X149204954Y-121926676D01*
X149388740Y-122069722D01*
X149593563Y-122180567D01*
X149813837Y-122256187D01*
X149813839Y-122256187D01*
X149813841Y-122256188D01*
X150043550Y-122294520D01*
X150043554Y-122294520D01*
X150276450Y-122294520D01*
X150506158Y-122256188D01*
X150506158Y-122256187D01*
X150506163Y-122256187D01*
X150726437Y-122180567D01*
X150931260Y-122069722D01*
X151115046Y-121926676D01*
X151272780Y-121755331D01*
X151400160Y-121560361D01*
X151493712Y-121347084D01*
X151550884Y-121121317D01*
X151570116Y-120889220D01*
X151550884Y-120657123D01*
X151550883Y-120657117D01*
X151493713Y-120431359D01*
X151493710Y-120431351D01*
X151400164Y-120218089D01*
X151400160Y-120218079D01*
X151319435Y-120094520D01*
X151272784Y-120023114D01*
X151272783Y-120023112D01*
X151115050Y-119851768D01*
X151115048Y-119851767D01*
X151115046Y-119851764D01*
X150931260Y-119708718D01*
X150726437Y-119597873D01*
X150726433Y-119597871D01*
X150726430Y-119597870D01*
X150506167Y-119522254D01*
X150506158Y-119522251D01*
X150276450Y-119483920D01*
X150276446Y-119483920D01*
X150043554Y-119483920D01*
X150043550Y-119483920D01*
X149813841Y-119522251D01*
X149813832Y-119522254D01*
X149593569Y-119597870D01*
X149388740Y-119708718D01*
X149204949Y-119851768D01*
X149047216Y-120023112D01*
X149047215Y-120023114D01*
X148919844Y-120218072D01*
X148919835Y-120218089D01*
X148826289Y-120431351D01*
X148826286Y-120431359D01*
X148769116Y-120657117D01*
X148769115Y-120657123D01*
X148749884Y-120889220D01*
X146770601Y-120889220D01*
X138353527Y-116029620D01*
X142813001Y-116029620D01*
X142813002Y-116029621D01*
X143378884Y-116029621D01*
X143350507Y-116073777D01*
X143310000Y-116211732D01*
X143310000Y-116355510D01*
X143350507Y-116493465D01*
X143378884Y-116537621D01*
X142813002Y-116537621D01*
X142855840Y-116678841D01*
X142855840Y-116678843D01*
X142951281Y-116857399D01*
X143079717Y-117013899D01*
X143079721Y-117013903D01*
X143236221Y-117142339D01*
X143414778Y-117237780D01*
X143555999Y-117280619D01*
X143556000Y-117280619D01*
X143556000Y-116717295D01*
X143667685Y-116768301D01*
X143774237Y-116783621D01*
X143845763Y-116783621D01*
X143952315Y-116768301D01*
X144064000Y-116717295D01*
X144064000Y-117280619D01*
X144205220Y-117237780D01*
X144205222Y-117237780D01*
X144383778Y-117142339D01*
X144540278Y-117013903D01*
X144540282Y-117013899D01*
X144668718Y-116857399D01*
X144764159Y-116678843D01*
X144764159Y-116678841D01*
X144806998Y-116537621D01*
X144241116Y-116537621D01*
X144269493Y-116493465D01*
X144310000Y-116355510D01*
X144310000Y-116211732D01*
X144269493Y-116073777D01*
X144241116Y-116029621D01*
X144806998Y-116029621D01*
X144806998Y-116029620D01*
X145353001Y-116029620D01*
X145353002Y-116029621D01*
X145918884Y-116029621D01*
X145890507Y-116073777D01*
X145850000Y-116211732D01*
X145850000Y-116355510D01*
X145890507Y-116493465D01*
X145918884Y-116537621D01*
X145353002Y-116537621D01*
X145395840Y-116678841D01*
X145395840Y-116678843D01*
X145491281Y-116857399D01*
X145619717Y-117013899D01*
X145619721Y-117013903D01*
X145776221Y-117142339D01*
X145954778Y-117237780D01*
X146095999Y-117280619D01*
X146096000Y-117280618D01*
X146096000Y-116717295D01*
X146207685Y-116768301D01*
X146314237Y-116783621D01*
X146385763Y-116783621D01*
X146492315Y-116768301D01*
X146604000Y-116717295D01*
X146604000Y-117280619D01*
X146745220Y-117237780D01*
X146745222Y-117237780D01*
X146923778Y-117142339D01*
X147080278Y-117013903D01*
X147080282Y-117013899D01*
X147208718Y-116857399D01*
X147304159Y-116678843D01*
X147304159Y-116678841D01*
X147346998Y-116537621D01*
X146781116Y-116537621D01*
X146809493Y-116493465D01*
X146850000Y-116355510D01*
X146850000Y-116211732D01*
X146809493Y-116073777D01*
X146781116Y-116029621D01*
X147346998Y-116029621D01*
X147346998Y-116029620D01*
X147304159Y-115888400D01*
X147304159Y-115888398D01*
X147208718Y-115709842D01*
X147080282Y-115553342D01*
X147080278Y-115553338D01*
X146923778Y-115424902D01*
X146745225Y-115329463D01*
X146604000Y-115286622D01*
X146604000Y-115849946D01*
X146492315Y-115798941D01*
X146385763Y-115783621D01*
X146314237Y-115783621D01*
X146207685Y-115798941D01*
X146096000Y-115849946D01*
X146096000Y-115286622D01*
X145954774Y-115329463D01*
X145776221Y-115424902D01*
X145619721Y-115553338D01*
X145619717Y-115553342D01*
X145491281Y-115709842D01*
X145395840Y-115888398D01*
X145395840Y-115888400D01*
X145353001Y-116029620D01*
X144806998Y-116029620D01*
X144764159Y-115888400D01*
X144764159Y-115888398D01*
X144668718Y-115709842D01*
X144540282Y-115553342D01*
X144540278Y-115553338D01*
X144383778Y-115424902D01*
X144205225Y-115329463D01*
X144064000Y-115286622D01*
X144064000Y-115849946D01*
X143952315Y-115798941D01*
X143845763Y-115783621D01*
X143774237Y-115783621D01*
X143667685Y-115798941D01*
X143556000Y-115849946D01*
X143556000Y-115286622D01*
X143414774Y-115329463D01*
X143236221Y-115424902D01*
X143079721Y-115553338D01*
X143079717Y-115553342D01*
X142951281Y-115709842D01*
X142855840Y-115888398D01*
X142855840Y-115888400D01*
X142813001Y-116029620D01*
X138353527Y-116029620D01*
X134394061Y-113743621D01*
X142802247Y-113743621D01*
X142821612Y-113940230D01*
X142878957Y-114129269D01*
X142878958Y-114129271D01*
X142972084Y-114303499D01*
X143097411Y-114456210D01*
X143250122Y-114581537D01*
X143424350Y-114674663D01*
X143613397Y-114732010D01*
X143810000Y-114751374D01*
X144006603Y-114732010D01*
X144195650Y-114674663D01*
X144369878Y-114581537D01*
X144522589Y-114456210D01*
X144647916Y-114303499D01*
X144741042Y-114129271D01*
X144798389Y-113940224D01*
X144817753Y-113743621D01*
X145342247Y-113743621D01*
X145361612Y-113940230D01*
X145418957Y-114129269D01*
X145418958Y-114129271D01*
X145512084Y-114303499D01*
X145637411Y-114456210D01*
X145790122Y-114581537D01*
X145964350Y-114674663D01*
X146153397Y-114732010D01*
X146350000Y-114751374D01*
X146546603Y-114732010D01*
X146735650Y-114674663D01*
X146909878Y-114581537D01*
X147062589Y-114456210D01*
X147187916Y-114303499D01*
X147215479Y-114251930D01*
X147260250Y-114211796D01*
X147320345Y-114209829D01*
X147367645Y-114246950D01*
X147380900Y-114293367D01*
X147380900Y-114996471D01*
X147380840Y-114998772D01*
X147379485Y-115024634D01*
X147378666Y-115040260D01*
X147387177Y-115062433D01*
X147391092Y-115075650D01*
X147396031Y-115098888D01*
X147400124Y-115104521D01*
X147411071Y-115124682D01*
X147413567Y-115131183D01*
X147413568Y-115131185D01*
X147430364Y-115147982D01*
X147439320Y-115158468D01*
X147453276Y-115177677D01*
X147453278Y-115177679D01*
X147459308Y-115181160D01*
X147477510Y-115195127D01*
X147989978Y-115707595D01*
X148015389Y-115762089D01*
X148005344Y-115811185D01*
X147958958Y-115897968D01*
X147958957Y-115897972D01*
X147901612Y-116087011D01*
X147882247Y-116283621D01*
X147901612Y-116480230D01*
X147958957Y-116669269D01*
X147958958Y-116669271D01*
X148052084Y-116843499D01*
X148177411Y-116996210D01*
X148330122Y-117121537D01*
X148504350Y-117214663D01*
X148693397Y-117272010D01*
X148890000Y-117291374D01*
X149086603Y-117272010D01*
X149275650Y-117214663D01*
X149449878Y-117121537D01*
X149602589Y-116996210D01*
X149727916Y-116843499D01*
X149821042Y-116669271D01*
X149878389Y-116480224D01*
X149897753Y-116283621D01*
X150422247Y-116283621D01*
X150441612Y-116480230D01*
X150498957Y-116669269D01*
X150498958Y-116669271D01*
X150592084Y-116843499D01*
X150717411Y-116996210D01*
X150870122Y-117121537D01*
X151044350Y-117214663D01*
X151233397Y-117272010D01*
X151430000Y-117291374D01*
X151626603Y-117272010D01*
X151815650Y-117214663D01*
X151989878Y-117121537D01*
X152142589Y-116996210D01*
X152267916Y-116843499D01*
X152361042Y-116669271D01*
X152418389Y-116480224D01*
X152437753Y-116283621D01*
X152962247Y-116283621D01*
X152981612Y-116480230D01*
X153038957Y-116669269D01*
X153038958Y-116669271D01*
X153132084Y-116843499D01*
X153257411Y-116996210D01*
X153410122Y-117121537D01*
X153584350Y-117214663D01*
X153773397Y-117272010D01*
X153970000Y-117291374D01*
X154166603Y-117272010D01*
X154355650Y-117214663D01*
X154529878Y-117121537D01*
X154682589Y-116996210D01*
X154807916Y-116843499D01*
X154901042Y-116669271D01*
X154958389Y-116480224D01*
X154977753Y-116283621D01*
X155502247Y-116283621D01*
X155521612Y-116480230D01*
X155578957Y-116669269D01*
X155578958Y-116669271D01*
X155672084Y-116843499D01*
X155797411Y-116996210D01*
X155950122Y-117121537D01*
X156124350Y-117214663D01*
X156313397Y-117272010D01*
X156510000Y-117291374D01*
X156706603Y-117272010D01*
X156895650Y-117214663D01*
X157069878Y-117121537D01*
X157222589Y-116996210D01*
X157347916Y-116843499D01*
X157441042Y-116669271D01*
X157498389Y-116480224D01*
X157517753Y-116283621D01*
X157498389Y-116087018D01*
X157441042Y-115897971D01*
X157347916Y-115723743D01*
X157222589Y-115571032D01*
X157069878Y-115445705D01*
X156895650Y-115352579D01*
X156895649Y-115352578D01*
X156895648Y-115352578D01*
X156706609Y-115295233D01*
X156706604Y-115295232D01*
X156706603Y-115295232D01*
X156510000Y-115275868D01*
X156509999Y-115275868D01*
X156462657Y-115280530D01*
X156313397Y-115295232D01*
X156313395Y-115295232D01*
X156313390Y-115295233D01*
X156124351Y-115352578D01*
X155950121Y-115445705D01*
X155797413Y-115571030D01*
X155797409Y-115571034D01*
X155672084Y-115723742D01*
X155578957Y-115897972D01*
X155521612Y-116087011D01*
X155502247Y-116283621D01*
X154977753Y-116283621D01*
X154958389Y-116087018D01*
X154901042Y-115897971D01*
X154901041Y-115897970D01*
X154901041Y-115897968D01*
X154854655Y-115811185D01*
X154846157Y-115751662D01*
X154870019Y-115707597D01*
X155366975Y-115210641D01*
X155368608Y-115209092D01*
X155399486Y-115181291D01*
X155409145Y-115159594D01*
X155415721Y-115147482D01*
X155428662Y-115127557D01*
X155429751Y-115120678D01*
X155436268Y-115098675D01*
X155439100Y-115092318D01*
X155439100Y-115068568D01*
X155440182Y-115054818D01*
X155443897Y-115031362D01*
X155443896Y-115031357D01*
X155442095Y-115024634D01*
X155439100Y-115001886D01*
X155439100Y-114794359D01*
X155459665Y-114737858D01*
X155511736Y-114707794D01*
X155570950Y-114718235D01*
X155575811Y-114721258D01*
X155600342Y-114737649D01*
X155644943Y-114746521D01*
X157375056Y-114746520D01*
X157375058Y-114746520D01*
X157387750Y-114743995D01*
X157419658Y-114737649D01*
X157470234Y-114703855D01*
X157504028Y-114653279D01*
X157512900Y-114608678D01*
X157512899Y-112878565D01*
X157512899Y-112878564D01*
X157512899Y-112878562D01*
X157509111Y-112859523D01*
X157504028Y-112833963D01*
X157470234Y-112783387D01*
X157465553Y-112780259D01*
X157419658Y-112749592D01*
X157382456Y-112742192D01*
X157375057Y-112740721D01*
X157375056Y-112740721D01*
X155644941Y-112740721D01*
X155600341Y-112749593D01*
X155600339Y-112749594D01*
X155575834Y-112765968D01*
X155517430Y-112780259D01*
X155463504Y-112753666D01*
X155439288Y-112698630D01*
X155439100Y-112692882D01*
X155439100Y-110496914D01*
X166749884Y-110496914D01*
X166769115Y-110729011D01*
X166769116Y-110729017D01*
X166826286Y-110954775D01*
X166826289Y-110954783D01*
X166897987Y-111118236D01*
X166919840Y-111168056D01*
X166919844Y-111168062D01*
X167047215Y-111363020D01*
X167047216Y-111363022D01*
X167173979Y-111500724D01*
X167204954Y-111534371D01*
X167388740Y-111677417D01*
X167593563Y-111788262D01*
X167813837Y-111863882D01*
X167813839Y-111863882D01*
X167813841Y-111863883D01*
X168043550Y-111902215D01*
X168043554Y-111902215D01*
X168276450Y-111902215D01*
X168506158Y-111863883D01*
X168506158Y-111863882D01*
X168506163Y-111863882D01*
X168726437Y-111788262D01*
X168931260Y-111677417D01*
X169115046Y-111534371D01*
X169272780Y-111363026D01*
X169400160Y-111168056D01*
X169493712Y-110954779D01*
X169550884Y-110729012D01*
X169570116Y-110496915D01*
X169550884Y-110264818D01*
X169550883Y-110264812D01*
X169493713Y-110039054D01*
X169493710Y-110039046D01*
X169400164Y-109825784D01*
X169400160Y-109825774D01*
X169319435Y-109702215D01*
X169272784Y-109630809D01*
X169272783Y-109630807D01*
X169115050Y-109459463D01*
X169115048Y-109459462D01*
X169115046Y-109459459D01*
X168931260Y-109316413D01*
X168726437Y-109205568D01*
X168726433Y-109205566D01*
X168726430Y-109205565D01*
X168506167Y-109129949D01*
X168506158Y-109129946D01*
X168276450Y-109091615D01*
X168276446Y-109091615D01*
X168043554Y-109091615D01*
X168043550Y-109091615D01*
X167813841Y-109129946D01*
X167813832Y-109129949D01*
X167593569Y-109205565D01*
X167388740Y-109316413D01*
X167204949Y-109459463D01*
X167047216Y-109630807D01*
X167047215Y-109630809D01*
X166919844Y-109825767D01*
X166919835Y-109825784D01*
X166826289Y-110039046D01*
X166826286Y-110039054D01*
X166769116Y-110264812D01*
X166769115Y-110264818D01*
X166749884Y-110496914D01*
X155439100Y-110496914D01*
X155439100Y-102804926D01*
X155459665Y-102748425D01*
X155464845Y-102742771D01*
X155691666Y-102515950D01*
X155702291Y-102505325D01*
X160757100Y-102505325D01*
X160757101Y-102505327D01*
X160772042Y-102599672D01*
X160772043Y-102599675D01*
X160820793Y-102695354D01*
X160829984Y-102713391D01*
X160920230Y-102803637D01*
X161033946Y-102861578D01*
X161128293Y-102876521D01*
X162116706Y-102876520D01*
X162211054Y-102861578D01*
X162324770Y-102803637D01*
X162415016Y-102713391D01*
X162472957Y-102599675D01*
X162487900Y-102505328D01*
X162487900Y-102505325D01*
X163732100Y-102505325D01*
X163732101Y-102505327D01*
X163747042Y-102599672D01*
X163747043Y-102599675D01*
X163795793Y-102695354D01*
X163804984Y-102713391D01*
X163895230Y-102803637D01*
X164008946Y-102861578D01*
X164103293Y-102876521D01*
X165091706Y-102876520D01*
X165186054Y-102861578D01*
X165299770Y-102803637D01*
X165390016Y-102713391D01*
X165447957Y-102599675D01*
X165462900Y-102505328D01*
X165462899Y-101191915D01*
X165447957Y-101097567D01*
X165390016Y-100983851D01*
X165315644Y-100909479D01*
X165290234Y-100854987D01*
X165289900Y-100847326D01*
X165289900Y-98789420D01*
X165310465Y-98732919D01*
X165362536Y-98702855D01*
X165377800Y-98701520D01*
X165525058Y-98701520D01*
X165537750Y-98698995D01*
X165569658Y-98692649D01*
X165620234Y-98658855D01*
X165654028Y-98608279D01*
X165662900Y-98563678D01*
X165662899Y-97533565D01*
X165662899Y-97533564D01*
X165662899Y-97533562D01*
X165654694Y-97492314D01*
X165654028Y-97488963D01*
X165620234Y-97438387D01*
X165620002Y-97438232D01*
X165569658Y-97404592D01*
X165532456Y-97397192D01*
X165525057Y-97395721D01*
X165525056Y-97395721D01*
X164494941Y-97395721D01*
X164450341Y-97404593D01*
X164399767Y-97438386D01*
X164399764Y-97438389D01*
X164365971Y-97488962D01*
X164357100Y-97533564D01*
X164357100Y-98563679D01*
X164365972Y-98608279D01*
X164399766Y-98658855D01*
X164416701Y-98670171D01*
X164450341Y-98692649D01*
X164457741Y-98694120D01*
X164494943Y-98701521D01*
X164642200Y-98701520D01*
X164698701Y-98722084D01*
X164728765Y-98774156D01*
X164730100Y-98789420D01*
X164730100Y-100732821D01*
X164709535Y-100789322D01*
X164657464Y-100819386D01*
X164642200Y-100820721D01*
X164103295Y-100820721D01*
X164103293Y-100820722D01*
X164008948Y-100835663D01*
X164008945Y-100835664D01*
X163895232Y-100893603D01*
X163804982Y-100983853D01*
X163747042Y-101097568D01*
X163732100Y-101191915D01*
X163732100Y-102505325D01*
X162487900Y-102505325D01*
X162487899Y-101191915D01*
X162472957Y-101097567D01*
X162415016Y-100983851D01*
X162324770Y-100893605D01*
X162324767Y-100893603D01*
X162211052Y-100835663D01*
X162211053Y-100835663D01*
X162131648Y-100823087D01*
X162116707Y-100820721D01*
X162116706Y-100820721D01*
X161990300Y-100820721D01*
X161933799Y-100800156D01*
X161903735Y-100748085D01*
X161902400Y-100732821D01*
X161902400Y-98538469D01*
X161922965Y-98481968D01*
X161928145Y-98476314D01*
X164727194Y-95677265D01*
X164781688Y-95651854D01*
X164789349Y-95651520D01*
X165525058Y-95651520D01*
X165537750Y-95648995D01*
X165569658Y-95642649D01*
X165620234Y-95608855D01*
X165654028Y-95558279D01*
X165662900Y-95513678D01*
X165662899Y-94483565D01*
X165662899Y-94483564D01*
X165662899Y-94483562D01*
X165659111Y-94464523D01*
X165654028Y-94438963D01*
X165620234Y-94388387D01*
X165620002Y-94388232D01*
X165569658Y-94354592D01*
X165532456Y-94347192D01*
X165525057Y-94345721D01*
X165525056Y-94345721D01*
X164494941Y-94345721D01*
X164450341Y-94354593D01*
X164399767Y-94388386D01*
X164399764Y-94388389D01*
X164365971Y-94438962D01*
X164357100Y-94483564D01*
X164357100Y-95219272D01*
X164336535Y-95275773D01*
X164331355Y-95281427D01*
X161467001Y-98145780D01*
X161456775Y-98153149D01*
X161457401Y-98153977D01*
X161450903Y-98158884D01*
X161420681Y-98192034D01*
X161419282Y-98193499D01*
X161406241Y-98206542D01*
X161406238Y-98206545D01*
X161404280Y-98209403D01*
X161400505Y-98214167D01*
X161380403Y-98236219D01*
X161380398Y-98236227D01*
X161376913Y-98245223D01*
X161367471Y-98263138D01*
X161362013Y-98271105D01*
X161355182Y-98300149D01*
X161353380Y-98305968D01*
X161342600Y-98333797D01*
X161342600Y-98343453D01*
X161340265Y-98363577D01*
X161338056Y-98372969D01*
X161342178Y-98402519D01*
X161342600Y-98408598D01*
X161342600Y-100732821D01*
X161322035Y-100789322D01*
X161269964Y-100819386D01*
X161254701Y-100820721D01*
X161128295Y-100820721D01*
X161128293Y-100820722D01*
X161033948Y-100835663D01*
X161033945Y-100835664D01*
X160920232Y-100893603D01*
X160829982Y-100983853D01*
X160772042Y-101097568D01*
X160757100Y-101191915D01*
X160757100Y-102505325D01*
X155702291Y-102505325D01*
X155933975Y-102273640D01*
X155988468Y-102248230D01*
X156037562Y-102258274D01*
X156124350Y-102304663D01*
X156218516Y-102333228D01*
X156309546Y-102360842D01*
X156313397Y-102362010D01*
X156510000Y-102381374D01*
X156706603Y-102362010D01*
X156895650Y-102304663D01*
X157069878Y-102211537D01*
X157222589Y-102086210D01*
X157347916Y-101933499D01*
X157441042Y-101759271D01*
X157498389Y-101570224D01*
X157517753Y-101373621D01*
X157498389Y-101177018D01*
X157441042Y-100987971D01*
X157347916Y-100813743D01*
X157222589Y-100661032D01*
X157069878Y-100535705D01*
X156895650Y-100442579D01*
X156895649Y-100442578D01*
X156895648Y-100442578D01*
X156706609Y-100385233D01*
X156706604Y-100385232D01*
X156706603Y-100385232D01*
X156510000Y-100365868D01*
X156509999Y-100365868D01*
X156462657Y-100370530D01*
X156313397Y-100385232D01*
X156313395Y-100385232D01*
X156313390Y-100385233D01*
X156124351Y-100442578D01*
X155950121Y-100535705D01*
X155797413Y-100661030D01*
X155797409Y-100661034D01*
X155672084Y-100813742D01*
X155578957Y-100987972D01*
X155521612Y-101177011D01*
X155502247Y-101373621D01*
X155521612Y-101570230D01*
X155578957Y-101759269D01*
X155625344Y-101846053D01*
X155633842Y-101905577D01*
X155609978Y-101949644D01*
X155053040Y-102506582D01*
X155051372Y-102508165D01*
X155020514Y-102535950D01*
X155016506Y-102544950D01*
X155010849Y-102557655D01*
X155004278Y-102569758D01*
X154995226Y-102583697D01*
X154991338Y-102589686D01*
X154990248Y-102596568D01*
X154983735Y-102618555D01*
X154980900Y-102624924D01*
X154980900Y-102648672D01*
X154979818Y-102662421D01*
X154976103Y-102685876D01*
X154976103Y-102685879D01*
X154977905Y-102692603D01*
X154980900Y-102715354D01*
X154980900Y-113156457D01*
X154960335Y-113212958D01*
X154908264Y-113243022D01*
X154849050Y-113232581D01*
X154815480Y-113197894D01*
X154813331Y-113193874D01*
X154807916Y-113183743D01*
X154682589Y-113031032D01*
X154529878Y-112905705D01*
X154355650Y-112812579D01*
X154261483Y-112784013D01*
X154213385Y-112747932D01*
X154199100Y-112699898D01*
X154199100Y-102417343D01*
X154219665Y-102360842D01*
X154261484Y-102333228D01*
X154263020Y-102332761D01*
X154355650Y-102304663D01*
X154529878Y-102211537D01*
X154682589Y-102086210D01*
X154807916Y-101933499D01*
X154901042Y-101759271D01*
X154958389Y-101570224D01*
X154977753Y-101373621D01*
X154958389Y-101177018D01*
X154901042Y-100987971D01*
X154807916Y-100813743D01*
X154682589Y-100661032D01*
X154529878Y-100535705D01*
X154355650Y-100442579D01*
X154355649Y-100442578D01*
X154355648Y-100442578D01*
X154166609Y-100385233D01*
X154166604Y-100385232D01*
X154166603Y-100385232D01*
X153970000Y-100365868D01*
X153773397Y-100385232D01*
X153773395Y-100385232D01*
X153773390Y-100385233D01*
X153584351Y-100442578D01*
X153410121Y-100535705D01*
X153257413Y-100661030D01*
X153257409Y-100661034D01*
X153132084Y-100813742D01*
X153038957Y-100987972D01*
X152981612Y-101177011D01*
X152962247Y-101373620D01*
X152981612Y-101570230D01*
X153037563Y-101754673D01*
X153038958Y-101759271D01*
X153132084Y-101933499D01*
X153257411Y-102086210D01*
X153410122Y-102211537D01*
X153584350Y-102304663D01*
X153675491Y-102332310D01*
X153678516Y-102333228D01*
X153726614Y-102369308D01*
X153740900Y-102417343D01*
X153740900Y-112699898D01*
X153720335Y-112756399D01*
X153678516Y-112784013D01*
X153584354Y-112812578D01*
X153584347Y-112812580D01*
X153410121Y-112905705D01*
X153257413Y-113031030D01*
X153257409Y-113031034D01*
X153132084Y-113183742D01*
X153038957Y-113357972D01*
X152981612Y-113547011D01*
X152962247Y-113743620D01*
X152981612Y-113940230D01*
X153038957Y-114129269D01*
X153038958Y-114129271D01*
X153132084Y-114303499D01*
X153257411Y-114456210D01*
X153410122Y-114581537D01*
X153584350Y-114674663D01*
X153773397Y-114732010D01*
X153970000Y-114751374D01*
X154166603Y-114732010D01*
X154355650Y-114674663D01*
X154529878Y-114581537D01*
X154682589Y-114456210D01*
X154807916Y-114303499D01*
X154815479Y-114289348D01*
X154860249Y-114249213D01*
X154920344Y-114247245D01*
X154967644Y-114284366D01*
X154980900Y-114330784D01*
X154980900Y-114912314D01*
X154960335Y-114968815D01*
X154955155Y-114974469D01*
X154546024Y-115383599D01*
X154491530Y-115409010D01*
X154442434Y-115398965D01*
X154355652Y-115352579D01*
X154355648Y-115352578D01*
X154166609Y-115295233D01*
X154166604Y-115295232D01*
X154166603Y-115295232D01*
X153970000Y-115275868D01*
X153773397Y-115295232D01*
X153773395Y-115295232D01*
X153773390Y-115295233D01*
X153584351Y-115352578D01*
X153410121Y-115445705D01*
X153257413Y-115571030D01*
X153257409Y-115571034D01*
X153132084Y-115723742D01*
X153038957Y-115897972D01*
X152981612Y-116087011D01*
X152962247Y-116283621D01*
X152437753Y-116283621D01*
X152418389Y-116087018D01*
X152361042Y-115897971D01*
X152267916Y-115723743D01*
X152142589Y-115571032D01*
X151989878Y-115445705D01*
X151815650Y-115352579D01*
X151815649Y-115352578D01*
X151815648Y-115352578D01*
X151626609Y-115295233D01*
X151626604Y-115295232D01*
X151626603Y-115295232D01*
X151430000Y-115275868D01*
X151429999Y-115275868D01*
X151382657Y-115280530D01*
X151233397Y-115295232D01*
X151233395Y-115295232D01*
X151233390Y-115295233D01*
X151044351Y-115352578D01*
X150870121Y-115445705D01*
X150717413Y-115571030D01*
X150717409Y-115571034D01*
X150592084Y-115723742D01*
X150498957Y-115897972D01*
X150441612Y-116087011D01*
X150422247Y-116283621D01*
X149897753Y-116283621D01*
X149878389Y-116087018D01*
X149821042Y-115897971D01*
X149727916Y-115723743D01*
X149602589Y-115571032D01*
X149449878Y-115445705D01*
X149275650Y-115352579D01*
X149275649Y-115352578D01*
X149275648Y-115352578D01*
X149086609Y-115295233D01*
X149086604Y-115295232D01*
X149086603Y-115295232D01*
X148890000Y-115275868D01*
X148889999Y-115275868D01*
X148842657Y-115280530D01*
X148693397Y-115295232D01*
X148693395Y-115295232D01*
X148693390Y-115295233D01*
X148504351Y-115352578D01*
X148504347Y-115352579D01*
X148417565Y-115398965D01*
X148358041Y-115407463D01*
X148313975Y-115383599D01*
X147864845Y-114934469D01*
X147839434Y-114879975D01*
X147839100Y-114872314D01*
X147839100Y-114255949D01*
X147859665Y-114199448D01*
X147911736Y-114169384D01*
X147970950Y-114179825D01*
X148004520Y-114214513D01*
X148052084Y-114303499D01*
X148177411Y-114456210D01*
X148330122Y-114581537D01*
X148504350Y-114674663D01*
X148693397Y-114732010D01*
X148890000Y-114751374D01*
X149086603Y-114732010D01*
X149275650Y-114674663D01*
X149449878Y-114581537D01*
X149602589Y-114456210D01*
X149727916Y-114303499D01*
X149821042Y-114129271D01*
X149878389Y-113940224D01*
X149897753Y-113743621D01*
X149897753Y-113743620D01*
X150422247Y-113743620D01*
X150441612Y-113940230D01*
X150498957Y-114129269D01*
X150498958Y-114129271D01*
X150592084Y-114303499D01*
X150717411Y-114456210D01*
X150870122Y-114581537D01*
X151044350Y-114674663D01*
X151233397Y-114732010D01*
X151430000Y-114751374D01*
X151626603Y-114732010D01*
X151815650Y-114674663D01*
X151989878Y-114581537D01*
X152142589Y-114456210D01*
X152267916Y-114303499D01*
X152361042Y-114129271D01*
X152418389Y-113940224D01*
X152437753Y-113743621D01*
X152418389Y-113547018D01*
X152361042Y-113357971D01*
X152267916Y-113183743D01*
X152142589Y-113031032D01*
X151989878Y-112905705D01*
X151815650Y-112812579D01*
X151721483Y-112784013D01*
X151673385Y-112747932D01*
X151659100Y-112699898D01*
X151659100Y-102417343D01*
X151679665Y-102360842D01*
X151721484Y-102333228D01*
X151723020Y-102332761D01*
X151815650Y-102304663D01*
X151989878Y-102211537D01*
X152142589Y-102086210D01*
X152267916Y-101933499D01*
X152361042Y-101759271D01*
X152418389Y-101570224D01*
X152437753Y-101373621D01*
X152418389Y-101177018D01*
X152361042Y-100987971D01*
X152267916Y-100813743D01*
X152142589Y-100661032D01*
X151989878Y-100535705D01*
X151815650Y-100442579D01*
X151815649Y-100442578D01*
X151815648Y-100442578D01*
X151626609Y-100385233D01*
X151626604Y-100385232D01*
X151626603Y-100385232D01*
X151430000Y-100365868D01*
X151233397Y-100385232D01*
X151233395Y-100385232D01*
X151233390Y-100385233D01*
X151044351Y-100442578D01*
X150870121Y-100535705D01*
X150717413Y-100661030D01*
X150717409Y-100661034D01*
X150592084Y-100813742D01*
X150498957Y-100987972D01*
X150441612Y-101177011D01*
X150422247Y-101373621D01*
X150441612Y-101570230D01*
X150497563Y-101754673D01*
X150498958Y-101759271D01*
X150592084Y-101933499D01*
X150717411Y-102086210D01*
X150870122Y-102211537D01*
X151044350Y-102304663D01*
X151135491Y-102332310D01*
X151138516Y-102333228D01*
X151186614Y-102369308D01*
X151200900Y-102417343D01*
X151200900Y-112699898D01*
X151180335Y-112756399D01*
X151138516Y-112784013D01*
X151044354Y-112812578D01*
X151044347Y-112812580D01*
X150870121Y-112905705D01*
X150717413Y-113031030D01*
X150717409Y-113031034D01*
X150592084Y-113183742D01*
X150498957Y-113357972D01*
X150441612Y-113547011D01*
X150422247Y-113743620D01*
X149897753Y-113743620D01*
X149878389Y-113547018D01*
X149821042Y-113357971D01*
X149727916Y-113183743D01*
X149602589Y-113031032D01*
X149449878Y-112905705D01*
X149275650Y-112812579D01*
X149275649Y-112812578D01*
X149275648Y-112812578D01*
X149086609Y-112755233D01*
X149086604Y-112755232D01*
X149086603Y-112755232D01*
X148890000Y-112735868D01*
X148693397Y-112755232D01*
X148693395Y-112755232D01*
X148693390Y-112755233D01*
X148504351Y-112812578D01*
X148330121Y-112905705D01*
X148177413Y-113031030D01*
X148177409Y-113031034D01*
X148052084Y-113183742D01*
X148004521Y-113272728D01*
X147959750Y-113312863D01*
X147899655Y-113314830D01*
X147852355Y-113277709D01*
X147839100Y-113231292D01*
X147839100Y-102784926D01*
X147859665Y-102728425D01*
X147864845Y-102722771D01*
X148082291Y-102505325D01*
X148313975Y-102273640D01*
X148368468Y-102248230D01*
X148417562Y-102258274D01*
X148504350Y-102304663D01*
X148598516Y-102333228D01*
X148689546Y-102360842D01*
X148693397Y-102362010D01*
X148890000Y-102381374D01*
X149086603Y-102362010D01*
X149275650Y-102304663D01*
X149449878Y-102211537D01*
X149602589Y-102086210D01*
X149727916Y-101933499D01*
X149821042Y-101759271D01*
X149878389Y-101570224D01*
X149897753Y-101373621D01*
X149878389Y-101177018D01*
X149821042Y-100987971D01*
X149727916Y-100813743D01*
X149602589Y-100661032D01*
X149449878Y-100535705D01*
X149275650Y-100442579D01*
X149275649Y-100442578D01*
X149275648Y-100442578D01*
X149086609Y-100385233D01*
X149086604Y-100385232D01*
X149086603Y-100385232D01*
X148890000Y-100365868D01*
X148889999Y-100365868D01*
X148842657Y-100370530D01*
X148693397Y-100385232D01*
X148693395Y-100385232D01*
X148693390Y-100385233D01*
X148504351Y-100442578D01*
X148330121Y-100535705D01*
X148177413Y-100661030D01*
X148177409Y-100661034D01*
X148052084Y-100813742D01*
X147958957Y-100987972D01*
X147901612Y-101177011D01*
X147882247Y-101373621D01*
X147901612Y-101570230D01*
X147958957Y-101759269D01*
X148005344Y-101846053D01*
X148013842Y-101905577D01*
X147989978Y-101949644D01*
X147453040Y-102486582D01*
X147451372Y-102488165D01*
X147420514Y-102515950D01*
X147420513Y-102515951D01*
X147420514Y-102515951D01*
X147410849Y-102537655D01*
X147404278Y-102549758D01*
X147395226Y-102563697D01*
X147391338Y-102569686D01*
X147390248Y-102576568D01*
X147383735Y-102598555D01*
X147380900Y-102604924D01*
X147380900Y-102628672D01*
X147379818Y-102642421D01*
X147376103Y-102665876D01*
X147376103Y-102665879D01*
X147377905Y-102672603D01*
X147380900Y-102695354D01*
X147380900Y-113193874D01*
X147360335Y-113250375D01*
X147308264Y-113280439D01*
X147249050Y-113269998D01*
X147215479Y-113235310D01*
X147210490Y-113225976D01*
X147187916Y-113183743D01*
X147062589Y-113031032D01*
X146909878Y-112905705D01*
X146735650Y-112812579D01*
X146641483Y-112784013D01*
X146593385Y-112747932D01*
X146579100Y-112699898D01*
X146579100Y-102417343D01*
X146599665Y-102360842D01*
X146641484Y-102333228D01*
X146643020Y-102332761D01*
X146735650Y-102304663D01*
X146909878Y-102211537D01*
X147062589Y-102086210D01*
X147187916Y-101933499D01*
X147281042Y-101759271D01*
X147338389Y-101570224D01*
X147357753Y-101373621D01*
X147338389Y-101177018D01*
X147281042Y-100987971D01*
X147187916Y-100813743D01*
X147062589Y-100661032D01*
X146909878Y-100535705D01*
X146735650Y-100442579D01*
X146735649Y-100442578D01*
X146735648Y-100442578D01*
X146546609Y-100385233D01*
X146546604Y-100385232D01*
X146546603Y-100385232D01*
X146350000Y-100365868D01*
X146153397Y-100385232D01*
X146153395Y-100385232D01*
X146153390Y-100385233D01*
X145964351Y-100442578D01*
X145790121Y-100535705D01*
X145637413Y-100661030D01*
X145637409Y-100661034D01*
X145512084Y-100813742D01*
X145418957Y-100987972D01*
X145361612Y-101177011D01*
X145342247Y-101373621D01*
X145361612Y-101570230D01*
X145417563Y-101754673D01*
X145418958Y-101759271D01*
X145512084Y-101933499D01*
X145637411Y-102086210D01*
X145790122Y-102211537D01*
X145964350Y-102304663D01*
X146055491Y-102332310D01*
X146058516Y-102333228D01*
X146106614Y-102369308D01*
X146120900Y-102417343D01*
X146120900Y-112699898D01*
X146100335Y-112756399D01*
X146058516Y-112784013D01*
X145964354Y-112812578D01*
X145964347Y-112812580D01*
X145790121Y-112905705D01*
X145637413Y-113031030D01*
X145637409Y-113031034D01*
X145512084Y-113183742D01*
X145418957Y-113357972D01*
X145361612Y-113547011D01*
X145342247Y-113743621D01*
X144817753Y-113743621D01*
X144798389Y-113547018D01*
X144741042Y-113357971D01*
X144647916Y-113183743D01*
X144617851Y-113147108D01*
X144597900Y-113091346D01*
X144597900Y-102463787D01*
X144618465Y-102407286D01*
X144670536Y-102377222D01*
X144673728Y-102376784D01*
X144675055Y-102376520D01*
X144675056Y-102376520D01*
X144719658Y-102367649D01*
X144770234Y-102333855D01*
X144804028Y-102283279D01*
X144812900Y-102238678D01*
X144812899Y-100508565D01*
X144812899Y-100508564D01*
X144812899Y-100508562D01*
X144809111Y-100489523D01*
X144804028Y-100463963D01*
X144770234Y-100413387D01*
X144770002Y-100413232D01*
X144719658Y-100379592D01*
X144682456Y-100372192D01*
X144675057Y-100370721D01*
X144675056Y-100370721D01*
X142944941Y-100370721D01*
X142900341Y-100379593D01*
X142849767Y-100413386D01*
X142849764Y-100413389D01*
X142815971Y-100463962D01*
X142807100Y-100508564D01*
X142807100Y-102238679D01*
X142814055Y-102273641D01*
X142815972Y-102283279D01*
X142849766Y-102333855D01*
X142866701Y-102345171D01*
X142900341Y-102367649D01*
X142908682Y-102369308D01*
X142944943Y-102376521D01*
X142944944Y-102376520D01*
X142949178Y-102377363D01*
X142948813Y-102379195D01*
X142997009Y-102402293D01*
X143021842Y-102457053D01*
X143022100Y-102463787D01*
X143022100Y-113091346D01*
X143002149Y-113147108D01*
X142972084Y-113183742D01*
X142878957Y-113357972D01*
X142821612Y-113547011D01*
X142802247Y-113743621D01*
X134394061Y-113743621D01*
X130509248Y-111500723D01*
X130470600Y-111454664D01*
X130465300Y-111424605D01*
X130465300Y-110496915D01*
X130749884Y-110496915D01*
X130769115Y-110729011D01*
X130769116Y-110729017D01*
X130826286Y-110954775D01*
X130826289Y-110954783D01*
X130897987Y-111118236D01*
X130919840Y-111168056D01*
X130919844Y-111168062D01*
X131047215Y-111363020D01*
X131047216Y-111363022D01*
X131173979Y-111500724D01*
X131204954Y-111534371D01*
X131388740Y-111677417D01*
X131593563Y-111788262D01*
X131813837Y-111863882D01*
X131813839Y-111863882D01*
X131813841Y-111863883D01*
X132043550Y-111902215D01*
X132043554Y-111902215D01*
X132276450Y-111902215D01*
X132506158Y-111863883D01*
X132506158Y-111863882D01*
X132506163Y-111863882D01*
X132726437Y-111788262D01*
X132931260Y-111677417D01*
X133115046Y-111534371D01*
X133272780Y-111363026D01*
X133400160Y-111168056D01*
X133493712Y-110954779D01*
X133550884Y-110729012D01*
X133570116Y-110496915D01*
X133550884Y-110264818D01*
X133550883Y-110264812D01*
X133493713Y-110039054D01*
X133493710Y-110039046D01*
X133400164Y-109825784D01*
X133400160Y-109825774D01*
X133319435Y-109702215D01*
X133272784Y-109630809D01*
X133272783Y-109630807D01*
X133115050Y-109459463D01*
X133115048Y-109459462D01*
X133115046Y-109459459D01*
X132931260Y-109316413D01*
X132726437Y-109205568D01*
X132726433Y-109205566D01*
X132726430Y-109205565D01*
X132506167Y-109129949D01*
X132506158Y-109129946D01*
X132276450Y-109091615D01*
X132276446Y-109091615D01*
X132043554Y-109091615D01*
X132043550Y-109091615D01*
X131813841Y-109129946D01*
X131813832Y-109129949D01*
X131593569Y-109205565D01*
X131388740Y-109316413D01*
X131204949Y-109459463D01*
X131047216Y-109630807D01*
X131047215Y-109630809D01*
X130919844Y-109825767D01*
X130919835Y-109825784D01*
X130826289Y-110039046D01*
X130826286Y-110039054D01*
X130769116Y-110264812D01*
X130769115Y-110264818D01*
X130749884Y-110496915D01*
X130465300Y-110496915D01*
X130465300Y-105204610D01*
X135694837Y-105204610D01*
X135713861Y-105446328D01*
X135713862Y-105446335D01*
X135770462Y-105682092D01*
X135863249Y-105906096D01*
X135863254Y-105906106D01*
X135989937Y-106112834D01*
X136147400Y-106297200D01*
X136147409Y-106297209D01*
X136294901Y-106423179D01*
X136331776Y-106454673D01*
X136538511Y-106581360D01*
X136687848Y-106643218D01*
X136762517Y-106674147D01*
X136998274Y-106730747D01*
X136998275Y-106730747D01*
X136998283Y-106730749D01*
X137219349Y-106748147D01*
X137239999Y-106749773D01*
X137239999Y-106749772D01*
X137240000Y-106749773D01*
X137481717Y-106730749D01*
X137717482Y-106674147D01*
X137941489Y-106581360D01*
X138148224Y-106454673D01*
X138332595Y-106297205D01*
X138490063Y-106112834D01*
X138616750Y-105906099D01*
X138709537Y-105682092D01*
X138766139Y-105446327D01*
X138785163Y-105204610D01*
X138766139Y-104962893D01*
X138709537Y-104727128D01*
X138616750Y-104503121D01*
X138490063Y-104296386D01*
X138458569Y-104259511D01*
X138332599Y-104112019D01*
X138332590Y-104112010D01*
X138148224Y-103954547D01*
X137941496Y-103827864D01*
X137941493Y-103827862D01*
X137941489Y-103827860D01*
X137897745Y-103809741D01*
X137717482Y-103735072D01*
X137481725Y-103678472D01*
X137481718Y-103678471D01*
X137240000Y-103659447D01*
X136998281Y-103678471D01*
X136998274Y-103678472D01*
X136762517Y-103735072D01*
X136538513Y-103827859D01*
X136538503Y-103827864D01*
X136331775Y-103954547D01*
X136147409Y-104112010D01*
X136147400Y-104112019D01*
X135989937Y-104296385D01*
X135863254Y-104503113D01*
X135863249Y-104503123D01*
X135770462Y-104727127D01*
X135713862Y-104962884D01*
X135713861Y-104962891D01*
X135694837Y-105204609D01*
X135694837Y-105204610D01*
X130465300Y-105204610D01*
X130465300Y-100504610D01*
X135694837Y-100504610D01*
X135713861Y-100746328D01*
X135713862Y-100746335D01*
X135770462Y-100982092D01*
X135818294Y-101097566D01*
X135857374Y-101191914D01*
X135863249Y-101206096D01*
X135863254Y-101206106D01*
X135989937Y-101412834D01*
X136147400Y-101597200D01*
X136147409Y-101597209D01*
X136294901Y-101723179D01*
X136331776Y-101754673D01*
X136538511Y-101881360D01*
X136687848Y-101943218D01*
X136762517Y-101974147D01*
X136998274Y-102030747D01*
X136998275Y-102030747D01*
X136998283Y-102030749D01*
X137240000Y-102049773D01*
X137481717Y-102030749D01*
X137717482Y-101974147D01*
X137941489Y-101881360D01*
X138148224Y-101754673D01*
X138332595Y-101597205D01*
X138490063Y-101412834D01*
X138616750Y-101206099D01*
X138709537Y-100982092D01*
X138766139Y-100746327D01*
X138785163Y-100504610D01*
X138766139Y-100262893D01*
X138709537Y-100027128D01*
X138616750Y-99803121D01*
X138490063Y-99596386D01*
X138447206Y-99546207D01*
X138332599Y-99412019D01*
X138332590Y-99412010D01*
X138148224Y-99254547D01*
X137941496Y-99127864D01*
X137941493Y-99127862D01*
X137941489Y-99127860D01*
X137897745Y-99109741D01*
X137717482Y-99035072D01*
X137481725Y-98978472D01*
X137481718Y-98978471D01*
X137240000Y-98959447D01*
X136998281Y-98978471D01*
X136998274Y-98978472D01*
X136762517Y-99035072D01*
X136538513Y-99127859D01*
X136538503Y-99127864D01*
X136331775Y-99254547D01*
X136147409Y-99412010D01*
X136147400Y-99412019D01*
X135989937Y-99596385D01*
X135863254Y-99803113D01*
X135863249Y-99803123D01*
X135770462Y-100027127D01*
X135713862Y-100262884D01*
X135713861Y-100262891D01*
X135694837Y-100504609D01*
X135694837Y-100504610D01*
X130465300Y-100504610D01*
X130465300Y-98833620D01*
X142802247Y-98833620D01*
X142821612Y-99030230D01*
X142878957Y-99219269D01*
X142878958Y-99219271D01*
X142972084Y-99393499D01*
X143097411Y-99546210D01*
X143250122Y-99671537D01*
X143424350Y-99764663D01*
X143613397Y-99822010D01*
X143810000Y-99841374D01*
X144006603Y-99822010D01*
X144195650Y-99764663D01*
X144369878Y-99671537D01*
X144522589Y-99546210D01*
X144647916Y-99393499D01*
X144741042Y-99219271D01*
X144798389Y-99030224D01*
X144817753Y-98833621D01*
X144798389Y-98637018D01*
X144741042Y-98447971D01*
X144694653Y-98361183D01*
X144686156Y-98301663D01*
X144710018Y-98257597D01*
X146506965Y-96460650D01*
X146508598Y-96459101D01*
X146539486Y-96431291D01*
X146549145Y-96409594D01*
X146555719Y-96397485D01*
X146568661Y-96377558D01*
X146569749Y-96370683D01*
X146576269Y-96348676D01*
X146579100Y-96342318D01*
X146579100Y-96318563D01*
X146580182Y-96304813D01*
X146583896Y-96281363D01*
X146582095Y-96274641D01*
X146579100Y-96251892D01*
X146579100Y-87509321D01*
X146599665Y-87452820D01*
X146641484Y-87425206D01*
X146645980Y-87423842D01*
X146735650Y-87396641D01*
X146909878Y-87303515D01*
X147062589Y-87178188D01*
X147175053Y-87041150D01*
X147226793Y-87010521D01*
X147286117Y-87020316D01*
X147325266Y-87065951D01*
X147330900Y-87096914D01*
X147330900Y-97492314D01*
X147310335Y-97548815D01*
X147305155Y-97554469D01*
X146926024Y-97933599D01*
X146871530Y-97959010D01*
X146822434Y-97948965D01*
X146735652Y-97902579D01*
X146735648Y-97902578D01*
X146546609Y-97845233D01*
X146546604Y-97845232D01*
X146546603Y-97845232D01*
X146350000Y-97825868D01*
X146153397Y-97845232D01*
X146153395Y-97845232D01*
X146153390Y-97845233D01*
X145964351Y-97902578D01*
X145790121Y-97995705D01*
X145637413Y-98121030D01*
X145637409Y-98121034D01*
X145512084Y-98273742D01*
X145418957Y-98447972D01*
X145361612Y-98637011D01*
X145361611Y-98637016D01*
X145361611Y-98637018D01*
X145349328Y-98761732D01*
X145342247Y-98833620D01*
X145361612Y-99030230D01*
X145418957Y-99219269D01*
X145418958Y-99219271D01*
X145512084Y-99393499D01*
X145637411Y-99546210D01*
X145790122Y-99671537D01*
X145964350Y-99764663D01*
X146153397Y-99822010D01*
X146350000Y-99841374D01*
X146546603Y-99822010D01*
X146735650Y-99764663D01*
X146909878Y-99671537D01*
X147062589Y-99546210D01*
X147187916Y-99393499D01*
X147281042Y-99219271D01*
X147338389Y-99030224D01*
X147357753Y-98833621D01*
X147882247Y-98833621D01*
X147901612Y-99030230D01*
X147958957Y-99219269D01*
X147958958Y-99219271D01*
X148052084Y-99393499D01*
X148177411Y-99546210D01*
X148330122Y-99671537D01*
X148504350Y-99764663D01*
X148693397Y-99822010D01*
X148890000Y-99841374D01*
X149086603Y-99822010D01*
X149275650Y-99764663D01*
X149449878Y-99671537D01*
X149602589Y-99546210D01*
X149727916Y-99393499D01*
X149821042Y-99219271D01*
X149878389Y-99030224D01*
X149897753Y-98833621D01*
X150422247Y-98833621D01*
X150441612Y-99030230D01*
X150498957Y-99219269D01*
X150498958Y-99219271D01*
X150592084Y-99393499D01*
X150717411Y-99546210D01*
X150870122Y-99671537D01*
X151044350Y-99764663D01*
X151233397Y-99822010D01*
X151430000Y-99841374D01*
X151626603Y-99822010D01*
X151815650Y-99764663D01*
X151989878Y-99671537D01*
X152142589Y-99546210D01*
X152267916Y-99393499D01*
X152361042Y-99219271D01*
X152418389Y-99030224D01*
X152437753Y-98833621D01*
X152962247Y-98833621D01*
X152981612Y-99030230D01*
X153038957Y-99219269D01*
X153038958Y-99219271D01*
X153132084Y-99393499D01*
X153257411Y-99546210D01*
X153410122Y-99671537D01*
X153584350Y-99764663D01*
X153773397Y-99822010D01*
X153970000Y-99841374D01*
X154166603Y-99822010D01*
X154355650Y-99764663D01*
X154529878Y-99671537D01*
X154682589Y-99546210D01*
X154807916Y-99393499D01*
X154901042Y-99219271D01*
X154958389Y-99030224D01*
X154977753Y-98833621D01*
X154958389Y-98637018D01*
X154940977Y-98579620D01*
X155513001Y-98579620D01*
X155513002Y-98579621D01*
X156078884Y-98579621D01*
X156050507Y-98623777D01*
X156010000Y-98761732D01*
X156010000Y-98905510D01*
X156050507Y-99043465D01*
X156078884Y-99087621D01*
X155513002Y-99087621D01*
X155555840Y-99228841D01*
X155555840Y-99228843D01*
X155651281Y-99407399D01*
X155779717Y-99563899D01*
X155779721Y-99563903D01*
X155936221Y-99692339D01*
X156114778Y-99787780D01*
X156255999Y-99830619D01*
X156256000Y-99830619D01*
X156256000Y-99267295D01*
X156367685Y-99318301D01*
X156474237Y-99333621D01*
X156545763Y-99333621D01*
X156652315Y-99318301D01*
X156764000Y-99267295D01*
X156764000Y-99830619D01*
X156905220Y-99787780D01*
X156905222Y-99787780D01*
X157083778Y-99692339D01*
X157240278Y-99563903D01*
X157240282Y-99563899D01*
X157368718Y-99407399D01*
X157464159Y-99228843D01*
X157464159Y-99228841D01*
X157506998Y-99087621D01*
X156941116Y-99087621D01*
X156969493Y-99043465D01*
X157010000Y-98905510D01*
X157010000Y-98761732D01*
X156969493Y-98623777D01*
X156941116Y-98579621D01*
X157506998Y-98579621D01*
X157506998Y-98579620D01*
X157464159Y-98438400D01*
X157464159Y-98438398D01*
X157368718Y-98259842D01*
X157240282Y-98103342D01*
X157240278Y-98103338D01*
X157083778Y-97974902D01*
X156905225Y-97879463D01*
X156764000Y-97836622D01*
X156764000Y-98399946D01*
X156652315Y-98348941D01*
X156545763Y-98333621D01*
X156474237Y-98333621D01*
X156367685Y-98348941D01*
X156256000Y-98399946D01*
X156256000Y-97836622D01*
X156114774Y-97879463D01*
X155936221Y-97974902D01*
X155779721Y-98103338D01*
X155779717Y-98103342D01*
X155651281Y-98259842D01*
X155555840Y-98438398D01*
X155555840Y-98438400D01*
X155513001Y-98579620D01*
X154940977Y-98579620D01*
X154901042Y-98447971D01*
X154807916Y-98273743D01*
X154682589Y-98121032D01*
X154529878Y-97995705D01*
X154355650Y-97902579D01*
X154355649Y-97902578D01*
X154355648Y-97902578D01*
X154166609Y-97845233D01*
X154166604Y-97845232D01*
X154166603Y-97845232D01*
X153970000Y-97825868D01*
X153773397Y-97845232D01*
X153773395Y-97845232D01*
X153773390Y-97845233D01*
X153584351Y-97902578D01*
X153410121Y-97995705D01*
X153257413Y-98121030D01*
X153257409Y-98121034D01*
X153132084Y-98273742D01*
X153038957Y-98447972D01*
X152981612Y-98637011D01*
X152981611Y-98637016D01*
X152981611Y-98637018D01*
X152962247Y-98833620D01*
X152962247Y-98833621D01*
X152437753Y-98833621D01*
X152418389Y-98637018D01*
X152361042Y-98447971D01*
X152267916Y-98273743D01*
X152142589Y-98121032D01*
X151989878Y-97995705D01*
X151815650Y-97902579D01*
X151815649Y-97902578D01*
X151815648Y-97902578D01*
X151626609Y-97845233D01*
X151626604Y-97845232D01*
X151626603Y-97845232D01*
X151430000Y-97825868D01*
X151429999Y-97825868D01*
X151382657Y-97830530D01*
X151233397Y-97845232D01*
X151233395Y-97845232D01*
X151233390Y-97845233D01*
X151044351Y-97902578D01*
X150870121Y-97995705D01*
X150717413Y-98121030D01*
X150717409Y-98121034D01*
X150592084Y-98273742D01*
X150498957Y-98447972D01*
X150441612Y-98637011D01*
X150441611Y-98637016D01*
X150441611Y-98637018D01*
X150422247Y-98833620D01*
X150422247Y-98833621D01*
X149897753Y-98833621D01*
X149878389Y-98637018D01*
X149821042Y-98447971D01*
X149774653Y-98361183D01*
X149766156Y-98301663D01*
X149790018Y-98257597D01*
X151586965Y-96460650D01*
X151588598Y-96459101D01*
X151619486Y-96431291D01*
X151629145Y-96409594D01*
X151635719Y-96397485D01*
X151648661Y-96377558D01*
X151649749Y-96370683D01*
X151656269Y-96348676D01*
X151659100Y-96342318D01*
X151659100Y-96318563D01*
X151660182Y-96304813D01*
X151663896Y-96281363D01*
X151662095Y-96274641D01*
X151659100Y-96251892D01*
X151659100Y-89712305D01*
X166749884Y-89712305D01*
X166769115Y-89944401D01*
X166769116Y-89944407D01*
X166826286Y-90170165D01*
X166826289Y-90170173D01*
X166917860Y-90378933D01*
X166919840Y-90383446D01*
X166919844Y-90383452D01*
X167047215Y-90578410D01*
X167047216Y-90578412D01*
X167191618Y-90735275D01*
X167204954Y-90749761D01*
X167388740Y-90892807D01*
X167593563Y-91003652D01*
X167813837Y-91079272D01*
X167813839Y-91079272D01*
X167813841Y-91079273D01*
X168043550Y-91117605D01*
X168043554Y-91117605D01*
X168276450Y-91117605D01*
X168506158Y-91079273D01*
X168506158Y-91079272D01*
X168506163Y-91079272D01*
X168726437Y-91003652D01*
X168931260Y-90892807D01*
X169115046Y-90749761D01*
X169272780Y-90578416D01*
X169400160Y-90383446D01*
X169493712Y-90170169D01*
X169550884Y-89944402D01*
X169570116Y-89712305D01*
X169550884Y-89480208D01*
X169550883Y-89480202D01*
X169493713Y-89254444D01*
X169493710Y-89254436D01*
X169400164Y-89041174D01*
X169400160Y-89041164D01*
X169319435Y-88917605D01*
X169272784Y-88846199D01*
X169272783Y-88846197D01*
X169115050Y-88674853D01*
X169115048Y-88674852D01*
X169115046Y-88674849D01*
X168931260Y-88531803D01*
X168726437Y-88420958D01*
X168726433Y-88420956D01*
X168726430Y-88420955D01*
X168506167Y-88345339D01*
X168506158Y-88345336D01*
X168276450Y-88307005D01*
X168276446Y-88307005D01*
X168043554Y-88307005D01*
X168043550Y-88307005D01*
X167813841Y-88345336D01*
X167813832Y-88345339D01*
X167593569Y-88420955D01*
X167593564Y-88420957D01*
X167593563Y-88420958D01*
X167388740Y-88531803D01*
X167379779Y-88538778D01*
X167204949Y-88674853D01*
X167047216Y-88846197D01*
X167047215Y-88846199D01*
X166919844Y-89041157D01*
X166919835Y-89041174D01*
X166826289Y-89254436D01*
X166826286Y-89254444D01*
X166769116Y-89480202D01*
X166769115Y-89480208D01*
X166749884Y-89712305D01*
X151659100Y-89712305D01*
X151659100Y-87509321D01*
X151679665Y-87452820D01*
X151721484Y-87425206D01*
X151725980Y-87423842D01*
X151815650Y-87396641D01*
X151989878Y-87303515D01*
X152142589Y-87178188D01*
X152267916Y-87025477D01*
X152361042Y-86851249D01*
X152418389Y-86662202D01*
X152437753Y-86465599D01*
X152962247Y-86465599D01*
X152980444Y-86650355D01*
X152981612Y-86662208D01*
X153038410Y-86849443D01*
X153038958Y-86851249D01*
X153132084Y-87025477D01*
X153257411Y-87178188D01*
X153410122Y-87303515D01*
X153584350Y-87396641D01*
X153674026Y-87423844D01*
X153769546Y-87452820D01*
X153773397Y-87453988D01*
X153970000Y-87473352D01*
X154166603Y-87453988D01*
X154355650Y-87396641D01*
X154529878Y-87303515D01*
X154682589Y-87178188D01*
X154807916Y-87025477D01*
X154901042Y-86851249D01*
X154958389Y-86662202D01*
X154977753Y-86465599D01*
X155502247Y-86465599D01*
X155520444Y-86650355D01*
X155521612Y-86662208D01*
X155578410Y-86849443D01*
X155578958Y-86851249D01*
X155672084Y-87025477D01*
X155797411Y-87178188D01*
X155950122Y-87303515D01*
X156124350Y-87396641D01*
X156214026Y-87423844D01*
X156309546Y-87452820D01*
X156313397Y-87453988D01*
X156510000Y-87473352D01*
X156706603Y-87453988D01*
X156895650Y-87396641D01*
X157069878Y-87303515D01*
X157222589Y-87178188D01*
X157347916Y-87025477D01*
X157441042Y-86851249D01*
X157498389Y-86662202D01*
X157517753Y-86465599D01*
X157498389Y-86268996D01*
X157441042Y-86079949D01*
X157347916Y-85905721D01*
X157222589Y-85753010D01*
X157069878Y-85627683D01*
X156895650Y-85534557D01*
X156895649Y-85534556D01*
X156895648Y-85534556D01*
X156706609Y-85477211D01*
X156706604Y-85477210D01*
X156706603Y-85477210D01*
X156510000Y-85457846D01*
X156509999Y-85457846D01*
X156462657Y-85462508D01*
X156313397Y-85477210D01*
X156313395Y-85477210D01*
X156313390Y-85477211D01*
X156124351Y-85534556D01*
X155950121Y-85627683D01*
X155797413Y-85753008D01*
X155797409Y-85753012D01*
X155672084Y-85905720D01*
X155578957Y-86079950D01*
X155521612Y-86268989D01*
X155521611Y-86268994D01*
X155521611Y-86268996D01*
X155502247Y-86465599D01*
X154977753Y-86465599D01*
X154958389Y-86268996D01*
X154901042Y-86079949D01*
X154807916Y-85905721D01*
X154682589Y-85753010D01*
X154529878Y-85627683D01*
X154355650Y-85534557D01*
X154355649Y-85534556D01*
X154355648Y-85534556D01*
X154166609Y-85477211D01*
X154166604Y-85477210D01*
X154166603Y-85477210D01*
X153970000Y-85457846D01*
X153773397Y-85477210D01*
X153773395Y-85477210D01*
X153773390Y-85477211D01*
X153584351Y-85534556D01*
X153410121Y-85627683D01*
X153257413Y-85753008D01*
X153257409Y-85753012D01*
X153132084Y-85905720D01*
X153038957Y-86079950D01*
X152981612Y-86268989D01*
X152981611Y-86268994D01*
X152981611Y-86268996D01*
X152962247Y-86465599D01*
X152437753Y-86465599D01*
X152418389Y-86268996D01*
X152361042Y-86079949D01*
X152267916Y-85905721D01*
X152142589Y-85753010D01*
X151989878Y-85627683D01*
X151815650Y-85534557D01*
X151815649Y-85534556D01*
X151815648Y-85534556D01*
X151626609Y-85477211D01*
X151626604Y-85477210D01*
X151626603Y-85477210D01*
X151430000Y-85457846D01*
X151233397Y-85477210D01*
X151233395Y-85477210D01*
X151233390Y-85477211D01*
X151044351Y-85534556D01*
X150870121Y-85627683D01*
X150717413Y-85753008D01*
X150717409Y-85753012D01*
X150592084Y-85905720D01*
X150498957Y-86079950D01*
X150441612Y-86268989D01*
X150441611Y-86268994D01*
X150441611Y-86268996D01*
X150422247Y-86465599D01*
X150440444Y-86650355D01*
X150441612Y-86662208D01*
X150498410Y-86849443D01*
X150498958Y-86851249D01*
X150592084Y-87025477D01*
X150717411Y-87178188D01*
X150870122Y-87303515D01*
X151044350Y-87396641D01*
X151134020Y-87423842D01*
X151138516Y-87425206D01*
X151186614Y-87461286D01*
X151200900Y-87509321D01*
X151200900Y-96162313D01*
X151180335Y-96218814D01*
X151175155Y-96224468D01*
X149466023Y-97933599D01*
X149411529Y-97959010D01*
X149362433Y-97948965D01*
X149275650Y-97902579D01*
X149275649Y-97902578D01*
X149275648Y-97902578D01*
X149086609Y-97845233D01*
X149086604Y-97845232D01*
X149086603Y-97845232D01*
X148890000Y-97825868D01*
X148889999Y-97825868D01*
X148842657Y-97830530D01*
X148693397Y-97845232D01*
X148693395Y-97845232D01*
X148693390Y-97845233D01*
X148504351Y-97902578D01*
X148330121Y-97995705D01*
X148177413Y-98121030D01*
X148177409Y-98121034D01*
X148052084Y-98273742D01*
X147958957Y-98447972D01*
X147901612Y-98637011D01*
X147901611Y-98637016D01*
X147901611Y-98637018D01*
X147882247Y-98833620D01*
X147882247Y-98833621D01*
X147357753Y-98833621D01*
X147338389Y-98637018D01*
X147281042Y-98447971D01*
X147234653Y-98361183D01*
X147226156Y-98301663D01*
X147250018Y-98257597D01*
X147716965Y-97790650D01*
X147718598Y-97789101D01*
X147749486Y-97761291D01*
X147759145Y-97739594D01*
X147765719Y-97727485D01*
X147778661Y-97707558D01*
X147779749Y-97700683D01*
X147786269Y-97678676D01*
X147786636Y-97677851D01*
X147789100Y-97672318D01*
X147789100Y-97648563D01*
X147790182Y-97634813D01*
X147793896Y-97611363D01*
X147792095Y-97604641D01*
X147789100Y-97581892D01*
X147789100Y-86883079D01*
X147809665Y-86826578D01*
X147861736Y-86796514D01*
X147920950Y-86806955D01*
X147956602Y-86847610D01*
X147956922Y-86847440D01*
X147957653Y-86848808D01*
X147958210Y-86849443D01*
X147958957Y-86851247D01*
X147958958Y-86851249D01*
X148052084Y-87025477D01*
X148177411Y-87178188D01*
X148330122Y-87303515D01*
X148504350Y-87396641D01*
X148594026Y-87423844D01*
X148689546Y-87452820D01*
X148693397Y-87453988D01*
X148890000Y-87473352D01*
X149086603Y-87453988D01*
X149275650Y-87396641D01*
X149449878Y-87303515D01*
X149602589Y-87178188D01*
X149727916Y-87025477D01*
X149821042Y-86851249D01*
X149878389Y-86662202D01*
X149897753Y-86465599D01*
X149878389Y-86268996D01*
X149821042Y-86079949D01*
X149727916Y-85905721D01*
X149602589Y-85753010D01*
X149449878Y-85627683D01*
X149275650Y-85534557D01*
X149275649Y-85534556D01*
X149275648Y-85534556D01*
X149086609Y-85477211D01*
X149086604Y-85477210D01*
X149086603Y-85477210D01*
X148890000Y-85457846D01*
X148889999Y-85457846D01*
X148842657Y-85462508D01*
X148693397Y-85477210D01*
X148693395Y-85477210D01*
X148693390Y-85477211D01*
X148504351Y-85534556D01*
X148330121Y-85627683D01*
X148177413Y-85753008D01*
X148177409Y-85753012D01*
X148052084Y-85905720D01*
X147958955Y-86079953D01*
X147958208Y-86081758D01*
X147957687Y-86082326D01*
X147956922Y-86083758D01*
X147956555Y-86083561D01*
X147917585Y-86126088D01*
X147857972Y-86133934D01*
X147807263Y-86101626D01*
X147789100Y-86048118D01*
X147789100Y-85386905D01*
X147809665Y-85330404D01*
X147814845Y-85324750D01*
X148053690Y-85085905D01*
X148313975Y-84825619D01*
X148368468Y-84800209D01*
X148417564Y-84810254D01*
X148504347Y-84856640D01*
X148504349Y-84856640D01*
X148504350Y-84856641D01*
X148693397Y-84913988D01*
X148890000Y-84933352D01*
X149086603Y-84913988D01*
X149275650Y-84856641D01*
X149449878Y-84763515D01*
X149602589Y-84638188D01*
X149727916Y-84485477D01*
X149821042Y-84311249D01*
X149878389Y-84122202D01*
X149897753Y-83925599D01*
X149878389Y-83728996D01*
X149860977Y-83671598D01*
X150433001Y-83671598D01*
X150433002Y-83671599D01*
X150998884Y-83671599D01*
X150970507Y-83715755D01*
X150930000Y-83853710D01*
X150930000Y-83997488D01*
X150970507Y-84135443D01*
X150998884Y-84179599D01*
X150433002Y-84179599D01*
X150475840Y-84320819D01*
X150475840Y-84320821D01*
X150571281Y-84499377D01*
X150699717Y-84655877D01*
X150699721Y-84655881D01*
X150856221Y-84784317D01*
X151034778Y-84879758D01*
X151175999Y-84922597D01*
X151176000Y-84922597D01*
X151176000Y-84359273D01*
X151287685Y-84410279D01*
X151394237Y-84425599D01*
X151465763Y-84425599D01*
X151572315Y-84410279D01*
X151684000Y-84359273D01*
X151684000Y-84922597D01*
X151825220Y-84879758D01*
X151825222Y-84879758D01*
X152003778Y-84784317D01*
X152160278Y-84655881D01*
X152160282Y-84655877D01*
X152288718Y-84499377D01*
X152384159Y-84320821D01*
X152384159Y-84320819D01*
X152426998Y-84179599D01*
X151861116Y-84179599D01*
X151889493Y-84135443D01*
X151930000Y-83997488D01*
X151930000Y-83853710D01*
X151889493Y-83715755D01*
X151861116Y-83671599D01*
X152426998Y-83671599D01*
X152426998Y-83671598D01*
X152973001Y-83671598D01*
X152973002Y-83671599D01*
X153538884Y-83671599D01*
X153510507Y-83715755D01*
X153470000Y-83853710D01*
X153470000Y-83997488D01*
X153510507Y-84135443D01*
X153538884Y-84179599D01*
X152973002Y-84179599D01*
X153015840Y-84320819D01*
X153015840Y-84320821D01*
X153111281Y-84499377D01*
X153239717Y-84655877D01*
X153239721Y-84655881D01*
X153396221Y-84784317D01*
X153574778Y-84879758D01*
X153715999Y-84922597D01*
X153716000Y-84922596D01*
X153716000Y-84359273D01*
X153827685Y-84410279D01*
X153934237Y-84425599D01*
X154005763Y-84425599D01*
X154112315Y-84410279D01*
X154224000Y-84359273D01*
X154224000Y-84922597D01*
X154365220Y-84879758D01*
X154365222Y-84879758D01*
X154543778Y-84784317D01*
X154700278Y-84655881D01*
X154700282Y-84655877D01*
X154828718Y-84499377D01*
X154924159Y-84320821D01*
X154924159Y-84320819D01*
X154966998Y-84179599D01*
X154401116Y-84179599D01*
X154429493Y-84135443D01*
X154470000Y-83997488D01*
X154470000Y-83925599D01*
X155502247Y-83925599D01*
X155511030Y-84014778D01*
X155521612Y-84122208D01*
X155571812Y-84287693D01*
X155578958Y-84311249D01*
X155672084Y-84485477D01*
X155797411Y-84638188D01*
X155950122Y-84763515D01*
X156124350Y-84856641D01*
X156313397Y-84913988D01*
X156510000Y-84933352D01*
X156706603Y-84913988D01*
X156895650Y-84856641D01*
X157069878Y-84763515D01*
X157222589Y-84638188D01*
X157347916Y-84485477D01*
X157441042Y-84311249D01*
X157498389Y-84122202D01*
X157517753Y-83925599D01*
X157498389Y-83728996D01*
X157441042Y-83539949D01*
X157347916Y-83365721D01*
X157222589Y-83213010D01*
X157069878Y-83087683D01*
X156895650Y-82994557D01*
X156895649Y-82994556D01*
X156895648Y-82994556D01*
X156706609Y-82937211D01*
X156706604Y-82937210D01*
X156706603Y-82937210D01*
X156510000Y-82917846D01*
X156313397Y-82937210D01*
X156313395Y-82937210D01*
X156313390Y-82937211D01*
X156124351Y-82994556D01*
X155950121Y-83087683D01*
X155797413Y-83213008D01*
X155797409Y-83213012D01*
X155672084Y-83365720D01*
X155578957Y-83539950D01*
X155521612Y-83728989D01*
X155521611Y-83728994D01*
X155521611Y-83728996D01*
X155502247Y-83925599D01*
X154470000Y-83925599D01*
X154470000Y-83853710D01*
X154429493Y-83715755D01*
X154401116Y-83671599D01*
X154966998Y-83671599D01*
X154966998Y-83671598D01*
X154924159Y-83530378D01*
X154924159Y-83530376D01*
X154828718Y-83351820D01*
X154700282Y-83195320D01*
X154700278Y-83195316D01*
X154543778Y-83066880D01*
X154365225Y-82971441D01*
X154224000Y-82928600D01*
X154224000Y-83491924D01*
X154112315Y-83440919D01*
X154005763Y-83425599D01*
X153934237Y-83425599D01*
X153827685Y-83440919D01*
X153716000Y-83491924D01*
X153716000Y-82928600D01*
X153574774Y-82971441D01*
X153396221Y-83066880D01*
X153239721Y-83195316D01*
X153239717Y-83195320D01*
X153111281Y-83351820D01*
X153015840Y-83530376D01*
X153015840Y-83530378D01*
X152973001Y-83671598D01*
X152426998Y-83671598D01*
X152384159Y-83530378D01*
X152384159Y-83530376D01*
X152288718Y-83351820D01*
X152160282Y-83195320D01*
X152160278Y-83195316D01*
X152003778Y-83066880D01*
X151825225Y-82971441D01*
X151684000Y-82928600D01*
X151684000Y-83491924D01*
X151572315Y-83440919D01*
X151465763Y-83425599D01*
X151394237Y-83425599D01*
X151287685Y-83440919D01*
X151176000Y-83491924D01*
X151176000Y-82928600D01*
X151034774Y-82971441D01*
X150856221Y-83066880D01*
X150699721Y-83195316D01*
X150699717Y-83195320D01*
X150571281Y-83351820D01*
X150475840Y-83530376D01*
X150475840Y-83530378D01*
X150433001Y-83671598D01*
X149860977Y-83671598D01*
X149821042Y-83539949D01*
X149727916Y-83365721D01*
X149602589Y-83213010D01*
X149449878Y-83087683D01*
X149275650Y-82994557D01*
X149275649Y-82994556D01*
X149275648Y-82994556D01*
X149086609Y-82937211D01*
X149086604Y-82937210D01*
X149086603Y-82937210D01*
X148890000Y-82917846D01*
X148693397Y-82937210D01*
X148693395Y-82937210D01*
X148693390Y-82937211D01*
X148504351Y-82994556D01*
X148330121Y-83087683D01*
X148177413Y-83213008D01*
X148177409Y-83213012D01*
X148052084Y-83365720D01*
X147958957Y-83539950D01*
X147901612Y-83728989D01*
X147901611Y-83728994D01*
X147901611Y-83728996D01*
X147882247Y-83925599D01*
X147891030Y-84014778D01*
X147901612Y-84122208D01*
X147958957Y-84311247D01*
X148005344Y-84398031D01*
X148013842Y-84457555D01*
X147989978Y-84501622D01*
X147403040Y-85088560D01*
X147401372Y-85090143D01*
X147370514Y-85117928D01*
X147370513Y-85117929D01*
X147370514Y-85117929D01*
X147360849Y-85139633D01*
X147354278Y-85151736D01*
X147345226Y-85165675D01*
X147341338Y-85171664D01*
X147340248Y-85178546D01*
X147333735Y-85200533D01*
X147330900Y-85206902D01*
X147330900Y-85230650D01*
X147329818Y-85244399D01*
X147326103Y-85267854D01*
X147326103Y-85267857D01*
X147327905Y-85274581D01*
X147330900Y-85297332D01*
X147330900Y-85834283D01*
X147310335Y-85890784D01*
X147258264Y-85920848D01*
X147199050Y-85910407D01*
X147175053Y-85890046D01*
X147062596Y-85753018D01*
X147062593Y-85753015D01*
X147062589Y-85753010D01*
X146909878Y-85627683D01*
X146735650Y-85534557D01*
X146735649Y-85534556D01*
X146735648Y-85534556D01*
X146546609Y-85477211D01*
X146546604Y-85477210D01*
X146546603Y-85477210D01*
X146350000Y-85457846D01*
X146153397Y-85477210D01*
X146153395Y-85477210D01*
X146153390Y-85477211D01*
X145964351Y-85534556D01*
X145790121Y-85627683D01*
X145637413Y-85753008D01*
X145637409Y-85753012D01*
X145512084Y-85905720D01*
X145418957Y-86079950D01*
X145361612Y-86268989D01*
X145361611Y-86268994D01*
X145361611Y-86268996D01*
X145342247Y-86465599D01*
X145360444Y-86650355D01*
X145361612Y-86662208D01*
X145418410Y-86849443D01*
X145418958Y-86851249D01*
X145512084Y-87025477D01*
X145637411Y-87178188D01*
X145790122Y-87303515D01*
X145964350Y-87396641D01*
X146054020Y-87423842D01*
X146058516Y-87425206D01*
X146106614Y-87461286D01*
X146120900Y-87509321D01*
X146120900Y-96162313D01*
X146100335Y-96218814D01*
X146095155Y-96224468D01*
X144386023Y-97933599D01*
X144331529Y-97959010D01*
X144282433Y-97948965D01*
X144195650Y-97902579D01*
X144195649Y-97902578D01*
X144195648Y-97902578D01*
X144006609Y-97845233D01*
X144006604Y-97845232D01*
X144006603Y-97845232D01*
X143810000Y-97825868D01*
X143613397Y-97845232D01*
X143613395Y-97845232D01*
X143613390Y-97845233D01*
X143424351Y-97902578D01*
X143250121Y-97995705D01*
X143097413Y-98121030D01*
X143097409Y-98121034D01*
X142972084Y-98273742D01*
X142878957Y-98447972D01*
X142821612Y-98637011D01*
X142821611Y-98637016D01*
X142821611Y-98637018D01*
X142809328Y-98761732D01*
X142802247Y-98833620D01*
X130465300Y-98833620D01*
X130465300Y-97428625D01*
X131157540Y-97428625D01*
X131175729Y-97601693D01*
X131175731Y-97601699D01*
X131229510Y-97767213D01*
X131316526Y-97917929D01*
X131432976Y-98047259D01*
X131573770Y-98149553D01*
X131732756Y-98220338D01*
X131902984Y-98256521D01*
X132077016Y-98256521D01*
X132247244Y-98220338D01*
X132406230Y-98149553D01*
X132547024Y-98047259D01*
X132663474Y-97917929D01*
X132750490Y-97767213D01*
X132804269Y-97601699D01*
X132809164Y-97555125D01*
X132822460Y-97428625D01*
X132822460Y-97428616D01*
X132804270Y-97255548D01*
X132804269Y-97255545D01*
X132804269Y-97255543D01*
X132788551Y-97207168D01*
X135699600Y-97207168D01*
X135708472Y-97251768D01*
X135742266Y-97302344D01*
X135746030Y-97304859D01*
X135792841Y-97336138D01*
X135800241Y-97337609D01*
X135837443Y-97345010D01*
X138642556Y-97345009D01*
X138642558Y-97345009D01*
X138655250Y-97342484D01*
X138687158Y-97336138D01*
X138737734Y-97302344D01*
X138771528Y-97251768D01*
X138780400Y-97207167D01*
X138780399Y-94402054D01*
X138780399Y-94402053D01*
X138780399Y-94402051D01*
X138776611Y-94383012D01*
X138771528Y-94357452D01*
X138737734Y-94306876D01*
X138737502Y-94306721D01*
X138687158Y-94273081D01*
X138649956Y-94265681D01*
X138642557Y-94264210D01*
X138642556Y-94264210D01*
X135837441Y-94264210D01*
X135792841Y-94273082D01*
X135742267Y-94306875D01*
X135742264Y-94306878D01*
X135708471Y-94357451D01*
X135699600Y-94402053D01*
X135699600Y-97207168D01*
X132788551Y-97207168D01*
X132750490Y-97090029D01*
X132663474Y-96939313D01*
X132547024Y-96809983D01*
X132406230Y-96707689D01*
X132247244Y-96636904D01*
X132247242Y-96636903D01*
X132247241Y-96636903D01*
X132077016Y-96600721D01*
X131902984Y-96600721D01*
X131732758Y-96636903D01*
X131732754Y-96636905D01*
X131573769Y-96707689D01*
X131432977Y-96809982D01*
X131432975Y-96809983D01*
X131316527Y-96939311D01*
X131229511Y-97090027D01*
X131175729Y-97255548D01*
X131157540Y-97428616D01*
X131157540Y-97428625D01*
X130465300Y-97428625D01*
X130465300Y-96118679D01*
X131162100Y-96118679D01*
X131170780Y-96162313D01*
X131170972Y-96163279D01*
X131204766Y-96213855D01*
X131212188Y-96218814D01*
X131255341Y-96247649D01*
X131262741Y-96249120D01*
X131299943Y-96256521D01*
X132680056Y-96256520D01*
X132680058Y-96256520D01*
X132692750Y-96253995D01*
X132724658Y-96247649D01*
X132775234Y-96213855D01*
X132809028Y-96163279D01*
X132817900Y-96118678D01*
X132817899Y-94738565D01*
X132817899Y-94738564D01*
X132817899Y-94738562D01*
X132809757Y-94697630D01*
X132809028Y-94693963D01*
X132775234Y-94643387D01*
X132775002Y-94643232D01*
X132724658Y-94609592D01*
X132687456Y-94602192D01*
X132680057Y-94600721D01*
X132680056Y-94600721D01*
X131299941Y-94600721D01*
X131255341Y-94609593D01*
X131204767Y-94643386D01*
X131204764Y-94643389D01*
X131170971Y-94693962D01*
X131162100Y-94738564D01*
X131162100Y-96118679D01*
X130465300Y-96118679D01*
X130465300Y-89712304D01*
X130749884Y-89712304D01*
X130769115Y-89944401D01*
X130769116Y-89944407D01*
X130826286Y-90170165D01*
X130826289Y-90170173D01*
X130917860Y-90378933D01*
X130919840Y-90383446D01*
X130919844Y-90383452D01*
X131047215Y-90578410D01*
X131047216Y-90578412D01*
X131191618Y-90735275D01*
X131204954Y-90749761D01*
X131388740Y-90892807D01*
X131593563Y-91003652D01*
X131813837Y-91079272D01*
X131813839Y-91079272D01*
X131813841Y-91079273D01*
X132043550Y-91117605D01*
X132043554Y-91117605D01*
X132276450Y-91117605D01*
X132506158Y-91079273D01*
X132506158Y-91079272D01*
X132506163Y-91079272D01*
X132726437Y-91003652D01*
X132931260Y-90892807D01*
X133115046Y-90749761D01*
X133272780Y-90578416D01*
X133400160Y-90383446D01*
X133493712Y-90170169D01*
X133550884Y-89944402D01*
X133570116Y-89712305D01*
X133550884Y-89480208D01*
X133550883Y-89480202D01*
X133496052Y-89263679D01*
X137057100Y-89263679D01*
X137065972Y-89308279D01*
X137099766Y-89358855D01*
X137112701Y-89367498D01*
X137150341Y-89392649D01*
X137157741Y-89394120D01*
X137194943Y-89401521D01*
X137342200Y-89401520D01*
X137398701Y-89422084D01*
X137428765Y-89474156D01*
X137430100Y-89489420D01*
X137430100Y-90238624D01*
X137428071Y-90251069D01*
X137429107Y-90251214D01*
X137427982Y-90259279D01*
X137430053Y-90304072D01*
X137430100Y-90306102D01*
X137430100Y-90324563D01*
X137430735Y-90327960D01*
X137431435Y-90334003D01*
X137432814Y-90363813D01*
X137436714Y-90372646D01*
X137442704Y-90391989D01*
X137444478Y-90401479D01*
X137444481Y-90401486D01*
X137460187Y-90426851D01*
X137463029Y-90432242D01*
X137475083Y-90459541D01*
X137475084Y-90459543D01*
X137481914Y-90466373D01*
X137494486Y-90482245D01*
X137495747Y-90484281D01*
X137499568Y-90490452D01*
X137499571Y-90490456D01*
X137523374Y-90508431D01*
X137527971Y-90512431D01*
X142119279Y-95103738D01*
X142144690Y-95158232D01*
X142143942Y-95179643D01*
X142132100Y-95254415D01*
X142132100Y-96242825D01*
X142132101Y-96242827D01*
X142147042Y-96337172D01*
X142147043Y-96337175D01*
X142194996Y-96431290D01*
X142204984Y-96450891D01*
X142295230Y-96541137D01*
X142408946Y-96599078D01*
X142503293Y-96614021D01*
X143816706Y-96614020D01*
X143911054Y-96599078D01*
X144024770Y-96541137D01*
X144115016Y-96450891D01*
X144172957Y-96337175D01*
X144187900Y-96242828D01*
X144187899Y-95254415D01*
X144172957Y-95160067D01*
X144115016Y-95046351D01*
X144024770Y-94956105D01*
X144024767Y-94956103D01*
X143911052Y-94898163D01*
X143911053Y-94898163D01*
X143831649Y-94885587D01*
X143816707Y-94883221D01*
X143816706Y-94883221D01*
X142726848Y-94883221D01*
X142670347Y-94862656D01*
X142664693Y-94857476D01*
X138015645Y-90208428D01*
X137990234Y-90153934D01*
X137989900Y-90146273D01*
X137989900Y-89489420D01*
X138010465Y-89432919D01*
X138062536Y-89402855D01*
X138077800Y-89401520D01*
X138225058Y-89401520D01*
X138237750Y-89398995D01*
X138269658Y-89392649D01*
X138320234Y-89358855D01*
X138354028Y-89308279D01*
X138362900Y-89263679D01*
X140257100Y-89263679D01*
X140265972Y-89308279D01*
X140299766Y-89358855D01*
X140312701Y-89367498D01*
X140350341Y-89392649D01*
X140357741Y-89394120D01*
X140394943Y-89401521D01*
X140542200Y-89401520D01*
X140598701Y-89422084D01*
X140628765Y-89474156D01*
X140630100Y-89489420D01*
X140630100Y-90463624D01*
X140628071Y-90476069D01*
X140629107Y-90476214D01*
X140627982Y-90484279D01*
X140627982Y-90484280D01*
X140627982Y-90484281D01*
X140629283Y-90512431D01*
X140630053Y-90529072D01*
X140630100Y-90531102D01*
X140630100Y-90549563D01*
X140630735Y-90552960D01*
X140631435Y-90559003D01*
X140632814Y-90588813D01*
X140636714Y-90597646D01*
X140642704Y-90616989D01*
X140644478Y-90626479D01*
X140644481Y-90626486D01*
X140660187Y-90651851D01*
X140663029Y-90657242D01*
X140675084Y-90684543D01*
X140681914Y-90691373D01*
X140694486Y-90707245D01*
X140699568Y-90715452D01*
X140699571Y-90715456D01*
X140723374Y-90733431D01*
X140727971Y-90737431D01*
X142119279Y-92128738D01*
X142144690Y-92183232D01*
X142143942Y-92204643D01*
X142132100Y-92279415D01*
X142132100Y-93267825D01*
X142132101Y-93267827D01*
X142147042Y-93362172D01*
X142147043Y-93362175D01*
X142204984Y-93475891D01*
X142295230Y-93566137D01*
X142408946Y-93624078D01*
X142503293Y-93639021D01*
X143816706Y-93639020D01*
X143911054Y-93624078D01*
X144024770Y-93566137D01*
X144115016Y-93475891D01*
X144172957Y-93362175D01*
X144187900Y-93267828D01*
X144187899Y-92279415D01*
X144172957Y-92185067D01*
X144115016Y-92071351D01*
X144024770Y-91981105D01*
X144024767Y-91981103D01*
X143911052Y-91923163D01*
X143911053Y-91923163D01*
X143831648Y-91910587D01*
X143816707Y-91908221D01*
X143816706Y-91908221D01*
X142726849Y-91908221D01*
X142670348Y-91887656D01*
X142664694Y-91882476D01*
X141215645Y-90433427D01*
X141190234Y-90378933D01*
X141189900Y-90371272D01*
X141189900Y-89489420D01*
X141210465Y-89432919D01*
X141262536Y-89402855D01*
X141277800Y-89401520D01*
X141425058Y-89401520D01*
X141437750Y-89398995D01*
X141469658Y-89392649D01*
X141520234Y-89358855D01*
X141554028Y-89308279D01*
X141562900Y-89263678D01*
X141562899Y-88233565D01*
X141562899Y-88233564D01*
X141562899Y-88233562D01*
X141559111Y-88214523D01*
X141554028Y-88188963D01*
X141520234Y-88138387D01*
X141520002Y-88138232D01*
X141469658Y-88104592D01*
X141432456Y-88097192D01*
X141425057Y-88095721D01*
X141425056Y-88095721D01*
X140394941Y-88095721D01*
X140350341Y-88104593D01*
X140299767Y-88138386D01*
X140299764Y-88138389D01*
X140265971Y-88188962D01*
X140257100Y-88233564D01*
X140257100Y-89263679D01*
X138362900Y-89263679D01*
X138362900Y-89263678D01*
X138362899Y-88233565D01*
X138362899Y-88233564D01*
X138362899Y-88233562D01*
X138359111Y-88214523D01*
X138354028Y-88188963D01*
X138320234Y-88138387D01*
X138320002Y-88138232D01*
X138269658Y-88104592D01*
X138232456Y-88097192D01*
X138225057Y-88095721D01*
X138225056Y-88095721D01*
X137194941Y-88095721D01*
X137150341Y-88104593D01*
X137099767Y-88138386D01*
X137099764Y-88138389D01*
X137065971Y-88188962D01*
X137057100Y-88233564D01*
X137057100Y-89263679D01*
X133496052Y-89263679D01*
X133493713Y-89254444D01*
X133493710Y-89254436D01*
X133400164Y-89041174D01*
X133400160Y-89041164D01*
X133319435Y-88917605D01*
X133272784Y-88846199D01*
X133272783Y-88846197D01*
X133115050Y-88674853D01*
X133115048Y-88674852D01*
X133115046Y-88674849D01*
X132931260Y-88531803D01*
X132726437Y-88420958D01*
X132726433Y-88420956D01*
X132726430Y-88420955D01*
X132506167Y-88345339D01*
X132506158Y-88345336D01*
X132276450Y-88307005D01*
X132276446Y-88307005D01*
X132043554Y-88307005D01*
X132043550Y-88307005D01*
X131813841Y-88345336D01*
X131813832Y-88345339D01*
X131593569Y-88420955D01*
X131593564Y-88420957D01*
X131593563Y-88420958D01*
X131388740Y-88531803D01*
X131379779Y-88538778D01*
X131204949Y-88674853D01*
X131047216Y-88846197D01*
X131047215Y-88846199D01*
X130919844Y-89041157D01*
X130919835Y-89041174D01*
X130826289Y-89254436D01*
X130826286Y-89254444D01*
X130769116Y-89480202D01*
X130769115Y-89480208D01*
X130749884Y-89712304D01*
X130465300Y-89712304D01*
X130465300Y-88784616D01*
X130485864Y-88728118D01*
X130509245Y-88708498D01*
X136971232Y-84977667D01*
X137030445Y-84967227D01*
X137082516Y-84997291D01*
X137103081Y-85053792D01*
X137097005Y-85085905D01*
X137060241Y-85179579D01*
X137060239Y-85179585D01*
X136999342Y-85446392D01*
X136999340Y-85446400D01*
X136978889Y-85719308D01*
X136978889Y-85719313D01*
X136999340Y-85992221D01*
X136999342Y-85992229D01*
X137060239Y-86259036D01*
X137060240Y-86259040D01*
X137086915Y-86327007D01*
X137160225Y-86513799D01*
X137160226Y-86513800D01*
X137297065Y-86750813D01*
X137467701Y-86964783D01*
X137610104Y-87096914D01*
X137668318Y-87150928D01*
X137668327Y-87150936D01*
X137829857Y-87261064D01*
X137894445Y-87305100D01*
X137894447Y-87305101D01*
X137894446Y-87305101D01*
X138084532Y-87396641D01*
X138141020Y-87423844D01*
X138402539Y-87504512D01*
X138673161Y-87545302D01*
X138673166Y-87545302D01*
X138946834Y-87545302D01*
X138946839Y-87545302D01*
X139217461Y-87504512D01*
X139478980Y-87423844D01*
X139672486Y-87330657D01*
X142807100Y-87330657D01*
X142815972Y-87375256D01*
X142815972Y-87375257D01*
X142849766Y-87425833D01*
X142866701Y-87437149D01*
X142900341Y-87459627D01*
X142907741Y-87461098D01*
X142944943Y-87468499D01*
X144675056Y-87468498D01*
X144675058Y-87468498D01*
X144687750Y-87465973D01*
X144719658Y-87459627D01*
X144770234Y-87425833D01*
X144804028Y-87375257D01*
X144812900Y-87330656D01*
X144812899Y-85600543D01*
X144812899Y-85600542D01*
X144812899Y-85600540D01*
X144809111Y-85581501D01*
X144804028Y-85555941D01*
X144770234Y-85505365D01*
X144770002Y-85505210D01*
X144719658Y-85471570D01*
X144682456Y-85464170D01*
X144675057Y-85462699D01*
X144675056Y-85462699D01*
X142944941Y-85462699D01*
X142900341Y-85471571D01*
X142849767Y-85505364D01*
X142849764Y-85505367D01*
X142815971Y-85555940D01*
X142807100Y-85600542D01*
X142807100Y-87330657D01*
X139672486Y-87330657D01*
X139725556Y-87305100D01*
X139951679Y-87150931D01*
X140152299Y-86964783D01*
X140322935Y-86750813D01*
X140459774Y-86513800D01*
X140559760Y-86259040D01*
X140620659Y-85992224D01*
X140638585Y-85753018D01*
X140641111Y-85719313D01*
X140641111Y-85719308D01*
X140627266Y-85534557D01*
X140620659Y-85446398D01*
X140559760Y-85179582D01*
X140459774Y-84924822D01*
X140322935Y-84687809D01*
X140152299Y-84473839D01*
X139951679Y-84287691D01*
X139951675Y-84287688D01*
X139951671Y-84287685D01*
X139725553Y-84133520D01*
X139725554Y-84133520D01*
X139478983Y-84014779D01*
X139422927Y-83997488D01*
X139217461Y-83934110D01*
X139217457Y-83934109D01*
X139217456Y-83934109D01*
X139160997Y-83925599D01*
X142802247Y-83925599D01*
X142811030Y-84014778D01*
X142821612Y-84122208D01*
X142871812Y-84287693D01*
X142878958Y-84311249D01*
X142972084Y-84485477D01*
X143097411Y-84638188D01*
X143250122Y-84763515D01*
X143424350Y-84856641D01*
X143613397Y-84913988D01*
X143810000Y-84933352D01*
X144006603Y-84913988D01*
X144195650Y-84856641D01*
X144369878Y-84763515D01*
X144522589Y-84638188D01*
X144647916Y-84485477D01*
X144741042Y-84311249D01*
X144798389Y-84122202D01*
X144817753Y-83925599D01*
X145342247Y-83925599D01*
X145351030Y-84014778D01*
X145361612Y-84122208D01*
X145411812Y-84287693D01*
X145418958Y-84311249D01*
X145512084Y-84485477D01*
X145637411Y-84638188D01*
X145790122Y-84763515D01*
X145964350Y-84856641D01*
X146153397Y-84913988D01*
X146350000Y-84933352D01*
X146546603Y-84913988D01*
X146735650Y-84856641D01*
X146909878Y-84763515D01*
X147062589Y-84638188D01*
X147187916Y-84485477D01*
X147281042Y-84311249D01*
X147338389Y-84122202D01*
X147357753Y-83925599D01*
X147338389Y-83728996D01*
X147281042Y-83539949D01*
X147187916Y-83365721D01*
X147062589Y-83213010D01*
X146909878Y-83087683D01*
X146735650Y-82994557D01*
X146735649Y-82994556D01*
X146735648Y-82994556D01*
X146546609Y-82937211D01*
X146546604Y-82937210D01*
X146546603Y-82937210D01*
X146350000Y-82917846D01*
X146153397Y-82937210D01*
X146153395Y-82937210D01*
X146153390Y-82937211D01*
X145964351Y-82994556D01*
X145790121Y-83087683D01*
X145637413Y-83213008D01*
X145637409Y-83213012D01*
X145512084Y-83365720D01*
X145418957Y-83539950D01*
X145361612Y-83728989D01*
X145361611Y-83728994D01*
X145361611Y-83728996D01*
X145342247Y-83925599D01*
X144817753Y-83925599D01*
X144798389Y-83728996D01*
X144741042Y-83539949D01*
X144647916Y-83365721D01*
X144522589Y-83213010D01*
X144369878Y-83087683D01*
X144195650Y-82994557D01*
X144195649Y-82994556D01*
X144195648Y-82994556D01*
X144006609Y-82937211D01*
X144006604Y-82937210D01*
X144006603Y-82937210D01*
X143810000Y-82917846D01*
X143613397Y-82937210D01*
X143613395Y-82937210D01*
X143613390Y-82937211D01*
X143424351Y-82994556D01*
X143250121Y-83087683D01*
X143097413Y-83213008D01*
X143097409Y-83213012D01*
X142972084Y-83365720D01*
X142878957Y-83539950D01*
X142821612Y-83728989D01*
X142821611Y-83728994D01*
X142821611Y-83728996D01*
X142802247Y-83925599D01*
X139160997Y-83925599D01*
X139117952Y-83919111D01*
X139065147Y-83890355D01*
X139043180Y-83834384D01*
X139062330Y-83777388D01*
X139087099Y-83756071D01*
X146770598Y-79320000D01*
X148749884Y-79320000D01*
X148769115Y-79552096D01*
X148769116Y-79552102D01*
X148826286Y-79777860D01*
X148826289Y-79777868D01*
X148897987Y-79941321D01*
X148919840Y-79991141D01*
X148919844Y-79991147D01*
X149047215Y-80186105D01*
X149047216Y-80186107D01*
X149047220Y-80186111D01*
X149204954Y-80357456D01*
X149388740Y-80500502D01*
X149593563Y-80611347D01*
X149813837Y-80686967D01*
X149813839Y-80686967D01*
X149813841Y-80686968D01*
X150043550Y-80725300D01*
X150043554Y-80725300D01*
X150276450Y-80725300D01*
X150506158Y-80686968D01*
X150506158Y-80686967D01*
X150506163Y-80686967D01*
X150726437Y-80611347D01*
X150931260Y-80500502D01*
X151115046Y-80357456D01*
X151272780Y-80186111D01*
X151400160Y-79991141D01*
X151493712Y-79777864D01*
X151550884Y-79552097D01*
X151570116Y-79320000D01*
X151550884Y-79087903D01*
X151550883Y-79087897D01*
X151493713Y-78862139D01*
X151493710Y-78862131D01*
X151400164Y-78648869D01*
X151400160Y-78648859D01*
X151319435Y-78525300D01*
X151272784Y-78453894D01*
X151272783Y-78453892D01*
X151115050Y-78282548D01*
X151115048Y-78282547D01*
X151115046Y-78282544D01*
X150931260Y-78139498D01*
X150726437Y-78028653D01*
X150726433Y-78028651D01*
X150726430Y-78028650D01*
X150506167Y-77953034D01*
X150506158Y-77953031D01*
X150276450Y-77914700D01*
X150276446Y-77914700D01*
X150043554Y-77914700D01*
X150043550Y-77914700D01*
X149813841Y-77953031D01*
X149813832Y-77953034D01*
X149593569Y-78028650D01*
X149388740Y-78139498D01*
X149204949Y-78282548D01*
X149047216Y-78453892D01*
X149047215Y-78453894D01*
X148919844Y-78648852D01*
X148919835Y-78648869D01*
X148826289Y-78862131D01*
X148826286Y-78862139D01*
X148769116Y-79087897D01*
X148769115Y-79087903D01*
X148749884Y-79320000D01*
X146770598Y-79320000D01*
X150116050Y-77388502D01*
X150175263Y-77378062D01*
X150203946Y-77388502D01*
G37*
%TD.AperFunction*%
%TD*%
M02*
