M48
; DRILL file {KiCad 7.0.5} date Thu Jan 18 17:38:37 2024
; FORMAT={-:-/ absolute / inch / decimal}
; #@! TF.CreationDate,2024-01-18T17:38:37-05:00
; #@! TF.GenerationSoftware,Kicad,Pcbnew,7.0.5
; #@! TF.FileFunction,Plated,1,2,PTH
FMAT,2
INCH
; #@! TA.AperFunction,Plated,PTH,ViaDrill
T1C0.0130
; #@! TA.AperFunction,Plated,PTH,ComponentDrill
T2C0.0315
; #@! TA.AperFunction,Plated,PTH,ComponentDrill
T3C0.0394
; #@! TA.AperFunction,Plated,PTH,ComponentDrill
T4C0.0728
%
G90
G05
T1
X5.2031Y-3.6692
X5.2031Y-3.9645
X5.2031Y-4.0433
X5.2031Y-4.122
X5.2031Y-4.2007
X5.2819Y-3.6692
X5.2819Y-4.0433
X5.2819Y-4.122
X5.2819Y-4.2007
X5.3606Y-3.433
X5.3606Y-3.5118
X5.3606Y-3.5905
X5.3606Y-3.6692
X5.3606Y-3.8661
X5.3606Y-4.0433
X5.3606Y-4.2795
X5.3606Y-4.3779
X5.3606Y-4.4566
X5.4394Y-3.6692
X5.4394Y-3.8661
X5.4394Y-4.0433
X5.4394Y-4.2795
X5.4394Y-4.3779
X5.4394Y-4.4566
X5.4394Y-4.5354
X5.4925Y-3.5531
X5.5181Y-3.7873
X5.5181Y-3.8661
X5.5181Y-3.9645
X5.5181Y-4.0433
X5.5181Y-4.122
X5.5181Y-4.2007
X5.5181Y-4.2795
X5.5181Y-4.3779
X5.5181Y-4.4566
X5.5181Y-4.5354
X5.5516Y-3.624
X5.5772Y-3.2952
X5.5772Y-3.433
X5.5969Y-3.8661
X5.5969Y-3.9645
X5.5969Y-4.0433
X5.5969Y-4.122
X5.5969Y-4.2007
X5.5969Y-4.2795
X5.5969Y-4.3779
X5.6362Y-3.5118
X5.6756Y-3.2362
X5.6756Y-4.6535
X5.715Y-3.5118
X5.715Y-3.5905
X5.715Y-3.6692
X5.715Y-3.748
X5.715Y-4.1417
X5.715Y-4.2204
X5.715Y-4.2992
X5.715Y-4.3779
X5.7543Y-3.1574
X5.7543Y-3.2362
X5.7543Y-4.6535
X5.7543Y-4.7125
X5.8331Y-3.2362
X5.8331Y-4.6535
X5.8429Y-3.5118
X5.8429Y-3.5905
X5.8429Y-3.6692
X5.8429Y-3.748
X5.9118Y-3.2362
X5.9118Y-4.1417
X5.9118Y-4.2204
X5.9118Y-4.2992
X5.9118Y-4.3779
X5.9118Y-4.6535
X5.9217Y-3.5118
X5.9217Y-3.5905
X5.9217Y-3.6692
X5.9217Y-3.748
X5.9906Y-3.2362
X5.9906Y-3.5118
X5.9906Y-3.5905
X5.9906Y-3.6692
X5.9906Y-3.748
X5.9906Y-3.8267
X5.9906Y-4.6535
X6.0693Y-3.1574
X6.0693Y-3.2362
X6.0693Y-3.5118
X6.0693Y-3.5905
X6.0693Y-3.6692
X6.0693Y-3.748
X6.0693Y-3.8267
X6.0693Y-4.6535
X6.0693Y-4.7125
X6.148Y-3.2362
X6.148Y-3.5118
X6.148Y-3.5905
X6.148Y-3.6692
X6.148Y-3.748
X6.148Y-3.8267
X6.148Y-4.0629
X6.148Y-4.1417
X6.148Y-4.2204
X6.148Y-4.2992
X6.148Y-4.3779
X6.148Y-4.6535
X6.2268Y-3.5118
X6.2268Y-3.5905
X6.2268Y-3.6692
X6.2268Y-3.748
X6.2268Y-3.8267
X6.2268Y-3.9055
X6.2268Y-3.9842
X6.2268Y-4.0629
X6.2268Y-4.1417
X6.2268Y-4.2204
X6.2268Y-4.2992
X6.2268Y-4.3779
X6.3055Y-3.3543
X6.3055Y-3.433
X6.3055Y-3.5118
X6.3055Y-3.5905
X6.3055Y-3.6692
X6.3055Y-3.748
X6.3055Y-3.8267
X6.3055Y-3.9055
X6.3055Y-4.1417
X6.3055Y-4.2204
X6.3055Y-4.2992
X6.3055Y-4.3779
X6.3055Y-4.4566
X6.3055Y-4.5354
X6.3843Y-3.3543
X6.3843Y-3.433
X6.3843Y-3.5118
X6.3843Y-3.5905
X6.3843Y-3.6692
X6.3843Y-3.748
X6.3843Y-4.1417
X6.3843Y-4.2204
X6.3843Y-4.2992
X6.3843Y-4.3779
X6.3843Y-4.4566
X6.3843Y-4.5354
X6.4276Y-3.9212
X6.463Y-3.433
X6.463Y-3.5118
X6.463Y-3.5905
X6.463Y-3.6692
X6.463Y-4.1417
X6.463Y-4.2204
X6.463Y-4.2992
X6.463Y-4.3779
X6.463Y-4.4566
X6.5417Y-3.433
X6.5417Y-3.6692
X6.5417Y-3.9055
X6.5417Y-3.9842
X6.5417Y-4.0629
X6.5417Y-4.1417
X6.5417Y-4.2204
X6.6205Y-3.6692
X6.6205Y-3.9055
X6.6205Y-3.9842
X6.6205Y-4.0629
X6.6205Y-4.1417
X6.6205Y-4.2204
T2
X5.1965Y-3.757
X5.1965Y-3.8358
T3
X5.6618Y-3.3042
X5.6618Y-3.4042
X5.6618Y-3.8911
X5.6618Y-3.9911
X5.6618Y-4.4781
X5.6618Y-4.5781
X5.7618Y-3.3042
X5.7618Y-3.4042
X5.7618Y-3.8911
X5.7618Y-3.9911
X5.7618Y-4.4781
X5.7618Y-4.5781
X5.8618Y-3.3042
X5.8618Y-3.4042
X5.8618Y-3.8911
X5.8618Y-3.9911
X5.8618Y-4.4781
X5.8618Y-4.5781
X5.9618Y-3.3042
X5.9618Y-3.4042
X5.9618Y-3.8911
X5.9618Y-3.9911
X5.9618Y-4.4781
X5.9618Y-4.5781
X6.0618Y-3.3042
X6.0618Y-3.4042
X6.0618Y-3.8911
X6.0618Y-3.9911
X6.0618Y-4.4781
X6.0618Y-4.5781
X6.1618Y-3.3042
X6.1618Y-3.4042
X6.1618Y-3.8911
X6.1618Y-3.9911
X6.1618Y-4.4781
X6.1618Y-4.5781
T4
X5.4031Y-3.7718
X5.4031Y-3.9569
X5.4031Y-4.1419
T0
M30
