%TF.GenerationSoftware,KiCad,Pcbnew,7.0.5*%
%TF.CreationDate,2024-01-18T17:38:35-05:00*%
%TF.ProjectId,CONN,434f4e4e-2e6b-4696-9361-645f70636258,rev?*%
%TF.SameCoordinates,Original*%
%TF.FileFunction,Legend,Top*%
%TF.FilePolarity,Positive*%
%FSLAX46Y46*%
G04 Gerber Fmt 4.6, Leading zero omitted, Abs format (unit mm)*
G04 Created by KiCad (PCBNEW 7.0.5) date 2024-01-18 17:38:35*
%MOMM*%
%LPD*%
G01*
G04 APERTURE LIST*
%ADD10C,0.200000*%
%ADD11C,0.300000*%
%ADD12C,0.120000*%
%ADD13C,0.127000*%
G04 APERTURE END LIST*
D10*
X146713006Y-91127363D02*
X146313006Y-90555935D01*
X146027292Y-91127363D02*
X146027292Y-89927363D01*
X146027292Y-89927363D02*
X146484435Y-89927363D01*
X146484435Y-89927363D02*
X146598720Y-89984506D01*
X146598720Y-89984506D02*
X146655863Y-90041649D01*
X146655863Y-90041649D02*
X146713006Y-90155935D01*
X146713006Y-90155935D02*
X146713006Y-90327363D01*
X146713006Y-90327363D02*
X146655863Y-90441649D01*
X146655863Y-90441649D02*
X146598720Y-90498792D01*
X146598720Y-90498792D02*
X146484435Y-90555935D01*
X146484435Y-90555935D02*
X146027292Y-90555935D01*
X147684435Y-91070221D02*
X147570149Y-91127363D01*
X147570149Y-91127363D02*
X147341578Y-91127363D01*
X147341578Y-91127363D02*
X147227292Y-91070221D01*
X147227292Y-91070221D02*
X147170149Y-90955935D01*
X147170149Y-90955935D02*
X147170149Y-90498792D01*
X147170149Y-90498792D02*
X147227292Y-90384506D01*
X147227292Y-90384506D02*
X147341578Y-90327363D01*
X147341578Y-90327363D02*
X147570149Y-90327363D01*
X147570149Y-90327363D02*
X147684435Y-90384506D01*
X147684435Y-90384506D02*
X147741578Y-90498792D01*
X147741578Y-90498792D02*
X147741578Y-90613078D01*
X147741578Y-90613078D02*
X147170149Y-90727363D01*
X148198720Y-91070221D02*
X148313006Y-91127363D01*
X148313006Y-91127363D02*
X148541577Y-91127363D01*
X148541577Y-91127363D02*
X148655863Y-91070221D01*
X148655863Y-91070221D02*
X148713006Y-90955935D01*
X148713006Y-90955935D02*
X148713006Y-90898792D01*
X148713006Y-90898792D02*
X148655863Y-90784506D01*
X148655863Y-90784506D02*
X148541577Y-90727363D01*
X148541577Y-90727363D02*
X148370149Y-90727363D01*
X148370149Y-90727363D02*
X148255863Y-90670221D01*
X148255863Y-90670221D02*
X148198720Y-90555935D01*
X148198720Y-90555935D02*
X148198720Y-90498792D01*
X148198720Y-90498792D02*
X148255863Y-90384506D01*
X148255863Y-90384506D02*
X148370149Y-90327363D01*
X148370149Y-90327363D02*
X148541577Y-90327363D01*
X148541577Y-90327363D02*
X148655863Y-90384506D01*
X149227292Y-90498792D02*
X149627292Y-90498792D01*
X149798720Y-91127363D02*
X149227292Y-91127363D01*
X149227292Y-91127363D02*
X149227292Y-89927363D01*
X149227292Y-89927363D02*
X149798720Y-89927363D01*
X150313006Y-90327363D02*
X150313006Y-91127363D01*
X150313006Y-90441649D02*
X150370149Y-90384506D01*
X150370149Y-90384506D02*
X150484434Y-90327363D01*
X150484434Y-90327363D02*
X150655863Y-90327363D01*
X150655863Y-90327363D02*
X150770149Y-90384506D01*
X150770149Y-90384506D02*
X150827292Y-90498792D01*
X150827292Y-90498792D02*
X150827292Y-91127363D01*
X151284434Y-90327363D02*
X151570148Y-91127363D01*
X151570148Y-91127363D02*
X151855863Y-90327363D01*
X146427292Y-92430792D02*
X146027292Y-92430792D01*
X146027292Y-93059363D02*
X146027292Y-91859363D01*
X146027292Y-91859363D02*
X146598720Y-91859363D01*
X147570149Y-93059363D02*
X147570149Y-92430792D01*
X147570149Y-92430792D02*
X147513006Y-92316506D01*
X147513006Y-92316506D02*
X147398720Y-92259363D01*
X147398720Y-92259363D02*
X147170149Y-92259363D01*
X147170149Y-92259363D02*
X147055863Y-92316506D01*
X147570149Y-93002221D02*
X147455863Y-93059363D01*
X147455863Y-93059363D02*
X147170149Y-93059363D01*
X147170149Y-93059363D02*
X147055863Y-93002221D01*
X147055863Y-93002221D02*
X146998720Y-92887935D01*
X146998720Y-92887935D02*
X146998720Y-92773649D01*
X146998720Y-92773649D02*
X147055863Y-92659363D01*
X147055863Y-92659363D02*
X147170149Y-92602221D01*
X147170149Y-92602221D02*
X147455863Y-92602221D01*
X147455863Y-92602221D02*
X147570149Y-92545078D01*
X148141577Y-92259363D02*
X148141577Y-93059363D01*
X148141577Y-92373649D02*
X148198720Y-92316506D01*
X148198720Y-92316506D02*
X148313005Y-92259363D01*
X148313005Y-92259363D02*
X148484434Y-92259363D01*
X148484434Y-92259363D02*
X148598720Y-92316506D01*
X148598720Y-92316506D02*
X148655863Y-92430792D01*
X148655863Y-92430792D02*
X148655863Y-93059363D01*
X149741577Y-92259363D02*
X149741577Y-93230792D01*
X149741577Y-93230792D02*
X149684434Y-93345078D01*
X149684434Y-93345078D02*
X149627291Y-93402221D01*
X149627291Y-93402221D02*
X149513005Y-93459363D01*
X149513005Y-93459363D02*
X149341577Y-93459363D01*
X149341577Y-93459363D02*
X149227291Y-93402221D01*
X149741577Y-93002221D02*
X149627291Y-93059363D01*
X149627291Y-93059363D02*
X149398719Y-93059363D01*
X149398719Y-93059363D02*
X149284434Y-93002221D01*
X149284434Y-93002221D02*
X149227291Y-92945078D01*
X149227291Y-92945078D02*
X149170148Y-92830792D01*
X149170148Y-92830792D02*
X149170148Y-92487935D01*
X149170148Y-92487935D02*
X149227291Y-92373649D01*
X149227291Y-92373649D02*
X149284434Y-92316506D01*
X149284434Y-92316506D02*
X149398719Y-92259363D01*
X149398719Y-92259363D02*
X149627291Y-92259363D01*
X149627291Y-92259363D02*
X149741577Y-92316506D01*
X150198719Y-92259363D02*
X150827291Y-92259363D01*
X150827291Y-92259363D02*
X150198719Y-93059363D01*
X150198719Y-93059363D02*
X150827291Y-93059363D01*
X151284434Y-93059363D02*
X151284434Y-91859363D01*
X151798720Y-93059363D02*
X151798720Y-92430792D01*
X151798720Y-92430792D02*
X151741577Y-92316506D01*
X151741577Y-92316506D02*
X151627291Y-92259363D01*
X151627291Y-92259363D02*
X151455862Y-92259363D01*
X151455862Y-92259363D02*
X151341577Y-92316506D01*
X151341577Y-92316506D02*
X151284434Y-92373649D01*
X152827291Y-93002221D02*
X152713005Y-93059363D01*
X152713005Y-93059363D02*
X152484434Y-93059363D01*
X152484434Y-93059363D02*
X152370148Y-93002221D01*
X152370148Y-93002221D02*
X152313005Y-92887935D01*
X152313005Y-92887935D02*
X152313005Y-92430792D01*
X152313005Y-92430792D02*
X152370148Y-92316506D01*
X152370148Y-92316506D02*
X152484434Y-92259363D01*
X152484434Y-92259363D02*
X152713005Y-92259363D01*
X152713005Y-92259363D02*
X152827291Y-92316506D01*
X152827291Y-92316506D02*
X152884434Y-92430792D01*
X152884434Y-92430792D02*
X152884434Y-92545078D01*
X152884434Y-92545078D02*
X152313005Y-92659363D01*
X153398719Y-92259363D02*
X153398719Y-93059363D01*
X153398719Y-92373649D02*
X153455862Y-92316506D01*
X153455862Y-92316506D02*
X153570147Y-92259363D01*
X153570147Y-92259363D02*
X153741576Y-92259363D01*
X153741576Y-92259363D02*
X153855862Y-92316506D01*
X153855862Y-92316506D02*
X153913005Y-92430792D01*
X153913005Y-92430792D02*
X153913005Y-93059363D01*
X154998719Y-92259363D02*
X154998719Y-93230792D01*
X154998719Y-93230792D02*
X154941576Y-93345078D01*
X154941576Y-93345078D02*
X154884433Y-93402221D01*
X154884433Y-93402221D02*
X154770147Y-93459363D01*
X154770147Y-93459363D02*
X154598719Y-93459363D01*
X154598719Y-93459363D02*
X154484433Y-93402221D01*
X154998719Y-93002221D02*
X154884433Y-93059363D01*
X154884433Y-93059363D02*
X154655861Y-93059363D01*
X154655861Y-93059363D02*
X154541576Y-93002221D01*
X154541576Y-93002221D02*
X154484433Y-92945078D01*
X154484433Y-92945078D02*
X154427290Y-92830792D01*
X154427290Y-92830792D02*
X154427290Y-92487935D01*
X154427290Y-92487935D02*
X154484433Y-92373649D01*
X154484433Y-92373649D02*
X154541576Y-92316506D01*
X154541576Y-92316506D02*
X154655861Y-92259363D01*
X154655861Y-92259363D02*
X154884433Y-92259363D01*
X154884433Y-92259363D02*
X154998719Y-92316506D01*
X157055861Y-93059363D02*
X156484433Y-93059363D01*
X156484433Y-93059363D02*
X156484433Y-91859363D01*
X157455862Y-93059363D02*
X157455862Y-92259363D01*
X157455862Y-91859363D02*
X157398719Y-91916506D01*
X157398719Y-91916506D02*
X157455862Y-91973649D01*
X157455862Y-91973649D02*
X157513005Y-91916506D01*
X157513005Y-91916506D02*
X157455862Y-91859363D01*
X157455862Y-91859363D02*
X157455862Y-91973649D01*
X158541577Y-92259363D02*
X158541577Y-93059363D01*
X158027291Y-92259363D02*
X158027291Y-92887935D01*
X158027291Y-92887935D02*
X158084434Y-93002221D01*
X158084434Y-93002221D02*
X158198719Y-93059363D01*
X158198719Y-93059363D02*
X158370148Y-93059363D01*
X158370148Y-93059363D02*
X158484434Y-93002221D01*
X158484434Y-93002221D02*
X158541577Y-92945078D01*
X145855863Y-94191363D02*
X146313006Y-94191363D01*
X146027292Y-94991363D02*
X146027292Y-93962792D01*
X146027292Y-93962792D02*
X146084435Y-93848506D01*
X146084435Y-93848506D02*
X146198720Y-93791363D01*
X146198720Y-93791363D02*
X146313006Y-93791363D01*
X146598720Y-94191363D02*
X147227292Y-94191363D01*
X147227292Y-94191363D02*
X146598720Y-94991363D01*
X146598720Y-94991363D02*
X147227292Y-94991363D01*
X147855863Y-94991363D02*
X147741578Y-94934221D01*
X147741578Y-94934221D02*
X147684435Y-94819935D01*
X147684435Y-94819935D02*
X147684435Y-93791363D01*
X148313006Y-94991363D02*
X148313006Y-94191363D01*
X148313006Y-93791363D02*
X148255863Y-93848506D01*
X148255863Y-93848506D02*
X148313006Y-93905649D01*
X148313006Y-93905649D02*
X148370149Y-93848506D01*
X148370149Y-93848506D02*
X148313006Y-93791363D01*
X148313006Y-93791363D02*
X148313006Y-93905649D01*
X149398721Y-94191363D02*
X149398721Y-94991363D01*
X148884435Y-94191363D02*
X148884435Y-94819935D01*
X148884435Y-94819935D02*
X148941578Y-94934221D01*
X148941578Y-94934221D02*
X149055863Y-94991363D01*
X149055863Y-94991363D02*
X149227292Y-94991363D01*
X149227292Y-94991363D02*
X149341578Y-94934221D01*
X149341578Y-94934221D02*
X149398721Y-94877078D01*
X150713006Y-94419935D02*
X150655863Y-94362792D01*
X150655863Y-94362792D02*
X150541577Y-94305649D01*
X150541577Y-94305649D02*
X150427292Y-94305649D01*
X150427292Y-94305649D02*
X150313006Y-94362792D01*
X150313006Y-94362792D02*
X150255863Y-94419935D01*
X150255863Y-94419935D02*
X150198720Y-94534221D01*
X150198720Y-94534221D02*
X150198720Y-94648506D01*
X150198720Y-94648506D02*
X150255863Y-94762792D01*
X150255863Y-94762792D02*
X150313006Y-94819935D01*
X150313006Y-94819935D02*
X150427292Y-94877078D01*
X150427292Y-94877078D02*
X150541577Y-94877078D01*
X150541577Y-94877078D02*
X150655863Y-94819935D01*
X150655863Y-94819935D02*
X150713006Y-94762792D01*
X150713006Y-94305649D02*
X150713006Y-94762792D01*
X150713006Y-94762792D02*
X150770149Y-94819935D01*
X150770149Y-94819935D02*
X150827292Y-94819935D01*
X150827292Y-94819935D02*
X150941577Y-94762792D01*
X150941577Y-94762792D02*
X150998720Y-94648506D01*
X150998720Y-94648506D02*
X150998720Y-94362792D01*
X150998720Y-94362792D02*
X150884435Y-94191363D01*
X150884435Y-94191363D02*
X150713006Y-94077078D01*
X150713006Y-94077078D02*
X150484435Y-94019935D01*
X150484435Y-94019935D02*
X150255863Y-94077078D01*
X150255863Y-94077078D02*
X150084435Y-94191363D01*
X150084435Y-94191363D02*
X149970149Y-94362792D01*
X149970149Y-94362792D02*
X149913006Y-94591363D01*
X149913006Y-94591363D02*
X149970149Y-94819935D01*
X149970149Y-94819935D02*
X150084435Y-94991363D01*
X150084435Y-94991363D02*
X150255863Y-95105649D01*
X150255863Y-95105649D02*
X150484435Y-95162792D01*
X150484435Y-95162792D02*
X150713006Y-95105649D01*
X150713006Y-95105649D02*
X150884435Y-94991363D01*
X151513006Y-94991363D02*
X151513006Y-94191363D01*
X151513006Y-94305649D02*
X151570149Y-94248506D01*
X151570149Y-94248506D02*
X151684434Y-94191363D01*
X151684434Y-94191363D02*
X151855863Y-94191363D01*
X151855863Y-94191363D02*
X151970149Y-94248506D01*
X151970149Y-94248506D02*
X152027292Y-94362792D01*
X152027292Y-94362792D02*
X152027292Y-94991363D01*
X152027292Y-94362792D02*
X152084434Y-94248506D01*
X152084434Y-94248506D02*
X152198720Y-94191363D01*
X152198720Y-94191363D02*
X152370149Y-94191363D01*
X152370149Y-94191363D02*
X152484434Y-94248506D01*
X152484434Y-94248506D02*
X152541577Y-94362792D01*
X152541577Y-94362792D02*
X152541577Y-94991363D01*
X153113006Y-94991363D02*
X153113006Y-94191363D01*
X153113006Y-93791363D02*
X153055863Y-93848506D01*
X153055863Y-93848506D02*
X153113006Y-93905649D01*
X153113006Y-93905649D02*
X153170149Y-93848506D01*
X153170149Y-93848506D02*
X153113006Y-93791363D01*
X153113006Y-93791363D02*
X153113006Y-93905649D01*
X153513006Y-94191363D02*
X153970149Y-94191363D01*
X153684435Y-93791363D02*
X153684435Y-94819935D01*
X153684435Y-94819935D02*
X153741578Y-94934221D01*
X153741578Y-94934221D02*
X153855863Y-94991363D01*
X153855863Y-94991363D02*
X153970149Y-94991363D01*
X154370149Y-94877078D02*
X154427292Y-94934221D01*
X154427292Y-94934221D02*
X154370149Y-94991363D01*
X154370149Y-94991363D02*
X154313006Y-94934221D01*
X154313006Y-94934221D02*
X154370149Y-94877078D01*
X154370149Y-94877078D02*
X154370149Y-94991363D01*
X155398721Y-94934221D02*
X155284435Y-94991363D01*
X155284435Y-94991363D02*
X155055864Y-94991363D01*
X155055864Y-94991363D02*
X154941578Y-94934221D01*
X154941578Y-94934221D02*
X154884435Y-94819935D01*
X154884435Y-94819935D02*
X154884435Y-94362792D01*
X154884435Y-94362792D02*
X154941578Y-94248506D01*
X154941578Y-94248506D02*
X155055864Y-94191363D01*
X155055864Y-94191363D02*
X155284435Y-94191363D01*
X155284435Y-94191363D02*
X155398721Y-94248506D01*
X155398721Y-94248506D02*
X155455864Y-94362792D01*
X155455864Y-94362792D02*
X155455864Y-94477078D01*
X155455864Y-94477078D02*
X154884435Y-94591363D01*
X156484435Y-94991363D02*
X156484435Y-93791363D01*
X156484435Y-94934221D02*
X156370149Y-94991363D01*
X156370149Y-94991363D02*
X156141577Y-94991363D01*
X156141577Y-94991363D02*
X156027292Y-94934221D01*
X156027292Y-94934221D02*
X155970149Y-94877078D01*
X155970149Y-94877078D02*
X155913006Y-94762792D01*
X155913006Y-94762792D02*
X155913006Y-94419935D01*
X155913006Y-94419935D02*
X155970149Y-94305649D01*
X155970149Y-94305649D02*
X156027292Y-94248506D01*
X156027292Y-94248506D02*
X156141577Y-94191363D01*
X156141577Y-94191363D02*
X156370149Y-94191363D01*
X156370149Y-94191363D02*
X156484435Y-94248506D01*
X157570149Y-94191363D02*
X157570149Y-94991363D01*
X157055863Y-94191363D02*
X157055863Y-94819935D01*
X157055863Y-94819935D02*
X157113006Y-94934221D01*
X157113006Y-94934221D02*
X157227291Y-94991363D01*
X157227291Y-94991363D02*
X157398720Y-94991363D01*
X157398720Y-94991363D02*
X157513006Y-94934221D01*
X157513006Y-94934221D02*
X157570149Y-94877078D01*
D11*
X136300225Y-91849449D02*
X136585939Y-91849449D01*
X136585939Y-91849449D02*
X136728796Y-91920878D01*
X136728796Y-91920878D02*
X136871653Y-92063735D01*
X136871653Y-92063735D02*
X136943082Y-92349449D01*
X136943082Y-92349449D02*
X136943082Y-92849449D01*
X136943082Y-92849449D02*
X136871653Y-93135163D01*
X136871653Y-93135163D02*
X136728796Y-93278021D01*
X136728796Y-93278021D02*
X136585939Y-93349449D01*
X136585939Y-93349449D02*
X136300225Y-93349449D01*
X136300225Y-93349449D02*
X136157368Y-93278021D01*
X136157368Y-93278021D02*
X136014510Y-93135163D01*
X136014510Y-93135163D02*
X135943082Y-92849449D01*
X135943082Y-92849449D02*
X135943082Y-92349449D01*
X135943082Y-92349449D02*
X136014510Y-92063735D01*
X136014510Y-92063735D02*
X136157368Y-91920878D01*
X136157368Y-91920878D02*
X136300225Y-91849449D01*
X137585939Y-93349449D02*
X137585939Y-91849449D01*
X137585939Y-91849449D02*
X138443082Y-93349449D01*
X138443082Y-93349449D02*
X138443082Y-91849449D01*
D10*
G36*
X145764605Y-106973621D02*
G01*
X145764605Y-105449545D01*
X146069420Y-105449545D01*
X146069420Y-106059175D01*
X146667327Y-106059175D01*
X146667327Y-105449545D01*
X146972142Y-105449545D01*
X146972142Y-106973621D01*
X146667327Y-106973621D01*
X146667327Y-106317096D01*
X146069420Y-106317096D01*
X146069420Y-106973621D01*
X145764605Y-106973621D01*
G37*
G36*
X147709395Y-105848307D02*
G01*
X147724344Y-105848781D01*
X147739091Y-105849569D01*
X147767982Y-105852094D01*
X147796069Y-105855881D01*
X147823352Y-105860930D01*
X147849830Y-105867241D01*
X147875504Y-105874814D01*
X147900374Y-105883650D01*
X147924440Y-105893748D01*
X147947701Y-105905108D01*
X147970158Y-105917730D01*
X147991811Y-105931615D01*
X148012659Y-105946762D01*
X148032703Y-105963171D01*
X148051943Y-105980842D01*
X148070379Y-105999776D01*
X148079295Y-106009716D01*
X148096395Y-106030583D01*
X148112342Y-106052793D01*
X148127135Y-106076344D01*
X148140775Y-106101238D01*
X148153262Y-106127475D01*
X148159072Y-106141097D01*
X148164595Y-106155054D01*
X148169829Y-106169347D01*
X148174774Y-106183975D01*
X148179431Y-106198939D01*
X148183800Y-106214239D01*
X148187881Y-106229874D01*
X148191673Y-106245845D01*
X148195176Y-106262151D01*
X148198392Y-106278793D01*
X148201319Y-106295771D01*
X148203957Y-106313084D01*
X148206308Y-106330733D01*
X148208369Y-106348718D01*
X148210143Y-106367038D01*
X148211628Y-106385693D01*
X148212825Y-106404684D01*
X148213733Y-106424011D01*
X148214353Y-106443674D01*
X148214685Y-106463671D01*
X148214728Y-106484005D01*
X148214483Y-106504674D01*
X147489082Y-106504674D01*
X147489699Y-106521112D01*
X147490816Y-106537086D01*
X147492435Y-106552596D01*
X147494554Y-106567643D01*
X147497175Y-106582226D01*
X147502044Y-106603231D01*
X147508041Y-106623193D01*
X147515165Y-106642112D01*
X147523416Y-106659987D01*
X147532793Y-106676819D01*
X147543298Y-106692608D01*
X147554930Y-106707353D01*
X147559057Y-106712036D01*
X147571918Y-106725262D01*
X147585358Y-106737187D01*
X147599378Y-106747811D01*
X147613978Y-106757134D01*
X147629157Y-106765156D01*
X147644915Y-106771877D01*
X147661254Y-106777297D01*
X147678172Y-106781417D01*
X147695669Y-106784235D01*
X147713746Y-106785753D01*
X147726120Y-106786042D01*
X147742726Y-106785521D01*
X147758657Y-106783958D01*
X147773913Y-106781354D01*
X147788493Y-106777707D01*
X147802398Y-106773019D01*
X147818829Y-106765693D01*
X147834204Y-106756740D01*
X147840059Y-106752703D01*
X147854044Y-106741292D01*
X147864434Y-106730733D01*
X147874114Y-106718903D01*
X147883084Y-106705803D01*
X147891345Y-106691432D01*
X147898895Y-106675790D01*
X147905736Y-106658877D01*
X147910401Y-106645358D01*
X148199096Y-106692253D01*
X148191883Y-106710614D01*
X148184166Y-106728420D01*
X148175946Y-106745670D01*
X148167222Y-106762366D01*
X148157994Y-106778506D01*
X148148263Y-106794091D01*
X148138027Y-106809120D01*
X148127288Y-106823594D01*
X148116046Y-106837513D01*
X148104299Y-106850877D01*
X148092049Y-106863685D01*
X148079295Y-106875939D01*
X148066037Y-106887637D01*
X148052275Y-106898779D01*
X148038010Y-106909367D01*
X148023241Y-106919399D01*
X148008030Y-106928804D01*
X147992346Y-106937602D01*
X147976190Y-106945794D01*
X147959562Y-106953379D01*
X147942462Y-106960357D01*
X147924889Y-106966728D01*
X147906844Y-106972493D01*
X147888327Y-106977651D01*
X147869338Y-106982201D01*
X147849876Y-106986146D01*
X147829942Y-106989483D01*
X147809536Y-106992213D01*
X147788658Y-106994337D01*
X147767307Y-106995854D01*
X147745484Y-106996764D01*
X147723189Y-106997068D01*
X147705474Y-106996885D01*
X147688049Y-106996337D01*
X147670915Y-106995422D01*
X147654072Y-106994143D01*
X147637519Y-106992497D01*
X147621256Y-106990486D01*
X147605284Y-106988109D01*
X147589603Y-106985367D01*
X147574212Y-106982259D01*
X147559112Y-106978785D01*
X147544302Y-106974946D01*
X147529783Y-106970741D01*
X147515554Y-106966170D01*
X147501616Y-106961234D01*
X147474610Y-106950265D01*
X147448767Y-106937833D01*
X147424087Y-106923938D01*
X147400568Y-106908581D01*
X147378211Y-106891761D01*
X147357016Y-106873479D01*
X147336983Y-106853734D01*
X147318113Y-106832526D01*
X147300404Y-106809856D01*
X147287317Y-106790773D01*
X147275074Y-106771078D01*
X147263675Y-106750771D01*
X147253120Y-106729851D01*
X147243410Y-106708318D01*
X147234545Y-106686173D01*
X147226523Y-106663416D01*
X147219346Y-106640046D01*
X147213013Y-106616063D01*
X147207525Y-106591468D01*
X147202881Y-106566261D01*
X147199082Y-106540441D01*
X147196126Y-106514008D01*
X147194015Y-106486963D01*
X147192749Y-106459305D01*
X147192327Y-106431035D01*
X147192466Y-106414069D01*
X147192882Y-106397335D01*
X147193576Y-106380833D01*
X147194548Y-106364563D01*
X147195797Y-106348524D01*
X147197324Y-106332718D01*
X147199129Y-106317143D01*
X147199135Y-106317096D01*
X147494211Y-106317096D01*
X147926887Y-106317096D01*
X147926290Y-106301534D01*
X147925233Y-106286447D01*
X147923714Y-106271835D01*
X147920573Y-106250809D01*
X147916394Y-106230851D01*
X147911179Y-106211963D01*
X147904927Y-106194143D01*
X147897638Y-106177393D01*
X147889312Y-106161711D01*
X147879949Y-106147099D01*
X147869550Y-106133556D01*
X147862041Y-106125121D01*
X147850196Y-106113336D01*
X147837882Y-106102710D01*
X147825098Y-106093243D01*
X147811843Y-106084935D01*
X147798118Y-106077787D01*
X147783924Y-106071798D01*
X147769259Y-106066968D01*
X147754123Y-106063297D01*
X147738518Y-106060785D01*
X147722443Y-106059433D01*
X147711465Y-106059175D01*
X147694029Y-106059784D01*
X147677166Y-106061610D01*
X147660876Y-106064652D01*
X147645159Y-106068913D01*
X147630015Y-106074390D01*
X147615445Y-106081084D01*
X147601447Y-106088996D01*
X147588023Y-106098124D01*
X147575172Y-106108470D01*
X147562894Y-106120033D01*
X147555027Y-106128418D01*
X147543972Y-106141905D01*
X147534024Y-106156260D01*
X147525184Y-106171486D01*
X147517452Y-106187580D01*
X147510828Y-106204544D01*
X147505311Y-106222378D01*
X147500901Y-106241081D01*
X147497600Y-106260653D01*
X147495406Y-106281094D01*
X147494320Y-106302405D01*
X147494211Y-106317096D01*
X147199135Y-106317096D01*
X147201211Y-106301800D01*
X147203571Y-106286689D01*
X147206209Y-106271810D01*
X147209124Y-106257162D01*
X147212317Y-106242747D01*
X147219535Y-106214611D01*
X147227864Y-106187403D01*
X147237304Y-106161122D01*
X147247854Y-106135768D01*
X147259515Y-106111342D01*
X147272286Y-106087843D01*
X147286168Y-106065272D01*
X147301160Y-106043628D01*
X147317263Y-106022911D01*
X147334476Y-106003122D01*
X147352540Y-105984355D01*
X147371193Y-105966800D01*
X147390435Y-105950455D01*
X147410268Y-105935321D01*
X147430690Y-105921398D01*
X147451701Y-105908685D01*
X147473302Y-105897184D01*
X147495493Y-105886892D01*
X147518274Y-105877812D01*
X147541644Y-105869942D01*
X147565603Y-105863283D01*
X147590153Y-105857835D01*
X147615291Y-105853598D01*
X147641020Y-105850571D01*
X147667338Y-105848755D01*
X147694246Y-105848149D01*
X147709395Y-105848307D01*
G37*
G36*
X148305708Y-106973621D02*
G01*
X148700282Y-106406122D01*
X148322194Y-105871597D01*
X148675369Y-105871597D01*
X148869176Y-106174580D01*
X149073241Y-105871597D01*
X149413227Y-105871597D01*
X149042466Y-106393666D01*
X149447299Y-106973621D01*
X149091926Y-106973621D01*
X148869176Y-106632169D01*
X148644595Y-106973621D01*
X148305708Y-106973621D01*
G37*
G36*
X149537424Y-106481227D02*
G01*
X149834180Y-106457780D01*
X149837737Y-106475614D01*
X149841724Y-106492848D01*
X149846141Y-106509480D01*
X149850987Y-106525511D01*
X149856262Y-106540941D01*
X149861966Y-106555771D01*
X149868100Y-106569999D01*
X149874663Y-106583626D01*
X149881655Y-106596652D01*
X149892949Y-106615064D01*
X149905208Y-106632123D01*
X149918434Y-106647830D01*
X149932626Y-106662185D01*
X149942623Y-106671004D01*
X149958513Y-106683182D01*
X149975407Y-106694162D01*
X149993306Y-106703944D01*
X150012210Y-106712529D01*
X150032118Y-106719915D01*
X150053031Y-106726104D01*
X150067531Y-106729565D01*
X150082477Y-106732493D01*
X150097870Y-106734888D01*
X150113710Y-106736752D01*
X150129996Y-106738083D01*
X150146728Y-106738881D01*
X150163907Y-106739147D01*
X150182034Y-106738908D01*
X150199594Y-106738191D01*
X150216587Y-106736996D01*
X150233013Y-106735323D01*
X150248872Y-106733172D01*
X150264165Y-106730544D01*
X150278891Y-106727437D01*
X150299918Y-106721880D01*
X150319669Y-106715248D01*
X150338146Y-106707540D01*
X150355347Y-106698757D01*
X150371273Y-106688899D01*
X150385924Y-106677965D01*
X150399281Y-106666244D01*
X150411323Y-106654162D01*
X150422053Y-106641720D01*
X150431468Y-106628918D01*
X150439569Y-106615754D01*
X150446357Y-106602230D01*
X150451831Y-106588346D01*
X150455991Y-106574100D01*
X150458838Y-106559494D01*
X150460370Y-106544528D01*
X150460662Y-106534350D01*
X150459893Y-106518248D01*
X150457586Y-106502915D01*
X150453739Y-106488352D01*
X150448355Y-106474558D01*
X150441432Y-106461533D01*
X150432970Y-106449277D01*
X150429155Y-106444590D01*
X150418173Y-106433260D01*
X150404919Y-106422394D01*
X150392680Y-106414036D01*
X150378988Y-106405976D01*
X150363841Y-106398214D01*
X150347240Y-106390749D01*
X150329185Y-106383582D01*
X150319612Y-106380110D01*
X150304013Y-106374878D01*
X150289511Y-106370338D01*
X150272607Y-106365270D01*
X150253301Y-106359673D01*
X150239096Y-106355649D01*
X150223823Y-106351390D01*
X150207483Y-106346896D01*
X150190075Y-106342168D01*
X150171599Y-106337205D01*
X150152056Y-106332007D01*
X150131445Y-106326575D01*
X150109767Y-106320907D01*
X150087021Y-106315006D01*
X150075247Y-106311967D01*
X150060071Y-106308025D01*
X150045181Y-106304030D01*
X150030576Y-106299982D01*
X150016257Y-106295881D01*
X149988475Y-106287520D01*
X149961835Y-106278948D01*
X149936336Y-106270164D01*
X149911980Y-106261168D01*
X149888766Y-106251960D01*
X149866694Y-106242541D01*
X149845764Y-106232909D01*
X149825976Y-106223066D01*
X149807330Y-106213011D01*
X149789827Y-106202744D01*
X149773465Y-106192266D01*
X149758245Y-106181575D01*
X149744167Y-106170673D01*
X149731231Y-106159559D01*
X149714373Y-106143589D01*
X149698602Y-106127187D01*
X149683919Y-106110353D01*
X149670323Y-106093087D01*
X149657815Y-106075388D01*
X149646395Y-106057258D01*
X149636062Y-106038695D01*
X149626817Y-106019700D01*
X149618660Y-106000272D01*
X149611590Y-105980413D01*
X149605608Y-105960121D01*
X149600714Y-105939397D01*
X149596907Y-105918241D01*
X149594188Y-105896653D01*
X149592557Y-105874632D01*
X149592013Y-105852179D01*
X149592586Y-105830467D01*
X149594305Y-105809019D01*
X149597171Y-105787834D01*
X149601183Y-105766914D01*
X149606342Y-105746258D01*
X149612647Y-105725865D01*
X149620098Y-105705737D01*
X149628695Y-105685873D01*
X149638439Y-105666273D01*
X149645571Y-105653353D01*
X149653213Y-105640550D01*
X149657226Y-105634193D01*
X149665648Y-105621652D01*
X149674519Y-105609492D01*
X149683840Y-105597712D01*
X149693610Y-105586313D01*
X149703830Y-105575295D01*
X149714499Y-105564658D01*
X149725617Y-105554401D01*
X149737185Y-105544525D01*
X149749202Y-105535030D01*
X149761668Y-105525915D01*
X149774584Y-105517181D01*
X149787949Y-105508827D01*
X149801763Y-105500855D01*
X149816027Y-105493263D01*
X149830741Y-105486051D01*
X149845903Y-105479221D01*
X149861534Y-105472788D01*
X149877559Y-105466770D01*
X149893980Y-105461167D01*
X149910795Y-105455979D01*
X149928006Y-105451207D01*
X149945612Y-105446849D01*
X149963612Y-105442906D01*
X149982008Y-105439379D01*
X150000798Y-105436266D01*
X150019983Y-105433568D01*
X150039564Y-105431286D01*
X150059539Y-105429418D01*
X150079910Y-105427965D01*
X150100675Y-105426928D01*
X150121836Y-105426305D01*
X150143391Y-105426098D01*
X150161022Y-105426223D01*
X150178379Y-105426597D01*
X150195461Y-105427222D01*
X150212267Y-105428096D01*
X150228800Y-105429219D01*
X150245057Y-105430593D01*
X150261040Y-105432216D01*
X150276748Y-105434089D01*
X150292181Y-105436212D01*
X150307339Y-105438584D01*
X150322223Y-105441206D01*
X150336831Y-105444078D01*
X150351165Y-105447200D01*
X150379009Y-105454192D01*
X150405754Y-105462184D01*
X150431399Y-105471174D01*
X150455946Y-105481163D01*
X150479393Y-105492151D01*
X150501741Y-105504138D01*
X150522990Y-105517124D01*
X150543140Y-105531109D01*
X150562191Y-105546092D01*
X150571304Y-105553959D01*
X150588768Y-105570275D01*
X150605165Y-105587258D01*
X150620493Y-105604908D01*
X150634754Y-105623225D01*
X150647948Y-105642208D01*
X150660073Y-105661859D01*
X150671132Y-105682176D01*
X150681122Y-105703161D01*
X150690045Y-105724812D01*
X150697900Y-105747130D01*
X150704688Y-105770115D01*
X150710408Y-105793767D01*
X150715061Y-105818086D01*
X150718646Y-105843072D01*
X150721163Y-105868725D01*
X150722613Y-105895044D01*
X150417431Y-105895044D01*
X150413395Y-105874512D01*
X150408566Y-105855095D01*
X150402945Y-105836791D01*
X150396532Y-105819602D01*
X150389326Y-105803526D01*
X150381329Y-105788565D01*
X150372539Y-105774718D01*
X150362958Y-105761985D01*
X150352584Y-105750366D01*
X150341418Y-105739862D01*
X150333534Y-105733477D01*
X150320877Y-105724639D01*
X150307087Y-105716669D01*
X150292164Y-105709569D01*
X150276106Y-105703338D01*
X150258916Y-105697977D01*
X150240592Y-105693485D01*
X150221135Y-105689863D01*
X150200544Y-105687109D01*
X150178820Y-105685226D01*
X150163707Y-105684453D01*
X150148091Y-105684067D01*
X150140094Y-105684018D01*
X150123739Y-105684227D01*
X150107831Y-105684854D01*
X150092369Y-105685899D01*
X150077354Y-105687361D01*
X150062785Y-105689242D01*
X150041769Y-105692846D01*
X150021758Y-105697391D01*
X150002751Y-105702875D01*
X149984750Y-105709300D01*
X149967752Y-105716665D01*
X149951760Y-105724971D01*
X149936772Y-105734217D01*
X149931999Y-105737507D01*
X149918067Y-105748842D01*
X149906496Y-105761321D01*
X149897287Y-105774945D01*
X149890439Y-105789714D01*
X149885953Y-105805628D01*
X149883828Y-105822687D01*
X149883639Y-105829831D01*
X149884748Y-105845836D01*
X149888075Y-105861108D01*
X149893621Y-105875646D01*
X149901384Y-105889451D01*
X149911366Y-105902523D01*
X149923567Y-105914861D01*
X149929068Y-105919590D01*
X149941305Y-105928582D01*
X149956446Y-105937695D01*
X149974492Y-105946932D01*
X149988137Y-105953157D01*
X150003072Y-105959437D01*
X150019298Y-105965771D01*
X150036814Y-105972159D01*
X150055622Y-105978602D01*
X150075721Y-105985099D01*
X150097110Y-105991651D01*
X150119790Y-105998257D01*
X150143761Y-106004917D01*
X150169023Y-106011632D01*
X150195576Y-106018401D01*
X150209337Y-106021806D01*
X150236727Y-106028592D01*
X150263209Y-106035396D01*
X150288785Y-106042217D01*
X150313453Y-106049054D01*
X150337213Y-106055909D01*
X150360067Y-106062782D01*
X150382013Y-106069671D01*
X150403052Y-106076578D01*
X150423183Y-106083501D01*
X150442407Y-106090442D01*
X150460724Y-106097400D01*
X150478133Y-106104375D01*
X150494636Y-106111368D01*
X150510230Y-106118377D01*
X150524918Y-106125404D01*
X150538698Y-106132448D01*
X150551843Y-106139662D01*
X150564624Y-106147200D01*
X150577042Y-106155061D01*
X150594987Y-106167459D01*
X150612114Y-106180585D01*
X150628423Y-106194438D01*
X150643915Y-106209020D01*
X150658588Y-106224329D01*
X150672444Y-106240365D01*
X150685482Y-106257130D01*
X150697702Y-106274622D01*
X150705394Y-106286687D01*
X150716197Y-106305431D01*
X150725937Y-106324980D01*
X150731841Y-106338459D01*
X150737272Y-106352297D01*
X150742231Y-106366492D01*
X150746717Y-106381045D01*
X150750731Y-106395956D01*
X150754273Y-106411224D01*
X150757343Y-106426850D01*
X150759941Y-106442835D01*
X150762066Y-106459176D01*
X150763719Y-106475876D01*
X150764899Y-106492933D01*
X150765608Y-106510349D01*
X150765844Y-106528122D01*
X150765562Y-106544360D01*
X150764716Y-106560470D01*
X150763307Y-106576452D01*
X150761333Y-106592304D01*
X150758796Y-106608028D01*
X150755694Y-106623622D01*
X150752029Y-106639088D01*
X150747800Y-106654426D01*
X150743008Y-106669634D01*
X150737651Y-106684714D01*
X150731731Y-106699664D01*
X150725246Y-106714486D01*
X150718198Y-106729180D01*
X150710586Y-106743744D01*
X150702410Y-106758180D01*
X150693670Y-106772487D01*
X150684415Y-106786500D01*
X150674694Y-106800055D01*
X150664506Y-106813153D01*
X150653851Y-106825793D01*
X150642730Y-106837974D01*
X150631142Y-106849698D01*
X150619088Y-106860963D01*
X150606567Y-106871771D01*
X150593580Y-106882121D01*
X150580126Y-106892013D01*
X150566205Y-106901447D01*
X150551818Y-106910423D01*
X150536965Y-106918941D01*
X150521645Y-106927001D01*
X150505858Y-106934603D01*
X150489605Y-106941747D01*
X150472866Y-106948446D01*
X150455619Y-106954713D01*
X150437866Y-106960547D01*
X150419607Y-106965950D01*
X150400841Y-106970920D01*
X150381568Y-106975458D01*
X150361788Y-106979564D01*
X150341502Y-106983238D01*
X150320710Y-106986479D01*
X150299411Y-106989288D01*
X150277605Y-106991665D01*
X150255292Y-106993610D01*
X150232473Y-106995123D01*
X150209148Y-106996203D01*
X150185315Y-106996852D01*
X150160976Y-106997068D01*
X150143200Y-106996939D01*
X150125684Y-106996554D01*
X150108427Y-106995912D01*
X150091430Y-106995013D01*
X150074693Y-106993857D01*
X150058216Y-106992444D01*
X150041998Y-106990774D01*
X150026040Y-106988848D01*
X150010342Y-106986664D01*
X149994903Y-106984224D01*
X149979725Y-106981526D01*
X149964806Y-106978572D01*
X149950146Y-106975361D01*
X149935747Y-106971893D01*
X149907727Y-106964187D01*
X149880746Y-106955453D01*
X149854805Y-106945691D01*
X149829902Y-106934902D01*
X149806038Y-106923085D01*
X149783213Y-106910241D01*
X149761428Y-106896369D01*
X149740681Y-106881470D01*
X149720973Y-106865543D01*
X149702267Y-106848586D01*
X149684525Y-106830687D01*
X149667749Y-106811846D01*
X149651936Y-106792064D01*
X149637088Y-106771340D01*
X149623205Y-106749675D01*
X149610287Y-106727067D01*
X149598333Y-106703518D01*
X149587343Y-106679028D01*
X149577318Y-106653596D01*
X149568258Y-106627222D01*
X149560162Y-106599906D01*
X149553031Y-106571649D01*
X149549827Y-106557167D01*
X149546864Y-106542450D01*
X149544142Y-106527497D01*
X149541662Y-106512309D01*
X149539423Y-106496886D01*
X149537424Y-106481227D01*
G37*
G36*
X151444845Y-105848307D02*
G01*
X151459794Y-105848781D01*
X151474541Y-105849569D01*
X151503432Y-105852094D01*
X151531519Y-105855881D01*
X151558802Y-105860930D01*
X151585280Y-105867241D01*
X151610954Y-105874814D01*
X151635824Y-105883650D01*
X151659890Y-105893748D01*
X151683151Y-105905108D01*
X151705608Y-105917730D01*
X151727261Y-105931615D01*
X151748109Y-105946762D01*
X151768153Y-105963171D01*
X151787393Y-105980842D01*
X151805829Y-105999776D01*
X151814745Y-106009716D01*
X151831845Y-106030583D01*
X151847792Y-106052793D01*
X151862585Y-106076344D01*
X151876225Y-106101238D01*
X151888712Y-106127475D01*
X151894522Y-106141097D01*
X151900045Y-106155054D01*
X151905279Y-106169347D01*
X151910224Y-106183975D01*
X151914881Y-106198939D01*
X151919250Y-106214239D01*
X151923331Y-106229874D01*
X151927123Y-106245845D01*
X151930626Y-106262151D01*
X151933842Y-106278793D01*
X151936769Y-106295771D01*
X151939407Y-106313084D01*
X151941758Y-106330733D01*
X151943820Y-106348718D01*
X151945593Y-106367038D01*
X151947078Y-106385693D01*
X151948275Y-106404684D01*
X151949183Y-106424011D01*
X151949803Y-106443674D01*
X151950135Y-106463671D01*
X151950178Y-106484005D01*
X151949933Y-106504674D01*
X151224532Y-106504674D01*
X151225149Y-106521112D01*
X151226266Y-106537086D01*
X151227885Y-106552596D01*
X151230005Y-106567643D01*
X151232625Y-106582226D01*
X151237495Y-106603231D01*
X151243491Y-106623193D01*
X151250615Y-106642112D01*
X151258866Y-106659987D01*
X151268243Y-106676819D01*
X151278748Y-106692608D01*
X151290380Y-106707353D01*
X151294508Y-106712036D01*
X151307368Y-106725262D01*
X151320808Y-106737187D01*
X151334828Y-106747811D01*
X151349428Y-106757134D01*
X151364607Y-106765156D01*
X151380366Y-106771877D01*
X151396704Y-106777297D01*
X151413622Y-106781417D01*
X151431119Y-106784235D01*
X151449196Y-106785753D01*
X151461570Y-106786042D01*
X151478176Y-106785521D01*
X151494107Y-106783958D01*
X151509363Y-106781354D01*
X151523943Y-106777707D01*
X151537848Y-106773019D01*
X151554279Y-106765693D01*
X151569654Y-106756740D01*
X151575509Y-106752703D01*
X151589494Y-106741292D01*
X151599884Y-106730733D01*
X151609564Y-106718903D01*
X151618535Y-106705803D01*
X151626795Y-106691432D01*
X151634345Y-106675790D01*
X151641186Y-106658877D01*
X151645851Y-106645358D01*
X151934546Y-106692253D01*
X151927333Y-106710614D01*
X151919617Y-106728420D01*
X151911396Y-106745670D01*
X151902672Y-106762366D01*
X151893444Y-106778506D01*
X151883713Y-106794091D01*
X151873478Y-106809120D01*
X151862739Y-106823594D01*
X151851496Y-106837513D01*
X151839749Y-106850877D01*
X151827499Y-106863685D01*
X151814745Y-106875939D01*
X151801487Y-106887637D01*
X151787725Y-106898779D01*
X151773460Y-106909367D01*
X151758691Y-106919399D01*
X151743480Y-106928804D01*
X151727796Y-106937602D01*
X151711640Y-106945794D01*
X151695012Y-106953379D01*
X151677912Y-106960357D01*
X151660339Y-106966728D01*
X151642295Y-106972493D01*
X151623777Y-106977651D01*
X151604788Y-106982201D01*
X151585326Y-106986146D01*
X151565392Y-106989483D01*
X151544986Y-106992213D01*
X151524108Y-106994337D01*
X151502757Y-106995854D01*
X151480934Y-106996764D01*
X151458639Y-106997068D01*
X151440924Y-106996885D01*
X151423499Y-106996337D01*
X151406365Y-106995422D01*
X151389522Y-106994143D01*
X151372969Y-106992497D01*
X151356706Y-106990486D01*
X151340735Y-106988109D01*
X151325053Y-106985367D01*
X151309662Y-106982259D01*
X151294562Y-106978785D01*
X151279752Y-106974946D01*
X151265233Y-106970741D01*
X151251004Y-106966170D01*
X151237066Y-106961234D01*
X151210061Y-106950265D01*
X151184218Y-106937833D01*
X151159537Y-106923938D01*
X151136018Y-106908581D01*
X151113661Y-106891761D01*
X151092466Y-106873479D01*
X151072434Y-106853734D01*
X151053563Y-106832526D01*
X151035854Y-106809856D01*
X151022767Y-106790773D01*
X151010524Y-106771078D01*
X150999125Y-106750771D01*
X150988570Y-106729851D01*
X150978860Y-106708318D01*
X150969995Y-106686173D01*
X150961973Y-106663416D01*
X150954796Y-106640046D01*
X150948464Y-106616063D01*
X150942975Y-106591468D01*
X150938331Y-106566261D01*
X150934532Y-106540441D01*
X150931576Y-106514008D01*
X150929466Y-106486963D01*
X150928199Y-106459305D01*
X150927777Y-106431035D01*
X150927916Y-106414069D01*
X150928332Y-106397335D01*
X150929026Y-106380833D01*
X150929998Y-106364563D01*
X150931247Y-106348524D01*
X150932774Y-106332718D01*
X150934579Y-106317143D01*
X150934585Y-106317096D01*
X151229661Y-106317096D01*
X151662337Y-106317096D01*
X151661740Y-106301534D01*
X151660683Y-106286447D01*
X151659164Y-106271835D01*
X151656023Y-106250809D01*
X151651844Y-106230851D01*
X151646629Y-106211963D01*
X151640377Y-106194143D01*
X151633088Y-106177393D01*
X151624762Y-106161711D01*
X151615399Y-106147099D01*
X151605000Y-106133556D01*
X151597491Y-106125121D01*
X151585647Y-106113336D01*
X151573332Y-106102710D01*
X151560548Y-106093243D01*
X151547293Y-106084935D01*
X151533568Y-106077787D01*
X151519374Y-106071798D01*
X151504709Y-106066968D01*
X151489574Y-106063297D01*
X151473968Y-106060785D01*
X151457893Y-106059433D01*
X151446915Y-106059175D01*
X151429479Y-106059784D01*
X151412616Y-106061610D01*
X151396326Y-106064652D01*
X151380609Y-106068913D01*
X151365465Y-106074390D01*
X151350895Y-106081084D01*
X151336897Y-106088996D01*
X151323473Y-106098124D01*
X151310622Y-106108470D01*
X151298344Y-106120033D01*
X151290478Y-106128418D01*
X151279422Y-106141905D01*
X151269475Y-106156260D01*
X151260635Y-106171486D01*
X151252902Y-106187580D01*
X151246278Y-106204544D01*
X151240761Y-106222378D01*
X151236351Y-106241081D01*
X151233050Y-106260653D01*
X151230856Y-106281094D01*
X151229770Y-106302405D01*
X151229661Y-106317096D01*
X150934585Y-106317096D01*
X150936661Y-106301800D01*
X150939021Y-106286689D01*
X150941659Y-106271810D01*
X150944574Y-106257162D01*
X150947767Y-106242747D01*
X150954985Y-106214611D01*
X150963314Y-106187403D01*
X150972754Y-106161122D01*
X150983304Y-106135768D01*
X150994965Y-106111342D01*
X151007736Y-106087843D01*
X151021618Y-106065272D01*
X151036610Y-106043628D01*
X151052713Y-106022911D01*
X151069926Y-106003122D01*
X151087990Y-105984355D01*
X151106643Y-105966800D01*
X151125886Y-105950455D01*
X151145718Y-105935321D01*
X151166140Y-105921398D01*
X151187151Y-105908685D01*
X151208753Y-105897184D01*
X151230943Y-105886892D01*
X151253724Y-105877812D01*
X151277094Y-105869942D01*
X151301053Y-105863283D01*
X151325603Y-105857835D01*
X151350742Y-105853598D01*
X151376470Y-105850571D01*
X151402788Y-105848755D01*
X151429696Y-105848149D01*
X151444845Y-105848307D01*
G37*
G36*
X153175422Y-106973621D02*
G01*
X152885994Y-106973621D01*
X152885994Y-106404657D01*
X152885921Y-106382578D01*
X152885702Y-106361494D01*
X152885337Y-106341407D01*
X152884826Y-106322316D01*
X152884169Y-106304221D01*
X152883366Y-106287123D01*
X152882418Y-106271020D01*
X152881323Y-106255913D01*
X152879407Y-106235120D01*
X152877163Y-106216569D01*
X152874590Y-106200258D01*
X152870648Y-106181997D01*
X152867309Y-106170916D01*
X152861012Y-106154897D01*
X152853571Y-106140040D01*
X152844984Y-106126346D01*
X152835252Y-106113815D01*
X152824376Y-106102447D01*
X152812355Y-106092241D01*
X152807226Y-106088484D01*
X152793762Y-106080041D01*
X152779476Y-106073028D01*
X152764367Y-106067447D01*
X152748436Y-106063297D01*
X152731681Y-106060578D01*
X152714103Y-106059290D01*
X152706842Y-106059175D01*
X152688220Y-106059834D01*
X152670091Y-106061809D01*
X152652454Y-106065100D01*
X152635309Y-106069708D01*
X152618657Y-106075633D01*
X152602497Y-106082874D01*
X152586829Y-106091433D01*
X152571653Y-106101307D01*
X152557308Y-106112184D01*
X152544130Y-106123930D01*
X152532120Y-106136547D01*
X152521278Y-106150034D01*
X152511604Y-106164391D01*
X152503097Y-106179618D01*
X152495759Y-106195715D01*
X152489588Y-106212682D01*
X152484436Y-106231830D01*
X152481023Y-106248603D01*
X152477996Y-106267443D01*
X152475355Y-106288351D01*
X152473810Y-106303438D01*
X152472436Y-106319443D01*
X152471234Y-106336367D01*
X152470203Y-106354211D01*
X152469345Y-106372972D01*
X152468658Y-106392653D01*
X152468143Y-106413252D01*
X152467799Y-106434771D01*
X152467627Y-106457208D01*
X152467606Y-106468771D01*
X152467606Y-106973621D01*
X152178178Y-106973621D01*
X152178178Y-105871597D01*
X152447090Y-105871597D01*
X152447090Y-106032431D01*
X152465285Y-106010115D01*
X152484058Y-105989240D01*
X152503409Y-105969804D01*
X152523339Y-105951808D01*
X152543847Y-105935251D01*
X152564933Y-105920134D01*
X152586597Y-105906457D01*
X152608839Y-105894220D01*
X152631660Y-105883422D01*
X152655058Y-105874064D01*
X152679035Y-105866146D01*
X152703590Y-105859667D01*
X152728723Y-105854628D01*
X152754435Y-105851029D01*
X152780724Y-105848869D01*
X152807592Y-105848149D01*
X152825441Y-105848455D01*
X152842995Y-105849373D01*
X152860252Y-105850903D01*
X152877213Y-105853044D01*
X152893877Y-105855797D01*
X152910246Y-105859162D01*
X152926318Y-105863139D01*
X152942093Y-105867727D01*
X152957573Y-105872927D01*
X152972756Y-105878739D01*
X152982714Y-105882954D01*
X152997279Y-105889647D01*
X153011162Y-105896676D01*
X153024362Y-105904039D01*
X153036879Y-105911737D01*
X153052506Y-105922521D01*
X153066921Y-105933902D01*
X153080121Y-105945877D01*
X153092108Y-105958448D01*
X153102882Y-105971614D01*
X153112659Y-105985307D01*
X153121658Y-105999458D01*
X153129878Y-106014067D01*
X153137320Y-106029133D01*
X153143983Y-106044658D01*
X153149868Y-106060641D01*
X153154974Y-106077081D01*
X153159302Y-106093980D01*
X153163080Y-106111943D01*
X153165583Y-106126633D01*
X153167802Y-106142366D01*
X153169739Y-106159142D01*
X153171392Y-106176961D01*
X153172761Y-106195824D01*
X153173847Y-106215730D01*
X153174650Y-106236679D01*
X153175170Y-106258672D01*
X153175359Y-106273913D01*
X153175422Y-106289618D01*
X153175422Y-106973621D01*
G37*
G36*
X153360436Y-106668805D02*
G01*
X153650963Y-106621911D01*
X153654798Y-106636682D01*
X153659296Y-106650771D01*
X153666325Y-106668493D01*
X153674534Y-106685003D01*
X153683922Y-106700298D01*
X153694490Y-106714381D01*
X153706236Y-106727249D01*
X153719162Y-106738904D01*
X153726067Y-106744276D01*
X153740974Y-106754065D01*
X153757300Y-106762549D01*
X153775046Y-106769727D01*
X153789286Y-106774255D01*
X153804326Y-106778048D01*
X153820164Y-106781107D01*
X153836801Y-106783432D01*
X153854236Y-106785022D01*
X153872470Y-106785879D01*
X153885069Y-106786042D01*
X153905603Y-106785678D01*
X153925165Y-106784587D01*
X153943754Y-106782767D01*
X153961370Y-106780220D01*
X153978015Y-106776945D01*
X153993686Y-106772943D01*
X154008386Y-106768213D01*
X154022112Y-106762755D01*
X154038902Y-106754346D01*
X154053963Y-106744643D01*
X154066912Y-106733218D01*
X154077182Y-106720377D01*
X154084772Y-106706119D01*
X154089684Y-106690444D01*
X154091916Y-106673352D01*
X154092065Y-106667340D01*
X154090783Y-106651563D01*
X154086936Y-106637207D01*
X154079543Y-106622752D01*
X154071549Y-106612752D01*
X154059515Y-106603916D01*
X154045098Y-106596566D01*
X154030191Y-106590598D01*
X154012655Y-106584773D01*
X153996732Y-106580217D01*
X153979127Y-106575752D01*
X153974462Y-106574650D01*
X153952822Y-106569831D01*
X153931683Y-106565038D01*
X153911045Y-106560271D01*
X153890908Y-106555530D01*
X153871272Y-106550815D01*
X153852137Y-106546125D01*
X153833502Y-106541461D01*
X153815368Y-106536823D01*
X153797736Y-106532210D01*
X153780604Y-106527624D01*
X153763973Y-106523063D01*
X153747843Y-106518527D01*
X153732214Y-106514018D01*
X153717086Y-106509534D01*
X153702458Y-106505076D01*
X153688332Y-106500644D01*
X153661581Y-106491857D01*
X153636835Y-106483173D01*
X153614091Y-106474592D01*
X153593352Y-106466114D01*
X153574616Y-106457740D01*
X153557883Y-106449468D01*
X153543154Y-106441299D01*
X153530429Y-106433233D01*
X153514724Y-106421833D01*
X153500032Y-106409889D01*
X153486353Y-106397401D01*
X153473688Y-106384369D01*
X153462036Y-106370794D01*
X153451397Y-106356675D01*
X153441771Y-106342011D01*
X153433159Y-106326804D01*
X153425560Y-106311054D01*
X153418974Y-106294759D01*
X153413401Y-106277921D01*
X153408842Y-106260538D01*
X153405295Y-106242612D01*
X153402762Y-106224142D01*
X153401242Y-106205129D01*
X153400736Y-106185571D01*
X153401174Y-106167890D01*
X153402487Y-106150566D01*
X153404677Y-106133600D01*
X153407742Y-106116992D01*
X153411684Y-106100742D01*
X153416501Y-106084849D01*
X153422194Y-106069315D01*
X153428763Y-106054138D01*
X153436207Y-106039319D01*
X153444528Y-106024857D01*
X153453724Y-106010754D01*
X153463796Y-105997008D01*
X153474744Y-105983620D01*
X153486568Y-105970590D01*
X153499268Y-105957917D01*
X153512843Y-105945602D01*
X153527385Y-105933801D01*
X153542891Y-105922762D01*
X153559361Y-105912484D01*
X153576797Y-105902967D01*
X153595196Y-105894211D01*
X153614561Y-105886217D01*
X153634890Y-105878984D01*
X153656183Y-105872513D01*
X153678441Y-105866803D01*
X153701664Y-105861854D01*
X153725851Y-105857666D01*
X153751003Y-105854240D01*
X153777119Y-105851576D01*
X153804200Y-105849672D01*
X153832246Y-105848530D01*
X153861256Y-105848149D01*
X153888877Y-105848450D01*
X153915598Y-105849352D01*
X153941416Y-105850854D01*
X153966333Y-105852958D01*
X153990349Y-105855663D01*
X154013463Y-105858969D01*
X154035675Y-105862876D01*
X154056986Y-105867384D01*
X154077395Y-105872493D01*
X154096902Y-105878203D01*
X154115508Y-105884514D01*
X154133212Y-105891426D01*
X154150015Y-105898940D01*
X154165916Y-105907054D01*
X154180916Y-105915769D01*
X154195013Y-105925086D01*
X154208439Y-105934992D01*
X154221329Y-105945476D01*
X154233683Y-105956539D01*
X154245503Y-105968180D01*
X154256787Y-105980398D01*
X154267536Y-105993195D01*
X154277750Y-106006571D01*
X154287429Y-106020524D01*
X154296572Y-106035055D01*
X154305180Y-106050165D01*
X154313253Y-106065853D01*
X154320791Y-106082119D01*
X154327793Y-106098963D01*
X154334261Y-106116385D01*
X154340192Y-106134386D01*
X154345589Y-106152965D01*
X154072281Y-106199859D01*
X154067393Y-106183321D01*
X154061519Y-106167779D01*
X154054662Y-106153234D01*
X154046819Y-106139684D01*
X154037992Y-106127130D01*
X154028180Y-106115572D01*
X154017384Y-106105011D01*
X154005603Y-106095445D01*
X153992769Y-106086945D01*
X153978630Y-106079577D01*
X153963185Y-106073343D01*
X153946435Y-106068243D01*
X153928380Y-106064276D01*
X153909020Y-106061442D01*
X153893644Y-106060061D01*
X153877533Y-106059317D01*
X153866385Y-106059175D01*
X153845522Y-106059455D01*
X153825800Y-106060296D01*
X153807217Y-106061697D01*
X153789775Y-106063658D01*
X153773472Y-106066179D01*
X153758309Y-106069260D01*
X153739865Y-106074241D01*
X153723447Y-106080217D01*
X153709056Y-106087189D01*
X153702620Y-106091049D01*
X153689772Y-106101635D01*
X153680080Y-106113519D01*
X153673543Y-106126700D01*
X153670162Y-106141178D01*
X153669647Y-106150034D01*
X153671456Y-106164848D01*
X153676883Y-106178518D01*
X153685927Y-106191044D01*
X153696809Y-106201064D01*
X153698590Y-106202424D01*
X153711390Y-106210031D01*
X153724927Y-106216226D01*
X153741838Y-106222839D01*
X153762124Y-106229870D01*
X153777523Y-106234790D01*
X153794421Y-106239896D01*
X153812820Y-106245189D01*
X153832718Y-106250667D01*
X153854116Y-106256331D01*
X153877014Y-106262182D01*
X153901411Y-106268218D01*
X153927309Y-106274440D01*
X153954706Y-106280849D01*
X153968967Y-106284123D01*
X153983279Y-106287421D01*
X154011089Y-106294159D01*
X154037810Y-106301085D01*
X154063444Y-106308201D01*
X154087991Y-106315505D01*
X154111449Y-106322998D01*
X154133821Y-106330681D01*
X154155104Y-106338552D01*
X154175300Y-106346612D01*
X154194408Y-106354861D01*
X154212429Y-106363298D01*
X154229362Y-106371925D01*
X154245207Y-106380741D01*
X154259964Y-106389745D01*
X154273634Y-106398939D01*
X154286217Y-106408321D01*
X154292100Y-106413083D01*
X154303058Y-106422986D01*
X154318169Y-106438743D01*
X154331690Y-106455581D01*
X154343620Y-106473502D01*
X154353960Y-106492504D01*
X154362708Y-106512588D01*
X154367657Y-106526579D01*
X154371899Y-106541050D01*
X154375434Y-106556002D01*
X154378262Y-106571436D01*
X154380383Y-106587349D01*
X154381797Y-106603744D01*
X154382504Y-106620620D01*
X154382592Y-106629238D01*
X154382101Y-106647897D01*
X154380628Y-106666229D01*
X154378174Y-106684236D01*
X154374738Y-106701916D01*
X154370320Y-106719269D01*
X154364921Y-106736297D01*
X154358539Y-106752998D01*
X154351176Y-106769372D01*
X154342831Y-106785421D01*
X154333505Y-106801143D01*
X154323197Y-106816539D01*
X154311907Y-106831609D01*
X154299635Y-106846352D01*
X154286381Y-106860769D01*
X154272146Y-106874860D01*
X154256929Y-106888624D01*
X154240750Y-106901756D01*
X154223630Y-106914041D01*
X154205568Y-106925478D01*
X154186564Y-106936068D01*
X154166619Y-106945811D01*
X154145732Y-106954707D01*
X154123903Y-106962756D01*
X154101133Y-106969957D01*
X154077421Y-106976311D01*
X154052767Y-106981818D01*
X154027171Y-106986478D01*
X154000634Y-106990290D01*
X153973156Y-106993255D01*
X153944735Y-106995373D01*
X153915373Y-106996644D01*
X153900339Y-106996962D01*
X153885069Y-106997068D01*
X153857453Y-106996723D01*
X153830567Y-106995688D01*
X153804410Y-106993964D01*
X153778984Y-106991549D01*
X153754287Y-106988445D01*
X153730320Y-106984651D01*
X153707084Y-106980168D01*
X153684576Y-106974994D01*
X153662799Y-106969131D01*
X153641752Y-106962578D01*
X153621434Y-106955335D01*
X153601847Y-106947403D01*
X153582989Y-106938780D01*
X153564861Y-106929468D01*
X153547463Y-106919466D01*
X153530795Y-106908774D01*
X153514888Y-106897490D01*
X153499683Y-106885710D01*
X153485178Y-106873436D01*
X153471375Y-106860666D01*
X153458274Y-106847401D01*
X153445873Y-106833641D01*
X153434174Y-106819385D01*
X153423176Y-106804635D01*
X153412879Y-106789389D01*
X153403283Y-106773649D01*
X153394389Y-106757413D01*
X153386196Y-106740682D01*
X153378704Y-106723455D01*
X153371913Y-106705734D01*
X153365824Y-106687517D01*
X153360436Y-106668805D01*
G37*
G36*
X155063059Y-105848307D02*
G01*
X155078007Y-105848781D01*
X155092754Y-105849569D01*
X155121646Y-105852094D01*
X155149733Y-105855881D01*
X155177015Y-105860930D01*
X155203494Y-105867241D01*
X155229168Y-105874814D01*
X155254038Y-105883650D01*
X155278103Y-105893748D01*
X155301365Y-105905108D01*
X155323821Y-105917730D01*
X155345474Y-105931615D01*
X155366323Y-105946762D01*
X155386367Y-105963171D01*
X155405607Y-105980842D01*
X155424042Y-105999776D01*
X155432958Y-106009716D01*
X155450059Y-106030583D01*
X155466006Y-106052793D01*
X155480799Y-106076344D01*
X155494439Y-106101238D01*
X155506925Y-106127475D01*
X155512736Y-106141097D01*
X155518258Y-106155054D01*
X155523492Y-106169347D01*
X155528438Y-106183975D01*
X155533095Y-106198939D01*
X155537464Y-106214239D01*
X155541544Y-106229874D01*
X155545336Y-106245845D01*
X155548840Y-106262151D01*
X155552055Y-106278793D01*
X155554982Y-106295771D01*
X155557621Y-106313084D01*
X155559971Y-106330733D01*
X155562033Y-106348718D01*
X155563807Y-106367038D01*
X155565292Y-106385693D01*
X155566488Y-106404684D01*
X155567397Y-106424011D01*
X155568017Y-106443674D01*
X155568349Y-106463671D01*
X155568392Y-106484005D01*
X155568147Y-106504674D01*
X154842745Y-106504674D01*
X154843362Y-106521112D01*
X154844480Y-106537086D01*
X154846099Y-106552596D01*
X154848218Y-106567643D01*
X154850838Y-106582226D01*
X154855708Y-106603231D01*
X154861705Y-106623193D01*
X154868829Y-106642112D01*
X154877079Y-106659987D01*
X154886457Y-106676819D01*
X154896962Y-106692608D01*
X154908593Y-106707353D01*
X154912721Y-106712036D01*
X154925582Y-106725262D01*
X154939022Y-106737187D01*
X154953042Y-106747811D01*
X154967641Y-106757134D01*
X154982820Y-106765156D01*
X154998579Y-106771877D01*
X155014917Y-106777297D01*
X155031835Y-106781417D01*
X155049333Y-106784235D01*
X155067410Y-106785753D01*
X155079783Y-106786042D01*
X155096390Y-106785521D01*
X155112321Y-106783958D01*
X155127577Y-106781354D01*
X155142157Y-106777707D01*
X155156061Y-106773019D01*
X155172492Y-106765693D01*
X155187868Y-106756740D01*
X155193722Y-106752703D01*
X155207708Y-106741292D01*
X155218098Y-106730733D01*
X155227778Y-106718903D01*
X155236748Y-106705803D01*
X155245008Y-106691432D01*
X155252559Y-106675790D01*
X155259400Y-106658877D01*
X155264064Y-106645358D01*
X155552759Y-106692253D01*
X155545547Y-106710614D01*
X155537830Y-106728420D01*
X155529610Y-106745670D01*
X155520886Y-106762366D01*
X155511658Y-106778506D01*
X155501926Y-106794091D01*
X155491691Y-106809120D01*
X155480952Y-106823594D01*
X155469709Y-106837513D01*
X155457963Y-106850877D01*
X155445712Y-106863685D01*
X155432958Y-106875939D01*
X155419701Y-106887637D01*
X155405939Y-106898779D01*
X155391674Y-106909367D01*
X155376905Y-106919399D01*
X155361693Y-106928804D01*
X155346010Y-106937602D01*
X155329854Y-106945794D01*
X155313226Y-106953379D01*
X155296126Y-106960357D01*
X155278553Y-106966728D01*
X155260508Y-106972493D01*
X155241991Y-106977651D01*
X155223002Y-106982201D01*
X155203540Y-106986146D01*
X155183606Y-106989483D01*
X155163200Y-106992213D01*
X155142321Y-106994337D01*
X155120971Y-106995854D01*
X155099148Y-106996764D01*
X155076852Y-106997068D01*
X155059137Y-106996885D01*
X155041713Y-106996337D01*
X155024579Y-106995422D01*
X155007735Y-106994143D01*
X154991182Y-106992497D01*
X154974920Y-106990486D01*
X154958948Y-106988109D01*
X154943267Y-106985367D01*
X154927876Y-106982259D01*
X154912775Y-106978785D01*
X154897966Y-106974946D01*
X154883446Y-106970741D01*
X154869217Y-106966170D01*
X154855279Y-106961234D01*
X154828274Y-106950265D01*
X154802431Y-106937833D01*
X154777750Y-106923938D01*
X154754231Y-106908581D01*
X154731875Y-106891761D01*
X154710680Y-106873479D01*
X154690647Y-106853734D01*
X154671776Y-106832526D01*
X154654068Y-106809856D01*
X154640980Y-106790773D01*
X154628737Y-106771078D01*
X154617338Y-106750771D01*
X154606784Y-106729851D01*
X154597074Y-106708318D01*
X154588208Y-106686173D01*
X154580187Y-106663416D01*
X154573010Y-106640046D01*
X154566677Y-106616063D01*
X154561189Y-106591468D01*
X154556545Y-106566261D01*
X154552745Y-106540441D01*
X154549790Y-106514008D01*
X154547679Y-106486963D01*
X154546413Y-106459305D01*
X154545990Y-106431035D01*
X154546129Y-106414069D01*
X154546546Y-106397335D01*
X154547240Y-106380833D01*
X154548212Y-106364563D01*
X154549461Y-106348524D01*
X154550988Y-106332718D01*
X154552792Y-106317143D01*
X154552798Y-106317096D01*
X154847875Y-106317096D01*
X155280551Y-106317096D01*
X155279954Y-106301534D01*
X155278896Y-106286447D01*
X155277378Y-106271835D01*
X155274236Y-106250809D01*
X155270058Y-106230851D01*
X155264843Y-106211963D01*
X155258590Y-106194143D01*
X155251301Y-106177393D01*
X155242976Y-106161711D01*
X155233613Y-106147099D01*
X155223213Y-106133556D01*
X155215704Y-106125121D01*
X155203860Y-106113336D01*
X155191546Y-106102710D01*
X155178761Y-106093243D01*
X155165507Y-106084935D01*
X155151782Y-106077787D01*
X155137587Y-106071798D01*
X155122922Y-106066968D01*
X155107787Y-106063297D01*
X155092182Y-106060785D01*
X155076107Y-106059433D01*
X155065129Y-106059175D01*
X155047692Y-106059784D01*
X155030829Y-106061610D01*
X155014539Y-106064652D01*
X154998822Y-106068913D01*
X154983679Y-106074390D01*
X154969108Y-106081084D01*
X154955111Y-106088996D01*
X154941687Y-106098124D01*
X154928836Y-106108470D01*
X154916558Y-106120033D01*
X154908691Y-106128418D01*
X154897636Y-106141905D01*
X154887688Y-106156260D01*
X154878848Y-106171486D01*
X154871116Y-106187580D01*
X154864491Y-106204544D01*
X154858974Y-106222378D01*
X154854565Y-106241081D01*
X154851263Y-106260653D01*
X154849070Y-106281094D01*
X154847983Y-106302405D01*
X154847875Y-106317096D01*
X154552798Y-106317096D01*
X154554875Y-106301800D01*
X154557235Y-106286689D01*
X154559872Y-106271810D01*
X154562787Y-106257162D01*
X154565980Y-106242747D01*
X154573199Y-106214611D01*
X154581528Y-106187403D01*
X154590967Y-106161122D01*
X154601518Y-106135768D01*
X154613178Y-106111342D01*
X154625949Y-106087843D01*
X154639831Y-106065272D01*
X154654824Y-106043628D01*
X154670926Y-106022911D01*
X154688140Y-106003122D01*
X154706203Y-105984355D01*
X154724856Y-105966800D01*
X154744099Y-105950455D01*
X154763931Y-105935321D01*
X154784353Y-105921398D01*
X154805365Y-105908685D01*
X154826966Y-105897184D01*
X154849157Y-105886892D01*
X154871937Y-105877812D01*
X154895307Y-105869942D01*
X154919267Y-105863283D01*
X154943816Y-105857835D01*
X154968955Y-105853598D01*
X154994684Y-105850571D01*
X155021002Y-105848755D01*
X155047909Y-105848149D01*
X155063059Y-105848307D01*
G37*
G36*
X146729975Y-108907438D02*
G01*
X147025631Y-109001227D01*
X147021284Y-109016718D01*
X147016761Y-109031957D01*
X147012062Y-109046946D01*
X147007187Y-109061683D01*
X147002136Y-109076169D01*
X146996909Y-109090404D01*
X146991505Y-109104387D01*
X146985926Y-109118120D01*
X146980171Y-109131601D01*
X146968133Y-109157811D01*
X146955390Y-109183016D01*
X146941943Y-109207216D01*
X146927792Y-109230411D01*
X146912938Y-109252602D01*
X146897379Y-109273788D01*
X146881115Y-109293970D01*
X146864148Y-109313146D01*
X146846477Y-109331319D01*
X146828101Y-109348486D01*
X146809022Y-109364649D01*
X146799218Y-109372354D01*
X146779147Y-109387039D01*
X146758408Y-109400776D01*
X146737003Y-109413566D01*
X146714931Y-109425408D01*
X146692192Y-109436303D01*
X146668787Y-109446251D01*
X146644714Y-109455251D01*
X146619974Y-109463304D01*
X146594568Y-109470409D01*
X146568494Y-109476567D01*
X146541754Y-109481778D01*
X146514347Y-109486041D01*
X146486273Y-109489357D01*
X146457532Y-109491726D01*
X146428124Y-109493147D01*
X146413170Y-109493502D01*
X146398049Y-109493621D01*
X146379354Y-109493422D01*
X146360869Y-109492825D01*
X146342592Y-109491830D01*
X146324524Y-109490438D01*
X146306665Y-109488647D01*
X146289016Y-109486459D01*
X146271575Y-109483873D01*
X146254343Y-109480889D01*
X146237320Y-109477508D01*
X146220505Y-109473728D01*
X146203900Y-109469551D01*
X146187504Y-109464975D01*
X146171317Y-109460002D01*
X146155338Y-109454631D01*
X146139569Y-109448863D01*
X146124009Y-109442696D01*
X146108657Y-109436131D01*
X146093514Y-109429169D01*
X146078581Y-109421809D01*
X146063856Y-109414051D01*
X146049340Y-109405895D01*
X146035034Y-109397341D01*
X146020936Y-109388390D01*
X146007047Y-109379040D01*
X145993367Y-109369293D01*
X145979896Y-109359148D01*
X145966634Y-109348605D01*
X145953580Y-109337664D01*
X145940736Y-109326325D01*
X145928101Y-109314589D01*
X145915675Y-109302454D01*
X145903457Y-109289922D01*
X145891556Y-109277045D01*
X145880033Y-109263876D01*
X145868887Y-109250415D01*
X145858120Y-109236662D01*
X145847730Y-109222617D01*
X145837718Y-109208280D01*
X145828084Y-109193651D01*
X145818827Y-109178730D01*
X145809949Y-109163518D01*
X145801448Y-109148013D01*
X145793325Y-109132216D01*
X145785580Y-109116128D01*
X145778212Y-109099747D01*
X145771223Y-109083075D01*
X145764611Y-109066111D01*
X145758377Y-109048854D01*
X145752521Y-109031306D01*
X145747043Y-109013466D01*
X145741942Y-108995334D01*
X145737219Y-108976909D01*
X145732875Y-108958193D01*
X145728908Y-108939185D01*
X145725318Y-108919885D01*
X145722107Y-108900294D01*
X145719273Y-108880410D01*
X145716818Y-108860234D01*
X145714740Y-108839766D01*
X145713039Y-108819006D01*
X145711717Y-108797955D01*
X145710773Y-108776611D01*
X145710206Y-108754976D01*
X145710017Y-108733048D01*
X145710207Y-108709856D01*
X145710777Y-108686989D01*
X145711727Y-108664449D01*
X145713057Y-108642236D01*
X145714766Y-108620348D01*
X145716856Y-108598787D01*
X145719326Y-108577552D01*
X145722176Y-108556644D01*
X145725405Y-108536062D01*
X145729015Y-108515806D01*
X145733005Y-108495876D01*
X145737374Y-108476273D01*
X145742124Y-108456996D01*
X145747253Y-108438045D01*
X145752762Y-108419420D01*
X145758652Y-108401122D01*
X145764921Y-108383150D01*
X145771570Y-108365505D01*
X145778600Y-108348185D01*
X145786009Y-108331192D01*
X145793798Y-108314526D01*
X145801967Y-108298185D01*
X145810516Y-108282171D01*
X145819445Y-108266483D01*
X145828754Y-108251122D01*
X145838443Y-108236087D01*
X145848512Y-108221378D01*
X145858961Y-108206995D01*
X145869790Y-108192939D01*
X145880999Y-108179209D01*
X145892588Y-108165805D01*
X145904556Y-108152727D01*
X145916857Y-108140015D01*
X145929398Y-108127706D01*
X145942177Y-108115800D01*
X145955195Y-108104298D01*
X145968452Y-108093200D01*
X145981948Y-108082506D01*
X145995683Y-108072214D01*
X146009657Y-108062327D01*
X146023870Y-108052843D01*
X146038322Y-108043763D01*
X146053013Y-108035086D01*
X146067943Y-108026812D01*
X146083112Y-108018943D01*
X146098520Y-108011477D01*
X146114168Y-108004414D01*
X146130054Y-107997755D01*
X146146179Y-107991500D01*
X146162543Y-107985648D01*
X146179146Y-107980200D01*
X146195988Y-107975155D01*
X146213069Y-107970514D01*
X146230389Y-107966276D01*
X146247948Y-107962443D01*
X146265746Y-107959012D01*
X146283783Y-107955985D01*
X146302059Y-107953362D01*
X146320574Y-107951142D01*
X146339328Y-107949326D01*
X146358321Y-107947914D01*
X146377553Y-107946905D01*
X146397024Y-107946300D01*
X146416734Y-107946098D01*
X146433965Y-107946267D01*
X146450993Y-107946776D01*
X146467817Y-107947624D01*
X146484437Y-107948811D01*
X146500853Y-107950337D01*
X146517064Y-107952203D01*
X146533073Y-107954408D01*
X146548877Y-107956951D01*
X146564477Y-107959834D01*
X146579873Y-107963056D01*
X146595065Y-107966618D01*
X146610054Y-107970518D01*
X146624838Y-107974758D01*
X146639419Y-107979337D01*
X146653795Y-107984255D01*
X146667968Y-107989512D01*
X146681937Y-107995108D01*
X146695701Y-108001044D01*
X146709262Y-108007319D01*
X146722619Y-108013932D01*
X146735772Y-108020886D01*
X146748721Y-108028178D01*
X146761466Y-108035809D01*
X146774007Y-108043780D01*
X146786345Y-108052089D01*
X146798478Y-108060738D01*
X146810407Y-108069726D01*
X146822133Y-108079054D01*
X146833654Y-108088720D01*
X146844972Y-108098726D01*
X146856086Y-108109071D01*
X146866995Y-108119754D01*
X146879664Y-108132972D01*
X146891931Y-108146888D01*
X146903798Y-108161503D01*
X146915264Y-108176816D01*
X146926329Y-108192827D01*
X146936994Y-108209537D01*
X146947258Y-108226945D01*
X146957121Y-108245051D01*
X146966583Y-108263856D01*
X146975645Y-108283359D01*
X146984306Y-108303561D01*
X146992567Y-108324461D01*
X147000426Y-108346059D01*
X147007885Y-108368356D01*
X147014944Y-108391351D01*
X147021601Y-108415044D01*
X146719717Y-108461939D01*
X146716146Y-108447205D01*
X146712121Y-108432864D01*
X146705229Y-108412088D01*
X146697313Y-108392194D01*
X146688373Y-108373182D01*
X146678409Y-108355052D01*
X146667422Y-108337805D01*
X146655410Y-108321439D01*
X146642374Y-108305957D01*
X146628315Y-108291356D01*
X146613231Y-108277638D01*
X146607976Y-108273261D01*
X146591717Y-108260887D01*
X146574814Y-108249729D01*
X146557267Y-108239789D01*
X146539076Y-108231066D01*
X146520242Y-108223560D01*
X146500763Y-108217272D01*
X146480640Y-108212200D01*
X146459873Y-108208346D01*
X146438462Y-108205709D01*
X146423831Y-108204627D01*
X146408913Y-108204086D01*
X146401346Y-108204018D01*
X146380618Y-108204485D01*
X146360382Y-108205884D01*
X146340639Y-108208217D01*
X146321387Y-108211483D01*
X146302628Y-108215682D01*
X146284362Y-108220814D01*
X146266587Y-108226879D01*
X146249305Y-108233877D01*
X146232515Y-108241808D01*
X146216218Y-108250672D01*
X146200413Y-108260470D01*
X146185100Y-108271200D01*
X146170279Y-108282864D01*
X146155951Y-108295460D01*
X146142115Y-108308990D01*
X146128771Y-108323453D01*
X146116127Y-108338962D01*
X146104299Y-108355630D01*
X146093287Y-108373457D01*
X146083090Y-108392444D01*
X146073709Y-108412590D01*
X146065144Y-108433895D01*
X146057395Y-108456359D01*
X146050461Y-108479982D01*
X146044343Y-108504765D01*
X146039041Y-108530706D01*
X146034554Y-108557807D01*
X146030883Y-108586068D01*
X146028028Y-108615487D01*
X146026907Y-108630631D01*
X146025989Y-108646065D01*
X146025275Y-108661789D01*
X146024765Y-108677803D01*
X146024459Y-108694107D01*
X146024357Y-108710700D01*
X146024458Y-108728286D01*
X146024760Y-108745553D01*
X146025262Y-108762501D01*
X146025966Y-108779130D01*
X146026871Y-108795440D01*
X146027977Y-108811430D01*
X146029284Y-108827102D01*
X146030792Y-108842454D01*
X146032501Y-108857487D01*
X146034411Y-108872201D01*
X146038835Y-108900671D01*
X146044062Y-108927865D01*
X146050095Y-108953783D01*
X146056931Y-108978424D01*
X146064572Y-109001788D01*
X146073017Y-109023876D01*
X146082266Y-109044687D01*
X146092319Y-109064222D01*
X146103177Y-109082480D01*
X146114839Y-109099461D01*
X146127306Y-109115166D01*
X146140416Y-109129762D01*
X146154010Y-109143416D01*
X146168088Y-109156129D01*
X146182650Y-109167900D01*
X146197695Y-109178729D01*
X146213224Y-109188617D01*
X146229237Y-109197562D01*
X146245733Y-109205567D01*
X146262713Y-109212629D01*
X146280177Y-109218750D01*
X146298125Y-109223929D01*
X146316556Y-109228167D01*
X146335471Y-109231463D01*
X146354870Y-109233817D01*
X146374752Y-109235229D01*
X146395118Y-109235700D01*
X146410189Y-109235391D01*
X146424994Y-109234464D01*
X146446702Y-109231913D01*
X146467811Y-109227972D01*
X146488322Y-109222640D01*
X146508233Y-109215916D01*
X146527546Y-109207802D01*
X146546259Y-109198297D01*
X146564374Y-109187400D01*
X146581889Y-109175113D01*
X146598806Y-109161434D01*
X146604312Y-109156565D01*
X146615064Y-109146319D01*
X146625430Y-109135362D01*
X146635409Y-109123696D01*
X146645001Y-109111319D01*
X146654208Y-109098233D01*
X146663028Y-109084437D01*
X146671461Y-109069932D01*
X146679508Y-109054716D01*
X146687169Y-109038791D01*
X146694443Y-109022155D01*
X146701331Y-109004810D01*
X146707833Y-108986756D01*
X146713948Y-108967991D01*
X146719677Y-108948516D01*
X146725019Y-108928332D01*
X146729975Y-108907438D01*
G37*
G36*
X147728342Y-108368330D02*
G01*
X147751404Y-108368871D01*
X147773691Y-108369772D01*
X147795202Y-108371035D01*
X147815937Y-108372657D01*
X147835897Y-108374641D01*
X147855081Y-108376985D01*
X147873490Y-108379690D01*
X147891122Y-108382755D01*
X147907979Y-108386181D01*
X147924061Y-108389968D01*
X147939366Y-108394116D01*
X147953896Y-108398624D01*
X147974237Y-108406062D01*
X147992833Y-108414311D01*
X148010128Y-108423186D01*
X148026432Y-108432498D01*
X148041744Y-108442248D01*
X148056065Y-108452436D01*
X148069394Y-108463062D01*
X148081730Y-108474126D01*
X148093076Y-108485628D01*
X148103429Y-108497568D01*
X148112791Y-108509945D01*
X148121160Y-108522761D01*
X148126189Y-108531548D01*
X148133129Y-108545852D01*
X148139387Y-108562250D01*
X148144962Y-108580740D01*
X148149854Y-108601323D01*
X148152736Y-108616208D01*
X148155315Y-108632023D01*
X148157591Y-108648769D01*
X148159563Y-108666444D01*
X148161231Y-108685050D01*
X148162597Y-108704586D01*
X148163659Y-108725053D01*
X148164417Y-108746449D01*
X148164872Y-108768776D01*
X148165024Y-108792033D01*
X148161727Y-109132019D01*
X148161781Y-109149856D01*
X148161944Y-109167098D01*
X148162216Y-109183745D01*
X148162597Y-109199796D01*
X148163086Y-109215252D01*
X148163684Y-109230113D01*
X148164786Y-109251288D01*
X148166132Y-109271123D01*
X148167722Y-109289619D01*
X148169558Y-109306775D01*
X148171638Y-109322591D01*
X148173963Y-109337068D01*
X148175648Y-109345976D01*
X148179507Y-109363349D01*
X148184121Y-109381032D01*
X148189490Y-109399024D01*
X148195615Y-109417325D01*
X148200705Y-109431254D01*
X148206220Y-109445356D01*
X148212160Y-109459633D01*
X148218525Y-109474083D01*
X148225314Y-109488707D01*
X148227672Y-109493621D01*
X147941542Y-109493621D01*
X147936327Y-109479075D01*
X147931467Y-109464374D01*
X147926247Y-109447613D01*
X147921621Y-109432071D01*
X147916744Y-109415098D01*
X147913698Y-109404228D01*
X147909548Y-109389265D01*
X147905436Y-109375056D01*
X147903440Y-109368690D01*
X147889405Y-109382307D01*
X147875190Y-109395266D01*
X147860794Y-109407569D01*
X147846218Y-109419214D01*
X147831462Y-109430203D01*
X147816526Y-109440535D01*
X147801409Y-109450210D01*
X147786112Y-109459228D01*
X147770634Y-109467589D01*
X147754976Y-109475294D01*
X147744438Y-109480065D01*
X147728535Y-109486678D01*
X147712427Y-109492640D01*
X147696112Y-109497952D01*
X147679591Y-109502614D01*
X147662864Y-109506625D01*
X147645932Y-109509985D01*
X147628793Y-109512695D01*
X147611448Y-109514755D01*
X147593896Y-109516164D01*
X147576139Y-109516923D01*
X147564187Y-109517068D01*
X147543354Y-109516704D01*
X147523079Y-109515614D01*
X147503363Y-109513796D01*
X147484205Y-109511252D01*
X147465604Y-109507980D01*
X147447562Y-109503982D01*
X147430079Y-109499256D01*
X147413153Y-109493804D01*
X147396785Y-109487624D01*
X147380976Y-109480718D01*
X147365724Y-109473084D01*
X147351031Y-109464724D01*
X147336896Y-109455636D01*
X147323319Y-109445821D01*
X147310300Y-109435280D01*
X147297840Y-109424011D01*
X147286039Y-109412186D01*
X147274999Y-109399974D01*
X147264721Y-109387376D01*
X147255204Y-109374392D01*
X147246449Y-109361021D01*
X147238454Y-109347264D01*
X147231222Y-109333120D01*
X147224750Y-109318590D01*
X147219040Y-109303674D01*
X147214091Y-109288371D01*
X147209904Y-109272681D01*
X147206478Y-109256606D01*
X147203813Y-109240144D01*
X147201910Y-109223295D01*
X147200767Y-109206060D01*
X147200387Y-109188439D01*
X147200776Y-109170965D01*
X147201234Y-109164259D01*
X147490181Y-109164259D01*
X147491290Y-109181964D01*
X147494617Y-109198899D01*
X147500163Y-109215065D01*
X147507927Y-109230462D01*
X147517909Y-109245090D01*
X147527491Y-109256238D01*
X147535610Y-109264276D01*
X147547351Y-109274065D01*
X147559859Y-109282549D01*
X147573134Y-109289727D01*
X147587176Y-109295601D01*
X147601985Y-109300169D01*
X147617561Y-109303432D01*
X147633904Y-109305389D01*
X147651015Y-109306042D01*
X147670501Y-109305281D01*
X147689758Y-109302997D01*
X147708786Y-109299190D01*
X147727585Y-109293860D01*
X147741534Y-109288864D01*
X147755354Y-109283011D01*
X147769046Y-109276302D01*
X147782608Y-109268736D01*
X147796042Y-109260313D01*
X147800491Y-109257316D01*
X147813028Y-109247721D01*
X147824443Y-109237623D01*
X147834735Y-109227022D01*
X147846023Y-109213061D01*
X147855558Y-109198314D01*
X147863339Y-109182779D01*
X147869368Y-109166457D01*
X147873228Y-109151027D01*
X147875834Y-109134745D01*
X147877520Y-109119477D01*
X147878851Y-109102218D01*
X147879827Y-109082967D01*
X147880326Y-109067221D01*
X147880625Y-109050355D01*
X147880725Y-109032368D01*
X147880725Y-108977780D01*
X147865790Y-108982285D01*
X147848829Y-108987007D01*
X147829841Y-108991948D01*
X147814270Y-108995795D01*
X147797559Y-108999766D01*
X147779709Y-109003858D01*
X147760718Y-109008073D01*
X147740588Y-109012411D01*
X147719317Y-109016870D01*
X147704504Y-109019911D01*
X147689764Y-109022931D01*
X147668877Y-109027450D01*
X147649458Y-109031956D01*
X147631507Y-109036449D01*
X147615025Y-109040929D01*
X147600012Y-109045396D01*
X147582277Y-109051332D01*
X147567153Y-109057246D01*
X147551919Y-109064605D01*
X147546967Y-109067539D01*
X147533658Y-109077385D01*
X147522123Y-109087872D01*
X147512363Y-109099000D01*
X147502658Y-109113812D01*
X147495726Y-109129626D01*
X147491567Y-109146442D01*
X147490181Y-109164259D01*
X147201234Y-109164259D01*
X147201945Y-109153852D01*
X147203893Y-109137099D01*
X147206621Y-109120707D01*
X147210127Y-109104676D01*
X147214413Y-109089006D01*
X147219478Y-109073695D01*
X147225322Y-109058746D01*
X147231946Y-109044157D01*
X147239349Y-109029929D01*
X147244717Y-109020644D01*
X147253341Y-109007074D01*
X147262590Y-108994116D01*
X147272464Y-108981769D01*
X147282962Y-108970034D01*
X147294085Y-108958911D01*
X147305832Y-108948400D01*
X147318205Y-108938501D01*
X147331202Y-108929213D01*
X147344823Y-108920538D01*
X147359070Y-108912474D01*
X147368914Y-108907438D01*
X147384511Y-108900174D01*
X147401350Y-108893085D01*
X147419433Y-108886170D01*
X147438758Y-108879428D01*
X147459327Y-108872860D01*
X147473729Y-108868578D01*
X147488684Y-108864374D01*
X147504192Y-108860246D01*
X147520252Y-108856196D01*
X147536864Y-108852224D01*
X147554029Y-108848328D01*
X147571746Y-108844510D01*
X147590016Y-108840769D01*
X147599357Y-108838928D01*
X147624242Y-108834095D01*
X147648153Y-108829305D01*
X147671090Y-108824558D01*
X147693055Y-108819854D01*
X147714047Y-108815193D01*
X147734065Y-108810574D01*
X147753110Y-108805999D01*
X147771182Y-108801467D01*
X147788281Y-108796977D01*
X147804407Y-108792531D01*
X147819560Y-108788127D01*
X147833739Y-108783767D01*
X147853184Y-108777306D01*
X147870438Y-108770943D01*
X147880725Y-108766754D01*
X147880725Y-108737078D01*
X147880361Y-108721504D01*
X147879270Y-108706793D01*
X147876682Y-108688521D01*
X147872801Y-108671782D01*
X147867626Y-108656578D01*
X147861158Y-108642908D01*
X147851253Y-108627978D01*
X147839326Y-108615445D01*
X147824714Y-108604996D01*
X147810449Y-108597912D01*
X147793894Y-108591962D01*
X147775049Y-108587145D01*
X147759413Y-108584276D01*
X147742489Y-108582044D01*
X147724276Y-108580450D01*
X147704776Y-108579494D01*
X147683988Y-108579175D01*
X147665189Y-108579662D01*
X147647443Y-108581122D01*
X147630750Y-108583554D01*
X147615111Y-108586961D01*
X147600525Y-108591340D01*
X147583774Y-108598182D01*
X147568669Y-108606545D01*
X147563087Y-108610316D01*
X147549980Y-108621202D01*
X147537678Y-108634395D01*
X147528416Y-108646611D01*
X147519669Y-108660303D01*
X147511437Y-108675473D01*
X147503721Y-108692120D01*
X147496519Y-108710244D01*
X147493112Y-108719859D01*
X147230429Y-108672965D01*
X147236219Y-108653862D01*
X147242507Y-108635389D01*
X147249294Y-108617546D01*
X147256578Y-108600333D01*
X147264360Y-108583749D01*
X147272641Y-108567795D01*
X147281419Y-108552471D01*
X147290696Y-108537776D01*
X147300470Y-108523711D01*
X147310743Y-108510276D01*
X147321513Y-108497470D01*
X147332782Y-108485294D01*
X147344548Y-108473748D01*
X147356813Y-108462832D01*
X147369576Y-108452545D01*
X147382836Y-108442888D01*
X147396801Y-108433837D01*
X147411584Y-108425371D01*
X147427186Y-108417488D01*
X147443607Y-108410190D01*
X147460846Y-108403475D01*
X147478904Y-108397344D01*
X147497780Y-108391797D01*
X147517475Y-108386834D01*
X147537989Y-108382455D01*
X147559321Y-108378660D01*
X147581471Y-108375448D01*
X147604441Y-108372821D01*
X147628229Y-108370777D01*
X147652835Y-108369317D01*
X147678260Y-108368441D01*
X147704504Y-108368149D01*
X147728342Y-108368330D01*
G37*
G36*
X149439972Y-109493621D02*
G01*
X149150544Y-109493621D01*
X149150544Y-108924657D01*
X149150471Y-108902578D01*
X149150252Y-108881494D01*
X149149887Y-108861407D01*
X149149376Y-108842316D01*
X149148719Y-108824221D01*
X149147916Y-108807123D01*
X149146967Y-108791020D01*
X149145873Y-108775913D01*
X149143957Y-108755120D01*
X149141712Y-108736569D01*
X149139140Y-108720258D01*
X149135198Y-108701997D01*
X149131859Y-108690916D01*
X149125562Y-108674897D01*
X149118121Y-108660040D01*
X149109534Y-108646346D01*
X149099802Y-108633815D01*
X149088926Y-108622447D01*
X149076905Y-108612241D01*
X149071775Y-108608484D01*
X149058312Y-108600041D01*
X149044026Y-108593028D01*
X149028917Y-108587447D01*
X149012985Y-108583297D01*
X148996231Y-108580578D01*
X148978653Y-108579290D01*
X148971392Y-108579175D01*
X148952770Y-108579834D01*
X148934641Y-108581809D01*
X148917004Y-108585100D01*
X148899859Y-108589708D01*
X148883207Y-108595633D01*
X148867047Y-108602874D01*
X148851379Y-108611433D01*
X148836203Y-108621307D01*
X148821858Y-108632184D01*
X148808680Y-108643930D01*
X148796670Y-108656547D01*
X148785828Y-108670034D01*
X148776154Y-108684391D01*
X148767647Y-108699618D01*
X148760309Y-108715715D01*
X148754138Y-108732682D01*
X148748986Y-108751830D01*
X148745572Y-108768603D01*
X148742546Y-108787443D01*
X148739905Y-108808351D01*
X148738360Y-108823438D01*
X148736986Y-108839443D01*
X148735784Y-108856367D01*
X148734753Y-108874211D01*
X148733895Y-108892972D01*
X148733208Y-108912653D01*
X148732692Y-108933252D01*
X148732349Y-108954771D01*
X148732177Y-108977208D01*
X148732156Y-108988771D01*
X148732156Y-109493621D01*
X148442728Y-109493621D01*
X148442728Y-108391597D01*
X148711639Y-108391597D01*
X148711639Y-108552431D01*
X148729835Y-108530115D01*
X148748608Y-108509240D01*
X148767959Y-108489804D01*
X148787889Y-108471808D01*
X148808397Y-108455251D01*
X148829483Y-108440134D01*
X148851147Y-108426457D01*
X148873389Y-108414220D01*
X148896210Y-108403422D01*
X148919608Y-108394064D01*
X148943585Y-108386146D01*
X148968140Y-108379667D01*
X148993273Y-108374628D01*
X149018985Y-108371029D01*
X149045274Y-108368869D01*
X149072142Y-108368149D01*
X149089991Y-108368455D01*
X149107545Y-108369373D01*
X149124802Y-108370903D01*
X149141763Y-108373044D01*
X149158427Y-108375797D01*
X149174795Y-108379162D01*
X149190867Y-108383139D01*
X149206643Y-108387727D01*
X149222123Y-108392927D01*
X149237306Y-108398739D01*
X149247264Y-108402954D01*
X149261829Y-108409647D01*
X149275712Y-108416676D01*
X149288911Y-108424039D01*
X149301429Y-108431737D01*
X149317056Y-108442521D01*
X149331471Y-108453902D01*
X149344671Y-108465877D01*
X149356658Y-108478448D01*
X149367431Y-108491614D01*
X149377209Y-108505307D01*
X149386208Y-108519458D01*
X149394428Y-108534067D01*
X149401870Y-108549133D01*
X149408533Y-108564658D01*
X149414418Y-108580641D01*
X149419524Y-108597081D01*
X149423852Y-108613980D01*
X149427630Y-108631943D01*
X149430133Y-108646633D01*
X149432352Y-108662366D01*
X149434289Y-108679142D01*
X149435942Y-108696961D01*
X149437311Y-108715824D01*
X149438397Y-108735730D01*
X149439200Y-108756679D01*
X149439720Y-108778672D01*
X149439909Y-108793913D01*
X149439972Y-108809618D01*
X149439972Y-109493621D01*
G37*
G36*
X150178586Y-108368330D02*
G01*
X150201649Y-108368871D01*
X150223935Y-108369772D01*
X150245446Y-108371035D01*
X150266182Y-108372657D01*
X150286141Y-108374641D01*
X150305325Y-108376985D01*
X150323734Y-108379690D01*
X150341367Y-108382755D01*
X150358224Y-108386181D01*
X150374305Y-108389968D01*
X150389611Y-108394116D01*
X150404141Y-108398624D01*
X150424481Y-108406062D01*
X150443077Y-108414311D01*
X150460373Y-108423186D01*
X150476677Y-108432498D01*
X150491989Y-108442248D01*
X150506309Y-108452436D01*
X150519638Y-108463062D01*
X150531975Y-108474126D01*
X150543320Y-108485628D01*
X150553673Y-108497568D01*
X150563035Y-108509945D01*
X150571405Y-108522761D01*
X150576434Y-108531548D01*
X150583374Y-108545852D01*
X150589631Y-108562250D01*
X150595206Y-108580740D01*
X150600098Y-108601323D01*
X150602981Y-108616208D01*
X150605560Y-108632023D01*
X150607835Y-108648769D01*
X150609807Y-108666444D01*
X150611476Y-108685050D01*
X150612841Y-108704586D01*
X150613903Y-108725053D01*
X150614661Y-108746449D01*
X150615116Y-108768776D01*
X150615268Y-108792033D01*
X150611971Y-109132019D01*
X150612025Y-109149856D01*
X150612188Y-109167098D01*
X150612460Y-109183745D01*
X150612841Y-109199796D01*
X150613330Y-109215252D01*
X150613929Y-109230113D01*
X150615030Y-109251288D01*
X150616376Y-109271123D01*
X150617967Y-109289619D01*
X150619802Y-109306775D01*
X150621882Y-109322591D01*
X150624207Y-109337068D01*
X150625893Y-109345976D01*
X150629751Y-109363349D01*
X150634365Y-109381032D01*
X150639734Y-109399024D01*
X150645860Y-109417325D01*
X150650949Y-109431254D01*
X150656464Y-109445356D01*
X150662404Y-109459633D01*
X150668769Y-109474083D01*
X150675559Y-109488707D01*
X150677916Y-109493621D01*
X150391786Y-109493621D01*
X150386572Y-109479075D01*
X150381712Y-109464374D01*
X150376491Y-109447613D01*
X150371865Y-109432071D01*
X150366988Y-109415098D01*
X150363942Y-109404228D01*
X150359792Y-109389265D01*
X150355680Y-109375056D01*
X150353684Y-109368690D01*
X150339649Y-109382307D01*
X150325434Y-109395266D01*
X150311038Y-109407569D01*
X150296463Y-109419214D01*
X150281706Y-109430203D01*
X150266770Y-109440535D01*
X150251653Y-109450210D01*
X150236356Y-109459228D01*
X150220878Y-109467589D01*
X150205221Y-109475294D01*
X150194682Y-109480065D01*
X150178779Y-109486678D01*
X150162671Y-109492640D01*
X150146356Y-109497952D01*
X150129836Y-109502614D01*
X150113109Y-109506625D01*
X150096176Y-109509985D01*
X150079037Y-109512695D01*
X150061692Y-109514755D01*
X150044141Y-109516164D01*
X150026383Y-109516923D01*
X150014431Y-109517068D01*
X149993598Y-109516704D01*
X149973324Y-109515614D01*
X149953607Y-109513796D01*
X149934449Y-109511252D01*
X149915849Y-109507980D01*
X149897807Y-109503982D01*
X149880323Y-109499256D01*
X149863397Y-109493804D01*
X149847029Y-109487624D01*
X149831220Y-109480718D01*
X149815969Y-109473084D01*
X149801275Y-109464724D01*
X149787140Y-109455636D01*
X149773563Y-109445821D01*
X149760545Y-109435280D01*
X149748084Y-109424011D01*
X149736283Y-109412186D01*
X149725243Y-109399974D01*
X149714965Y-109387376D01*
X149705448Y-109374392D01*
X149696693Y-109361021D01*
X149688699Y-109347264D01*
X149681466Y-109333120D01*
X149674994Y-109318590D01*
X149669284Y-109303674D01*
X149664335Y-109288371D01*
X149660148Y-109272681D01*
X149656722Y-109256606D01*
X149654057Y-109240144D01*
X149652154Y-109223295D01*
X149651012Y-109206060D01*
X149650631Y-109188439D01*
X149651021Y-109170965D01*
X149651479Y-109164259D01*
X149940425Y-109164259D01*
X149941534Y-109181964D01*
X149944862Y-109198899D01*
X149950407Y-109215065D01*
X149958171Y-109230462D01*
X149968153Y-109245090D01*
X149977736Y-109256238D01*
X149985854Y-109264276D01*
X149997595Y-109274065D01*
X150010103Y-109282549D01*
X150023378Y-109289727D01*
X150037420Y-109295601D01*
X150052229Y-109300169D01*
X150067805Y-109303432D01*
X150084149Y-109305389D01*
X150101259Y-109306042D01*
X150120745Y-109305281D01*
X150140002Y-109302997D01*
X150159030Y-109299190D01*
X150177829Y-109293860D01*
X150191778Y-109288864D01*
X150205598Y-109283011D01*
X150219290Y-109276302D01*
X150232853Y-109268736D01*
X150246286Y-109260313D01*
X150250736Y-109257316D01*
X150263272Y-109247721D01*
X150274687Y-109237623D01*
X150284979Y-109227022D01*
X150296267Y-109213061D01*
X150305802Y-109198314D01*
X150313584Y-109182779D01*
X150319612Y-109166457D01*
X150323472Y-109151027D01*
X150326078Y-109134745D01*
X150327764Y-109119477D01*
X150329095Y-109102218D01*
X150330071Y-109082967D01*
X150330570Y-109067221D01*
X150330870Y-109050355D01*
X150330969Y-109032368D01*
X150330969Y-108977780D01*
X150316034Y-108982285D01*
X150299073Y-108987007D01*
X150280085Y-108991948D01*
X150264514Y-108995795D01*
X150247803Y-108999766D01*
X150229953Y-109003858D01*
X150210962Y-109008073D01*
X150190832Y-109012411D01*
X150169562Y-109016870D01*
X150154748Y-109019911D01*
X150140008Y-109022931D01*
X150119121Y-109027450D01*
X150099702Y-109031956D01*
X150081752Y-109036449D01*
X150065270Y-109040929D01*
X150050256Y-109045396D01*
X150032521Y-109051332D01*
X150017397Y-109057246D01*
X150002163Y-109064605D01*
X149997212Y-109067539D01*
X149983902Y-109077385D01*
X149972368Y-109087872D01*
X149962607Y-109099000D01*
X149952903Y-109113812D01*
X149945971Y-109129626D01*
X149941812Y-109146442D01*
X149940425Y-109164259D01*
X149651479Y-109164259D01*
X149652190Y-109153852D01*
X149654138Y-109137099D01*
X149656865Y-109120707D01*
X149660372Y-109104676D01*
X149664657Y-109089006D01*
X149669722Y-109073695D01*
X149675567Y-109058746D01*
X149682190Y-109044157D01*
X149689593Y-109029929D01*
X149694961Y-109020644D01*
X149703585Y-109007074D01*
X149712834Y-108994116D01*
X149722708Y-108981769D01*
X149733206Y-108970034D01*
X149744329Y-108958911D01*
X149756077Y-108948400D01*
X149768449Y-108938501D01*
X149781446Y-108929213D01*
X149795068Y-108920538D01*
X149809314Y-108912474D01*
X149819159Y-108907438D01*
X149834755Y-108900174D01*
X149851595Y-108893085D01*
X149869677Y-108886170D01*
X149889003Y-108879428D01*
X149909571Y-108872860D01*
X149923973Y-108868578D01*
X149938929Y-108864374D01*
X149954436Y-108860246D01*
X149970496Y-108856196D01*
X149987108Y-108852224D01*
X150004273Y-108848328D01*
X150021990Y-108844510D01*
X150040260Y-108840769D01*
X150049602Y-108838928D01*
X150074486Y-108834095D01*
X150098397Y-108829305D01*
X150121335Y-108824558D01*
X150143299Y-108819854D01*
X150164291Y-108815193D01*
X150184309Y-108810574D01*
X150203355Y-108805999D01*
X150221427Y-108801467D01*
X150238525Y-108796977D01*
X150254651Y-108792531D01*
X150269804Y-108788127D01*
X150283983Y-108783767D01*
X150303428Y-108777306D01*
X150320683Y-108770943D01*
X150330969Y-108766754D01*
X150330969Y-108737078D01*
X150330606Y-108721504D01*
X150329514Y-108706793D01*
X150326927Y-108688521D01*
X150323045Y-108671782D01*
X150317871Y-108656578D01*
X150311402Y-108642908D01*
X150301497Y-108627978D01*
X150289570Y-108615445D01*
X150274959Y-108604996D01*
X150260693Y-108597912D01*
X150244138Y-108591962D01*
X150225293Y-108587145D01*
X150209657Y-108584276D01*
X150192733Y-108582044D01*
X150174521Y-108580450D01*
X150155020Y-108579494D01*
X150134232Y-108579175D01*
X150115433Y-108579662D01*
X150097687Y-108581122D01*
X150080995Y-108583554D01*
X150065355Y-108586961D01*
X150050770Y-108591340D01*
X150034018Y-108598182D01*
X150018913Y-108606545D01*
X150013332Y-108610316D01*
X150000224Y-108621202D01*
X149987922Y-108634395D01*
X149978660Y-108646611D01*
X149969913Y-108660303D01*
X149961681Y-108675473D01*
X149953965Y-108692120D01*
X149946764Y-108710244D01*
X149943356Y-108719859D01*
X149680673Y-108672965D01*
X149686463Y-108653862D01*
X149692751Y-108635389D01*
X149699538Y-108617546D01*
X149706822Y-108600333D01*
X149714605Y-108583749D01*
X149722885Y-108567795D01*
X149731663Y-108552471D01*
X149740940Y-108537776D01*
X149750714Y-108523711D01*
X149760987Y-108510276D01*
X149771757Y-108497470D01*
X149783026Y-108485294D01*
X149794793Y-108473748D01*
X149807057Y-108462832D01*
X149819820Y-108452545D01*
X149833080Y-108442888D01*
X149847045Y-108433837D01*
X149861829Y-108425371D01*
X149877431Y-108417488D01*
X149893851Y-108410190D01*
X149911090Y-108403475D01*
X149929148Y-108397344D01*
X149948024Y-108391797D01*
X149967719Y-108386834D01*
X149988233Y-108382455D01*
X150009565Y-108378660D01*
X150031716Y-108375448D01*
X150054685Y-108372821D01*
X150078473Y-108370777D01*
X150103079Y-108369317D01*
X150128505Y-108368441D01*
X150154748Y-108368149D01*
X150178586Y-108368330D01*
G37*
G36*
X151172142Y-109493621D02*
G01*
X150882714Y-109493621D01*
X150882714Y-108391597D01*
X151151625Y-108391597D01*
X151151625Y-108547302D01*
X151160181Y-108533813D01*
X151168627Y-108520918D01*
X151176965Y-108508614D01*
X151189267Y-108491270D01*
X151201325Y-108475259D01*
X151213138Y-108460582D01*
X151224707Y-108447237D01*
X151236030Y-108435225D01*
X151247109Y-108424547D01*
X151261500Y-108412382D01*
X151275457Y-108402588D01*
X151289522Y-108394516D01*
X151304056Y-108387521D01*
X151319060Y-108381602D01*
X151334533Y-108376759D01*
X151350475Y-108372992D01*
X151366887Y-108370302D01*
X151383769Y-108368688D01*
X151401120Y-108368149D01*
X151419602Y-108368671D01*
X151437956Y-108370236D01*
X151456182Y-108372844D01*
X151474278Y-108376496D01*
X151492245Y-108381190D01*
X151510084Y-108386928D01*
X151527794Y-108393710D01*
X151545375Y-108401534D01*
X151562828Y-108410402D01*
X151580151Y-108420313D01*
X151591629Y-108427500D01*
X151501870Y-108697145D01*
X151488224Y-108688633D01*
X151474766Y-108680959D01*
X151461494Y-108674122D01*
X151444089Y-108666308D01*
X151427016Y-108659982D01*
X151410275Y-108655145D01*
X151393866Y-108651796D01*
X151377788Y-108649936D01*
X151365949Y-108649517D01*
X151351031Y-108650032D01*
X151333188Y-108652125D01*
X151316240Y-108655828D01*
X151300187Y-108661141D01*
X151285028Y-108668064D01*
X151270763Y-108676597D01*
X151262634Y-108682490D01*
X151249906Y-108694091D01*
X151240355Y-108705239D01*
X151231364Y-108718048D01*
X151222935Y-108732516D01*
X151215067Y-108748645D01*
X151207760Y-108766434D01*
X151202647Y-108780865D01*
X151197851Y-108796229D01*
X151196322Y-108801558D01*
X151192001Y-108819291D01*
X151188104Y-108840340D01*
X151185743Y-108856215D01*
X151183571Y-108873565D01*
X151181587Y-108892388D01*
X151179793Y-108912686D01*
X151178187Y-108934457D01*
X151176770Y-108957703D01*
X151175542Y-108982422D01*
X151174503Y-109008616D01*
X151173653Y-109036283D01*
X151172992Y-109065425D01*
X151172732Y-109080549D01*
X151172520Y-109096041D01*
X151172354Y-109111901D01*
X151172236Y-109128131D01*
X151172165Y-109144728D01*
X151172142Y-109161694D01*
X151172142Y-109493621D01*
G37*
G36*
X151574043Y-108391597D02*
G01*
X151882156Y-108391597D01*
X152144106Y-109171953D01*
X152399462Y-108391597D01*
X152699515Y-108391597D01*
X152313000Y-109453687D01*
X152244124Y-109656653D01*
X152237009Y-109673511D01*
X152229951Y-109689604D01*
X152222952Y-109704930D01*
X152216011Y-109719490D01*
X152209128Y-109733283D01*
X152202302Y-109746310D01*
X152193292Y-109762488D01*
X152184385Y-109777302D01*
X152175581Y-109790755D01*
X152171217Y-109796970D01*
X152162447Y-109808774D01*
X152151034Y-109822724D01*
X152139120Y-109835779D01*
X152126705Y-109847940D01*
X152113790Y-109859206D01*
X152100373Y-109869578D01*
X152092083Y-109875372D01*
X152077605Y-109884438D01*
X152062108Y-109892860D01*
X152045591Y-109900638D01*
X152031644Y-109906397D01*
X152017043Y-109911744D01*
X152001791Y-109916678D01*
X151985885Y-109921201D01*
X151981807Y-109922267D01*
X151965149Y-109926217D01*
X151947964Y-109929640D01*
X151930253Y-109932536D01*
X151912015Y-109934906D01*
X151893250Y-109936750D01*
X151873958Y-109938066D01*
X151859144Y-109938708D01*
X151844034Y-109939054D01*
X151833796Y-109939119D01*
X151818163Y-109938978D01*
X151802588Y-109938553D01*
X151787070Y-109937844D01*
X151771611Y-109936853D01*
X151756210Y-109935577D01*
X151740867Y-109934019D01*
X151725581Y-109932177D01*
X151710354Y-109930052D01*
X151695184Y-109927643D01*
X151680073Y-109924951D01*
X151670031Y-109922999D01*
X151644385Y-109713073D01*
X151661210Y-109716593D01*
X151677610Y-109719644D01*
X151693587Y-109722226D01*
X151709140Y-109724338D01*
X151724270Y-109725981D01*
X151738976Y-109727155D01*
X151756763Y-109727962D01*
X151767117Y-109728094D01*
X151785548Y-109727511D01*
X151803057Y-109725762D01*
X151819645Y-109722848D01*
X151835313Y-109718769D01*
X151850059Y-109713523D01*
X151863885Y-109707112D01*
X151876790Y-109699535D01*
X151888773Y-109690793D01*
X151899836Y-109680885D01*
X151909978Y-109669812D01*
X151916228Y-109661782D01*
X151925161Y-109649098D01*
X151933689Y-109635777D01*
X151941811Y-109621818D01*
X151949527Y-109607222D01*
X151956837Y-109591988D01*
X151963742Y-109576117D01*
X151970241Y-109559608D01*
X151976334Y-109542461D01*
X151982022Y-109524677D01*
X151987304Y-109506256D01*
X151990600Y-109493621D01*
X151574043Y-108391597D01*
G37*
G36*
X153455324Y-109493621D02*
G01*
X153455324Y-107969545D01*
X153760139Y-107969545D01*
X153760139Y-109493621D01*
X153455324Y-109493621D01*
G37*
G36*
X153943688Y-109188805D02*
G01*
X154234214Y-109141911D01*
X154238049Y-109156682D01*
X154242548Y-109170771D01*
X154249577Y-109188493D01*
X154257786Y-109205003D01*
X154267174Y-109220298D01*
X154277742Y-109234381D01*
X154289488Y-109247249D01*
X154302414Y-109258904D01*
X154309319Y-109264276D01*
X154324226Y-109274065D01*
X154340552Y-109282549D01*
X154358297Y-109289727D01*
X154372538Y-109294255D01*
X154387578Y-109298048D01*
X154403416Y-109301107D01*
X154420053Y-109303432D01*
X154437488Y-109305022D01*
X154455722Y-109305879D01*
X154468321Y-109306042D01*
X154488855Y-109305678D01*
X154508417Y-109304587D01*
X154527006Y-109302767D01*
X154544622Y-109300220D01*
X154561266Y-109296945D01*
X154576938Y-109292943D01*
X154591637Y-109288213D01*
X154605364Y-109282755D01*
X154622154Y-109274346D01*
X154637215Y-109264643D01*
X154650164Y-109253218D01*
X154660433Y-109240377D01*
X154668024Y-109226119D01*
X154672936Y-109210444D01*
X154675168Y-109193352D01*
X154675317Y-109187340D01*
X154674035Y-109171563D01*
X154670188Y-109157207D01*
X154662795Y-109142752D01*
X154654801Y-109132752D01*
X154642767Y-109123916D01*
X154628350Y-109116566D01*
X154613443Y-109110598D01*
X154595906Y-109104773D01*
X154579984Y-109100217D01*
X154562378Y-109095752D01*
X154557714Y-109094650D01*
X154536074Y-109089831D01*
X154514935Y-109085038D01*
X154494297Y-109080271D01*
X154474160Y-109075530D01*
X154454524Y-109070815D01*
X154435388Y-109066125D01*
X154416754Y-109061461D01*
X154398620Y-109056823D01*
X154380988Y-109052210D01*
X154363856Y-109047624D01*
X154347225Y-109043063D01*
X154331095Y-109038527D01*
X154315466Y-109034018D01*
X154300337Y-109029534D01*
X154285710Y-109025076D01*
X154271584Y-109020644D01*
X154244833Y-109011857D01*
X154220087Y-109003173D01*
X154197343Y-108994592D01*
X154176604Y-108986114D01*
X154157868Y-108977740D01*
X154141135Y-108969468D01*
X154126406Y-108961299D01*
X154113681Y-108953233D01*
X154097976Y-108941833D01*
X154083284Y-108929889D01*
X154069605Y-108917401D01*
X154056940Y-108904369D01*
X154045288Y-108890794D01*
X154034649Y-108876675D01*
X154025023Y-108862011D01*
X154016411Y-108846804D01*
X154008812Y-108831054D01*
X154002226Y-108814759D01*
X153996653Y-108797921D01*
X153992093Y-108780538D01*
X153988547Y-108762612D01*
X153986014Y-108744142D01*
X153984494Y-108725129D01*
X153983988Y-108705571D01*
X153984426Y-108687890D01*
X153985739Y-108670566D01*
X153987929Y-108653600D01*
X153990994Y-108636992D01*
X153994936Y-108620742D01*
X153999753Y-108604849D01*
X154005446Y-108589315D01*
X154012015Y-108574138D01*
X154019459Y-108559319D01*
X154027780Y-108544857D01*
X154036976Y-108530754D01*
X154047048Y-108517008D01*
X154057996Y-108503620D01*
X154069820Y-108490590D01*
X154082520Y-108477917D01*
X154096095Y-108465602D01*
X154110637Y-108453801D01*
X154126143Y-108442762D01*
X154142613Y-108432484D01*
X154160049Y-108422967D01*
X154178448Y-108414211D01*
X154197813Y-108406217D01*
X154218142Y-108398984D01*
X154239435Y-108392513D01*
X154261693Y-108386803D01*
X154284916Y-108381854D01*
X154309103Y-108377666D01*
X154334255Y-108374240D01*
X154360371Y-108371576D01*
X154387452Y-108369672D01*
X154415497Y-108368530D01*
X154444508Y-108368149D01*
X154472129Y-108368450D01*
X154498850Y-108369352D01*
X154524668Y-108370854D01*
X154549585Y-108372958D01*
X154573601Y-108375663D01*
X154596715Y-108378969D01*
X154618927Y-108382876D01*
X154640238Y-108387384D01*
X154660647Y-108392493D01*
X154680154Y-108398203D01*
X154698760Y-108404514D01*
X154716464Y-108411426D01*
X154733267Y-108418940D01*
X154749168Y-108427054D01*
X154764168Y-108435769D01*
X154778265Y-108445086D01*
X154791691Y-108454992D01*
X154804581Y-108465476D01*
X154816935Y-108476539D01*
X154828755Y-108488180D01*
X154840039Y-108500398D01*
X154850788Y-108513195D01*
X154861002Y-108526571D01*
X154870681Y-108540524D01*
X154879824Y-108555055D01*
X154888432Y-108570165D01*
X154896505Y-108585853D01*
X154904043Y-108602119D01*
X154911045Y-108618963D01*
X154917512Y-108636385D01*
X154923444Y-108654386D01*
X154928841Y-108672965D01*
X154655533Y-108719859D01*
X154650645Y-108703321D01*
X154644771Y-108687779D01*
X154637914Y-108673234D01*
X154630071Y-108659684D01*
X154621244Y-108647130D01*
X154611432Y-108635572D01*
X154600636Y-108625011D01*
X154588855Y-108615445D01*
X154576021Y-108606945D01*
X154561881Y-108599577D01*
X154546437Y-108593343D01*
X154529687Y-108588243D01*
X154511632Y-108584276D01*
X154492272Y-108581442D01*
X154476896Y-108580061D01*
X154460785Y-108579317D01*
X154449637Y-108579175D01*
X154428774Y-108579455D01*
X154409052Y-108580296D01*
X154390469Y-108581697D01*
X154373026Y-108583658D01*
X154356724Y-108586179D01*
X154341561Y-108589260D01*
X154323116Y-108594241D01*
X154306699Y-108600217D01*
X154292307Y-108607189D01*
X154285872Y-108611049D01*
X154273024Y-108621635D01*
X154263332Y-108633519D01*
X154256795Y-108646700D01*
X154253414Y-108661178D01*
X154252899Y-108670034D01*
X154254708Y-108684848D01*
X154260135Y-108698518D01*
X154269179Y-108711044D01*
X154280061Y-108721064D01*
X154281842Y-108722424D01*
X154294642Y-108730031D01*
X154308179Y-108736226D01*
X154325090Y-108742839D01*
X154345376Y-108749870D01*
X154360775Y-108754790D01*
X154377673Y-108759896D01*
X154396072Y-108765189D01*
X154415970Y-108770667D01*
X154437368Y-108776331D01*
X154460265Y-108782182D01*
X154484663Y-108788218D01*
X154510560Y-108794440D01*
X154537958Y-108800849D01*
X154552219Y-108804123D01*
X154566531Y-108807421D01*
X154594340Y-108814159D01*
X154621062Y-108821085D01*
X154646696Y-108828201D01*
X154671243Y-108835505D01*
X154694701Y-108842998D01*
X154717073Y-108850681D01*
X154738356Y-108858552D01*
X154758552Y-108866612D01*
X154777660Y-108874861D01*
X154795681Y-108883298D01*
X154812613Y-108891925D01*
X154828459Y-108900741D01*
X154843216Y-108909745D01*
X154856886Y-108918939D01*
X154869469Y-108928321D01*
X154875352Y-108933083D01*
X154886310Y-108942986D01*
X154901421Y-108958743D01*
X154914942Y-108975581D01*
X154926872Y-108993502D01*
X154937212Y-109012504D01*
X154945960Y-109032588D01*
X154950909Y-109046579D01*
X154955151Y-109061050D01*
X154958686Y-109076002D01*
X154961514Y-109091436D01*
X154963635Y-109107349D01*
X154965049Y-109123744D01*
X154965756Y-109140620D01*
X154965844Y-109149238D01*
X154965353Y-109167897D01*
X154963880Y-109186229D01*
X154961426Y-109204236D01*
X154957990Y-109221916D01*
X154953572Y-109239269D01*
X154948173Y-109256297D01*
X154941791Y-109272998D01*
X154934428Y-109289372D01*
X154926083Y-109305421D01*
X154916757Y-109321143D01*
X154906449Y-109336539D01*
X154895158Y-109351609D01*
X154882887Y-109366352D01*
X154869633Y-109380769D01*
X154855398Y-109394860D01*
X154840181Y-109408624D01*
X154824002Y-109421756D01*
X154806882Y-109434041D01*
X154788820Y-109445478D01*
X154769816Y-109456068D01*
X154749871Y-109465811D01*
X154728984Y-109474707D01*
X154707155Y-109482756D01*
X154684385Y-109489957D01*
X154660672Y-109496311D01*
X154636019Y-109501818D01*
X154610423Y-109506478D01*
X154583886Y-109510290D01*
X154556407Y-109513255D01*
X154527987Y-109515373D01*
X154498625Y-109516644D01*
X154483591Y-109516962D01*
X154468321Y-109517068D01*
X154440705Y-109516723D01*
X154413819Y-109515688D01*
X154387662Y-109513964D01*
X154362236Y-109511549D01*
X154337539Y-109508445D01*
X154313572Y-109504651D01*
X154290335Y-109500168D01*
X154267828Y-109494994D01*
X154246051Y-109489131D01*
X154225004Y-109482578D01*
X154204686Y-109475335D01*
X154185099Y-109467403D01*
X154166241Y-109458780D01*
X154148113Y-109449468D01*
X154130715Y-109439466D01*
X154114047Y-109428774D01*
X154098140Y-109417490D01*
X154082935Y-109405710D01*
X154068430Y-109393436D01*
X154054627Y-109380666D01*
X154041525Y-109367401D01*
X154029125Y-109353641D01*
X154017426Y-109339385D01*
X154006427Y-109324635D01*
X153996131Y-109309389D01*
X153986535Y-109293649D01*
X153977641Y-109277413D01*
X153969448Y-109260682D01*
X153961956Y-109243455D01*
X153955165Y-109225734D01*
X153949076Y-109207517D01*
X153943688Y-109188805D01*
G37*
G36*
X155213506Y-109493621D02*
G01*
X155213506Y-107969545D01*
X155503300Y-107969545D01*
X155503300Y-109493621D01*
X155213506Y-109493621D01*
G37*
G36*
X156248510Y-108368330D02*
G01*
X156271572Y-108368871D01*
X156293859Y-108369772D01*
X156315370Y-108371035D01*
X156336105Y-108372657D01*
X156356065Y-108374641D01*
X156375249Y-108376985D01*
X156393657Y-108379690D01*
X156411290Y-108382755D01*
X156428147Y-108386181D01*
X156444228Y-108389968D01*
X156459534Y-108394116D01*
X156474064Y-108398624D01*
X156494405Y-108406062D01*
X156513000Y-108414311D01*
X156530296Y-108423186D01*
X156546600Y-108432498D01*
X156561912Y-108442248D01*
X156576232Y-108452436D01*
X156589561Y-108463062D01*
X156601898Y-108474126D01*
X156613243Y-108485628D01*
X156623596Y-108497568D01*
X156632958Y-108509945D01*
X156641328Y-108522761D01*
X156646357Y-108531548D01*
X156653297Y-108545852D01*
X156659554Y-108562250D01*
X156665129Y-108580740D01*
X156670022Y-108601323D01*
X156672904Y-108616208D01*
X156675483Y-108632023D01*
X156677758Y-108648769D01*
X156679730Y-108666444D01*
X156681399Y-108685050D01*
X156682764Y-108704586D01*
X156683826Y-108725053D01*
X156684585Y-108746449D01*
X156685040Y-108768776D01*
X156685191Y-108792033D01*
X156681894Y-109132019D01*
X156681949Y-109149856D01*
X156682112Y-109167098D01*
X156682384Y-109183745D01*
X156682764Y-109199796D01*
X156683254Y-109215252D01*
X156683852Y-109230113D01*
X156684953Y-109251288D01*
X156686299Y-109271123D01*
X156687890Y-109289619D01*
X156689725Y-109306775D01*
X156691805Y-109322591D01*
X156694130Y-109337068D01*
X156695816Y-109345976D01*
X156699674Y-109363349D01*
X156704288Y-109381032D01*
X156709658Y-109399024D01*
X156715783Y-109417325D01*
X156720873Y-109431254D01*
X156726387Y-109445356D01*
X156732327Y-109459633D01*
X156738692Y-109474083D01*
X156745482Y-109488707D01*
X156747840Y-109493621D01*
X156461709Y-109493621D01*
X156456495Y-109479075D01*
X156451635Y-109464374D01*
X156446414Y-109447613D01*
X156441788Y-109432071D01*
X156436912Y-109415098D01*
X156433866Y-109404228D01*
X156429715Y-109389265D01*
X156425604Y-109375056D01*
X156423607Y-109368690D01*
X156409572Y-109382307D01*
X156395357Y-109395266D01*
X156380962Y-109407569D01*
X156366386Y-109419214D01*
X156351630Y-109430203D01*
X156336693Y-109440535D01*
X156321576Y-109450210D01*
X156306279Y-109459228D01*
X156290802Y-109467589D01*
X156275144Y-109475294D01*
X156264605Y-109480065D01*
X156248703Y-109486678D01*
X156232594Y-109492640D01*
X156216279Y-109497952D01*
X156199759Y-109502614D01*
X156183032Y-109506625D01*
X156166099Y-109509985D01*
X156148960Y-109512695D01*
X156131615Y-109514755D01*
X156114064Y-109516164D01*
X156096307Y-109516923D01*
X156084354Y-109517068D01*
X156063521Y-109516704D01*
X156043247Y-109515614D01*
X156023530Y-109513796D01*
X156004372Y-109511252D01*
X155985772Y-109507980D01*
X155967730Y-109503982D01*
X155950246Y-109499256D01*
X155933320Y-109493804D01*
X155916953Y-109487624D01*
X155901143Y-109480718D01*
X155885892Y-109473084D01*
X155871199Y-109464724D01*
X155857064Y-109455636D01*
X155843487Y-109445821D01*
X155830468Y-109435280D01*
X155818007Y-109424011D01*
X155806206Y-109412186D01*
X155795167Y-109399974D01*
X155784888Y-109387376D01*
X155775372Y-109374392D01*
X155766616Y-109361021D01*
X155758622Y-109347264D01*
X155751389Y-109333120D01*
X155744918Y-109318590D01*
X155739207Y-109303674D01*
X155734259Y-109288371D01*
X155730071Y-109272681D01*
X155726645Y-109256606D01*
X155723980Y-109240144D01*
X155722077Y-109223295D01*
X155720935Y-109206060D01*
X155720554Y-109188439D01*
X155720944Y-109170965D01*
X155721402Y-109164259D01*
X156010348Y-109164259D01*
X156011458Y-109181964D01*
X156014785Y-109198899D01*
X156020330Y-109215065D01*
X156028094Y-109230462D01*
X156038076Y-109245090D01*
X156047659Y-109256238D01*
X156055778Y-109264276D01*
X156067518Y-109274065D01*
X156080026Y-109282549D01*
X156093301Y-109289727D01*
X156107343Y-109295601D01*
X156122152Y-109300169D01*
X156137729Y-109303432D01*
X156154072Y-109305389D01*
X156171182Y-109306042D01*
X156190668Y-109305281D01*
X156209925Y-109302997D01*
X156228953Y-109299190D01*
X156247752Y-109293860D01*
X156261701Y-109288864D01*
X156275522Y-109283011D01*
X156289213Y-109276302D01*
X156302776Y-109268736D01*
X156316210Y-109260313D01*
X156320659Y-109257316D01*
X156333195Y-109247721D01*
X156344610Y-109237623D01*
X156354903Y-109227022D01*
X156366190Y-109213061D01*
X156375725Y-109198314D01*
X156383507Y-109182779D01*
X156389535Y-109166457D01*
X156393395Y-109151027D01*
X156396002Y-109134745D01*
X156397687Y-109119477D01*
X156399018Y-109102218D01*
X156399994Y-109082967D01*
X156400493Y-109067221D01*
X156400793Y-109050355D01*
X156400893Y-109032368D01*
X156400893Y-108977780D01*
X156385958Y-108982285D01*
X156368996Y-108987007D01*
X156350008Y-108991948D01*
X156334437Y-108995795D01*
X156317727Y-108999766D01*
X156299876Y-109003858D01*
X156280886Y-109008073D01*
X156260755Y-109012411D01*
X156239485Y-109016870D01*
X156224672Y-109019911D01*
X156209931Y-109022931D01*
X156189044Y-109027450D01*
X156169625Y-109031956D01*
X156151675Y-109036449D01*
X156135193Y-109040929D01*
X156120179Y-109045396D01*
X156102445Y-109051332D01*
X156087321Y-109057246D01*
X156072087Y-109064605D01*
X156067135Y-109067539D01*
X156053826Y-109077385D01*
X156042291Y-109087872D01*
X156032531Y-109099000D01*
X156022826Y-109113812D01*
X156015894Y-109129626D01*
X156011735Y-109146442D01*
X156010348Y-109164259D01*
X155721402Y-109164259D01*
X155722113Y-109153852D01*
X155724061Y-109137099D01*
X155726788Y-109120707D01*
X155730295Y-109104676D01*
X155734581Y-109089006D01*
X155739646Y-109073695D01*
X155745490Y-109058746D01*
X155752113Y-109044157D01*
X155759516Y-109029929D01*
X155764884Y-109020644D01*
X155773509Y-109007074D01*
X155782757Y-108994116D01*
X155792631Y-108981769D01*
X155803129Y-108970034D01*
X155814252Y-108958911D01*
X155826000Y-108948400D01*
X155838372Y-108938501D01*
X155851369Y-108929213D01*
X155864991Y-108920538D01*
X155879237Y-108912474D01*
X155889082Y-108907438D01*
X155904678Y-108900174D01*
X155921518Y-108893085D01*
X155939600Y-108886170D01*
X155958926Y-108879428D01*
X155979494Y-108872860D01*
X155993897Y-108868578D01*
X156008852Y-108864374D01*
X156024359Y-108860246D01*
X156040419Y-108856196D01*
X156057032Y-108852224D01*
X156074196Y-108848328D01*
X156091913Y-108844510D01*
X156110183Y-108840769D01*
X156119525Y-108838928D01*
X156144409Y-108834095D01*
X156168320Y-108829305D01*
X156191258Y-108824558D01*
X156213223Y-108819854D01*
X156234214Y-108815193D01*
X156254233Y-108810574D01*
X156273278Y-108805999D01*
X156291350Y-108801467D01*
X156308449Y-108796977D01*
X156324574Y-108792531D01*
X156339727Y-108788127D01*
X156353907Y-108783767D01*
X156373351Y-108777306D01*
X156390606Y-108770943D01*
X156400893Y-108766754D01*
X156400893Y-108737078D01*
X156400529Y-108721504D01*
X156399437Y-108706793D01*
X156396850Y-108688521D01*
X156392969Y-108671782D01*
X156387794Y-108656578D01*
X156381325Y-108642908D01*
X156371420Y-108627978D01*
X156359494Y-108615445D01*
X156344882Y-108604996D01*
X156330617Y-108597912D01*
X156314062Y-108591962D01*
X156295217Y-108587145D01*
X156279580Y-108584276D01*
X156262656Y-108582044D01*
X156244444Y-108580450D01*
X156224943Y-108579494D01*
X156204155Y-108579175D01*
X156185356Y-108579662D01*
X156167610Y-108581122D01*
X156150918Y-108583554D01*
X156135279Y-108586961D01*
X156120693Y-108591340D01*
X156103942Y-108598182D01*
X156088836Y-108606545D01*
X156083255Y-108610316D01*
X156070148Y-108621202D01*
X156057846Y-108634395D01*
X156048583Y-108646611D01*
X156039836Y-108660303D01*
X156031605Y-108675473D01*
X156023888Y-108692120D01*
X156016687Y-108710244D01*
X156013279Y-108719859D01*
X155750596Y-108672965D01*
X155756386Y-108653862D01*
X155762675Y-108635389D01*
X155769461Y-108617546D01*
X155776745Y-108600333D01*
X155784528Y-108583749D01*
X155792808Y-108567795D01*
X155801587Y-108552471D01*
X155810863Y-108537776D01*
X155820638Y-108523711D01*
X155830910Y-108510276D01*
X155841681Y-108497470D01*
X155852949Y-108485294D01*
X155864716Y-108473748D01*
X155876980Y-108462832D01*
X155889743Y-108452545D01*
X155903004Y-108442888D01*
X155916968Y-108433837D01*
X155931752Y-108425371D01*
X155947354Y-108417488D01*
X155963774Y-108410190D01*
X155981014Y-108403475D01*
X155999071Y-108397344D01*
X156017948Y-108391797D01*
X156037643Y-108386834D01*
X156058156Y-108382455D01*
X156079488Y-108378660D01*
X156101639Y-108375448D01*
X156124608Y-108372821D01*
X156148396Y-108370777D01*
X156173003Y-108369317D01*
X156198428Y-108368441D01*
X156224672Y-108368149D01*
X156248510Y-108368330D01*
G37*
G36*
X157960139Y-109493621D02*
G01*
X157670711Y-109493621D01*
X157670711Y-108924657D01*
X157670638Y-108902578D01*
X157670419Y-108881494D01*
X157670054Y-108861407D01*
X157669544Y-108842316D01*
X157668887Y-108824221D01*
X157668084Y-108807123D01*
X157667135Y-108791020D01*
X157666040Y-108775913D01*
X157664124Y-108755120D01*
X157661880Y-108736569D01*
X157659307Y-108720258D01*
X157655366Y-108701997D01*
X157652027Y-108690916D01*
X157645730Y-108674897D01*
X157638288Y-108660040D01*
X157629701Y-108646346D01*
X157619970Y-108633815D01*
X157609093Y-108622447D01*
X157597072Y-108612241D01*
X157591943Y-108608484D01*
X157578480Y-108600041D01*
X157564194Y-108593028D01*
X157549085Y-108587447D01*
X157533153Y-108583297D01*
X157516398Y-108580578D01*
X157498821Y-108579290D01*
X157491559Y-108579175D01*
X157472938Y-108579834D01*
X157454808Y-108581809D01*
X157437171Y-108585100D01*
X157420027Y-108589708D01*
X157403374Y-108595633D01*
X157387214Y-108602874D01*
X157371546Y-108611433D01*
X157356371Y-108621307D01*
X157342025Y-108632184D01*
X157328848Y-108643930D01*
X157316838Y-108656547D01*
X157305996Y-108670034D01*
X157296321Y-108684391D01*
X157287815Y-108699618D01*
X157280476Y-108715715D01*
X157274305Y-108732682D01*
X157269153Y-108751830D01*
X157265740Y-108768603D01*
X157262713Y-108787443D01*
X157260073Y-108808351D01*
X157258527Y-108823438D01*
X157257153Y-108839443D01*
X157255951Y-108856367D01*
X157254921Y-108874211D01*
X157254062Y-108892972D01*
X157253375Y-108912653D01*
X157252860Y-108933252D01*
X157252516Y-108954771D01*
X157252345Y-108977208D01*
X157252323Y-108988771D01*
X157252323Y-109493621D01*
X156962896Y-109493621D01*
X156962896Y-108391597D01*
X157231807Y-108391597D01*
X157231807Y-108552431D01*
X157250002Y-108530115D01*
X157268775Y-108509240D01*
X157288127Y-108489804D01*
X157308056Y-108471808D01*
X157328564Y-108455251D01*
X157349650Y-108440134D01*
X157371314Y-108426457D01*
X157393557Y-108414220D01*
X157416377Y-108403422D01*
X157439776Y-108394064D01*
X157463753Y-108386146D01*
X157488308Y-108379667D01*
X157513441Y-108374628D01*
X157539152Y-108371029D01*
X157565442Y-108368869D01*
X157592309Y-108368149D01*
X157610159Y-108368455D01*
X157627712Y-108369373D01*
X157644969Y-108370903D01*
X157661930Y-108373044D01*
X157678595Y-108375797D01*
X157694963Y-108379162D01*
X157711035Y-108383139D01*
X157726811Y-108387727D01*
X157742290Y-108392927D01*
X157757474Y-108398739D01*
X157767431Y-108402954D01*
X157781997Y-108409647D01*
X157795879Y-108416676D01*
X157809079Y-108424039D01*
X157821596Y-108431737D01*
X157837224Y-108442521D01*
X157851638Y-108453902D01*
X157864839Y-108465877D01*
X157876826Y-108478448D01*
X157887599Y-108491614D01*
X157897376Y-108505307D01*
X157906375Y-108519458D01*
X157914595Y-108534067D01*
X157922037Y-108549133D01*
X157928700Y-108564658D01*
X157934585Y-108580641D01*
X157939691Y-108597081D01*
X157944019Y-108613980D01*
X157947797Y-108631943D01*
X157950300Y-108646633D01*
X157952520Y-108662366D01*
X157954456Y-108679142D01*
X157956109Y-108696961D01*
X157957479Y-108715824D01*
X157958565Y-108735730D01*
X157959368Y-108756679D01*
X157959887Y-108778672D01*
X157960076Y-108793913D01*
X157960139Y-108809618D01*
X157960139Y-109493621D01*
G37*
G36*
X159250840Y-109493621D02*
G01*
X158981929Y-109493621D01*
X158981929Y-109332787D01*
X158969146Y-109349947D01*
X158955937Y-109366257D01*
X158942304Y-109381718D01*
X158928245Y-109396328D01*
X158913762Y-109410088D01*
X158898853Y-109422998D01*
X158883519Y-109435058D01*
X158867761Y-109446268D01*
X158851577Y-109456628D01*
X158834968Y-109466137D01*
X158823660Y-109472005D01*
X158806542Y-109480058D01*
X158789399Y-109487319D01*
X158772230Y-109493788D01*
X158755035Y-109499465D01*
X158737814Y-109504350D01*
X158720568Y-109508443D01*
X158703296Y-109511743D01*
X158685998Y-109514251D01*
X158668675Y-109515968D01*
X158651325Y-109516892D01*
X158639745Y-109517068D01*
X158616372Y-109516472D01*
X158593423Y-109514686D01*
X158570897Y-109511710D01*
X158548795Y-109507542D01*
X158527116Y-109502184D01*
X158505862Y-109495636D01*
X158485030Y-109487896D01*
X158464623Y-109478966D01*
X158444639Y-109468845D01*
X158425078Y-109457534D01*
X158405941Y-109445031D01*
X158387228Y-109431339D01*
X158368939Y-109416455D01*
X158351073Y-109400381D01*
X158333630Y-109383116D01*
X158316612Y-109364660D01*
X158300330Y-109345093D01*
X158285098Y-109324583D01*
X158270918Y-109303133D01*
X158257787Y-109280740D01*
X158245707Y-109257406D01*
X158234678Y-109233130D01*
X158224698Y-109207912D01*
X158215770Y-109181753D01*
X158207891Y-109154652D01*
X158201064Y-109126609D01*
X158198044Y-109112235D01*
X158195286Y-109097625D01*
X158192791Y-109082780D01*
X158190559Y-109067699D01*
X158188590Y-109052383D01*
X158186883Y-109036832D01*
X158185438Y-109021045D01*
X158184257Y-109005022D01*
X158183338Y-108988764D01*
X158182681Y-108972271D01*
X158182287Y-108955543D01*
X158182156Y-108938579D01*
X158182280Y-108921726D01*
X158477812Y-108921726D01*
X158478001Y-108944273D01*
X158478567Y-108966027D01*
X158479512Y-108986989D01*
X158480834Y-109007157D01*
X158482534Y-109026533D01*
X158484612Y-109045116D01*
X158487068Y-109062906D01*
X158489902Y-109079904D01*
X158493113Y-109096108D01*
X158496702Y-109111520D01*
X158500669Y-109126139D01*
X158507328Y-109146580D01*
X158514837Y-109165238D01*
X158523197Y-109182112D01*
X158526172Y-109187340D01*
X158535138Y-109201714D01*
X158544542Y-109215161D01*
X158554383Y-109227680D01*
X158564663Y-109239272D01*
X158575381Y-109249937D01*
X158586536Y-109259674D01*
X158604090Y-109272541D01*
X158622630Y-109283322D01*
X158642155Y-109292016D01*
X158662665Y-109298623D01*
X158684161Y-109303144D01*
X158699039Y-109304999D01*
X158714355Y-109305926D01*
X158722177Y-109306042D01*
X158740601Y-109305260D01*
X158758503Y-109302912D01*
X158775883Y-109299000D01*
X158792742Y-109293523D01*
X158809079Y-109286481D01*
X158824895Y-109277873D01*
X158840189Y-109267701D01*
X158854961Y-109255965D01*
X158869212Y-109242663D01*
X158882941Y-109227796D01*
X158891803Y-109217015D01*
X158904374Y-109199547D01*
X158912068Y-109187039D01*
X158919212Y-109173841D01*
X158925807Y-109159954D01*
X158931852Y-109145377D01*
X158937347Y-109130110D01*
X158942293Y-109114153D01*
X158946689Y-109097506D01*
X158950536Y-109080169D01*
X158953833Y-109062143D01*
X158956581Y-109043427D01*
X158958779Y-109024021D01*
X158960428Y-109003926D01*
X158961527Y-108983140D01*
X158962077Y-108961665D01*
X158962145Y-108950669D01*
X158961879Y-108926417D01*
X158961081Y-108903030D01*
X158959750Y-108880507D01*
X158957886Y-108858849D01*
X158955491Y-108838055D01*
X158952563Y-108818125D01*
X158949102Y-108799060D01*
X158945109Y-108780859D01*
X158940584Y-108763522D01*
X158935527Y-108747050D01*
X158929937Y-108731443D01*
X158923814Y-108716699D01*
X158917160Y-108702820D01*
X158909973Y-108689806D01*
X158898194Y-108671905D01*
X158894002Y-108666370D01*
X158880955Y-108650787D01*
X158867233Y-108636737D01*
X158852834Y-108624220D01*
X158837759Y-108613236D01*
X158822008Y-108603784D01*
X158805580Y-108595865D01*
X158788477Y-108589479D01*
X158770697Y-108584625D01*
X158752241Y-108581304D01*
X158733109Y-108579516D01*
X158719979Y-108579175D01*
X158700969Y-108579932D01*
X158682545Y-108582202D01*
X158664707Y-108585986D01*
X158647456Y-108591282D01*
X158630790Y-108598093D01*
X158614710Y-108606416D01*
X158599217Y-108616254D01*
X158584309Y-108627604D01*
X158569988Y-108640468D01*
X158556252Y-108654845D01*
X158547421Y-108665271D01*
X158534981Y-108682092D01*
X158523765Y-108700408D01*
X158516967Y-108713448D01*
X158510713Y-108727152D01*
X158505003Y-108741520D01*
X158499837Y-108756553D01*
X158495214Y-108772249D01*
X158491135Y-108788610D01*
X158487601Y-108805634D01*
X158484610Y-108823323D01*
X158482162Y-108841675D01*
X158480259Y-108860692D01*
X158478899Y-108880373D01*
X158478084Y-108900717D01*
X158477812Y-108921726D01*
X158182280Y-108921726D01*
X158182284Y-108921239D01*
X158182667Y-108904160D01*
X158183305Y-108887344D01*
X158184199Y-108870790D01*
X158185349Y-108854497D01*
X158186754Y-108838467D01*
X158188414Y-108822698D01*
X158190330Y-108807191D01*
X158192502Y-108791946D01*
X158194928Y-108776963D01*
X158197611Y-108762242D01*
X158200548Y-108747783D01*
X158207190Y-108719650D01*
X158214854Y-108692565D01*
X158223539Y-108666527D01*
X158233246Y-108641537D01*
X158243975Y-108617595D01*
X158255726Y-108594700D01*
X158268499Y-108572853D01*
X158282293Y-108552053D01*
X158297110Y-108532301D01*
X158312948Y-108513596D01*
X158329610Y-108495983D01*
X158346808Y-108479507D01*
X158364541Y-108464167D01*
X158382809Y-108449963D01*
X158401612Y-108436896D01*
X158420951Y-108424965D01*
X158440825Y-108414170D01*
X158461234Y-108404511D01*
X158482178Y-108395989D01*
X158503658Y-108388603D01*
X158525672Y-108382353D01*
X158548222Y-108377240D01*
X158571308Y-108373263D01*
X158594928Y-108370422D01*
X158619084Y-108368718D01*
X158643775Y-108368149D01*
X158666525Y-108368745D01*
X158688889Y-108370531D01*
X158710867Y-108373508D01*
X158732458Y-108377675D01*
X158753663Y-108383033D01*
X158774481Y-108389582D01*
X158794913Y-108397321D01*
X158814959Y-108406251D01*
X158834618Y-108416372D01*
X158853890Y-108427684D01*
X158872777Y-108440186D01*
X158891277Y-108453879D01*
X158909390Y-108468762D01*
X158927117Y-108484836D01*
X158944458Y-108502101D01*
X158961413Y-108520557D01*
X158961413Y-107969545D01*
X159250840Y-107969545D01*
X159250840Y-109493621D01*
G37*
G36*
X159427428Y-109188805D02*
G01*
X159717955Y-109141911D01*
X159721790Y-109156682D01*
X159726288Y-109170771D01*
X159733318Y-109188493D01*
X159741527Y-109205003D01*
X159750915Y-109220298D01*
X159761482Y-109234381D01*
X159773229Y-109247249D01*
X159786154Y-109258904D01*
X159793060Y-109264276D01*
X159807966Y-109274065D01*
X159824292Y-109282549D01*
X159842038Y-109289727D01*
X159856279Y-109294255D01*
X159871318Y-109298048D01*
X159887156Y-109301107D01*
X159903793Y-109303432D01*
X159921228Y-109305022D01*
X159939462Y-109305879D01*
X159952062Y-109306042D01*
X159972596Y-109305678D01*
X159992157Y-109304587D01*
X160010746Y-109302767D01*
X160028363Y-109300220D01*
X160045007Y-109296945D01*
X160060679Y-109292943D01*
X160075378Y-109288213D01*
X160089105Y-109282755D01*
X160105895Y-109274346D01*
X160120956Y-109264643D01*
X160133904Y-109253218D01*
X160144174Y-109240377D01*
X160151764Y-109226119D01*
X160156676Y-109210444D01*
X160158909Y-109193352D01*
X160159057Y-109187340D01*
X160157775Y-109171563D01*
X160153928Y-109157207D01*
X160146535Y-109142752D01*
X160138541Y-109132752D01*
X160126507Y-109123916D01*
X160112090Y-109116566D01*
X160097183Y-109110598D01*
X160079647Y-109104773D01*
X160063724Y-109100217D01*
X160046119Y-109095752D01*
X160041454Y-109094650D01*
X160019815Y-109089831D01*
X159998676Y-109085038D01*
X159978038Y-109080271D01*
X159957901Y-109075530D01*
X159938264Y-109070815D01*
X159919129Y-109066125D01*
X159900494Y-109061461D01*
X159882361Y-109056823D01*
X159864728Y-109052210D01*
X159847596Y-109047624D01*
X159830965Y-109043063D01*
X159814835Y-109038527D01*
X159799206Y-109034018D01*
X159784078Y-109029534D01*
X159769450Y-109025076D01*
X159755324Y-109020644D01*
X159728574Y-109011857D01*
X159703827Y-109003173D01*
X159681084Y-108994592D01*
X159660344Y-108986114D01*
X159641608Y-108977740D01*
X159624875Y-108969468D01*
X159610146Y-108961299D01*
X159597421Y-108953233D01*
X159581716Y-108941833D01*
X159567024Y-108929889D01*
X159553346Y-108917401D01*
X159540680Y-108904369D01*
X159529028Y-108890794D01*
X159518389Y-108876675D01*
X159508764Y-108862011D01*
X159500151Y-108846804D01*
X159492552Y-108831054D01*
X159485966Y-108814759D01*
X159480393Y-108797921D01*
X159475834Y-108780538D01*
X159472288Y-108762612D01*
X159469754Y-108744142D01*
X159468235Y-108725129D01*
X159467728Y-108705571D01*
X159468166Y-108687890D01*
X159469480Y-108670566D01*
X159471669Y-108653600D01*
X159474735Y-108636992D01*
X159478676Y-108620742D01*
X159483493Y-108604849D01*
X159489186Y-108589315D01*
X159495755Y-108574138D01*
X159503200Y-108559319D01*
X159511520Y-108544857D01*
X159520716Y-108530754D01*
X159530788Y-108517008D01*
X159541736Y-108503620D01*
X159553560Y-108490590D01*
X159566260Y-108477917D01*
X159579836Y-108465602D01*
X159594377Y-108453801D01*
X159609883Y-108442762D01*
X159626354Y-108432484D01*
X159643789Y-108422967D01*
X159662189Y-108414211D01*
X159681553Y-108406217D01*
X159701882Y-108398984D01*
X159723176Y-108392513D01*
X159745434Y-108386803D01*
X159768656Y-108381854D01*
X159792843Y-108377666D01*
X159817995Y-108374240D01*
X159844112Y-108371576D01*
X159871192Y-108369672D01*
X159899238Y-108368530D01*
X159928248Y-108368149D01*
X159955870Y-108368450D01*
X159982590Y-108369352D01*
X160008409Y-108370854D01*
X160033326Y-108372958D01*
X160057341Y-108375663D01*
X160080455Y-108378969D01*
X160102667Y-108382876D01*
X160123978Y-108387384D01*
X160144387Y-108392493D01*
X160163895Y-108398203D01*
X160182500Y-108404514D01*
X160200205Y-108411426D01*
X160217007Y-108418940D01*
X160232908Y-108427054D01*
X160247908Y-108435769D01*
X160262006Y-108445086D01*
X160275431Y-108454992D01*
X160288321Y-108465476D01*
X160300676Y-108476539D01*
X160312495Y-108488180D01*
X160323780Y-108500398D01*
X160334529Y-108513195D01*
X160344743Y-108526571D01*
X160354421Y-108540524D01*
X160363565Y-108555055D01*
X160372173Y-108570165D01*
X160380246Y-108585853D01*
X160387783Y-108602119D01*
X160394786Y-108618963D01*
X160401253Y-108636385D01*
X160407185Y-108654386D01*
X160412581Y-108672965D01*
X160139274Y-108719859D01*
X160134385Y-108703321D01*
X160128512Y-108687779D01*
X160121654Y-108673234D01*
X160113811Y-108659684D01*
X160104984Y-108647130D01*
X160095173Y-108635572D01*
X160084376Y-108625011D01*
X160072595Y-108615445D01*
X160059761Y-108606945D01*
X160045622Y-108599577D01*
X160030177Y-108593343D01*
X160013428Y-108588243D01*
X159995373Y-108584276D01*
X159976013Y-108581442D01*
X159960636Y-108580061D01*
X159944525Y-108579317D01*
X159933377Y-108579175D01*
X159912515Y-108579455D01*
X159892792Y-108580296D01*
X159874210Y-108581697D01*
X159856767Y-108583658D01*
X159840464Y-108586179D01*
X159825301Y-108589260D01*
X159806857Y-108594241D01*
X159790439Y-108600217D01*
X159776048Y-108607189D01*
X159769612Y-108611049D01*
X159756764Y-108621635D01*
X159747072Y-108633519D01*
X159740536Y-108646700D01*
X159737155Y-108661178D01*
X159736639Y-108670034D01*
X159738448Y-108684848D01*
X159743875Y-108698518D01*
X159752920Y-108711044D01*
X159763802Y-108721064D01*
X159765582Y-108722424D01*
X159778382Y-108730031D01*
X159791919Y-108736226D01*
X159808830Y-108742839D01*
X159829116Y-108749870D01*
X159844515Y-108754790D01*
X159861414Y-108759896D01*
X159879812Y-108765189D01*
X159899710Y-108770667D01*
X159921108Y-108776331D01*
X159944006Y-108782182D01*
X159968403Y-108788218D01*
X159994301Y-108794440D01*
X160021698Y-108800849D01*
X160035959Y-108804123D01*
X160050272Y-108807421D01*
X160078081Y-108814159D01*
X160104803Y-108821085D01*
X160130437Y-108828201D01*
X160154983Y-108835505D01*
X160178442Y-108842998D01*
X160200813Y-108850681D01*
X160222096Y-108858552D01*
X160242292Y-108866612D01*
X160261400Y-108874861D01*
X160279421Y-108883298D01*
X160296354Y-108891925D01*
X160312199Y-108900741D01*
X160326957Y-108909745D01*
X160340627Y-108918939D01*
X160353209Y-108928321D01*
X160359092Y-108933083D01*
X160370050Y-108942986D01*
X160385162Y-108958743D01*
X160398683Y-108975581D01*
X160410613Y-108993502D01*
X160420952Y-109012504D01*
X160429701Y-109032588D01*
X160434650Y-109046579D01*
X160438891Y-109061050D01*
X160442426Y-109076002D01*
X160445254Y-109091436D01*
X160447375Y-109107349D01*
X160448789Y-109123744D01*
X160449496Y-109140620D01*
X160449584Y-109149238D01*
X160449093Y-109167897D01*
X160447621Y-109186229D01*
X160445166Y-109204236D01*
X160441730Y-109221916D01*
X160437313Y-109239269D01*
X160431913Y-109256297D01*
X160425532Y-109272998D01*
X160418169Y-109289372D01*
X160409824Y-109305421D01*
X160400497Y-109321143D01*
X160390189Y-109336539D01*
X160378899Y-109351609D01*
X160366627Y-109366352D01*
X160353374Y-109380769D01*
X160339138Y-109394860D01*
X160323921Y-109408624D01*
X160307743Y-109421756D01*
X160290622Y-109434041D01*
X160272560Y-109445478D01*
X160253557Y-109456068D01*
X160233611Y-109465811D01*
X160212724Y-109474707D01*
X160190895Y-109482756D01*
X160168125Y-109489957D01*
X160144413Y-109496311D01*
X160119759Y-109501818D01*
X160094164Y-109506478D01*
X160067627Y-109510290D01*
X160040148Y-109513255D01*
X160011727Y-109515373D01*
X159982365Y-109516644D01*
X159967331Y-109516962D01*
X159952062Y-109517068D01*
X159924445Y-109516723D01*
X159897559Y-109515688D01*
X159871403Y-109513964D01*
X159845976Y-109511549D01*
X159821280Y-109508445D01*
X159797313Y-109504651D01*
X159774076Y-109500168D01*
X159751569Y-109494994D01*
X159729792Y-109489131D01*
X159708744Y-109482578D01*
X159688427Y-109475335D01*
X159668839Y-109467403D01*
X159649981Y-109458780D01*
X159631854Y-109449468D01*
X159614456Y-109439466D01*
X159597787Y-109428774D01*
X159581881Y-109417490D01*
X159566675Y-109405710D01*
X159552171Y-109393436D01*
X159538368Y-109380666D01*
X159525266Y-109367401D01*
X159512865Y-109353641D01*
X159501166Y-109339385D01*
X159490168Y-109324635D01*
X159479871Y-109309389D01*
X159470275Y-109293649D01*
X159461381Y-109277413D01*
X159453188Y-109260682D01*
X159445696Y-109243455D01*
X159438905Y-109225734D01*
X159432816Y-109207517D01*
X159427428Y-109188805D01*
G37*
D12*
%TO.C,TP1*%
X164310000Y-97348621D02*
X165710000Y-97348621D01*
X164310000Y-98748621D02*
X164310000Y-97348621D01*
X165710000Y-97348621D02*
X165710000Y-98748621D01*
X165710000Y-98748621D02*
X164310000Y-98748621D01*
%TO.C,D2*%
X142025000Y-96721121D02*
X144295000Y-96721121D01*
X144295000Y-96721121D02*
X144295000Y-92661121D01*
X142025000Y-92661121D02*
X142025000Y-96721121D01*
%TO.C,J10*%
X130930000Y-94368621D02*
X131990000Y-94368621D01*
X130930000Y-95428621D02*
X130930000Y-94368621D01*
X130930000Y-96428621D02*
X130930000Y-98488621D01*
X130930000Y-96428621D02*
X133050000Y-96428621D01*
X130930000Y-98488621D02*
X133050000Y-98488621D01*
X133050000Y-96428621D02*
X133050000Y-98488621D01*
%TO.C,J1*%
X142480000Y-87795599D02*
X142480000Y-86465599D01*
X143810000Y-87795599D02*
X142480000Y-87795599D01*
X145080000Y-87795599D02*
X157840000Y-87795599D01*
X145080000Y-87795599D02*
X145080000Y-85195599D01*
X157840000Y-87795599D02*
X157840000Y-82595599D01*
X142480000Y-85195599D02*
X142480000Y-82595599D01*
X145080000Y-85195599D02*
X142480000Y-85195599D01*
X142480000Y-82595599D02*
X157840000Y-82595599D01*
D13*
%TO.C,S1*%
X140540000Y-94079610D02*
X140540000Y-106929610D01*
X138990000Y-94079610D02*
X140540000Y-94079610D01*
X133940000Y-94079610D02*
X135490000Y-94079610D01*
X140540000Y-106929610D02*
X138990000Y-106929610D01*
X135490000Y-106929610D02*
X133940000Y-106929610D01*
X133940000Y-106929610D02*
X133940000Y-94079610D01*
D10*
X137440000Y-93204610D02*
G75*
G03*
X137440000Y-93204610I-100000J0D01*
G01*
D12*
%TO.C,D1*%
X165570000Y-102983621D02*
X165570000Y-100713621D01*
X165570000Y-100713621D02*
X161510000Y-100713621D01*
X161510000Y-102983621D02*
X165570000Y-102983621D01*
%TO.C,J2*%
X157840000Y-112413621D02*
X157840000Y-113743621D01*
X156510000Y-112413621D02*
X157840000Y-112413621D01*
X155240000Y-112413621D02*
X142480000Y-112413621D01*
X155240000Y-112413621D02*
X155240000Y-115013621D01*
X142480000Y-112413621D02*
X142480000Y-117613621D01*
X157840000Y-115013621D02*
X157840000Y-117613621D01*
X155240000Y-115013621D02*
X157840000Y-115013621D01*
X157840000Y-117613621D02*
X142480000Y-117613621D01*
%TO.C,TP4*%
X140210000Y-88048621D02*
X141610000Y-88048621D01*
X140210000Y-89448621D02*
X140210000Y-88048621D01*
X141610000Y-88048621D02*
X141610000Y-89448621D01*
X141610000Y-89448621D02*
X140210000Y-89448621D01*
%TO.C,TP3*%
X137010000Y-88048621D02*
X138410000Y-88048621D01*
X137010000Y-89448621D02*
X137010000Y-88048621D01*
X138410000Y-88048621D02*
X138410000Y-89448621D01*
X138410000Y-89448621D02*
X137010000Y-89448621D01*
%TO.C,TP2*%
X164310000Y-94298621D02*
X165710000Y-94298621D01*
X164310000Y-95698621D02*
X164310000Y-94298621D01*
X165710000Y-94298621D02*
X165710000Y-95698621D01*
X165710000Y-95698621D02*
X164310000Y-95698621D01*
%TO.C,J3*%
X142480000Y-102703621D02*
X142480000Y-101373621D01*
X143810000Y-102703621D02*
X142480000Y-102703621D01*
X145080000Y-102703621D02*
X157840000Y-102703621D01*
X145080000Y-102703621D02*
X145080000Y-100103621D01*
X157840000Y-102703621D02*
X157840000Y-97503621D01*
X142480000Y-100103621D02*
X142480000Y-97503621D01*
X145080000Y-100103621D02*
X142480000Y-100103621D01*
X142480000Y-97503621D02*
X157840000Y-97503621D01*
%TD*%
M02*
