%TF.GenerationSoftware,KiCad,Pcbnew,7.0.5*%
%TF.CreationDate,2024-01-17T11:16:35-05:00*%
%TF.ProjectId,PWR,5057522e-6b69-4636-9164-5f7063625858,rev?*%
%TF.SameCoordinates,Original*%
%TF.FileFunction,Soldermask,Top*%
%TF.FilePolarity,Negative*%
%FSLAX46Y46*%
G04 Gerber Fmt 4.6, Leading zero omitted, Abs format (unit mm)*
G04 Created by KiCad (PCBNEW 7.0.5) date 2024-01-17 11:16:35*
%MOMM*%
%LPD*%
G01*
G04 APERTURE LIST*
G04 Aperture macros list*
%AMRoundRect*
0 Rectangle with rounded corners*
0 $1 Rounding radius*
0 $2 $3 $4 $5 $6 $7 $8 $9 X,Y pos of 4 corners*
0 Add a 4 corners polygon primitive as box body*
4,1,4,$2,$3,$4,$5,$6,$7,$8,$9,$2,$3,0*
0 Add four circle primitives for the rounded corners*
1,1,$1+$1,$2,$3*
1,1,$1+$1,$4,$5*
1,1,$1+$1,$6,$7*
1,1,$1+$1,$8,$9*
0 Add four rect primitives between the rounded corners*
20,1,$1+$1,$2,$3,$4,$5,0*
20,1,$1+$1,$4,$5,$6,$7,0*
20,1,$1+$1,$6,$7,$8,$9,0*
20,1,$1+$1,$8,$9,$2,$3,0*%
%AMHorizOval*
0 Thick line with rounded ends*
0 $1 width*
0 $2 $3 position (X,Y) of the first rounded end (center of the circle)*
0 $4 $5 position (X,Y) of the second rounded end (center of the circle)*
0 Add line between two ends*
20,1,$1,$2,$3,$4,$5,0*
0 Add two circle primitives to create the rounded ends*
1,1,$1,$2,$3*
1,1,$1,$4,$5*%
G04 Aperture macros list end*
%ADD10RoundRect,0.250000X-0.021891X0.737917X-0.628109X0.387917X0.021891X-0.737917X0.628109X-0.387917X0*%
%ADD11HorizOval,1.200000X-0.150000X0.259808X0.150000X-0.259808X0*%
%ADD12R,1.700000X1.700000*%
%ADD13O,1.700000X1.700000*%
%ADD14RoundRect,0.237500X-0.237500X0.250000X-0.237500X-0.250000X0.237500X-0.250000X0.237500X0.250000X0*%
%ADD15RoundRect,0.250000X-0.650000X0.350000X-0.650000X-0.350000X0.650000X-0.350000X0.650000X0.350000X0*%
%ADD16O,1.800000X1.200000*%
%ADD17RoundRect,0.237500X0.237500X-0.300000X0.237500X0.300000X-0.237500X0.300000X-0.237500X-0.300000X0*%
%ADD18RoundRect,0.250000X-0.628109X-0.387917X-0.021891X-0.737917X0.628109X0.387917X0.021891X0.737917X0*%
%ADD19HorizOval,1.200000X-0.150000X-0.259808X0.150000X0.259808X0*%
%ADD20RoundRect,0.155000X0.212500X0.155000X-0.212500X0.155000X-0.212500X-0.155000X0.212500X-0.155000X0*%
%ADD21RoundRect,0.237500X-0.250000X-0.237500X0.250000X-0.237500X0.250000X0.237500X-0.250000X0.237500X0*%
%ADD22RoundRect,0.237500X0.250000X0.237500X-0.250000X0.237500X-0.250000X-0.237500X0.250000X-0.237500X0*%
%ADD23RoundRect,0.250000X0.650000X-0.350000X0.650000X0.350000X-0.650000X0.350000X-0.650000X-0.350000X0*%
%ADD24R,3.900000X2.200000*%
%ADD25RoundRect,0.237500X0.237500X-0.250000X0.237500X0.250000X-0.237500X0.250000X-0.237500X-0.250000X0*%
%ADD26RoundRect,0.250000X0.021891X-0.737917X0.628109X-0.387917X-0.021891X0.737917X-0.628109X0.387917X0*%
%ADD27RoundRect,0.062500X-0.062500X0.375000X-0.062500X-0.375000X0.062500X-0.375000X0.062500X0.375000X0*%
%ADD28RoundRect,0.062500X-0.375000X0.062500X-0.375000X-0.062500X0.375000X-0.062500X0.375000X0.062500X0*%
%ADD29R,2.000000X2.000000*%
%ADD30RoundRect,0.237500X-0.237500X0.300000X-0.237500X-0.300000X0.237500X-0.300000X0.237500X0.300000X0*%
%ADD31R,3.400000X1.300000*%
%ADD32RoundRect,0.155000X-0.155000X0.212500X-0.155000X-0.212500X0.155000X-0.212500X0.155000X0.212500X0*%
%ADD33RoundRect,0.237500X-0.300000X-0.237500X0.300000X-0.237500X0.300000X0.237500X-0.300000X0.237500X0*%
%ADD34RoundRect,0.150000X-0.512500X-0.150000X0.512500X-0.150000X0.512500X0.150000X-0.512500X0.150000X0*%
%ADD35RoundRect,0.237500X-0.287500X-0.237500X0.287500X-0.237500X0.287500X0.237500X-0.287500X0.237500X0*%
%ADD36RoundRect,0.250000X0.475000X-0.337500X0.475000X0.337500X-0.475000X0.337500X-0.475000X-0.337500X0*%
%ADD37RoundRect,0.250000X0.628109X0.387917X0.021891X0.737917X-0.628109X-0.387917X-0.021891X-0.737917X0*%
%ADD38HorizOval,1.200000X0.150000X0.259808X-0.150000X-0.259808X0*%
%ADD39RoundRect,0.237500X0.300000X0.237500X-0.300000X0.237500X-0.300000X-0.237500X0.300000X-0.237500X0*%
%ADD40R,1.350000X1.350000*%
%ADD41O,1.350000X1.350000*%
G04 APERTURE END LIST*
D10*
%TO.C,J4*%
X160607050Y-108212916D03*
D11*
X158874999Y-109212916D03*
%TD*%
D12*
%TO.C,J5*%
X140650000Y-81766978D03*
D13*
X140650000Y-79226978D03*
X143190000Y-81766978D03*
X143190000Y-79226978D03*
X145730000Y-81766978D03*
X145730000Y-79226978D03*
X148270000Y-81766978D03*
X148270000Y-79226978D03*
X150810000Y-81766978D03*
X150810000Y-79226978D03*
X153350000Y-81766978D03*
X153350000Y-79226978D03*
%TD*%
D14*
%TO.C,R15*%
X157840000Y-88897500D03*
X157840000Y-90722500D03*
%TD*%
D15*
%TO.C,J8*%
X161850000Y-94400000D03*
D16*
X161850000Y-96400000D03*
%TD*%
D17*
%TO.C,C4*%
X153730000Y-94252500D03*
X153730000Y-92527500D03*
%TD*%
D18*
%TO.C,J7*%
X158846475Y-81568542D03*
D19*
X160578526Y-82568542D03*
%TD*%
D20*
%TO.C,C13*%
X157850000Y-95620000D03*
X156715000Y-95620000D03*
%TD*%
D21*
%TO.C,R13*%
X136537500Y-89042500D03*
X138362500Y-89042500D03*
%TD*%
D22*
%TO.C,R16*%
X155560000Y-90705000D03*
X153735000Y-90705000D03*
%TD*%
D23*
%TO.C,J10*%
X132150000Y-96400000D03*
D16*
X132150000Y-94400000D03*
%TD*%
D21*
%TO.C,R12*%
X136537500Y-90742500D03*
X138362500Y-90742500D03*
%TD*%
D24*
%TO.C,L2*%
X149900000Y-90188220D03*
X149900000Y-93988220D03*
%TD*%
D25*
%TO.C,R11*%
X143274280Y-104400720D03*
X143274280Y-102575720D03*
%TD*%
D26*
%TO.C,J9*%
X133421475Y-82568542D03*
D11*
X135153526Y-81568542D03*
%TD*%
D27*
%TO.C,U2*%
X144850000Y-95205000D03*
X144350000Y-95205000D03*
X143850000Y-95205000D03*
X143350000Y-95205000D03*
X142850000Y-95205000D03*
D28*
X142162500Y-95892500D03*
X142162500Y-96392500D03*
X142162500Y-96892500D03*
X142162500Y-97392500D03*
X142162500Y-97892500D03*
D27*
X142850000Y-98580000D03*
X143350000Y-98580000D03*
X143850000Y-98580000D03*
X144350000Y-98580000D03*
X144850000Y-98580000D03*
D28*
X145537500Y-97892500D03*
X145537500Y-97392500D03*
X145537500Y-96892500D03*
X145537500Y-96392500D03*
X145537500Y-95892500D03*
D29*
X143850000Y-96892500D03*
%TD*%
D30*
%TO.C,C3*%
X150610000Y-96430000D03*
X150610000Y-98155000D03*
%TD*%
D21*
%TO.C,R10*%
X136537500Y-98702500D03*
X138362500Y-98702500D03*
%TD*%
%TO.C,R14*%
X136537500Y-100402500D03*
X138362500Y-100402500D03*
%TD*%
D31*
%TO.C,L1*%
X150014280Y-101950000D03*
X150014280Y-104050000D03*
%TD*%
D12*
%TO.C,J6*%
X153350000Y-109045000D03*
D13*
X153350000Y-111585000D03*
X150810000Y-109045000D03*
X150810000Y-111585000D03*
X148270000Y-109045000D03*
X148270000Y-111585000D03*
X145730000Y-109045000D03*
X145730000Y-111585000D03*
X143190000Y-109045000D03*
X143190000Y-111585000D03*
X140650000Y-109045000D03*
X140650000Y-111585000D03*
%TD*%
D32*
%TO.C,C2*%
X149100000Y-96375000D03*
X149100000Y-97510000D03*
%TD*%
D33*
%TO.C,C5*%
X142237500Y-84450000D03*
X143962500Y-84450000D03*
%TD*%
D34*
%TO.C,U4*%
X155575000Y-92360000D03*
X155575000Y-93310000D03*
X155575000Y-94260000D03*
X157850000Y-94260000D03*
X157850000Y-92360000D03*
%TD*%
D35*
%TO.C,D1*%
X153795000Y-89070000D03*
X155545000Y-89070000D03*
%TD*%
D21*
%TO.C,R9*%
X136541780Y-93648220D03*
X138366780Y-93648220D03*
%TD*%
D36*
%TO.C,C6*%
X153230000Y-104037500D03*
X153230000Y-101962500D03*
%TD*%
D22*
%TO.C,R1*%
X144012500Y-86000000D03*
X142187500Y-86000000D03*
%TD*%
D37*
%TO.C,J1*%
X135153525Y-109231458D03*
D38*
X133421474Y-108231458D03*
%TD*%
D22*
%TO.C,R6*%
X138356780Y-95338220D03*
X136531780Y-95338220D03*
%TD*%
D20*
%TO.C,C8*%
X138017500Y-92172500D03*
X136882500Y-92172500D03*
%TD*%
D39*
%TO.C,C7*%
X146486780Y-90168220D03*
X144761780Y-90168220D03*
%TD*%
D40*
%TO.C,J2*%
X128490000Y-89500000D03*
D41*
X128490000Y-91500000D03*
%TD*%
D21*
%TO.C,R7*%
X136537500Y-97002500D03*
X138362500Y-97002500D03*
%TD*%
D40*
%TO.C,J3*%
X128480000Y-94590000D03*
D41*
X128480000Y-96590000D03*
%TD*%
D22*
%TO.C,R8*%
X141706780Y-102558220D03*
X139881780Y-102558220D03*
%TD*%
M02*
