%TF.GenerationSoftware,KiCad,Pcbnew,7.0.5*%
%TF.CreationDate,2024-01-17T11:16:35-05:00*%
%TF.ProjectId,PWR,5057522e-6b69-4636-9164-5f7063625858,rev?*%
%TF.SameCoordinates,Original*%
%TF.FileFunction,Copper,L2,Bot*%
%TF.FilePolarity,Positive*%
%FSLAX46Y46*%
G04 Gerber Fmt 4.6, Leading zero omitted, Abs format (unit mm)*
G04 Created by KiCad (PCBNEW 7.0.5) date 2024-01-17 11:16:35*
%MOMM*%
%LPD*%
G01*
G04 APERTURE LIST*
G04 Aperture macros list*
%AMRoundRect*
0 Rectangle with rounded corners*
0 $1 Rounding radius*
0 $2 $3 $4 $5 $6 $7 $8 $9 X,Y pos of 4 corners*
0 Add a 4 corners polygon primitive as box body*
4,1,4,$2,$3,$4,$5,$6,$7,$8,$9,$2,$3,0*
0 Add four circle primitives for the rounded corners*
1,1,$1+$1,$2,$3*
1,1,$1+$1,$4,$5*
1,1,$1+$1,$6,$7*
1,1,$1+$1,$8,$9*
0 Add four rect primitives between the rounded corners*
20,1,$1+$1,$2,$3,$4,$5,0*
20,1,$1+$1,$4,$5,$6,$7,0*
20,1,$1+$1,$6,$7,$8,$9,0*
20,1,$1+$1,$8,$9,$2,$3,0*%
%AMHorizOval*
0 Thick line with rounded ends*
0 $1 width*
0 $2 $3 position (X,Y) of the first rounded end (center of the circle)*
0 $4 $5 position (X,Y) of the second rounded end (center of the circle)*
0 Add line between two ends*
20,1,$1,$2,$3,$4,$5,0*
0 Add two circle primitives to create the rounded ends*
1,1,$1,$2,$3*
1,1,$1,$4,$5*%
G04 Aperture macros list end*
%TA.AperFunction,ComponentPad*%
%ADD10RoundRect,0.250000X-0.021891X0.737917X-0.628109X0.387917X0.021891X-0.737917X0.628109X-0.387917X0*%
%TD*%
%TA.AperFunction,ComponentPad*%
%ADD11HorizOval,1.200000X-0.150000X0.259808X0.150000X-0.259808X0*%
%TD*%
%TA.AperFunction,ComponentPad*%
%ADD12R,1.700000X1.700000*%
%TD*%
%TA.AperFunction,ComponentPad*%
%ADD13O,1.700000X1.700000*%
%TD*%
%TA.AperFunction,ComponentPad*%
%ADD14RoundRect,0.250000X-0.650000X0.350000X-0.650000X-0.350000X0.650000X-0.350000X0.650000X0.350000X0*%
%TD*%
%TA.AperFunction,ComponentPad*%
%ADD15O,1.800000X1.200000*%
%TD*%
%TA.AperFunction,ComponentPad*%
%ADD16RoundRect,0.250000X-0.628109X-0.387917X-0.021891X-0.737917X0.628109X0.387917X0.021891X0.737917X0*%
%TD*%
%TA.AperFunction,ComponentPad*%
%ADD17HorizOval,1.200000X-0.150000X-0.259808X0.150000X0.259808X0*%
%TD*%
%TA.AperFunction,ComponentPad*%
%ADD18RoundRect,0.250000X0.650000X-0.350000X0.650000X0.350000X-0.650000X0.350000X-0.650000X-0.350000X0*%
%TD*%
%TA.AperFunction,ComponentPad*%
%ADD19RoundRect,0.250000X0.021891X-0.737917X0.628109X-0.387917X-0.021891X0.737917X-0.628109X0.387917X0*%
%TD*%
%TA.AperFunction,ComponentPad*%
%ADD20RoundRect,0.250000X0.628109X0.387917X0.021891X0.737917X-0.628109X-0.387917X-0.021891X-0.737917X0*%
%TD*%
%TA.AperFunction,ComponentPad*%
%ADD21HorizOval,1.200000X0.150000X0.259808X-0.150000X-0.259808X0*%
%TD*%
%TA.AperFunction,ComponentPad*%
%ADD22R,1.350000X1.350000*%
%TD*%
%TA.AperFunction,ComponentPad*%
%ADD23O,1.350000X1.350000*%
%TD*%
%TA.AperFunction,SMDPad,CuDef*%
%ADD24RoundRect,0.237500X-0.237500X0.250000X-0.237500X-0.250000X0.237500X-0.250000X0.237500X0.250000X0*%
%TD*%
%TA.AperFunction,ViaPad*%
%ADD25C,0.660400*%
%TD*%
%TA.AperFunction,ViaPad*%
%ADD26C,1.016000*%
%TD*%
%TA.AperFunction,ViaPad*%
%ADD27C,0.800000*%
%TD*%
%TA.AperFunction,Conductor*%
%ADD28C,0.762000*%
%TD*%
%TA.AperFunction,Conductor*%
%ADD29C,0.254000*%
%TD*%
%TA.AperFunction,Conductor*%
%ADD30C,1.016000*%
%TD*%
%TA.AperFunction,Conductor*%
%ADD31C,0.508000*%
%TD*%
%TA.AperFunction,Conductor*%
%ADD32C,0.152400*%
%TD*%
G04 APERTURE END LIST*
D10*
%TO.P,J4,1,Pin_1*%
%TO.N,/SC*%
X160607050Y-108212916D03*
D11*
%TO.P,J4,2,Pin_2*%
%TO.N,GND*%
X158874999Y-109212916D03*
%TD*%
D12*
%TO.P,J5,1,Pin_1*%
%TO.N,/VBAT*%
X140650000Y-81766978D03*
D13*
%TO.P,J5,2,Pin_2*%
%TO.N,/D8*%
X140650000Y-79226978D03*
%TO.P,J5,3,Pin_3*%
%TO.N,/A5*%
X143190000Y-81766978D03*
%TO.P,J5,4,Pin_4*%
%TO.N,/A3*%
X143190000Y-79226978D03*
%TO.P,J5,5,Pin_5*%
%TO.N,+5V*%
X145730000Y-81766978D03*
%TO.P,J5,6,Pin_6*%
%TO.N,/A2*%
X145730000Y-79226978D03*
%TO.P,J5,7,Pin_7*%
%TO.N,/RXD*%
X148270000Y-81766978D03*
%TO.P,J5,8,Pin_8*%
%TO.N,GND*%
X148270000Y-79226978D03*
%TO.P,J5,9,Pin_9*%
%TO.N,/TXD*%
X150810000Y-81766978D03*
%TO.P,J5,10,Pin_10*%
%TO.N,GND*%
X150810000Y-79226978D03*
%TO.P,J5,11,Pin_11*%
%TO.N,/SDA*%
X153350000Y-81766978D03*
%TO.P,J5,12,Pin_12*%
%TO.N,/SCL*%
X153350000Y-79226978D03*
%TD*%
D14*
%TO.P,J8,1,Pin_1*%
%TO.N,/SC*%
X161850000Y-94400000D03*
D15*
%TO.P,J8,2,Pin_2*%
%TO.N,GND*%
X161850000Y-96400000D03*
%TD*%
D16*
%TO.P,J7,1,Pin_1*%
%TO.N,/SC*%
X158846475Y-81568542D03*
D17*
%TO.P,J7,2,Pin_2*%
%TO.N,GND*%
X160578526Y-82568542D03*
%TD*%
D18*
%TO.P,J10,1,Pin_1*%
%TO.N,/SC*%
X132150000Y-96400000D03*
D15*
%TO.P,J10,2,Pin_2*%
%TO.N,GND*%
X132150000Y-94400000D03*
%TD*%
D19*
%TO.P,J9,1,Pin_1*%
%TO.N,/SC*%
X133421475Y-82568542D03*
D11*
%TO.P,J9,2,Pin_2*%
%TO.N,GND*%
X135153526Y-81568542D03*
%TD*%
D12*
%TO.P,J6,1,Pin_1*%
%TO.N,/D12*%
X153350000Y-109045000D03*
D13*
%TO.P,J6,2,Pin_2*%
%TO.N,/D10*%
X153350000Y-111585000D03*
%TO.P,J6,3,Pin_3*%
%TO.N,/MOSI*%
X150810000Y-109045000D03*
%TO.P,J6,4,Pin_4*%
%TO.N,/D1*%
X150810000Y-111585000D03*
%TO.P,J6,5,Pin_5*%
%TO.N,/SCK*%
X148270000Y-109045000D03*
%TO.P,J6,6,Pin_6*%
%TO.N,/D3*%
X148270000Y-111585000D03*
%TO.P,J6,7,Pin_7*%
%TO.N,/D2*%
X145730000Y-109045000D03*
%TO.P,J6,8,Pin_8*%
%TO.N,/A4*%
X145730000Y-111585000D03*
%TO.P,J6,9,Pin_9*%
%TO.N,/MISO*%
X143190000Y-109045000D03*
%TO.P,J6,10,Pin_10*%
%TO.N,GND*%
X143190000Y-111585000D03*
%TO.P,J6,11,Pin_11*%
%TO.N,/D4*%
X140650000Y-109045000D03*
%TO.P,J6,12,Pin_12*%
%TO.N,GND*%
X140650000Y-111585000D03*
%TD*%
D20*
%TO.P,J1,1,Pin_1*%
%TO.N,/SC*%
X135153525Y-109231458D03*
D21*
%TO.P,J1,2,Pin_2*%
%TO.N,GND*%
X133421474Y-108231458D03*
%TD*%
D22*
%TO.P,J2,1,Pin_1*%
%TO.N,/VBAT*%
X128490000Y-89500000D03*
D23*
%TO.P,J2,2,Pin_2*%
%TO.N,/BATTERY*%
X128490000Y-91500000D03*
%TD*%
D22*
%TO.P,J3,1,Pin_1*%
%TO.N,/BATTERY*%
X128480000Y-94590000D03*
D23*
%TO.P,J3,2,Pin_2*%
%TO.N,GND*%
X128480000Y-96590000D03*
%TD*%
D24*
%TO.P,R2,1*%
%TO.N,/A3*%
X145770000Y-85147500D03*
%TO.P,R2,2*%
%TO.N,/VBAT_OK_t*%
X145770000Y-86972500D03*
%TD*%
D25*
%TO.N,GND*%
X162000000Y-102500000D03*
X157500000Y-99000000D03*
X152500000Y-84500000D03*
X140000000Y-84500000D03*
X131500000Y-86500000D03*
X150500000Y-84500000D03*
X143264280Y-96318220D03*
X155500000Y-104500000D03*
X137000000Y-84500000D03*
X162500000Y-86000000D03*
X148500000Y-84500000D03*
X136500000Y-87500000D03*
X160500000Y-90000000D03*
X155000000Y-101000000D03*
X143264280Y-97392500D03*
X162000000Y-100000000D03*
X163000000Y-107500000D03*
X157500000Y-101000000D03*
X164500000Y-102500000D03*
X140000000Y-87500000D03*
X159500000Y-89000000D03*
X165500000Y-88000000D03*
X131500000Y-105000000D03*
X132500000Y-103000000D03*
X145000000Y-114500000D03*
X137500000Y-79500000D03*
X135500000Y-84000000D03*
X156500000Y-109000000D03*
X160500000Y-85000000D03*
X144420000Y-97392500D03*
X163500000Y-88000000D03*
X143264280Y-104398220D03*
X137500000Y-82500000D03*
X157500000Y-103000000D03*
X162500000Y-83500000D03*
X142500000Y-114500000D03*
X156500000Y-111500000D03*
X133500000Y-104500000D03*
X155000000Y-99000000D03*
X157500000Y-104500000D03*
X148500000Y-114500000D03*
X144409280Y-96333220D03*
X159500000Y-91000000D03*
X135000000Y-106000000D03*
X138000000Y-111500000D03*
X151000000Y-114500000D03*
X131500000Y-84000000D03*
X131500000Y-91000000D03*
X149000000Y-87500000D03*
X150000000Y-92000000D03*
D26*
%TO.N,/VBAT*%
X150520000Y-86100000D03*
X153725000Y-94240000D03*
D27*
%TO.N,Net-(U2-VOC_SAMP)*%
X146980000Y-96392500D03*
X144614280Y-92298220D03*
D25*
%TO.N,+5V*%
X157850000Y-95620000D03*
D27*
%TO.N,/VOUT_EN*%
X140580000Y-93232500D03*
X138362500Y-90742500D03*
D25*
%TO.N,Net-(U2-VRDIV)*%
X139881780Y-102558220D03*
X140304280Y-97098220D03*
D27*
%TO.N,/D8*%
X142200000Y-93652500D03*
X138362500Y-89042500D03*
%TO.N,/VBAT_OK_t*%
X143230000Y-100912500D03*
%TD*%
D28*
%TO.N,/VBAT*%
X151900000Y-86100000D02*
X150520000Y-86100000D01*
X153725000Y-87925000D02*
X151900000Y-86100000D01*
X153725000Y-94240000D02*
X153725000Y-87925000D01*
D29*
%TO.N,Net-(U2-VOC_SAMP)*%
X146980000Y-93128220D02*
X146150000Y-92298220D01*
X146980000Y-96392500D02*
X146980000Y-93128220D01*
X146150000Y-92298220D02*
X144614280Y-92298220D01*
D30*
%TO.N,/SC*%
X161850000Y-94400000D02*
X161567525Y-94400000D01*
X135100000Y-91350000D02*
X135100000Y-94800000D01*
X133421475Y-82568542D02*
X133421475Y-89671475D01*
X132125000Y-99940017D02*
X138284983Y-106100000D01*
X160607050Y-108212916D02*
X159122067Y-106727933D01*
X159500000Y-96467525D02*
X159500000Y-105094134D01*
X133500000Y-96400000D02*
X132125000Y-96400000D01*
X135100000Y-94800000D02*
X133500000Y-96400000D01*
X133421475Y-89671475D02*
X135100000Y-91350000D01*
X132125000Y-96400000D02*
X132125000Y-99940017D01*
X138284983Y-106100000D02*
X158494134Y-106100000D01*
X158494134Y-106100000D02*
X159122067Y-106727933D01*
X135153525Y-109231458D02*
X138284983Y-106100000D01*
X161567525Y-94400000D02*
X159500000Y-96467525D01*
X159500000Y-105094134D02*
X158494134Y-106100000D01*
D31*
%TO.N,+5V*%
X147206511Y-83243489D02*
X145730000Y-81766978D01*
X147206511Y-83243489D02*
X147463022Y-83500000D01*
X157850000Y-86760000D02*
X157270000Y-86180000D01*
X147463022Y-83500000D02*
X154590000Y-83500000D01*
X157850000Y-95620000D02*
X157850000Y-86760000D01*
X154590000Y-83500000D02*
X157270000Y-86180000D01*
D29*
%TO.N,/VOUT_EN*%
X140580000Y-93232500D02*
X140580000Y-91328220D01*
X138362500Y-90742500D02*
X139994280Y-90742500D01*
X140580000Y-91328220D02*
X139994280Y-90742500D01*
%TO.N,Net-(U2-VRDIV)*%
X140304280Y-97098220D02*
X140304280Y-102135720D01*
X140304280Y-102135720D02*
X139881780Y-102558220D01*
%TO.N,/D8*%
X139000000Y-83100000D02*
X139000000Y-80876978D01*
X140394280Y-89042500D02*
X142200000Y-90848220D01*
X142200000Y-90848220D02*
X142200000Y-93652500D01*
X138362500Y-89042500D02*
X140394280Y-89042500D01*
X139000000Y-80876978D02*
X140650000Y-79226978D01*
X138362500Y-83737500D02*
X139000000Y-83100000D01*
X138362500Y-89042500D02*
X138362500Y-83737500D01*
D32*
%TO.N,/A3*%
X144470000Y-80506978D02*
X143190000Y-79226978D01*
X144470000Y-82570000D02*
X144470000Y-80506978D01*
X145770000Y-83870000D02*
X144470000Y-82570000D01*
X145770000Y-85147500D02*
X145770000Y-83870000D01*
%TO.N,/VBAT_OK_t*%
X145770000Y-86972500D02*
X145770000Y-88400000D01*
X143320000Y-90850000D02*
X143320000Y-94330000D01*
X141500000Y-96150000D02*
X141500000Y-99930000D01*
X145770000Y-88400000D02*
X143320000Y-90850000D01*
X143320000Y-94330000D02*
X141500000Y-96150000D01*
X142482500Y-100912500D02*
X143230000Y-100912500D01*
X141500000Y-99930000D02*
X142482500Y-100912500D01*
%TD*%
%TA.AperFunction,Conductor*%
%TO.N,GND*%
G36*
X147043946Y-72689881D02*
G01*
X166650750Y-84009873D01*
X166689399Y-84055933D01*
X166694700Y-84085997D01*
X166694700Y-106725978D01*
X166674135Y-106782479D01*
X166650750Y-106802102D01*
X147043949Y-118122094D01*
X146984735Y-118132535D01*
X146956049Y-118122094D01*
X145978254Y-117557564D01*
X143610602Y-116190599D01*
X145589884Y-116190599D01*
X145609115Y-116422695D01*
X145609116Y-116422701D01*
X145666286Y-116648459D01*
X145666289Y-116648467D01*
X145737987Y-116811920D01*
X145759840Y-116861740D01*
X145759844Y-116861746D01*
X145887215Y-117056704D01*
X145887216Y-117056706D01*
X145887220Y-117056710D01*
X146044954Y-117228055D01*
X146228740Y-117371101D01*
X146433563Y-117481946D01*
X146653837Y-117557566D01*
X146653839Y-117557566D01*
X146653841Y-117557567D01*
X146883550Y-117595899D01*
X146883554Y-117595899D01*
X147116450Y-117595899D01*
X147346158Y-117557567D01*
X147346158Y-117557566D01*
X147346163Y-117557566D01*
X147566437Y-117481946D01*
X147771260Y-117371101D01*
X147955046Y-117228055D01*
X148112780Y-117056710D01*
X148240160Y-116861740D01*
X148333712Y-116648463D01*
X148390884Y-116422696D01*
X148410116Y-116190599D01*
X148390884Y-115958502D01*
X148390883Y-115958496D01*
X148333713Y-115732738D01*
X148333710Y-115732730D01*
X148240164Y-115519468D01*
X148240160Y-115519458D01*
X148159435Y-115395899D01*
X148112784Y-115324493D01*
X148112783Y-115324491D01*
X147955050Y-115153147D01*
X147955048Y-115153146D01*
X147955046Y-115153143D01*
X147771260Y-115010097D01*
X147566437Y-114899252D01*
X147566433Y-114899250D01*
X147566430Y-114899249D01*
X147346167Y-114823633D01*
X147346158Y-114823630D01*
X147116450Y-114785299D01*
X147116446Y-114785299D01*
X146883554Y-114785299D01*
X146883550Y-114785299D01*
X146653841Y-114823630D01*
X146653832Y-114823633D01*
X146433569Y-114899249D01*
X146228740Y-115010097D01*
X146044949Y-115153147D01*
X145887216Y-115324491D01*
X145887215Y-115324493D01*
X145759844Y-115519451D01*
X145759835Y-115519468D01*
X145666289Y-115732730D01*
X145666286Y-115732738D01*
X145609116Y-115958496D01*
X145609115Y-115958502D01*
X145589884Y-116190599D01*
X143610602Y-116190599D01*
X141176551Y-114785299D01*
X135193528Y-111330999D01*
X139679544Y-111330999D01*
X139679545Y-111331000D01*
X140218884Y-111331000D01*
X140190507Y-111375156D01*
X140150000Y-111513111D01*
X140150000Y-111656889D01*
X140190507Y-111794844D01*
X140218884Y-111839000D01*
X139679545Y-111839000D01*
X139719419Y-111970452D01*
X139812504Y-112144601D01*
X139937759Y-112297224D01*
X139937775Y-112297240D01*
X140090398Y-112422495D01*
X140090397Y-112422495D01*
X140264547Y-112515580D01*
X140395999Y-112555455D01*
X140396000Y-112555455D01*
X140396000Y-112018674D01*
X140507685Y-112069680D01*
X140614237Y-112085000D01*
X140685763Y-112085000D01*
X140792315Y-112069680D01*
X140904000Y-112018674D01*
X140904000Y-112555455D01*
X141035452Y-112515580D01*
X141209601Y-112422495D01*
X141362224Y-112297240D01*
X141362240Y-112297224D01*
X141487495Y-112144601D01*
X141580580Y-111970452D01*
X141620455Y-111839000D01*
X141081116Y-111839000D01*
X141109493Y-111794844D01*
X141150000Y-111656889D01*
X141150000Y-111513111D01*
X141109493Y-111375156D01*
X141081116Y-111331000D01*
X141620455Y-111331000D01*
X141620455Y-111330999D01*
X142219544Y-111330999D01*
X142219545Y-111331000D01*
X142758884Y-111331000D01*
X142730507Y-111375156D01*
X142690000Y-111513111D01*
X142690000Y-111656889D01*
X142730507Y-111794844D01*
X142758884Y-111839000D01*
X142219545Y-111839000D01*
X142259419Y-111970452D01*
X142352504Y-112144601D01*
X142477759Y-112297224D01*
X142477775Y-112297240D01*
X142630398Y-112422495D01*
X142630397Y-112422495D01*
X142804547Y-112515580D01*
X142935999Y-112555455D01*
X142936000Y-112555455D01*
X142936000Y-112018674D01*
X143047685Y-112069680D01*
X143154237Y-112085000D01*
X143225763Y-112085000D01*
X143332315Y-112069680D01*
X143444000Y-112018674D01*
X143444000Y-112555455D01*
X143575452Y-112515580D01*
X143749601Y-112422495D01*
X143902224Y-112297240D01*
X143902240Y-112297224D01*
X144027495Y-112144601D01*
X144120580Y-111970452D01*
X144160455Y-111839000D01*
X143621116Y-111839000D01*
X143649493Y-111794844D01*
X143690000Y-111656889D01*
X143690000Y-111585000D01*
X144722247Y-111585000D01*
X144741612Y-111781609D01*
X144798898Y-111970452D01*
X144798958Y-111970650D01*
X144892084Y-112144878D01*
X145017411Y-112297589D01*
X145170122Y-112422916D01*
X145344350Y-112516042D01*
X145533397Y-112573389D01*
X145730000Y-112592753D01*
X145926603Y-112573389D01*
X146115650Y-112516042D01*
X146289878Y-112422916D01*
X146442589Y-112297589D01*
X146567916Y-112144878D01*
X146661042Y-111970650D01*
X146718389Y-111781603D01*
X146737753Y-111585000D01*
X147262247Y-111585000D01*
X147281612Y-111781609D01*
X147338898Y-111970452D01*
X147338958Y-111970650D01*
X147432084Y-112144878D01*
X147557411Y-112297589D01*
X147710122Y-112422916D01*
X147884350Y-112516042D01*
X148073397Y-112573389D01*
X148270000Y-112592753D01*
X148466603Y-112573389D01*
X148655650Y-112516042D01*
X148829878Y-112422916D01*
X148982589Y-112297589D01*
X149107916Y-112144878D01*
X149201042Y-111970650D01*
X149258389Y-111781603D01*
X149277753Y-111585000D01*
X149277753Y-111584999D01*
X149802247Y-111584999D01*
X149821612Y-111781609D01*
X149878898Y-111970452D01*
X149878958Y-111970650D01*
X149972084Y-112144878D01*
X150097411Y-112297589D01*
X150250122Y-112422916D01*
X150424350Y-112516042D01*
X150613397Y-112573389D01*
X150810000Y-112592753D01*
X151006603Y-112573389D01*
X151195650Y-112516042D01*
X151369878Y-112422916D01*
X151522589Y-112297589D01*
X151647916Y-112144878D01*
X151741042Y-111970650D01*
X151798389Y-111781603D01*
X151817753Y-111585000D01*
X151817753Y-111584999D01*
X152342247Y-111584999D01*
X152361612Y-111781609D01*
X152418898Y-111970452D01*
X152418958Y-111970650D01*
X152512084Y-112144878D01*
X152637411Y-112297589D01*
X152790122Y-112422916D01*
X152964350Y-112516042D01*
X153153397Y-112573389D01*
X153350000Y-112592753D01*
X153546603Y-112573389D01*
X153735650Y-112516042D01*
X153909878Y-112422916D01*
X154062589Y-112297589D01*
X154187916Y-112144878D01*
X154281042Y-111970650D01*
X154338389Y-111781603D01*
X154357753Y-111585000D01*
X154338389Y-111388397D01*
X154281042Y-111199350D01*
X154187916Y-111025122D01*
X154062589Y-110872411D01*
X153909878Y-110747084D01*
X153735650Y-110653958D01*
X153735649Y-110653957D01*
X153735648Y-110653957D01*
X153546609Y-110596612D01*
X153546604Y-110596611D01*
X153546603Y-110596611D01*
X153350000Y-110577247D01*
X153349999Y-110577247D01*
X153302657Y-110581909D01*
X153153397Y-110596611D01*
X153153395Y-110596611D01*
X153153390Y-110596612D01*
X152964351Y-110653957D01*
X152790121Y-110747084D01*
X152637413Y-110872409D01*
X152637409Y-110872413D01*
X152512084Y-111025121D01*
X152418957Y-111199351D01*
X152361612Y-111388390D01*
X152342247Y-111584999D01*
X151817753Y-111584999D01*
X151798389Y-111388397D01*
X151741042Y-111199350D01*
X151647916Y-111025122D01*
X151522589Y-110872411D01*
X151369878Y-110747084D01*
X151195650Y-110653958D01*
X151195649Y-110653957D01*
X151195648Y-110653957D01*
X151006609Y-110596612D01*
X151006604Y-110596611D01*
X151006603Y-110596611D01*
X150810000Y-110577247D01*
X150809999Y-110577247D01*
X150762657Y-110581909D01*
X150613397Y-110596611D01*
X150613395Y-110596611D01*
X150613390Y-110596612D01*
X150424351Y-110653957D01*
X150250121Y-110747084D01*
X150097413Y-110872409D01*
X150097409Y-110872413D01*
X149972084Y-111025121D01*
X149878957Y-111199351D01*
X149821612Y-111388390D01*
X149802247Y-111584999D01*
X149277753Y-111584999D01*
X149258389Y-111388397D01*
X149201042Y-111199350D01*
X149107916Y-111025122D01*
X148982589Y-110872411D01*
X148829878Y-110747084D01*
X148655650Y-110653958D01*
X148655649Y-110653957D01*
X148655648Y-110653957D01*
X148466609Y-110596612D01*
X148466604Y-110596611D01*
X148466603Y-110596611D01*
X148270000Y-110577247D01*
X148073397Y-110596611D01*
X148073395Y-110596611D01*
X148073390Y-110596612D01*
X147884351Y-110653957D01*
X147710121Y-110747084D01*
X147557413Y-110872409D01*
X147557409Y-110872413D01*
X147432084Y-111025121D01*
X147338957Y-111199351D01*
X147281612Y-111388390D01*
X147262247Y-111585000D01*
X146737753Y-111585000D01*
X146718389Y-111388397D01*
X146661042Y-111199350D01*
X146567916Y-111025122D01*
X146442589Y-110872411D01*
X146289878Y-110747084D01*
X146115650Y-110653958D01*
X146115649Y-110653957D01*
X146115648Y-110653957D01*
X145926609Y-110596612D01*
X145926604Y-110596611D01*
X145926603Y-110596611D01*
X145730000Y-110577247D01*
X145533397Y-110596611D01*
X145533395Y-110596611D01*
X145533390Y-110596612D01*
X145344351Y-110653957D01*
X145170121Y-110747084D01*
X145017413Y-110872409D01*
X145017409Y-110872413D01*
X144892084Y-111025121D01*
X144798957Y-111199351D01*
X144741612Y-111388390D01*
X144722247Y-111585000D01*
X143690000Y-111585000D01*
X143690000Y-111513111D01*
X143649493Y-111375156D01*
X143621116Y-111331000D01*
X144160455Y-111331000D01*
X144160455Y-111330999D01*
X144120580Y-111199547D01*
X144027495Y-111025398D01*
X143902240Y-110872775D01*
X143902224Y-110872759D01*
X143749601Y-110747504D01*
X143749602Y-110747504D01*
X143575458Y-110654422D01*
X143444000Y-110614544D01*
X143444000Y-111151325D01*
X143332315Y-111100320D01*
X143225763Y-111085000D01*
X143154237Y-111085000D01*
X143047685Y-111100320D01*
X142936000Y-111151325D01*
X142936000Y-110614544D01*
X142804541Y-110654422D01*
X142630398Y-110747504D01*
X142477775Y-110872759D01*
X142477759Y-110872775D01*
X142352504Y-111025398D01*
X142259419Y-111199547D01*
X142219544Y-111330999D01*
X141620455Y-111330999D01*
X141580580Y-111199547D01*
X141487495Y-111025398D01*
X141362240Y-110872775D01*
X141362224Y-110872759D01*
X141209601Y-110747504D01*
X141209602Y-110747504D01*
X141035458Y-110654422D01*
X140904000Y-110614544D01*
X140904000Y-111151325D01*
X140792315Y-111100320D01*
X140685763Y-111085000D01*
X140614237Y-111085000D01*
X140507685Y-111100320D01*
X140396000Y-111151325D01*
X140396000Y-110614544D01*
X140264541Y-110654422D01*
X140090398Y-110747504D01*
X139937775Y-110872759D01*
X139937759Y-110872775D01*
X139812504Y-111025398D01*
X139719419Y-111199547D01*
X139679544Y-111330999D01*
X135193528Y-111330999D01*
X130198676Y-108447220D01*
X132515234Y-108447220D01*
X132525459Y-108622804D01*
X132525460Y-108622814D01*
X132575902Y-108791298D01*
X132575903Y-108791301D01*
X132663847Y-108943625D01*
X132696827Y-108978582D01*
X133045504Y-108374653D01*
X133093833Y-108469503D01*
X133183429Y-108559099D01*
X133296326Y-108616623D01*
X133389993Y-108631458D01*
X133452955Y-108631458D01*
X133486933Y-108626076D01*
X133136520Y-109233013D01*
X133271475Y-109248787D01*
X133446173Y-109228368D01*
X133611451Y-109168210D01*
X133758395Y-109071564D01*
X133758401Y-109071559D01*
X133879098Y-108943627D01*
X133946070Y-108827627D01*
X133564671Y-108607426D01*
X133659519Y-108559099D01*
X133749115Y-108469503D01*
X133806639Y-108356606D01*
X133826460Y-108231458D01*
X133816092Y-108165996D01*
X134200071Y-108387686D01*
X134244984Y-108309893D01*
X134297172Y-108188909D01*
X134327714Y-108015693D01*
X134317488Y-107840107D01*
X134267045Y-107671616D01*
X134267044Y-107671613D01*
X134179098Y-107519286D01*
X134146120Y-107484331D01*
X133797441Y-108088259D01*
X133749115Y-107993413D01*
X133659519Y-107903817D01*
X133546622Y-107846293D01*
X133452955Y-107831458D01*
X133389993Y-107831458D01*
X133356010Y-107836840D01*
X133706427Y-107229900D01*
X133571474Y-107214128D01*
X133396774Y-107234547D01*
X133231501Y-107294703D01*
X133084543Y-107391358D01*
X133084541Y-107391360D01*
X132963850Y-107519285D01*
X132963847Y-107519289D01*
X132896875Y-107635288D01*
X133278277Y-107855489D01*
X133183429Y-107903817D01*
X133093833Y-107993413D01*
X133036309Y-108106310D01*
X133016488Y-108231458D01*
X133026855Y-108296919D01*
X132642875Y-108075228D01*
X132597967Y-108153011D01*
X132597961Y-108153023D01*
X132545775Y-108274006D01*
X132515234Y-108447220D01*
X130198676Y-108447220D01*
X127349250Y-106802103D01*
X127310601Y-106756043D01*
X127305300Y-106725979D01*
X127305300Y-105798293D01*
X127589884Y-105798293D01*
X127609115Y-106030390D01*
X127609116Y-106030396D01*
X127666286Y-106256154D01*
X127666289Y-106256162D01*
X127737987Y-106419615D01*
X127759840Y-106469435D01*
X127759844Y-106469441D01*
X127887215Y-106664399D01*
X127887216Y-106664401D01*
X128013979Y-106802103D01*
X128044954Y-106835750D01*
X128228740Y-106978796D01*
X128433563Y-107089641D01*
X128653837Y-107165261D01*
X128653839Y-107165261D01*
X128653841Y-107165262D01*
X128883550Y-107203594D01*
X128883554Y-107203594D01*
X129116450Y-107203594D01*
X129346158Y-107165262D01*
X129346158Y-107165261D01*
X129346163Y-107165261D01*
X129566437Y-107089641D01*
X129771260Y-106978796D01*
X129955046Y-106835750D01*
X130112780Y-106664405D01*
X130240160Y-106469435D01*
X130333712Y-106256158D01*
X130390884Y-106030391D01*
X130410116Y-105798294D01*
X130390884Y-105566197D01*
X130390883Y-105566191D01*
X130333713Y-105340433D01*
X130333710Y-105340425D01*
X130262013Y-105176973D01*
X130240160Y-105127153D01*
X130159435Y-105003594D01*
X130112784Y-104932188D01*
X130112783Y-104932186D01*
X129955050Y-104760842D01*
X129955048Y-104760841D01*
X129955046Y-104760838D01*
X129771260Y-104617792D01*
X129566437Y-104506947D01*
X129566433Y-104506945D01*
X129566430Y-104506944D01*
X129346167Y-104431328D01*
X129346158Y-104431325D01*
X129116450Y-104392994D01*
X129116446Y-104392994D01*
X128883554Y-104392994D01*
X128883550Y-104392994D01*
X128653841Y-104431325D01*
X128653832Y-104431328D01*
X128433569Y-104506944D01*
X128228740Y-104617792D01*
X128044949Y-104760842D01*
X127887216Y-104932186D01*
X127887215Y-104932188D01*
X127759844Y-105127146D01*
X127759835Y-105127163D01*
X127666289Y-105340425D01*
X127666286Y-105340433D01*
X127609116Y-105566191D01*
X127609115Y-105566197D01*
X127589884Y-105798293D01*
X127305300Y-105798293D01*
X127305300Y-102471342D01*
X127690736Y-102471342D01*
X127694512Y-102512086D01*
X127694700Y-102516144D01*
X127694700Y-102528294D01*
X127696930Y-102540228D01*
X127697491Y-102544244D01*
X127698787Y-102558223D01*
X127701268Y-102584996D01*
X127702261Y-102586991D01*
X127709974Y-102610003D01*
X127710385Y-102612197D01*
X127710386Y-102612200D01*
X127731922Y-102646981D01*
X127733898Y-102650528D01*
X127752144Y-102687170D01*
X127753787Y-102688668D01*
X127769301Y-102707350D01*
X127770471Y-102709240D01*
X127770473Y-102709242D01*
X127803130Y-102733905D01*
X127806253Y-102736498D01*
X127818712Y-102747855D01*
X127836496Y-102764067D01*
X127836498Y-102764067D01*
X127836502Y-102764070D01*
X127838567Y-102764870D01*
X127859784Y-102776687D01*
X127860871Y-102777507D01*
X127861559Y-102778027D01*
X127900912Y-102789223D01*
X127904764Y-102790514D01*
X127919452Y-102796204D01*
X127942930Y-102805300D01*
X127945152Y-102805300D01*
X127969207Y-102808656D01*
X127971342Y-102809263D01*
X127971342Y-102809262D01*
X127971343Y-102809263D01*
X127981636Y-102808309D01*
X128012087Y-102805488D01*
X128016145Y-102805300D01*
X129945152Y-102805300D01*
X129969207Y-102808656D01*
X129971342Y-102809263D01*
X129971342Y-102809262D01*
X129971343Y-102809263D01*
X129981636Y-102808309D01*
X130012087Y-102805488D01*
X130016145Y-102805300D01*
X130028288Y-102805300D01*
X130028289Y-102805300D01*
X130040241Y-102803065D01*
X130044226Y-102802509D01*
X130084996Y-102798732D01*
X130086982Y-102797742D01*
X130110012Y-102790024D01*
X130111338Y-102789775D01*
X130112197Y-102789615D01*
X130147010Y-102768059D01*
X130150526Y-102766101D01*
X130187171Y-102747855D01*
X130188666Y-102746214D01*
X130207360Y-102730691D01*
X130209242Y-102729527D01*
X130233908Y-102696862D01*
X130236481Y-102693762D01*
X130264067Y-102663504D01*
X130264869Y-102661432D01*
X130276690Y-102640210D01*
X130278027Y-102638441D01*
X130289231Y-102599058D01*
X130290506Y-102595253D01*
X130305300Y-102557070D01*
X130305300Y-102554846D01*
X130308656Y-102530790D01*
X130309263Y-102528657D01*
X130305486Y-102487897D01*
X130305300Y-102483875D01*
X130305300Y-98354845D01*
X130308656Y-98330790D01*
X130309263Y-98328657D01*
X130308104Y-98316144D01*
X130305488Y-98287911D01*
X130305300Y-98283854D01*
X130305300Y-98271711D01*
X130304831Y-98269204D01*
X130303065Y-98259757D01*
X130302509Y-98255775D01*
X130298732Y-98215004D01*
X130297740Y-98213011D01*
X130290022Y-98189981D01*
X130289615Y-98187804D01*
X130289615Y-98187803D01*
X130268070Y-98153006D01*
X130266100Y-98149469D01*
X130247855Y-98112829D01*
X130246208Y-98111328D01*
X130230693Y-98092642D01*
X130229527Y-98090758D01*
X130229525Y-98090756D01*
X130215000Y-98079787D01*
X130196860Y-98066089D01*
X130193745Y-98063501D01*
X130163504Y-98035933D01*
X130161426Y-98035128D01*
X130140217Y-98023314D01*
X130138441Y-98021973D01*
X130138436Y-98021971D01*
X130099076Y-98010771D01*
X130095226Y-98009481D01*
X130057074Y-97994701D01*
X130057071Y-97994700D01*
X130057070Y-97994700D01*
X130057069Y-97994700D01*
X130054848Y-97994700D01*
X130030793Y-97991344D01*
X130028657Y-97990736D01*
X129987913Y-97994512D01*
X129983855Y-97994700D01*
X128054848Y-97994700D01*
X128030793Y-97991344D01*
X128028657Y-97990736D01*
X127987913Y-97994512D01*
X127983855Y-97994700D01*
X127971706Y-97994700D01*
X127959773Y-97996930D01*
X127955757Y-97997491D01*
X127915004Y-98001268D01*
X127914998Y-98001270D01*
X127913002Y-98002264D01*
X127889999Y-98009974D01*
X127887803Y-98010384D01*
X127853008Y-98031927D01*
X127849463Y-98033902D01*
X127812826Y-98052146D01*
X127812825Y-98052147D01*
X127811321Y-98053797D01*
X127792655Y-98069297D01*
X127790758Y-98070471D01*
X127790757Y-98070472D01*
X127766090Y-98103134D01*
X127763498Y-98106256D01*
X127735932Y-98136496D01*
X127735931Y-98136497D01*
X127735125Y-98138579D01*
X127723318Y-98159777D01*
X127721973Y-98161557D01*
X127721971Y-98161561D01*
X127710775Y-98200916D01*
X127709484Y-98204767D01*
X127694701Y-98242925D01*
X127694700Y-98242931D01*
X127694700Y-98245151D01*
X127691345Y-98269204D01*
X127690736Y-98271342D01*
X127694512Y-98312086D01*
X127694700Y-98316144D01*
X127694700Y-102445151D01*
X127691345Y-102469204D01*
X127690736Y-102471342D01*
X127305300Y-102471342D01*
X127305300Y-96844000D01*
X127692549Y-96844000D01*
X127719970Y-96928389D01*
X127806934Y-97079015D01*
X127806935Y-97079016D01*
X127923310Y-97208264D01*
X128064022Y-97310497D01*
X128222912Y-97381239D01*
X128225999Y-97381894D01*
X128226000Y-97381894D01*
X128226000Y-96901686D01*
X128241955Y-96917641D01*
X128354852Y-96975165D01*
X128448519Y-96990000D01*
X128511481Y-96990000D01*
X128605148Y-96975165D01*
X128718045Y-96917641D01*
X128734000Y-96901686D01*
X128734000Y-97381894D01*
X128737087Y-97381239D01*
X128895977Y-97310497D01*
X129036689Y-97208264D01*
X129153064Y-97079016D01*
X129153065Y-97079015D01*
X129240029Y-96928389D01*
X129267451Y-96844000D01*
X128791686Y-96844000D01*
X128807641Y-96828045D01*
X128831251Y-96781708D01*
X131097100Y-96781708D01*
X131097912Y-96786833D01*
X131112042Y-96876053D01*
X131169843Y-96989496D01*
X131169984Y-96989771D01*
X131260229Y-97080016D01*
X131373945Y-97137957D01*
X131373944Y-97137957D01*
X131389950Y-97140492D01*
X131442539Y-97169642D01*
X131464087Y-97225775D01*
X131464100Y-97227310D01*
X131464100Y-99918706D01*
X131464020Y-99921360D01*
X131460459Y-99980214D01*
X131460460Y-99980218D01*
X131471086Y-100038202D01*
X131471486Y-100040827D01*
X131478591Y-100099339D01*
X131478591Y-100099341D01*
X131478592Y-100099342D01*
X131482920Y-100110755D01*
X131487190Y-100126073D01*
X131489390Y-100138078D01*
X131489390Y-100138081D01*
X131513581Y-100191829D01*
X131514597Y-100194282D01*
X131535503Y-100249406D01*
X131535506Y-100249411D01*
X131542440Y-100259457D01*
X131550251Y-100273306D01*
X131555261Y-100284437D01*
X131591619Y-100330845D01*
X131593182Y-100332970D01*
X131626674Y-100381492D01*
X131626675Y-100381493D01*
X131626676Y-100381494D01*
X131670807Y-100420591D01*
X131672730Y-100422400D01*
X137288173Y-106037844D01*
X137313584Y-106092338D01*
X137298021Y-106150416D01*
X137288173Y-106162154D01*
X135369649Y-108080678D01*
X135315155Y-108106089D01*
X135275994Y-108100585D01*
X135260228Y-108094533D01*
X135260227Y-108094532D01*
X135132777Y-108087854D01*
X135132776Y-108087854D01*
X135009499Y-108120886D01*
X135009497Y-108120886D01*
X135009497Y-108120887D01*
X134902462Y-108190396D01*
X134902461Y-108190397D01*
X134842351Y-108264627D01*
X134842348Y-108264630D01*
X134450331Y-108943625D01*
X134160640Y-109445384D01*
X134160640Y-109445385D01*
X134160639Y-109445387D01*
X134126408Y-109534561D01*
X134126407Y-109534565D01*
X134119727Y-109662008D01*
X134119727Y-109662011D01*
X134119727Y-109662014D01*
X134119728Y-109662014D01*
X134152760Y-109785291D01*
X134216158Y-109882915D01*
X134222271Y-109892328D01*
X134222272Y-109892329D01*
X134296501Y-109952438D01*
X134296504Y-109952441D01*
X134296506Y-109952442D01*
X134957644Y-110334150D01*
X134957652Y-110334153D01*
X134957654Y-110334154D01*
X135046819Y-110368382D01*
X135046822Y-110368383D01*
X135174274Y-110375062D01*
X135297551Y-110342030D01*
X135404587Y-110272520D01*
X135464702Y-110198284D01*
X135927943Y-109395925D01*
X135941905Y-109377729D01*
X136274634Y-109045000D01*
X139642247Y-109045000D01*
X139660307Y-109228368D01*
X139661612Y-109241609D01*
X139718957Y-109430648D01*
X139718958Y-109430650D01*
X139812084Y-109604878D01*
X139937411Y-109757589D01*
X140090122Y-109882916D01*
X140264350Y-109976042D01*
X140453397Y-110033389D01*
X140650000Y-110052753D01*
X140846603Y-110033389D01*
X141035650Y-109976042D01*
X141209878Y-109882916D01*
X141362589Y-109757589D01*
X141487916Y-109604878D01*
X141581042Y-109430650D01*
X141638389Y-109241603D01*
X141657753Y-109045000D01*
X142182247Y-109045000D01*
X142200307Y-109228368D01*
X142201612Y-109241609D01*
X142258957Y-109430648D01*
X142258958Y-109430650D01*
X142352084Y-109604878D01*
X142477411Y-109757589D01*
X142630122Y-109882916D01*
X142804350Y-109976042D01*
X142993397Y-110033389D01*
X143190000Y-110052753D01*
X143386603Y-110033389D01*
X143575650Y-109976042D01*
X143749878Y-109882916D01*
X143902589Y-109757589D01*
X144027916Y-109604878D01*
X144121042Y-109430650D01*
X144178389Y-109241603D01*
X144197753Y-109045000D01*
X144722247Y-109045000D01*
X144740307Y-109228368D01*
X144741612Y-109241609D01*
X144798957Y-109430648D01*
X144798958Y-109430650D01*
X144892084Y-109604878D01*
X145017411Y-109757589D01*
X145170122Y-109882916D01*
X145344350Y-109976042D01*
X145533397Y-110033389D01*
X145730000Y-110052753D01*
X145926603Y-110033389D01*
X146115650Y-109976042D01*
X146289878Y-109882916D01*
X146442589Y-109757589D01*
X146567916Y-109604878D01*
X146661042Y-109430650D01*
X146718389Y-109241603D01*
X146737753Y-109045000D01*
X147262247Y-109045000D01*
X147280307Y-109228368D01*
X147281612Y-109241609D01*
X147338957Y-109430648D01*
X147338958Y-109430650D01*
X147432084Y-109604878D01*
X147557411Y-109757589D01*
X147710122Y-109882916D01*
X147884350Y-109976042D01*
X148073397Y-110033389D01*
X148270000Y-110052753D01*
X148466603Y-110033389D01*
X148655650Y-109976042D01*
X148829878Y-109882916D01*
X148982589Y-109757589D01*
X149107916Y-109604878D01*
X149201042Y-109430650D01*
X149258389Y-109241603D01*
X149277753Y-109045000D01*
X149802247Y-109045000D01*
X149820307Y-109228368D01*
X149821612Y-109241609D01*
X149878957Y-109430648D01*
X149878958Y-109430650D01*
X149972084Y-109604878D01*
X150097411Y-109757589D01*
X150250122Y-109882916D01*
X150424350Y-109976042D01*
X150613397Y-110033389D01*
X150810000Y-110052753D01*
X151006603Y-110033389D01*
X151195650Y-109976042D01*
X151319098Y-109910058D01*
X152347100Y-109910058D01*
X152355530Y-109952438D01*
X152355972Y-109954658D01*
X152389766Y-110005234D01*
X152406701Y-110016550D01*
X152440341Y-110039028D01*
X152447741Y-110040499D01*
X152484943Y-110047900D01*
X154215056Y-110047899D01*
X154215058Y-110047899D01*
X154227750Y-110045374D01*
X154259658Y-110039028D01*
X154310234Y-110005234D01*
X154344028Y-109954658D01*
X154352900Y-109910057D01*
X154352899Y-108909061D01*
X157968759Y-108909061D01*
X157978984Y-109084649D01*
X158029427Y-109253140D01*
X158029428Y-109253143D01*
X158096401Y-109369143D01*
X158480381Y-109147452D01*
X158470013Y-109212916D01*
X158489834Y-109338064D01*
X158547358Y-109450961D01*
X158636954Y-109540557D01*
X158731800Y-109588883D01*
X158350400Y-109809085D01*
X158395313Y-109886877D01*
X158473996Y-109992566D01*
X158473997Y-109992567D01*
X158608736Y-110105625D01*
X158608741Y-110105628D01*
X158765908Y-110184561D01*
X158937058Y-110225124D01*
X159112940Y-110225124D01*
X159159703Y-110214040D01*
X158809537Y-109607534D01*
X158843518Y-109612916D01*
X158906480Y-109612916D01*
X159000147Y-109598081D01*
X159113044Y-109540557D01*
X159202640Y-109450961D01*
X159250967Y-109356113D01*
X159599893Y-109960472D01*
X159681030Y-109851487D01*
X159750696Y-109689986D01*
X159781239Y-109516769D01*
X159771013Y-109341183D01*
X159720569Y-109172688D01*
X159720568Y-109172686D01*
X159653595Y-109056686D01*
X159269617Y-109278375D01*
X159279985Y-109212916D01*
X159260164Y-109087768D01*
X159202640Y-108974871D01*
X159113044Y-108885275D01*
X159018194Y-108836946D01*
X159399596Y-108616744D01*
X159354684Y-108538953D01*
X159276001Y-108433265D01*
X159276000Y-108433264D01*
X159141264Y-108320209D01*
X159141259Y-108320206D01*
X158984090Y-108241270D01*
X158812941Y-108200708D01*
X158637055Y-108200708D01*
X158590293Y-108211789D01*
X158940459Y-108818297D01*
X158906480Y-108812916D01*
X158843518Y-108812916D01*
X158749851Y-108827751D01*
X158636954Y-108885275D01*
X158547358Y-108974871D01*
X158499030Y-109069718D01*
X158150104Y-108465359D01*
X158068967Y-108574344D01*
X157999301Y-108735845D01*
X157968759Y-108909061D01*
X154352899Y-108909061D01*
X154352899Y-108179944D01*
X154352899Y-108179943D01*
X154352899Y-108179941D01*
X154349111Y-108160902D01*
X154344028Y-108135342D01*
X154310234Y-108084766D01*
X154304116Y-108080678D01*
X154259658Y-108050971D01*
X154222456Y-108043571D01*
X154215057Y-108042100D01*
X154215056Y-108042100D01*
X152484941Y-108042100D01*
X152440341Y-108050972D01*
X152389767Y-108084765D01*
X152389764Y-108084768D01*
X152355971Y-108135341D01*
X152347100Y-108179943D01*
X152347100Y-109910058D01*
X151319098Y-109910058D01*
X151369878Y-109882916D01*
X151522589Y-109757589D01*
X151647916Y-109604878D01*
X151741042Y-109430650D01*
X151798389Y-109241603D01*
X151817753Y-109045000D01*
X151798389Y-108848397D01*
X151792088Y-108827627D01*
X151781068Y-108791298D01*
X151741042Y-108659350D01*
X151647916Y-108485122D01*
X151522589Y-108332411D01*
X151369878Y-108207084D01*
X151195650Y-108113958D01*
X151195649Y-108113957D01*
X151195648Y-108113957D01*
X151006609Y-108056612D01*
X151006604Y-108056611D01*
X151006603Y-108056611D01*
X150810000Y-108037247D01*
X150613397Y-108056611D01*
X150613395Y-108056611D01*
X150613390Y-108056612D01*
X150424351Y-108113957D01*
X150250121Y-108207084D01*
X150097413Y-108332409D01*
X150097409Y-108332413D01*
X149972084Y-108485121D01*
X149878957Y-108659351D01*
X149821612Y-108848390D01*
X149821611Y-108848395D01*
X149821611Y-108848397D01*
X149802247Y-109045000D01*
X149277753Y-109045000D01*
X149258389Y-108848397D01*
X149252088Y-108827627D01*
X149241068Y-108791298D01*
X149201042Y-108659350D01*
X149107916Y-108485122D01*
X148982589Y-108332411D01*
X148829878Y-108207084D01*
X148655650Y-108113958D01*
X148655649Y-108113957D01*
X148655648Y-108113957D01*
X148466609Y-108056612D01*
X148466604Y-108056611D01*
X148466603Y-108056611D01*
X148270000Y-108037247D01*
X148073397Y-108056611D01*
X148073395Y-108056611D01*
X148073390Y-108056612D01*
X147884351Y-108113957D01*
X147710121Y-108207084D01*
X147557413Y-108332409D01*
X147557409Y-108332413D01*
X147432084Y-108485121D01*
X147338957Y-108659351D01*
X147281612Y-108848390D01*
X147281611Y-108848395D01*
X147281611Y-108848397D01*
X147262247Y-109045000D01*
X146737753Y-109045000D01*
X146718389Y-108848397D01*
X146712088Y-108827627D01*
X146701068Y-108791298D01*
X146661042Y-108659350D01*
X146567916Y-108485122D01*
X146442589Y-108332411D01*
X146289878Y-108207084D01*
X146115650Y-108113958D01*
X146115649Y-108113957D01*
X146115648Y-108113957D01*
X145926609Y-108056612D01*
X145926604Y-108056611D01*
X145926603Y-108056611D01*
X145730000Y-108037247D01*
X145533397Y-108056611D01*
X145533395Y-108056611D01*
X145533390Y-108056612D01*
X145344351Y-108113957D01*
X145170121Y-108207084D01*
X145017413Y-108332409D01*
X145017409Y-108332413D01*
X144892084Y-108485121D01*
X144798957Y-108659351D01*
X144741612Y-108848390D01*
X144741611Y-108848395D01*
X144741611Y-108848397D01*
X144722247Y-109045000D01*
X144197753Y-109045000D01*
X144178389Y-108848397D01*
X144172088Y-108827627D01*
X144161068Y-108791298D01*
X144121042Y-108659350D01*
X144027916Y-108485122D01*
X143902589Y-108332411D01*
X143749878Y-108207084D01*
X143575650Y-108113958D01*
X143575649Y-108113957D01*
X143575648Y-108113957D01*
X143386609Y-108056612D01*
X143386604Y-108056611D01*
X143386603Y-108056611D01*
X143190000Y-108037247D01*
X142993397Y-108056611D01*
X142993395Y-108056611D01*
X142993390Y-108056612D01*
X142804351Y-108113957D01*
X142630121Y-108207084D01*
X142477413Y-108332409D01*
X142477409Y-108332413D01*
X142352084Y-108485121D01*
X142258957Y-108659351D01*
X142201612Y-108848390D01*
X142201611Y-108848395D01*
X142201611Y-108848397D01*
X142182247Y-109045000D01*
X141657753Y-109045000D01*
X141638389Y-108848397D01*
X141632088Y-108827627D01*
X141621068Y-108791298D01*
X141581042Y-108659350D01*
X141487916Y-108485122D01*
X141362589Y-108332411D01*
X141209878Y-108207084D01*
X141035650Y-108113958D01*
X141035649Y-108113957D01*
X141035648Y-108113957D01*
X140846609Y-108056612D01*
X140846604Y-108056611D01*
X140846603Y-108056611D01*
X140650000Y-108037247D01*
X140453397Y-108056611D01*
X140453395Y-108056611D01*
X140453390Y-108056612D01*
X140264351Y-108113957D01*
X140090121Y-108207084D01*
X139937413Y-108332409D01*
X139937409Y-108332413D01*
X139812084Y-108485121D01*
X139718957Y-108659351D01*
X139661612Y-108848390D01*
X139661611Y-108848395D01*
X139661611Y-108848397D01*
X139642247Y-109045000D01*
X136274634Y-109045000D01*
X138532991Y-106786645D01*
X138587486Y-106761234D01*
X138595147Y-106760900D01*
X158183971Y-106760900D01*
X158240472Y-106781465D01*
X158246125Y-106786644D01*
X158683006Y-107223526D01*
X158683010Y-107223529D01*
X159818664Y-108359183D01*
X159832633Y-108377388D01*
X160295873Y-109179743D01*
X160295876Y-109179746D01*
X160355311Y-109253143D01*
X160355988Y-109253978D01*
X160463024Y-109323488D01*
X160586301Y-109356520D01*
X160713753Y-109349841D01*
X160736308Y-109341183D01*
X160782403Y-109323488D01*
X160802931Y-109315608D01*
X161464069Y-108933900D01*
X161538304Y-108873786D01*
X161607815Y-108766749D01*
X161640847Y-108643472D01*
X161640217Y-108631458D01*
X161634167Y-108516023D01*
X161634166Y-108516019D01*
X161622306Y-108485122D01*
X161599935Y-108426842D01*
X160918227Y-107246090D01*
X160918226Y-107246088D01*
X160918223Y-107246085D01*
X160858113Y-107171855D01*
X160858112Y-107171854D01*
X160751316Y-107102500D01*
X160751076Y-107102344D01*
X160627799Y-107069312D01*
X160627797Y-107069312D01*
X160500346Y-107075991D01*
X160500344Y-107075991D01*
X160484575Y-107082044D01*
X160424457Y-107083091D01*
X160390923Y-107062136D01*
X159618679Y-106289892D01*
X159618666Y-106289878D01*
X159490942Y-106162154D01*
X159465531Y-106107660D01*
X159481094Y-106049582D01*
X159490942Y-106037844D01*
X159730493Y-105798294D01*
X163589884Y-105798294D01*
X163609115Y-106030390D01*
X163609116Y-106030396D01*
X163666286Y-106256154D01*
X163666289Y-106256162D01*
X163737987Y-106419615D01*
X163759840Y-106469435D01*
X163759844Y-106469441D01*
X163887215Y-106664399D01*
X163887216Y-106664401D01*
X164013979Y-106802103D01*
X164044954Y-106835750D01*
X164228740Y-106978796D01*
X164433563Y-107089641D01*
X164653837Y-107165261D01*
X164653839Y-107165261D01*
X164653841Y-107165262D01*
X164883550Y-107203594D01*
X164883554Y-107203594D01*
X165116450Y-107203594D01*
X165346158Y-107165262D01*
X165346158Y-107165261D01*
X165346163Y-107165261D01*
X165566437Y-107089641D01*
X165771260Y-106978796D01*
X165955046Y-106835750D01*
X166112780Y-106664405D01*
X166240160Y-106469435D01*
X166333712Y-106256158D01*
X166390884Y-106030391D01*
X166410116Y-105798294D01*
X166390884Y-105566197D01*
X166390883Y-105566191D01*
X166333713Y-105340433D01*
X166333710Y-105340425D01*
X166262013Y-105176973D01*
X166240160Y-105127153D01*
X166159435Y-105003594D01*
X166112784Y-104932188D01*
X166112783Y-104932186D01*
X165955050Y-104760842D01*
X165955048Y-104760841D01*
X165955046Y-104760838D01*
X165771260Y-104617792D01*
X165566437Y-104506947D01*
X165566433Y-104506945D01*
X165566430Y-104506944D01*
X165346167Y-104431328D01*
X165346158Y-104431325D01*
X165116450Y-104392994D01*
X165116446Y-104392994D01*
X164883554Y-104392994D01*
X164883550Y-104392994D01*
X164653841Y-104431325D01*
X164653832Y-104431328D01*
X164433569Y-104506944D01*
X164228740Y-104617792D01*
X164044949Y-104760842D01*
X163887216Y-104932186D01*
X163887215Y-104932188D01*
X163759844Y-105127146D01*
X163759835Y-105127163D01*
X163666289Y-105340425D01*
X163666286Y-105340433D01*
X163609116Y-105566191D01*
X163609115Y-105566197D01*
X163589884Y-105798294D01*
X159730493Y-105798294D01*
X159952268Y-105576519D01*
X159954190Y-105574708D01*
X159998324Y-105535611D01*
X160031821Y-105487082D01*
X160033374Y-105484969D01*
X160069739Y-105438554D01*
X160074746Y-105427427D01*
X160082560Y-105413571D01*
X160089496Y-105403525D01*
X160110407Y-105348384D01*
X160111413Y-105345957D01*
X160135609Y-105292198D01*
X160137808Y-105280192D01*
X160142082Y-105264864D01*
X160146408Y-105253459D01*
X160153513Y-105194935D01*
X160153912Y-105192318D01*
X160156724Y-105176973D01*
X160164539Y-105134331D01*
X160160978Y-105075459D01*
X160160900Y-105072867D01*
X160160900Y-100471342D01*
X163690736Y-100471342D01*
X163694512Y-100512086D01*
X163694700Y-100516144D01*
X163694700Y-100528294D01*
X163696930Y-100540228D01*
X163697491Y-100544244D01*
X163701268Y-100584996D01*
X163702261Y-100586990D01*
X163709976Y-100610009D01*
X163710385Y-100612199D01*
X163731926Y-100646988D01*
X163733902Y-100650536D01*
X163752143Y-100687169D01*
X163752144Y-100687170D01*
X163753787Y-100688668D01*
X163769301Y-100707350D01*
X163770471Y-100709240D01*
X163770473Y-100709242D01*
X163803130Y-100733905D01*
X163806253Y-100736498D01*
X163818712Y-100747855D01*
X163836496Y-100764067D01*
X163836498Y-100764067D01*
X163836502Y-100764070D01*
X163838567Y-100764870D01*
X163859784Y-100776687D01*
X163860871Y-100777507D01*
X163861559Y-100778027D01*
X163900912Y-100789223D01*
X163904764Y-100790514D01*
X163919452Y-100796204D01*
X163942930Y-100805300D01*
X163945152Y-100805300D01*
X163969207Y-100808656D01*
X163971342Y-100809263D01*
X163971342Y-100809262D01*
X163971343Y-100809263D01*
X163981636Y-100808309D01*
X164012087Y-100805488D01*
X164016145Y-100805300D01*
X165945152Y-100805300D01*
X165969207Y-100808656D01*
X165971342Y-100809263D01*
X165971342Y-100809262D01*
X165971343Y-100809263D01*
X165981636Y-100808309D01*
X166012087Y-100805488D01*
X166016145Y-100805300D01*
X166028288Y-100805300D01*
X166028289Y-100805300D01*
X166040241Y-100803065D01*
X166044226Y-100802509D01*
X166084996Y-100798732D01*
X166086982Y-100797742D01*
X166110012Y-100790024D01*
X166111338Y-100789775D01*
X166112197Y-100789615D01*
X166147010Y-100768059D01*
X166150526Y-100766101D01*
X166187171Y-100747855D01*
X166188666Y-100746214D01*
X166207360Y-100730691D01*
X166209242Y-100729527D01*
X166233908Y-100696862D01*
X166236481Y-100693762D01*
X166264067Y-100663504D01*
X166264869Y-100661432D01*
X166276690Y-100640210D01*
X166278027Y-100638441D01*
X166289231Y-100599058D01*
X166290506Y-100595253D01*
X166305300Y-100557070D01*
X166305300Y-100554846D01*
X166308657Y-100530788D01*
X166309263Y-100528657D01*
X166305487Y-100487910D01*
X166305299Y-100483851D01*
X166305299Y-95280056D01*
X166305299Y-90054839D01*
X166308657Y-90030786D01*
X166309263Y-90028657D01*
X166309263Y-90028654D01*
X166305487Y-89987911D01*
X166305299Y-89983850D01*
X166305299Y-89980864D01*
X166305300Y-89971711D01*
X166303064Y-89959754D01*
X166302509Y-89955778D01*
X166298732Y-89915004D01*
X166297740Y-89913011D01*
X166290022Y-89889981D01*
X166289615Y-89887804D01*
X166289615Y-89887803D01*
X166268070Y-89853006D01*
X166266100Y-89849469D01*
X166247855Y-89812829D01*
X166246208Y-89811328D01*
X166230693Y-89792642D01*
X166229527Y-89790758D01*
X166229525Y-89790756D01*
X166203325Y-89770971D01*
X166196860Y-89766089D01*
X166193745Y-89763501D01*
X166163504Y-89735933D01*
X166161426Y-89735128D01*
X166140217Y-89723314D01*
X166138441Y-89721973D01*
X166138436Y-89721971D01*
X166099076Y-89710771D01*
X166095226Y-89709481D01*
X166057074Y-89694701D01*
X166057071Y-89694700D01*
X166057070Y-89694700D01*
X166057069Y-89694700D01*
X166054848Y-89694700D01*
X166030793Y-89691344D01*
X166028657Y-89690736D01*
X165987913Y-89694512D01*
X165983855Y-89694700D01*
X164054848Y-89694700D01*
X164030793Y-89691344D01*
X164028657Y-89690736D01*
X163987913Y-89694512D01*
X163983855Y-89694700D01*
X163971706Y-89694700D01*
X163959773Y-89696930D01*
X163955757Y-89697491D01*
X163915004Y-89701268D01*
X163914998Y-89701270D01*
X163913002Y-89702264D01*
X163889999Y-89709974D01*
X163887803Y-89710384D01*
X163853008Y-89731927D01*
X163849463Y-89733902D01*
X163812826Y-89752146D01*
X163812825Y-89752147D01*
X163811321Y-89753797D01*
X163792655Y-89769297D01*
X163790758Y-89770471D01*
X163790757Y-89770472D01*
X163766090Y-89803134D01*
X163763498Y-89806256D01*
X163735932Y-89836496D01*
X163735931Y-89836497D01*
X163735125Y-89838579D01*
X163723318Y-89859777D01*
X163721973Y-89861557D01*
X163721971Y-89861561D01*
X163710775Y-89900916D01*
X163709484Y-89904767D01*
X163694701Y-89942925D01*
X163694700Y-89942931D01*
X163694700Y-89945151D01*
X163691345Y-89969204D01*
X163690736Y-89971342D01*
X163694512Y-90012086D01*
X163694700Y-90016144D01*
X163694700Y-100445151D01*
X163691345Y-100469204D01*
X163690736Y-100471342D01*
X160160900Y-100471342D01*
X160160900Y-96777687D01*
X160181465Y-96721186D01*
X160186633Y-96715544D01*
X160732680Y-96169497D01*
X160787170Y-96144089D01*
X160796503Y-96146589D01*
X160796503Y-96146000D01*
X161538314Y-96146000D01*
X161522359Y-96161955D01*
X161464835Y-96274852D01*
X161445014Y-96400000D01*
X161464835Y-96525148D01*
X161522359Y-96638045D01*
X161538314Y-96654000D01*
X160840150Y-96654000D01*
X160893968Y-96778763D01*
X160998996Y-96919841D01*
X161133737Y-97032901D01*
X161133742Y-97032904D01*
X161290909Y-97111837D01*
X161462059Y-97152400D01*
X161595999Y-97152400D01*
X161596000Y-97152399D01*
X161596000Y-96711686D01*
X161611955Y-96727641D01*
X161724852Y-96785165D01*
X161818519Y-96800000D01*
X161881481Y-96800000D01*
X161975148Y-96785165D01*
X162088045Y-96727641D01*
X162104000Y-96711685D01*
X162104000Y-97152399D01*
X162104001Y-97152400D01*
X162193820Y-97152400D01*
X162193823Y-97152399D01*
X162324699Y-97137102D01*
X162489972Y-97076946D01*
X162636929Y-96980292D01*
X162757624Y-96852362D01*
X162845570Y-96700035D01*
X162859352Y-96654000D01*
X162161686Y-96654000D01*
X162177641Y-96638045D01*
X162235165Y-96525148D01*
X162254986Y-96400000D01*
X162235165Y-96274852D01*
X162177641Y-96161955D01*
X162161686Y-96146000D01*
X162859850Y-96146000D01*
X162806031Y-96021236D01*
X162701003Y-95880158D01*
X162566262Y-95767098D01*
X162566257Y-95767095D01*
X162409090Y-95688162D01*
X162237941Y-95647600D01*
X162104001Y-95647600D01*
X162104000Y-95647601D01*
X162104000Y-96088314D01*
X162088045Y-96072359D01*
X161975148Y-96014835D01*
X161881481Y-96000000D01*
X161818519Y-96000000D01*
X161724852Y-96014835D01*
X161611955Y-96072359D01*
X161596000Y-96088314D01*
X161596000Y-95647601D01*
X161595999Y-95647600D01*
X161506173Y-95647600D01*
X161472456Y-95651541D01*
X161413949Y-95637674D01*
X161378044Y-95589444D01*
X161381541Y-95529419D01*
X161400096Y-95502082D01*
X161622123Y-95280056D01*
X161723535Y-95178645D01*
X161778028Y-95153234D01*
X161785689Y-95152900D01*
X162531706Y-95152900D01*
X162531708Y-95152900D01*
X162626055Y-95137957D01*
X162739771Y-95080016D01*
X162830016Y-94989771D01*
X162887957Y-94876055D01*
X162902900Y-94781708D01*
X162902900Y-94018292D01*
X162887957Y-93923945D01*
X162830016Y-93810229D01*
X162739771Y-93719984D01*
X162739768Y-93719982D01*
X162626053Y-93662042D01*
X162626054Y-93662042D01*
X162546650Y-93649466D01*
X162531708Y-93647100D01*
X161168292Y-93647100D01*
X161153349Y-93649466D01*
X161073946Y-93662042D01*
X160960231Y-93719982D01*
X160869982Y-93810231D01*
X160812042Y-93923946D01*
X160797100Y-94018293D01*
X160797100Y-94199361D01*
X160776535Y-94255862D01*
X160771355Y-94261516D01*
X159047737Y-95985132D01*
X159045804Y-95986952D01*
X159001674Y-96026049D01*
X158968178Y-96074576D01*
X158966605Y-96076713D01*
X158930257Y-96123110D01*
X158925249Y-96134237D01*
X158917440Y-96148084D01*
X158910505Y-96158132D01*
X158889591Y-96213270D01*
X158888576Y-96215721D01*
X158864390Y-96269462D01*
X158862190Y-96281468D01*
X158857920Y-96296784D01*
X158853593Y-96308195D01*
X158853592Y-96308198D01*
X158846486Y-96366714D01*
X158846086Y-96369338D01*
X158835460Y-96427323D01*
X158835460Y-96427327D01*
X158839020Y-96486181D01*
X158839100Y-96488835D01*
X158839100Y-104783970D01*
X158818535Y-104840471D01*
X158813355Y-104846125D01*
X158246126Y-105413355D01*
X158191632Y-105438766D01*
X158183971Y-105439100D01*
X138595147Y-105439100D01*
X138538646Y-105418535D01*
X138532992Y-105413355D01*
X135677860Y-102558223D01*
X139393712Y-102558223D01*
X139413480Y-102695718D01*
X139413481Y-102695723D01*
X139413482Y-102695725D01*
X139456436Y-102789781D01*
X139465333Y-102809263D01*
X139471191Y-102822089D01*
X139562163Y-102927077D01*
X139562165Y-102927078D01*
X139562166Y-102927079D01*
X139679025Y-103002180D01*
X139679026Y-103002180D01*
X139679029Y-103002182D01*
X139769815Y-103028839D01*
X139812316Y-103041319D01*
X139812319Y-103041319D01*
X139812321Y-103041320D01*
X139812322Y-103041320D01*
X139951238Y-103041320D01*
X139951239Y-103041320D01*
X139951241Y-103041319D01*
X139951243Y-103041319D01*
X139967085Y-103036667D01*
X140084531Y-103002182D01*
X140201397Y-102927077D01*
X140292369Y-102822089D01*
X140350078Y-102695725D01*
X140351308Y-102687170D01*
X140369848Y-102558223D01*
X140369848Y-102558218D01*
X140364516Y-102521136D01*
X140376830Y-102462284D01*
X140389362Y-102446475D01*
X140459776Y-102376061D01*
X140470012Y-102368706D01*
X140469377Y-102367864D01*
X140475875Y-102362956D01*
X140475875Y-102362955D01*
X140475879Y-102362954D01*
X140506132Y-102329767D01*
X140507458Y-102328379D01*
X140520538Y-102315301D01*
X140522493Y-102312446D01*
X140526263Y-102307684D01*
X140546378Y-102285621D01*
X140549864Y-102276620D01*
X140559314Y-102258693D01*
X140564766Y-102250736D01*
X140571599Y-102221681D01*
X140573396Y-102215876D01*
X140584180Y-102188042D01*
X140584180Y-102178383D01*
X140586515Y-102158257D01*
X140588723Y-102148871D01*
X140584601Y-102119325D01*
X140584180Y-102113248D01*
X140584180Y-97540599D01*
X140604745Y-97484098D01*
X140619249Y-97471326D01*
X140619140Y-97471200D01*
X140623894Y-97467079D01*
X140623894Y-97467078D01*
X140623897Y-97467077D01*
X140714869Y-97362089D01*
X140772578Y-97235725D01*
X140782079Y-97169642D01*
X140792348Y-97098223D01*
X140792348Y-97098216D01*
X140772579Y-96960721D01*
X140772578Y-96960720D01*
X140772578Y-96960715D01*
X140714869Y-96834351D01*
X140623897Y-96729363D01*
X140623895Y-96729362D01*
X140623893Y-96729360D01*
X140507034Y-96654259D01*
X140507031Y-96654258D01*
X140480372Y-96646430D01*
X140373743Y-96615120D01*
X140373739Y-96615120D01*
X140234821Y-96615120D01*
X140234816Y-96615120D01*
X140101529Y-96654258D01*
X140101525Y-96654259D01*
X139984666Y-96729360D01*
X139984661Y-96729364D01*
X139893690Y-96834352D01*
X139835982Y-96960715D01*
X139835980Y-96960721D01*
X139816212Y-97098216D01*
X139816212Y-97098223D01*
X139835980Y-97235718D01*
X139835982Y-97235724D01*
X139893691Y-97362090D01*
X139984665Y-97467079D01*
X139989420Y-97471200D01*
X139988377Y-97472402D01*
X140020415Y-97514497D01*
X140024380Y-97540599D01*
X140024380Y-101983372D01*
X140003815Y-102039873D01*
X139998647Y-102045513D01*
X139994793Y-102049368D01*
X139940305Y-102074785D01*
X139932633Y-102075120D01*
X139812316Y-102075120D01*
X139679029Y-102114258D01*
X139679025Y-102114259D01*
X139562166Y-102189360D01*
X139562161Y-102189364D01*
X139471190Y-102294352D01*
X139413482Y-102420715D01*
X139413480Y-102420721D01*
X139393712Y-102558216D01*
X139393712Y-102558223D01*
X135677860Y-102558223D01*
X132811644Y-99692007D01*
X132786233Y-99637513D01*
X132785900Y-99629874D01*
X132785900Y-97235227D01*
X132806465Y-97178727D01*
X132858536Y-97148663D01*
X132859941Y-97148428D01*
X132926055Y-97137957D01*
X133039771Y-97080016D01*
X133039776Y-97080010D01*
X133042972Y-97077690D01*
X133094642Y-97060900D01*
X133478689Y-97060900D01*
X133481343Y-97060980D01*
X133492723Y-97061668D01*
X133540197Y-97064540D01*
X133585666Y-97056206D01*
X133598194Y-97053911D01*
X133600811Y-97053512D01*
X133659325Y-97046408D01*
X133670731Y-97042081D01*
X133686058Y-97037808D01*
X133698064Y-97035609D01*
X133751832Y-97011409D01*
X133754250Y-97010407D01*
X133809391Y-96989496D01*
X133819437Y-96982560D01*
X133833293Y-96974746D01*
X133844420Y-96969739D01*
X133890827Y-96933379D01*
X133892950Y-96931819D01*
X133897919Y-96928389D01*
X133941477Y-96898324D01*
X133980581Y-96854182D01*
X133982392Y-96852260D01*
X134672394Y-96162258D01*
X141266103Y-96162258D01*
X141267905Y-96168982D01*
X141270900Y-96191733D01*
X141270900Y-99922850D01*
X141270840Y-99925151D01*
X141268666Y-99966639D01*
X141277177Y-99988812D01*
X141281092Y-100002029D01*
X141286031Y-100025267D01*
X141290124Y-100030900D01*
X141301071Y-100051061D01*
X141303567Y-100057562D01*
X141303568Y-100057564D01*
X141320364Y-100074361D01*
X141329320Y-100084847D01*
X141343276Y-100104056D01*
X141343278Y-100104058D01*
X141349308Y-100107539D01*
X141367510Y-100121506D01*
X142315459Y-101069457D01*
X142317043Y-101071126D01*
X142344828Y-101101984D01*
X142344831Y-101101987D01*
X142366519Y-101111643D01*
X142378641Y-101118224D01*
X142398562Y-101131161D01*
X142398564Y-101131162D01*
X142405440Y-101132250D01*
X142427444Y-101138768D01*
X142433803Y-101141600D01*
X142457552Y-101141600D01*
X142471301Y-101142682D01*
X142476377Y-101143485D01*
X142494759Y-101146397D01*
X142501484Y-101144594D01*
X142524234Y-101141600D01*
X142667709Y-101141600D01*
X142724210Y-101162165D01*
X142742607Y-101187246D01*
X142744164Y-101186348D01*
X142747041Y-101191333D01*
X142747043Y-101191336D01*
X142835667Y-101306833D01*
X142951164Y-101395457D01*
X143085664Y-101451169D01*
X143230000Y-101470171D01*
X143374336Y-101451169D01*
X143508836Y-101395457D01*
X143624333Y-101306833D01*
X143712957Y-101191336D01*
X143768669Y-101056836D01*
X143787671Y-100912500D01*
X143768669Y-100768164D01*
X143712957Y-100633665D01*
X143683459Y-100595222D01*
X143624336Y-100518170D01*
X143624333Y-100518167D01*
X143508835Y-100429542D01*
X143374336Y-100373831D01*
X143230000Y-100354829D01*
X143085663Y-100373831D01*
X142951165Y-100429542D01*
X142835668Y-100518165D01*
X142835665Y-100518168D01*
X142747042Y-100633666D01*
X142744162Y-100638655D01*
X142741574Y-100637161D01*
X142708273Y-100673481D01*
X142667709Y-100683400D01*
X142613806Y-100683400D01*
X142557305Y-100662835D01*
X142551651Y-100657655D01*
X141754845Y-99860848D01*
X141729434Y-99806354D01*
X141729100Y-99798693D01*
X141729100Y-96281306D01*
X141749665Y-96224805D01*
X141754845Y-96219151D01*
X142608550Y-95365446D01*
X143476975Y-94497020D01*
X143478608Y-94495471D01*
X143509486Y-94467670D01*
X143519145Y-94445973D01*
X143525721Y-94433861D01*
X143538662Y-94413936D01*
X143539751Y-94407057D01*
X143546268Y-94385054D01*
X143549100Y-94378697D01*
X143549100Y-94354947D01*
X143550182Y-94341197D01*
X143553897Y-94317741D01*
X143553896Y-94317736D01*
X143552095Y-94311013D01*
X143549100Y-94288265D01*
X143549100Y-92298220D01*
X144056609Y-92298220D01*
X144075611Y-92442556D01*
X144131322Y-92577055D01*
X144219945Y-92692551D01*
X144219948Y-92692554D01*
X144312424Y-92763513D01*
X144335444Y-92781177D01*
X144469944Y-92836889D01*
X144614280Y-92855891D01*
X144758616Y-92836889D01*
X144893116Y-92781177D01*
X145008613Y-92692553D01*
X145070032Y-92612509D01*
X145120743Y-92580204D01*
X145139768Y-92578120D01*
X145997652Y-92578120D01*
X146054153Y-92598685D01*
X146059807Y-92603865D01*
X146674355Y-93218413D01*
X146699766Y-93272907D01*
X146700100Y-93280568D01*
X146700100Y-95867012D01*
X146679535Y-95923513D01*
X146665710Y-95936748D01*
X146585668Y-95998165D01*
X146585665Y-95998168D01*
X146497042Y-96113665D01*
X146441331Y-96248163D01*
X146422329Y-96392499D01*
X146422329Y-96392500D01*
X146441331Y-96536836D01*
X146497042Y-96671335D01*
X146585665Y-96786831D01*
X146585668Y-96786834D01*
X146701164Y-96875457D01*
X146835664Y-96931169D01*
X146960996Y-96947669D01*
X146979999Y-96950171D01*
X146979999Y-96950170D01*
X146980000Y-96950171D01*
X147124336Y-96931169D01*
X147258836Y-96875457D01*
X147374333Y-96786833D01*
X147462957Y-96671336D01*
X147518669Y-96536836D01*
X147537671Y-96392500D01*
X147518669Y-96248164D01*
X147462957Y-96113665D01*
X147454850Y-96103100D01*
X147374336Y-95998170D01*
X147374334Y-95998168D01*
X147374333Y-95998167D01*
X147339886Y-95971735D01*
X147294289Y-95936746D01*
X147261983Y-95886035D01*
X147259900Y-95867011D01*
X147259900Y-93188216D01*
X147261931Y-93175776D01*
X147260891Y-93175631D01*
X147262014Y-93167566D01*
X147262017Y-93167560D01*
X147259946Y-93122775D01*
X147259900Y-93120750D01*
X147259900Y-93102285D01*
X147259265Y-93098891D01*
X147258562Y-93092841D01*
X147257185Y-93063027D01*
X147253288Y-93054201D01*
X147247293Y-93034844D01*
X147245520Y-93025357D01*
X147229809Y-92999984D01*
X147226969Y-92994596D01*
X147223958Y-92987777D01*
X147214916Y-92967298D01*
X147214915Y-92967297D01*
X147214915Y-92967296D01*
X147208087Y-92960468D01*
X147195512Y-92944592D01*
X147190433Y-92936390D01*
X147190429Y-92936385D01*
X147166624Y-92918408D01*
X147162027Y-92914408D01*
X146390342Y-92142724D01*
X146382978Y-92132486D01*
X146382141Y-92133119D01*
X146377235Y-92126621D01*
X146344097Y-92096412D01*
X146342628Y-92095010D01*
X146329579Y-92081961D01*
X146326730Y-92080009D01*
X146321955Y-92076227D01*
X146299903Y-92056124D01*
X146299901Y-92056122D01*
X146299898Y-92056121D01*
X146299897Y-92056120D01*
X146290898Y-92052634D01*
X146272976Y-92043187D01*
X146265016Y-92037734D01*
X146258215Y-92036134D01*
X146235967Y-92030901D01*
X146230147Y-92029099D01*
X146202326Y-92018321D01*
X146202323Y-92018320D01*
X146202322Y-92018320D01*
X146202321Y-92018320D01*
X146192668Y-92018320D01*
X146172543Y-92015985D01*
X146163151Y-92013776D01*
X146133599Y-92017898D01*
X146127522Y-92018320D01*
X145139768Y-92018320D01*
X145083267Y-91997755D01*
X145070032Y-91983930D01*
X145008616Y-91903890D01*
X145008613Y-91903887D01*
X144893115Y-91815262D01*
X144758616Y-91759551D01*
X144614280Y-91740549D01*
X144469943Y-91759551D01*
X144335445Y-91815262D01*
X144219948Y-91903885D01*
X144219945Y-91903888D01*
X144131322Y-92019385D01*
X144075611Y-92153883D01*
X144056609Y-92298219D01*
X144056609Y-92298220D01*
X143549100Y-92298220D01*
X143549100Y-90981305D01*
X143569665Y-90924804D01*
X143574834Y-90919161D01*
X145926965Y-88567029D01*
X145928598Y-88565480D01*
X145959486Y-88537670D01*
X145969145Y-88515973D01*
X145975719Y-88503864D01*
X145988661Y-88483937D01*
X145989749Y-88477060D01*
X145996265Y-88455062D01*
X145999100Y-88448697D01*
X145999100Y-88424947D01*
X146000182Y-88411196D01*
X146003897Y-88387742D01*
X146003896Y-88387738D01*
X146003896Y-88387736D01*
X146002095Y-88381014D01*
X145999100Y-88358266D01*
X145999100Y-87694170D01*
X146019665Y-87637669D01*
X146071736Y-87607605D01*
X146073250Y-87607352D01*
X146129644Y-87598420D01*
X146239832Y-87542277D01*
X146327277Y-87454832D01*
X146383420Y-87344644D01*
X146397900Y-87253222D01*
X146397900Y-86691778D01*
X146383420Y-86600356D01*
X146327277Y-86490168D01*
X146239832Y-86402723D01*
X146129644Y-86346580D01*
X146129642Y-86346579D01*
X146129641Y-86346579D01*
X146059414Y-86335456D01*
X146038222Y-86332100D01*
X145501778Y-86332100D01*
X145484574Y-86334824D01*
X145410358Y-86346579D01*
X145300168Y-86402723D01*
X145212723Y-86490168D01*
X145156579Y-86600358D01*
X145142100Y-86691778D01*
X145142100Y-87253221D01*
X145156579Y-87344641D01*
X145156579Y-87344642D01*
X145156580Y-87344644D01*
X145212723Y-87454832D01*
X145300168Y-87542277D01*
X145410356Y-87598420D01*
X145466750Y-87607352D01*
X145519339Y-87636502D01*
X145540887Y-87692636D01*
X145540900Y-87694170D01*
X145540900Y-88268692D01*
X145520335Y-88325193D01*
X145515155Y-88330847D01*
X143163040Y-90682961D01*
X143161372Y-90684544D01*
X143130514Y-90712329D01*
X143127104Y-90719989D01*
X143120849Y-90734034D01*
X143114278Y-90746137D01*
X143108625Y-90754844D01*
X143101338Y-90766065D01*
X143100248Y-90772947D01*
X143093735Y-90794934D01*
X143090900Y-90801303D01*
X143090900Y-90825051D01*
X143089818Y-90838800D01*
X143086103Y-90862255D01*
X143086103Y-90862258D01*
X143087905Y-90868982D01*
X143090900Y-90891733D01*
X143090900Y-94198692D01*
X143070335Y-94255193D01*
X143065155Y-94260847D01*
X141343040Y-95982961D01*
X141341372Y-95984544D01*
X141310514Y-96012329D01*
X141307859Y-96018292D01*
X141300849Y-96034034D01*
X141294278Y-96046137D01*
X141285226Y-96060076D01*
X141281338Y-96066065D01*
X141280248Y-96072947D01*
X141273735Y-96094934D01*
X141270900Y-96101303D01*
X141270900Y-96125051D01*
X141269818Y-96138800D01*
X141266103Y-96162255D01*
X141266103Y-96162258D01*
X134672394Y-96162258D01*
X135552269Y-95282384D01*
X135554191Y-95280573D01*
X135598324Y-95241477D01*
X135631825Y-95192941D01*
X135633390Y-95190815D01*
X135669739Y-95144419D01*
X135674745Y-95133293D01*
X135682561Y-95119436D01*
X135689496Y-95109391D01*
X135710401Y-95054265D01*
X135711414Y-95051822D01*
X135719928Y-95032904D01*
X135735609Y-94998064D01*
X135737808Y-94986058D01*
X135742082Y-94970730D01*
X135746406Y-94959329D01*
X135746408Y-94959325D01*
X135753512Y-94900811D01*
X135753911Y-94898194D01*
X135757968Y-94876055D01*
X135764540Y-94840197D01*
X135760980Y-94781343D01*
X135760900Y-94778689D01*
X135760900Y-91371310D01*
X135760980Y-91368656D01*
X135761421Y-91361353D01*
X135764540Y-91309803D01*
X135753911Y-91251806D01*
X135753511Y-91249179D01*
X135752988Y-91244868D01*
X135746408Y-91190675D01*
X135742080Y-91179263D01*
X135737808Y-91163943D01*
X135735609Y-91151936D01*
X135718719Y-91114408D01*
X135711413Y-91098174D01*
X135710397Y-91095720D01*
X135689497Y-91040610D01*
X135682562Y-91030564D01*
X135674747Y-91016708D01*
X135669739Y-91005580D01*
X135659810Y-90992906D01*
X135633385Y-90959176D01*
X135631811Y-90957037D01*
X135605659Y-90919150D01*
X135598324Y-90908523D01*
X135554201Y-90869433D01*
X135552277Y-90867623D01*
X135427154Y-90742500D01*
X137804829Y-90742500D01*
X137823831Y-90886836D01*
X137879542Y-91021335D01*
X137968165Y-91136831D01*
X137968168Y-91136834D01*
X138000191Y-91161406D01*
X138083664Y-91225457D01*
X138218164Y-91281169D01*
X138343496Y-91297669D01*
X138362499Y-91300171D01*
X138362499Y-91300170D01*
X138362500Y-91300171D01*
X138506836Y-91281169D01*
X138641336Y-91225457D01*
X138756833Y-91136833D01*
X138818252Y-91056789D01*
X138868963Y-91024484D01*
X138887988Y-91022400D01*
X139841932Y-91022400D01*
X139898433Y-91042965D01*
X139904087Y-91048145D01*
X140274355Y-91418413D01*
X140299766Y-91472907D01*
X140300100Y-91480568D01*
X140300100Y-92707012D01*
X140279535Y-92763513D01*
X140265710Y-92776748D01*
X140185668Y-92838165D01*
X140185665Y-92838168D01*
X140097042Y-92953665D01*
X140041331Y-93088163D01*
X140022329Y-93232499D01*
X140022329Y-93232500D01*
X140041331Y-93376836D01*
X140097042Y-93511335D01*
X140185665Y-93626831D01*
X140185668Y-93626834D01*
X140265592Y-93688162D01*
X140301164Y-93715457D01*
X140435664Y-93771169D01*
X140560996Y-93787669D01*
X140579999Y-93790171D01*
X140579999Y-93790170D01*
X140580000Y-93790171D01*
X140724336Y-93771169D01*
X140858836Y-93715457D01*
X140974333Y-93626833D01*
X141062957Y-93511336D01*
X141118669Y-93376836D01*
X141137671Y-93232500D01*
X141118669Y-93088164D01*
X141062957Y-92953665D01*
X141035904Y-92918408D01*
X140974336Y-92838170D01*
X140974334Y-92838168D01*
X140974333Y-92838167D01*
X140900063Y-92781177D01*
X140894289Y-92776746D01*
X140861983Y-92726035D01*
X140859900Y-92707011D01*
X140859900Y-91388216D01*
X140861931Y-91375776D01*
X140860891Y-91375631D01*
X140862014Y-91367566D01*
X140862017Y-91367560D01*
X140859946Y-91322775D01*
X140859900Y-91320750D01*
X140859900Y-91302285D01*
X140859264Y-91298889D01*
X140858562Y-91292841D01*
X140857185Y-91263027D01*
X140853288Y-91254201D01*
X140847293Y-91234844D01*
X140845520Y-91225357D01*
X140829809Y-91199984D01*
X140826969Y-91194596D01*
X140816902Y-91171797D01*
X140814916Y-91167298D01*
X140814915Y-91167297D01*
X140814915Y-91167296D01*
X140808087Y-91160468D01*
X140795512Y-91144592D01*
X140790433Y-91136390D01*
X140790429Y-91136385D01*
X140766624Y-91118408D01*
X140762027Y-91114408D01*
X140234622Y-90587004D01*
X140227258Y-90576766D01*
X140226421Y-90577399D01*
X140221515Y-90570901D01*
X140188377Y-90540692D01*
X140186908Y-90539290D01*
X140173859Y-90526241D01*
X140171010Y-90524289D01*
X140166235Y-90520507D01*
X140144183Y-90500404D01*
X140144181Y-90500402D01*
X140144178Y-90500401D01*
X140144177Y-90500400D01*
X140135178Y-90496914D01*
X140117256Y-90487467D01*
X140109296Y-90482014D01*
X140102495Y-90480414D01*
X140080247Y-90475181D01*
X140074427Y-90473379D01*
X140046606Y-90462601D01*
X140046603Y-90462600D01*
X140046602Y-90462600D01*
X140046601Y-90462600D01*
X140036948Y-90462600D01*
X140016823Y-90460265D01*
X140007431Y-90458056D01*
X139977879Y-90462178D01*
X139971802Y-90462600D01*
X138887988Y-90462600D01*
X138831487Y-90442035D01*
X138818252Y-90428210D01*
X138756836Y-90348170D01*
X138756833Y-90348167D01*
X138641335Y-90259542D01*
X138506836Y-90203831D01*
X138362500Y-90184829D01*
X138218163Y-90203831D01*
X138083665Y-90259542D01*
X137968168Y-90348165D01*
X137968165Y-90348168D01*
X137879542Y-90463665D01*
X137823831Y-90598163D01*
X137804829Y-90742499D01*
X137804829Y-90742500D01*
X135427154Y-90742500D01*
X134108120Y-89423466D01*
X134082709Y-89368972D01*
X134082375Y-89361311D01*
X134082375Y-89042500D01*
X137804829Y-89042500D01*
X137823831Y-89186836D01*
X137879542Y-89321335D01*
X137896139Y-89342965D01*
X137968167Y-89436833D01*
X138083664Y-89525457D01*
X138218164Y-89581169D01*
X138343496Y-89597669D01*
X138362499Y-89600171D01*
X138362499Y-89600170D01*
X138362500Y-89600171D01*
X138506836Y-89581169D01*
X138641336Y-89525457D01*
X138756833Y-89436833D01*
X138818252Y-89356789D01*
X138868963Y-89324484D01*
X138887988Y-89322400D01*
X140241932Y-89322400D01*
X140298433Y-89342965D01*
X140304086Y-89348144D01*
X141894355Y-90938413D01*
X141919766Y-90992906D01*
X141920100Y-91000567D01*
X141920100Y-93127012D01*
X141899535Y-93183513D01*
X141885710Y-93196748D01*
X141805668Y-93258165D01*
X141805665Y-93258168D01*
X141717042Y-93373665D01*
X141661331Y-93508163D01*
X141642329Y-93652499D01*
X141642329Y-93652500D01*
X141661331Y-93796836D01*
X141717042Y-93931335D01*
X141786025Y-94021236D01*
X141805667Y-94046833D01*
X141921164Y-94135457D01*
X142055664Y-94191169D01*
X142180996Y-94207669D01*
X142199999Y-94210171D01*
X142199999Y-94210170D01*
X142200000Y-94210171D01*
X142344336Y-94191169D01*
X142478836Y-94135457D01*
X142594333Y-94046833D01*
X142682957Y-93931336D01*
X142738669Y-93796836D01*
X142757671Y-93652500D01*
X142738669Y-93508164D01*
X142682957Y-93373665D01*
X142611522Y-93280568D01*
X142594336Y-93258170D01*
X142594333Y-93258167D01*
X142542525Y-93218413D01*
X142514288Y-93196746D01*
X142481982Y-93146036D01*
X142479900Y-93127020D01*
X142479900Y-90908218D01*
X142481931Y-90895777D01*
X142480892Y-90895632D01*
X142482015Y-90887566D01*
X142482018Y-90887560D01*
X142479946Y-90842764D01*
X142479900Y-90840737D01*
X142479900Y-90822284D01*
X142479265Y-90818890D01*
X142478563Y-90812845D01*
X142477185Y-90783027D01*
X142473285Y-90774196D01*
X142467293Y-90754844D01*
X142465667Y-90746145D01*
X142465520Y-90745357D01*
X142458505Y-90734028D01*
X142449813Y-90719989D01*
X142446971Y-90714598D01*
X142434917Y-90687298D01*
X142434916Y-90687296D01*
X142428084Y-90680464D01*
X142415509Y-90664589D01*
X142410431Y-90656387D01*
X142410430Y-90656386D01*
X142410429Y-90656385D01*
X142386628Y-90638411D01*
X142382031Y-90634411D01*
X140634622Y-88887004D01*
X140627258Y-88876766D01*
X140626421Y-88877399D01*
X140621515Y-88870901D01*
X140588377Y-88840692D01*
X140586908Y-88839290D01*
X140573859Y-88826241D01*
X140571010Y-88824289D01*
X140566235Y-88820507D01*
X140544183Y-88800404D01*
X140544181Y-88800402D01*
X140544178Y-88800401D01*
X140544177Y-88800400D01*
X140535178Y-88796914D01*
X140517256Y-88787467D01*
X140509296Y-88782014D01*
X140502495Y-88780414D01*
X140480247Y-88775181D01*
X140474427Y-88773379D01*
X140446606Y-88762601D01*
X140446603Y-88762600D01*
X140446602Y-88762600D01*
X140446601Y-88762600D01*
X140436948Y-88762600D01*
X140416823Y-88760265D01*
X140407431Y-88758056D01*
X140377879Y-88762178D01*
X140371802Y-88762600D01*
X138887988Y-88762600D01*
X138831487Y-88742035D01*
X138818252Y-88728210D01*
X138756836Y-88648170D01*
X138756834Y-88648168D01*
X138756833Y-88648167D01*
X138723499Y-88622589D01*
X138676789Y-88586746D01*
X138644483Y-88536035D01*
X138642400Y-88517011D01*
X138642400Y-86099999D01*
X149854246Y-86099999D01*
X149865682Y-86194186D01*
X149873592Y-86259325D01*
X149873594Y-86259329D01*
X149930503Y-86409390D01*
X149930503Y-86409391D01*
X150021049Y-86540569D01*
X150021676Y-86541477D01*
X150141809Y-86647905D01*
X150283920Y-86722491D01*
X150439752Y-86760900D01*
X150439754Y-86760900D01*
X150600245Y-86760900D01*
X150600248Y-86760900D01*
X150756080Y-86722491D01*
X150898191Y-86647905D01*
X150898191Y-86647904D01*
X150902899Y-86645434D01*
X150903737Y-86647030D01*
X150945870Y-86633900D01*
X151642441Y-86633900D01*
X151698942Y-86654465D01*
X151704596Y-86659645D01*
X153165355Y-88120403D01*
X153190766Y-88174897D01*
X153191100Y-88182558D01*
X153191100Y-93822672D01*
X153175541Y-93872604D01*
X153135502Y-93930610D01*
X153091427Y-94046831D01*
X153078592Y-94080675D01*
X153078591Y-94080677D01*
X153078591Y-94080680D01*
X153059246Y-94239999D01*
X153059246Y-94240000D01*
X153078592Y-94399325D01*
X153103497Y-94464996D01*
X153135503Y-94549390D01*
X153135503Y-94549391D01*
X153226673Y-94681473D01*
X153226676Y-94681477D01*
X153346809Y-94787905D01*
X153488920Y-94862491D01*
X153644752Y-94900900D01*
X153644754Y-94900900D01*
X153805245Y-94900900D01*
X153805248Y-94900900D01*
X153961080Y-94862491D01*
X154103191Y-94787905D01*
X154223324Y-94681477D01*
X154314496Y-94549391D01*
X154371408Y-94399325D01*
X154390754Y-94240000D01*
X154371408Y-94080675D01*
X154314772Y-93931336D01*
X154314497Y-93930610D01*
X154274459Y-93872604D01*
X154258900Y-93822672D01*
X154258900Y-87934896D01*
X154258926Y-87933395D01*
X154259724Y-87910010D01*
X154261095Y-87869888D01*
X154250730Y-87827357D01*
X154249893Y-87822952D01*
X154243935Y-87779601D01*
X154235896Y-87761095D01*
X154231121Y-87746892D01*
X154226346Y-87727295D01*
X154204895Y-87689146D01*
X154202894Y-87685115D01*
X154185464Y-87644987D01*
X154185464Y-87644986D01*
X154172730Y-87629334D01*
X154164299Y-87616947D01*
X154154414Y-87599365D01*
X154123469Y-87568420D01*
X154120464Y-87565090D01*
X154092842Y-87531138D01*
X154076358Y-87519502D01*
X154064900Y-87509851D01*
X152284482Y-85729432D01*
X152283487Y-85728404D01*
X152240106Y-85681954D01*
X152202722Y-85659219D01*
X152199000Y-85656687D01*
X152170407Y-85635005D01*
X152164130Y-85630245D01*
X152164128Y-85630244D01*
X152156345Y-85627175D01*
X152145364Y-85622844D01*
X152131945Y-85616179D01*
X152114706Y-85605696D01*
X152114703Y-85605695D01*
X152092312Y-85599421D01*
X152072561Y-85593888D01*
X152068300Y-85592454D01*
X152027597Y-85576403D01*
X152007524Y-85574338D01*
X151992807Y-85571541D01*
X151981061Y-85568251D01*
X151973384Y-85566100D01*
X151973383Y-85566100D01*
X151929630Y-85566100D01*
X151925133Y-85565869D01*
X151881606Y-85561394D01*
X151881598Y-85561394D01*
X151861719Y-85564822D01*
X151846785Y-85566100D01*
X150945870Y-85566100D01*
X150903737Y-85552969D01*
X150902899Y-85554566D01*
X150756087Y-85477512D01*
X150756081Y-85477509D01*
X150756080Y-85477509D01*
X150756078Y-85477508D01*
X150756077Y-85477508D01*
X150702190Y-85464226D01*
X150600248Y-85439100D01*
X150439752Y-85439100D01*
X150362935Y-85458033D01*
X150283922Y-85477508D01*
X150283920Y-85477508D01*
X150283920Y-85477509D01*
X150236549Y-85502370D01*
X150141811Y-85552093D01*
X150141806Y-85552097D01*
X150069474Y-85616178D01*
X150022215Y-85658046D01*
X150021673Y-85658526D01*
X149930503Y-85790608D01*
X149930503Y-85790609D01*
X149883359Y-85914922D01*
X149873592Y-85940675D01*
X149873591Y-85940677D01*
X149873591Y-85940680D01*
X149854246Y-86099999D01*
X138642400Y-86099999D01*
X138642400Y-83889846D01*
X138662965Y-83833345D01*
X138668134Y-83827702D01*
X139155493Y-83340343D01*
X139165730Y-83332987D01*
X139165095Y-83332146D01*
X139171598Y-83327235D01*
X139182144Y-83315666D01*
X139201843Y-83294056D01*
X139203168Y-83292669D01*
X139216258Y-83279580D01*
X139218210Y-83276728D01*
X139221983Y-83271963D01*
X139242098Y-83249901D01*
X139245586Y-83240894D01*
X139255033Y-83222974D01*
X139260486Y-83215016D01*
X139267320Y-83185956D01*
X139269116Y-83180156D01*
X139279900Y-83152322D01*
X139279900Y-83142663D01*
X139282235Y-83122537D01*
X139282273Y-83122376D01*
X139284443Y-83113151D01*
X139280321Y-83083605D01*
X139279900Y-83077528D01*
X139279900Y-81029325D01*
X139300465Y-80972824D01*
X139305634Y-80967181D01*
X139513541Y-80759274D01*
X139568034Y-80733864D01*
X139626112Y-80749427D01*
X139660600Y-80798680D01*
X139657318Y-80848759D01*
X139657661Y-80848828D01*
X139657144Y-80851425D01*
X139656906Y-80855063D01*
X139655972Y-80857317D01*
X139647100Y-80901921D01*
X139647100Y-82632036D01*
X139654898Y-82671235D01*
X139655972Y-82676636D01*
X139689766Y-82727212D01*
X139706701Y-82738528D01*
X139740341Y-82761006D01*
X139747741Y-82762477D01*
X139784943Y-82769878D01*
X141515056Y-82769877D01*
X141515058Y-82769877D01*
X141527750Y-82767352D01*
X141559658Y-82761006D01*
X141610234Y-82727212D01*
X141644028Y-82676636D01*
X141652900Y-82632035D01*
X141652899Y-81766978D01*
X142182247Y-81766978D01*
X142200638Y-81953707D01*
X142201612Y-81963587D01*
X142258957Y-82152626D01*
X142258958Y-82152628D01*
X142352084Y-82326856D01*
X142477411Y-82479567D01*
X142630122Y-82604894D01*
X142804350Y-82698020D01*
X142900573Y-82727209D01*
X142950215Y-82742268D01*
X142993397Y-82755367D01*
X143190000Y-82774731D01*
X143386603Y-82755367D01*
X143575650Y-82698020D01*
X143749878Y-82604894D01*
X143902589Y-82479567D01*
X144027916Y-82326856D01*
X144075479Y-82237870D01*
X144120250Y-82197735D01*
X144180345Y-82195767D01*
X144227645Y-82232889D01*
X144240900Y-82279306D01*
X144240900Y-82562850D01*
X144240840Y-82565151D01*
X144238757Y-82604894D01*
X144238666Y-82606639D01*
X144247177Y-82628812D01*
X144251092Y-82642029D01*
X144256031Y-82665267D01*
X144260124Y-82670900D01*
X144271071Y-82691061D01*
X144273567Y-82697562D01*
X144273568Y-82697564D01*
X144290364Y-82714361D01*
X144299320Y-82724847D01*
X144313276Y-82744056D01*
X144313278Y-82744058D01*
X144319308Y-82747539D01*
X144337510Y-82761506D01*
X145515155Y-83939151D01*
X145540566Y-83993645D01*
X145540900Y-84001306D01*
X145540900Y-84425829D01*
X145520335Y-84482330D01*
X145468264Y-84512394D01*
X145466752Y-84512647D01*
X145410358Y-84521579D01*
X145300168Y-84577723D01*
X145212723Y-84665168D01*
X145156579Y-84775358D01*
X145142100Y-84866778D01*
X145142100Y-85428221D01*
X145156579Y-85519641D01*
X145156579Y-85519642D01*
X145156580Y-85519644D01*
X145212723Y-85629832D01*
X145300168Y-85717277D01*
X145410356Y-85773420D01*
X145501778Y-85787900D01*
X145501779Y-85787900D01*
X146038221Y-85787900D01*
X146038222Y-85787900D01*
X146129644Y-85773420D01*
X146239832Y-85717277D01*
X146327277Y-85629832D01*
X146383420Y-85519644D01*
X146397900Y-85428222D01*
X146397900Y-84866778D01*
X146383420Y-84775356D01*
X146327277Y-84665168D01*
X146239832Y-84577723D01*
X146129644Y-84521580D01*
X146129642Y-84521579D01*
X146129641Y-84521579D01*
X146073248Y-84512647D01*
X146020660Y-84483496D01*
X145999113Y-84427362D01*
X145999100Y-84425829D01*
X145999100Y-83877156D01*
X145999160Y-83874856D01*
X146000566Y-83848011D01*
X146001334Y-83833361D01*
X145992819Y-83811179D01*
X145988907Y-83797971D01*
X145983969Y-83774735D01*
X145979874Y-83769099D01*
X145968927Y-83748935D01*
X145966433Y-83742438D01*
X145966432Y-83742437D01*
X145966432Y-83742436D01*
X145949630Y-83725634D01*
X145940677Y-83715150D01*
X145926721Y-83695941D01*
X145926722Y-83695941D01*
X145920692Y-83692460D01*
X145902488Y-83678492D01*
X144724845Y-82500848D01*
X144699434Y-82446354D01*
X144699100Y-82438693D01*
X144699100Y-82316724D01*
X144719665Y-82260223D01*
X144771736Y-82230159D01*
X144830950Y-82240600D01*
X144864520Y-82275287D01*
X144892084Y-82326856D01*
X145017411Y-82479567D01*
X145170122Y-82604894D01*
X145344350Y-82698020D01*
X145440573Y-82727209D01*
X145490215Y-82742268D01*
X145533397Y-82755367D01*
X145730000Y-82774731D01*
X145926603Y-82755367D01*
X146042175Y-82720308D01*
X146102213Y-82723586D01*
X146129846Y-82742268D01*
X146896144Y-83508565D01*
X146896145Y-83508566D01*
X147197944Y-83810366D01*
X147197947Y-83810368D01*
X147220871Y-83833292D01*
X147243605Y-83844876D01*
X147255346Y-83852071D01*
X147275990Y-83867069D01*
X147300248Y-83874950D01*
X147312980Y-83880224D01*
X147335716Y-83891809D01*
X147360927Y-83895801D01*
X147374309Y-83899014D01*
X147398575Y-83906899D01*
X147429182Y-83906899D01*
X147429206Y-83906900D01*
X147430998Y-83906900D01*
X154385047Y-83906900D01*
X154441548Y-83927465D01*
X154447201Y-83932644D01*
X157004922Y-86490366D01*
X157004925Y-86490368D01*
X157417355Y-86902797D01*
X157442766Y-86957291D01*
X157443100Y-86964952D01*
X157443100Y-95328931D01*
X157435157Y-95365446D01*
X157381702Y-95482495D01*
X157381700Y-95482501D01*
X157361932Y-95619996D01*
X157361932Y-95620003D01*
X157381700Y-95757498D01*
X157381701Y-95757503D01*
X157381702Y-95757505D01*
X157439411Y-95883869D01*
X157530383Y-95988857D01*
X157530385Y-95988858D01*
X157530386Y-95988859D01*
X157647245Y-96063960D01*
X157647246Y-96063960D01*
X157647249Y-96063962D01*
X157716746Y-96084368D01*
X157780536Y-96103099D01*
X157780539Y-96103099D01*
X157780541Y-96103100D01*
X157780542Y-96103100D01*
X157919458Y-96103100D01*
X157919459Y-96103100D01*
X157919461Y-96103099D01*
X157919463Y-96103099D01*
X157935305Y-96098446D01*
X158052751Y-96063962D01*
X158169617Y-95988857D01*
X158260589Y-95883869D01*
X158318298Y-95757505D01*
X158332023Y-95662043D01*
X158338068Y-95620003D01*
X158338068Y-95619996D01*
X158318299Y-95482501D01*
X158318298Y-95482500D01*
X158318298Y-95482495D01*
X158264842Y-95365445D01*
X158256900Y-95328931D01*
X158256900Y-86695553D01*
X158249019Y-86671299D01*
X158245799Y-86657885D01*
X158241809Y-86632693D01*
X158241809Y-86632692D01*
X158230230Y-86609968D01*
X158224950Y-86597222D01*
X158217070Y-86572968D01*
X158202071Y-86552324D01*
X158194868Y-86540569D01*
X158183292Y-86517849D01*
X158183291Y-86517848D01*
X158183291Y-86517847D01*
X158092151Y-86426707D01*
X158092151Y-86426708D01*
X157580368Y-85914925D01*
X157580366Y-85914922D01*
X156679128Y-85013684D01*
X163589884Y-85013684D01*
X163609115Y-85245780D01*
X163609116Y-85245786D01*
X163666286Y-85471544D01*
X163666289Y-85471552D01*
X163759835Y-85684814D01*
X163759840Y-85684825D01*
X163759844Y-85684831D01*
X163887215Y-85879789D01*
X163887216Y-85879791D01*
X163943268Y-85940680D01*
X164044954Y-86051140D01*
X164228740Y-86194186D01*
X164433563Y-86305031D01*
X164653837Y-86380651D01*
X164653839Y-86380651D01*
X164653841Y-86380652D01*
X164883550Y-86418984D01*
X164883554Y-86418984D01*
X165116450Y-86418984D01*
X165346158Y-86380652D01*
X165346158Y-86380651D01*
X165346163Y-86380651D01*
X165566437Y-86305031D01*
X165771260Y-86194186D01*
X165955046Y-86051140D01*
X166112780Y-85879795D01*
X166240160Y-85684825D01*
X166333712Y-85471548D01*
X166390884Y-85245781D01*
X166410116Y-85013684D01*
X166390884Y-84781587D01*
X166390883Y-84781581D01*
X166333713Y-84555823D01*
X166333710Y-84555815D01*
X166277365Y-84427362D01*
X166240160Y-84342543D01*
X166159435Y-84218984D01*
X166112784Y-84147578D01*
X166112783Y-84147576D01*
X165955050Y-83976232D01*
X165955048Y-83976231D01*
X165955046Y-83976228D01*
X165771260Y-83833182D01*
X165566437Y-83722337D01*
X165566433Y-83722335D01*
X165566430Y-83722334D01*
X165346167Y-83646718D01*
X165346158Y-83646715D01*
X165116450Y-83608384D01*
X165116446Y-83608384D01*
X164883554Y-83608384D01*
X164883550Y-83608384D01*
X164653841Y-83646715D01*
X164653832Y-83646718D01*
X164433569Y-83722334D01*
X164433564Y-83722336D01*
X164433563Y-83722337D01*
X164228740Y-83833182D01*
X164059514Y-83964896D01*
X164044949Y-83976232D01*
X163887216Y-84147576D01*
X163887215Y-84147578D01*
X163759844Y-84342536D01*
X163759835Y-84342553D01*
X163666289Y-84555815D01*
X163666286Y-84555823D01*
X163609116Y-84781581D01*
X163609115Y-84781587D01*
X163589884Y-85013684D01*
X156679128Y-85013684D01*
X154855077Y-83189634D01*
X154855076Y-83189634D01*
X154832151Y-83166708D01*
X154832148Y-83166706D01*
X154809429Y-83155130D01*
X154797668Y-83147923D01*
X154777036Y-83132932D01*
X154777027Y-83132927D01*
X154752770Y-83125046D01*
X154740027Y-83119768D01*
X154717304Y-83108190D01*
X154717307Y-83108190D01*
X154692114Y-83104200D01*
X154678707Y-83100982D01*
X154654446Y-83093100D01*
X154622024Y-83093100D01*
X147667975Y-83093100D01*
X147611474Y-83072535D01*
X147605821Y-83067355D01*
X147471588Y-82933123D01*
X147322769Y-82784304D01*
X159672286Y-82784304D01*
X159682511Y-82959888D01*
X159682512Y-82959898D01*
X159732954Y-83128382D01*
X159732955Y-83128385D01*
X159820899Y-83280709D01*
X159853879Y-83315666D01*
X160202556Y-82711737D01*
X160250885Y-82806587D01*
X160340481Y-82896183D01*
X160453378Y-82953707D01*
X160547045Y-82968542D01*
X160610007Y-82968542D01*
X160643985Y-82963160D01*
X160293572Y-83570097D01*
X160428527Y-83585871D01*
X160603225Y-83565452D01*
X160768503Y-83505294D01*
X160915447Y-83408648D01*
X160915453Y-83408643D01*
X161036150Y-83280711D01*
X161103122Y-83164711D01*
X160721723Y-82944510D01*
X160816571Y-82896183D01*
X160906167Y-82806587D01*
X160963691Y-82693690D01*
X160983512Y-82568542D01*
X160973144Y-82503080D01*
X161357123Y-82724770D01*
X161402036Y-82646977D01*
X161454224Y-82525993D01*
X161484766Y-82352777D01*
X161474540Y-82177191D01*
X161424097Y-82008700D01*
X161424096Y-82008697D01*
X161336150Y-81856370D01*
X161303172Y-81821415D01*
X160954493Y-82425343D01*
X160906167Y-82330497D01*
X160816571Y-82240901D01*
X160703674Y-82183377D01*
X160610007Y-82168542D01*
X160547045Y-82168542D01*
X160513062Y-82173924D01*
X160863479Y-81566984D01*
X160728526Y-81551212D01*
X160553826Y-81571631D01*
X160388553Y-81631787D01*
X160241595Y-81728442D01*
X160241593Y-81728444D01*
X160120902Y-81856369D01*
X160120899Y-81856373D01*
X160053927Y-81972372D01*
X160435329Y-82192573D01*
X160340481Y-82240901D01*
X160250885Y-82330497D01*
X160193361Y-82443394D01*
X160173540Y-82568542D01*
X160183907Y-82634003D01*
X159799927Y-82412312D01*
X159755019Y-82490095D01*
X159755013Y-82490107D01*
X159702827Y-82611090D01*
X159672286Y-82784304D01*
X147322769Y-82784304D01*
X146705290Y-82166825D01*
X146679879Y-82112331D01*
X146683330Y-82079153D01*
X146702879Y-82014709D01*
X146718389Y-81963581D01*
X146737753Y-81766978D01*
X147262247Y-81766978D01*
X147280638Y-81953707D01*
X147281612Y-81963587D01*
X147338957Y-82152626D01*
X147338958Y-82152628D01*
X147432084Y-82326856D01*
X147557411Y-82479567D01*
X147710122Y-82604894D01*
X147884350Y-82698020D01*
X147980573Y-82727209D01*
X148030215Y-82742268D01*
X148073397Y-82755367D01*
X148270000Y-82774731D01*
X148466603Y-82755367D01*
X148655650Y-82698020D01*
X148829878Y-82604894D01*
X148982589Y-82479567D01*
X149107916Y-82326856D01*
X149201042Y-82152628D01*
X149258389Y-81963581D01*
X149277753Y-81766978D01*
X149802247Y-81766978D01*
X149820638Y-81953707D01*
X149821612Y-81963587D01*
X149878957Y-82152626D01*
X149878958Y-82152628D01*
X149972084Y-82326856D01*
X150097411Y-82479567D01*
X150250122Y-82604894D01*
X150424350Y-82698020D01*
X150520573Y-82727209D01*
X150570215Y-82742268D01*
X150613397Y-82755367D01*
X150810000Y-82774731D01*
X151006603Y-82755367D01*
X151195650Y-82698020D01*
X151369878Y-82604894D01*
X151522589Y-82479567D01*
X151647916Y-82326856D01*
X151741042Y-82152628D01*
X151798389Y-81963581D01*
X151817753Y-81766978D01*
X152342247Y-81766978D01*
X152360638Y-81953707D01*
X152361612Y-81963587D01*
X152418957Y-82152626D01*
X152418958Y-82152628D01*
X152512084Y-82326856D01*
X152637411Y-82479567D01*
X152790122Y-82604894D01*
X152964350Y-82698020D01*
X153060573Y-82727209D01*
X153110215Y-82742268D01*
X153153397Y-82755367D01*
X153350000Y-82774731D01*
X153546603Y-82755367D01*
X153735650Y-82698020D01*
X153909878Y-82604894D01*
X154062589Y-82479567D01*
X154187916Y-82326856D01*
X154281042Y-82152628D01*
X154327615Y-81999098D01*
X157812677Y-81999098D01*
X157812678Y-81999098D01*
X157845710Y-82122375D01*
X157893372Y-82195767D01*
X157915221Y-82229412D01*
X157915222Y-82229413D01*
X157989451Y-82289522D01*
X157989454Y-82289525D01*
X157989456Y-82289526D01*
X158650594Y-82671234D01*
X158650602Y-82671237D01*
X158650604Y-82671238D01*
X158719179Y-82697562D01*
X158739772Y-82705467D01*
X158867224Y-82712146D01*
X158990501Y-82679114D01*
X159097537Y-82609604D01*
X159157652Y-82535368D01*
X159839360Y-81354616D01*
X159873592Y-81265437D01*
X159877893Y-81183377D01*
X159880272Y-81137991D01*
X159880272Y-81137988D01*
X159880271Y-81137987D01*
X159880272Y-81137986D01*
X159847240Y-81014709D01*
X159777729Y-80907672D01*
X159770628Y-80901922D01*
X159703498Y-80847561D01*
X159703495Y-80847558D01*
X159360870Y-80649744D01*
X159042356Y-80465850D01*
X159042351Y-80465848D01*
X159042345Y-80465845D01*
X158953180Y-80431617D01*
X158825727Y-80424938D01*
X158825726Y-80424938D01*
X158702449Y-80457970D01*
X158702447Y-80457970D01*
X158702447Y-80457971D01*
X158595412Y-80527480D01*
X158595411Y-80527481D01*
X158535301Y-80601711D01*
X158535298Y-80601714D01*
X158132835Y-81298802D01*
X157853590Y-81782468D01*
X157853590Y-81782469D01*
X157853589Y-81782471D01*
X157819358Y-81871645D01*
X157819357Y-81871649D01*
X157812677Y-81999092D01*
X157812677Y-81999095D01*
X157812677Y-81999098D01*
X154327615Y-81999098D01*
X154338389Y-81963581D01*
X154357753Y-81766978D01*
X154338389Y-81570375D01*
X154281042Y-81381328D01*
X154187916Y-81207100D01*
X154062589Y-81054389D01*
X153909878Y-80929062D01*
X153735650Y-80835936D01*
X153735649Y-80835935D01*
X153735648Y-80835935D01*
X153546609Y-80778590D01*
X153546604Y-80778589D01*
X153546603Y-80778589D01*
X153350000Y-80759225D01*
X153153397Y-80778589D01*
X153153395Y-80778589D01*
X153153390Y-80778590D01*
X152964351Y-80835935D01*
X152790121Y-80929062D01*
X152637413Y-81054387D01*
X152637409Y-81054391D01*
X152512084Y-81207099D01*
X152418957Y-81381329D01*
X152361612Y-81570368D01*
X152361611Y-81570373D01*
X152361611Y-81570375D01*
X152342247Y-81766978D01*
X151817753Y-81766978D01*
X151798389Y-81570375D01*
X151741042Y-81381328D01*
X151647916Y-81207100D01*
X151522589Y-81054389D01*
X151369878Y-80929062D01*
X151195650Y-80835936D01*
X151195649Y-80835935D01*
X151195648Y-80835935D01*
X151006609Y-80778590D01*
X151006604Y-80778589D01*
X151006603Y-80778589D01*
X150810000Y-80759225D01*
X150809999Y-80759225D01*
X150782211Y-80761962D01*
X150613397Y-80778589D01*
X150613395Y-80778589D01*
X150613390Y-80778590D01*
X150424351Y-80835935D01*
X150250121Y-80929062D01*
X150097413Y-81054387D01*
X150097409Y-81054391D01*
X149972084Y-81207099D01*
X149878957Y-81381329D01*
X149821612Y-81570368D01*
X149821611Y-81570373D01*
X149821611Y-81570375D01*
X149802247Y-81766978D01*
X149277753Y-81766978D01*
X149258389Y-81570375D01*
X149201042Y-81381328D01*
X149107916Y-81207100D01*
X148982589Y-81054389D01*
X148829878Y-80929062D01*
X148655650Y-80835936D01*
X148655649Y-80835935D01*
X148655648Y-80835935D01*
X148466609Y-80778590D01*
X148466604Y-80778589D01*
X148466603Y-80778589D01*
X148270000Y-80759225D01*
X148073397Y-80778589D01*
X148073395Y-80778589D01*
X148073390Y-80778590D01*
X147884351Y-80835935D01*
X147710121Y-80929062D01*
X147557413Y-81054387D01*
X147557409Y-81054391D01*
X147432084Y-81207099D01*
X147338957Y-81381329D01*
X147281612Y-81570368D01*
X147281611Y-81570373D01*
X147281611Y-81570375D01*
X147262247Y-81766978D01*
X146737753Y-81766978D01*
X146718389Y-81570375D01*
X146661042Y-81381328D01*
X146567916Y-81207100D01*
X146442589Y-81054389D01*
X146289878Y-80929062D01*
X146115650Y-80835936D01*
X146115649Y-80835935D01*
X146115648Y-80835935D01*
X145926609Y-80778590D01*
X145926604Y-80778589D01*
X145926603Y-80778589D01*
X145730000Y-80759225D01*
X145533397Y-80778589D01*
X145533395Y-80778589D01*
X145533390Y-80778590D01*
X145344351Y-80835935D01*
X145170121Y-80929062D01*
X145017413Y-81054387D01*
X145017409Y-81054391D01*
X144892084Y-81207099D01*
X144864521Y-81258667D01*
X144819750Y-81298802D01*
X144759655Y-81300769D01*
X144712355Y-81263648D01*
X144699100Y-81217231D01*
X144699100Y-80514125D01*
X144699160Y-80511824D01*
X144699421Y-80506825D01*
X144701334Y-80470338D01*
X144692823Y-80448165D01*
X144688906Y-80434941D01*
X144688199Y-80431617D01*
X144683969Y-80411713D01*
X144679874Y-80406077D01*
X144668927Y-80385913D01*
X144666433Y-80379416D01*
X144666432Y-80379415D01*
X144666432Y-80379414D01*
X144649630Y-80362612D01*
X144640677Y-80352128D01*
X144626721Y-80332919D01*
X144626722Y-80332919D01*
X144620692Y-80329438D01*
X144602488Y-80315470D01*
X144090021Y-79803003D01*
X144064610Y-79748509D01*
X144074655Y-79699412D01*
X144099680Y-79652593D01*
X144121042Y-79612628D01*
X144178389Y-79423581D01*
X144197753Y-79226978D01*
X144722247Y-79226978D01*
X144741612Y-79423587D01*
X144798898Y-79612430D01*
X144798958Y-79612628D01*
X144892084Y-79786856D01*
X145017411Y-79939567D01*
X145170122Y-80064894D01*
X145344350Y-80158020D01*
X145533397Y-80215367D01*
X145730000Y-80234731D01*
X145926603Y-80215367D01*
X146115650Y-80158020D01*
X146289878Y-80064894D01*
X146442589Y-79939567D01*
X146567916Y-79786856D01*
X146661042Y-79612628D01*
X146718389Y-79423581D01*
X146737753Y-79226978D01*
X146718389Y-79030375D01*
X146700977Y-78972977D01*
X147299544Y-78972977D01*
X147299545Y-78972978D01*
X147838884Y-78972978D01*
X147810507Y-79017134D01*
X147770000Y-79155089D01*
X147770000Y-79298867D01*
X147810507Y-79436822D01*
X147838884Y-79480978D01*
X147299545Y-79480978D01*
X147339419Y-79612430D01*
X147432504Y-79786579D01*
X147557759Y-79939202D01*
X147557775Y-79939218D01*
X147710398Y-80064473D01*
X147710397Y-80064473D01*
X147884547Y-80157558D01*
X148015999Y-80197433D01*
X148016000Y-80197432D01*
X148016000Y-79660652D01*
X148127685Y-79711658D01*
X148234237Y-79726978D01*
X148305763Y-79726978D01*
X148412315Y-79711658D01*
X148524000Y-79660652D01*
X148524000Y-80197433D01*
X148655452Y-80157558D01*
X148829601Y-80064473D01*
X148982224Y-79939218D01*
X148982240Y-79939202D01*
X149107495Y-79786579D01*
X149200580Y-79612430D01*
X149240455Y-79480978D01*
X148701116Y-79480978D01*
X148729493Y-79436822D01*
X148770000Y-79298867D01*
X148770000Y-79155089D01*
X148729493Y-79017134D01*
X148701116Y-78972978D01*
X149240455Y-78972978D01*
X149240455Y-78972977D01*
X149839544Y-78972977D01*
X149839545Y-78972978D01*
X150378884Y-78972978D01*
X150350507Y-79017134D01*
X150310000Y-79155089D01*
X150310000Y-79298867D01*
X150350507Y-79436822D01*
X150378884Y-79480978D01*
X149839545Y-79480978D01*
X149879419Y-79612430D01*
X149972504Y-79786579D01*
X150097759Y-79939202D01*
X150097775Y-79939218D01*
X150250398Y-80064473D01*
X150250397Y-80064473D01*
X150424547Y-80157558D01*
X150555999Y-80197433D01*
X150556000Y-80197433D01*
X150556000Y-79660652D01*
X150667685Y-79711658D01*
X150774237Y-79726978D01*
X150845763Y-79726978D01*
X150952315Y-79711658D01*
X151064000Y-79660652D01*
X151064000Y-80197433D01*
X151195452Y-80157558D01*
X151369601Y-80064473D01*
X151522224Y-79939218D01*
X151522240Y-79939202D01*
X151647495Y-79786579D01*
X151740580Y-79612430D01*
X151780455Y-79480978D01*
X151241116Y-79480978D01*
X151269493Y-79436822D01*
X151310000Y-79298867D01*
X151310000Y-79226977D01*
X152342247Y-79226977D01*
X152361612Y-79423587D01*
X152418898Y-79612430D01*
X152418958Y-79612628D01*
X152512084Y-79786856D01*
X152637411Y-79939567D01*
X152790122Y-80064894D01*
X152964350Y-80158020D01*
X153153397Y-80215367D01*
X153350000Y-80234731D01*
X153546603Y-80215367D01*
X153735650Y-80158020D01*
X153909878Y-80064894D01*
X154062589Y-79939567D01*
X154187916Y-79786856D01*
X154281042Y-79612628D01*
X154338389Y-79423581D01*
X154357753Y-79226978D01*
X154338389Y-79030375D01*
X154281042Y-78841328D01*
X154187916Y-78667100D01*
X154062589Y-78514389D01*
X153909878Y-78389062D01*
X153735650Y-78295936D01*
X153735649Y-78295935D01*
X153735648Y-78295935D01*
X153546609Y-78238590D01*
X153546604Y-78238589D01*
X153546603Y-78238589D01*
X153350000Y-78219225D01*
X153349999Y-78219225D01*
X153302657Y-78223887D01*
X153153397Y-78238589D01*
X153153395Y-78238589D01*
X153153390Y-78238590D01*
X152964351Y-78295935D01*
X152790121Y-78389062D01*
X152637413Y-78514387D01*
X152637409Y-78514391D01*
X152512084Y-78667099D01*
X152418957Y-78841329D01*
X152361612Y-79030368D01*
X152342247Y-79226977D01*
X151310000Y-79226977D01*
X151310000Y-79155089D01*
X151269493Y-79017134D01*
X151241116Y-78972978D01*
X151780455Y-78972978D01*
X151780455Y-78972977D01*
X151740580Y-78841525D01*
X151647495Y-78667376D01*
X151522240Y-78514753D01*
X151522224Y-78514737D01*
X151369601Y-78389482D01*
X151369602Y-78389482D01*
X151195458Y-78296400D01*
X151064000Y-78256522D01*
X151064000Y-78793303D01*
X150952315Y-78742298D01*
X150845763Y-78726978D01*
X150774237Y-78726978D01*
X150667685Y-78742298D01*
X150556000Y-78793303D01*
X150556000Y-78256522D01*
X150424541Y-78296400D01*
X150250398Y-78389482D01*
X150097775Y-78514737D01*
X150097759Y-78514753D01*
X149972504Y-78667376D01*
X149879419Y-78841525D01*
X149839544Y-78972977D01*
X149240455Y-78972977D01*
X149200580Y-78841525D01*
X149107495Y-78667376D01*
X148982240Y-78514753D01*
X148982224Y-78514737D01*
X148829601Y-78389482D01*
X148829602Y-78389482D01*
X148655458Y-78296400D01*
X148524000Y-78256522D01*
X148524000Y-78793303D01*
X148412315Y-78742298D01*
X148305763Y-78726978D01*
X148234237Y-78726978D01*
X148127685Y-78742298D01*
X148016000Y-78793303D01*
X148016000Y-78256522D01*
X147884541Y-78296400D01*
X147710398Y-78389482D01*
X147557775Y-78514737D01*
X147557759Y-78514753D01*
X147432504Y-78667376D01*
X147339419Y-78841525D01*
X147299544Y-78972977D01*
X146700977Y-78972977D01*
X146661042Y-78841328D01*
X146567916Y-78667100D01*
X146442589Y-78514389D01*
X146289878Y-78389062D01*
X146115650Y-78295936D01*
X146115649Y-78295935D01*
X146115648Y-78295935D01*
X145926609Y-78238590D01*
X145926604Y-78238589D01*
X145926603Y-78238589D01*
X145730000Y-78219225D01*
X145533397Y-78238589D01*
X145533395Y-78238589D01*
X145533390Y-78238590D01*
X145344351Y-78295935D01*
X145170121Y-78389062D01*
X145017413Y-78514387D01*
X145017409Y-78514391D01*
X144892084Y-78667099D01*
X144798957Y-78841329D01*
X144741612Y-79030368D01*
X144722247Y-79226978D01*
X144197753Y-79226978D01*
X144178389Y-79030375D01*
X144121042Y-78841328D01*
X144027916Y-78667100D01*
X143902589Y-78514389D01*
X143749878Y-78389062D01*
X143575650Y-78295936D01*
X143575649Y-78295935D01*
X143575648Y-78295935D01*
X143386609Y-78238590D01*
X143386604Y-78238589D01*
X143386603Y-78238589D01*
X143190000Y-78219225D01*
X142993397Y-78238589D01*
X142993395Y-78238589D01*
X142993390Y-78238590D01*
X142804351Y-78295935D01*
X142630121Y-78389062D01*
X142477413Y-78514387D01*
X142477409Y-78514391D01*
X142352084Y-78667099D01*
X142258957Y-78841329D01*
X142201612Y-79030368D01*
X142182247Y-79226978D01*
X142201612Y-79423587D01*
X142258898Y-79612430D01*
X142258958Y-79612628D01*
X142352084Y-79786856D01*
X142477411Y-79939567D01*
X142630122Y-80064894D01*
X142804350Y-80158020D01*
X142993397Y-80215367D01*
X143190000Y-80234731D01*
X143386603Y-80215367D01*
X143575650Y-80158020D01*
X143662434Y-80111632D01*
X143721958Y-80103135D01*
X143766025Y-80126999D01*
X144215155Y-80576129D01*
X144240566Y-80630623D01*
X144240900Y-80638284D01*
X144240900Y-81254649D01*
X144220335Y-81311150D01*
X144168264Y-81341214D01*
X144109050Y-81330773D01*
X144075479Y-81296085D01*
X144059098Y-81265438D01*
X144027916Y-81207100D01*
X143902589Y-81054389D01*
X143749878Y-80929062D01*
X143575650Y-80835936D01*
X143575649Y-80835935D01*
X143575648Y-80835935D01*
X143386609Y-80778590D01*
X143386604Y-80778589D01*
X143386603Y-80778589D01*
X143190000Y-80759225D01*
X143189999Y-80759225D01*
X143162211Y-80761962D01*
X142993397Y-80778589D01*
X142993395Y-80778589D01*
X142993390Y-80778590D01*
X142804351Y-80835935D01*
X142630121Y-80929062D01*
X142477413Y-81054387D01*
X142477409Y-81054391D01*
X142352084Y-81207099D01*
X142258957Y-81381329D01*
X142201612Y-81570368D01*
X142201611Y-81570373D01*
X142201611Y-81570375D01*
X142182247Y-81766978D01*
X141652899Y-81766978D01*
X141652899Y-80901922D01*
X141652899Y-80901921D01*
X141652899Y-80901919D01*
X141645322Y-80863827D01*
X141644028Y-80857320D01*
X141610234Y-80806744D01*
X141610002Y-80806589D01*
X141559658Y-80772949D01*
X141522456Y-80765549D01*
X141515057Y-80764078D01*
X141515056Y-80764078D01*
X139784941Y-80764078D01*
X139745283Y-80771967D01*
X139740342Y-80772950D01*
X139740340Y-80772951D01*
X139738083Y-80773886D01*
X139734951Y-80774022D01*
X139731852Y-80774639D01*
X139731757Y-80774161D01*
X139678012Y-80776504D01*
X139630313Y-80739897D01*
X139617304Y-80681194D01*
X139642295Y-80630520D01*
X140120793Y-80152021D01*
X140175286Y-80126611D01*
X140224379Y-80136655D01*
X140264350Y-80158020D01*
X140264355Y-80158021D01*
X140264356Y-80158022D01*
X140453390Y-80215365D01*
X140453397Y-80215367D01*
X140650000Y-80234731D01*
X140846603Y-80215367D01*
X141035650Y-80158020D01*
X141209878Y-80064894D01*
X141362589Y-79939567D01*
X141487916Y-79786856D01*
X141581042Y-79612628D01*
X141638389Y-79423581D01*
X141657753Y-79226978D01*
X141638389Y-79030375D01*
X141581042Y-78841328D01*
X141487916Y-78667100D01*
X141362589Y-78514389D01*
X141209878Y-78389062D01*
X141035650Y-78295936D01*
X141035649Y-78295935D01*
X141035648Y-78295935D01*
X140846609Y-78238590D01*
X140846604Y-78238589D01*
X140846603Y-78238589D01*
X140650000Y-78219225D01*
X140649999Y-78219225D01*
X140602657Y-78223887D01*
X140453397Y-78238589D01*
X140453395Y-78238589D01*
X140453390Y-78238590D01*
X140264351Y-78295935D01*
X140090121Y-78389062D01*
X139937413Y-78514387D01*
X139937409Y-78514391D01*
X139812084Y-78667099D01*
X139718957Y-78841329D01*
X139661612Y-79030368D01*
X139642247Y-79226978D01*
X139661612Y-79423587D01*
X139718898Y-79612430D01*
X139718958Y-79612628D01*
X139739965Y-79651930D01*
X139740320Y-79652593D01*
X139748818Y-79712116D01*
X139724954Y-79756184D01*
X138844501Y-80636637D01*
X138834275Y-80644006D01*
X138834901Y-80644834D01*
X138828403Y-80649741D01*
X138798181Y-80682891D01*
X138796782Y-80684356D01*
X138783741Y-80697399D01*
X138783738Y-80697402D01*
X138781780Y-80700260D01*
X138778005Y-80705024D01*
X138757903Y-80727076D01*
X138757898Y-80727084D01*
X138754413Y-80736080D01*
X138744971Y-80753995D01*
X138739513Y-80761962D01*
X138732682Y-80791006D01*
X138730880Y-80796825D01*
X138720100Y-80824654D01*
X138720100Y-80834310D01*
X138717765Y-80854434D01*
X138715556Y-80863826D01*
X138719678Y-80893376D01*
X138720100Y-80899455D01*
X138720100Y-82947651D01*
X138699535Y-83004152D01*
X138694355Y-83009806D01*
X138207001Y-83497159D01*
X138196775Y-83504528D01*
X138197401Y-83505356D01*
X138190903Y-83510263D01*
X138160681Y-83543413D01*
X138159282Y-83544878D01*
X138146241Y-83557921D01*
X138146238Y-83557924D01*
X138144280Y-83560782D01*
X138140505Y-83565546D01*
X138120403Y-83587598D01*
X138120398Y-83587606D01*
X138116913Y-83596602D01*
X138107471Y-83614517D01*
X138102013Y-83622484D01*
X138095182Y-83651528D01*
X138093380Y-83657347D01*
X138082600Y-83685176D01*
X138082600Y-83694832D01*
X138080264Y-83714956D01*
X138078056Y-83724349D01*
X138080579Y-83742436D01*
X138082178Y-83753898D01*
X138082600Y-83759977D01*
X138082600Y-88517012D01*
X138062035Y-88573513D01*
X138048210Y-88586748D01*
X137968168Y-88648165D01*
X137968165Y-88648168D01*
X137879542Y-88763665D01*
X137823831Y-88898163D01*
X137804829Y-89042499D01*
X137804829Y-89042500D01*
X134082375Y-89042500D01*
X134082375Y-83453504D01*
X134102940Y-83397003D01*
X134126322Y-83377381D01*
X134278494Y-83289526D01*
X134352729Y-83229412D01*
X134422240Y-83122375D01*
X134455272Y-82999098D01*
X134453670Y-82968542D01*
X134448592Y-82871649D01*
X134448591Y-82871645D01*
X134414360Y-82782468D01*
X133732652Y-81601716D01*
X133732651Y-81601714D01*
X133732648Y-81601711D01*
X133672538Y-81527481D01*
X133672537Y-81527480D01*
X133672536Y-81527480D01*
X133565501Y-81457970D01*
X133442224Y-81424938D01*
X133442222Y-81424938D01*
X133314770Y-81431617D01*
X133314768Y-81431617D01*
X133225604Y-81465845D01*
X133225598Y-81465848D01*
X133225595Y-81465849D01*
X133225594Y-81465850D01*
X133118848Y-81527480D01*
X132564454Y-81847558D01*
X132564451Y-81847561D01*
X132490222Y-81907670D01*
X132490221Y-81907671D01*
X132420711Y-82014707D01*
X132387677Y-82137988D01*
X132387677Y-82137991D01*
X132394357Y-82265434D01*
X132394358Y-82265438D01*
X132403603Y-82289522D01*
X132428590Y-82354616D01*
X132588758Y-82632034D01*
X132748798Y-82909233D01*
X132760574Y-82953183D01*
X132760575Y-89650164D01*
X132760495Y-89652818D01*
X132756934Y-89711672D01*
X132756935Y-89711676D01*
X132767561Y-89769660D01*
X132767961Y-89772285D01*
X132775066Y-89830797D01*
X132775066Y-89830799D01*
X132775067Y-89830800D01*
X132779395Y-89842213D01*
X132783665Y-89857531D01*
X132785865Y-89869536D01*
X132785865Y-89869539D01*
X132810056Y-89923287D01*
X132811072Y-89925740D01*
X132831978Y-89980864D01*
X132831981Y-89980869D01*
X132838915Y-89990915D01*
X132846726Y-90004764D01*
X132851736Y-90015895D01*
X132888094Y-90062303D01*
X132889657Y-90064428D01*
X132923149Y-90112950D01*
X132923150Y-90112951D01*
X132923151Y-90112952D01*
X132967282Y-90152049D01*
X132969205Y-90153858D01*
X134413355Y-91598008D01*
X134438766Y-91652502D01*
X134439100Y-91660163D01*
X134439100Y-94489836D01*
X134418535Y-94546337D01*
X134413355Y-94551991D01*
X133251992Y-95713355D01*
X133197498Y-95738766D01*
X133189837Y-95739100D01*
X133094642Y-95739100D01*
X133042972Y-95722310D01*
X133039772Y-95719985D01*
X133039771Y-95719984D01*
X132926055Y-95662043D01*
X132926054Y-95662042D01*
X132846650Y-95649466D01*
X132831708Y-95647100D01*
X131468292Y-95647100D01*
X131453349Y-95649466D01*
X131373946Y-95662042D01*
X131260231Y-95719982D01*
X131169982Y-95810231D01*
X131112042Y-95923946D01*
X131110015Y-95936748D01*
X131097100Y-96018292D01*
X131097100Y-96781708D01*
X128831251Y-96781708D01*
X128865165Y-96715148D01*
X128884986Y-96590000D01*
X128865165Y-96464852D01*
X128807641Y-96351955D01*
X128791686Y-96336000D01*
X129267450Y-96336000D01*
X129267450Y-96335999D01*
X129240029Y-96251610D01*
X129153065Y-96100984D01*
X129153064Y-96100983D01*
X129036689Y-95971735D01*
X128895977Y-95869502D01*
X128737088Y-95798761D01*
X128733999Y-95798104D01*
X128733999Y-96278313D01*
X128718045Y-96262359D01*
X128605148Y-96204835D01*
X128511481Y-96190000D01*
X128448519Y-96190000D01*
X128354852Y-96204835D01*
X128241955Y-96262359D01*
X128226000Y-96278314D01*
X128226000Y-95798104D01*
X128222911Y-95798761D01*
X128064022Y-95869502D01*
X127923310Y-95971735D01*
X127806935Y-96100983D01*
X127806934Y-96100984D01*
X127719970Y-96251610D01*
X127692549Y-96335999D01*
X127692550Y-96336000D01*
X128168314Y-96336000D01*
X128152359Y-96351955D01*
X128094835Y-96464852D01*
X128075014Y-96590000D01*
X128094835Y-96715148D01*
X128152359Y-96828045D01*
X128168314Y-96844000D01*
X127692549Y-96844000D01*
X127305300Y-96844000D01*
X127305300Y-95409027D01*
X127305300Y-95280058D01*
X127652100Y-95280058D01*
X127660972Y-95324658D01*
X127694766Y-95375234D01*
X127711701Y-95386550D01*
X127745341Y-95409028D01*
X127752741Y-95410499D01*
X127789943Y-95417900D01*
X129170056Y-95417899D01*
X129170058Y-95417899D01*
X129182750Y-95415374D01*
X129214658Y-95409028D01*
X129265234Y-95375234D01*
X129299028Y-95324658D01*
X129307900Y-95280057D01*
X129307900Y-94654000D01*
X131140150Y-94654000D01*
X131193968Y-94778763D01*
X131298996Y-94919841D01*
X131433737Y-95032901D01*
X131433742Y-95032904D01*
X131590909Y-95111837D01*
X131762059Y-95152400D01*
X131895999Y-95152400D01*
X131896000Y-95152399D01*
X131896000Y-94711686D01*
X131911955Y-94727641D01*
X132024852Y-94785165D01*
X132118519Y-94800000D01*
X132181481Y-94800000D01*
X132275148Y-94785165D01*
X132388045Y-94727641D01*
X132403999Y-94711686D01*
X132404000Y-95152398D01*
X132404001Y-95152400D01*
X132493820Y-95152400D01*
X132493823Y-95152399D01*
X132624699Y-95137102D01*
X132789972Y-95076946D01*
X132936929Y-94980292D01*
X133057624Y-94852362D01*
X133145570Y-94700035D01*
X133159352Y-94654000D01*
X132461686Y-94654000D01*
X132477641Y-94638045D01*
X132535165Y-94525148D01*
X132554986Y-94400000D01*
X132535165Y-94274852D01*
X132477641Y-94161955D01*
X132461686Y-94146000D01*
X133159850Y-94146000D01*
X133106031Y-94021236D01*
X133001003Y-93880158D01*
X132866262Y-93767098D01*
X132866257Y-93767095D01*
X132709090Y-93688162D01*
X132537941Y-93647600D01*
X132404001Y-93647600D01*
X132404000Y-93647601D01*
X132404000Y-94088314D01*
X132388045Y-94072359D01*
X132275148Y-94014835D01*
X132181481Y-94000000D01*
X132118519Y-94000000D01*
X132024852Y-94014835D01*
X131911955Y-94072359D01*
X131896000Y-94088314D01*
X131896000Y-93647601D01*
X131895999Y-93647600D01*
X131806176Y-93647600D01*
X131675300Y-93662897D01*
X131510027Y-93723053D01*
X131363070Y-93819707D01*
X131242375Y-93947637D01*
X131154429Y-94099964D01*
X131140647Y-94145999D01*
X131140648Y-94146000D01*
X131838314Y-94146000D01*
X131822359Y-94161955D01*
X131764835Y-94274852D01*
X131745014Y-94400000D01*
X131764835Y-94525148D01*
X131822359Y-94638045D01*
X131838314Y-94654000D01*
X131140150Y-94654000D01*
X129307900Y-94654000D01*
X129307899Y-93899944D01*
X129307899Y-93899943D01*
X129307899Y-93899941D01*
X129302461Y-93872604D01*
X129299028Y-93855342D01*
X129265234Y-93804766D01*
X129253366Y-93796836D01*
X129214658Y-93770971D01*
X129177456Y-93763571D01*
X129170057Y-93762100D01*
X129170056Y-93762100D01*
X127789941Y-93762100D01*
X127745341Y-93770972D01*
X127694767Y-93804765D01*
X127694764Y-93804768D01*
X127660971Y-93855341D01*
X127652100Y-93899943D01*
X127652100Y-95280058D01*
X127305300Y-95280058D01*
X127305300Y-91500004D01*
X127657540Y-91500004D01*
X127675729Y-91673072D01*
X127675731Y-91673078D01*
X127729510Y-91838592D01*
X127816526Y-91989308D01*
X127932976Y-92118638D01*
X128073770Y-92220932D01*
X128232756Y-92291717D01*
X128402984Y-92327900D01*
X128577016Y-92327900D01*
X128747244Y-92291717D01*
X128906230Y-92220932D01*
X129047024Y-92118638D01*
X129163474Y-91989308D01*
X129250490Y-91838592D01*
X129304269Y-91673078D01*
X129304270Y-91673072D01*
X129322460Y-91500004D01*
X129322460Y-91499995D01*
X129304270Y-91326927D01*
X129304269Y-91326924D01*
X129304269Y-91326922D01*
X129250490Y-91161408D01*
X129163474Y-91010692D01*
X129047024Y-90881362D01*
X128906230Y-90779068D01*
X128747244Y-90708283D01*
X128747242Y-90708282D01*
X128747241Y-90708282D01*
X128577016Y-90672100D01*
X128402984Y-90672100D01*
X128232758Y-90708282D01*
X128232754Y-90708284D01*
X128073769Y-90779068D01*
X127932977Y-90881361D01*
X127932975Y-90881362D01*
X127816527Y-91010690D01*
X127743700Y-91136831D01*
X127729510Y-91161408D01*
X127723706Y-91179271D01*
X127675729Y-91326927D01*
X127657540Y-91499995D01*
X127657540Y-91500004D01*
X127305300Y-91500004D01*
X127305300Y-90190058D01*
X127662100Y-90190058D01*
X127670972Y-90234658D01*
X127704766Y-90285234D01*
X127721701Y-90296550D01*
X127755341Y-90319028D01*
X127762741Y-90320499D01*
X127799943Y-90327900D01*
X129180056Y-90327899D01*
X129180058Y-90327899D01*
X129192750Y-90325374D01*
X129224658Y-90319028D01*
X129275234Y-90285234D01*
X129309028Y-90234658D01*
X129317900Y-90190057D01*
X129317899Y-88809944D01*
X129317899Y-88809943D01*
X129317899Y-88809941D01*
X129312344Y-88782014D01*
X129309028Y-88765342D01*
X129275234Y-88714766D01*
X129275002Y-88714611D01*
X129224658Y-88680971D01*
X129187456Y-88673571D01*
X129180057Y-88672100D01*
X129180056Y-88672100D01*
X127799941Y-88672100D01*
X127755341Y-88680972D01*
X127704767Y-88714765D01*
X127704764Y-88714768D01*
X127670971Y-88765341D01*
X127662100Y-88809943D01*
X127662100Y-90190058D01*
X127305300Y-90190058D01*
X127305300Y-85013684D01*
X127589884Y-85013684D01*
X127609115Y-85245780D01*
X127609116Y-85245786D01*
X127666286Y-85471544D01*
X127666289Y-85471552D01*
X127759835Y-85684814D01*
X127759840Y-85684825D01*
X127759844Y-85684831D01*
X127887215Y-85879789D01*
X127887216Y-85879791D01*
X127943268Y-85940680D01*
X128044954Y-86051140D01*
X128228740Y-86194186D01*
X128433563Y-86305031D01*
X128653837Y-86380651D01*
X128653839Y-86380651D01*
X128653841Y-86380652D01*
X128883550Y-86418984D01*
X128883554Y-86418984D01*
X129116450Y-86418984D01*
X129346158Y-86380652D01*
X129346158Y-86380651D01*
X129346163Y-86380651D01*
X129566437Y-86305031D01*
X129771260Y-86194186D01*
X129955046Y-86051140D01*
X130112780Y-85879795D01*
X130240160Y-85684825D01*
X130333712Y-85471548D01*
X130390884Y-85245781D01*
X130410116Y-85013684D01*
X130390884Y-84781587D01*
X130390883Y-84781581D01*
X130333713Y-84555823D01*
X130333710Y-84555815D01*
X130277365Y-84427362D01*
X130240160Y-84342543D01*
X130159435Y-84218984D01*
X130112784Y-84147578D01*
X130112783Y-84147576D01*
X129955050Y-83976232D01*
X129955048Y-83976231D01*
X129955046Y-83976228D01*
X129771260Y-83833182D01*
X129566437Y-83722337D01*
X129566433Y-83722335D01*
X129566430Y-83722334D01*
X129346167Y-83646718D01*
X129346158Y-83646715D01*
X129116450Y-83608384D01*
X129116446Y-83608384D01*
X128883554Y-83608384D01*
X128883550Y-83608384D01*
X128653841Y-83646715D01*
X128653832Y-83646718D01*
X128433569Y-83722334D01*
X128433564Y-83722336D01*
X128433563Y-83722337D01*
X128228740Y-83833182D01*
X128059514Y-83964896D01*
X128044949Y-83976232D01*
X127887216Y-84147576D01*
X127887215Y-84147578D01*
X127759844Y-84342536D01*
X127759835Y-84342553D01*
X127666289Y-84555815D01*
X127666286Y-84555823D01*
X127609116Y-84781581D01*
X127609115Y-84781587D01*
X127589884Y-85013684D01*
X127305300Y-85013684D01*
X127305300Y-84085995D01*
X127325864Y-84029497D01*
X127349245Y-84009877D01*
X132104053Y-81264687D01*
X134247286Y-81264687D01*
X134257511Y-81440275D01*
X134307954Y-81608766D01*
X134307955Y-81608769D01*
X134374928Y-81724769D01*
X134758908Y-81503078D01*
X134748540Y-81568542D01*
X134768361Y-81693690D01*
X134825885Y-81806587D01*
X134915481Y-81896183D01*
X135010327Y-81944509D01*
X134628927Y-82164711D01*
X134673840Y-82242503D01*
X134752523Y-82348192D01*
X134752524Y-82348193D01*
X134887263Y-82461251D01*
X134887268Y-82461254D01*
X135044435Y-82540187D01*
X135215585Y-82580750D01*
X135391467Y-82580750D01*
X135438230Y-82569666D01*
X135088064Y-81963160D01*
X135122045Y-81968542D01*
X135185007Y-81968542D01*
X135278674Y-81953707D01*
X135391571Y-81896183D01*
X135481167Y-81806587D01*
X135529494Y-81711739D01*
X135878420Y-82316098D01*
X135959557Y-82207113D01*
X136029223Y-82045612D01*
X136059766Y-81872395D01*
X136049540Y-81696809D01*
X135999096Y-81528314D01*
X135999095Y-81528312D01*
X135932122Y-81412312D01*
X135548144Y-81634001D01*
X135558512Y-81568542D01*
X135538691Y-81443394D01*
X135481167Y-81330497D01*
X135391571Y-81240901D01*
X135296721Y-81192572D01*
X135678123Y-80972370D01*
X135633211Y-80894579D01*
X135554528Y-80788891D01*
X135554527Y-80788890D01*
X135419791Y-80675835D01*
X135419786Y-80675832D01*
X135262617Y-80596896D01*
X135091468Y-80556334D01*
X134915582Y-80556334D01*
X134868820Y-80567415D01*
X135218986Y-81173923D01*
X135185007Y-81168542D01*
X135122045Y-81168542D01*
X135028378Y-81183377D01*
X134915481Y-81240901D01*
X134825885Y-81330497D01*
X134777557Y-81425344D01*
X134428631Y-80820985D01*
X134347494Y-80929970D01*
X134277828Y-81091471D01*
X134247286Y-81264687D01*
X132104053Y-81264687D01*
X143610600Y-74621378D01*
X145589884Y-74621378D01*
X145609115Y-74853475D01*
X145609116Y-74853481D01*
X145666286Y-75079239D01*
X145666289Y-75079247D01*
X145737987Y-75242700D01*
X145759840Y-75292520D01*
X145759844Y-75292526D01*
X145887215Y-75487484D01*
X145887216Y-75487486D01*
X145887220Y-75487490D01*
X146044954Y-75658835D01*
X146228740Y-75801881D01*
X146433563Y-75912726D01*
X146653837Y-75988346D01*
X146653839Y-75988346D01*
X146653841Y-75988347D01*
X146883550Y-76026679D01*
X146883554Y-76026679D01*
X147116450Y-76026679D01*
X147346158Y-75988347D01*
X147346158Y-75988346D01*
X147346163Y-75988346D01*
X147566437Y-75912726D01*
X147771260Y-75801881D01*
X147955046Y-75658835D01*
X148112780Y-75487490D01*
X148240160Y-75292520D01*
X148333712Y-75079243D01*
X148390884Y-74853476D01*
X148410116Y-74621379D01*
X148390884Y-74389282D01*
X148390883Y-74389276D01*
X148333713Y-74163518D01*
X148333710Y-74163510D01*
X148240164Y-73950248D01*
X148240160Y-73950238D01*
X148159435Y-73826679D01*
X148112784Y-73755273D01*
X148112783Y-73755271D01*
X147955050Y-73583927D01*
X147955048Y-73583926D01*
X147955046Y-73583923D01*
X147771260Y-73440877D01*
X147566437Y-73330032D01*
X147566433Y-73330030D01*
X147566430Y-73330029D01*
X147346167Y-73254413D01*
X147346158Y-73254410D01*
X147116450Y-73216079D01*
X147116446Y-73216079D01*
X146883554Y-73216079D01*
X146883550Y-73216079D01*
X146653841Y-73254410D01*
X146653832Y-73254413D01*
X146433569Y-73330029D01*
X146228740Y-73440877D01*
X146044949Y-73583927D01*
X145887216Y-73755271D01*
X145887215Y-73755273D01*
X145759844Y-73950231D01*
X145759835Y-73950248D01*
X145666289Y-74163510D01*
X145666286Y-74163518D01*
X145609116Y-74389276D01*
X145609115Y-74389282D01*
X145589884Y-74621378D01*
X143610600Y-74621378D01*
X146956050Y-72689881D01*
X147015263Y-72679441D01*
X147043946Y-72689881D01*
G37*
%TD.AperFunction*%
%TD*%
M02*
