%TF.GenerationSoftware,KiCad,Pcbnew,7.0.5*%
%TF.CreationDate,2024-01-17T11:16:35-05:00*%
%TF.ProjectId,PWR,5057522e-6b69-4636-9164-5f7063625858,rev?*%
%TF.SameCoordinates,Original*%
%TF.FileFunction,Copper,L1,Top*%
%TF.FilePolarity,Positive*%
%FSLAX46Y46*%
G04 Gerber Fmt 4.6, Leading zero omitted, Abs format (unit mm)*
G04 Created by KiCad (PCBNEW 7.0.5) date 2024-01-17 11:16:35*
%MOMM*%
%LPD*%
G01*
G04 APERTURE LIST*
G04 Aperture macros list*
%AMRoundRect*
0 Rectangle with rounded corners*
0 $1 Rounding radius*
0 $2 $3 $4 $5 $6 $7 $8 $9 X,Y pos of 4 corners*
0 Add a 4 corners polygon primitive as box body*
4,1,4,$2,$3,$4,$5,$6,$7,$8,$9,$2,$3,0*
0 Add four circle primitives for the rounded corners*
1,1,$1+$1,$2,$3*
1,1,$1+$1,$4,$5*
1,1,$1+$1,$6,$7*
1,1,$1+$1,$8,$9*
0 Add four rect primitives between the rounded corners*
20,1,$1+$1,$2,$3,$4,$5,0*
20,1,$1+$1,$4,$5,$6,$7,0*
20,1,$1+$1,$6,$7,$8,$9,0*
20,1,$1+$1,$8,$9,$2,$3,0*%
%AMHorizOval*
0 Thick line with rounded ends*
0 $1 width*
0 $2 $3 position (X,Y) of the first rounded end (center of the circle)*
0 $4 $5 position (X,Y) of the second rounded end (center of the circle)*
0 Add line between two ends*
20,1,$1,$2,$3,$4,$5,0*
0 Add two circle primitives to create the rounded ends*
1,1,$1,$2,$3*
1,1,$1,$4,$5*%
G04 Aperture macros list end*
%TA.AperFunction,ComponentPad*%
%ADD10RoundRect,0.250000X-0.021891X0.737917X-0.628109X0.387917X0.021891X-0.737917X0.628109X-0.387917X0*%
%TD*%
%TA.AperFunction,ComponentPad*%
%ADD11HorizOval,1.200000X-0.150000X0.259808X0.150000X-0.259808X0*%
%TD*%
%TA.AperFunction,ComponentPad*%
%ADD12R,1.700000X1.700000*%
%TD*%
%TA.AperFunction,ComponentPad*%
%ADD13O,1.700000X1.700000*%
%TD*%
%TA.AperFunction,SMDPad,CuDef*%
%ADD14RoundRect,0.237500X-0.237500X0.250000X-0.237500X-0.250000X0.237500X-0.250000X0.237500X0.250000X0*%
%TD*%
%TA.AperFunction,ComponentPad*%
%ADD15RoundRect,0.250000X-0.650000X0.350000X-0.650000X-0.350000X0.650000X-0.350000X0.650000X0.350000X0*%
%TD*%
%TA.AperFunction,ComponentPad*%
%ADD16O,1.800000X1.200000*%
%TD*%
%TA.AperFunction,SMDPad,CuDef*%
%ADD17RoundRect,0.237500X0.237500X-0.300000X0.237500X0.300000X-0.237500X0.300000X-0.237500X-0.300000X0*%
%TD*%
%TA.AperFunction,ComponentPad*%
%ADD18RoundRect,0.250000X-0.628109X-0.387917X-0.021891X-0.737917X0.628109X0.387917X0.021891X0.737917X0*%
%TD*%
%TA.AperFunction,ComponentPad*%
%ADD19HorizOval,1.200000X-0.150000X-0.259808X0.150000X0.259808X0*%
%TD*%
%TA.AperFunction,SMDPad,CuDef*%
%ADD20RoundRect,0.155000X0.212500X0.155000X-0.212500X0.155000X-0.212500X-0.155000X0.212500X-0.155000X0*%
%TD*%
%TA.AperFunction,SMDPad,CuDef*%
%ADD21RoundRect,0.237500X-0.250000X-0.237500X0.250000X-0.237500X0.250000X0.237500X-0.250000X0.237500X0*%
%TD*%
%TA.AperFunction,SMDPad,CuDef*%
%ADD22RoundRect,0.237500X0.250000X0.237500X-0.250000X0.237500X-0.250000X-0.237500X0.250000X-0.237500X0*%
%TD*%
%TA.AperFunction,ComponentPad*%
%ADD23RoundRect,0.250000X0.650000X-0.350000X0.650000X0.350000X-0.650000X0.350000X-0.650000X-0.350000X0*%
%TD*%
%TA.AperFunction,SMDPad,CuDef*%
%ADD24R,3.900000X2.200000*%
%TD*%
%TA.AperFunction,SMDPad,CuDef*%
%ADD25RoundRect,0.237500X0.237500X-0.250000X0.237500X0.250000X-0.237500X0.250000X-0.237500X-0.250000X0*%
%TD*%
%TA.AperFunction,ComponentPad*%
%ADD26RoundRect,0.250000X0.021891X-0.737917X0.628109X-0.387917X-0.021891X0.737917X-0.628109X0.387917X0*%
%TD*%
%TA.AperFunction,SMDPad,CuDef*%
%ADD27RoundRect,0.062500X-0.062500X0.375000X-0.062500X-0.375000X0.062500X-0.375000X0.062500X0.375000X0*%
%TD*%
%TA.AperFunction,SMDPad,CuDef*%
%ADD28RoundRect,0.062500X-0.375000X0.062500X-0.375000X-0.062500X0.375000X-0.062500X0.375000X0.062500X0*%
%TD*%
%TA.AperFunction,SMDPad,CuDef*%
%ADD29R,2.000000X2.000000*%
%TD*%
%TA.AperFunction,SMDPad,CuDef*%
%ADD30RoundRect,0.237500X-0.237500X0.300000X-0.237500X-0.300000X0.237500X-0.300000X0.237500X0.300000X0*%
%TD*%
%TA.AperFunction,SMDPad,CuDef*%
%ADD31R,3.400000X1.300000*%
%TD*%
%TA.AperFunction,SMDPad,CuDef*%
%ADD32RoundRect,0.155000X-0.155000X0.212500X-0.155000X-0.212500X0.155000X-0.212500X0.155000X0.212500X0*%
%TD*%
%TA.AperFunction,SMDPad,CuDef*%
%ADD33RoundRect,0.237500X-0.300000X-0.237500X0.300000X-0.237500X0.300000X0.237500X-0.300000X0.237500X0*%
%TD*%
%TA.AperFunction,SMDPad,CuDef*%
%ADD34RoundRect,0.150000X-0.512500X-0.150000X0.512500X-0.150000X0.512500X0.150000X-0.512500X0.150000X0*%
%TD*%
%TA.AperFunction,SMDPad,CuDef*%
%ADD35RoundRect,0.237500X-0.287500X-0.237500X0.287500X-0.237500X0.287500X0.237500X-0.287500X0.237500X0*%
%TD*%
%TA.AperFunction,SMDPad,CuDef*%
%ADD36RoundRect,0.250000X0.475000X-0.337500X0.475000X0.337500X-0.475000X0.337500X-0.475000X-0.337500X0*%
%TD*%
%TA.AperFunction,ComponentPad*%
%ADD37RoundRect,0.250000X0.628109X0.387917X0.021891X0.737917X-0.628109X-0.387917X-0.021891X-0.737917X0*%
%TD*%
%TA.AperFunction,ComponentPad*%
%ADD38HorizOval,1.200000X0.150000X0.259808X-0.150000X-0.259808X0*%
%TD*%
%TA.AperFunction,SMDPad,CuDef*%
%ADD39RoundRect,0.237500X0.300000X0.237500X-0.300000X0.237500X-0.300000X-0.237500X0.300000X-0.237500X0*%
%TD*%
%TA.AperFunction,ComponentPad*%
%ADD40R,1.350000X1.350000*%
%TD*%
%TA.AperFunction,ComponentPad*%
%ADD41O,1.350000X1.350000*%
%TD*%
%TA.AperFunction,ViaPad*%
%ADD42C,0.660400*%
%TD*%
%TA.AperFunction,ViaPad*%
%ADD43C,1.016000*%
%TD*%
%TA.AperFunction,ViaPad*%
%ADD44C,0.800000*%
%TD*%
%TA.AperFunction,Conductor*%
%ADD45C,1.016000*%
%TD*%
%TA.AperFunction,Conductor*%
%ADD46C,0.254000*%
%TD*%
%TA.AperFunction,Conductor*%
%ADD47C,0.152400*%
%TD*%
%TA.AperFunction,Conductor*%
%ADD48C,0.508000*%
%TD*%
%TA.AperFunction,Conductor*%
%ADD49C,0.762000*%
%TD*%
%TA.AperFunction,Conductor*%
%ADD50C,1.524000*%
%TD*%
G04 APERTURE END LIST*
D10*
%TO.P,J4,1,Pin_1*%
%TO.N,/SC*%
X160607050Y-108212916D03*
D11*
%TO.P,J4,2,Pin_2*%
%TO.N,GND*%
X158874999Y-109212916D03*
%TD*%
D12*
%TO.P,J5,1,Pin_1*%
%TO.N,/VBAT*%
X140650000Y-81766978D03*
D13*
%TO.P,J5,2,Pin_2*%
%TO.N,/D8*%
X140650000Y-79226978D03*
%TO.P,J5,3,Pin_3*%
%TO.N,/A5*%
X143190000Y-81766978D03*
%TO.P,J5,4,Pin_4*%
%TO.N,/A3*%
X143190000Y-79226978D03*
%TO.P,J5,5,Pin_5*%
%TO.N,+5V*%
X145730000Y-81766978D03*
%TO.P,J5,6,Pin_6*%
%TO.N,/A2*%
X145730000Y-79226978D03*
%TO.P,J5,7,Pin_7*%
%TO.N,/RXD*%
X148270000Y-81766978D03*
%TO.P,J5,8,Pin_8*%
%TO.N,GND*%
X148270000Y-79226978D03*
%TO.P,J5,9,Pin_9*%
%TO.N,/TXD*%
X150810000Y-81766978D03*
%TO.P,J5,10,Pin_10*%
%TO.N,GND*%
X150810000Y-79226978D03*
%TO.P,J5,11,Pin_11*%
%TO.N,/SDA*%
X153350000Y-81766978D03*
%TO.P,J5,12,Pin_12*%
%TO.N,/SCL*%
X153350000Y-79226978D03*
%TD*%
D14*
%TO.P,R15,1*%
%TO.N,GND*%
X157840000Y-88897500D03*
%TO.P,R15,2*%
%TO.N,Net-(U4-PROG)*%
X157840000Y-90722500D03*
%TD*%
D15*
%TO.P,J8,1,Pin_1*%
%TO.N,/SC*%
X161850000Y-94400000D03*
D16*
%TO.P,J8,2,Pin_2*%
%TO.N,GND*%
X161850000Y-96400000D03*
%TD*%
D17*
%TO.P,C4,1*%
%TO.N,/VBAT*%
X153730000Y-94252500D03*
%TO.P,C4,2*%
%TO.N,GND*%
X153730000Y-92527500D03*
%TD*%
D18*
%TO.P,J7,1,Pin_1*%
%TO.N,/SC*%
X158846475Y-81568542D03*
D19*
%TO.P,J7,2,Pin_2*%
%TO.N,GND*%
X160578526Y-82568542D03*
%TD*%
D20*
%TO.P,C13,1*%
%TO.N,+5V*%
X157850000Y-95620000D03*
%TO.P,C13,2*%
%TO.N,GND*%
X156715000Y-95620000D03*
%TD*%
D21*
%TO.P,R13,1*%
%TO.N,GND*%
X136537500Y-89042500D03*
%TO.P,R13,2*%
%TO.N,/D8*%
X138362500Y-89042500D03*
%TD*%
D22*
%TO.P,R16,1*%
%TO.N,Net-(U4-STAT)*%
X155560000Y-90705000D03*
%TO.P,R16,2*%
%TO.N,Net-(D1-K)*%
X153735000Y-90705000D03*
%TD*%
D23*
%TO.P,J10,1,Pin_1*%
%TO.N,/SC*%
X132150000Y-96400000D03*
D16*
%TO.P,J10,2,Pin_2*%
%TO.N,GND*%
X132150000Y-94400000D03*
%TD*%
D21*
%TO.P,R12,1*%
%TO.N,GND*%
X136537500Y-90742500D03*
%TO.P,R12,2*%
%TO.N,/VOUT_EN*%
X138362500Y-90742500D03*
%TD*%
D24*
%TO.P,L2,1*%
%TO.N,/SC*%
X149900000Y-90188220D03*
%TO.P,L2,2*%
%TO.N,Net-(U2-LBOOST)*%
X149900000Y-93988220D03*
%TD*%
D25*
%TO.P,R11,1*%
%TO.N,GND*%
X143274280Y-104400720D03*
%TO.P,R11,2*%
%TO.N,Net-(U2-VOUT_SET)*%
X143274280Y-102575720D03*
%TD*%
D26*
%TO.P,J9,1,Pin_1*%
%TO.N,/SC*%
X133421475Y-82568542D03*
D11*
%TO.P,J9,2,Pin_2*%
%TO.N,GND*%
X135153526Y-81568542D03*
%TD*%
D27*
%TO.P,U2,1,VSS*%
%TO.N,GND*%
X144850000Y-95205000D03*
%TO.P,U2,2,VIN_DC*%
%TO.N,/SC*%
X144350000Y-95205000D03*
%TO.P,U2,3,VOC_SAMP*%
%TO.N,Net-(U2-VOC_SAMP)*%
X143850000Y-95205000D03*
%TO.P,U2,4,VREF_SAMP*%
%TO.N,Net-(U2-VREF_SAMP)*%
X143350000Y-95205000D03*
%TO.P,U2,5,~{EN}*%
%TO.N,/D8*%
X142850000Y-95205000D03*
D28*
%TO.P,U2,6,VOUT_EN*%
%TO.N,/VOUT_EN*%
X142162500Y-95892500D03*
%TO.P,U2,7,VBAT_OV*%
%TO.N,Net-(U2-VBAT_OV)*%
X142162500Y-96392500D03*
%TO.P,U2,8,VRDIV*%
%TO.N,Net-(U2-VRDIV)*%
X142162500Y-96892500D03*
%TO.P,U2,9,VSS*%
%TO.N,GND*%
X142162500Y-97392500D03*
%TO.P,U2,10,OK_HYST*%
%TO.N,Net-(U2-OK_HYST)*%
X142162500Y-97892500D03*
D27*
%TO.P,U2,11,OK_PROG*%
%TO.N,Net-(U2-OK_PROG)*%
X142850000Y-98580000D03*
%TO.P,U2,12,VOUT_SET*%
%TO.N,Net-(U2-VOUT_SET)*%
X143350000Y-98580000D03*
%TO.P,U2,13,VBAT_OK*%
%TO.N,/VBAT_OK_t*%
X143850000Y-98580000D03*
%TO.P,U2,14,VOUT*%
%TO.N,Net-(U2-VOUT)*%
X144350000Y-98580000D03*
%TO.P,U2,15,VSS*%
%TO.N,GND*%
X144850000Y-98580000D03*
D28*
%TO.P,U2,16,LBUCK*%
%TO.N,Net-(U2-LBUCK)*%
X145537500Y-97892500D03*
%TO.P,U2,17,VSS*%
%TO.N,GND*%
X145537500Y-97392500D03*
%TO.P,U2,18,VBAT*%
%TO.N,/VBAT*%
X145537500Y-96892500D03*
%TO.P,U2,19,VSTOR*%
%TO.N,Net-(U2-VOC_SAMP)*%
X145537500Y-96392500D03*
%TO.P,U2,20,LBOOST*%
%TO.N,Net-(U2-LBOOST)*%
X145537500Y-95892500D03*
D29*
%TO.P,U2,21,VSS*%
%TO.N,GND*%
X143850000Y-96892500D03*
%TD*%
D30*
%TO.P,C3,1*%
%TO.N,Net-(U2-VOC_SAMP)*%
X150610000Y-96430000D03*
%TO.P,C3,2*%
%TO.N,GND*%
X150610000Y-98155000D03*
%TD*%
D21*
%TO.P,R10,1*%
%TO.N,Net-(U2-OK_PROG)*%
X136537500Y-98702500D03*
%TO.P,R10,2*%
%TO.N,Net-(U2-OK_HYST)*%
X138362500Y-98702500D03*
%TD*%
%TO.P,R14,1*%
%TO.N,GND*%
X136537500Y-100402500D03*
%TO.P,R14,2*%
%TO.N,Net-(U2-OK_PROG)*%
X138362500Y-100402500D03*
%TD*%
D31*
%TO.P,L1,1*%
%TO.N,Net-(U2-LBUCK)*%
X150014280Y-101950000D03*
%TO.P,L1,2*%
%TO.N,Net-(U2-VOUT)*%
X150014280Y-104050000D03*
%TD*%
D12*
%TO.P,J6,1,Pin_1*%
%TO.N,/D12*%
X153350000Y-109045000D03*
D13*
%TO.P,J6,2,Pin_2*%
%TO.N,/D10*%
X153350000Y-111585000D03*
%TO.P,J6,3,Pin_3*%
%TO.N,/MOSI*%
X150810000Y-109045000D03*
%TO.P,J6,4,Pin_4*%
%TO.N,/D1*%
X150810000Y-111585000D03*
%TO.P,J6,5,Pin_5*%
%TO.N,/SCK*%
X148270000Y-109045000D03*
%TO.P,J6,6,Pin_6*%
%TO.N,/D3*%
X148270000Y-111585000D03*
%TO.P,J6,7,Pin_7*%
%TO.N,/D2*%
X145730000Y-109045000D03*
%TO.P,J6,8,Pin_8*%
%TO.N,/A4*%
X145730000Y-111585000D03*
%TO.P,J6,9,Pin_9*%
%TO.N,/MISO*%
X143190000Y-109045000D03*
%TO.P,J6,10,Pin_10*%
%TO.N,GND*%
X143190000Y-111585000D03*
%TO.P,J6,11,Pin_11*%
%TO.N,/D4*%
X140650000Y-109045000D03*
%TO.P,J6,12,Pin_12*%
%TO.N,GND*%
X140650000Y-111585000D03*
%TD*%
D32*
%TO.P,C2,1*%
%TO.N,Net-(U2-VOC_SAMP)*%
X149100000Y-96375000D03*
%TO.P,C2,2*%
%TO.N,GND*%
X149100000Y-97510000D03*
%TD*%
D33*
%TO.P,C5,1*%
%TO.N,/VBAT*%
X142237500Y-84450000D03*
%TO.P,C5,2*%
%TO.N,GND*%
X143962500Y-84450000D03*
%TD*%
D34*
%TO.P,U4,1,STAT*%
%TO.N,Net-(U4-STAT)*%
X155575000Y-92360000D03*
%TO.P,U4,2,VSS*%
%TO.N,GND*%
X155575000Y-93310000D03*
%TO.P,U4,3,VBAT*%
%TO.N,/VBAT*%
X155575000Y-94260000D03*
%TO.P,U4,4,VDD*%
%TO.N,+5V*%
X157850000Y-94260000D03*
%TO.P,U4,5,PROG*%
%TO.N,Net-(U4-PROG)*%
X157850000Y-92360000D03*
%TD*%
D35*
%TO.P,D1,1,K*%
%TO.N,Net-(D1-K)*%
X153795000Y-89070000D03*
%TO.P,D1,2,A*%
%TO.N,+5V*%
X155545000Y-89070000D03*
%TD*%
D21*
%TO.P,R9,1*%
%TO.N,GND*%
X136541780Y-93648220D03*
%TO.P,R9,2*%
%TO.N,Net-(U2-VBAT_OV)*%
X138366780Y-93648220D03*
%TD*%
D36*
%TO.P,C6,1*%
%TO.N,Net-(U2-VOUT)*%
X153230000Y-104037500D03*
%TO.P,C6,2*%
%TO.N,GND*%
X153230000Y-101962500D03*
%TD*%
D22*
%TO.P,R1,1*%
%TO.N,GND*%
X144012500Y-86000000D03*
%TO.P,R1,2*%
%TO.N,/VBAT*%
X142187500Y-86000000D03*
%TD*%
D37*
%TO.P,J1,1,Pin_1*%
%TO.N,/SC*%
X135153525Y-109231458D03*
D38*
%TO.P,J1,2,Pin_2*%
%TO.N,GND*%
X133421474Y-108231458D03*
%TD*%
D22*
%TO.P,R6,1*%
%TO.N,Net-(U2-VBAT_OV)*%
X138356780Y-95338220D03*
%TO.P,R6,2*%
%TO.N,Net-(U2-VRDIV)*%
X136531780Y-95338220D03*
%TD*%
D20*
%TO.P,C8,1*%
%TO.N,Net-(U2-VREF_SAMP)*%
X138017500Y-92172500D03*
%TO.P,C8,2*%
%TO.N,GND*%
X136882500Y-92172500D03*
%TD*%
D39*
%TO.P,C7,1*%
%TO.N,/SC*%
X146486780Y-90168220D03*
%TO.P,C7,2*%
%TO.N,GND*%
X144761780Y-90168220D03*
%TD*%
D40*
%TO.P,J2,1,Pin_1*%
%TO.N,/VBAT*%
X128490000Y-89500000D03*
D41*
%TO.P,J2,2,Pin_2*%
%TO.N,/BATTERY*%
X128490000Y-91500000D03*
%TD*%
D21*
%TO.P,R7,1*%
%TO.N,Net-(U2-OK_HYST)*%
X136537500Y-97002500D03*
%TO.P,R7,2*%
%TO.N,Net-(U2-VRDIV)*%
X138362500Y-97002500D03*
%TD*%
D40*
%TO.P,J3,1,Pin_1*%
%TO.N,/BATTERY*%
X128480000Y-94590000D03*
D41*
%TO.P,J3,2,Pin_2*%
%TO.N,GND*%
X128480000Y-96590000D03*
%TD*%
D22*
%TO.P,R8,1*%
%TO.N,Net-(U2-VOUT_SET)*%
X141706780Y-102558220D03*
%TO.P,R8,2*%
%TO.N,Net-(U2-VRDIV)*%
X139881780Y-102558220D03*
%TD*%
D42*
%TO.N,GND*%
X162000000Y-102500000D03*
X157500000Y-99000000D03*
X152500000Y-84500000D03*
X140000000Y-84500000D03*
X131500000Y-86500000D03*
X150500000Y-84500000D03*
X143264280Y-96318220D03*
X155500000Y-104500000D03*
X137000000Y-84500000D03*
X162500000Y-86000000D03*
X148500000Y-84500000D03*
X136500000Y-87500000D03*
X160500000Y-90000000D03*
X155000000Y-101000000D03*
X143264280Y-97392500D03*
X162000000Y-100000000D03*
X163000000Y-107500000D03*
X157500000Y-101000000D03*
X164500000Y-102500000D03*
X140000000Y-87500000D03*
X159500000Y-89000000D03*
X165500000Y-88000000D03*
X131500000Y-105000000D03*
X132500000Y-103000000D03*
X145000000Y-114500000D03*
X137500000Y-79500000D03*
X135500000Y-84000000D03*
X156500000Y-109000000D03*
X160500000Y-85000000D03*
X144420000Y-97392500D03*
X163500000Y-88000000D03*
X143264280Y-104398220D03*
X137500000Y-82500000D03*
X157500000Y-103000000D03*
X162500000Y-83500000D03*
X142500000Y-114500000D03*
X156500000Y-111500000D03*
X133500000Y-104500000D03*
X155000000Y-99000000D03*
X157500000Y-104500000D03*
X148500000Y-114500000D03*
X144409280Y-96333220D03*
X159500000Y-91000000D03*
X135000000Y-106000000D03*
X138000000Y-111500000D03*
X151000000Y-114500000D03*
X131500000Y-84000000D03*
X131500000Y-91000000D03*
X149000000Y-87500000D03*
X150000000Y-92000000D03*
D43*
%TO.N,/VBAT*%
X150520000Y-86100000D03*
X153725000Y-94240000D03*
D44*
%TO.N,Net-(U2-VOC_SAMP)*%
X146980000Y-96392500D03*
X144614280Y-92298220D03*
D42*
%TO.N,+5V*%
X157850000Y-95620000D03*
D44*
%TO.N,/VOUT_EN*%
X140580000Y-93232500D03*
X138362500Y-90742500D03*
D42*
%TO.N,Net-(U2-VRDIV)*%
X139881780Y-102558220D03*
X140304280Y-97098220D03*
D44*
%TO.N,/D8*%
X142200000Y-93652500D03*
X138362500Y-89042500D03*
%TO.N,/VBAT_OK_t*%
X143230000Y-100912500D03*
%TD*%
D45*
%TO.N,/BATTERY*%
X128480000Y-94590000D02*
X128480000Y-91510000D01*
X128480000Y-91510000D02*
X128490000Y-91500000D01*
D46*
%TO.N,GND*%
X136882500Y-92172500D02*
X136882500Y-91087500D01*
X136537500Y-100432447D02*
X140503273Y-104398220D01*
D47*
X144850000Y-97822500D02*
X144420000Y-97392500D01*
D46*
X136541780Y-93548220D02*
X135164280Y-94925720D01*
X135164280Y-94925720D02*
X135164280Y-99029280D01*
X136882500Y-91087500D02*
X136537500Y-90742500D01*
D47*
X144850000Y-95205000D02*
X144850000Y-95892500D01*
D46*
X143350000Y-97392500D02*
X143850000Y-96892500D01*
X136882500Y-93307500D02*
X136541780Y-93648220D01*
X145537500Y-97392500D02*
X144350000Y-97392500D01*
X140503273Y-104398220D02*
X143264280Y-104398220D01*
D47*
X144850000Y-98580000D02*
X144850000Y-97822500D01*
D46*
X136537500Y-100402500D02*
X136537500Y-100432447D01*
D47*
X144409280Y-96333220D02*
X143850000Y-96892500D01*
D46*
X142162500Y-97392500D02*
X143350000Y-97392500D01*
X135164280Y-99029280D02*
X136537500Y-100402500D01*
D47*
X144850000Y-95892500D02*
X144409280Y-96333220D01*
D46*
X136882500Y-92172500D02*
X136882500Y-93307500D01*
X136537500Y-90742500D02*
X136537500Y-89042500D01*
X144350000Y-97392500D02*
X143850000Y-96892500D01*
D48*
%TO.N,/VBAT*%
X153737500Y-94260000D02*
X153725000Y-94247500D01*
D46*
X145537500Y-96892500D02*
X146338560Y-96892500D01*
D49*
X146100000Y-87500000D02*
X147500000Y-86100000D01*
D46*
X146338560Y-96892500D02*
X146964280Y-97518220D01*
D49*
X153730000Y-94252500D02*
X153730000Y-98120000D01*
X142187500Y-86000000D02*
X135700000Y-86000000D01*
D48*
X155575000Y-94260000D02*
X153737500Y-94260000D01*
D49*
X142187500Y-86337500D02*
X143350000Y-87500000D01*
D48*
X153725000Y-94240000D02*
X153717500Y-94240000D01*
D49*
X143350000Y-87500000D02*
X146100000Y-87500000D01*
X142187500Y-86000000D02*
X142187500Y-86337500D01*
X153730000Y-98120000D02*
X151970000Y-99880000D01*
X142237500Y-85950000D02*
X142187500Y-86000000D01*
X149326060Y-99880000D02*
X146964280Y-97518220D01*
X135700000Y-86000000D02*
X132200000Y-89500000D01*
X132200000Y-89500000D02*
X128490000Y-89500000D01*
X142237500Y-83354478D02*
X140650000Y-81766978D01*
X147500000Y-86100000D02*
X150520000Y-86100000D01*
X142237500Y-84450000D02*
X142237500Y-83354478D01*
X151970000Y-99880000D02*
X149326060Y-99880000D01*
X142237500Y-84450000D02*
X142237500Y-85950000D01*
D48*
X153725000Y-94247500D02*
X153725000Y-94240000D01*
X153717500Y-94240000D02*
X153730000Y-94252500D01*
D46*
%TO.N,Net-(U2-VOC_SAMP)*%
X145537500Y-96392500D02*
X146980000Y-96392500D01*
D49*
X150555000Y-96375000D02*
X150610000Y-96430000D01*
X149100000Y-96375000D02*
X150555000Y-96375000D01*
X146980000Y-96392500D02*
X149032500Y-96392500D01*
D46*
X143850000Y-95205000D02*
X143850000Y-93062500D01*
X143850000Y-93062500D02*
X144614280Y-92298220D01*
D49*
%TO.N,/SC*%
X146484280Y-92108220D02*
X144949280Y-93643220D01*
D45*
X161850000Y-94400000D02*
X161850000Y-88950000D01*
X158519678Y-81568542D02*
X156494110Y-83594110D01*
X156494110Y-83594110D02*
X149900000Y-90188220D01*
X158846475Y-81568542D02*
X158519678Y-81568542D01*
D50*
X150274280Y-90188220D02*
X146506780Y-90188220D01*
D49*
X146486780Y-90168220D02*
X146484280Y-90170720D01*
X146484280Y-90170720D02*
X146484280Y-92108220D01*
D46*
X144350000Y-95205000D02*
X144350000Y-94242500D01*
D45*
X161850000Y-88950000D02*
X156494110Y-83594110D01*
D46*
X144350000Y-94242500D02*
X144949280Y-93643220D01*
D47*
%TO.N,+5V*%
X156730000Y-90255000D02*
X156730000Y-93140000D01*
X156730000Y-93140000D02*
X157850000Y-94260000D01*
X155545000Y-89070000D02*
X156730000Y-90255000D01*
D48*
X157850000Y-95620000D02*
X157850000Y-94260000D01*
D46*
%TO.N,Net-(U2-VOUT)*%
X144350000Y-98580000D02*
X144350000Y-99773940D01*
D49*
X150014280Y-104050000D02*
X147200000Y-104050000D01*
X147200000Y-104050000D02*
X146610000Y-103460000D01*
X146610000Y-102033940D02*
X144984280Y-100408220D01*
X150026780Y-104037500D02*
X150014280Y-104050000D01*
X146610000Y-103460000D02*
X146610000Y-102033940D01*
D46*
X144350000Y-99773940D02*
X144984280Y-100408220D01*
D49*
X153230000Y-104037500D02*
X150026780Y-104037500D01*
D46*
%TO.N,Net-(U2-VREF_SAMP)*%
X142260000Y-92172500D02*
X138017500Y-92172500D01*
X143350000Y-93262500D02*
X142260000Y-92172500D01*
X143350000Y-95205000D02*
X143350000Y-93262500D01*
D47*
%TO.N,Net-(D1-K)*%
X153735000Y-90705000D02*
X153735000Y-89130000D01*
X153735000Y-89130000D02*
X153795000Y-89070000D01*
D46*
%TO.N,Net-(U2-LBUCK)*%
X145537500Y-98491440D02*
X146149280Y-99103220D01*
D49*
X150014280Y-101950000D02*
X148996060Y-101950000D01*
X148996060Y-101950000D02*
X146149280Y-99103220D01*
D46*
X145537500Y-97892500D02*
X145537500Y-98491440D01*
D49*
%TO.N,Net-(U2-LBOOST)*%
X150274280Y-93988220D02*
X147814280Y-93988220D01*
D46*
X145537500Y-95892500D02*
X145880000Y-95892500D01*
X145910000Y-95892500D02*
X146475000Y-95327500D01*
D49*
X147814280Y-93988220D02*
X146590000Y-95212500D01*
D46*
X145880000Y-95892500D02*
X145910000Y-95892500D01*
X146475000Y-95327500D02*
X146590000Y-95212500D01*
%TO.N,/VOUT_EN*%
X142162500Y-95892500D02*
X141370000Y-95892500D01*
X141180000Y-95702500D02*
X140580000Y-95102500D01*
X141370000Y-95892500D02*
X141180000Y-95702500D01*
X140580000Y-95102500D02*
X140580000Y-93232500D01*
%TO.N,Net-(U2-VRDIV)*%
X136531780Y-95338220D02*
X136698220Y-95338220D01*
X136698220Y-95338220D02*
X138362500Y-97002500D01*
X142162500Y-96892500D02*
X140510000Y-96892500D01*
X140510000Y-96892500D02*
X140304280Y-97098220D01*
X140208560Y-97002500D02*
X140304280Y-97098220D01*
X138362500Y-97002500D02*
X140208560Y-97002500D01*
%TO.N,Net-(U2-VBAT_OV)*%
X139411060Y-96392500D02*
X138356780Y-95338220D01*
X142162500Y-96392500D02*
X139411060Y-96392500D01*
X138366780Y-93648220D02*
X138366780Y-95328220D01*
X138366780Y-95328220D02*
X138356780Y-95338220D01*
%TO.N,Net-(U2-OK_HYST)*%
X141040000Y-97892500D02*
X140230000Y-98702500D01*
X136537500Y-97002500D02*
X136662500Y-97002500D01*
X136662500Y-97002500D02*
X138362500Y-98702500D01*
X142162500Y-97892500D02*
X141040000Y-97892500D01*
X140230000Y-98702500D02*
X138362500Y-98702500D01*
%TO.N,Net-(U2-VOUT_SET)*%
X143350000Y-99662500D02*
X141706780Y-101305720D01*
X143256780Y-102558220D02*
X143274280Y-102575720D01*
X141706780Y-102558220D02*
X143256780Y-102558220D01*
X143350000Y-98580000D02*
X143350000Y-99662500D01*
X141706780Y-101305720D02*
X141706780Y-102558220D01*
%TO.N,Net-(U2-OK_PROG)*%
X141890000Y-100402500D02*
X142850000Y-99442500D01*
X136537500Y-98702500D02*
X136662500Y-98702500D01*
X136662500Y-98702500D02*
X138362500Y-100402500D01*
X138362500Y-100402500D02*
X141890000Y-100402500D01*
X142850000Y-99442500D02*
X142850000Y-98580000D01*
%TO.N,Net-(U4-PROG)*%
X157850000Y-92360000D02*
X157850000Y-90732500D01*
X157850000Y-90732500D02*
X157840000Y-90722500D01*
D47*
%TO.N,Net-(U4-STAT)*%
X155575000Y-90720000D02*
X155560000Y-90705000D01*
X155575000Y-92360000D02*
X155575000Y-90720000D01*
D46*
%TO.N,/D8*%
X142850000Y-94302500D02*
X142200000Y-93652500D01*
X142850000Y-95205000D02*
X142850000Y-94302500D01*
%TO.N,/VBAT_OK_t*%
X143850000Y-100292500D02*
X143230000Y-100912500D01*
X143850000Y-98580000D02*
X143850000Y-100292500D01*
%TD*%
%TA.AperFunction,Conductor*%
%TO.N,GND*%
G36*
X147043946Y-72689881D02*
G01*
X166650750Y-84009873D01*
X166689399Y-84055933D01*
X166694700Y-84085997D01*
X166694700Y-106725978D01*
X166674135Y-106782479D01*
X166650750Y-106802102D01*
X147043949Y-118122094D01*
X146984735Y-118132535D01*
X146956049Y-118122094D01*
X145978254Y-117557564D01*
X143610602Y-116190599D01*
X145589884Y-116190599D01*
X145609115Y-116422695D01*
X145609116Y-116422701D01*
X145666286Y-116648459D01*
X145666289Y-116648467D01*
X145737987Y-116811920D01*
X145759840Y-116861740D01*
X145759844Y-116861746D01*
X145887215Y-117056704D01*
X145887216Y-117056706D01*
X145887220Y-117056710D01*
X146044954Y-117228055D01*
X146228740Y-117371101D01*
X146433563Y-117481946D01*
X146653837Y-117557566D01*
X146653839Y-117557566D01*
X146653841Y-117557567D01*
X146883550Y-117595899D01*
X146883554Y-117595899D01*
X147116450Y-117595899D01*
X147346158Y-117557567D01*
X147346158Y-117557566D01*
X147346163Y-117557566D01*
X147566437Y-117481946D01*
X147771260Y-117371101D01*
X147955046Y-117228055D01*
X148112780Y-117056710D01*
X148240160Y-116861740D01*
X148333712Y-116648463D01*
X148390884Y-116422696D01*
X148410116Y-116190599D01*
X148390884Y-115958502D01*
X148390883Y-115958496D01*
X148333713Y-115732738D01*
X148333710Y-115732730D01*
X148240164Y-115519468D01*
X148240160Y-115519458D01*
X148159435Y-115395899D01*
X148112784Y-115324493D01*
X148112783Y-115324491D01*
X147955050Y-115153147D01*
X147955048Y-115153146D01*
X147955046Y-115153143D01*
X147771260Y-115010097D01*
X147566437Y-114899252D01*
X147566433Y-114899250D01*
X147566430Y-114899249D01*
X147346167Y-114823633D01*
X147346158Y-114823630D01*
X147116450Y-114785299D01*
X147116446Y-114785299D01*
X146883554Y-114785299D01*
X146883550Y-114785299D01*
X146653841Y-114823630D01*
X146653832Y-114823633D01*
X146433569Y-114899249D01*
X146228740Y-115010097D01*
X146044949Y-115153147D01*
X145887216Y-115324491D01*
X145887215Y-115324493D01*
X145759844Y-115519451D01*
X145759835Y-115519468D01*
X145666289Y-115732730D01*
X145666286Y-115732738D01*
X145609116Y-115958496D01*
X145609115Y-115958502D01*
X145589884Y-116190599D01*
X143610602Y-116190599D01*
X141176551Y-114785299D01*
X135193528Y-111330999D01*
X139679544Y-111330999D01*
X139679545Y-111331000D01*
X140218884Y-111331000D01*
X140190507Y-111375156D01*
X140150000Y-111513111D01*
X140150000Y-111656889D01*
X140190507Y-111794844D01*
X140218884Y-111839000D01*
X139679545Y-111839000D01*
X139719419Y-111970452D01*
X139812504Y-112144601D01*
X139937759Y-112297224D01*
X139937775Y-112297240D01*
X140090398Y-112422495D01*
X140090397Y-112422495D01*
X140264547Y-112515580D01*
X140395999Y-112555455D01*
X140396000Y-112555455D01*
X140396000Y-112018674D01*
X140507685Y-112069680D01*
X140614237Y-112085000D01*
X140685763Y-112085000D01*
X140792315Y-112069680D01*
X140904000Y-112018674D01*
X140904000Y-112555455D01*
X141035452Y-112515580D01*
X141209601Y-112422495D01*
X141362224Y-112297240D01*
X141362240Y-112297224D01*
X141487495Y-112144601D01*
X141580580Y-111970452D01*
X141620455Y-111839000D01*
X141081116Y-111839000D01*
X141109493Y-111794844D01*
X141150000Y-111656889D01*
X141150000Y-111513111D01*
X141109493Y-111375156D01*
X141081116Y-111331000D01*
X141620455Y-111331000D01*
X141620455Y-111330999D01*
X142219544Y-111330999D01*
X142219545Y-111331000D01*
X142758884Y-111331000D01*
X142730507Y-111375156D01*
X142690000Y-111513111D01*
X142690000Y-111656889D01*
X142730507Y-111794844D01*
X142758884Y-111839000D01*
X142219545Y-111839000D01*
X142259419Y-111970452D01*
X142352504Y-112144601D01*
X142477759Y-112297224D01*
X142477775Y-112297240D01*
X142630398Y-112422495D01*
X142630397Y-112422495D01*
X142804547Y-112515580D01*
X142935999Y-112555455D01*
X142936000Y-112555455D01*
X142936000Y-112018674D01*
X143047685Y-112069680D01*
X143154237Y-112085000D01*
X143225763Y-112085000D01*
X143332315Y-112069680D01*
X143444000Y-112018674D01*
X143444000Y-112555455D01*
X143575452Y-112515580D01*
X143749601Y-112422495D01*
X143902224Y-112297240D01*
X143902240Y-112297224D01*
X144027495Y-112144601D01*
X144120580Y-111970452D01*
X144160455Y-111839000D01*
X143621116Y-111839000D01*
X143649493Y-111794844D01*
X143690000Y-111656889D01*
X143690000Y-111585000D01*
X144722247Y-111585000D01*
X144741612Y-111781609D01*
X144798898Y-111970452D01*
X144798958Y-111970650D01*
X144892084Y-112144878D01*
X145017411Y-112297589D01*
X145170122Y-112422916D01*
X145344350Y-112516042D01*
X145533397Y-112573389D01*
X145730000Y-112592753D01*
X145926603Y-112573389D01*
X146115650Y-112516042D01*
X146289878Y-112422916D01*
X146442589Y-112297589D01*
X146567916Y-112144878D01*
X146661042Y-111970650D01*
X146718389Y-111781603D01*
X146737753Y-111585000D01*
X147262247Y-111585000D01*
X147281612Y-111781609D01*
X147338898Y-111970452D01*
X147338958Y-111970650D01*
X147432084Y-112144878D01*
X147557411Y-112297589D01*
X147710122Y-112422916D01*
X147884350Y-112516042D01*
X148073397Y-112573389D01*
X148270000Y-112592753D01*
X148466603Y-112573389D01*
X148655650Y-112516042D01*
X148829878Y-112422916D01*
X148982589Y-112297589D01*
X149107916Y-112144878D01*
X149201042Y-111970650D01*
X149258389Y-111781603D01*
X149277753Y-111585000D01*
X149277753Y-111584999D01*
X149802247Y-111584999D01*
X149821612Y-111781609D01*
X149878898Y-111970452D01*
X149878958Y-111970650D01*
X149972084Y-112144878D01*
X150097411Y-112297589D01*
X150250122Y-112422916D01*
X150424350Y-112516042D01*
X150613397Y-112573389D01*
X150810000Y-112592753D01*
X151006603Y-112573389D01*
X151195650Y-112516042D01*
X151369878Y-112422916D01*
X151522589Y-112297589D01*
X151647916Y-112144878D01*
X151741042Y-111970650D01*
X151798389Y-111781603D01*
X151817753Y-111585000D01*
X151817753Y-111584999D01*
X152342247Y-111584999D01*
X152361612Y-111781609D01*
X152418898Y-111970452D01*
X152418958Y-111970650D01*
X152512084Y-112144878D01*
X152637411Y-112297589D01*
X152790122Y-112422916D01*
X152964350Y-112516042D01*
X153153397Y-112573389D01*
X153350000Y-112592753D01*
X153546603Y-112573389D01*
X153735650Y-112516042D01*
X153909878Y-112422916D01*
X154062589Y-112297589D01*
X154187916Y-112144878D01*
X154281042Y-111970650D01*
X154338389Y-111781603D01*
X154357753Y-111585000D01*
X154338389Y-111388397D01*
X154281042Y-111199350D01*
X154187916Y-111025122D01*
X154062589Y-110872411D01*
X153909878Y-110747084D01*
X153735650Y-110653958D01*
X153735649Y-110653957D01*
X153735648Y-110653957D01*
X153546609Y-110596612D01*
X153546604Y-110596611D01*
X153546603Y-110596611D01*
X153350000Y-110577247D01*
X153349999Y-110577247D01*
X153302657Y-110581909D01*
X153153397Y-110596611D01*
X153153395Y-110596611D01*
X153153390Y-110596612D01*
X152964351Y-110653957D01*
X152790121Y-110747084D01*
X152637413Y-110872409D01*
X152637409Y-110872413D01*
X152512084Y-111025121D01*
X152418957Y-111199351D01*
X152361612Y-111388390D01*
X152342247Y-111584999D01*
X151817753Y-111584999D01*
X151798389Y-111388397D01*
X151741042Y-111199350D01*
X151647916Y-111025122D01*
X151522589Y-110872411D01*
X151369878Y-110747084D01*
X151195650Y-110653958D01*
X151195649Y-110653957D01*
X151195648Y-110653957D01*
X151006609Y-110596612D01*
X151006604Y-110596611D01*
X151006603Y-110596611D01*
X150810000Y-110577247D01*
X150809999Y-110577247D01*
X150762657Y-110581909D01*
X150613397Y-110596611D01*
X150613395Y-110596611D01*
X150613390Y-110596612D01*
X150424351Y-110653957D01*
X150250121Y-110747084D01*
X150097413Y-110872409D01*
X150097409Y-110872413D01*
X149972084Y-111025121D01*
X149878957Y-111199351D01*
X149821612Y-111388390D01*
X149802247Y-111584999D01*
X149277753Y-111584999D01*
X149258389Y-111388397D01*
X149201042Y-111199350D01*
X149107916Y-111025122D01*
X148982589Y-110872411D01*
X148829878Y-110747084D01*
X148655650Y-110653958D01*
X148655649Y-110653957D01*
X148655648Y-110653957D01*
X148466609Y-110596612D01*
X148466604Y-110596611D01*
X148466603Y-110596611D01*
X148270000Y-110577247D01*
X148073397Y-110596611D01*
X148073395Y-110596611D01*
X148073390Y-110596612D01*
X147884351Y-110653957D01*
X147710121Y-110747084D01*
X147557413Y-110872409D01*
X147557409Y-110872413D01*
X147432084Y-111025121D01*
X147338957Y-111199351D01*
X147281612Y-111388390D01*
X147262247Y-111585000D01*
X146737753Y-111585000D01*
X146718389Y-111388397D01*
X146661042Y-111199350D01*
X146567916Y-111025122D01*
X146442589Y-110872411D01*
X146289878Y-110747084D01*
X146115650Y-110653958D01*
X146115649Y-110653957D01*
X146115648Y-110653957D01*
X145926609Y-110596612D01*
X145926604Y-110596611D01*
X145926603Y-110596611D01*
X145730000Y-110577247D01*
X145533397Y-110596611D01*
X145533395Y-110596611D01*
X145533390Y-110596612D01*
X145344351Y-110653957D01*
X145170121Y-110747084D01*
X145017413Y-110872409D01*
X145017409Y-110872413D01*
X144892084Y-111025121D01*
X144798957Y-111199351D01*
X144741612Y-111388390D01*
X144722247Y-111585000D01*
X143690000Y-111585000D01*
X143690000Y-111513111D01*
X143649493Y-111375156D01*
X143621116Y-111331000D01*
X144160455Y-111331000D01*
X144160455Y-111330999D01*
X144120580Y-111199547D01*
X144027495Y-111025398D01*
X143902240Y-110872775D01*
X143902224Y-110872759D01*
X143749601Y-110747504D01*
X143749602Y-110747504D01*
X143575458Y-110654422D01*
X143444000Y-110614544D01*
X143444000Y-111151325D01*
X143332315Y-111100320D01*
X143225763Y-111085000D01*
X143154237Y-111085000D01*
X143047685Y-111100320D01*
X142936000Y-111151325D01*
X142936000Y-110614544D01*
X142804541Y-110654422D01*
X142630398Y-110747504D01*
X142477775Y-110872759D01*
X142477759Y-110872775D01*
X142352504Y-111025398D01*
X142259419Y-111199547D01*
X142219544Y-111330999D01*
X141620455Y-111330999D01*
X141580580Y-111199547D01*
X141487495Y-111025398D01*
X141362240Y-110872775D01*
X141362224Y-110872759D01*
X141209601Y-110747504D01*
X141209602Y-110747504D01*
X141035458Y-110654422D01*
X140904000Y-110614544D01*
X140904000Y-111151325D01*
X140792315Y-111100320D01*
X140685763Y-111085000D01*
X140614237Y-111085000D01*
X140507685Y-111100320D01*
X140396000Y-111151325D01*
X140396000Y-110614544D01*
X140264541Y-110654422D01*
X140090398Y-110747504D01*
X139937775Y-110872759D01*
X139937759Y-110872775D01*
X139812504Y-111025398D01*
X139719419Y-111199547D01*
X139679544Y-111330999D01*
X135193528Y-111330999D01*
X132302761Y-109662014D01*
X134119727Y-109662014D01*
X134119728Y-109662014D01*
X134152760Y-109785291D01*
X134216158Y-109882915D01*
X134222271Y-109892328D01*
X134222272Y-109892329D01*
X134296501Y-109952438D01*
X134296504Y-109952441D01*
X134296506Y-109952442D01*
X134957644Y-110334150D01*
X134957652Y-110334153D01*
X134957654Y-110334154D01*
X135046819Y-110368382D01*
X135046822Y-110368383D01*
X135174274Y-110375062D01*
X135297551Y-110342030D01*
X135404587Y-110272520D01*
X135464702Y-110198284D01*
X136130551Y-109045000D01*
X139642247Y-109045000D01*
X139660307Y-109228368D01*
X139661612Y-109241609D01*
X139718957Y-109430648D01*
X139718958Y-109430650D01*
X139812084Y-109604878D01*
X139937411Y-109757589D01*
X140090122Y-109882916D01*
X140264350Y-109976042D01*
X140453397Y-110033389D01*
X140650000Y-110052753D01*
X140846603Y-110033389D01*
X141035650Y-109976042D01*
X141209878Y-109882916D01*
X141362589Y-109757589D01*
X141487916Y-109604878D01*
X141581042Y-109430650D01*
X141638389Y-109241603D01*
X141657753Y-109045000D01*
X142182247Y-109045000D01*
X142200307Y-109228368D01*
X142201612Y-109241609D01*
X142258957Y-109430648D01*
X142258958Y-109430650D01*
X142352084Y-109604878D01*
X142477411Y-109757589D01*
X142630122Y-109882916D01*
X142804350Y-109976042D01*
X142993397Y-110033389D01*
X143190000Y-110052753D01*
X143386603Y-110033389D01*
X143575650Y-109976042D01*
X143749878Y-109882916D01*
X143902589Y-109757589D01*
X144027916Y-109604878D01*
X144121042Y-109430650D01*
X144178389Y-109241603D01*
X144197753Y-109045000D01*
X144722247Y-109045000D01*
X144740307Y-109228368D01*
X144741612Y-109241609D01*
X144798957Y-109430648D01*
X144798958Y-109430650D01*
X144892084Y-109604878D01*
X145017411Y-109757589D01*
X145170122Y-109882916D01*
X145344350Y-109976042D01*
X145533397Y-110033389D01*
X145730000Y-110052753D01*
X145926603Y-110033389D01*
X146115650Y-109976042D01*
X146289878Y-109882916D01*
X146442589Y-109757589D01*
X146567916Y-109604878D01*
X146661042Y-109430650D01*
X146718389Y-109241603D01*
X146737753Y-109045000D01*
X147262247Y-109045000D01*
X147280307Y-109228368D01*
X147281612Y-109241609D01*
X147338957Y-109430648D01*
X147338958Y-109430650D01*
X147432084Y-109604878D01*
X147557411Y-109757589D01*
X147710122Y-109882916D01*
X147884350Y-109976042D01*
X148073397Y-110033389D01*
X148270000Y-110052753D01*
X148466603Y-110033389D01*
X148655650Y-109976042D01*
X148829878Y-109882916D01*
X148982589Y-109757589D01*
X149107916Y-109604878D01*
X149201042Y-109430650D01*
X149258389Y-109241603D01*
X149277753Y-109045000D01*
X149802247Y-109045000D01*
X149820307Y-109228368D01*
X149821612Y-109241609D01*
X149878957Y-109430648D01*
X149878958Y-109430650D01*
X149972084Y-109604878D01*
X150097411Y-109757589D01*
X150250122Y-109882916D01*
X150424350Y-109976042D01*
X150613397Y-110033389D01*
X150810000Y-110052753D01*
X151006603Y-110033389D01*
X151195650Y-109976042D01*
X151319098Y-109910058D01*
X152347100Y-109910058D01*
X152355530Y-109952438D01*
X152355972Y-109954658D01*
X152389766Y-110005234D01*
X152406701Y-110016550D01*
X152440341Y-110039028D01*
X152447741Y-110040499D01*
X152484943Y-110047900D01*
X154215056Y-110047899D01*
X154215058Y-110047899D01*
X154227750Y-110045374D01*
X154259658Y-110039028D01*
X154310234Y-110005234D01*
X154344028Y-109954658D01*
X154352900Y-109910057D01*
X154352899Y-108909061D01*
X157968759Y-108909061D01*
X157978984Y-109084649D01*
X158029427Y-109253140D01*
X158029428Y-109253143D01*
X158096401Y-109369143D01*
X158480381Y-109147452D01*
X158470013Y-109212916D01*
X158489834Y-109338064D01*
X158547358Y-109450961D01*
X158636954Y-109540557D01*
X158731800Y-109588883D01*
X158350400Y-109809085D01*
X158395313Y-109886877D01*
X158473996Y-109992566D01*
X158473997Y-109992567D01*
X158608736Y-110105625D01*
X158608741Y-110105628D01*
X158765908Y-110184561D01*
X158937058Y-110225124D01*
X159112940Y-110225124D01*
X159159703Y-110214040D01*
X158809537Y-109607534D01*
X158843518Y-109612916D01*
X158906480Y-109612916D01*
X159000147Y-109598081D01*
X159113044Y-109540557D01*
X159202640Y-109450961D01*
X159250967Y-109356113D01*
X159599893Y-109960472D01*
X159681030Y-109851487D01*
X159750696Y-109689986D01*
X159781239Y-109516769D01*
X159771013Y-109341183D01*
X159720569Y-109172688D01*
X159720568Y-109172686D01*
X159653595Y-109056686D01*
X159269617Y-109278375D01*
X159279985Y-109212916D01*
X159260164Y-109087768D01*
X159202640Y-108974871D01*
X159113044Y-108885275D01*
X159018194Y-108836946D01*
X159399596Y-108616744D01*
X159354684Y-108538953D01*
X159276001Y-108433265D01*
X159276000Y-108433264D01*
X159141264Y-108320209D01*
X159141259Y-108320206D01*
X158984090Y-108241270D01*
X158812941Y-108200708D01*
X158637055Y-108200708D01*
X158590293Y-108211789D01*
X158940459Y-108818297D01*
X158906480Y-108812916D01*
X158843518Y-108812916D01*
X158749851Y-108827751D01*
X158636954Y-108885275D01*
X158547358Y-108974871D01*
X158499030Y-109069718D01*
X158150104Y-108465359D01*
X158068967Y-108574344D01*
X157999301Y-108735845D01*
X157968759Y-108909061D01*
X154352899Y-108909061D01*
X154352899Y-108179944D01*
X154352899Y-108179943D01*
X154352899Y-108179941D01*
X154349111Y-108160902D01*
X154344028Y-108135342D01*
X154310234Y-108084766D01*
X154310002Y-108084611D01*
X154259658Y-108050971D01*
X154222456Y-108043571D01*
X154215057Y-108042100D01*
X154215056Y-108042100D01*
X152484941Y-108042100D01*
X152440341Y-108050972D01*
X152389767Y-108084765D01*
X152389764Y-108084768D01*
X152355971Y-108135341D01*
X152347100Y-108179943D01*
X152347100Y-109910058D01*
X151319098Y-109910058D01*
X151369878Y-109882916D01*
X151522589Y-109757589D01*
X151647916Y-109604878D01*
X151741042Y-109430650D01*
X151798389Y-109241603D01*
X151817753Y-109045000D01*
X151798389Y-108848397D01*
X151792088Y-108827627D01*
X151781068Y-108791298D01*
X151741042Y-108659350D01*
X151647916Y-108485122D01*
X151522589Y-108332411D01*
X151369878Y-108207084D01*
X151195650Y-108113958D01*
X151195649Y-108113957D01*
X151195648Y-108113957D01*
X151006609Y-108056612D01*
X151006604Y-108056611D01*
X151006603Y-108056611D01*
X150810000Y-108037247D01*
X150613397Y-108056611D01*
X150613395Y-108056611D01*
X150613390Y-108056612D01*
X150424351Y-108113957D01*
X150250121Y-108207084D01*
X150097413Y-108332409D01*
X150097409Y-108332413D01*
X149972084Y-108485121D01*
X149878957Y-108659351D01*
X149821612Y-108848390D01*
X149821611Y-108848395D01*
X149821611Y-108848397D01*
X149802247Y-109045000D01*
X149277753Y-109045000D01*
X149258389Y-108848397D01*
X149252088Y-108827627D01*
X149241068Y-108791298D01*
X149201042Y-108659350D01*
X149107916Y-108485122D01*
X148982589Y-108332411D01*
X148829878Y-108207084D01*
X148655650Y-108113958D01*
X148655649Y-108113957D01*
X148655648Y-108113957D01*
X148466609Y-108056612D01*
X148466604Y-108056611D01*
X148466603Y-108056611D01*
X148270000Y-108037247D01*
X148073397Y-108056611D01*
X148073395Y-108056611D01*
X148073390Y-108056612D01*
X147884351Y-108113957D01*
X147710121Y-108207084D01*
X147557413Y-108332409D01*
X147557409Y-108332413D01*
X147432084Y-108485121D01*
X147338957Y-108659351D01*
X147281612Y-108848390D01*
X147281611Y-108848395D01*
X147281611Y-108848397D01*
X147262247Y-109045000D01*
X146737753Y-109045000D01*
X146718389Y-108848397D01*
X146712088Y-108827627D01*
X146701068Y-108791298D01*
X146661042Y-108659350D01*
X146567916Y-108485122D01*
X146442589Y-108332411D01*
X146289878Y-108207084D01*
X146115650Y-108113958D01*
X146115649Y-108113957D01*
X146115648Y-108113957D01*
X145926609Y-108056612D01*
X145926604Y-108056611D01*
X145926603Y-108056611D01*
X145730000Y-108037247D01*
X145533397Y-108056611D01*
X145533395Y-108056611D01*
X145533390Y-108056612D01*
X145344351Y-108113957D01*
X145170121Y-108207084D01*
X145017413Y-108332409D01*
X145017409Y-108332413D01*
X144892084Y-108485121D01*
X144798957Y-108659351D01*
X144741612Y-108848390D01*
X144741611Y-108848395D01*
X144741611Y-108848397D01*
X144722247Y-109045000D01*
X144197753Y-109045000D01*
X144178389Y-108848397D01*
X144172088Y-108827627D01*
X144161068Y-108791298D01*
X144121042Y-108659350D01*
X144027916Y-108485122D01*
X143902589Y-108332411D01*
X143749878Y-108207084D01*
X143575650Y-108113958D01*
X143575649Y-108113957D01*
X143575648Y-108113957D01*
X143386609Y-108056612D01*
X143386604Y-108056611D01*
X143386603Y-108056611D01*
X143190000Y-108037247D01*
X142993397Y-108056611D01*
X142993395Y-108056611D01*
X142993390Y-108056612D01*
X142804351Y-108113957D01*
X142630121Y-108207084D01*
X142477413Y-108332409D01*
X142477409Y-108332413D01*
X142352084Y-108485121D01*
X142258957Y-108659351D01*
X142201612Y-108848390D01*
X142201611Y-108848395D01*
X142201611Y-108848397D01*
X142182247Y-109045000D01*
X141657753Y-109045000D01*
X141638389Y-108848397D01*
X141632088Y-108827627D01*
X141621068Y-108791298D01*
X141581042Y-108659350D01*
X141487916Y-108485122D01*
X141362589Y-108332411D01*
X141209878Y-108207084D01*
X141035650Y-108113958D01*
X141035649Y-108113957D01*
X141035648Y-108113957D01*
X140846609Y-108056612D01*
X140846604Y-108056611D01*
X140846603Y-108056611D01*
X140650000Y-108037247D01*
X140453397Y-108056611D01*
X140453395Y-108056611D01*
X140453390Y-108056612D01*
X140264351Y-108113957D01*
X140090121Y-108207084D01*
X139937413Y-108332409D01*
X139937409Y-108332413D01*
X139812084Y-108485121D01*
X139718957Y-108659351D01*
X139661612Y-108848390D01*
X139661611Y-108848395D01*
X139661611Y-108848397D01*
X139642247Y-109045000D01*
X136130551Y-109045000D01*
X136146410Y-109017532D01*
X136180642Y-108928353D01*
X136185921Y-108827627D01*
X136187322Y-108800907D01*
X136187322Y-108800904D01*
X136187321Y-108800903D01*
X136187322Y-108800902D01*
X136154290Y-108677625D01*
X136084779Y-108570588D01*
X136070591Y-108559099D01*
X136010548Y-108510477D01*
X136010545Y-108510474D01*
X135702133Y-108332413D01*
X135349406Y-108128766D01*
X135349401Y-108128764D01*
X135349395Y-108128761D01*
X135260230Y-108094533D01*
X135132777Y-108087854D01*
X135132776Y-108087854D01*
X135009499Y-108120886D01*
X135009497Y-108120886D01*
X135009497Y-108120887D01*
X134902462Y-108190396D01*
X134902461Y-108190397D01*
X134842351Y-108264627D01*
X134842348Y-108264630D01*
X134450331Y-108943625D01*
X134160640Y-109445384D01*
X134160640Y-109445385D01*
X134160639Y-109445387D01*
X134126408Y-109534561D01*
X134126407Y-109534565D01*
X134119727Y-109662008D01*
X134119727Y-109662011D01*
X134119727Y-109662014D01*
X132302761Y-109662014D01*
X130198676Y-108447220D01*
X132515234Y-108447220D01*
X132525459Y-108622804D01*
X132525460Y-108622814D01*
X132575902Y-108791298D01*
X132575903Y-108791301D01*
X132663847Y-108943625D01*
X132696827Y-108978582D01*
X133045504Y-108374653D01*
X133093833Y-108469503D01*
X133183429Y-108559099D01*
X133296326Y-108616623D01*
X133389993Y-108631458D01*
X133452955Y-108631458D01*
X133486933Y-108626076D01*
X133136520Y-109233013D01*
X133271475Y-109248787D01*
X133446173Y-109228368D01*
X133611451Y-109168210D01*
X133758395Y-109071564D01*
X133758401Y-109071559D01*
X133879098Y-108943627D01*
X133946070Y-108827627D01*
X133564671Y-108607426D01*
X133659519Y-108559099D01*
X133749115Y-108469503D01*
X133806639Y-108356606D01*
X133826460Y-108231458D01*
X133816092Y-108165996D01*
X134200071Y-108387686D01*
X134244984Y-108309893D01*
X134297172Y-108188909D01*
X134327714Y-108015693D01*
X134317488Y-107840107D01*
X134300201Y-107782365D01*
X159573252Y-107782365D01*
X159579932Y-107909808D01*
X159579933Y-107909811D01*
X159614165Y-107998990D01*
X160039589Y-108735845D01*
X160295873Y-109179743D01*
X160295876Y-109179746D01*
X160355311Y-109253143D01*
X160355988Y-109253978D01*
X160463024Y-109323488D01*
X160586301Y-109356520D01*
X160713753Y-109349841D01*
X160736308Y-109341183D01*
X160782403Y-109323488D01*
X160802931Y-109315608D01*
X161464069Y-108933900D01*
X161538304Y-108873786D01*
X161607815Y-108766749D01*
X161640847Y-108643472D01*
X161640217Y-108631458D01*
X161634167Y-108516023D01*
X161634166Y-108516019D01*
X161632039Y-108510477D01*
X161599935Y-108426842D01*
X160918227Y-107246090D01*
X160918226Y-107246088D01*
X160918223Y-107246085D01*
X160858113Y-107171855D01*
X160858112Y-107171854D01*
X160763202Y-107110219D01*
X160751076Y-107102344D01*
X160627799Y-107069312D01*
X160627797Y-107069312D01*
X160500345Y-107075991D01*
X160500343Y-107075991D01*
X160411179Y-107110219D01*
X160411173Y-107110222D01*
X160411170Y-107110223D01*
X160411169Y-107110224D01*
X160304423Y-107171854D01*
X159750029Y-107491932D01*
X159750026Y-107491935D01*
X159675797Y-107552044D01*
X159675796Y-107552045D01*
X159606286Y-107659081D01*
X159573252Y-107782362D01*
X159573252Y-107782365D01*
X134300201Y-107782365D01*
X134267045Y-107671616D01*
X134267044Y-107671613D01*
X134179098Y-107519286D01*
X134146120Y-107484331D01*
X133797441Y-108088259D01*
X133749115Y-107993413D01*
X133659519Y-107903817D01*
X133546622Y-107846293D01*
X133452955Y-107831458D01*
X133389993Y-107831458D01*
X133356010Y-107836840D01*
X133706427Y-107229900D01*
X133571474Y-107214128D01*
X133396774Y-107234547D01*
X133231501Y-107294703D01*
X133084543Y-107391358D01*
X133084541Y-107391360D01*
X132963850Y-107519285D01*
X132963847Y-107519289D01*
X132896875Y-107635288D01*
X133278277Y-107855489D01*
X133183429Y-107903817D01*
X133093833Y-107993413D01*
X133036309Y-108106310D01*
X133016488Y-108231458D01*
X133026855Y-108296919D01*
X132642875Y-108075228D01*
X132597967Y-108153011D01*
X132597961Y-108153023D01*
X132545775Y-108274006D01*
X132515234Y-108447220D01*
X130198676Y-108447220D01*
X127349250Y-106802103D01*
X127310601Y-106756043D01*
X127305300Y-106725979D01*
X127305300Y-105798293D01*
X127589884Y-105798293D01*
X127609115Y-106030390D01*
X127609116Y-106030396D01*
X127666286Y-106256154D01*
X127666289Y-106256162D01*
X127737987Y-106419615D01*
X127759840Y-106469435D01*
X127759844Y-106469441D01*
X127887215Y-106664399D01*
X127887216Y-106664401D01*
X128013979Y-106802103D01*
X128044954Y-106835750D01*
X128228740Y-106978796D01*
X128433563Y-107089641D01*
X128653837Y-107165261D01*
X128653839Y-107165261D01*
X128653841Y-107165262D01*
X128883550Y-107203594D01*
X128883554Y-107203594D01*
X129116450Y-107203594D01*
X129346158Y-107165262D01*
X129346158Y-107165261D01*
X129346163Y-107165261D01*
X129566437Y-107089641D01*
X129771260Y-106978796D01*
X129955046Y-106835750D01*
X130112780Y-106664405D01*
X130240160Y-106469435D01*
X130333712Y-106256158D01*
X130390884Y-106030391D01*
X130410116Y-105798294D01*
X163589884Y-105798294D01*
X163609115Y-106030390D01*
X163609116Y-106030396D01*
X163666286Y-106256154D01*
X163666289Y-106256162D01*
X163737987Y-106419615D01*
X163759840Y-106469435D01*
X163759844Y-106469441D01*
X163887215Y-106664399D01*
X163887216Y-106664401D01*
X164013979Y-106802103D01*
X164044954Y-106835750D01*
X164228740Y-106978796D01*
X164433563Y-107089641D01*
X164653837Y-107165261D01*
X164653839Y-107165261D01*
X164653841Y-107165262D01*
X164883550Y-107203594D01*
X164883554Y-107203594D01*
X165116450Y-107203594D01*
X165346158Y-107165262D01*
X165346158Y-107165261D01*
X165346163Y-107165261D01*
X165566437Y-107089641D01*
X165771260Y-106978796D01*
X165955046Y-106835750D01*
X166112780Y-106664405D01*
X166240160Y-106469435D01*
X166333712Y-106256158D01*
X166390884Y-106030391D01*
X166410116Y-105798294D01*
X166390884Y-105566197D01*
X166390883Y-105566191D01*
X166333713Y-105340433D01*
X166333710Y-105340425D01*
X166240164Y-105127163D01*
X166240160Y-105127153D01*
X166159435Y-105003594D01*
X166112784Y-104932188D01*
X166112783Y-104932186D01*
X165955050Y-104760842D01*
X165955048Y-104760841D01*
X165955046Y-104760838D01*
X165771260Y-104617792D01*
X165566437Y-104506947D01*
X165566433Y-104506945D01*
X165566430Y-104506944D01*
X165346167Y-104431328D01*
X165346158Y-104431325D01*
X165116450Y-104392994D01*
X165116446Y-104392994D01*
X164883554Y-104392994D01*
X164883550Y-104392994D01*
X164653841Y-104431325D01*
X164653832Y-104431328D01*
X164433569Y-104506944D01*
X164433564Y-104506946D01*
X164433563Y-104506947D01*
X164291369Y-104583899D01*
X164228740Y-104617792D01*
X164044949Y-104760842D01*
X163887216Y-104932186D01*
X163887215Y-104932188D01*
X163759844Y-105127146D01*
X163759835Y-105127163D01*
X163666289Y-105340425D01*
X163666286Y-105340433D01*
X163609116Y-105566191D01*
X163609115Y-105566197D01*
X163589884Y-105798294D01*
X130410116Y-105798294D01*
X130390884Y-105566197D01*
X130390883Y-105566191D01*
X130333713Y-105340433D01*
X130333710Y-105340425D01*
X130240164Y-105127163D01*
X130240160Y-105127153D01*
X130159435Y-105003594D01*
X130112784Y-104932188D01*
X130112783Y-104932186D01*
X129955050Y-104760842D01*
X129955048Y-104760841D01*
X129955046Y-104760838D01*
X129771260Y-104617792D01*
X129566437Y-104506947D01*
X129566433Y-104506945D01*
X129566430Y-104506944D01*
X129346167Y-104431328D01*
X129346158Y-104431325D01*
X129116450Y-104392994D01*
X129116446Y-104392994D01*
X128883554Y-104392994D01*
X128883550Y-104392994D01*
X128653841Y-104431325D01*
X128653832Y-104431328D01*
X128433569Y-104506944D01*
X128433564Y-104506946D01*
X128433563Y-104506947D01*
X128291369Y-104583899D01*
X128228740Y-104617792D01*
X128044949Y-104760842D01*
X127887216Y-104932186D01*
X127887215Y-104932188D01*
X127759844Y-105127146D01*
X127759835Y-105127163D01*
X127666289Y-105340425D01*
X127666286Y-105340433D01*
X127609116Y-105566191D01*
X127609115Y-105566197D01*
X127589884Y-105798293D01*
X127305300Y-105798293D01*
X127305300Y-102471342D01*
X127690736Y-102471342D01*
X127694512Y-102512086D01*
X127694700Y-102516144D01*
X127694700Y-102528294D01*
X127696930Y-102540228D01*
X127697491Y-102544244D01*
X127701268Y-102584996D01*
X127702261Y-102586990D01*
X127709976Y-102610009D01*
X127710385Y-102612199D01*
X127731926Y-102646988D01*
X127733902Y-102650536D01*
X127752143Y-102687169D01*
X127752144Y-102687170D01*
X127753787Y-102688668D01*
X127769301Y-102707350D01*
X127770471Y-102709240D01*
X127770473Y-102709242D01*
X127803130Y-102733905D01*
X127806253Y-102736498D01*
X127818712Y-102747855D01*
X127836496Y-102764067D01*
X127836498Y-102764067D01*
X127836502Y-102764070D01*
X127838567Y-102764870D01*
X127859784Y-102776687D01*
X127860871Y-102777507D01*
X127861559Y-102778027D01*
X127900912Y-102789223D01*
X127904764Y-102790514D01*
X127919452Y-102796204D01*
X127942930Y-102805300D01*
X127945152Y-102805300D01*
X127969207Y-102808656D01*
X127971342Y-102809263D01*
X127971342Y-102809262D01*
X127971343Y-102809263D01*
X127981636Y-102808309D01*
X128012087Y-102805488D01*
X128016145Y-102805300D01*
X129945152Y-102805300D01*
X129969207Y-102808656D01*
X129971342Y-102809263D01*
X129971342Y-102809262D01*
X129971343Y-102809263D01*
X129981636Y-102808309D01*
X130012087Y-102805488D01*
X130016145Y-102805300D01*
X130028288Y-102805300D01*
X130028289Y-102805300D01*
X130040241Y-102803065D01*
X130044226Y-102802509D01*
X130084996Y-102798732D01*
X130086982Y-102797742D01*
X130110012Y-102790024D01*
X130111338Y-102789775D01*
X130112197Y-102789615D01*
X130147010Y-102768059D01*
X130150526Y-102766101D01*
X130187171Y-102747855D01*
X130188666Y-102746214D01*
X130207360Y-102730691D01*
X130209242Y-102729527D01*
X130233908Y-102696862D01*
X130236481Y-102693762D01*
X130264067Y-102663504D01*
X130264869Y-102661432D01*
X130276690Y-102640210D01*
X130278027Y-102638441D01*
X130289231Y-102599058D01*
X130290506Y-102595253D01*
X130305300Y-102557070D01*
X130305300Y-102554846D01*
X130308656Y-102530790D01*
X130309263Y-102528657D01*
X130305486Y-102487897D01*
X130305300Y-102483875D01*
X130305300Y-100448220D01*
X133754280Y-100448220D01*
X135754280Y-102448220D01*
X136617870Y-102448220D01*
X136674371Y-102468785D01*
X136680025Y-102473965D01*
X139654280Y-105448220D01*
X139654281Y-105448220D01*
X143854279Y-105448220D01*
X143854280Y-105448220D01*
X144354280Y-104948220D01*
X144354280Y-100712791D01*
X144374845Y-100656290D01*
X144426916Y-100626226D01*
X144486130Y-100636667D01*
X144518797Y-100669708D01*
X144554866Y-100733855D01*
X146050355Y-102229344D01*
X146075766Y-102283837D01*
X146076100Y-102291498D01*
X146076100Y-103450119D01*
X146076074Y-103451619D01*
X146073906Y-103515110D01*
X146073906Y-103515114D01*
X146084265Y-103557626D01*
X146085105Y-103562047D01*
X146091065Y-103605400D01*
X146099098Y-103623895D01*
X146103874Y-103638095D01*
X146108654Y-103657706D01*
X146130098Y-103695844D01*
X146132101Y-103699877D01*
X146149533Y-103740009D01*
X146149536Y-103740014D01*
X146162266Y-103755661D01*
X146170698Y-103768051D01*
X146180583Y-103785631D01*
X146180584Y-103785632D01*
X146180586Y-103785635D01*
X146211525Y-103816574D01*
X146214541Y-103819917D01*
X146242154Y-103853859D01*
X146242160Y-103853864D01*
X146258636Y-103865494D01*
X146270102Y-103875151D01*
X146815502Y-104420552D01*
X146816524Y-104421609D01*
X146825599Y-104431325D01*
X146859892Y-104468045D01*
X146897276Y-104490779D01*
X146900998Y-104493312D01*
X146935867Y-104519753D01*
X146935866Y-104519753D01*
X146935868Y-104519754D01*
X146935870Y-104519755D01*
X146954631Y-104527153D01*
X146968054Y-104533820D01*
X146985292Y-104544303D01*
X146985294Y-104544304D01*
X147021514Y-104554451D01*
X147027427Y-104556108D01*
X147031697Y-104557543D01*
X147072403Y-104573597D01*
X147092466Y-104575659D01*
X147107188Y-104578456D01*
X147126617Y-104583900D01*
X147170370Y-104583900D01*
X147174867Y-104584131D01*
X147194181Y-104586116D01*
X147218399Y-104588606D01*
X147238280Y-104585178D01*
X147253215Y-104583900D01*
X148073481Y-104583900D01*
X148129982Y-104604465D01*
X148160046Y-104656536D01*
X148161381Y-104671800D01*
X148161381Y-104715056D01*
X148170252Y-104759658D01*
X148204046Y-104810234D01*
X148220981Y-104821550D01*
X148254621Y-104844028D01*
X148262021Y-104845499D01*
X148299223Y-104852900D01*
X151729336Y-104852899D01*
X151729338Y-104852899D01*
X151742030Y-104850374D01*
X151773938Y-104844028D01*
X151824514Y-104810234D01*
X151858308Y-104759658D01*
X151867180Y-104715057D01*
X151867180Y-104659300D01*
X151887745Y-104602799D01*
X151939816Y-104572735D01*
X151955080Y-104571400D01*
X152349020Y-104571400D01*
X152405521Y-104591965D01*
X152419832Y-104609957D01*
X152420915Y-104609171D01*
X152424981Y-104614767D01*
X152424982Y-104614768D01*
X152424984Y-104614771D01*
X152515229Y-104705016D01*
X152628945Y-104762957D01*
X152723292Y-104777900D01*
X152723294Y-104777900D01*
X153736706Y-104777900D01*
X153736708Y-104777900D01*
X153831055Y-104762957D01*
X153944771Y-104705016D01*
X154035016Y-104614771D01*
X154092957Y-104501055D01*
X154107900Y-104406708D01*
X154107900Y-103668292D01*
X154092957Y-103573945D01*
X154035016Y-103460229D01*
X153944771Y-103369984D01*
X153944768Y-103369982D01*
X153831053Y-103312042D01*
X153831054Y-103312042D01*
X153751650Y-103299466D01*
X153736708Y-103297100D01*
X152723292Y-103297100D01*
X152708350Y-103299466D01*
X152628946Y-103312042D01*
X152515231Y-103369982D01*
X152424981Y-103460232D01*
X152420915Y-103465829D01*
X152418362Y-103463974D01*
X152383373Y-103496609D01*
X152349020Y-103503600D01*
X151955079Y-103503600D01*
X151898578Y-103483035D01*
X151868514Y-103430964D01*
X151867179Y-103415700D01*
X151867179Y-103384941D01*
X151863391Y-103365902D01*
X151858308Y-103340342D01*
X151824514Y-103289766D01*
X151824282Y-103289611D01*
X151773938Y-103255971D01*
X151736736Y-103248571D01*
X151729337Y-103247100D01*
X151729336Y-103247100D01*
X148299221Y-103247100D01*
X148254621Y-103255972D01*
X148204047Y-103289765D01*
X148204044Y-103289768D01*
X148170251Y-103340341D01*
X148161380Y-103384943D01*
X148161380Y-103428200D01*
X148140815Y-103484701D01*
X148088744Y-103514765D01*
X148073480Y-103516100D01*
X147457559Y-103516100D01*
X147401058Y-103495535D01*
X147395404Y-103490355D01*
X147169645Y-103264595D01*
X147144234Y-103210101D01*
X147143900Y-103202440D01*
X147143900Y-102043819D01*
X147143926Y-102042318D01*
X147144728Y-102018817D01*
X147146094Y-101978828D01*
X147135733Y-101936310D01*
X147134892Y-101931885D01*
X147128936Y-101888547D01*
X147128935Y-101888542D01*
X147128935Y-101888541D01*
X147120896Y-101870035D01*
X147116122Y-101855837D01*
X147111346Y-101836234D01*
X147089894Y-101798083D01*
X147087893Y-101794053D01*
X147070463Y-101753924D01*
X147057732Y-101738276D01*
X147049301Y-101725890D01*
X147039414Y-101708305D01*
X147008469Y-101677360D01*
X147005464Y-101674030D01*
X146977842Y-101640078D01*
X146961358Y-101628442D01*
X146949900Y-101618791D01*
X146452464Y-101121355D01*
X145335979Y-100004870D01*
X145248410Y-99938465D01*
X145248409Y-99938464D01*
X145248407Y-99938463D01*
X145178940Y-99911069D01*
X145111877Y-99884623D01*
X145111875Y-99884622D01*
X144965880Y-99869613D01*
X144965878Y-99869613D01*
X144904684Y-99880164D01*
X144845510Y-99869498D01*
X144827595Y-99855697D01*
X144655645Y-99683747D01*
X144630234Y-99629253D01*
X144629900Y-99621592D01*
X144629900Y-99249866D01*
X144650465Y-99193365D01*
X144702536Y-99163301D01*
X144722751Y-99163521D01*
X144725000Y-99161676D01*
X144725000Y-98542900D01*
X144745565Y-98486399D01*
X144797636Y-98456335D01*
X144812900Y-98455000D01*
X144887100Y-98455000D01*
X144943601Y-98475565D01*
X144973665Y-98527636D01*
X144975000Y-98542900D01*
X144975000Y-99161676D01*
X144996350Y-99157430D01*
X145067432Y-99109934D01*
X145067434Y-99109932D01*
X145114930Y-99038850D01*
X145114931Y-99038847D01*
X145127399Y-98976163D01*
X145127399Y-98672298D01*
X145147964Y-98615797D01*
X145200035Y-98585733D01*
X145259249Y-98596174D01*
X145295708Y-98636790D01*
X145302584Y-98652362D01*
X145309414Y-98659192D01*
X145321986Y-98675064D01*
X145327068Y-98683271D01*
X145327071Y-98683275D01*
X145350874Y-98701250D01*
X145355471Y-98705250D01*
X145592641Y-98942419D01*
X145618052Y-98996913D01*
X145618335Y-99007574D01*
X145618196Y-99011653D01*
X145613186Y-99158332D01*
X145621723Y-99193365D01*
X145647934Y-99300927D01*
X145673334Y-99346100D01*
X145719866Y-99428855D01*
X146929452Y-100638441D01*
X148135635Y-101844624D01*
X148161046Y-101899118D01*
X148161380Y-101906779D01*
X148161380Y-102615058D01*
X148170252Y-102659658D01*
X148204046Y-102710234D01*
X148220981Y-102721550D01*
X148254621Y-102744028D01*
X148262021Y-102745499D01*
X148299223Y-102752900D01*
X151729336Y-102752899D01*
X151729338Y-102752899D01*
X151742030Y-102750374D01*
X151773938Y-102744028D01*
X151824514Y-102710234D01*
X151858308Y-102659658D01*
X151867180Y-102615057D01*
X151867180Y-102216500D01*
X152352600Y-102216500D01*
X152352600Y-102331668D01*
X152367523Y-102425897D01*
X152367523Y-102425898D01*
X152425391Y-102539469D01*
X152515530Y-102629608D01*
X152629101Y-102687476D01*
X152723331Y-102702399D01*
X152723332Y-102702400D01*
X152975999Y-102702400D01*
X152976000Y-102702399D01*
X152976000Y-102216500D01*
X153484000Y-102216500D01*
X153484000Y-102702399D01*
X153484001Y-102702400D01*
X153736668Y-102702400D01*
X153736668Y-102702399D01*
X153830897Y-102687476D01*
X153830898Y-102687476D01*
X153944469Y-102629608D01*
X154034608Y-102539469D01*
X154092476Y-102425898D01*
X154092476Y-102425897D01*
X154107399Y-102331668D01*
X154107400Y-102331668D01*
X154107400Y-102216500D01*
X153484000Y-102216500D01*
X152976000Y-102216500D01*
X152352600Y-102216500D01*
X151867180Y-102216500D01*
X151867179Y-101708499D01*
X152352600Y-101708499D01*
X152352601Y-101708500D01*
X152975999Y-101708500D01*
X152976000Y-101708499D01*
X153484000Y-101708499D01*
X153484001Y-101708500D01*
X154107399Y-101708500D01*
X154107400Y-101708499D01*
X154107400Y-101593331D01*
X154092476Y-101499102D01*
X154092476Y-101499101D01*
X154034608Y-101385530D01*
X153944469Y-101295391D01*
X153830898Y-101237523D01*
X153736669Y-101222600D01*
X153484001Y-101222600D01*
X153484000Y-101222601D01*
X153484000Y-101708499D01*
X152976000Y-101708499D01*
X152976000Y-101222601D01*
X152975999Y-101222600D01*
X152723331Y-101222600D01*
X152629102Y-101237523D01*
X152629101Y-101237523D01*
X152515530Y-101295391D01*
X152425391Y-101385530D01*
X152367523Y-101499101D01*
X152367523Y-101499102D01*
X152352600Y-101593331D01*
X152352600Y-101708499D01*
X151867179Y-101708499D01*
X151867179Y-101284944D01*
X151867179Y-101284943D01*
X151867179Y-101284941D01*
X151863391Y-101265902D01*
X151858308Y-101240342D01*
X151824514Y-101189766D01*
X151824282Y-101189611D01*
X151773938Y-101155971D01*
X151736736Y-101148571D01*
X151729337Y-101147100D01*
X151729336Y-101147100D01*
X148984619Y-101147100D01*
X148928118Y-101126535D01*
X148922464Y-101121355D01*
X148272451Y-100471342D01*
X163690736Y-100471342D01*
X163694512Y-100512086D01*
X163694700Y-100516144D01*
X163694700Y-100528294D01*
X163696930Y-100540228D01*
X163697491Y-100544244D01*
X163701268Y-100584996D01*
X163702261Y-100586990D01*
X163709976Y-100610009D01*
X163710385Y-100612199D01*
X163731926Y-100646988D01*
X163733902Y-100650536D01*
X163752143Y-100687169D01*
X163752144Y-100687170D01*
X163753787Y-100688668D01*
X163769301Y-100707350D01*
X163770471Y-100709240D01*
X163770473Y-100709242D01*
X163803130Y-100733905D01*
X163806253Y-100736498D01*
X163818712Y-100747855D01*
X163836496Y-100764067D01*
X163836498Y-100764067D01*
X163836502Y-100764070D01*
X163838567Y-100764870D01*
X163859784Y-100776687D01*
X163860871Y-100777507D01*
X163861559Y-100778027D01*
X163900912Y-100789223D01*
X163904764Y-100790514D01*
X163919452Y-100796204D01*
X163942930Y-100805300D01*
X163945152Y-100805300D01*
X163969207Y-100808656D01*
X163971342Y-100809263D01*
X163971342Y-100809262D01*
X163971343Y-100809263D01*
X163981636Y-100808309D01*
X164012087Y-100805488D01*
X164016145Y-100805300D01*
X165945152Y-100805300D01*
X165969207Y-100808656D01*
X165971342Y-100809263D01*
X165971342Y-100809262D01*
X165971343Y-100809263D01*
X165981636Y-100808309D01*
X166012087Y-100805488D01*
X166016145Y-100805300D01*
X166028288Y-100805300D01*
X166028289Y-100805300D01*
X166040241Y-100803065D01*
X166044226Y-100802509D01*
X166084996Y-100798732D01*
X166086982Y-100797742D01*
X166110012Y-100790024D01*
X166111338Y-100789775D01*
X166112197Y-100789615D01*
X166147010Y-100768059D01*
X166150526Y-100766101D01*
X166187171Y-100747855D01*
X166188666Y-100746214D01*
X166207360Y-100730691D01*
X166209242Y-100729527D01*
X166233908Y-100696862D01*
X166236481Y-100693762D01*
X166264067Y-100663504D01*
X166264869Y-100661432D01*
X166276690Y-100640210D01*
X166278027Y-100638441D01*
X166289231Y-100599058D01*
X166290506Y-100595253D01*
X166305300Y-100557070D01*
X166305300Y-100554846D01*
X166308657Y-100530788D01*
X166309263Y-100528657D01*
X166305487Y-100487910D01*
X166305299Y-100483851D01*
X166305299Y-95280056D01*
X166305299Y-90054839D01*
X166308657Y-90030786D01*
X166309263Y-90028657D01*
X166308362Y-90018934D01*
X166305487Y-89987911D01*
X166305299Y-89983850D01*
X166305299Y-89979897D01*
X166305300Y-89971711D01*
X166303064Y-89959754D01*
X166302509Y-89955778D01*
X166298732Y-89915004D01*
X166297740Y-89913011D01*
X166290022Y-89889981D01*
X166289615Y-89887804D01*
X166289615Y-89887803D01*
X166268070Y-89853006D01*
X166266100Y-89849469D01*
X166247855Y-89812829D01*
X166246208Y-89811328D01*
X166230693Y-89792642D01*
X166229527Y-89790758D01*
X166229525Y-89790756D01*
X166210052Y-89776051D01*
X166196860Y-89766089D01*
X166193745Y-89763501D01*
X166163504Y-89735933D01*
X166161426Y-89735128D01*
X166140217Y-89723314D01*
X166138441Y-89721973D01*
X166138436Y-89721971D01*
X166099076Y-89710771D01*
X166095226Y-89709481D01*
X166057074Y-89694701D01*
X166057071Y-89694700D01*
X166057070Y-89694700D01*
X166057069Y-89694700D01*
X166054848Y-89694700D01*
X166030793Y-89691344D01*
X166028657Y-89690736D01*
X165987913Y-89694512D01*
X165983855Y-89694700D01*
X164054848Y-89694700D01*
X164030793Y-89691344D01*
X164028657Y-89690736D01*
X163987913Y-89694512D01*
X163983855Y-89694700D01*
X163971706Y-89694700D01*
X163959773Y-89696930D01*
X163955757Y-89697491D01*
X163915004Y-89701268D01*
X163914998Y-89701270D01*
X163913002Y-89702264D01*
X163889999Y-89709974D01*
X163887803Y-89710384D01*
X163853008Y-89731927D01*
X163849463Y-89733902D01*
X163812826Y-89752146D01*
X163812825Y-89752147D01*
X163811321Y-89753797D01*
X163792655Y-89769297D01*
X163790758Y-89770471D01*
X163790757Y-89770472D01*
X163766090Y-89803134D01*
X163763498Y-89806256D01*
X163735932Y-89836496D01*
X163735931Y-89836497D01*
X163735125Y-89838579D01*
X163723318Y-89859777D01*
X163721973Y-89861557D01*
X163721971Y-89861561D01*
X163713886Y-89889981D01*
X163711026Y-89900035D01*
X163710775Y-89900916D01*
X163709484Y-89904767D01*
X163694701Y-89942925D01*
X163694700Y-89942931D01*
X163694700Y-89945151D01*
X163691345Y-89969204D01*
X163690736Y-89971342D01*
X163694512Y-90012086D01*
X163694700Y-90016144D01*
X163694700Y-100445151D01*
X163691345Y-100469204D01*
X163690736Y-100471342D01*
X148272451Y-100471342D01*
X147739572Y-99938463D01*
X146500979Y-98699870D01*
X146413410Y-98633465D01*
X146413409Y-98633464D01*
X146413407Y-98633463D01*
X146341989Y-98605300D01*
X146276877Y-98579623D01*
X146276875Y-98579622D01*
X146130880Y-98564613D01*
X146130878Y-98564613D01*
X146069685Y-98575164D01*
X146010512Y-98564498D01*
X145992596Y-98550696D01*
X145843145Y-98401244D01*
X145817734Y-98346751D01*
X145817400Y-98339090D01*
X145817400Y-98258299D01*
X145837965Y-98201798D01*
X145890036Y-98171734D01*
X145905300Y-98170399D01*
X145933716Y-98170399D01*
X145987118Y-98159777D01*
X145996545Y-98157902D01*
X146067795Y-98110295D01*
X146115402Y-98039045D01*
X146127900Y-97976215D01*
X146127899Y-97808786D01*
X146127899Y-97808785D01*
X146127899Y-97808783D01*
X146118991Y-97764000D01*
X146115402Y-97745955D01*
X146115401Y-97745953D01*
X146078605Y-97690883D01*
X146064313Y-97632479D01*
X146078606Y-97593213D01*
X146114930Y-97538851D01*
X146119178Y-97517500D01*
X145500400Y-97517500D01*
X145443899Y-97496935D01*
X145413835Y-97444864D01*
X145412500Y-97429600D01*
X145412500Y-97355400D01*
X145433065Y-97298899D01*
X145485136Y-97268835D01*
X145500400Y-97267500D01*
X146119177Y-97267500D01*
X146134961Y-97248266D01*
X146135552Y-97244431D01*
X146144680Y-97236424D01*
X146145551Y-97235364D01*
X146145726Y-97235507D01*
X146180756Y-97204784D01*
X146240869Y-97203470D01*
X146274773Y-97224551D01*
X146407641Y-97357419D01*
X146433052Y-97411913D01*
X146433335Y-97422574D01*
X146428186Y-97573331D01*
X146462934Y-97715927D01*
X146515147Y-97808786D01*
X146534866Y-97843855D01*
X147136791Y-98445780D01*
X148941562Y-100250552D01*
X148942584Y-100251609D01*
X148960230Y-100270503D01*
X148985952Y-100298045D01*
X149023336Y-100320779D01*
X149027058Y-100323312D01*
X149061927Y-100349753D01*
X149061926Y-100349753D01*
X149061928Y-100349754D01*
X149061930Y-100349755D01*
X149080691Y-100357153D01*
X149094114Y-100363820D01*
X149100002Y-100367400D01*
X149111354Y-100374304D01*
X149136488Y-100381346D01*
X149153491Y-100386110D01*
X149157759Y-100387546D01*
X149185625Y-100398534D01*
X149198462Y-100403597D01*
X149218532Y-100405660D01*
X149233251Y-100408457D01*
X149252677Y-100413900D01*
X149296429Y-100413900D01*
X149300926Y-100414131D01*
X149320014Y-100416093D01*
X149344459Y-100418606D01*
X149360495Y-100415840D01*
X149364341Y-100415178D01*
X149379275Y-100413900D01*
X151960120Y-100413900D01*
X151961620Y-100413926D01*
X151987852Y-100414821D01*
X152025112Y-100416094D01*
X152067635Y-100405731D01*
X152072036Y-100404894D01*
X152115399Y-100398935D01*
X152133901Y-100390897D01*
X152148104Y-100386122D01*
X152167706Y-100381346D01*
X152205863Y-100359890D01*
X152209862Y-100357903D01*
X152250014Y-100340464D01*
X152265662Y-100327732D01*
X152278055Y-100319298D01*
X152295635Y-100309414D01*
X152326577Y-100278470D01*
X152329907Y-100275464D01*
X152363862Y-100247842D01*
X152375497Y-100231356D01*
X152385144Y-100219903D01*
X154100580Y-98504467D01*
X154101607Y-98503475D01*
X154148046Y-98460106D01*
X154152915Y-98452100D01*
X154170781Y-98422719D01*
X154173308Y-98419004D01*
X154199755Y-98384130D01*
X154207153Y-98365366D01*
X154213820Y-98351943D01*
X154224304Y-98334706D01*
X154236112Y-98292555D01*
X154237542Y-98288305D01*
X154237698Y-98287911D01*
X154253597Y-98247597D01*
X154255660Y-98227525D01*
X154258456Y-98212812D01*
X154263900Y-98193383D01*
X154263900Y-98149628D01*
X154264131Y-98145131D01*
X154268606Y-98101600D01*
X154268606Y-98101599D01*
X154265178Y-98081717D01*
X154263900Y-98066782D01*
X154263900Y-96654000D01*
X160840150Y-96654000D01*
X160893968Y-96778763D01*
X160998996Y-96919841D01*
X161133737Y-97032901D01*
X161133742Y-97032904D01*
X161290909Y-97111837D01*
X161462059Y-97152400D01*
X161595999Y-97152400D01*
X161596000Y-97152399D01*
X161596000Y-96711686D01*
X161611955Y-96727641D01*
X161724852Y-96785165D01*
X161818519Y-96800000D01*
X161881481Y-96800000D01*
X161975148Y-96785165D01*
X162088045Y-96727641D01*
X162104000Y-96711685D01*
X162104000Y-97152399D01*
X162104001Y-97152400D01*
X162193820Y-97152400D01*
X162193823Y-97152399D01*
X162324699Y-97137102D01*
X162489972Y-97076946D01*
X162636929Y-96980292D01*
X162757624Y-96852362D01*
X162845570Y-96700035D01*
X162859352Y-96654000D01*
X162161686Y-96654000D01*
X162177641Y-96638045D01*
X162235165Y-96525148D01*
X162254986Y-96400000D01*
X162235165Y-96274852D01*
X162177641Y-96161955D01*
X162161686Y-96146000D01*
X162859850Y-96146000D01*
X162806031Y-96021236D01*
X162701003Y-95880158D01*
X162566262Y-95767098D01*
X162566257Y-95767095D01*
X162409090Y-95688162D01*
X162237941Y-95647600D01*
X162104001Y-95647600D01*
X162104000Y-95647601D01*
X162104000Y-96088314D01*
X162088045Y-96072359D01*
X161975148Y-96014835D01*
X161881481Y-96000000D01*
X161818519Y-96000000D01*
X161724852Y-96014835D01*
X161611955Y-96072359D01*
X161596000Y-96088314D01*
X161596000Y-95647601D01*
X161595999Y-95647600D01*
X161506176Y-95647600D01*
X161375300Y-95662897D01*
X161210027Y-95723053D01*
X161063070Y-95819707D01*
X160942375Y-95947637D01*
X160854429Y-96099964D01*
X160840647Y-96145999D01*
X160840648Y-96146000D01*
X161538314Y-96146000D01*
X161522359Y-96161955D01*
X161464835Y-96274852D01*
X161445014Y-96400000D01*
X161464835Y-96525148D01*
X161522359Y-96638045D01*
X161538314Y-96654000D01*
X160840150Y-96654000D01*
X154263900Y-96654000D01*
X154263900Y-95874000D01*
X156210181Y-95874000D01*
X156244501Y-95951729D01*
X156325769Y-96032997D01*
X156430899Y-96079417D01*
X156456608Y-96082400D01*
X156461000Y-96082399D01*
X156461000Y-95874001D01*
X156460999Y-95874000D01*
X156210181Y-95874000D01*
X154263900Y-95874000D01*
X154263900Y-95366000D01*
X156210180Y-95366000D01*
X156460999Y-95366000D01*
X156461000Y-95365998D01*
X156461000Y-95157600D01*
X156456599Y-95157601D01*
X156430901Y-95160582D01*
X156430898Y-95160583D01*
X156325769Y-95207002D01*
X156244501Y-95288270D01*
X156210180Y-95366000D01*
X154263900Y-95366000D01*
X154263900Y-94844618D01*
X154283537Y-94790665D01*
X154283211Y-94790428D01*
X154284038Y-94789289D01*
X154284465Y-94788117D01*
X154286518Y-94785875D01*
X154287275Y-94784834D01*
X154287277Y-94784832D01*
X154322911Y-94714894D01*
X154366885Y-94673888D01*
X154401231Y-94666900D01*
X154875883Y-94666900D01*
X154911388Y-94674390D01*
X154991950Y-94709962D01*
X155017274Y-94712900D01*
X155017281Y-94712900D01*
X156132719Y-94712900D01*
X156132726Y-94712900D01*
X156158050Y-94709962D01*
X156261645Y-94664220D01*
X156341720Y-94584145D01*
X156387462Y-94480550D01*
X156390400Y-94455226D01*
X156390400Y-94064774D01*
X156387462Y-94039450D01*
X156341720Y-93935855D01*
X156261645Y-93855780D01*
X156261643Y-93855779D01*
X156255885Y-93850021D01*
X156257458Y-93848447D01*
X156228737Y-93808304D01*
X156233368Y-93748355D01*
X156256651Y-93720614D01*
X156255597Y-93719560D01*
X156341301Y-93633855D01*
X156372145Y-93564000D01*
X154777854Y-93564000D01*
X154808698Y-93633855D01*
X154877888Y-93703045D01*
X154903299Y-93757539D01*
X154887736Y-93815617D01*
X154838483Y-93850105D01*
X154815733Y-93853100D01*
X154408874Y-93853100D01*
X154352373Y-93832535D01*
X154330555Y-93805108D01*
X154287277Y-93720168D01*
X154199832Y-93632723D01*
X154089644Y-93576580D01*
X154089642Y-93576579D01*
X154089641Y-93576579D01*
X154010218Y-93564000D01*
X153998222Y-93562100D01*
X153461778Y-93562100D01*
X153449782Y-93564000D01*
X153370358Y-93576579D01*
X153370356Y-93576579D01*
X153370356Y-93576580D01*
X153338599Y-93592761D01*
X153260168Y-93632723D01*
X153172723Y-93720168D01*
X153116579Y-93830358D01*
X153102100Y-93921778D01*
X153102100Y-94002580D01*
X153096388Y-94033748D01*
X153078594Y-94080666D01*
X153078591Y-94080680D01*
X153066615Y-94179313D01*
X153059246Y-94240000D01*
X153078592Y-94399325D01*
X153078594Y-94399330D01*
X153096388Y-94446250D01*
X153102100Y-94477419D01*
X153102100Y-94583221D01*
X153116579Y-94674641D01*
X153116579Y-94674642D01*
X153116580Y-94674644D01*
X153172723Y-94784832D01*
X153172725Y-94784834D01*
X153176789Y-94790428D01*
X153174757Y-94791904D01*
X153195766Y-94836957D01*
X153196100Y-94844618D01*
X153196100Y-97862441D01*
X153175535Y-97918942D01*
X153170355Y-97924596D01*
X151774596Y-99320355D01*
X151720102Y-99345766D01*
X151712441Y-99346100D01*
X149583619Y-99346100D01*
X149527118Y-99325535D01*
X149521464Y-99320355D01*
X148686793Y-98485684D01*
X149982601Y-98485684D01*
X149997060Y-98576985D01*
X149997061Y-98576988D01*
X150053130Y-98687031D01*
X150140468Y-98774369D01*
X150250513Y-98830439D01*
X150250512Y-98830439D01*
X150341815Y-98844899D01*
X150356000Y-98844898D01*
X150864000Y-98844898D01*
X150864001Y-98844899D01*
X150878183Y-98844899D01*
X150878184Y-98844898D01*
X150969485Y-98830439D01*
X150969488Y-98830438D01*
X151079531Y-98774369D01*
X151166869Y-98687031D01*
X151222939Y-98576986D01*
X151237400Y-98485684D01*
X151237400Y-98409001D01*
X151237399Y-98409000D01*
X150864001Y-98409000D01*
X150864000Y-98409001D01*
X150864000Y-98844898D01*
X150356000Y-98844898D01*
X150356000Y-98409001D01*
X150355999Y-98409000D01*
X149982602Y-98409000D01*
X149982601Y-98409001D01*
X149982601Y-98485684D01*
X148686793Y-98485684D01*
X148421156Y-98220047D01*
X147965109Y-97764000D01*
X148637601Y-97764000D01*
X148637601Y-97768393D01*
X148640581Y-97794097D01*
X148640583Y-97794101D01*
X148687002Y-97899230D01*
X148768270Y-97980498D01*
X148846000Y-98014819D01*
X148846000Y-98014818D01*
X149354000Y-98014818D01*
X149431729Y-97980498D01*
X149511228Y-97900999D01*
X149982600Y-97900999D01*
X149982601Y-97901000D01*
X150355999Y-97901000D01*
X150356000Y-97900999D01*
X150864000Y-97900999D01*
X150864001Y-97901000D01*
X151237398Y-97901000D01*
X151237399Y-97900999D01*
X151237399Y-97824317D01*
X151237398Y-97824315D01*
X151222939Y-97733014D01*
X151222938Y-97733011D01*
X151166869Y-97622968D01*
X151079531Y-97535630D01*
X150969486Y-97479560D01*
X150969487Y-97479560D01*
X150878184Y-97465100D01*
X150864001Y-97465100D01*
X150864000Y-97465101D01*
X150864000Y-97900999D01*
X150356000Y-97900999D01*
X150356000Y-97465099D01*
X150341821Y-97465100D01*
X150341812Y-97465101D01*
X150250514Y-97479560D01*
X150250511Y-97479561D01*
X150140468Y-97535630D01*
X150053130Y-97622968D01*
X149997060Y-97733013D01*
X149982600Y-97824315D01*
X149982600Y-97900999D01*
X149511228Y-97900999D01*
X149512997Y-97899230D01*
X149559417Y-97794100D01*
X149562398Y-97768408D01*
X149562400Y-97768389D01*
X149562400Y-97764001D01*
X149562399Y-97764000D01*
X149354001Y-97764000D01*
X149354000Y-97764001D01*
X149354000Y-98014818D01*
X148846000Y-98014818D01*
X148846000Y-97764001D01*
X148845999Y-97764000D01*
X148637601Y-97764000D01*
X147965109Y-97764000D01*
X147315979Y-97114870D01*
X147275717Y-97084338D01*
X147243123Y-97033814D01*
X147250632Y-96974157D01*
X147294730Y-96933284D01*
X147328830Y-96926400D01*
X148669162Y-96926400D01*
X148725663Y-96946965D01*
X148755727Y-96999036D01*
X148745286Y-97058250D01*
X148731317Y-97076455D01*
X148687002Y-97120769D01*
X148640582Y-97225899D01*
X148637601Y-97251591D01*
X148637600Y-97251610D01*
X148637600Y-97255999D01*
X148637601Y-97256000D01*
X149562398Y-97256000D01*
X149562399Y-97255999D01*
X149562399Y-97251606D01*
X149559418Y-97225902D01*
X149559416Y-97225898D01*
X149512997Y-97120769D01*
X149451183Y-97058955D01*
X149425772Y-97004461D01*
X149441335Y-96946383D01*
X149490588Y-96911895D01*
X149513338Y-96908900D01*
X149971633Y-96908900D01*
X150028134Y-96929465D01*
X150049953Y-96956896D01*
X150052723Y-96962332D01*
X150140168Y-97049777D01*
X150250356Y-97105920D01*
X150341778Y-97120400D01*
X150341779Y-97120400D01*
X150878221Y-97120400D01*
X150878222Y-97120400D01*
X150969644Y-97105920D01*
X151079832Y-97049777D01*
X151167277Y-96962332D01*
X151223420Y-96852144D01*
X151237900Y-96760722D01*
X151237900Y-96099278D01*
X151223420Y-96007856D01*
X151167277Y-95897668D01*
X151079832Y-95810223D01*
X150969644Y-95754080D01*
X150969642Y-95754079D01*
X150969641Y-95754079D01*
X150899414Y-95742956D01*
X150878222Y-95739600D01*
X150341778Y-95739600D01*
X150324574Y-95742324D01*
X150250358Y-95754079D01*
X150250356Y-95754079D01*
X150250356Y-95754080D01*
X150140168Y-95810223D01*
X150135035Y-95815355D01*
X150080543Y-95840766D01*
X150072882Y-95841100D01*
X149063473Y-95841100D01*
X149000852Y-95849707D01*
X148968239Y-95854190D01*
X148962252Y-95854600D01*
X148899032Y-95854600D01*
X148899026Y-95854600D01*
X148899020Y-95854601D01*
X148884728Y-95856259D01*
X148873285Y-95857587D01*
X148873284Y-95857587D01*
X148867083Y-95858307D01*
X148862013Y-95858600D01*
X147153335Y-95858600D01*
X147130258Y-95854008D01*
X147129906Y-95855323D01*
X147124337Y-95853831D01*
X146980000Y-95834829D01*
X146979999Y-95834829D01*
X146899501Y-95845426D01*
X146840800Y-95832412D01*
X146804197Y-95784709D01*
X146806820Y-95724639D01*
X146844946Y-95681660D01*
X146915635Y-95641914D01*
X147647047Y-94910500D01*
X147701539Y-94885091D01*
X147759617Y-94900654D01*
X147794105Y-94949907D01*
X147797100Y-94972656D01*
X147797100Y-95103277D01*
X147803999Y-95137957D01*
X147805972Y-95147878D01*
X147839766Y-95198454D01*
X147852559Y-95207002D01*
X147890341Y-95232248D01*
X147897741Y-95233719D01*
X147934943Y-95241120D01*
X151865056Y-95241119D01*
X151865058Y-95241119D01*
X151877750Y-95238594D01*
X151909658Y-95232248D01*
X151960234Y-95198454D01*
X151994028Y-95147878D01*
X152002900Y-95103277D01*
X152002899Y-92873164D01*
X152002899Y-92873163D01*
X152002899Y-92873161D01*
X151999920Y-92858184D01*
X153102601Y-92858184D01*
X153117060Y-92949485D01*
X153117061Y-92949488D01*
X153173130Y-93059531D01*
X153260468Y-93146869D01*
X153370513Y-93202939D01*
X153370512Y-93202939D01*
X153461815Y-93217399D01*
X153476000Y-93217398D01*
X153476000Y-92781500D01*
X153984000Y-92781500D01*
X153984000Y-93217398D01*
X153984001Y-93217399D01*
X153998183Y-93217399D01*
X153998184Y-93217398D01*
X154089485Y-93202939D01*
X154089488Y-93202938D01*
X154199531Y-93146869D01*
X154286869Y-93059531D01*
X154342939Y-92949486D01*
X154357399Y-92858184D01*
X154357400Y-92781501D01*
X154357399Y-92781500D01*
X153984000Y-92781500D01*
X153476000Y-92781500D01*
X153102602Y-92781500D01*
X153102601Y-92781501D01*
X153102601Y-92858184D01*
X151999920Y-92858184D01*
X151995725Y-92837096D01*
X151994028Y-92828562D01*
X151960234Y-92777986D01*
X151951536Y-92772174D01*
X151909658Y-92744191D01*
X151866595Y-92735626D01*
X151865057Y-92735320D01*
X151865056Y-92735320D01*
X147934941Y-92735320D01*
X147890341Y-92744192D01*
X147839767Y-92777985D01*
X147839764Y-92777988D01*
X147805971Y-92828561D01*
X147797100Y-92873163D01*
X147797100Y-93373829D01*
X147776535Y-93430330D01*
X147730011Y-93459230D01*
X147716654Y-93462485D01*
X147712232Y-93463325D01*
X147668880Y-93469285D01*
X147668874Y-93469286D01*
X147650375Y-93477321D01*
X147636176Y-93482096D01*
X147616575Y-93486873D01*
X147616570Y-93486875D01*
X147578421Y-93508324D01*
X147574390Y-93510326D01*
X147534268Y-93527754D01*
X147534262Y-93527758D01*
X147518617Y-93540486D01*
X147506233Y-93548915D01*
X147488646Y-93558804D01*
X147488642Y-93558808D01*
X147457702Y-93589746D01*
X147454361Y-93592761D01*
X147420420Y-93620375D01*
X147420418Y-93620378D01*
X147408785Y-93636857D01*
X147399131Y-93648318D01*
X146186649Y-94860802D01*
X146186647Y-94860805D01*
X146120243Y-94948372D01*
X146103918Y-94989771D01*
X146066403Y-95084903D01*
X146066403Y-95084904D01*
X146066402Y-95084904D01*
X146051393Y-95230899D01*
X146051393Y-95230901D01*
X146061944Y-95292093D01*
X146051278Y-95351267D01*
X146037477Y-95369182D01*
X145819808Y-95586854D01*
X145765315Y-95612265D01*
X145757653Y-95612600D01*
X145511565Y-95612600D01*
X145508866Y-95613104D01*
X145492719Y-95614600D01*
X145215300Y-95614600D01*
X145158799Y-95594035D01*
X145128735Y-95541964D01*
X145127400Y-95526700D01*
X145127400Y-95330001D01*
X145127399Y-95330000D01*
X144812900Y-95330000D01*
X144756399Y-95309435D01*
X144726335Y-95257364D01*
X144725000Y-95242100D01*
X144725000Y-94623322D01*
X144975000Y-94623322D01*
X144975000Y-95079999D01*
X144975001Y-95080000D01*
X145127398Y-95080000D01*
X145127399Y-95079999D01*
X145127399Y-94808833D01*
X145114930Y-94746150D01*
X145067434Y-94675067D01*
X145067432Y-94675065D01*
X144996350Y-94627569D01*
X144975000Y-94623322D01*
X144725000Y-94623322D01*
X144719733Y-94619000D01*
X144675519Y-94612194D01*
X144635876Y-94566988D01*
X144629900Y-94535131D01*
X144629900Y-94394847D01*
X144650465Y-94338346D01*
X144655645Y-94332693D01*
X144788478Y-94199859D01*
X144842972Y-94174448D01*
X144853634Y-94174164D01*
X144857710Y-94174303D01*
X144857713Y-94174304D01*
X145004392Y-94179314D01*
X145146986Y-94144566D01*
X145274915Y-94072634D01*
X146792321Y-92555226D01*
X154759600Y-92555226D01*
X154762538Y-92580550D01*
X154808280Y-92684145D01*
X154888355Y-92764220D01*
X154888356Y-92764220D01*
X154894115Y-92769979D01*
X154892540Y-92771553D01*
X154921261Y-92811691D01*
X154916633Y-92871640D01*
X154893350Y-92899387D01*
X154894403Y-92900440D01*
X154808698Y-92986144D01*
X154777854Y-93055999D01*
X154777855Y-93056000D01*
X156412361Y-93056000D01*
X156468862Y-93076565D01*
X156498926Y-93128636D01*
X156500140Y-93148496D01*
X156498666Y-93176639D01*
X156507177Y-93198812D01*
X156511092Y-93212029D01*
X156516031Y-93235267D01*
X156520124Y-93240900D01*
X156531071Y-93261061D01*
X156533567Y-93267562D01*
X156533568Y-93267564D01*
X156550364Y-93284361D01*
X156559320Y-93294847D01*
X156573276Y-93314056D01*
X156573278Y-93314058D01*
X156579308Y-93317539D01*
X156597510Y-93331506D01*
X157080414Y-93814410D01*
X157105825Y-93868904D01*
X157090262Y-93926982D01*
X157085333Y-93932858D01*
X157083279Y-93935856D01*
X157037539Y-94039446D01*
X157037538Y-94039450D01*
X157034600Y-94064774D01*
X157034600Y-94455226D01*
X157037538Y-94480550D01*
X157083280Y-94584145D01*
X157163355Y-94664220D01*
X157266950Y-94709962D01*
X157292274Y-94712900D01*
X157355200Y-94712900D01*
X157411701Y-94733465D01*
X157441765Y-94785536D01*
X157443100Y-94800800D01*
X157443100Y-95187555D01*
X157422535Y-95244056D01*
X157417355Y-95249709D01*
X157379085Y-95287979D01*
X157379083Y-95287982D01*
X157362635Y-95325231D01*
X157320999Y-95368609D01*
X157261221Y-95375076D01*
X157211271Y-95341606D01*
X157201815Y-95325227D01*
X157185496Y-95288268D01*
X157104230Y-95207002D01*
X156999100Y-95160582D01*
X156973408Y-95157601D01*
X156973390Y-95157600D01*
X156969001Y-95157600D01*
X156969000Y-95157601D01*
X156969000Y-96082397D01*
X156969001Y-96082399D01*
X156973394Y-96082399D01*
X156999097Y-96079418D01*
X156999101Y-96079416D01*
X157104230Y-96032997D01*
X157185497Y-95951730D01*
X157201817Y-95914771D01*
X157243451Y-95871391D01*
X157303229Y-95864922D01*
X157353180Y-95898391D01*
X157362637Y-95914771D01*
X157378956Y-95951729D01*
X157379084Y-95952019D01*
X157460481Y-96033416D01*
X157565785Y-96079913D01*
X157591532Y-96082900D01*
X157699109Y-96082900D01*
X157723874Y-96086461D01*
X157780536Y-96103099D01*
X157780539Y-96103099D01*
X157780541Y-96103100D01*
X157780542Y-96103100D01*
X157919458Y-96103100D01*
X157919459Y-96103100D01*
X157919461Y-96103099D01*
X157919463Y-96103099D01*
X157976126Y-96086461D01*
X158000891Y-96082900D01*
X158108461Y-96082900D01*
X158108468Y-96082900D01*
X158134215Y-96079913D01*
X158239519Y-96033416D01*
X158320916Y-95952019D01*
X158367413Y-95846715D01*
X158370400Y-95820968D01*
X158370400Y-95419032D01*
X158367413Y-95393285D01*
X158320916Y-95287981D01*
X158312991Y-95280056D01*
X158282645Y-95249709D01*
X158257234Y-95195215D01*
X158256900Y-95187555D01*
X158256900Y-94800800D01*
X158277465Y-94744299D01*
X158329536Y-94714235D01*
X158344800Y-94712900D01*
X158407719Y-94712900D01*
X158407726Y-94712900D01*
X158433050Y-94709962D01*
X158536645Y-94664220D01*
X158616720Y-94584145D01*
X158662462Y-94480550D01*
X158665400Y-94455226D01*
X158665400Y-94064774D01*
X158662462Y-94039450D01*
X158616720Y-93935855D01*
X158536645Y-93855780D01*
X158533862Y-93854551D01*
X158433053Y-93810039D01*
X158433051Y-93810038D01*
X158433050Y-93810038D01*
X158425561Y-93809169D01*
X158407737Y-93807101D01*
X158407732Y-93807100D01*
X158407726Y-93807100D01*
X158407719Y-93807100D01*
X157757506Y-93807100D01*
X157701005Y-93786535D01*
X157695351Y-93781355D01*
X156984845Y-93070848D01*
X156959434Y-93016354D01*
X156959100Y-93008693D01*
X156959100Y-92772174D01*
X156979665Y-92715673D01*
X157031736Y-92685609D01*
X157090950Y-92696050D01*
X157109150Y-92710015D01*
X157163355Y-92764220D01*
X157266950Y-92809962D01*
X157292274Y-92812900D01*
X157292281Y-92812900D01*
X158407719Y-92812900D01*
X158407726Y-92812900D01*
X158433050Y-92809962D01*
X158536645Y-92764220D01*
X158616720Y-92684145D01*
X158662462Y-92580550D01*
X158665400Y-92555226D01*
X158665400Y-92164774D01*
X158662462Y-92139450D01*
X158616720Y-92035855D01*
X158536645Y-91955780D01*
X158439342Y-91912816D01*
X158433053Y-91910039D01*
X158433051Y-91910038D01*
X158433050Y-91910038D01*
X158425561Y-91909169D01*
X158407737Y-91907101D01*
X158407732Y-91907100D01*
X158407726Y-91907100D01*
X158407719Y-91907100D01*
X158217800Y-91907100D01*
X158161299Y-91886535D01*
X158131235Y-91834464D01*
X158129900Y-91819200D01*
X158129900Y-91434540D01*
X158150465Y-91378039D01*
X158193851Y-91352989D01*
X158193062Y-91350559D01*
X158199639Y-91348421D01*
X158199639Y-91348420D01*
X158199644Y-91348420D01*
X158309832Y-91292277D01*
X158397277Y-91204832D01*
X158453420Y-91094644D01*
X158467900Y-91003222D01*
X158467900Y-90441778D01*
X158453420Y-90350356D01*
X158397277Y-90240168D01*
X158309832Y-90152723D01*
X158199644Y-90096580D01*
X158199642Y-90096579D01*
X158199641Y-90096579D01*
X158129414Y-90085456D01*
X158108222Y-90082100D01*
X157571778Y-90082100D01*
X157554574Y-90084824D01*
X157480358Y-90096579D01*
X157480356Y-90096579D01*
X157480356Y-90096580D01*
X157370168Y-90152723D01*
X157282723Y-90240168D01*
X157259763Y-90285231D01*
X157226579Y-90350358D01*
X157212100Y-90441778D01*
X157212100Y-91003221D01*
X157226579Y-91094641D01*
X157226579Y-91094642D01*
X157226580Y-91094644D01*
X157282723Y-91204832D01*
X157370168Y-91292277D01*
X157480356Y-91348420D01*
X157490668Y-91350053D01*
X157495950Y-91350890D01*
X157548539Y-91380040D01*
X157570087Y-91436174D01*
X157570100Y-91437708D01*
X157570100Y-91819200D01*
X157549535Y-91875701D01*
X157497464Y-91905765D01*
X157482200Y-91907100D01*
X157292274Y-91907100D01*
X157292268Y-91907100D01*
X157292262Y-91907101D01*
X157266950Y-91910038D01*
X157266946Y-91910039D01*
X157163356Y-91955779D01*
X157163355Y-91955779D01*
X157163355Y-91955780D01*
X157109153Y-92009981D01*
X157054661Y-92035392D01*
X156996583Y-92019829D01*
X156962095Y-91970576D01*
X156959100Y-91947826D01*
X156959100Y-90262148D01*
X156959160Y-90259847D01*
X156960453Y-90235168D01*
X156961334Y-90218361D01*
X156952819Y-90196179D01*
X156948907Y-90182971D01*
X156943969Y-90159735D01*
X156939874Y-90154099D01*
X156928927Y-90133935D01*
X156926433Y-90127438D01*
X156926432Y-90127437D01*
X156926432Y-90127436D01*
X156909630Y-90110634D01*
X156900677Y-90100150D01*
X156898083Y-90096580D01*
X156886722Y-90080942D01*
X156886721Y-90080941D01*
X156886722Y-90080941D01*
X156880692Y-90077460D01*
X156862488Y-90063492D01*
X156242853Y-89443857D01*
X156217442Y-89389363D01*
X156218191Y-89367948D01*
X156222900Y-89338222D01*
X156222900Y-89151500D01*
X157212601Y-89151500D01*
X157212601Y-89178184D01*
X157227060Y-89269485D01*
X157227061Y-89269488D01*
X157283130Y-89379531D01*
X157370468Y-89466869D01*
X157480513Y-89522939D01*
X157480512Y-89522939D01*
X157571815Y-89537399D01*
X157586000Y-89537398D01*
X158094000Y-89537398D01*
X158094001Y-89537399D01*
X158108183Y-89537399D01*
X158108184Y-89537398D01*
X158199485Y-89522939D01*
X158199488Y-89522938D01*
X158309531Y-89466869D01*
X158396869Y-89379531D01*
X158452939Y-89269486D01*
X158467400Y-89178184D01*
X158467400Y-89151501D01*
X158467399Y-89151500D01*
X158094001Y-89151500D01*
X158094000Y-89151501D01*
X158094000Y-89537398D01*
X157586000Y-89537398D01*
X157586000Y-89151501D01*
X157585999Y-89151500D01*
X157212601Y-89151500D01*
X156222900Y-89151500D01*
X156222900Y-88801778D01*
X156208420Y-88710356D01*
X156174355Y-88643499D01*
X157212600Y-88643499D01*
X157212601Y-88643500D01*
X157585999Y-88643500D01*
X157586000Y-88643498D01*
X157586000Y-88257600D01*
X158094000Y-88257600D01*
X158094000Y-88643499D01*
X158094001Y-88643500D01*
X158467398Y-88643500D01*
X158467399Y-88643499D01*
X158467399Y-88616816D01*
X158467398Y-88616815D01*
X158452939Y-88525514D01*
X158452938Y-88525511D01*
X158396869Y-88415468D01*
X158309531Y-88328130D01*
X158199486Y-88272060D01*
X158199487Y-88272060D01*
X158108184Y-88257600D01*
X158094000Y-88257600D01*
X157586000Y-88257600D01*
X157586000Y-88257599D01*
X157571821Y-88257600D01*
X157571812Y-88257601D01*
X157480514Y-88272060D01*
X157480511Y-88272061D01*
X157370468Y-88328130D01*
X157283130Y-88415468D01*
X157227060Y-88525513D01*
X157212600Y-88616815D01*
X157212600Y-88643499D01*
X156174355Y-88643499D01*
X156152277Y-88600168D01*
X156064832Y-88512723D01*
X155954644Y-88456580D01*
X155954642Y-88456579D01*
X155954641Y-88456579D01*
X155884414Y-88445456D01*
X155863222Y-88442100D01*
X155226778Y-88442100D01*
X155209574Y-88444824D01*
X155135358Y-88456579D01*
X155135356Y-88456579D01*
X155135356Y-88456580D01*
X155025168Y-88512723D01*
X154937723Y-88600168D01*
X154915646Y-88643498D01*
X154881579Y-88710358D01*
X154867100Y-88801778D01*
X154867100Y-89338221D01*
X154881579Y-89429641D01*
X154881579Y-89429642D01*
X154881580Y-89429644D01*
X154937723Y-89539832D01*
X155025168Y-89627277D01*
X155135356Y-89683420D01*
X155226778Y-89697900D01*
X155812494Y-89697900D01*
X155868995Y-89718465D01*
X155874649Y-89723645D01*
X156475155Y-90324151D01*
X156500566Y-90378644D01*
X156500900Y-90386305D01*
X156500900Y-91984373D01*
X156480335Y-92040874D01*
X156428264Y-92070938D01*
X156369050Y-92060497D01*
X156348043Y-92041050D01*
X156347479Y-92041615D01*
X156341720Y-92035856D01*
X156341720Y-92035855D01*
X156261645Y-91955780D01*
X156164342Y-91912816D01*
X156158053Y-91910039D01*
X156158051Y-91910038D01*
X156158050Y-91910038D01*
X156150561Y-91909169D01*
X156132737Y-91907101D01*
X156132732Y-91907100D01*
X156132726Y-91907100D01*
X156132719Y-91907100D01*
X155892000Y-91907100D01*
X155835499Y-91886535D01*
X155805435Y-91834464D01*
X155804100Y-91819200D01*
X155804100Y-91413774D01*
X155824665Y-91357273D01*
X155876736Y-91327209D01*
X155878250Y-91326956D01*
X155932144Y-91318420D01*
X156042332Y-91262277D01*
X156129777Y-91174832D01*
X156185920Y-91064644D01*
X156200400Y-90973222D01*
X156200400Y-90436778D01*
X156185920Y-90345356D01*
X156129777Y-90235168D01*
X156042332Y-90147723D01*
X155932144Y-90091580D01*
X155932142Y-90091579D01*
X155932141Y-90091579D01*
X155861652Y-90080415D01*
X155840722Y-90077100D01*
X155279278Y-90077100D01*
X155262074Y-90079824D01*
X155187858Y-90091579D01*
X155187856Y-90091579D01*
X155187856Y-90091580D01*
X155077668Y-90147723D01*
X154990223Y-90235168D01*
X154965149Y-90284380D01*
X154934079Y-90345358D01*
X154919600Y-90436778D01*
X154919600Y-90973221D01*
X154934079Y-91064641D01*
X154934079Y-91064642D01*
X154934080Y-91064644D01*
X154990223Y-91174832D01*
X155077668Y-91262277D01*
X155187856Y-91318420D01*
X155271751Y-91331707D01*
X155324339Y-91360857D01*
X155345887Y-91416990D01*
X155345900Y-91418525D01*
X155345900Y-91819200D01*
X155325335Y-91875701D01*
X155273264Y-91905765D01*
X155258000Y-91907100D01*
X155017274Y-91907100D01*
X155017268Y-91907100D01*
X155017262Y-91907101D01*
X154991950Y-91910038D01*
X154991946Y-91910039D01*
X154888356Y-91955779D01*
X154808279Y-92035856D01*
X154762539Y-92139446D01*
X154762538Y-92139450D01*
X154760864Y-92153883D01*
X154759600Y-92164774D01*
X154759600Y-92555226D01*
X146792321Y-92555226D01*
X146854860Y-92492687D01*
X146855887Y-92491695D01*
X146902326Y-92448326D01*
X146925062Y-92410936D01*
X146927588Y-92407224D01*
X146954035Y-92372350D01*
X146961433Y-92353586D01*
X146968100Y-92340163D01*
X146978584Y-92322926D01*
X146990392Y-92280775D01*
X146991822Y-92276525D01*
X146993016Y-92273499D01*
X153102600Y-92273499D01*
X153102601Y-92273500D01*
X153475999Y-92273500D01*
X153476000Y-92273499D01*
X153984000Y-92273499D01*
X153984001Y-92273500D01*
X154357398Y-92273500D01*
X154357399Y-92273499D01*
X154357399Y-92196816D01*
X154357398Y-92196815D01*
X154342939Y-92105514D01*
X154342938Y-92105511D01*
X154286869Y-91995468D01*
X154199531Y-91908130D01*
X154089486Y-91852060D01*
X154089487Y-91852060D01*
X153998184Y-91837600D01*
X153984001Y-91837600D01*
X153984000Y-91837601D01*
X153984000Y-92273499D01*
X153476000Y-92273499D01*
X153476000Y-91837599D01*
X153461821Y-91837600D01*
X153461812Y-91837601D01*
X153370514Y-91852060D01*
X153370511Y-91852061D01*
X153260468Y-91908130D01*
X153173130Y-91995468D01*
X153117060Y-92105513D01*
X153102600Y-92196815D01*
X153102600Y-92273499D01*
X146993016Y-92273499D01*
X147007877Y-92235817D01*
X147009940Y-92215745D01*
X147012736Y-92201032D01*
X147018180Y-92181603D01*
X147018180Y-92137848D01*
X147018411Y-92133351D01*
X147022886Y-92089820D01*
X147022886Y-92089819D01*
X147019458Y-92069937D01*
X147018180Y-92055002D01*
X147018180Y-91191020D01*
X147038745Y-91134519D01*
X147090816Y-91104455D01*
X147106080Y-91103120D01*
X147709201Y-91103120D01*
X147765702Y-91123685D01*
X147795766Y-91175756D01*
X147797100Y-91191020D01*
X147797101Y-91303276D01*
X147805972Y-91347878D01*
X147839766Y-91398454D01*
X147856701Y-91409770D01*
X147890341Y-91432248D01*
X147897741Y-91433719D01*
X147934943Y-91441120D01*
X151865056Y-91441119D01*
X151865058Y-91441119D01*
X151877750Y-91438594D01*
X151909658Y-91432248D01*
X151960234Y-91398454D01*
X151994028Y-91347878D01*
X152002900Y-91303277D01*
X152002900Y-90973221D01*
X153094600Y-90973221D01*
X153109079Y-91064641D01*
X153109079Y-91064642D01*
X153109080Y-91064644D01*
X153165223Y-91174832D01*
X153252668Y-91262277D01*
X153362856Y-91318420D01*
X153454278Y-91332900D01*
X153454279Y-91332900D01*
X154015721Y-91332900D01*
X154015722Y-91332900D01*
X154107144Y-91318420D01*
X154217332Y-91262277D01*
X154304777Y-91174832D01*
X154360920Y-91064644D01*
X154375400Y-90973222D01*
X154375400Y-90436778D01*
X154360920Y-90345356D01*
X154304777Y-90235168D01*
X154217332Y-90147723D01*
X154107144Y-90091580D01*
X154107142Y-90091579D01*
X154107141Y-90091579D01*
X154038249Y-90080668D01*
X153985661Y-90051518D01*
X153964113Y-89995384D01*
X153964100Y-89993850D01*
X153964100Y-89785800D01*
X153984665Y-89729299D01*
X154036736Y-89699235D01*
X154052000Y-89697900D01*
X154113221Y-89697900D01*
X154113222Y-89697900D01*
X154204644Y-89683420D01*
X154314832Y-89627277D01*
X154402277Y-89539832D01*
X154458420Y-89429644D01*
X154472900Y-89338222D01*
X154472900Y-88801778D01*
X154458420Y-88710356D01*
X154402277Y-88600168D01*
X154314832Y-88512723D01*
X154204644Y-88456580D01*
X154204642Y-88456579D01*
X154204641Y-88456579D01*
X154134414Y-88445456D01*
X154113222Y-88442100D01*
X153476778Y-88442100D01*
X153459574Y-88444824D01*
X153385358Y-88456579D01*
X153385356Y-88456579D01*
X153385356Y-88456580D01*
X153275168Y-88512723D01*
X153187723Y-88600168D01*
X153165646Y-88643498D01*
X153131579Y-88710358D01*
X153117100Y-88801778D01*
X153117100Y-89338221D01*
X153131579Y-89429641D01*
X153131579Y-89429642D01*
X153131580Y-89429644D01*
X153187723Y-89539832D01*
X153275168Y-89627277D01*
X153385356Y-89683420D01*
X153431750Y-89690768D01*
X153484339Y-89719918D01*
X153505887Y-89776051D01*
X153505900Y-89777586D01*
X153505900Y-89993850D01*
X153485335Y-90050351D01*
X153433264Y-90080415D01*
X153431751Y-90080668D01*
X153362858Y-90091579D01*
X153362856Y-90091579D01*
X153362856Y-90091580D01*
X153252668Y-90147723D01*
X153165223Y-90235168D01*
X153140149Y-90284380D01*
X153109079Y-90345358D01*
X153094600Y-90436778D01*
X153094600Y-90973221D01*
X152002900Y-90973221D01*
X152002899Y-89073164D01*
X152002899Y-89073163D01*
X152002476Y-89068871D01*
X152004196Y-89068701D01*
X152012374Y-89015474D01*
X152027291Y-88995580D01*
X156431957Y-84590915D01*
X156486448Y-84565506D01*
X156544526Y-84581069D01*
X156556264Y-84590917D01*
X161163355Y-89198008D01*
X161188766Y-89252502D01*
X161189100Y-89260163D01*
X161189100Y-93568730D01*
X161168535Y-93625231D01*
X161116464Y-93655295D01*
X161114951Y-93655548D01*
X161073945Y-93662042D01*
X160960231Y-93719982D01*
X160869982Y-93810231D01*
X160812042Y-93923946D01*
X160799997Y-94000000D01*
X160797100Y-94018292D01*
X160797100Y-94781708D01*
X160797760Y-94785875D01*
X160812042Y-94876053D01*
X160861263Y-94972656D01*
X160869984Y-94989771D01*
X160960229Y-95080016D01*
X161073945Y-95137957D01*
X161168292Y-95152900D01*
X161168294Y-95152900D01*
X162531706Y-95152900D01*
X162531708Y-95152900D01*
X162626055Y-95137957D01*
X162739771Y-95080016D01*
X162830016Y-94989771D01*
X162887957Y-94876055D01*
X162902900Y-94781708D01*
X162902900Y-94018292D01*
X162887957Y-93923945D01*
X162830016Y-93810229D01*
X162739771Y-93719984D01*
X162739768Y-93719982D01*
X162626053Y-93662042D01*
X162626055Y-93662042D01*
X162585049Y-93655548D01*
X162532461Y-93626397D01*
X162510913Y-93570264D01*
X162510900Y-93568730D01*
X162510900Y-88971298D01*
X162510980Y-88968644D01*
X162514539Y-88909802D01*
X162514538Y-88909800D01*
X162511544Y-88893464D01*
X162503912Y-88851817D01*
X162503512Y-88849190D01*
X162496408Y-88790679D01*
X162496408Y-88790675D01*
X162492080Y-88779263D01*
X162487808Y-88763943D01*
X162485609Y-88751936D01*
X162468881Y-88714768D01*
X162461413Y-88698174D01*
X162460397Y-88695720D01*
X162439497Y-88640610D01*
X162432562Y-88630564D01*
X162424747Y-88616708D01*
X162419739Y-88605580D01*
X162383379Y-88559170D01*
X162381816Y-88557045D01*
X162348324Y-88508523D01*
X162304192Y-88469425D01*
X162302268Y-88467615D01*
X158848337Y-85013684D01*
X163589884Y-85013684D01*
X163609115Y-85245780D01*
X163609116Y-85245786D01*
X163666286Y-85471544D01*
X163666289Y-85471552D01*
X163753593Y-85670584D01*
X163759840Y-85684825D01*
X163759844Y-85684831D01*
X163887215Y-85879789D01*
X163887216Y-85879791D01*
X163943268Y-85940680D01*
X164044954Y-86051140D01*
X164228740Y-86194186D01*
X164433563Y-86305031D01*
X164653837Y-86380651D01*
X164653839Y-86380651D01*
X164653841Y-86380652D01*
X164883550Y-86418984D01*
X164883554Y-86418984D01*
X165116450Y-86418984D01*
X165346158Y-86380652D01*
X165346158Y-86380651D01*
X165346163Y-86380651D01*
X165566437Y-86305031D01*
X165771260Y-86194186D01*
X165955046Y-86051140D01*
X166112780Y-85879795D01*
X166240160Y-85684825D01*
X166333712Y-85471548D01*
X166390884Y-85245781D01*
X166410116Y-85013684D01*
X166390884Y-84781587D01*
X166390883Y-84781581D01*
X166333713Y-84555823D01*
X166333710Y-84555815D01*
X166240164Y-84342553D01*
X166240160Y-84342543D01*
X166144419Y-84196000D01*
X166112784Y-84147578D01*
X166112783Y-84147576D01*
X165955050Y-83976232D01*
X165955048Y-83976231D01*
X165955046Y-83976228D01*
X165771260Y-83833182D01*
X165566437Y-83722337D01*
X165566433Y-83722335D01*
X165566430Y-83722334D01*
X165346167Y-83646718D01*
X165346158Y-83646715D01*
X165116450Y-83608384D01*
X165116446Y-83608384D01*
X164883554Y-83608384D01*
X164883550Y-83608384D01*
X164653841Y-83646715D01*
X164653832Y-83646718D01*
X164433569Y-83722334D01*
X164433564Y-83722336D01*
X164433563Y-83722337D01*
X164228740Y-83833182D01*
X164219779Y-83840157D01*
X164044949Y-83976232D01*
X163887216Y-84147576D01*
X163887215Y-84147578D01*
X163759844Y-84342536D01*
X163759835Y-84342553D01*
X163666289Y-84555815D01*
X163666286Y-84555823D01*
X163609116Y-84781581D01*
X163609115Y-84781587D01*
X163589884Y-85013684D01*
X158848337Y-85013684D01*
X157490918Y-83656265D01*
X157465507Y-83601771D01*
X157481070Y-83543693D01*
X157490918Y-83531955D01*
X157948411Y-83074462D01*
X158238568Y-82784304D01*
X159672286Y-82784304D01*
X159682511Y-82959888D01*
X159682512Y-82959898D01*
X159732954Y-83128382D01*
X159732955Y-83128385D01*
X159820899Y-83280709D01*
X159853879Y-83315666D01*
X160202556Y-82711737D01*
X160250885Y-82806587D01*
X160340481Y-82896183D01*
X160453378Y-82953707D01*
X160547045Y-82968542D01*
X160610007Y-82968542D01*
X160643985Y-82963160D01*
X160293572Y-83570097D01*
X160428527Y-83585871D01*
X160603225Y-83565452D01*
X160768503Y-83505294D01*
X160915447Y-83408648D01*
X160915453Y-83408643D01*
X161036150Y-83280711D01*
X161103122Y-83164711D01*
X160721723Y-82944510D01*
X160816571Y-82896183D01*
X160906167Y-82806587D01*
X160963691Y-82693690D01*
X160983512Y-82568542D01*
X160973144Y-82503080D01*
X161357123Y-82724770D01*
X161402036Y-82646977D01*
X161454224Y-82525993D01*
X161484766Y-82352777D01*
X161474540Y-82177191D01*
X161424097Y-82008700D01*
X161424096Y-82008697D01*
X161336150Y-81856370D01*
X161303172Y-81821415D01*
X160954493Y-82425343D01*
X160906167Y-82330497D01*
X160816571Y-82240901D01*
X160703674Y-82183377D01*
X160610007Y-82168542D01*
X160547045Y-82168542D01*
X160513062Y-82173924D01*
X160863479Y-81566984D01*
X160728526Y-81551212D01*
X160553826Y-81571631D01*
X160388553Y-81631787D01*
X160241595Y-81728442D01*
X160241593Y-81728444D01*
X160120902Y-81856369D01*
X160120899Y-81856373D01*
X160053927Y-81972372D01*
X160435329Y-82192573D01*
X160340481Y-82240901D01*
X160250885Y-82330497D01*
X160193361Y-82443394D01*
X160173540Y-82568542D01*
X160183907Y-82634003D01*
X159799927Y-82412312D01*
X159755019Y-82490095D01*
X159755013Y-82490107D01*
X159702827Y-82611090D01*
X159672286Y-82784304D01*
X158238568Y-82784304D01*
X158413372Y-82609500D01*
X158467865Y-82584090D01*
X158519472Y-82595531D01*
X158650594Y-82671234D01*
X158650602Y-82671237D01*
X158650604Y-82671238D01*
X158720372Y-82698020D01*
X158739772Y-82705467D01*
X158867224Y-82712146D01*
X158990501Y-82679114D01*
X159097537Y-82609604D01*
X159157652Y-82535368D01*
X159839360Y-81354616D01*
X159873592Y-81265437D01*
X159877893Y-81183377D01*
X159880272Y-81137991D01*
X159880272Y-81137988D01*
X159880271Y-81137987D01*
X159880272Y-81137986D01*
X159847240Y-81014709D01*
X159777729Y-80907672D01*
X159770628Y-80901922D01*
X159703498Y-80847561D01*
X159703495Y-80847558D01*
X159406056Y-80675832D01*
X159042356Y-80465850D01*
X159042351Y-80465848D01*
X159042345Y-80465845D01*
X158953180Y-80431617D01*
X158825727Y-80424938D01*
X158825726Y-80424938D01*
X158702449Y-80457970D01*
X158702447Y-80457970D01*
X158702447Y-80457971D01*
X158595412Y-80527480D01*
X158595411Y-80527481D01*
X158535301Y-80601711D01*
X158535292Y-80601723D01*
X158366133Y-80894714D01*
X158326085Y-80930920D01*
X158267875Y-80957118D01*
X158265424Y-80958133D01*
X158217528Y-80976299D01*
X158210287Y-80979046D01*
X158210286Y-80979046D01*
X158210285Y-80979047D01*
X158200237Y-80985982D01*
X158186392Y-80993791D01*
X158175256Y-80998803D01*
X158128858Y-81035153D01*
X158126721Y-81036725D01*
X158078198Y-81070220D01*
X158039112Y-81114338D01*
X158037293Y-81116270D01*
X156083529Y-83070037D01*
X156055050Y-83098516D01*
X150243990Y-88909575D01*
X150189496Y-88934986D01*
X150181835Y-88935320D01*
X147934941Y-88935320D01*
X147890341Y-88944192D01*
X147839767Y-88977985D01*
X147839764Y-88977988D01*
X147805971Y-89028561D01*
X147797100Y-89073163D01*
X147797100Y-89185420D01*
X147776535Y-89241921D01*
X147724464Y-89271985D01*
X147709200Y-89273320D01*
X146458824Y-89273320D01*
X146315518Y-89288382D01*
X146315515Y-89288382D01*
X146315514Y-89288383D01*
X146256211Y-89307651D01*
X146132602Y-89347814D01*
X145966057Y-89443970D01*
X145966049Y-89443975D01*
X145823131Y-89572659D01*
X145710087Y-89728252D01*
X145650735Y-89861561D01*
X145635646Y-89895452D01*
X145631866Y-89903941D01*
X145631864Y-89903945D01*
X145625558Y-89933617D01*
X145593696Y-89984607D01*
X145536511Y-90003187D01*
X145480762Y-89980663D01*
X145452534Y-89927574D01*
X145451679Y-89915341D01*
X145451679Y-89900037D01*
X145451678Y-89900035D01*
X145437219Y-89808734D01*
X145437218Y-89808731D01*
X145381149Y-89698688D01*
X145293811Y-89611350D01*
X145183766Y-89555280D01*
X145183767Y-89555280D01*
X145092464Y-89540820D01*
X145015781Y-89540820D01*
X145015780Y-89540821D01*
X145015780Y-90795618D01*
X145015781Y-90795619D01*
X145092463Y-90795619D01*
X145092464Y-90795618D01*
X145183765Y-90781159D01*
X145183768Y-90781158D01*
X145293811Y-90725089D01*
X145381149Y-90637751D01*
X145437219Y-90527706D01*
X145451148Y-90439761D01*
X145480298Y-90387172D01*
X145536431Y-90365624D01*
X145593283Y-90385199D01*
X145623944Y-90435234D01*
X145631865Y-90472497D01*
X145656445Y-90527705D01*
X145710087Y-90648187D01*
X145710088Y-90648189D01*
X145710089Y-90648190D01*
X145823131Y-90803780D01*
X145921296Y-90892168D01*
X145949524Y-90945256D01*
X145950380Y-90957490D01*
X145950380Y-91850661D01*
X145929815Y-91907162D01*
X145924635Y-91912816D01*
X145294340Y-92543110D01*
X145239846Y-92568521D01*
X145181768Y-92552958D01*
X145147280Y-92503705D01*
X145150978Y-92447312D01*
X145152949Y-92442556D01*
X145171951Y-92298220D01*
X145152949Y-92153884D01*
X145097237Y-92019385D01*
X145075932Y-91991619D01*
X145008616Y-91903890D01*
X145008613Y-91903887D01*
X144893115Y-91815262D01*
X144758616Y-91759551D01*
X144614280Y-91740549D01*
X144469943Y-91759551D01*
X144335445Y-91815262D01*
X144219948Y-91903885D01*
X144219945Y-91903888D01*
X144131322Y-92019385D01*
X144075611Y-92153883D01*
X144056609Y-92298219D01*
X144056609Y-92298221D01*
X144069777Y-92398249D01*
X144056763Y-92456950D01*
X144044784Y-92471876D01*
X143694501Y-92822159D01*
X143684275Y-92829528D01*
X143684901Y-92830356D01*
X143678403Y-92835263D01*
X143648181Y-92868413D01*
X143646782Y-92869878D01*
X143633741Y-92882921D01*
X143633738Y-92882924D01*
X143631780Y-92885782D01*
X143628005Y-92890546D01*
X143607903Y-92912598D01*
X143607898Y-92912606D01*
X143604413Y-92921602D01*
X143594971Y-92939517D01*
X143584915Y-92954199D01*
X143581568Y-92951906D01*
X143550765Y-92983728D01*
X143490960Y-92989941D01*
X143450172Y-92966833D01*
X143382665Y-92899326D01*
X143357254Y-92844832D01*
X143356920Y-92837117D01*
X143358971Y-90422220D01*
X144071881Y-90422220D01*
X144071881Y-90436404D01*
X144086340Y-90527705D01*
X144086341Y-90527708D01*
X144142410Y-90637751D01*
X144229748Y-90725089D01*
X144339793Y-90781159D01*
X144339792Y-90781159D01*
X144431096Y-90795619D01*
X144507780Y-90795619D01*
X144507780Y-90422221D01*
X144507779Y-90422220D01*
X144071881Y-90422220D01*
X143358971Y-90422220D01*
X143359402Y-89914219D01*
X144071880Y-89914219D01*
X144071881Y-89914220D01*
X144507779Y-89914220D01*
X144507780Y-89914218D01*
X144507780Y-89540820D01*
X144431097Y-89540820D01*
X144431095Y-89540821D01*
X144339794Y-89555280D01*
X144339791Y-89555281D01*
X144229748Y-89611350D01*
X144142410Y-89698688D01*
X144086340Y-89808733D01*
X144071880Y-89900035D01*
X144071880Y-89914219D01*
X143359402Y-89914219D01*
X143360000Y-89210000D01*
X142329280Y-88173220D01*
X142329279Y-88173220D01*
X134825001Y-88174999D01*
X134825000Y-88175000D01*
X133820000Y-89179999D01*
X133755009Y-100323312D01*
X133754280Y-100448220D01*
X130305300Y-100448220D01*
X130305300Y-98354845D01*
X130308656Y-98330790D01*
X130309263Y-98328657D01*
X130308104Y-98316144D01*
X130305488Y-98287911D01*
X130305300Y-98283854D01*
X130305300Y-98271711D01*
X130304831Y-98269204D01*
X130303065Y-98259757D01*
X130302509Y-98255775D01*
X130298732Y-98215004D01*
X130297740Y-98213011D01*
X130290022Y-98189981D01*
X130289615Y-98187804D01*
X130289615Y-98187803D01*
X130268070Y-98153006D01*
X130266100Y-98149469D01*
X130247855Y-98112829D01*
X130246208Y-98111328D01*
X130230693Y-98092642D01*
X130229527Y-98090758D01*
X130229525Y-98090756D01*
X130207741Y-98074306D01*
X130196860Y-98066089D01*
X130193745Y-98063501D01*
X130163504Y-98035933D01*
X130161426Y-98035128D01*
X130140217Y-98023314D01*
X130138441Y-98021973D01*
X130138436Y-98021971D01*
X130099076Y-98010771D01*
X130095226Y-98009481D01*
X130057074Y-97994701D01*
X130057071Y-97994700D01*
X130057070Y-97994700D01*
X130057069Y-97994700D01*
X130054848Y-97994700D01*
X130030793Y-97991344D01*
X130028657Y-97990736D01*
X129987913Y-97994512D01*
X129983855Y-97994700D01*
X128054848Y-97994700D01*
X128030793Y-97991344D01*
X128028657Y-97990736D01*
X127987913Y-97994512D01*
X127983855Y-97994700D01*
X127971706Y-97994700D01*
X127959773Y-97996930D01*
X127955757Y-97997491D01*
X127915004Y-98001268D01*
X127914998Y-98001270D01*
X127913002Y-98002264D01*
X127889999Y-98009974D01*
X127887803Y-98010384D01*
X127853008Y-98031927D01*
X127849463Y-98033902D01*
X127812826Y-98052146D01*
X127812825Y-98052147D01*
X127811321Y-98053797D01*
X127792655Y-98069297D01*
X127790758Y-98070471D01*
X127790757Y-98070472D01*
X127766090Y-98103134D01*
X127763498Y-98106256D01*
X127735932Y-98136496D01*
X127735931Y-98136497D01*
X127735125Y-98138579D01*
X127723318Y-98159777D01*
X127721973Y-98161557D01*
X127721971Y-98161561D01*
X127710775Y-98200916D01*
X127709484Y-98204767D01*
X127694701Y-98242925D01*
X127694700Y-98242931D01*
X127694700Y-98245151D01*
X127691345Y-98269204D01*
X127690736Y-98271342D01*
X127694512Y-98312086D01*
X127694700Y-98316144D01*
X127694700Y-102445151D01*
X127691345Y-102469204D01*
X127690736Y-102471342D01*
X127305300Y-102471342D01*
X127305300Y-96844000D01*
X127692549Y-96844000D01*
X127719970Y-96928389D01*
X127806934Y-97079015D01*
X127806935Y-97079016D01*
X127923310Y-97208264D01*
X128064022Y-97310497D01*
X128222912Y-97381239D01*
X128225999Y-97381894D01*
X128226000Y-97381894D01*
X128226000Y-96901686D01*
X128241955Y-96917641D01*
X128354852Y-96975165D01*
X128448519Y-96990000D01*
X128511481Y-96990000D01*
X128605148Y-96975165D01*
X128718045Y-96917641D01*
X128734000Y-96901686D01*
X128734000Y-97381894D01*
X128737087Y-97381239D01*
X128895977Y-97310497D01*
X129036689Y-97208264D01*
X129153064Y-97079016D01*
X129153065Y-97079015D01*
X129240029Y-96928389D01*
X129267451Y-96844000D01*
X128791686Y-96844000D01*
X128807641Y-96828045D01*
X128831252Y-96781706D01*
X131097100Y-96781706D01*
X131112042Y-96876053D01*
X131164808Y-96979614D01*
X131169984Y-96989771D01*
X131260229Y-97080016D01*
X131373945Y-97137957D01*
X131468292Y-97152900D01*
X131468294Y-97152900D01*
X132831706Y-97152900D01*
X132831708Y-97152900D01*
X132926055Y-97137957D01*
X133039771Y-97080016D01*
X133130016Y-96989771D01*
X133187957Y-96876055D01*
X133202900Y-96781708D01*
X133202900Y-96018292D01*
X133187957Y-95923945D01*
X133130016Y-95810229D01*
X133039771Y-95719984D01*
X133039768Y-95719982D01*
X132926053Y-95662042D01*
X132926054Y-95662042D01*
X132846650Y-95649466D01*
X132831708Y-95647100D01*
X131468292Y-95647100D01*
X131453349Y-95649466D01*
X131373946Y-95662042D01*
X131260231Y-95719982D01*
X131169982Y-95810231D01*
X131112042Y-95923946D01*
X131097100Y-96018293D01*
X131097100Y-96781706D01*
X128831252Y-96781706D01*
X128865165Y-96715148D01*
X128884986Y-96590000D01*
X128865165Y-96464852D01*
X128807641Y-96351955D01*
X128791686Y-96336000D01*
X129267450Y-96336000D01*
X129267450Y-96335999D01*
X129240029Y-96251610D01*
X129153065Y-96100984D01*
X129153064Y-96100983D01*
X129036689Y-95971735D01*
X128895977Y-95869502D01*
X128737088Y-95798761D01*
X128733999Y-95798104D01*
X128733999Y-96278313D01*
X128718045Y-96262359D01*
X128605148Y-96204835D01*
X128511481Y-96190000D01*
X128448519Y-96190000D01*
X128354852Y-96204835D01*
X128241955Y-96262359D01*
X128226000Y-96278314D01*
X128226000Y-95798104D01*
X128222911Y-95798761D01*
X128064022Y-95869502D01*
X127923310Y-95971735D01*
X127806935Y-96100983D01*
X127806934Y-96100984D01*
X127719970Y-96251610D01*
X127692549Y-96335999D01*
X127692550Y-96336000D01*
X128168314Y-96336000D01*
X128152359Y-96351955D01*
X128094835Y-96464852D01*
X128075014Y-96590000D01*
X128094835Y-96715148D01*
X128152359Y-96828045D01*
X128168314Y-96844000D01*
X127692549Y-96844000D01*
X127305300Y-96844000D01*
X127305300Y-95409027D01*
X127305300Y-95280058D01*
X127652100Y-95280058D01*
X127657944Y-95309435D01*
X127660972Y-95324658D01*
X127694766Y-95375234D01*
X127711701Y-95386550D01*
X127745341Y-95409028D01*
X127752741Y-95410499D01*
X127789943Y-95417900D01*
X129170056Y-95417899D01*
X129170058Y-95417899D01*
X129182750Y-95415374D01*
X129214658Y-95409028D01*
X129265234Y-95375234D01*
X129299028Y-95324658D01*
X129307900Y-95280057D01*
X129307900Y-94654000D01*
X131140150Y-94654000D01*
X131193968Y-94778763D01*
X131298996Y-94919841D01*
X131433737Y-95032901D01*
X131433742Y-95032904D01*
X131590909Y-95111837D01*
X131762059Y-95152400D01*
X131895999Y-95152400D01*
X131896000Y-95152399D01*
X131896000Y-94711686D01*
X131911955Y-94727641D01*
X132024852Y-94785165D01*
X132118519Y-94800000D01*
X132181481Y-94800000D01*
X132275148Y-94785165D01*
X132388045Y-94727641D01*
X132403999Y-94711686D01*
X132404000Y-95152398D01*
X132404001Y-95152400D01*
X132493820Y-95152400D01*
X132493823Y-95152399D01*
X132624699Y-95137102D01*
X132789972Y-95076946D01*
X132936929Y-94980292D01*
X133057624Y-94852362D01*
X133145570Y-94700035D01*
X133159352Y-94654000D01*
X132461686Y-94654000D01*
X132477641Y-94638045D01*
X132535165Y-94525148D01*
X132554986Y-94400000D01*
X132535165Y-94274852D01*
X132477641Y-94161955D01*
X132461686Y-94146000D01*
X133159850Y-94146000D01*
X133106031Y-94021236D01*
X133001003Y-93880158D01*
X132866262Y-93767098D01*
X132866257Y-93767095D01*
X132709090Y-93688162D01*
X132537941Y-93647600D01*
X132404001Y-93647600D01*
X132404000Y-93647601D01*
X132404000Y-94088314D01*
X132388045Y-94072359D01*
X132275148Y-94014835D01*
X132181481Y-94000000D01*
X132118519Y-94000000D01*
X132024852Y-94014835D01*
X131911955Y-94072359D01*
X131896000Y-94088314D01*
X131896000Y-93647601D01*
X131895999Y-93647600D01*
X131806176Y-93647600D01*
X131675300Y-93662897D01*
X131510027Y-93723053D01*
X131363070Y-93819707D01*
X131242375Y-93947637D01*
X131154429Y-94099964D01*
X131140647Y-94145999D01*
X131140648Y-94146000D01*
X131838314Y-94146000D01*
X131822359Y-94161955D01*
X131764835Y-94274852D01*
X131745014Y-94400000D01*
X131764835Y-94525148D01*
X131822359Y-94638045D01*
X131838314Y-94654000D01*
X131140150Y-94654000D01*
X129307900Y-94654000D01*
X129307899Y-93899944D01*
X129307899Y-93899943D01*
X129307899Y-93899941D01*
X129301725Y-93868904D01*
X129299028Y-93855342D01*
X129265234Y-93804766D01*
X129231143Y-93781987D01*
X129214657Y-93770971D01*
X129211645Y-93770372D01*
X129208279Y-93768329D01*
X129206661Y-93767659D01*
X129206764Y-93767409D01*
X129160244Y-93739175D01*
X129140900Y-93684162D01*
X129140900Y-92048120D01*
X129160911Y-91993138D01*
X129160767Y-91993033D01*
X129161134Y-91992527D01*
X129161465Y-91991619D01*
X129163470Y-91989312D01*
X129163474Y-91989308D01*
X129250490Y-91838592D01*
X129304269Y-91673078D01*
X129322460Y-91500000D01*
X129322460Y-91499995D01*
X129304270Y-91326927D01*
X129304269Y-91326924D01*
X129304269Y-91326922D01*
X129250490Y-91161408D01*
X129163474Y-91010692D01*
X129047024Y-90881362D01*
X128906230Y-90779068D01*
X128747244Y-90708283D01*
X128747242Y-90708282D01*
X128747241Y-90708282D01*
X128577016Y-90672100D01*
X128402984Y-90672100D01*
X128232758Y-90708282D01*
X128232754Y-90708284D01*
X128073769Y-90779068D01*
X127932977Y-90881361D01*
X127932975Y-90881362D01*
X127816527Y-91010690D01*
X127763163Y-91103120D01*
X127729510Y-91161408D01*
X127715401Y-91204831D01*
X127675729Y-91326927D01*
X127657540Y-91499995D01*
X127657540Y-91500004D01*
X127675729Y-91673072D01*
X127675731Y-91673078D01*
X127729510Y-91838592D01*
X127797168Y-91955779D01*
X127807324Y-91973369D01*
X127819100Y-92017319D01*
X127819100Y-93684163D01*
X127798535Y-93740664D01*
X127753259Y-93767468D01*
X127753339Y-93767660D01*
X127751995Y-93768216D01*
X127748352Y-93770373D01*
X127746239Y-93770793D01*
X127745341Y-93770972D01*
X127694767Y-93804765D01*
X127694764Y-93804768D01*
X127660971Y-93855341D01*
X127652100Y-93899943D01*
X127652100Y-95280058D01*
X127305300Y-95280058D01*
X127305300Y-90190058D01*
X127662100Y-90190058D01*
X127670972Y-90234658D01*
X127704766Y-90285234D01*
X127721701Y-90296550D01*
X127755341Y-90319028D01*
X127762741Y-90320499D01*
X127799943Y-90327900D01*
X129180056Y-90327899D01*
X129180058Y-90327899D01*
X129192750Y-90325374D01*
X129224658Y-90319028D01*
X129275234Y-90285234D01*
X129309028Y-90234658D01*
X129317900Y-90190057D01*
X129317900Y-90121800D01*
X129338465Y-90065299D01*
X129390536Y-90035235D01*
X129405800Y-90033900D01*
X132190120Y-90033900D01*
X132191620Y-90033926D01*
X132217852Y-90034821D01*
X132255112Y-90036094D01*
X132297635Y-90025731D01*
X132302036Y-90024894D01*
X132345399Y-90018935D01*
X132363901Y-90010897D01*
X132378104Y-90006122D01*
X132397706Y-90001346D01*
X132435863Y-89979890D01*
X132439862Y-89977903D01*
X132480014Y-89960464D01*
X132495662Y-89947732D01*
X132508055Y-89939298D01*
X132525635Y-89929414D01*
X132556577Y-89898470D01*
X132559907Y-89895464D01*
X132593862Y-89867842D01*
X132605497Y-89851356D01*
X132615144Y-89839903D01*
X135895403Y-86559645D01*
X135949898Y-86534234D01*
X135957559Y-86533900D01*
X141633063Y-86533900D01*
X141689564Y-86554465D01*
X141713685Y-86586779D01*
X141727033Y-86617509D01*
X141727036Y-86617514D01*
X141739766Y-86633161D01*
X141748198Y-86645551D01*
X141758083Y-86663131D01*
X141758084Y-86663132D01*
X141758086Y-86663135D01*
X141789025Y-86694074D01*
X141792041Y-86697417D01*
X141819654Y-86731359D01*
X141819660Y-86731364D01*
X141836136Y-86742994D01*
X141847602Y-86752651D01*
X142965502Y-87870552D01*
X142966524Y-87871609D01*
X142984170Y-87890503D01*
X143009892Y-87918045D01*
X143047276Y-87940779D01*
X143050998Y-87943312D01*
X143085867Y-87969753D01*
X143085866Y-87969753D01*
X143085868Y-87969754D01*
X143085870Y-87969755D01*
X143104631Y-87977153D01*
X143118054Y-87983820D01*
X143123942Y-87987400D01*
X143135294Y-87994304D01*
X143160428Y-88001346D01*
X143177431Y-88006110D01*
X143181699Y-88007546D01*
X143209565Y-88018534D01*
X143222402Y-88023597D01*
X143242472Y-88025660D01*
X143257191Y-88028457D01*
X143276617Y-88033900D01*
X143320369Y-88033900D01*
X143324866Y-88034131D01*
X143343954Y-88036093D01*
X143368399Y-88038606D01*
X143384435Y-88035840D01*
X143388281Y-88035178D01*
X143403215Y-88033900D01*
X146090120Y-88033900D01*
X146091620Y-88033926D01*
X146117852Y-88034821D01*
X146155112Y-88036094D01*
X146197635Y-88025731D01*
X146202036Y-88024894D01*
X146245399Y-88018935D01*
X146263901Y-88010897D01*
X146278104Y-88006122D01*
X146297706Y-88001346D01*
X146335863Y-87979890D01*
X146339862Y-87977903D01*
X146380014Y-87960464D01*
X146395662Y-87947732D01*
X146408055Y-87939298D01*
X146425635Y-87929414D01*
X146456577Y-87898470D01*
X146459907Y-87895464D01*
X146493862Y-87867842D01*
X146505497Y-87851356D01*
X146515144Y-87839903D01*
X147695403Y-86659645D01*
X147749898Y-86634234D01*
X147757559Y-86633900D01*
X150094130Y-86633900D01*
X150136262Y-86647030D01*
X150137101Y-86645434D01*
X150141808Y-86647904D01*
X150141809Y-86647905D01*
X150283920Y-86722491D01*
X150439752Y-86760900D01*
X150439754Y-86760900D01*
X150600245Y-86760900D01*
X150600248Y-86760900D01*
X150756080Y-86722491D01*
X150898191Y-86647905D01*
X151018324Y-86541477D01*
X151109496Y-86409391D01*
X151166408Y-86259325D01*
X151185754Y-86100000D01*
X151166408Y-85940675D01*
X151109496Y-85790609D01*
X151109496Y-85790608D01*
X151018326Y-85658526D01*
X151018324Y-85658523D01*
X150898191Y-85552095D01*
X150898189Y-85552094D01*
X150898188Y-85552093D01*
X150855772Y-85529831D01*
X150756080Y-85477509D01*
X150756077Y-85477508D01*
X150700890Y-85463906D01*
X150600248Y-85439100D01*
X150439752Y-85439100D01*
X150362935Y-85458033D01*
X150283922Y-85477508D01*
X150283912Y-85477512D01*
X150137101Y-85554566D01*
X150136262Y-85552969D01*
X150094130Y-85566100D01*
X147509881Y-85566100D01*
X147508381Y-85566074D01*
X147444889Y-85563906D01*
X147444888Y-85563906D01*
X147435991Y-85566074D01*
X147402372Y-85574265D01*
X147397951Y-85575105D01*
X147354600Y-85581065D01*
X147354594Y-85581066D01*
X147336095Y-85589101D01*
X147321896Y-85593876D01*
X147302295Y-85598653D01*
X147302290Y-85598655D01*
X147264141Y-85620104D01*
X147260110Y-85622106D01*
X147219988Y-85639534D01*
X147219982Y-85639538D01*
X147204337Y-85652266D01*
X147191953Y-85660695D01*
X147174366Y-85670584D01*
X147174362Y-85670588D01*
X147143422Y-85701526D01*
X147140081Y-85704541D01*
X147106140Y-85732155D01*
X147106138Y-85732158D01*
X147094505Y-85748637D01*
X147084851Y-85760098D01*
X145904596Y-86940355D01*
X145850102Y-86965766D01*
X145842441Y-86966100D01*
X143607559Y-86966100D01*
X143551058Y-86945535D01*
X143545404Y-86940355D01*
X142873233Y-86268184D01*
X143372601Y-86268184D01*
X143387060Y-86359485D01*
X143387061Y-86359488D01*
X143443130Y-86469531D01*
X143530468Y-86556869D01*
X143640513Y-86612939D01*
X143640512Y-86612939D01*
X143731815Y-86627399D01*
X143758500Y-86627399D01*
X143758500Y-86627398D01*
X144266500Y-86627398D01*
X144266501Y-86627399D01*
X144293183Y-86627399D01*
X144293184Y-86627398D01*
X144384485Y-86612939D01*
X144384488Y-86612938D01*
X144494531Y-86556869D01*
X144581869Y-86469531D01*
X144637939Y-86359486D01*
X144652400Y-86268184D01*
X144652400Y-86254001D01*
X144652399Y-86254000D01*
X144266501Y-86254000D01*
X144266500Y-86254001D01*
X144266500Y-86627398D01*
X143758500Y-86627398D01*
X143758500Y-86254001D01*
X143758499Y-86254000D01*
X143372602Y-86254000D01*
X143372601Y-86254001D01*
X143372601Y-86268184D01*
X142873233Y-86268184D01*
X142853645Y-86248596D01*
X142828234Y-86194102D01*
X142827900Y-86186441D01*
X142827900Y-85745999D01*
X143372600Y-85745999D01*
X143372601Y-85746000D01*
X143758499Y-85746000D01*
X143758500Y-85745999D01*
X144266500Y-85745999D01*
X144266501Y-85746000D01*
X144652398Y-85746000D01*
X144652399Y-85745999D01*
X144652399Y-85731817D01*
X144652398Y-85731815D01*
X144637939Y-85640514D01*
X144637938Y-85640511D01*
X144581869Y-85530468D01*
X144494531Y-85443130D01*
X144384486Y-85387060D01*
X144384487Y-85387060D01*
X144293184Y-85372600D01*
X144266501Y-85372600D01*
X144266500Y-85372601D01*
X144266500Y-85745999D01*
X143758500Y-85745999D01*
X143758500Y-85372600D01*
X143731818Y-85372600D01*
X143731813Y-85372601D01*
X143640514Y-85387060D01*
X143640511Y-85387061D01*
X143530468Y-85443130D01*
X143443130Y-85530468D01*
X143387060Y-85640513D01*
X143372600Y-85731815D01*
X143372600Y-85745999D01*
X142827900Y-85745999D01*
X142827900Y-85731778D01*
X142820463Y-85684825D01*
X142813420Y-85640356D01*
X142780980Y-85576688D01*
X142771400Y-85536783D01*
X142771400Y-85042118D01*
X142791965Y-84985617D01*
X142797134Y-84979974D01*
X142857277Y-84919832D01*
X142913420Y-84809644D01*
X142927900Y-84718222D01*
X142927900Y-84704000D01*
X143272601Y-84704000D01*
X143272601Y-84718184D01*
X143287060Y-84809485D01*
X143287061Y-84809488D01*
X143343130Y-84919531D01*
X143430468Y-85006869D01*
X143540513Y-85062939D01*
X143540512Y-85062939D01*
X143631816Y-85077399D01*
X143708500Y-85077399D01*
X143708500Y-85077398D01*
X144216500Y-85077398D01*
X144216501Y-85077399D01*
X144293183Y-85077399D01*
X144293184Y-85077398D01*
X144384485Y-85062939D01*
X144384488Y-85062938D01*
X144494531Y-85006869D01*
X144581869Y-84919531D01*
X144637939Y-84809486D01*
X144652400Y-84718184D01*
X144652400Y-84704001D01*
X144652399Y-84704000D01*
X144216501Y-84704000D01*
X144216500Y-84704001D01*
X144216500Y-85077398D01*
X143708500Y-85077398D01*
X143708500Y-84704001D01*
X143708499Y-84704000D01*
X143272601Y-84704000D01*
X142927900Y-84704000D01*
X142927900Y-84195999D01*
X143272600Y-84195999D01*
X143272601Y-84196000D01*
X143708499Y-84196000D01*
X143708500Y-84195999D01*
X144216500Y-84195999D01*
X144216501Y-84196000D01*
X144652398Y-84196000D01*
X144652399Y-84195999D01*
X144652399Y-84181817D01*
X144652398Y-84181815D01*
X144637939Y-84090514D01*
X144637938Y-84090511D01*
X144581869Y-83980468D01*
X144494531Y-83893130D01*
X144384486Y-83837060D01*
X144384487Y-83837060D01*
X144293184Y-83822600D01*
X144216501Y-83822600D01*
X144216500Y-83822601D01*
X144216500Y-84195999D01*
X143708500Y-84195999D01*
X143708500Y-84195998D01*
X143708500Y-83822600D01*
X143631817Y-83822600D01*
X143631815Y-83822601D01*
X143540514Y-83837060D01*
X143540511Y-83837061D01*
X143430468Y-83893130D01*
X143343130Y-83980468D01*
X143287060Y-84090513D01*
X143272600Y-84181815D01*
X143272600Y-84195999D01*
X142927900Y-84195999D01*
X142927900Y-84181778D01*
X142913420Y-84090356D01*
X142857277Y-83980168D01*
X142853337Y-83976228D01*
X142797145Y-83920035D01*
X142771734Y-83865541D01*
X142771400Y-83857881D01*
X142771400Y-83364357D01*
X142771426Y-83362856D01*
X142773037Y-83315666D01*
X142773594Y-83299366D01*
X142763233Y-83256848D01*
X142762392Y-83252423D01*
X142756436Y-83209085D01*
X142756435Y-83209080D01*
X142756435Y-83209079D01*
X142748396Y-83190573D01*
X142743622Y-83176375D01*
X142738846Y-83156772D01*
X142717394Y-83118621D01*
X142715393Y-83114591D01*
X142697963Y-83074462D01*
X142685232Y-83058814D01*
X142676801Y-83046428D01*
X142666914Y-83028843D01*
X142635969Y-82997898D01*
X142632964Y-82994568D01*
X142605342Y-82960616D01*
X142588858Y-82948980D01*
X142577400Y-82939329D01*
X141678644Y-82040573D01*
X141653233Y-81986079D01*
X141652899Y-81978418D01*
X141652899Y-81766978D01*
X142182247Y-81766978D01*
X142200638Y-81953707D01*
X142201612Y-81963587D01*
X142258957Y-82152626D01*
X142258958Y-82152628D01*
X142352084Y-82326856D01*
X142477411Y-82479567D01*
X142630122Y-82604894D01*
X142804350Y-82698020D01*
X142993397Y-82755367D01*
X143190000Y-82774731D01*
X143386603Y-82755367D01*
X143575650Y-82698020D01*
X143749878Y-82604894D01*
X143902589Y-82479567D01*
X144027916Y-82326856D01*
X144121042Y-82152628D01*
X144178389Y-81963581D01*
X144197753Y-81766978D01*
X144722247Y-81766978D01*
X144740638Y-81953707D01*
X144741612Y-81963587D01*
X144798957Y-82152626D01*
X144798958Y-82152628D01*
X144892084Y-82326856D01*
X145017411Y-82479567D01*
X145170122Y-82604894D01*
X145344350Y-82698020D01*
X145533397Y-82755367D01*
X145730000Y-82774731D01*
X145926603Y-82755367D01*
X146115650Y-82698020D01*
X146289878Y-82604894D01*
X146442589Y-82479567D01*
X146567916Y-82326856D01*
X146661042Y-82152628D01*
X146718389Y-81963581D01*
X146737753Y-81766978D01*
X147262247Y-81766978D01*
X147280638Y-81953707D01*
X147281612Y-81963587D01*
X147338957Y-82152626D01*
X147338958Y-82152628D01*
X147432084Y-82326856D01*
X147557411Y-82479567D01*
X147710122Y-82604894D01*
X147884350Y-82698020D01*
X148073397Y-82755367D01*
X148270000Y-82774731D01*
X148466603Y-82755367D01*
X148655650Y-82698020D01*
X148829878Y-82604894D01*
X148982589Y-82479567D01*
X149107916Y-82326856D01*
X149201042Y-82152628D01*
X149258389Y-81963581D01*
X149277753Y-81766978D01*
X149802247Y-81766978D01*
X149820638Y-81953707D01*
X149821612Y-81963587D01*
X149878957Y-82152626D01*
X149878958Y-82152628D01*
X149972084Y-82326856D01*
X150097411Y-82479567D01*
X150250122Y-82604894D01*
X150424350Y-82698020D01*
X150613397Y-82755367D01*
X150810000Y-82774731D01*
X151006603Y-82755367D01*
X151195650Y-82698020D01*
X151369878Y-82604894D01*
X151522589Y-82479567D01*
X151647916Y-82326856D01*
X151741042Y-82152628D01*
X151798389Y-81963581D01*
X151817753Y-81766978D01*
X152342247Y-81766978D01*
X152360638Y-81953707D01*
X152361612Y-81963587D01*
X152418957Y-82152626D01*
X152418958Y-82152628D01*
X152512084Y-82326856D01*
X152637411Y-82479567D01*
X152790122Y-82604894D01*
X152964350Y-82698020D01*
X153153397Y-82755367D01*
X153350000Y-82774731D01*
X153546603Y-82755367D01*
X153735650Y-82698020D01*
X153909878Y-82604894D01*
X154062589Y-82479567D01*
X154187916Y-82326856D01*
X154281042Y-82152628D01*
X154338389Y-81963581D01*
X154357753Y-81766978D01*
X154338389Y-81570375D01*
X154281042Y-81381328D01*
X154187916Y-81207100D01*
X154062589Y-81054389D01*
X153909878Y-80929062D01*
X153735650Y-80835936D01*
X153735649Y-80835935D01*
X153735648Y-80835935D01*
X153546609Y-80778590D01*
X153546604Y-80778589D01*
X153546603Y-80778589D01*
X153350000Y-80759225D01*
X153153397Y-80778589D01*
X153153395Y-80778589D01*
X153153390Y-80778590D01*
X152964351Y-80835935D01*
X152790121Y-80929062D01*
X152637413Y-81054387D01*
X152637409Y-81054391D01*
X152512084Y-81207099D01*
X152418957Y-81381329D01*
X152361612Y-81570368D01*
X152361611Y-81570373D01*
X152361611Y-81570375D01*
X152342247Y-81766978D01*
X151817753Y-81766978D01*
X151798389Y-81570375D01*
X151741042Y-81381328D01*
X151647916Y-81207100D01*
X151522589Y-81054389D01*
X151369878Y-80929062D01*
X151195650Y-80835936D01*
X151195649Y-80835935D01*
X151195648Y-80835935D01*
X151006609Y-80778590D01*
X151006604Y-80778589D01*
X151006603Y-80778589D01*
X150810000Y-80759225D01*
X150809999Y-80759225D01*
X150762657Y-80763887D01*
X150613397Y-80778589D01*
X150613395Y-80778589D01*
X150613390Y-80778590D01*
X150424351Y-80835935D01*
X150250121Y-80929062D01*
X150097413Y-81054387D01*
X150097409Y-81054391D01*
X149972084Y-81207099D01*
X149878957Y-81381329D01*
X149821612Y-81570368D01*
X149821611Y-81570373D01*
X149821611Y-81570375D01*
X149802247Y-81766978D01*
X149277753Y-81766978D01*
X149258389Y-81570375D01*
X149201042Y-81381328D01*
X149107916Y-81207100D01*
X148982589Y-81054389D01*
X148829878Y-80929062D01*
X148655650Y-80835936D01*
X148655649Y-80835935D01*
X148655648Y-80835935D01*
X148466609Y-80778590D01*
X148466604Y-80778589D01*
X148466603Y-80778589D01*
X148270000Y-80759225D01*
X148073397Y-80778589D01*
X148073395Y-80778589D01*
X148073390Y-80778590D01*
X147884351Y-80835935D01*
X147710121Y-80929062D01*
X147557413Y-81054387D01*
X147557409Y-81054391D01*
X147432084Y-81207099D01*
X147338957Y-81381329D01*
X147281612Y-81570368D01*
X147281611Y-81570373D01*
X147281611Y-81570375D01*
X147262247Y-81766978D01*
X146737753Y-81766978D01*
X146718389Y-81570375D01*
X146661042Y-81381328D01*
X146567916Y-81207100D01*
X146442589Y-81054389D01*
X146289878Y-80929062D01*
X146115650Y-80835936D01*
X146115649Y-80835935D01*
X146115648Y-80835935D01*
X145926609Y-80778590D01*
X145926604Y-80778589D01*
X145926603Y-80778589D01*
X145730000Y-80759225D01*
X145533397Y-80778589D01*
X145533395Y-80778589D01*
X145533390Y-80778590D01*
X145344351Y-80835935D01*
X145170121Y-80929062D01*
X145017413Y-81054387D01*
X145017409Y-81054391D01*
X144892084Y-81207099D01*
X144798957Y-81381329D01*
X144741612Y-81570368D01*
X144741611Y-81570373D01*
X144741611Y-81570375D01*
X144722247Y-81766978D01*
X144197753Y-81766978D01*
X144178389Y-81570375D01*
X144121042Y-81381328D01*
X144027916Y-81207100D01*
X143902589Y-81054389D01*
X143749878Y-80929062D01*
X143575650Y-80835936D01*
X143575649Y-80835935D01*
X143575648Y-80835935D01*
X143386609Y-80778590D01*
X143386604Y-80778589D01*
X143386603Y-80778589D01*
X143190000Y-80759225D01*
X143189999Y-80759225D01*
X143142657Y-80763887D01*
X142993397Y-80778589D01*
X142993395Y-80778589D01*
X142993390Y-80778590D01*
X142804351Y-80835935D01*
X142630121Y-80929062D01*
X142477413Y-81054387D01*
X142477409Y-81054391D01*
X142352084Y-81207099D01*
X142258957Y-81381329D01*
X142201612Y-81570368D01*
X142201611Y-81570373D01*
X142201611Y-81570375D01*
X142182247Y-81766978D01*
X141652899Y-81766978D01*
X141652899Y-80901919D01*
X141649111Y-80882880D01*
X141644028Y-80857320D01*
X141610234Y-80806744D01*
X141610002Y-80806589D01*
X141559658Y-80772949D01*
X141522456Y-80765549D01*
X141515057Y-80764078D01*
X141515056Y-80764078D01*
X139784941Y-80764078D01*
X139740341Y-80772950D01*
X139689767Y-80806743D01*
X139689764Y-80806746D01*
X139655971Y-80857319D01*
X139647100Y-80901921D01*
X139647100Y-82632036D01*
X139654898Y-82671235D01*
X139655972Y-82676636D01*
X139689766Y-82727212D01*
X139706701Y-82738528D01*
X139740341Y-82761006D01*
X139747741Y-82762477D01*
X139784943Y-82769878D01*
X140861440Y-82769877D01*
X140917941Y-82790442D01*
X140923595Y-82795622D01*
X141677855Y-83549881D01*
X141703266Y-83604375D01*
X141703600Y-83612036D01*
X141703600Y-83857881D01*
X141683035Y-83914382D01*
X141677855Y-83920035D01*
X141617724Y-83980166D01*
X141617722Y-83980168D01*
X141617723Y-83980168D01*
X141563801Y-84085998D01*
X141561579Y-84090358D01*
X141547100Y-84181778D01*
X141547100Y-84718221D01*
X141561579Y-84809641D01*
X141561579Y-84809642D01*
X141561580Y-84809644D01*
X141617723Y-84919832D01*
X141677855Y-84979964D01*
X141703266Y-85034457D01*
X141703600Y-85042118D01*
X141703600Y-85378200D01*
X141683035Y-85434701D01*
X141630964Y-85464765D01*
X141615700Y-85466100D01*
X135709880Y-85466100D01*
X135708380Y-85466074D01*
X135644888Y-85463906D01*
X135644884Y-85463906D01*
X135602373Y-85474265D01*
X135597951Y-85475106D01*
X135554599Y-85481064D01*
X135536091Y-85489103D01*
X135521889Y-85493879D01*
X135502294Y-85498654D01*
X135502291Y-85498655D01*
X135464159Y-85520096D01*
X135460127Y-85522099D01*
X135419983Y-85539537D01*
X135404332Y-85552270D01*
X135391944Y-85560701D01*
X135374365Y-85570585D01*
X135343422Y-85601527D01*
X135340080Y-85604542D01*
X135306140Y-85632155D01*
X135306138Y-85632158D01*
X135294505Y-85648637D01*
X135284851Y-85660098D01*
X132004596Y-88940355D01*
X131950102Y-88965766D01*
X131942441Y-88966100D01*
X129405799Y-88966100D01*
X129349298Y-88945535D01*
X129319234Y-88893464D01*
X129317899Y-88878200D01*
X129317899Y-88809941D01*
X129311798Y-88779271D01*
X129309028Y-88765342D01*
X129275234Y-88714766D01*
X129268634Y-88710356D01*
X129224658Y-88680971D01*
X129187456Y-88673571D01*
X129180057Y-88672100D01*
X129180056Y-88672100D01*
X127799941Y-88672100D01*
X127755341Y-88680972D01*
X127704767Y-88714765D01*
X127704764Y-88714768D01*
X127670971Y-88765341D01*
X127662100Y-88809943D01*
X127662100Y-90190058D01*
X127305300Y-90190058D01*
X127305300Y-85013684D01*
X127589884Y-85013684D01*
X127609115Y-85245780D01*
X127609116Y-85245786D01*
X127666286Y-85471544D01*
X127666289Y-85471552D01*
X127753593Y-85670584D01*
X127759840Y-85684825D01*
X127759844Y-85684831D01*
X127887215Y-85879789D01*
X127887216Y-85879791D01*
X127943268Y-85940680D01*
X128044954Y-86051140D01*
X128228740Y-86194186D01*
X128433563Y-86305031D01*
X128653837Y-86380651D01*
X128653839Y-86380651D01*
X128653841Y-86380652D01*
X128883550Y-86418984D01*
X128883554Y-86418984D01*
X129116450Y-86418984D01*
X129346158Y-86380652D01*
X129346158Y-86380651D01*
X129346163Y-86380651D01*
X129566437Y-86305031D01*
X129771260Y-86194186D01*
X129955046Y-86051140D01*
X130112780Y-85879795D01*
X130240160Y-85684825D01*
X130333712Y-85471548D01*
X130390884Y-85245781D01*
X130410116Y-85013684D01*
X130390884Y-84781587D01*
X130390883Y-84781581D01*
X130333713Y-84555823D01*
X130333710Y-84555815D01*
X130240164Y-84342553D01*
X130240160Y-84342543D01*
X130144419Y-84196000D01*
X130112784Y-84147578D01*
X130112783Y-84147576D01*
X129955050Y-83976232D01*
X129955048Y-83976231D01*
X129955046Y-83976228D01*
X129771260Y-83833182D01*
X129566437Y-83722337D01*
X129566433Y-83722335D01*
X129566430Y-83722334D01*
X129346167Y-83646718D01*
X129346158Y-83646715D01*
X129116450Y-83608384D01*
X129116446Y-83608384D01*
X128883554Y-83608384D01*
X128883550Y-83608384D01*
X128653841Y-83646715D01*
X128653832Y-83646718D01*
X128433569Y-83722334D01*
X128433564Y-83722336D01*
X128433563Y-83722337D01*
X128228740Y-83833182D01*
X128219779Y-83840157D01*
X128044949Y-83976232D01*
X127887216Y-84147576D01*
X127887215Y-84147578D01*
X127759844Y-84342536D01*
X127759835Y-84342553D01*
X127666289Y-84555815D01*
X127666286Y-84555823D01*
X127609116Y-84781581D01*
X127609115Y-84781587D01*
X127589884Y-85013684D01*
X127305300Y-85013684D01*
X127305300Y-84085995D01*
X127325864Y-84029497D01*
X127349245Y-84009877D01*
X130591446Y-82137991D01*
X132387677Y-82137991D01*
X132394357Y-82265434D01*
X132394358Y-82265437D01*
X132428590Y-82354616D01*
X132828004Y-83046420D01*
X133110298Y-83535369D01*
X133110301Y-83535372D01*
X133166178Y-83604375D01*
X133170413Y-83609604D01*
X133277449Y-83679114D01*
X133400726Y-83712146D01*
X133528178Y-83705467D01*
X133554195Y-83695480D01*
X133596828Y-83679114D01*
X133617356Y-83671234D01*
X134278494Y-83289526D01*
X134352729Y-83229412D01*
X134422240Y-83122375D01*
X134455272Y-82999098D01*
X134453670Y-82968542D01*
X134448592Y-82871649D01*
X134448591Y-82871645D01*
X134414360Y-82782468D01*
X133732652Y-81601716D01*
X133732651Y-81601714D01*
X133732648Y-81601711D01*
X133672538Y-81527481D01*
X133672537Y-81527480D01*
X133672536Y-81527480D01*
X133565501Y-81457970D01*
X133442224Y-81424938D01*
X133442222Y-81424938D01*
X133314770Y-81431617D01*
X133314768Y-81431617D01*
X133225604Y-81465845D01*
X133225598Y-81465848D01*
X133225595Y-81465849D01*
X133225594Y-81465850D01*
X133118848Y-81527480D01*
X132564454Y-81847558D01*
X132564451Y-81847561D01*
X132490222Y-81907670D01*
X132490221Y-81907671D01*
X132424614Y-82008697D01*
X132420710Y-82014709D01*
X132413780Y-82040573D01*
X132387677Y-82137988D01*
X132387677Y-82137991D01*
X130591446Y-82137991D01*
X132104053Y-81264687D01*
X134247286Y-81264687D01*
X134257511Y-81440275D01*
X134307954Y-81608766D01*
X134307955Y-81608769D01*
X134374928Y-81724769D01*
X134758908Y-81503078D01*
X134748540Y-81568542D01*
X134768361Y-81693690D01*
X134825885Y-81806587D01*
X134915481Y-81896183D01*
X135010327Y-81944509D01*
X134628927Y-82164711D01*
X134673840Y-82242503D01*
X134752523Y-82348192D01*
X134752524Y-82348193D01*
X134887263Y-82461251D01*
X134887268Y-82461254D01*
X135044435Y-82540187D01*
X135215585Y-82580750D01*
X135391467Y-82580750D01*
X135438230Y-82569666D01*
X135088064Y-81963160D01*
X135122045Y-81968542D01*
X135185007Y-81968542D01*
X135278674Y-81953707D01*
X135391571Y-81896183D01*
X135481167Y-81806587D01*
X135529494Y-81711739D01*
X135878420Y-82316098D01*
X135959557Y-82207113D01*
X136029223Y-82045612D01*
X136059766Y-81872395D01*
X136049540Y-81696809D01*
X135999096Y-81528314D01*
X135999095Y-81528312D01*
X135932122Y-81412312D01*
X135548144Y-81634001D01*
X135558512Y-81568542D01*
X135538691Y-81443394D01*
X135481167Y-81330497D01*
X135391571Y-81240901D01*
X135296721Y-81192572D01*
X135678123Y-80972370D01*
X135633211Y-80894579D01*
X135554528Y-80788891D01*
X135554527Y-80788890D01*
X135419791Y-80675835D01*
X135419786Y-80675832D01*
X135262617Y-80596896D01*
X135091468Y-80556334D01*
X134915582Y-80556334D01*
X134868820Y-80567415D01*
X135218986Y-81173923D01*
X135185007Y-81168542D01*
X135122045Y-81168542D01*
X135028378Y-81183377D01*
X134915481Y-81240901D01*
X134825885Y-81330497D01*
X134777557Y-81425344D01*
X134428631Y-80820985D01*
X134347494Y-80929970D01*
X134277828Y-81091471D01*
X134247286Y-81264687D01*
X132104053Y-81264687D01*
X135633468Y-79226978D01*
X139642247Y-79226978D01*
X139661612Y-79423587D01*
X139718898Y-79612430D01*
X139718958Y-79612628D01*
X139812084Y-79786856D01*
X139937411Y-79939567D01*
X140090122Y-80064894D01*
X140264350Y-80158020D01*
X140453397Y-80215367D01*
X140650000Y-80234731D01*
X140846603Y-80215367D01*
X141035650Y-80158020D01*
X141209878Y-80064894D01*
X141362589Y-79939567D01*
X141487916Y-79786856D01*
X141581042Y-79612628D01*
X141638389Y-79423581D01*
X141657753Y-79226978D01*
X142182247Y-79226978D01*
X142201612Y-79423587D01*
X142258898Y-79612430D01*
X142258958Y-79612628D01*
X142352084Y-79786856D01*
X142477411Y-79939567D01*
X142630122Y-80064894D01*
X142804350Y-80158020D01*
X142993397Y-80215367D01*
X143190000Y-80234731D01*
X143386603Y-80215367D01*
X143575650Y-80158020D01*
X143749878Y-80064894D01*
X143902589Y-79939567D01*
X144027916Y-79786856D01*
X144121042Y-79612628D01*
X144178389Y-79423581D01*
X144197753Y-79226978D01*
X144722247Y-79226978D01*
X144741612Y-79423587D01*
X144798898Y-79612430D01*
X144798958Y-79612628D01*
X144892084Y-79786856D01*
X145017411Y-79939567D01*
X145170122Y-80064894D01*
X145344350Y-80158020D01*
X145533397Y-80215367D01*
X145730000Y-80234731D01*
X145926603Y-80215367D01*
X146115650Y-80158020D01*
X146289878Y-80064894D01*
X146442589Y-79939567D01*
X146567916Y-79786856D01*
X146661042Y-79612628D01*
X146718389Y-79423581D01*
X146737753Y-79226978D01*
X146718389Y-79030375D01*
X146700977Y-78972977D01*
X147299544Y-78972977D01*
X147299545Y-78972978D01*
X147838884Y-78972978D01*
X147810507Y-79017134D01*
X147770000Y-79155089D01*
X147770000Y-79298867D01*
X147810507Y-79436822D01*
X147838884Y-79480978D01*
X147299545Y-79480978D01*
X147339419Y-79612430D01*
X147432504Y-79786579D01*
X147557759Y-79939202D01*
X147557775Y-79939218D01*
X147710398Y-80064473D01*
X147710397Y-80064473D01*
X147884547Y-80157558D01*
X148015999Y-80197433D01*
X148016000Y-80197432D01*
X148016000Y-79660652D01*
X148127685Y-79711658D01*
X148234237Y-79726978D01*
X148305763Y-79726978D01*
X148412315Y-79711658D01*
X148524000Y-79660652D01*
X148524000Y-80197433D01*
X148655452Y-80157558D01*
X148829601Y-80064473D01*
X148982224Y-79939218D01*
X148982240Y-79939202D01*
X149107495Y-79786579D01*
X149200580Y-79612430D01*
X149240455Y-79480978D01*
X148701116Y-79480978D01*
X148729493Y-79436822D01*
X148770000Y-79298867D01*
X148770000Y-79155089D01*
X148729493Y-79017134D01*
X148701116Y-78972978D01*
X149240455Y-78972978D01*
X149240455Y-78972977D01*
X149839544Y-78972977D01*
X149839545Y-78972978D01*
X150378884Y-78972978D01*
X150350507Y-79017134D01*
X150310000Y-79155089D01*
X150310000Y-79298867D01*
X150350507Y-79436822D01*
X150378884Y-79480978D01*
X149839545Y-79480978D01*
X149879419Y-79612430D01*
X149972504Y-79786579D01*
X150097759Y-79939202D01*
X150097775Y-79939218D01*
X150250398Y-80064473D01*
X150250397Y-80064473D01*
X150424547Y-80157558D01*
X150555999Y-80197433D01*
X150556000Y-80197433D01*
X150556000Y-79660652D01*
X150667685Y-79711658D01*
X150774237Y-79726978D01*
X150845763Y-79726978D01*
X150952315Y-79711658D01*
X151064000Y-79660652D01*
X151064000Y-80197433D01*
X151195452Y-80157558D01*
X151369601Y-80064473D01*
X151522224Y-79939218D01*
X151522240Y-79939202D01*
X151647495Y-79786579D01*
X151740580Y-79612430D01*
X151780455Y-79480978D01*
X151241116Y-79480978D01*
X151269493Y-79436822D01*
X151310000Y-79298867D01*
X151310000Y-79226977D01*
X152342247Y-79226977D01*
X152361612Y-79423587D01*
X152418898Y-79612430D01*
X152418958Y-79612628D01*
X152512084Y-79786856D01*
X152637411Y-79939567D01*
X152790122Y-80064894D01*
X152964350Y-80158020D01*
X153153397Y-80215367D01*
X153350000Y-80234731D01*
X153546603Y-80215367D01*
X153735650Y-80158020D01*
X153909878Y-80064894D01*
X154062589Y-79939567D01*
X154187916Y-79786856D01*
X154281042Y-79612628D01*
X154338389Y-79423581D01*
X154357753Y-79226978D01*
X154338389Y-79030375D01*
X154281042Y-78841328D01*
X154187916Y-78667100D01*
X154062589Y-78514389D01*
X153909878Y-78389062D01*
X153735650Y-78295936D01*
X153735649Y-78295935D01*
X153735648Y-78295935D01*
X153546609Y-78238590D01*
X153546604Y-78238589D01*
X153546603Y-78238589D01*
X153350000Y-78219225D01*
X153349999Y-78219225D01*
X153302657Y-78223887D01*
X153153397Y-78238589D01*
X153153395Y-78238589D01*
X153153390Y-78238590D01*
X152964351Y-78295935D01*
X152790121Y-78389062D01*
X152637413Y-78514387D01*
X152637409Y-78514391D01*
X152512084Y-78667099D01*
X152418957Y-78841329D01*
X152361612Y-79030368D01*
X152342247Y-79226977D01*
X151310000Y-79226977D01*
X151310000Y-79155089D01*
X151269493Y-79017134D01*
X151241116Y-78972978D01*
X151780455Y-78972978D01*
X151780455Y-78972977D01*
X151740580Y-78841525D01*
X151647495Y-78667376D01*
X151522240Y-78514753D01*
X151522224Y-78514737D01*
X151369601Y-78389482D01*
X151369602Y-78389482D01*
X151195458Y-78296400D01*
X151064000Y-78256522D01*
X151064000Y-78793303D01*
X150952315Y-78742298D01*
X150845763Y-78726978D01*
X150774237Y-78726978D01*
X150667685Y-78742298D01*
X150556000Y-78793303D01*
X150556000Y-78256522D01*
X150424541Y-78296400D01*
X150250398Y-78389482D01*
X150097775Y-78514737D01*
X150097759Y-78514753D01*
X149972504Y-78667376D01*
X149879419Y-78841525D01*
X149839544Y-78972977D01*
X149240455Y-78972977D01*
X149200580Y-78841525D01*
X149107495Y-78667376D01*
X148982240Y-78514753D01*
X148982224Y-78514737D01*
X148829601Y-78389482D01*
X148829602Y-78389482D01*
X148655458Y-78296400D01*
X148524000Y-78256522D01*
X148524000Y-78793303D01*
X148412315Y-78742298D01*
X148305763Y-78726978D01*
X148234237Y-78726978D01*
X148127685Y-78742298D01*
X148016000Y-78793303D01*
X148016000Y-78256522D01*
X147884541Y-78296400D01*
X147710398Y-78389482D01*
X147557775Y-78514737D01*
X147557759Y-78514753D01*
X147432504Y-78667376D01*
X147339419Y-78841525D01*
X147299544Y-78972977D01*
X146700977Y-78972977D01*
X146661042Y-78841328D01*
X146567916Y-78667100D01*
X146442589Y-78514389D01*
X146289878Y-78389062D01*
X146115650Y-78295936D01*
X146115649Y-78295935D01*
X146115648Y-78295935D01*
X145926609Y-78238590D01*
X145926604Y-78238589D01*
X145926603Y-78238589D01*
X145730000Y-78219225D01*
X145533397Y-78238589D01*
X145533395Y-78238589D01*
X145533390Y-78238590D01*
X145344351Y-78295935D01*
X145170121Y-78389062D01*
X145017413Y-78514387D01*
X145017409Y-78514391D01*
X144892084Y-78667099D01*
X144798957Y-78841329D01*
X144741612Y-79030368D01*
X144722247Y-79226978D01*
X144197753Y-79226978D01*
X144178389Y-79030375D01*
X144121042Y-78841328D01*
X144027916Y-78667100D01*
X143902589Y-78514389D01*
X143749878Y-78389062D01*
X143575650Y-78295936D01*
X143575649Y-78295935D01*
X143575648Y-78295935D01*
X143386609Y-78238590D01*
X143386604Y-78238589D01*
X143386603Y-78238589D01*
X143190000Y-78219225D01*
X142993397Y-78238589D01*
X142993395Y-78238589D01*
X142993390Y-78238590D01*
X142804351Y-78295935D01*
X142630121Y-78389062D01*
X142477413Y-78514387D01*
X142477409Y-78514391D01*
X142352084Y-78667099D01*
X142258957Y-78841329D01*
X142201612Y-79030368D01*
X142182247Y-79226978D01*
X141657753Y-79226978D01*
X141638389Y-79030375D01*
X141581042Y-78841328D01*
X141487916Y-78667100D01*
X141362589Y-78514389D01*
X141209878Y-78389062D01*
X141035650Y-78295936D01*
X141035649Y-78295935D01*
X141035648Y-78295935D01*
X140846609Y-78238590D01*
X140846604Y-78238589D01*
X140846603Y-78238589D01*
X140650000Y-78219225D01*
X140649999Y-78219225D01*
X140602657Y-78223887D01*
X140453397Y-78238589D01*
X140453395Y-78238589D01*
X140453390Y-78238590D01*
X140264351Y-78295935D01*
X140090121Y-78389062D01*
X139937413Y-78514387D01*
X139937409Y-78514391D01*
X139812084Y-78667099D01*
X139718957Y-78841329D01*
X139661612Y-79030368D01*
X139642247Y-79226978D01*
X135633468Y-79226978D01*
X143610600Y-74621378D01*
X145589884Y-74621378D01*
X145609115Y-74853475D01*
X145609116Y-74853481D01*
X145666286Y-75079239D01*
X145666289Y-75079247D01*
X145737987Y-75242700D01*
X145759840Y-75292520D01*
X145759844Y-75292526D01*
X145887215Y-75487484D01*
X145887216Y-75487486D01*
X145887220Y-75487490D01*
X146044954Y-75658835D01*
X146228740Y-75801881D01*
X146433563Y-75912726D01*
X146653837Y-75988346D01*
X146653839Y-75988346D01*
X146653841Y-75988347D01*
X146883550Y-76026679D01*
X146883554Y-76026679D01*
X147116450Y-76026679D01*
X147346158Y-75988347D01*
X147346158Y-75988346D01*
X147346163Y-75988346D01*
X147566437Y-75912726D01*
X147771260Y-75801881D01*
X147955046Y-75658835D01*
X148112780Y-75487490D01*
X148240160Y-75292520D01*
X148333712Y-75079243D01*
X148390884Y-74853476D01*
X148410116Y-74621379D01*
X148390884Y-74389282D01*
X148390883Y-74389276D01*
X148333713Y-74163518D01*
X148333710Y-74163510D01*
X148240164Y-73950248D01*
X148240160Y-73950238D01*
X148159435Y-73826679D01*
X148112784Y-73755273D01*
X148112783Y-73755271D01*
X147955050Y-73583927D01*
X147955048Y-73583926D01*
X147955046Y-73583923D01*
X147771260Y-73440877D01*
X147566437Y-73330032D01*
X147566433Y-73330030D01*
X147566430Y-73330029D01*
X147346167Y-73254413D01*
X147346158Y-73254410D01*
X147116450Y-73216079D01*
X147116446Y-73216079D01*
X146883554Y-73216079D01*
X146883550Y-73216079D01*
X146653841Y-73254410D01*
X146653832Y-73254413D01*
X146433569Y-73330029D01*
X146228740Y-73440877D01*
X146044949Y-73583927D01*
X145887216Y-73755271D01*
X145887215Y-73755273D01*
X145759844Y-73950231D01*
X145759835Y-73950248D01*
X145666289Y-74163510D01*
X145666286Y-74163518D01*
X145609116Y-74389276D01*
X145609115Y-74389282D01*
X145589884Y-74621378D01*
X143610600Y-74621378D01*
X146956050Y-72689881D01*
X147015263Y-72679441D01*
X147043946Y-72689881D01*
G37*
%TD.AperFunction*%
%TD*%
M02*
