M48
; DRILL file {KiCad 7.0.5} date Wed Jan 17 11:16:36 2024
; FORMAT={-:-/ absolute / inch / decimal}
; #@! TF.CreationDate,2024-01-17T11:16:36-05:00
; #@! TF.GenerationSoftware,Kicad,Pcbnew,7.0.5
; #@! TF.FileFunction,Plated,1,2,PTH
FMAT,2
INCH
; #@! TA.AperFunction,Plated,PTH,ViaDrill
T1C0.0130
; #@! TA.AperFunction,Plated,PTH,ViaDrill
T2C0.0157
; #@! TA.AperFunction,Plated,PTH,ViaDrill
T3C0.0200
; #@! TA.AperFunction,Plated,PTH,ComponentDrill
T4C0.0315
; #@! TA.AperFunction,Plated,PTH,ComponentDrill
T5C0.0394
%
G90
G05
T1
X5.1772Y-3.3071
X5.1772Y-3.4055
X5.1772Y-3.5827
X5.1772Y-4.1339
X5.2165Y-4.0551
X5.2559Y-4.1142
X5.315Y-4.1732
X5.3346Y-3.3071
X5.374Y-3.4449
X5.3937Y-3.3268
X5.4134Y-3.1299
X5.4134Y-3.248
X5.4331Y-4.3898
X5.5072Y-4.0377
X5.5118Y-3.3268
X5.5118Y-3.4449
X5.5238Y-3.8228
X5.6102Y-4.5079
X5.6403Y-3.7921
X5.6403Y-3.8344
X5.6403Y-4.1102
X5.6854Y-3.7926
X5.6858Y-3.8344
X5.7087Y-4.5079
X5.8465Y-3.3268
X5.8465Y-4.5079
X5.8661Y-3.4449
X5.9055Y-3.622
X5.9252Y-3.3268
X5.9449Y-4.5079
X6.0039Y-3.3268
X6.1024Y-3.8976
X6.1024Y-3.9764
X6.122Y-4.1142
X6.1614Y-4.2913
X6.1614Y-4.3898
X6.2008Y-3.8976
X6.2008Y-3.9764
X6.2008Y-4.0551
X6.2008Y-4.1142
X6.2146Y-3.7646
X6.2795Y-3.5039
X6.2795Y-3.5827
X6.3189Y-3.3465
X6.3189Y-3.5433
X6.378Y-3.937
X6.378Y-4.0354
X6.3976Y-3.2874
X6.3976Y-3.3858
X6.4173Y-4.2323
X6.437Y-3.4646
X6.4764Y-4.0354
X6.5157Y-3.4646
T2
X5.4473Y-3.5056
X5.4473Y-3.5725
X5.5346Y-3.6706
X5.5984Y-3.6871
X5.639Y-3.9729
X5.6935Y-3.6338
X5.7866Y-3.795
T3
X5.926Y-3.3898
X6.0522Y-3.7102
T4
X5.0583Y-3.724
X5.0583Y-3.8028
X5.0587Y-3.5236
X5.0587Y-3.6024
X5.2028Y-3.7165
X5.2028Y-3.7953
X5.2528Y-4.2611
X5.2528Y-3.2507
X5.321Y-4.3005
X5.321Y-3.2114
X6.2538Y-3.2114
X6.2549Y-4.2997
X6.322Y-3.2507
X6.3231Y-4.2604
X6.372Y-3.7165
X6.372Y-3.7953
T5
X5.5374Y-3.1192
X5.5374Y-3.2192
X5.5374Y-4.2931
X5.5374Y-4.3931
X5.6374Y-3.1192
X5.6374Y-3.2192
X5.6374Y-4.2931
X5.6374Y-4.3931
X5.7374Y-3.1192
X5.7374Y-3.2192
X5.7374Y-4.2931
X5.7374Y-4.3931
X5.8374Y-3.1192
X5.8374Y-3.2192
X5.8374Y-4.2931
X5.8374Y-4.3931
X5.9374Y-3.1192
X5.9374Y-3.2192
X5.9374Y-4.2931
X5.9374Y-4.3931
X6.0374Y-3.1192
X6.0374Y-3.2192
X6.0374Y-4.2931
X6.0374Y-4.3931
T0
M30
