%TF.GenerationSoftware,KiCad,Pcbnew,7.0.5*%
%TF.CreationDate,2024-01-17T11:16:35-05:00*%
%TF.ProjectId,PWR,5057522e-6b69-4636-9164-5f7063625858,rev?*%
%TF.SameCoordinates,Original*%
%TF.FileFunction,Soldermask,Bot*%
%TF.FilePolarity,Negative*%
%FSLAX46Y46*%
G04 Gerber Fmt 4.6, Leading zero omitted, Abs format (unit mm)*
G04 Created by KiCad (PCBNEW 7.0.5) date 2024-01-17 11:16:35*
%MOMM*%
%LPD*%
G01*
G04 APERTURE LIST*
G04 Aperture macros list*
%AMRoundRect*
0 Rectangle with rounded corners*
0 $1 Rounding radius*
0 $2 $3 $4 $5 $6 $7 $8 $9 X,Y pos of 4 corners*
0 Add a 4 corners polygon primitive as box body*
4,1,4,$2,$3,$4,$5,$6,$7,$8,$9,$2,$3,0*
0 Add four circle primitives for the rounded corners*
1,1,$1+$1,$2,$3*
1,1,$1+$1,$4,$5*
1,1,$1+$1,$6,$7*
1,1,$1+$1,$8,$9*
0 Add four rect primitives between the rounded corners*
20,1,$1+$1,$2,$3,$4,$5,0*
20,1,$1+$1,$4,$5,$6,$7,0*
20,1,$1+$1,$6,$7,$8,$9,0*
20,1,$1+$1,$8,$9,$2,$3,0*%
%AMHorizOval*
0 Thick line with rounded ends*
0 $1 width*
0 $2 $3 position (X,Y) of the first rounded end (center of the circle)*
0 $4 $5 position (X,Y) of the second rounded end (center of the circle)*
0 Add line between two ends*
20,1,$1,$2,$3,$4,$5,0*
0 Add two circle primitives to create the rounded ends*
1,1,$1,$2,$3*
1,1,$1,$4,$5*%
G04 Aperture macros list end*
%ADD10RoundRect,0.250000X-0.021891X0.737917X-0.628109X0.387917X0.021891X-0.737917X0.628109X-0.387917X0*%
%ADD11HorizOval,1.200000X-0.150000X0.259808X0.150000X-0.259808X0*%
%ADD12R,1.700000X1.700000*%
%ADD13O,1.700000X1.700000*%
%ADD14RoundRect,0.250000X-0.650000X0.350000X-0.650000X-0.350000X0.650000X-0.350000X0.650000X0.350000X0*%
%ADD15O,1.800000X1.200000*%
%ADD16RoundRect,0.250000X-0.628109X-0.387917X-0.021891X-0.737917X0.628109X0.387917X0.021891X0.737917X0*%
%ADD17HorizOval,1.200000X-0.150000X-0.259808X0.150000X0.259808X0*%
%ADD18RoundRect,0.250000X0.650000X-0.350000X0.650000X0.350000X-0.650000X0.350000X-0.650000X-0.350000X0*%
%ADD19RoundRect,0.250000X0.021891X-0.737917X0.628109X-0.387917X-0.021891X0.737917X-0.628109X0.387917X0*%
%ADD20RoundRect,0.250000X0.628109X0.387917X0.021891X0.737917X-0.628109X-0.387917X-0.021891X-0.737917X0*%
%ADD21HorizOval,1.200000X0.150000X0.259808X-0.150000X-0.259808X0*%
%ADD22R,1.350000X1.350000*%
%ADD23O,1.350000X1.350000*%
%ADD24RoundRect,0.237500X-0.237500X0.250000X-0.237500X-0.250000X0.237500X-0.250000X0.237500X0.250000X0*%
G04 APERTURE END LIST*
D10*
%TO.C,J4*%
X160607050Y-108212916D03*
D11*
X158874999Y-109212916D03*
%TD*%
D12*
%TO.C,J5*%
X140650000Y-81766978D03*
D13*
X140650000Y-79226978D03*
X143190000Y-81766978D03*
X143190000Y-79226978D03*
X145730000Y-81766978D03*
X145730000Y-79226978D03*
X148270000Y-81766978D03*
X148270000Y-79226978D03*
X150810000Y-81766978D03*
X150810000Y-79226978D03*
X153350000Y-81766978D03*
X153350000Y-79226978D03*
%TD*%
D14*
%TO.C,J8*%
X161850000Y-94400000D03*
D15*
X161850000Y-96400000D03*
%TD*%
D16*
%TO.C,J7*%
X158846475Y-81568542D03*
D17*
X160578526Y-82568542D03*
%TD*%
D18*
%TO.C,J10*%
X132150000Y-96400000D03*
D15*
X132150000Y-94400000D03*
%TD*%
D19*
%TO.C,J9*%
X133421475Y-82568542D03*
D11*
X135153526Y-81568542D03*
%TD*%
D12*
%TO.C,J6*%
X153350000Y-109045000D03*
D13*
X153350000Y-111585000D03*
X150810000Y-109045000D03*
X150810000Y-111585000D03*
X148270000Y-109045000D03*
X148270000Y-111585000D03*
X145730000Y-109045000D03*
X145730000Y-111585000D03*
X143190000Y-109045000D03*
X143190000Y-111585000D03*
X140650000Y-109045000D03*
X140650000Y-111585000D03*
%TD*%
D20*
%TO.C,J1*%
X135153525Y-109231458D03*
D21*
X133421474Y-108231458D03*
%TD*%
D22*
%TO.C,J2*%
X128490000Y-89500000D03*
D23*
X128490000Y-91500000D03*
%TD*%
D22*
%TO.C,J3*%
X128480000Y-94590000D03*
D23*
X128480000Y-96590000D03*
%TD*%
D24*
%TO.C,R2*%
X145770000Y-85147500D03*
X145770000Y-86972500D03*
%TD*%
M02*
