%TF.GenerationSoftware,KiCad,Pcbnew,7.0.5*%
%TF.CreationDate,2024-01-24T02:21:01-05:00*%
%TF.ProjectId,LORA_ADAPTER,4c4f5241-5f41-4444-9150-5445522e6b69,rev?*%
%TF.SameCoordinates,Original*%
%TF.FileFunction,Copper,L1,Top*%
%TF.FilePolarity,Positive*%
%FSLAX46Y46*%
G04 Gerber Fmt 4.6, Leading zero omitted, Abs format (unit mm)*
G04 Created by KiCad (PCBNEW 7.0.5) date 2024-01-24 02:21:01*
%MOMM*%
%LPD*%
G01*
G04 APERTURE LIST*
G04 Aperture macros list*
%AMRoundRect*
0 Rectangle with rounded corners*
0 $1 Rounding radius*
0 $2 $3 $4 $5 $6 $7 $8 $9 X,Y pos of 4 corners*
0 Add a 4 corners polygon primitive as box body*
4,1,4,$2,$3,$4,$5,$6,$7,$8,$9,$2,$3,0*
0 Add four circle primitives for the rounded corners*
1,1,$1+$1,$2,$3*
1,1,$1+$1,$4,$5*
1,1,$1+$1,$6,$7*
1,1,$1+$1,$8,$9*
0 Add four rect primitives between the rounded corners*
20,1,$1+$1,$2,$3,$4,$5,0*
20,1,$1+$1,$4,$5,$6,$7,0*
20,1,$1+$1,$6,$7,$8,$9,0*
20,1,$1+$1,$8,$9,$2,$3,0*%
G04 Aperture macros list end*
%TA.AperFunction,ComponentPad*%
%ADD10R,1.700000X1.700000*%
%TD*%
%TA.AperFunction,ComponentPad*%
%ADD11O,1.700000X1.700000*%
%TD*%
%TA.AperFunction,SMDPad,CuDef*%
%ADD12RoundRect,0.150000X0.625000X-0.150000X0.625000X0.150000X-0.625000X0.150000X-0.625000X-0.150000X0*%
%TD*%
%TA.AperFunction,SMDPad,CuDef*%
%ADD13RoundRect,0.250000X0.650000X-0.350000X0.650000X0.350000X-0.650000X0.350000X-0.650000X-0.350000X0*%
%TD*%
%TA.AperFunction,SMDPad,CuDef*%
%ADD14RoundRect,0.150000X-0.512500X-0.150000X0.512500X-0.150000X0.512500X0.150000X-0.512500X0.150000X0*%
%TD*%
%TA.AperFunction,SMDPad,CuDef*%
%ADD15RoundRect,0.160000X0.197500X0.160000X-0.197500X0.160000X-0.197500X-0.160000X0.197500X-0.160000X0*%
%TD*%
%TA.AperFunction,ComponentPad*%
%ADD16R,2.775000X2.775000*%
%TD*%
%TA.AperFunction,ComponentPad*%
%ADD17C,2.775000*%
%TD*%
%TA.AperFunction,SMDPad,CuDef*%
%ADD18RoundRect,0.155000X0.212500X0.155000X-0.212500X0.155000X-0.212500X-0.155000X0.212500X-0.155000X0*%
%TD*%
%TA.AperFunction,ViaPad*%
%ADD19C,0.660400*%
%TD*%
%TA.AperFunction,Conductor*%
%ADD20C,1.778000*%
%TD*%
%TA.AperFunction,Conductor*%
%ADD21C,0.152400*%
%TD*%
%TA.AperFunction,Conductor*%
%ADD22C,0.762000*%
%TD*%
%TA.AperFunction,Conductor*%
%ADD23C,0.635000*%
%TD*%
G04 APERTURE END LIST*
D10*
%TO.P,J4,1,Pin_1*%
%TO.N,Net-(J4-Pin_1)*%
X132660000Y-101273621D03*
D11*
%TO.P,J4,2,Pin_2*%
%TO.N,Net-(J4-Pin_2)*%
X132660000Y-98733621D03*
%TD*%
D12*
%TO.P,J3,1,1*%
%TO.N,GND*%
X149510000Y-102604610D03*
%TO.P,J3,2,2*%
%TO.N,/MISO*%
X149510000Y-101604610D03*
%TO.P,J3,3,3*%
%TO.N,/SCK*%
X149510000Y-100604610D03*
%TO.P,J3,4,4*%
%TO.N,/MOSI*%
X149510000Y-99604610D03*
%TO.P,J3,5,5*%
%TO.N,/LoRa_CS*%
X149510000Y-98604610D03*
%TO.P,J3,6,6*%
%TO.N,+3V3*%
X149510000Y-97604610D03*
D13*
%TO.P,J3,MP,MP*%
%TO.N,GND*%
X153385000Y-103904610D03*
X153385000Y-96304610D03*
%TD*%
D14*
%TO.P,U9,1,VIN*%
%TO.N,/VBAT*%
X145422500Y-91148621D03*
%TO.P,U9,2,GND*%
%TO.N,GND*%
X145422500Y-92098621D03*
%TO.P,U9,3,EN*%
%TO.N,/A3*%
X145422500Y-93048621D03*
%TO.P,U9,4,NC*%
%TO.N,unconnected-(U9-NC-Pad4)*%
X147697500Y-93048621D03*
%TO.P,U9,5,VOUT*%
%TO.N,+3V3*%
X147697500Y-91148621D03*
%TD*%
D10*
%TO.P,J1,1,Pin_1*%
%TO.N,/VBAT*%
X143810000Y-86465599D03*
D11*
%TO.P,J1,2,Pin_2*%
%TO.N,/D8*%
X143810000Y-83925599D03*
%TO.P,J1,3,Pin_3*%
%TO.N,/A5*%
X146350000Y-86465599D03*
%TO.P,J1,4,Pin_4*%
%TO.N,/A3*%
X146350000Y-83925599D03*
%TO.P,J1,5,Pin_5*%
%TO.N,+5V*%
X148890000Y-86465599D03*
%TO.P,J1,6,Pin_6*%
%TO.N,/A2*%
X148890000Y-83925599D03*
%TO.P,J1,7,Pin_7*%
%TO.N,/LoRa_CS*%
X151430000Y-86465599D03*
%TO.P,J1,8,Pin_8*%
%TO.N,GND*%
X151430000Y-83925599D03*
%TO.P,J1,9,Pin_9*%
%TO.N,/BURN_EN*%
X153970000Y-86465599D03*
%TO.P,J1,10,Pin_10*%
%TO.N,GND*%
X153970000Y-83925599D03*
%TO.P,J1,11,Pin_11*%
%TO.N,/SDA*%
X156510000Y-86465599D03*
%TO.P,J1,12,Pin_12*%
%TO.N,/SCL*%
X156510000Y-83925599D03*
%TD*%
D15*
%TO.P,R1,1*%
%TO.N,/A3*%
X145432500Y-94398621D03*
%TO.P,R1,2*%
%TO.N,GND*%
X144237500Y-94398621D03*
%TD*%
D10*
%TO.P,J2,1,Pin_1*%
%TO.N,/D12*%
X156510000Y-113743621D03*
D11*
%TO.P,J2,2,Pin_2*%
%TO.N,/D10*%
X156510000Y-116283621D03*
%TO.P,J2,3,Pin_3*%
%TO.N,/MOSI*%
X153970000Y-113743621D03*
%TO.P,J2,4,Pin_4*%
%TO.N,/D1*%
X153970000Y-116283621D03*
%TO.P,J2,5,Pin_5*%
%TO.N,/SCK*%
X151430000Y-113743621D03*
%TO.P,J2,6,Pin_6*%
%TO.N,/D3*%
X151430000Y-116283621D03*
%TO.P,J2,7,Pin_7*%
%TO.N,/D2*%
X148890000Y-113743621D03*
%TO.P,J2,8,Pin_8*%
%TO.N,/A4*%
X148890000Y-116283621D03*
%TO.P,J2,9,Pin_9*%
%TO.N,/MISO*%
X146350000Y-113743621D03*
%TO.P,J2,10,Pin_10*%
%TO.N,GND*%
X146350000Y-116283621D03*
%TO.P,J2,11,Pin_11*%
%TO.N,/BAT_BR*%
X143810000Y-113743621D03*
%TO.P,J2,12,Pin_12*%
%TO.N,GND*%
X143810000Y-116283621D03*
%TD*%
D16*
%TO.P,S1,1*%
%TO.N,Net-(J4-Pin_1)*%
X138210000Y-104404610D03*
D17*
%TO.P,S1,2*%
%TO.N,Net-(J4-Pin_2)*%
X138210000Y-99704610D03*
%TO.P,S1,3*%
%TO.N,unconnected-(S1-Pad3)*%
X138210000Y-95004610D03*
%TD*%
D18*
%TO.P,C9,1*%
%TO.N,/VBAT*%
X143827500Y-91198621D03*
%TO.P,C9,2*%
%TO.N,GND*%
X142692500Y-91198621D03*
%TD*%
D19*
%TO.N,GND*%
X162660000Y-110698621D03*
X160160000Y-110698621D03*
X137660000Y-90698621D03*
X160160000Y-113198621D03*
X132660000Y-108198621D03*
X160160000Y-103198621D03*
X152160000Y-118198621D03*
X165160000Y-105698621D03*
X160160000Y-88198621D03*
X142660000Y-108198621D03*
X157660000Y-110698621D03*
X165160000Y-88198621D03*
X150160000Y-82198621D03*
X147660000Y-98198621D03*
X167660000Y-93198621D03*
X132660000Y-93198621D03*
X145160000Y-98198621D03*
X157660000Y-90698621D03*
X167660000Y-98198621D03*
X142660000Y-103198621D03*
X157660000Y-103198621D03*
X157660000Y-100698621D03*
X137660000Y-110698621D03*
X165160000Y-98198621D03*
X140160000Y-90698621D03*
X153160000Y-108198621D03*
X135160000Y-88198621D03*
X140160000Y-110698621D03*
X165160000Y-95698621D03*
X160160000Y-115698621D03*
X135160000Y-90698621D03*
X142660000Y-105698621D03*
X142660000Y-110698621D03*
X160160000Y-90698621D03*
X145160000Y-105698621D03*
X165160000Y-103198621D03*
X154160000Y-80198621D03*
X146160000Y-82198621D03*
X165160000Y-110698621D03*
X146160000Y-80198621D03*
X160160000Y-98198621D03*
X147660000Y-95698621D03*
X140160000Y-115698621D03*
X146160000Y-118198621D03*
X156160000Y-82198621D03*
X157660000Y-93198621D03*
X148160000Y-108198621D03*
X162660000Y-105698621D03*
X155160000Y-90698621D03*
X142660000Y-98198621D03*
X145160000Y-100698621D03*
X160160000Y-95698621D03*
X154160000Y-82198621D03*
X140160000Y-113198621D03*
X160160000Y-100698621D03*
X157660000Y-108198621D03*
X154160000Y-119698621D03*
X162660000Y-100698621D03*
X162660000Y-103198621D03*
X154160000Y-118198621D03*
X153160000Y-106198621D03*
X142660000Y-95698621D03*
X152660000Y-90698621D03*
X162660000Y-108198621D03*
X150160000Y-110198621D03*
X148160000Y-82198621D03*
X165160000Y-93198621D03*
X157660000Y-105698621D03*
X145160000Y-103198621D03*
X162660000Y-95698621D03*
X157660000Y-98198621D03*
X167660000Y-100698621D03*
X162660000Y-93198621D03*
X155160000Y-106198621D03*
X137660000Y-113198621D03*
X135160000Y-113198621D03*
X148160000Y-110198621D03*
X167660000Y-95698621D03*
X142660000Y-100698621D03*
X145160000Y-108198621D03*
X148160000Y-106198621D03*
X140160000Y-88198621D03*
X160160000Y-108198621D03*
X157660000Y-95698621D03*
X144160000Y-82198621D03*
X148160000Y-118198621D03*
X156160000Y-118198621D03*
X162660000Y-85698621D03*
X165160000Y-108198621D03*
X135160000Y-110698621D03*
X155160000Y-108198621D03*
X137660000Y-88198621D03*
X146160000Y-119698621D03*
X150160000Y-106198621D03*
X162660000Y-90698621D03*
X160160000Y-85698621D03*
X162660000Y-98198621D03*
X165160000Y-90698621D03*
X155160000Y-93198621D03*
X165160000Y-100698621D03*
X160160000Y-93198621D03*
X152160000Y-82198621D03*
X150160000Y-118198621D03*
X162660000Y-88198621D03*
X144160000Y-118198621D03*
X152660000Y-93198621D03*
X150160000Y-108198621D03*
X132660000Y-105698621D03*
X145160000Y-110698621D03*
X153160000Y-110198621D03*
X167660000Y-103198621D03*
X167660000Y-105698621D03*
X155160000Y-110198621D03*
X160160000Y-105698621D03*
%TD*%
D20*
%TO.N,Net-(J4-Pin_1)*%
X135079011Y-101273621D02*
X138210000Y-104404610D01*
X132660000Y-101273621D02*
X135079011Y-101273621D01*
%TO.N,Net-(J4-Pin_2)*%
X137239011Y-98733621D02*
X138210000Y-99704610D01*
X132660000Y-98733621D02*
X137239011Y-98733621D01*
D21*
%TO.N,/LoRa_CS*%
X150529011Y-98604610D02*
X149510000Y-98604610D01*
X151430000Y-86465599D02*
X151430000Y-97703621D01*
X151430000Y-97703621D02*
X150529011Y-98604610D01*
D22*
%TO.N,/VBAT*%
X143827500Y-91198621D02*
X145372500Y-91198621D01*
X143810000Y-86465599D02*
X143810000Y-91181121D01*
X143810000Y-91181121D02*
X143827500Y-91198621D01*
D23*
%TO.N,+3V3*%
X149510000Y-97604610D02*
X149510000Y-92248621D01*
X148410000Y-91148621D02*
X147697500Y-91148621D01*
X149510000Y-92248621D02*
X148410000Y-91148621D01*
D21*
%TO.N,/A3*%
X147635000Y-85210599D02*
X146350000Y-83925599D01*
X145432500Y-94398621D02*
X145432500Y-93058621D01*
X147635000Y-87598621D02*
X147635000Y-85210599D01*
X145422500Y-93048621D02*
X146060000Y-93048621D01*
X146060000Y-93048621D02*
X146585000Y-92523621D01*
X146585000Y-92523621D02*
X146585000Y-88648621D01*
X145432500Y-93058621D02*
X145422500Y-93048621D01*
X146585000Y-88648621D02*
X147635000Y-87598621D01*
%TO.N,/MOSI*%
X152050000Y-100738621D02*
X152050000Y-111823621D01*
X152050000Y-111823621D02*
X153970000Y-113743621D01*
X150915989Y-99604610D02*
X152050000Y-100738621D01*
X149510000Y-99604610D02*
X150915989Y-99604610D01*
%TO.N,/SCK*%
X151430000Y-113743621D02*
X151430000Y-101143621D01*
X150890989Y-100604610D02*
X149510000Y-100604610D01*
X151430000Y-101143621D02*
X150890989Y-100604610D01*
%TO.N,/MISO*%
X146350000Y-103633621D02*
X146350000Y-113743621D01*
X148379011Y-101604610D02*
X146350000Y-103633621D01*
X149510000Y-101604610D02*
X148379011Y-101604610D01*
%TD*%
%TA.AperFunction,Conductor*%
%TO.N,GND*%
G36*
X150203946Y-77388502D02*
G01*
X169810750Y-88708494D01*
X169849399Y-88754554D01*
X169854700Y-88784618D01*
X169854700Y-111424599D01*
X169834135Y-111481100D01*
X169810750Y-111500723D01*
X150203949Y-122820715D01*
X150144735Y-122831156D01*
X150116049Y-122820715D01*
X149138254Y-122256185D01*
X146770601Y-120889220D01*
X148749884Y-120889220D01*
X148769115Y-121121316D01*
X148769116Y-121121322D01*
X148826286Y-121347080D01*
X148826289Y-121347088D01*
X148897987Y-121510541D01*
X148919840Y-121560361D01*
X148919844Y-121560367D01*
X149047215Y-121755325D01*
X149047216Y-121755327D01*
X149047220Y-121755331D01*
X149204954Y-121926676D01*
X149388740Y-122069722D01*
X149593563Y-122180567D01*
X149813837Y-122256187D01*
X149813839Y-122256187D01*
X149813841Y-122256188D01*
X150043550Y-122294520D01*
X150043554Y-122294520D01*
X150276450Y-122294520D01*
X150506158Y-122256188D01*
X150506158Y-122256187D01*
X150506163Y-122256187D01*
X150726437Y-122180567D01*
X150931260Y-122069722D01*
X151115046Y-121926676D01*
X151272780Y-121755331D01*
X151400160Y-121560361D01*
X151493712Y-121347084D01*
X151550884Y-121121317D01*
X151570116Y-120889220D01*
X151550884Y-120657123D01*
X151550883Y-120657117D01*
X151493713Y-120431359D01*
X151493710Y-120431351D01*
X151400164Y-120218089D01*
X151400160Y-120218079D01*
X151319435Y-120094520D01*
X151272784Y-120023114D01*
X151272783Y-120023112D01*
X151115050Y-119851768D01*
X151115048Y-119851767D01*
X151115046Y-119851764D01*
X150931260Y-119708718D01*
X150726437Y-119597873D01*
X150726433Y-119597871D01*
X150726430Y-119597870D01*
X150506167Y-119522254D01*
X150506158Y-119522251D01*
X150276450Y-119483920D01*
X150276446Y-119483920D01*
X150043554Y-119483920D01*
X150043550Y-119483920D01*
X149813841Y-119522251D01*
X149813832Y-119522254D01*
X149593569Y-119597870D01*
X149388740Y-119708718D01*
X149204949Y-119851768D01*
X149047216Y-120023112D01*
X149047215Y-120023114D01*
X148919844Y-120218072D01*
X148919835Y-120218089D01*
X148826289Y-120431351D01*
X148826286Y-120431359D01*
X148769116Y-120657117D01*
X148769115Y-120657123D01*
X148749884Y-120889220D01*
X146770601Y-120889220D01*
X138353527Y-116029620D01*
X142813001Y-116029620D01*
X142813002Y-116029621D01*
X143378884Y-116029621D01*
X143350507Y-116073777D01*
X143310000Y-116211732D01*
X143310000Y-116355510D01*
X143350507Y-116493465D01*
X143378884Y-116537621D01*
X142813002Y-116537621D01*
X142855840Y-116678841D01*
X142855840Y-116678843D01*
X142951281Y-116857399D01*
X143079717Y-117013899D01*
X143079721Y-117013903D01*
X143236221Y-117142339D01*
X143414778Y-117237780D01*
X143555999Y-117280619D01*
X143556000Y-117280619D01*
X143556000Y-116717295D01*
X143667685Y-116768301D01*
X143774237Y-116783621D01*
X143845763Y-116783621D01*
X143952315Y-116768301D01*
X144064000Y-116717295D01*
X144064000Y-117280619D01*
X144205220Y-117237780D01*
X144205222Y-117237780D01*
X144383778Y-117142339D01*
X144540278Y-117013903D01*
X144540282Y-117013899D01*
X144668718Y-116857399D01*
X144764159Y-116678843D01*
X144764159Y-116678841D01*
X144806998Y-116537621D01*
X144241116Y-116537621D01*
X144269493Y-116493465D01*
X144310000Y-116355510D01*
X144310000Y-116211732D01*
X144269493Y-116073777D01*
X144241116Y-116029621D01*
X144806998Y-116029621D01*
X144806998Y-116029620D01*
X145353001Y-116029620D01*
X145353002Y-116029621D01*
X145918884Y-116029621D01*
X145890507Y-116073777D01*
X145850000Y-116211732D01*
X145850000Y-116355510D01*
X145890507Y-116493465D01*
X145918884Y-116537621D01*
X145353002Y-116537621D01*
X145395840Y-116678841D01*
X145395840Y-116678843D01*
X145491281Y-116857399D01*
X145619717Y-117013899D01*
X145619721Y-117013903D01*
X145776221Y-117142339D01*
X145954778Y-117237780D01*
X146095999Y-117280619D01*
X146096000Y-117280618D01*
X146096000Y-116717295D01*
X146207685Y-116768301D01*
X146314237Y-116783621D01*
X146385763Y-116783621D01*
X146492315Y-116768301D01*
X146604000Y-116717295D01*
X146604000Y-117280619D01*
X146745220Y-117237780D01*
X146745222Y-117237780D01*
X146923778Y-117142339D01*
X147080278Y-117013903D01*
X147080282Y-117013899D01*
X147208718Y-116857399D01*
X147304159Y-116678843D01*
X147304159Y-116678841D01*
X147346998Y-116537621D01*
X146781116Y-116537621D01*
X146809493Y-116493465D01*
X146850000Y-116355510D01*
X146850000Y-116283621D01*
X147882247Y-116283621D01*
X147901612Y-116480230D01*
X147958957Y-116669269D01*
X147958958Y-116669271D01*
X148052084Y-116843499D01*
X148177411Y-116996210D01*
X148330122Y-117121537D01*
X148504350Y-117214663D01*
X148693397Y-117272010D01*
X148890000Y-117291374D01*
X149086603Y-117272010D01*
X149275650Y-117214663D01*
X149449878Y-117121537D01*
X149602589Y-116996210D01*
X149727916Y-116843499D01*
X149821042Y-116669271D01*
X149878389Y-116480224D01*
X149897753Y-116283621D01*
X150422247Y-116283621D01*
X150441612Y-116480230D01*
X150498957Y-116669269D01*
X150498958Y-116669271D01*
X150592084Y-116843499D01*
X150717411Y-116996210D01*
X150870122Y-117121537D01*
X151044350Y-117214663D01*
X151233397Y-117272010D01*
X151430000Y-117291374D01*
X151626603Y-117272010D01*
X151815650Y-117214663D01*
X151989878Y-117121537D01*
X152142589Y-116996210D01*
X152267916Y-116843499D01*
X152361042Y-116669271D01*
X152418389Y-116480224D01*
X152437753Y-116283621D01*
X152962247Y-116283621D01*
X152981612Y-116480230D01*
X153038957Y-116669269D01*
X153038958Y-116669271D01*
X153132084Y-116843499D01*
X153257411Y-116996210D01*
X153410122Y-117121537D01*
X153584350Y-117214663D01*
X153773397Y-117272010D01*
X153970000Y-117291374D01*
X154166603Y-117272010D01*
X154355650Y-117214663D01*
X154529878Y-117121537D01*
X154682589Y-116996210D01*
X154807916Y-116843499D01*
X154901042Y-116669271D01*
X154958389Y-116480224D01*
X154977753Y-116283621D01*
X155502247Y-116283621D01*
X155521612Y-116480230D01*
X155578957Y-116669269D01*
X155578958Y-116669271D01*
X155672084Y-116843499D01*
X155797411Y-116996210D01*
X155950122Y-117121537D01*
X156124350Y-117214663D01*
X156313397Y-117272010D01*
X156510000Y-117291374D01*
X156706603Y-117272010D01*
X156895650Y-117214663D01*
X157069878Y-117121537D01*
X157222589Y-116996210D01*
X157347916Y-116843499D01*
X157441042Y-116669271D01*
X157498389Y-116480224D01*
X157517753Y-116283621D01*
X157498389Y-116087018D01*
X157441042Y-115897971D01*
X157347916Y-115723743D01*
X157222589Y-115571032D01*
X157069878Y-115445705D01*
X156895650Y-115352579D01*
X156895649Y-115352578D01*
X156895648Y-115352578D01*
X156706609Y-115295233D01*
X156706604Y-115295232D01*
X156706603Y-115295232D01*
X156510000Y-115275868D01*
X156509999Y-115275868D01*
X156462657Y-115280530D01*
X156313397Y-115295232D01*
X156313395Y-115295232D01*
X156313390Y-115295233D01*
X156124351Y-115352578D01*
X155950121Y-115445705D01*
X155797413Y-115571030D01*
X155797409Y-115571034D01*
X155672084Y-115723742D01*
X155578957Y-115897972D01*
X155521612Y-116087011D01*
X155502247Y-116283621D01*
X154977753Y-116283621D01*
X154958389Y-116087018D01*
X154901042Y-115897971D01*
X154807916Y-115723743D01*
X154682589Y-115571032D01*
X154529878Y-115445705D01*
X154355650Y-115352579D01*
X154355649Y-115352578D01*
X154355648Y-115352578D01*
X154166609Y-115295233D01*
X154166604Y-115295232D01*
X154166603Y-115295232D01*
X153970000Y-115275868D01*
X153773397Y-115295232D01*
X153773395Y-115295232D01*
X153773390Y-115295233D01*
X153584351Y-115352578D01*
X153410121Y-115445705D01*
X153257413Y-115571030D01*
X153257409Y-115571034D01*
X153132084Y-115723742D01*
X153038957Y-115897972D01*
X152981612Y-116087011D01*
X152962247Y-116283621D01*
X152437753Y-116283621D01*
X152418389Y-116087018D01*
X152361042Y-115897971D01*
X152267916Y-115723743D01*
X152142589Y-115571032D01*
X151989878Y-115445705D01*
X151815650Y-115352579D01*
X151815649Y-115352578D01*
X151815648Y-115352578D01*
X151626609Y-115295233D01*
X151626604Y-115295232D01*
X151626603Y-115295232D01*
X151430000Y-115275868D01*
X151429999Y-115275868D01*
X151382657Y-115280530D01*
X151233397Y-115295232D01*
X151233395Y-115295232D01*
X151233390Y-115295233D01*
X151044351Y-115352578D01*
X150870121Y-115445705D01*
X150717413Y-115571030D01*
X150717409Y-115571034D01*
X150592084Y-115723742D01*
X150498957Y-115897972D01*
X150441612Y-116087011D01*
X150422247Y-116283621D01*
X149897753Y-116283621D01*
X149878389Y-116087018D01*
X149821042Y-115897971D01*
X149727916Y-115723743D01*
X149602589Y-115571032D01*
X149449878Y-115445705D01*
X149275650Y-115352579D01*
X149275649Y-115352578D01*
X149275648Y-115352578D01*
X149086609Y-115295233D01*
X149086604Y-115295232D01*
X149086603Y-115295232D01*
X148890000Y-115275868D01*
X148889999Y-115275868D01*
X148842657Y-115280530D01*
X148693397Y-115295232D01*
X148693395Y-115295232D01*
X148693390Y-115295233D01*
X148504351Y-115352578D01*
X148330121Y-115445705D01*
X148177413Y-115571030D01*
X148177409Y-115571034D01*
X148052084Y-115723742D01*
X147958957Y-115897972D01*
X147901612Y-116087011D01*
X147882247Y-116283621D01*
X146850000Y-116283621D01*
X146850000Y-116211732D01*
X146809493Y-116073777D01*
X146781116Y-116029621D01*
X147346998Y-116029621D01*
X147346998Y-116029620D01*
X147304159Y-115888400D01*
X147304159Y-115888398D01*
X147208718Y-115709842D01*
X147080282Y-115553342D01*
X147080278Y-115553338D01*
X146923778Y-115424902D01*
X146745225Y-115329463D01*
X146604000Y-115286622D01*
X146604000Y-115849946D01*
X146492315Y-115798941D01*
X146385763Y-115783621D01*
X146314237Y-115783621D01*
X146207685Y-115798941D01*
X146096000Y-115849946D01*
X146096000Y-115286622D01*
X145954774Y-115329463D01*
X145776221Y-115424902D01*
X145619721Y-115553338D01*
X145619717Y-115553342D01*
X145491281Y-115709842D01*
X145395840Y-115888398D01*
X145395840Y-115888400D01*
X145353001Y-116029620D01*
X144806998Y-116029620D01*
X144764159Y-115888400D01*
X144764159Y-115888398D01*
X144668718Y-115709842D01*
X144540282Y-115553342D01*
X144540278Y-115553338D01*
X144383778Y-115424902D01*
X144205225Y-115329463D01*
X144064000Y-115286622D01*
X144064000Y-115849946D01*
X143952315Y-115798941D01*
X143845763Y-115783621D01*
X143774237Y-115783621D01*
X143667685Y-115798941D01*
X143556000Y-115849946D01*
X143556000Y-115286622D01*
X143414774Y-115329463D01*
X143236221Y-115424902D01*
X143079721Y-115553338D01*
X143079717Y-115553342D01*
X142951281Y-115709842D01*
X142855840Y-115888398D01*
X142855840Y-115888400D01*
X142813001Y-116029620D01*
X138353527Y-116029620D01*
X134394061Y-113743621D01*
X142802247Y-113743621D01*
X142821612Y-113940230D01*
X142870186Y-114100355D01*
X142878958Y-114129271D01*
X142972084Y-114303499D01*
X143097411Y-114456210D01*
X143250122Y-114581537D01*
X143424350Y-114674663D01*
X143613397Y-114732010D01*
X143810000Y-114751374D01*
X144006603Y-114732010D01*
X144195650Y-114674663D01*
X144369878Y-114581537D01*
X144522589Y-114456210D01*
X144647916Y-114303499D01*
X144741042Y-114129271D01*
X144798389Y-113940224D01*
X144817753Y-113743621D01*
X144798389Y-113547018D01*
X144741042Y-113357971D01*
X144647916Y-113183743D01*
X144522589Y-113031032D01*
X144369878Y-112905705D01*
X144195650Y-112812579D01*
X144195649Y-112812578D01*
X144195648Y-112812578D01*
X144006609Y-112755233D01*
X144006604Y-112755232D01*
X144006603Y-112755232D01*
X143810000Y-112735868D01*
X143613397Y-112755232D01*
X143613395Y-112755232D01*
X143613390Y-112755233D01*
X143424351Y-112812578D01*
X143250121Y-112905705D01*
X143097413Y-113031030D01*
X143097409Y-113031034D01*
X142972084Y-113183742D01*
X142878957Y-113357972D01*
X142821612Y-113547011D01*
X142802247Y-113743621D01*
X134394061Y-113743621D01*
X130509248Y-111500723D01*
X130470600Y-111454664D01*
X130465300Y-111424605D01*
X130465300Y-110496915D01*
X130749884Y-110496915D01*
X130769115Y-110729011D01*
X130769116Y-110729017D01*
X130826286Y-110954775D01*
X130826289Y-110954783D01*
X130897987Y-111118236D01*
X130919840Y-111168056D01*
X130919844Y-111168062D01*
X131047215Y-111363020D01*
X131047216Y-111363022D01*
X131173979Y-111500724D01*
X131204954Y-111534371D01*
X131388740Y-111677417D01*
X131593563Y-111788262D01*
X131813837Y-111863882D01*
X131813839Y-111863882D01*
X131813841Y-111863883D01*
X132043550Y-111902215D01*
X132043554Y-111902215D01*
X132276450Y-111902215D01*
X132506158Y-111863883D01*
X132506158Y-111863882D01*
X132506163Y-111863882D01*
X132726437Y-111788262D01*
X132931260Y-111677417D01*
X133115046Y-111534371D01*
X133272780Y-111363026D01*
X133400160Y-111168056D01*
X133493712Y-110954779D01*
X133550884Y-110729012D01*
X133570116Y-110496915D01*
X133550884Y-110264818D01*
X133550883Y-110264812D01*
X133493713Y-110039054D01*
X133493710Y-110039046D01*
X133400164Y-109825784D01*
X133400160Y-109825774D01*
X133319435Y-109702215D01*
X133272784Y-109630809D01*
X133272783Y-109630807D01*
X133115050Y-109459463D01*
X133115048Y-109459462D01*
X133115046Y-109459459D01*
X132931260Y-109316413D01*
X132726437Y-109205568D01*
X132726433Y-109205566D01*
X132726430Y-109205565D01*
X132506167Y-109129949D01*
X132506158Y-109129946D01*
X132276450Y-109091615D01*
X132276446Y-109091615D01*
X132043554Y-109091615D01*
X132043550Y-109091615D01*
X131813841Y-109129946D01*
X131813832Y-109129949D01*
X131593569Y-109205565D01*
X131388740Y-109316413D01*
X131204949Y-109459463D01*
X131047216Y-109630807D01*
X131047215Y-109630809D01*
X130919844Y-109825767D01*
X130919835Y-109825784D01*
X130826289Y-110039046D01*
X130826286Y-110039054D01*
X130769116Y-110264812D01*
X130769115Y-110264818D01*
X130749884Y-110496915D01*
X130465300Y-110496915D01*
X130465300Y-101273621D01*
X131613059Y-101273621D01*
X131633176Y-101477870D01*
X131633178Y-101477877D01*
X131653315Y-101544259D01*
X131657100Y-101569775D01*
X131657100Y-102138679D01*
X131663544Y-102171072D01*
X131665972Y-102183279D01*
X131699766Y-102233855D01*
X131716701Y-102245171D01*
X131750341Y-102267649D01*
X131757741Y-102269120D01*
X131794943Y-102276521D01*
X132363844Y-102276520D01*
X132389360Y-102280305D01*
X132420304Y-102289691D01*
X132455752Y-102300445D01*
X132608819Y-102315521D01*
X134611032Y-102315521D01*
X134667533Y-102336086D01*
X134673187Y-102341266D01*
X136643855Y-104311934D01*
X136669266Y-104366428D01*
X136669600Y-104374089D01*
X136669600Y-105807168D01*
X136678472Y-105851768D01*
X136712266Y-105902344D01*
X136729201Y-105913660D01*
X136762841Y-105936138D01*
X136770241Y-105937609D01*
X136807443Y-105945010D01*
X139612556Y-105945009D01*
X139612558Y-105945009D01*
X139625250Y-105942484D01*
X139657158Y-105936138D01*
X139707734Y-105902344D01*
X139741528Y-105851768D01*
X139750400Y-105807167D01*
X139750399Y-103002054D01*
X139750399Y-103002051D01*
X139746611Y-102983012D01*
X139741528Y-102957452D01*
X139707734Y-102906876D01*
X139707502Y-102906721D01*
X139657158Y-102873081D01*
X139619956Y-102865681D01*
X139612557Y-102864210D01*
X139612556Y-102864210D01*
X138179479Y-102864210D01*
X138122978Y-102843645D01*
X138117324Y-102838465D01*
X135853462Y-100574602D01*
X135850564Y-100571404D01*
X135819312Y-100533325D01*
X135819310Y-100533322D01*
X135660660Y-100403121D01*
X135479658Y-100306374D01*
X135479657Y-100306373D01*
X135479656Y-100306373D01*
X135413348Y-100286259D01*
X135283266Y-100246798D01*
X135283261Y-100246797D01*
X135283260Y-100246797D01*
X135079011Y-100226680D01*
X135079010Y-100226680D01*
X135029976Y-100231509D01*
X135025666Y-100231721D01*
X132608819Y-100231721D01*
X132494018Y-100243028D01*
X132455750Y-100246797D01*
X132455740Y-100246799D01*
X132389359Y-100266936D01*
X132363844Y-100270721D01*
X131794941Y-100270721D01*
X131750341Y-100279593D01*
X131699767Y-100313386D01*
X131699764Y-100313389D01*
X131665971Y-100363962D01*
X131657100Y-100408564D01*
X131657100Y-100977466D01*
X131653315Y-101002982D01*
X131633178Y-101069364D01*
X131633176Y-101069371D01*
X131613059Y-101273621D01*
X130465300Y-101273621D01*
X130465300Y-98733621D01*
X131613059Y-98733621D01*
X131632278Y-98928755D01*
X131633177Y-98937875D01*
X131692752Y-99134266D01*
X131692753Y-99134268D01*
X131789500Y-99315270D01*
X131919701Y-99473920D01*
X132078351Y-99604121D01*
X132259353Y-99700868D01*
X132455752Y-99760445D01*
X132608819Y-99775521D01*
X136589164Y-99775521D01*
X136645665Y-99796086D01*
X136675729Y-99848157D01*
X136676793Y-99856524D01*
X136683861Y-99946328D01*
X136683862Y-99946335D01*
X136740462Y-100182092D01*
X136791942Y-100306373D01*
X136832016Y-100403121D01*
X136833249Y-100406096D01*
X136833254Y-100406106D01*
X136959937Y-100612834D01*
X137117400Y-100797200D01*
X137117409Y-100797209D01*
X137202551Y-100869927D01*
X137301776Y-100954673D01*
X137508511Y-101081360D01*
X137657849Y-101143218D01*
X137732517Y-101174147D01*
X137968274Y-101230747D01*
X137968275Y-101230747D01*
X137968283Y-101230749D01*
X138210000Y-101249773D01*
X138451717Y-101230749D01*
X138687482Y-101174147D01*
X138911489Y-101081360D01*
X139118224Y-100954673D01*
X139302595Y-100797205D01*
X139460063Y-100612834D01*
X139586750Y-100406099D01*
X139679537Y-100182092D01*
X139736139Y-99946327D01*
X139755163Y-99704610D01*
X139754868Y-99700868D01*
X139747254Y-99604120D01*
X139736139Y-99462893D01*
X139724671Y-99415124D01*
X139679537Y-99227127D01*
X139612727Y-99065835D01*
X139586750Y-99003121D01*
X139460063Y-98796386D01*
X139406457Y-98733621D01*
X139302599Y-98612019D01*
X139302590Y-98612010D01*
X139118224Y-98454547D01*
X138911496Y-98327864D01*
X138911493Y-98327862D01*
X138911489Y-98327860D01*
X138810974Y-98286225D01*
X138687482Y-98235072D01*
X138451725Y-98178472D01*
X138451718Y-98178471D01*
X138210000Y-98159447D01*
X138209998Y-98159447D01*
X138183933Y-98161498D01*
X138125993Y-98145429D01*
X138114883Y-98136024D01*
X138013462Y-98034602D01*
X138010564Y-98031404D01*
X137979312Y-97993325D01*
X137979310Y-97993322D01*
X137820660Y-97863121D01*
X137749638Y-97825159D01*
X137639662Y-97766376D01*
X137639661Y-97766375D01*
X137639658Y-97766374D01*
X137593322Y-97752318D01*
X137593321Y-97752317D01*
X137443266Y-97706798D01*
X137443261Y-97706797D01*
X137443260Y-97706797D01*
X137239011Y-97686680D01*
X137239010Y-97686680D01*
X137189976Y-97691509D01*
X137185666Y-97691721D01*
X132608819Y-97691721D01*
X132455752Y-97706797D01*
X132455750Y-97706797D01*
X132455745Y-97706798D01*
X132259354Y-97766373D01*
X132078350Y-97863121D01*
X131919703Y-97993320D01*
X131919699Y-97993324D01*
X131789500Y-98151971D01*
X131692752Y-98332975D01*
X131633177Y-98529366D01*
X131633176Y-98529371D01*
X131633176Y-98529373D01*
X131613059Y-98733621D01*
X130465300Y-98733621D01*
X130465300Y-95004610D01*
X136664837Y-95004610D01*
X136683861Y-95246328D01*
X136683862Y-95246335D01*
X136740462Y-95482092D01*
X136833249Y-95706096D01*
X136833254Y-95706106D01*
X136959937Y-95912834D01*
X137117400Y-96097200D01*
X137117409Y-96097209D01*
X137264901Y-96223179D01*
X137301776Y-96254673D01*
X137508511Y-96381360D01*
X137657849Y-96443217D01*
X137732517Y-96474147D01*
X137968274Y-96530747D01*
X137968275Y-96530747D01*
X137968283Y-96530749D01*
X138210000Y-96549773D01*
X138451717Y-96530749D01*
X138687482Y-96474147D01*
X138911489Y-96381360D01*
X139118224Y-96254673D01*
X139302595Y-96097205D01*
X139460063Y-95912834D01*
X139586750Y-95706099D01*
X139679537Y-95482092D01*
X139736139Y-95246327D01*
X139755163Y-95004610D01*
X139736139Y-94762893D01*
X139730850Y-94740862D01*
X139709665Y-94652621D01*
X143711112Y-94652621D01*
X143759022Y-94755363D01*
X143759023Y-94755365D01*
X143843253Y-94839596D01*
X143843256Y-94839598D01*
X143951218Y-94889942D01*
X143951221Y-94889943D01*
X143983499Y-94894192D01*
X143983500Y-94894192D01*
X143983500Y-94652622D01*
X143983499Y-94652621D01*
X143711112Y-94652621D01*
X139709665Y-94652621D01*
X139679537Y-94527127D01*
X139648608Y-94452458D01*
X139586750Y-94303121D01*
X139489621Y-94144620D01*
X143711111Y-94144620D01*
X143711112Y-94144621D01*
X143983499Y-94144621D01*
X143983500Y-94144620D01*
X143983500Y-93903049D01*
X143983499Y-93903049D01*
X143951221Y-93907298D01*
X143951218Y-93907299D01*
X143843256Y-93957643D01*
X143843253Y-93957645D01*
X143759023Y-94041876D01*
X143759022Y-94041878D01*
X143711111Y-94144620D01*
X139489621Y-94144620D01*
X139460063Y-94096386D01*
X139341565Y-93957643D01*
X139302599Y-93912019D01*
X139302590Y-93912010D01*
X139118224Y-93754547D01*
X138911496Y-93627864D01*
X138911493Y-93627862D01*
X138911489Y-93627860D01*
X138867745Y-93609740D01*
X138687482Y-93535072D01*
X138451725Y-93478472D01*
X138451718Y-93478471D01*
X138210000Y-93459447D01*
X137968281Y-93478471D01*
X137968274Y-93478472D01*
X137732517Y-93535072D01*
X137508513Y-93627859D01*
X137508503Y-93627864D01*
X137301775Y-93754547D01*
X137117409Y-93912010D01*
X137117400Y-93912019D01*
X136959937Y-94096385D01*
X136833254Y-94303113D01*
X136833249Y-94303123D01*
X136740462Y-94527127D01*
X136683862Y-94762884D01*
X136683861Y-94762891D01*
X136664837Y-95004609D01*
X136664837Y-95004610D01*
X130465300Y-95004610D01*
X130465300Y-91452621D01*
X142158960Y-91452621D01*
X142203180Y-91547450D01*
X142286170Y-91630440D01*
X142392532Y-91680038D01*
X142392535Y-91680039D01*
X142438500Y-91686090D01*
X142438500Y-91452622D01*
X142438499Y-91452621D01*
X142158960Y-91452621D01*
X130465300Y-91452621D01*
X130465300Y-89712304D01*
X130749884Y-89712304D01*
X130769115Y-89944401D01*
X130769116Y-89944407D01*
X130826286Y-90170165D01*
X130826289Y-90170173D01*
X130897987Y-90333626D01*
X130919840Y-90383446D01*
X130919844Y-90383452D01*
X131047215Y-90578410D01*
X131047216Y-90578412D01*
X131201179Y-90745661D01*
X131204954Y-90749761D01*
X131388740Y-90892807D01*
X131593563Y-91003652D01*
X131813837Y-91079272D01*
X131813839Y-91079272D01*
X131813841Y-91079273D01*
X132043550Y-91117605D01*
X132043554Y-91117605D01*
X132276450Y-91117605D01*
X132506158Y-91079273D01*
X132506158Y-91079272D01*
X132506163Y-91079272D01*
X132726437Y-91003652D01*
X132835516Y-90944621D01*
X142158959Y-90944621D01*
X142438499Y-90944621D01*
X142438500Y-90944620D01*
X142438500Y-90711150D01*
X142392538Y-90717201D01*
X142392530Y-90717204D01*
X142286171Y-90766800D01*
X142203180Y-90849791D01*
X142158959Y-90944621D01*
X132835516Y-90944621D01*
X132931260Y-90892807D01*
X133115046Y-90749761D01*
X133272780Y-90578416D01*
X133400160Y-90383446D01*
X133493712Y-90170169D01*
X133550884Y-89944402D01*
X133570116Y-89712305D01*
X133550884Y-89480208D01*
X133550883Y-89480202D01*
X133493713Y-89254444D01*
X133493710Y-89254436D01*
X133400164Y-89041174D01*
X133400160Y-89041164D01*
X133319435Y-88917605D01*
X133272784Y-88846199D01*
X133272783Y-88846197D01*
X133115050Y-88674853D01*
X133115048Y-88674852D01*
X133115046Y-88674849D01*
X132931260Y-88531803D01*
X132726437Y-88420958D01*
X132726433Y-88420956D01*
X132726430Y-88420955D01*
X132506167Y-88345339D01*
X132506158Y-88345336D01*
X132276450Y-88307005D01*
X132276446Y-88307005D01*
X132043554Y-88307005D01*
X132043550Y-88307005D01*
X131813841Y-88345336D01*
X131813832Y-88345339D01*
X131593569Y-88420955D01*
X131593564Y-88420957D01*
X131593563Y-88420958D01*
X131388740Y-88531803D01*
X131379779Y-88538778D01*
X131204949Y-88674853D01*
X131047216Y-88846197D01*
X131047215Y-88846199D01*
X130919844Y-89041157D01*
X130919835Y-89041174D01*
X130826289Y-89254436D01*
X130826286Y-89254444D01*
X130769116Y-89480202D01*
X130769115Y-89480208D01*
X130749884Y-89712304D01*
X130465300Y-89712304D01*
X130465300Y-88784616D01*
X130485864Y-88728118D01*
X130509245Y-88708498D01*
X136971232Y-84977667D01*
X137030445Y-84967227D01*
X137082516Y-84997291D01*
X137103081Y-85053792D01*
X137097005Y-85085905D01*
X137060241Y-85179579D01*
X137060239Y-85179585D01*
X136999342Y-85446392D01*
X136999340Y-85446400D01*
X136978889Y-85719308D01*
X136978889Y-85719313D01*
X136999340Y-85992221D01*
X136999341Y-85992224D01*
X137060240Y-86259040D01*
X137086915Y-86327007D01*
X137160225Y-86513799D01*
X137160226Y-86513800D01*
X137297065Y-86750813D01*
X137443713Y-86934702D01*
X137467703Y-86964785D01*
X137668318Y-87150928D01*
X137668327Y-87150936D01*
X137829857Y-87261064D01*
X137894445Y-87305100D01*
X137894447Y-87305101D01*
X137894446Y-87305101D01*
X138084532Y-87396641D01*
X138141020Y-87423844D01*
X138402539Y-87504512D01*
X138673161Y-87545302D01*
X138673166Y-87545302D01*
X138946834Y-87545302D01*
X138946839Y-87545302D01*
X139217461Y-87504512D01*
X139478980Y-87423844D01*
X139672486Y-87330657D01*
X142807100Y-87330657D01*
X142815972Y-87375256D01*
X142815972Y-87375257D01*
X142849766Y-87425833D01*
X142866701Y-87437149D01*
X142900341Y-87459627D01*
X142907741Y-87461098D01*
X142944943Y-87468499D01*
X143188200Y-87468498D01*
X143244701Y-87489062D01*
X143274765Y-87541134D01*
X143276100Y-87556398D01*
X143276100Y-90731861D01*
X143255535Y-90788362D01*
X143203464Y-90818426D01*
X143144250Y-90807985D01*
X143126046Y-90794017D01*
X143098829Y-90766801D01*
X143098828Y-90766800D01*
X142992469Y-90717204D01*
X142992461Y-90717201D01*
X142946500Y-90711150D01*
X142946500Y-91686089D01*
X142992464Y-91680039D01*
X142992467Y-91680038D01*
X143098829Y-91630440D01*
X143181818Y-91547451D01*
X143193549Y-91522295D01*
X143236065Y-91479778D01*
X143295963Y-91474537D01*
X143345217Y-91509024D01*
X143353621Y-91523930D01*
X143356584Y-91530640D01*
X143437981Y-91612037D01*
X143500373Y-91639586D01*
X143549334Y-91661205D01*
X143548796Y-91662422D01*
X143557434Y-91666667D01*
X143558130Y-91665430D01*
X143563366Y-91668373D01*
X143563370Y-91668376D01*
X143582131Y-91675774D01*
X143595554Y-91682441D01*
X143612792Y-91692924D01*
X143612794Y-91692925D01*
X143649014Y-91703072D01*
X143654927Y-91704729D01*
X143659197Y-91706164D01*
X143699903Y-91722218D01*
X143719966Y-91724280D01*
X143734688Y-91727077D01*
X143754117Y-91732521D01*
X143797870Y-91732521D01*
X143802367Y-91732752D01*
X143821681Y-91734737D01*
X143845899Y-91737227D01*
X143865780Y-91733799D01*
X143880715Y-91732521D01*
X144511106Y-91732521D01*
X144567607Y-91753086D01*
X144597671Y-91805157D01*
X144593217Y-91838984D01*
X144596809Y-91844621D01*
X145588600Y-91844621D01*
X145645101Y-91865186D01*
X145675165Y-91917257D01*
X145676500Y-91932521D01*
X145676500Y-92264721D01*
X145655935Y-92321222D01*
X145603864Y-92351286D01*
X145588600Y-92352621D01*
X144596809Y-92352621D01*
X144637340Y-92439540D01*
X144637342Y-92439543D01*
X144724518Y-92526718D01*
X144722499Y-92528736D01*
X144750036Y-92568050D01*
X144744804Y-92627949D01*
X144727289Y-92652966D01*
X144655781Y-92724474D01*
X144655779Y-92724477D01*
X144610039Y-92828067D01*
X144610038Y-92828071D01*
X144607100Y-92853395D01*
X144607100Y-93243847D01*
X144610038Y-93269171D01*
X144655780Y-93372766D01*
X144735855Y-93452841D01*
X144839450Y-93498583D01*
X144864774Y-93501521D01*
X145115500Y-93501521D01*
X145172001Y-93522086D01*
X145202065Y-93574157D01*
X145203400Y-93589421D01*
X145203400Y-93852110D01*
X145182835Y-93908611D01*
X145152649Y-93931774D01*
X145052758Y-93978354D01*
X144974733Y-94056379D01*
X144928400Y-94155739D01*
X144885883Y-94198255D01*
X144825985Y-94203495D01*
X144776732Y-94169007D01*
X144769072Y-94155738D01*
X144715978Y-94041878D01*
X144631742Y-93957642D01*
X144523783Y-93907300D01*
X144523775Y-93907297D01*
X144491500Y-93903048D01*
X144491500Y-94894191D01*
X144523778Y-94889943D01*
X144523781Y-94889942D01*
X144631742Y-94839599D01*
X144715976Y-94755365D01*
X144769071Y-94641503D01*
X144811588Y-94598987D01*
X144871486Y-94593746D01*
X144920739Y-94628233D01*
X144928400Y-94641502D01*
X144974732Y-94740862D01*
X144974733Y-94740862D01*
X145052759Y-94818888D01*
X145152766Y-94865522D01*
X145187730Y-94870124D01*
X145198332Y-94871521D01*
X145198334Y-94871521D01*
X145666668Y-94871521D01*
X145676164Y-94870270D01*
X145712234Y-94865522D01*
X145812241Y-94818888D01*
X145890267Y-94740862D01*
X145936901Y-94640855D01*
X145942900Y-94595287D01*
X145942900Y-94201955D01*
X145936901Y-94156387D01*
X145890267Y-94056380D01*
X145812241Y-93978354D01*
X145812240Y-93978354D01*
X145712351Y-93931774D01*
X145669835Y-93889258D01*
X145661600Y-93852110D01*
X145661600Y-93589421D01*
X145682165Y-93532920D01*
X145734236Y-93502856D01*
X145749500Y-93501521D01*
X145980219Y-93501521D01*
X145980226Y-93501521D01*
X146005550Y-93498583D01*
X146109145Y-93452841D01*
X146189220Y-93372766D01*
X146234962Y-93269171D01*
X146237900Y-93243847D01*
X146882100Y-93243847D01*
X146885038Y-93269171D01*
X146930780Y-93372766D01*
X147010855Y-93452841D01*
X147114450Y-93498583D01*
X147139774Y-93501521D01*
X147139781Y-93501521D01*
X148255219Y-93501521D01*
X148255226Y-93501521D01*
X148280550Y-93498583D01*
X148384145Y-93452841D01*
X148464220Y-93372766D01*
X148509962Y-93269171D01*
X148512900Y-93243847D01*
X148512900Y-92853395D01*
X148509962Y-92828071D01*
X148464220Y-92724476D01*
X148384145Y-92644401D01*
X148384143Y-92644400D01*
X148280553Y-92598660D01*
X148280551Y-92598659D01*
X148280550Y-92598659D01*
X148273061Y-92597790D01*
X148255237Y-92595722D01*
X148255232Y-92595721D01*
X148255226Y-92595721D01*
X147139774Y-92595721D01*
X147139768Y-92595721D01*
X147139762Y-92595722D01*
X147114450Y-92598659D01*
X147114446Y-92598660D01*
X147010856Y-92644400D01*
X147010853Y-92644402D01*
X146942986Y-92712269D01*
X146918356Y-92723753D01*
X146914453Y-92761451D01*
X146885039Y-92828066D01*
X146885038Y-92828071D01*
X146882100Y-92853395D01*
X146882100Y-93243847D01*
X146237900Y-93243847D01*
X146237900Y-93231125D01*
X146258465Y-93174625D01*
X146263645Y-93168971D01*
X146741975Y-92690641D01*
X146743609Y-92689091D01*
X146774486Y-92661291D01*
X146774486Y-92661289D01*
X146775227Y-92660623D01*
X146797795Y-92651505D01*
X146800869Y-92616378D01*
X146800351Y-92616180D01*
X146801044Y-92614372D01*
X146801168Y-92612965D01*
X146802523Y-92610519D01*
X146803659Y-92607560D01*
X146803658Y-92607560D01*
X146803661Y-92607557D01*
X146804749Y-92600681D01*
X146811269Y-92578676D01*
X146814100Y-92572318D01*
X146814100Y-92548568D01*
X146815182Y-92534817D01*
X146816465Y-92526718D01*
X146818897Y-92511363D01*
X146818896Y-92511359D01*
X146818896Y-92511357D01*
X146817095Y-92504635D01*
X146814100Y-92481887D01*
X146814100Y-91568295D01*
X146834665Y-91511794D01*
X146886736Y-91481730D01*
X146945950Y-91492171D01*
X146964150Y-91506136D01*
X147010855Y-91552841D01*
X147114450Y-91598583D01*
X147139774Y-91601521D01*
X147540458Y-91601521D01*
X147557354Y-91603950D01*
X147557388Y-91603714D01*
X147643098Y-91616036D01*
X147663857Y-91619021D01*
X148178744Y-91619021D01*
X148235245Y-91639586D01*
X148240899Y-91644766D01*
X149013855Y-92417722D01*
X149039266Y-92472216D01*
X149039600Y-92479877D01*
X149039600Y-97063810D01*
X149019035Y-97120311D01*
X148966964Y-97150375D01*
X148951700Y-97151710D01*
X148839774Y-97151710D01*
X148839768Y-97151710D01*
X148839762Y-97151711D01*
X148814450Y-97154648D01*
X148814446Y-97154649D01*
X148710856Y-97200389D01*
X148630779Y-97280466D01*
X148585039Y-97384056D01*
X148585038Y-97384060D01*
X148582101Y-97409372D01*
X148582100Y-97409391D01*
X148582100Y-97799828D01*
X148582101Y-97799847D01*
X148585038Y-97825159D01*
X148585039Y-97825163D01*
X148605128Y-97870660D01*
X148630780Y-97928755D01*
X148710855Y-98008830D01*
X148734404Y-98019228D01*
X148745664Y-98024200D01*
X148789044Y-98065835D01*
X148795513Y-98125613D01*
X148762044Y-98175564D01*
X148745664Y-98185020D01*
X148710856Y-98200389D01*
X148630779Y-98280466D01*
X148585039Y-98384056D01*
X148585038Y-98384060D01*
X148582100Y-98409384D01*
X148582100Y-98799836D01*
X148584274Y-98818579D01*
X148585038Y-98825159D01*
X148585039Y-98825163D01*
X148611948Y-98886105D01*
X148630780Y-98928755D01*
X148710855Y-99008830D01*
X148734404Y-99019228D01*
X148745664Y-99024200D01*
X148789044Y-99065835D01*
X148795513Y-99125613D01*
X148762044Y-99175564D01*
X148745664Y-99185020D01*
X148710856Y-99200389D01*
X148630779Y-99280466D01*
X148585039Y-99384056D01*
X148585038Y-99384060D01*
X148582101Y-99409372D01*
X148582100Y-99409391D01*
X148582100Y-99799828D01*
X148582101Y-99799847D01*
X148585038Y-99825159D01*
X148585039Y-99825163D01*
X148600181Y-99859455D01*
X148630780Y-99928755D01*
X148710855Y-100008830D01*
X148734404Y-100019228D01*
X148745664Y-100024200D01*
X148789044Y-100065835D01*
X148795513Y-100125613D01*
X148762044Y-100175564D01*
X148745664Y-100185020D01*
X148710856Y-100200389D01*
X148630779Y-100280466D01*
X148585039Y-100384056D01*
X148585038Y-100384060D01*
X148582101Y-100409372D01*
X148582100Y-100409391D01*
X148582100Y-100799828D01*
X148582101Y-100799847D01*
X148585038Y-100825159D01*
X148585039Y-100825163D01*
X148611948Y-100886105D01*
X148630780Y-100928755D01*
X148710855Y-101008830D01*
X148727227Y-101016059D01*
X148745664Y-101024200D01*
X148789044Y-101065835D01*
X148795513Y-101125613D01*
X148762044Y-101175564D01*
X148745664Y-101185020D01*
X148710856Y-101200389D01*
X148630779Y-101280466D01*
X148611948Y-101323115D01*
X148570314Y-101366495D01*
X148531538Y-101375510D01*
X148386160Y-101375510D01*
X148383859Y-101375450D01*
X148356462Y-101374014D01*
X148342372Y-101373276D01*
X148342371Y-101373276D01*
X148342370Y-101373276D01*
X148320199Y-101381786D01*
X148306982Y-101385701D01*
X148283746Y-101390640D01*
X148283746Y-101390641D01*
X148283743Y-101390642D01*
X148278106Y-101394738D01*
X148257953Y-101405680D01*
X148251446Y-101408178D01*
X148251443Y-101408180D01*
X148234650Y-101424973D01*
X148224165Y-101433928D01*
X148204956Y-101447884D01*
X148204949Y-101447891D01*
X148201469Y-101453920D01*
X148187504Y-101472119D01*
X146193040Y-103466582D01*
X146191372Y-103468165D01*
X146160514Y-103495950D01*
X146160513Y-103495951D01*
X146160514Y-103495951D01*
X146150849Y-103517655D01*
X146144278Y-103529758D01*
X146135226Y-103543697D01*
X146131338Y-103549686D01*
X146130248Y-103556568D01*
X146123735Y-103578555D01*
X146120900Y-103584924D01*
X146120900Y-103608672D01*
X146119818Y-103622421D01*
X146116103Y-103645879D01*
X146117370Y-103650609D01*
X146117905Y-103652603D01*
X146120900Y-103675354D01*
X146120900Y-112699898D01*
X146100335Y-112756399D01*
X146058516Y-112784013D01*
X145964354Y-112812578D01*
X145964347Y-112812580D01*
X145790121Y-112905705D01*
X145637413Y-113031030D01*
X145637409Y-113031034D01*
X145512084Y-113183742D01*
X145418957Y-113357972D01*
X145361612Y-113547011D01*
X145342247Y-113743621D01*
X145361612Y-113940230D01*
X145410186Y-114100355D01*
X145418958Y-114129271D01*
X145512084Y-114303499D01*
X145637411Y-114456210D01*
X145790122Y-114581537D01*
X145964350Y-114674663D01*
X146153397Y-114732010D01*
X146350000Y-114751374D01*
X146546603Y-114732010D01*
X146735650Y-114674663D01*
X146909878Y-114581537D01*
X147062589Y-114456210D01*
X147187916Y-114303499D01*
X147281042Y-114129271D01*
X147338389Y-113940224D01*
X147357753Y-113743621D01*
X147357753Y-113743620D01*
X147882247Y-113743620D01*
X147901612Y-113940230D01*
X147950186Y-114100355D01*
X147958958Y-114129271D01*
X148052084Y-114303499D01*
X148177411Y-114456210D01*
X148330122Y-114581537D01*
X148504350Y-114674663D01*
X148693397Y-114732010D01*
X148890000Y-114751374D01*
X149086603Y-114732010D01*
X149275650Y-114674663D01*
X149449878Y-114581537D01*
X149602589Y-114456210D01*
X149727916Y-114303499D01*
X149821042Y-114129271D01*
X149878389Y-113940224D01*
X149897753Y-113743621D01*
X149878389Y-113547018D01*
X149821042Y-113357971D01*
X149727916Y-113183743D01*
X149602589Y-113031032D01*
X149449878Y-112905705D01*
X149275650Y-112812579D01*
X149275649Y-112812578D01*
X149275648Y-112812578D01*
X149086609Y-112755233D01*
X149086604Y-112755232D01*
X149086603Y-112755232D01*
X148890000Y-112735868D01*
X148693397Y-112755232D01*
X148693395Y-112755232D01*
X148693390Y-112755233D01*
X148504351Y-112812578D01*
X148330121Y-112905705D01*
X148177413Y-113031030D01*
X148177409Y-113031034D01*
X148052084Y-113183742D01*
X147958957Y-113357972D01*
X147901612Y-113547011D01*
X147882247Y-113743620D01*
X147357753Y-113743620D01*
X147338389Y-113547018D01*
X147281042Y-113357971D01*
X147187916Y-113183743D01*
X147062589Y-113031032D01*
X146909878Y-112905705D01*
X146735650Y-112812579D01*
X146641483Y-112784013D01*
X146593385Y-112747932D01*
X146579100Y-112699898D01*
X146579100Y-103764927D01*
X146599665Y-103708426D01*
X146604845Y-103702772D01*
X147449007Y-102858610D01*
X148571809Y-102858610D01*
X148612340Y-102945529D01*
X148612342Y-102945532D01*
X148694079Y-103027268D01*
X148694083Y-103027271D01*
X148798845Y-103076122D01*
X148798854Y-103076125D01*
X148846587Y-103082409D01*
X149256000Y-103082409D01*
X149256000Y-103082408D01*
X149764000Y-103082408D01*
X149764001Y-103082409D01*
X150173414Y-103082409D01*
X150173415Y-103082408D01*
X150221145Y-103076126D01*
X150221151Y-103076124D01*
X150325918Y-103027269D01*
X150325920Y-103027268D01*
X150407657Y-102945532D01*
X150407659Y-102945529D01*
X150448191Y-102858610D01*
X149764001Y-102858610D01*
X149764000Y-102858611D01*
X149764000Y-103082408D01*
X149256000Y-103082408D01*
X149256000Y-102858611D01*
X149255999Y-102858610D01*
X148571809Y-102858610D01*
X147449007Y-102858610D01*
X148448163Y-101859455D01*
X148502657Y-101834044D01*
X148510318Y-101833710D01*
X148531538Y-101833710D01*
X148588039Y-101854275D01*
X148611947Y-101886104D01*
X148630780Y-101928755D01*
X148710855Y-102008830D01*
X148714689Y-102010523D01*
X148715767Y-102010999D01*
X148759145Y-102052635D01*
X148765612Y-102112413D01*
X148732142Y-102162363D01*
X148717409Y-102171072D01*
X148694079Y-102181951D01*
X148612342Y-102263687D01*
X148612340Y-102263690D01*
X148571808Y-102350609D01*
X148571809Y-102350610D01*
X150448191Y-102350610D01*
X150448191Y-102350609D01*
X150407659Y-102263690D01*
X150407657Y-102263687D01*
X150325920Y-102181951D01*
X150325921Y-102181951D01*
X150302591Y-102171073D01*
X150260075Y-102128557D01*
X150254834Y-102068658D01*
X150289321Y-102019405D01*
X150304231Y-102010999D01*
X150309145Y-102008830D01*
X150389220Y-101928755D01*
X150434962Y-101825160D01*
X150437900Y-101799836D01*
X150437900Y-101409384D01*
X150434962Y-101384060D01*
X150389220Y-101280465D01*
X150309145Y-101200390D01*
X150274334Y-101185019D01*
X150230955Y-101143386D01*
X150224486Y-101083608D01*
X150257955Y-101033657D01*
X150274333Y-101024200D01*
X150309145Y-101008830D01*
X150389220Y-100928755D01*
X150408052Y-100886104D01*
X150449686Y-100842725D01*
X150488462Y-100833710D01*
X150759683Y-100833710D01*
X150816184Y-100854275D01*
X150821838Y-100859455D01*
X151175155Y-101212772D01*
X151200566Y-101267266D01*
X151200900Y-101274927D01*
X151200900Y-112699898D01*
X151180335Y-112756399D01*
X151138516Y-112784013D01*
X151044354Y-112812578D01*
X151044347Y-112812580D01*
X150870121Y-112905705D01*
X150717413Y-113031030D01*
X150717409Y-113031034D01*
X150592084Y-113183742D01*
X150498957Y-113357972D01*
X150441612Y-113547011D01*
X150422247Y-113743620D01*
X150441612Y-113940230D01*
X150490186Y-114100355D01*
X150498958Y-114129271D01*
X150592084Y-114303499D01*
X150717411Y-114456210D01*
X150870122Y-114581537D01*
X151044350Y-114674663D01*
X151233397Y-114732010D01*
X151430000Y-114751374D01*
X151626603Y-114732010D01*
X151815650Y-114674663D01*
X151989878Y-114581537D01*
X152142589Y-114456210D01*
X152267916Y-114303499D01*
X152361042Y-114129271D01*
X152418389Y-113940224D01*
X152437753Y-113743621D01*
X152418389Y-113547018D01*
X152361042Y-113357971D01*
X152267916Y-113183743D01*
X152142589Y-113031032D01*
X151989878Y-112905705D01*
X151815650Y-112812579D01*
X151721483Y-112784013D01*
X151673385Y-112747932D01*
X151659100Y-112699898D01*
X151659100Y-111922803D01*
X151679665Y-111866302D01*
X151731736Y-111836238D01*
X151790950Y-111846679D01*
X151829599Y-111892739D01*
X151832978Y-111904523D01*
X151834094Y-111909774D01*
X151836031Y-111918888D01*
X151840124Y-111924521D01*
X151851071Y-111944682D01*
X151853567Y-111951183D01*
X151853568Y-111951185D01*
X151870364Y-111967982D01*
X151879320Y-111978468D01*
X151893276Y-111997677D01*
X151893278Y-111997679D01*
X151899308Y-112001160D01*
X151917510Y-112015127D01*
X153069978Y-113167596D01*
X153095389Y-113222090D01*
X153085344Y-113271186D01*
X153038958Y-113357968D01*
X153038957Y-113357972D01*
X152981612Y-113547011D01*
X152962247Y-113743620D01*
X152981612Y-113940230D01*
X153030186Y-114100355D01*
X153038958Y-114129271D01*
X153132084Y-114303499D01*
X153257411Y-114456210D01*
X153410122Y-114581537D01*
X153584350Y-114674663D01*
X153773397Y-114732010D01*
X153970000Y-114751374D01*
X154166603Y-114732010D01*
X154355650Y-114674663D01*
X154479098Y-114608679D01*
X155507100Y-114608679D01*
X155515972Y-114653279D01*
X155549766Y-114703855D01*
X155566701Y-114715171D01*
X155600341Y-114737649D01*
X155607741Y-114739120D01*
X155644943Y-114746521D01*
X157375056Y-114746520D01*
X157375058Y-114746520D01*
X157387750Y-114743995D01*
X157419658Y-114737649D01*
X157470234Y-114703855D01*
X157504028Y-114653279D01*
X157512900Y-114608678D01*
X157512899Y-113169313D01*
X160753889Y-113169313D01*
X160774340Y-113442221D01*
X160774342Y-113442229D01*
X160806928Y-113584999D01*
X160835240Y-113709040D01*
X160848812Y-113743620D01*
X160935225Y-113963799D01*
X160935226Y-113963800D01*
X161072065Y-114200813D01*
X161218713Y-114384702D01*
X161242703Y-114414785D01*
X161443318Y-114600928D01*
X161443327Y-114600936D01*
X161594284Y-114703856D01*
X161669445Y-114755100D01*
X161669447Y-114755101D01*
X161669446Y-114755101D01*
X161885324Y-114859061D01*
X161916020Y-114873844D01*
X162177539Y-114954512D01*
X162448161Y-114995302D01*
X162448166Y-114995302D01*
X162721834Y-114995302D01*
X162721839Y-114995302D01*
X162992461Y-114954512D01*
X163253980Y-114873844D01*
X163500556Y-114755100D01*
X163726679Y-114600931D01*
X163927299Y-114414783D01*
X164097935Y-114200813D01*
X164234774Y-113963800D01*
X164334760Y-113709040D01*
X164395659Y-113442224D01*
X164412785Y-113213693D01*
X164416111Y-113169313D01*
X164416111Y-113169308D01*
X164395659Y-112896400D01*
X164395659Y-112896398D01*
X164334760Y-112629582D01*
X164234774Y-112374822D01*
X164097935Y-112137809D01*
X163927299Y-111923839D01*
X163926182Y-111922803D01*
X163726681Y-111737693D01*
X163726671Y-111737685D01*
X163500553Y-111583520D01*
X163500554Y-111583520D01*
X163253983Y-111464779D01*
X163221191Y-111454664D01*
X162992461Y-111384110D01*
X162992457Y-111384109D01*
X162992456Y-111384109D01*
X162721841Y-111343320D01*
X162721839Y-111343320D01*
X162448161Y-111343320D01*
X162448158Y-111343320D01*
X162177543Y-111384109D01*
X162177540Y-111384109D01*
X162177539Y-111384110D01*
X162046779Y-111424444D01*
X161916016Y-111464779D01*
X161669447Y-111583520D01*
X161443327Y-111737685D01*
X161443318Y-111737693D01*
X161242703Y-111923836D01*
X161072067Y-112137806D01*
X160935226Y-112374821D01*
X160935225Y-112374822D01*
X160835241Y-112629580D01*
X160835239Y-112629585D01*
X160774342Y-112896392D01*
X160774340Y-112896400D01*
X160753889Y-113169308D01*
X160753889Y-113169313D01*
X157512899Y-113169313D01*
X157512899Y-112878565D01*
X157512899Y-112878564D01*
X157512899Y-112878562D01*
X157509001Y-112858965D01*
X157504028Y-112833963D01*
X157470234Y-112783387D01*
X157470002Y-112783232D01*
X157419658Y-112749592D01*
X157382456Y-112742192D01*
X157375057Y-112740721D01*
X157375056Y-112740721D01*
X155644941Y-112740721D01*
X155600341Y-112749593D01*
X155549767Y-112783386D01*
X155549764Y-112783389D01*
X155515971Y-112833962D01*
X155507100Y-112878564D01*
X155507100Y-114608679D01*
X154479098Y-114608679D01*
X154529878Y-114581537D01*
X154682589Y-114456210D01*
X154807916Y-114303499D01*
X154901042Y-114129271D01*
X154958389Y-113940224D01*
X154977753Y-113743621D01*
X154958389Y-113547018D01*
X154901042Y-113357971D01*
X154807916Y-113183743D01*
X154682589Y-113031032D01*
X154529878Y-112905705D01*
X154355650Y-112812579D01*
X154355649Y-112812578D01*
X154355648Y-112812578D01*
X154166609Y-112755233D01*
X154166604Y-112755232D01*
X154166603Y-112755232D01*
X153970000Y-112735868D01*
X153773397Y-112755232D01*
X153773395Y-112755232D01*
X153773390Y-112755233D01*
X153584351Y-112812578D01*
X153584347Y-112812579D01*
X153497564Y-112858965D01*
X153438040Y-112867463D01*
X153393974Y-112843599D01*
X152304845Y-111754469D01*
X152279434Y-111699975D01*
X152279100Y-111692314D01*
X152279100Y-110496914D01*
X166749884Y-110496914D01*
X166769115Y-110729011D01*
X166769116Y-110729017D01*
X166826286Y-110954775D01*
X166826289Y-110954783D01*
X166897987Y-111118236D01*
X166919840Y-111168056D01*
X166919844Y-111168062D01*
X167047215Y-111363020D01*
X167047216Y-111363022D01*
X167173979Y-111500724D01*
X167204954Y-111534371D01*
X167388740Y-111677417D01*
X167593563Y-111788262D01*
X167813837Y-111863882D01*
X167813839Y-111863882D01*
X167813841Y-111863883D01*
X168043550Y-111902215D01*
X168043554Y-111902215D01*
X168276450Y-111902215D01*
X168506158Y-111863883D01*
X168506158Y-111863882D01*
X168506163Y-111863882D01*
X168726437Y-111788262D01*
X168931260Y-111677417D01*
X169115046Y-111534371D01*
X169272780Y-111363026D01*
X169400160Y-111168056D01*
X169493712Y-110954779D01*
X169550884Y-110729012D01*
X169570116Y-110496915D01*
X169550884Y-110264818D01*
X169550883Y-110264812D01*
X169493713Y-110039054D01*
X169493710Y-110039046D01*
X169400164Y-109825784D01*
X169400160Y-109825774D01*
X169319435Y-109702215D01*
X169272784Y-109630809D01*
X169272783Y-109630807D01*
X169115050Y-109459463D01*
X169115048Y-109459462D01*
X169115046Y-109459459D01*
X168931260Y-109316413D01*
X168726437Y-109205568D01*
X168726433Y-109205566D01*
X168726430Y-109205565D01*
X168506167Y-109129949D01*
X168506158Y-109129946D01*
X168276450Y-109091615D01*
X168276446Y-109091615D01*
X168043554Y-109091615D01*
X168043550Y-109091615D01*
X167813841Y-109129946D01*
X167813832Y-109129949D01*
X167593569Y-109205565D01*
X167388740Y-109316413D01*
X167204949Y-109459463D01*
X167047216Y-109630807D01*
X167047215Y-109630809D01*
X166919844Y-109825767D01*
X166919835Y-109825784D01*
X166826289Y-110039046D01*
X166826286Y-110039054D01*
X166769116Y-110264812D01*
X166769115Y-110264818D01*
X166749884Y-110496914D01*
X152279100Y-110496914D01*
X152279100Y-104622754D01*
X152299665Y-104566253D01*
X152351736Y-104536189D01*
X152410950Y-104546630D01*
X152428530Y-104560119D01*
X152532845Y-104637107D01*
X152532846Y-104637108D01*
X152654565Y-104679699D01*
X152654570Y-104679700D01*
X152683466Y-104682409D01*
X152683470Y-104682410D01*
X153130999Y-104682410D01*
X153131000Y-104682409D01*
X153639000Y-104682409D01*
X153639001Y-104682410D01*
X154086530Y-104682410D01*
X154086533Y-104682409D01*
X154115429Y-104679700D01*
X154115434Y-104679699D01*
X154237153Y-104637108D01*
X154237154Y-104637107D01*
X154340914Y-104560529D01*
X154340919Y-104560524D01*
X154417497Y-104456764D01*
X154417498Y-104456763D01*
X154460089Y-104335044D01*
X154460090Y-104335039D01*
X154462799Y-104306143D01*
X154462800Y-104306140D01*
X154462800Y-104158610D01*
X153639001Y-104158610D01*
X153639000Y-104158611D01*
X153639000Y-104682409D01*
X153131000Y-104682409D01*
X153131000Y-103650609D01*
X153639000Y-103650609D01*
X153639001Y-103650610D01*
X154462799Y-103650610D01*
X154462800Y-103650609D01*
X154462800Y-103503079D01*
X154462799Y-103503076D01*
X154460090Y-103474180D01*
X154460089Y-103474175D01*
X154417498Y-103352456D01*
X154417497Y-103352455D01*
X154340919Y-103248695D01*
X154340914Y-103248690D01*
X154237154Y-103172112D01*
X154237153Y-103172111D01*
X154115434Y-103129520D01*
X154115429Y-103129519D01*
X154086533Y-103126810D01*
X153639001Y-103126810D01*
X153639000Y-103126811D01*
X153639000Y-103650609D01*
X153131000Y-103650609D01*
X153131000Y-103126811D01*
X153130999Y-103126810D01*
X152683466Y-103126810D01*
X152654570Y-103129519D01*
X152654565Y-103129520D01*
X152532846Y-103172111D01*
X152532845Y-103172112D01*
X152423783Y-103252604D01*
X152422971Y-103251505D01*
X152374651Y-103274031D01*
X152316575Y-103258463D01*
X152282093Y-103209206D01*
X152279100Y-103186465D01*
X152279100Y-100745776D01*
X152279160Y-100743476D01*
X152279478Y-100737399D01*
X152281334Y-100701982D01*
X152272819Y-100679800D01*
X152268907Y-100666592D01*
X152263969Y-100643356D01*
X152259874Y-100637720D01*
X152248927Y-100617556D01*
X152246433Y-100611059D01*
X152246432Y-100611058D01*
X152246432Y-100611057D01*
X152229630Y-100594255D01*
X152220677Y-100583771D01*
X152214015Y-100574602D01*
X152206722Y-100564563D01*
X152206721Y-100564562D01*
X152206722Y-100564562D01*
X152200692Y-100561081D01*
X152182488Y-100547113D01*
X151083028Y-99447651D01*
X151081459Y-99445999D01*
X151053659Y-99415124D01*
X151053658Y-99415123D01*
X151031961Y-99405462D01*
X151019847Y-99398885D01*
X151007011Y-99390550D01*
X150999925Y-99385949D01*
X150999922Y-99385948D01*
X150999921Y-99385948D01*
X150993047Y-99384859D01*
X150971053Y-99378344D01*
X150964688Y-99375510D01*
X150964686Y-99375510D01*
X150940936Y-99375510D01*
X150927186Y-99374428D01*
X150915108Y-99372515D01*
X150903732Y-99370713D01*
X150903729Y-99370713D01*
X150897006Y-99372515D01*
X150874256Y-99375510D01*
X150488462Y-99375510D01*
X150431961Y-99354945D01*
X150408052Y-99323115D01*
X150389220Y-99280466D01*
X150389220Y-99280465D01*
X150309145Y-99200390D01*
X150274334Y-99185019D01*
X150230955Y-99143386D01*
X150224486Y-99083608D01*
X150257955Y-99033657D01*
X150274333Y-99024200D01*
X150309145Y-99008830D01*
X150389220Y-98928755D01*
X150408052Y-98886104D01*
X150449686Y-98842725D01*
X150488462Y-98833710D01*
X150521862Y-98833710D01*
X150524163Y-98833770D01*
X150531854Y-98834172D01*
X150565650Y-98835944D01*
X150587820Y-98827433D01*
X150601038Y-98823517D01*
X150624276Y-98818579D01*
X150629905Y-98814488D01*
X150650072Y-98803537D01*
X150656575Y-98801042D01*
X150673376Y-98784239D01*
X150683851Y-98775293D01*
X150703069Y-98761332D01*
X150706551Y-98755300D01*
X150720514Y-98737101D01*
X151586975Y-97870641D01*
X151588608Y-97869092D01*
X151619486Y-97841291D01*
X151629145Y-97819594D01*
X151635721Y-97807482D01*
X151648662Y-97787557D01*
X151649751Y-97780678D01*
X151656268Y-97758675D01*
X151659100Y-97752318D01*
X151659100Y-97728569D01*
X151660182Y-97714819D01*
X151661452Y-97706798D01*
X151663897Y-97691363D01*
X151663896Y-97691358D01*
X151662095Y-97684635D01*
X151659100Y-97661887D01*
X151659100Y-96558610D01*
X152307200Y-96558610D01*
X152307200Y-96706143D01*
X152309909Y-96735039D01*
X152309910Y-96735044D01*
X152352501Y-96856763D01*
X152352502Y-96856764D01*
X152429080Y-96960524D01*
X152429085Y-96960529D01*
X152532845Y-97037107D01*
X152532846Y-97037108D01*
X152654565Y-97079699D01*
X152654570Y-97079700D01*
X152683466Y-97082409D01*
X152683470Y-97082410D01*
X153130999Y-97082410D01*
X153131000Y-97082409D01*
X153131000Y-97082408D01*
X153639000Y-97082408D01*
X153639001Y-97082410D01*
X154086530Y-97082410D01*
X154086533Y-97082409D01*
X154115429Y-97079700D01*
X154115434Y-97079699D01*
X154237153Y-97037108D01*
X154237154Y-97037107D01*
X154340914Y-96960529D01*
X154340919Y-96960524D01*
X154417497Y-96856764D01*
X154417498Y-96856763D01*
X154460089Y-96735044D01*
X154460090Y-96735039D01*
X154462799Y-96706143D01*
X154462800Y-96706140D01*
X154462800Y-96558610D01*
X153639001Y-96558610D01*
X153639000Y-96558611D01*
X153639000Y-97082408D01*
X153131000Y-97082408D01*
X153131000Y-96558610D01*
X152307200Y-96558610D01*
X151659100Y-96558610D01*
X151659100Y-96050609D01*
X152307200Y-96050609D01*
X152307201Y-96050610D01*
X153130999Y-96050610D01*
X153131000Y-96050609D01*
X153131000Y-96050608D01*
X153639000Y-96050608D01*
X153639001Y-96050610D01*
X154462799Y-96050610D01*
X154462800Y-96050608D01*
X154462800Y-95903079D01*
X154462799Y-95903076D01*
X154460090Y-95874180D01*
X154460089Y-95874175D01*
X154417498Y-95752456D01*
X154417497Y-95752455D01*
X154340919Y-95648695D01*
X154340914Y-95648690D01*
X154237154Y-95572112D01*
X154237153Y-95572111D01*
X154115434Y-95529520D01*
X154115429Y-95529519D01*
X154086533Y-95526810D01*
X153639001Y-95526810D01*
X153639000Y-95526811D01*
X153639000Y-96050608D01*
X153131000Y-96050608D01*
X153131000Y-95526810D01*
X152683466Y-95526810D01*
X152654570Y-95529519D01*
X152654565Y-95529520D01*
X152532846Y-95572111D01*
X152532845Y-95572112D01*
X152429085Y-95648690D01*
X152429080Y-95648695D01*
X152352502Y-95752455D01*
X152352501Y-95752456D01*
X152309910Y-95874175D01*
X152309909Y-95874180D01*
X152307200Y-95903076D01*
X152307200Y-96050609D01*
X151659100Y-96050609D01*
X151659100Y-89712305D01*
X166749884Y-89712305D01*
X166769115Y-89944401D01*
X166769116Y-89944407D01*
X166826286Y-90170165D01*
X166826289Y-90170173D01*
X166897987Y-90333626D01*
X166919840Y-90383446D01*
X166919844Y-90383452D01*
X167047215Y-90578410D01*
X167047216Y-90578412D01*
X167201179Y-90745661D01*
X167204954Y-90749761D01*
X167388740Y-90892807D01*
X167593563Y-91003652D01*
X167813837Y-91079272D01*
X167813839Y-91079272D01*
X167813841Y-91079273D01*
X168043550Y-91117605D01*
X168043554Y-91117605D01*
X168276450Y-91117605D01*
X168506158Y-91079273D01*
X168506158Y-91079272D01*
X168506163Y-91079272D01*
X168726437Y-91003652D01*
X168931260Y-90892807D01*
X169115046Y-90749761D01*
X169272780Y-90578416D01*
X169400160Y-90383446D01*
X169493712Y-90170169D01*
X169550884Y-89944402D01*
X169570116Y-89712305D01*
X169550884Y-89480208D01*
X169550883Y-89480202D01*
X169493713Y-89254444D01*
X169493710Y-89254436D01*
X169400164Y-89041174D01*
X169400160Y-89041164D01*
X169319435Y-88917605D01*
X169272784Y-88846199D01*
X169272783Y-88846197D01*
X169115050Y-88674853D01*
X169115048Y-88674852D01*
X169115046Y-88674849D01*
X168931260Y-88531803D01*
X168726437Y-88420958D01*
X168726433Y-88420956D01*
X168726430Y-88420955D01*
X168506167Y-88345339D01*
X168506158Y-88345336D01*
X168276450Y-88307005D01*
X168276446Y-88307005D01*
X168043554Y-88307005D01*
X168043550Y-88307005D01*
X167813841Y-88345336D01*
X167813832Y-88345339D01*
X167593569Y-88420955D01*
X167593564Y-88420957D01*
X167593563Y-88420958D01*
X167388740Y-88531803D01*
X167379779Y-88538778D01*
X167204949Y-88674853D01*
X167047216Y-88846197D01*
X167047215Y-88846199D01*
X166919844Y-89041157D01*
X166919835Y-89041174D01*
X166826289Y-89254436D01*
X166826286Y-89254444D01*
X166769116Y-89480202D01*
X166769115Y-89480208D01*
X166749884Y-89712305D01*
X151659100Y-89712305D01*
X151659100Y-87509321D01*
X151679665Y-87452820D01*
X151721484Y-87425206D01*
X151725980Y-87423842D01*
X151815650Y-87396641D01*
X151989878Y-87303515D01*
X152142589Y-87178188D01*
X152267916Y-87025477D01*
X152361042Y-86851249D01*
X152418389Y-86662202D01*
X152437753Y-86465599D01*
X152962247Y-86465599D01*
X152980444Y-86650355D01*
X152981612Y-86662208D01*
X153038957Y-86851247D01*
X153038958Y-86851249D01*
X153132084Y-87025477D01*
X153257411Y-87178188D01*
X153410122Y-87303515D01*
X153584350Y-87396641D01*
X153674026Y-87423844D01*
X153769546Y-87452820D01*
X153773397Y-87453988D01*
X153970000Y-87473352D01*
X154166603Y-87453988D01*
X154355650Y-87396641D01*
X154529878Y-87303515D01*
X154682589Y-87178188D01*
X154807916Y-87025477D01*
X154901042Y-86851249D01*
X154958389Y-86662202D01*
X154977753Y-86465599D01*
X155502247Y-86465599D01*
X155520444Y-86650355D01*
X155521612Y-86662208D01*
X155578957Y-86851247D01*
X155578958Y-86851249D01*
X155672084Y-87025477D01*
X155797411Y-87178188D01*
X155950122Y-87303515D01*
X156124350Y-87396641D01*
X156214026Y-87423844D01*
X156309546Y-87452820D01*
X156313397Y-87453988D01*
X156510000Y-87473352D01*
X156706603Y-87453988D01*
X156895650Y-87396641D01*
X157069878Y-87303515D01*
X157222589Y-87178188D01*
X157347916Y-87025477D01*
X157441042Y-86851249D01*
X157498389Y-86662202D01*
X157517753Y-86465599D01*
X157498389Y-86268996D01*
X157441042Y-86079949D01*
X157347916Y-85905721D01*
X157222589Y-85753010D01*
X157069878Y-85627683D01*
X156895650Y-85534557D01*
X156895649Y-85534556D01*
X156895648Y-85534556D01*
X156706609Y-85477211D01*
X156706604Y-85477210D01*
X156706603Y-85477210D01*
X156510000Y-85457846D01*
X156509999Y-85457846D01*
X156462657Y-85462508D01*
X156313397Y-85477210D01*
X156313395Y-85477210D01*
X156313390Y-85477211D01*
X156124351Y-85534556D01*
X155950121Y-85627683D01*
X155797413Y-85753008D01*
X155797409Y-85753012D01*
X155672084Y-85905720D01*
X155578957Y-86079950D01*
X155521612Y-86268989D01*
X155521611Y-86268994D01*
X155521611Y-86268996D01*
X155502247Y-86465599D01*
X154977753Y-86465599D01*
X154958389Y-86268996D01*
X154901042Y-86079949D01*
X154807916Y-85905721D01*
X154682589Y-85753010D01*
X154529878Y-85627683D01*
X154355650Y-85534557D01*
X154355649Y-85534556D01*
X154355648Y-85534556D01*
X154166609Y-85477211D01*
X154166604Y-85477210D01*
X154166603Y-85477210D01*
X153970000Y-85457846D01*
X153773397Y-85477210D01*
X153773395Y-85477210D01*
X153773390Y-85477211D01*
X153584351Y-85534556D01*
X153410121Y-85627683D01*
X153257413Y-85753008D01*
X153257409Y-85753012D01*
X153132084Y-85905720D01*
X153038957Y-86079950D01*
X152981612Y-86268989D01*
X152981611Y-86268994D01*
X152981611Y-86268996D01*
X152962247Y-86465599D01*
X152437753Y-86465599D01*
X152418389Y-86268996D01*
X152361042Y-86079949D01*
X152267916Y-85905721D01*
X152142589Y-85753010D01*
X151989878Y-85627683D01*
X151815650Y-85534557D01*
X151815649Y-85534556D01*
X151815648Y-85534556D01*
X151626609Y-85477211D01*
X151626604Y-85477210D01*
X151626603Y-85477210D01*
X151430000Y-85457846D01*
X151233397Y-85477210D01*
X151233395Y-85477210D01*
X151233390Y-85477211D01*
X151044351Y-85534556D01*
X150870121Y-85627683D01*
X150717413Y-85753008D01*
X150717409Y-85753012D01*
X150592084Y-85905720D01*
X150498957Y-86079950D01*
X150441612Y-86268989D01*
X150441611Y-86268994D01*
X150441611Y-86268996D01*
X150422247Y-86465599D01*
X150440444Y-86650355D01*
X150441612Y-86662208D01*
X150498957Y-86851247D01*
X150498958Y-86851249D01*
X150592084Y-87025477D01*
X150717411Y-87178188D01*
X150870122Y-87303515D01*
X151044350Y-87396641D01*
X151134020Y-87423842D01*
X151138516Y-87425206D01*
X151186614Y-87461286D01*
X151200900Y-87509321D01*
X151200900Y-97572313D01*
X151180335Y-97628814D01*
X151175155Y-97634468D01*
X150520959Y-98288664D01*
X150466465Y-98314075D01*
X150408387Y-98298512D01*
X150395606Y-98285597D01*
X150394979Y-98286225D01*
X150389220Y-98280466D01*
X150389220Y-98280465D01*
X150309145Y-98200390D01*
X150274334Y-98185019D01*
X150230955Y-98143386D01*
X150224486Y-98083608D01*
X150257955Y-98033657D01*
X150274333Y-98024200D01*
X150309145Y-98008830D01*
X150389220Y-97928755D01*
X150434962Y-97825160D01*
X150437900Y-97799836D01*
X150437900Y-97409384D01*
X150434962Y-97384060D01*
X150389220Y-97280465D01*
X150309145Y-97200390D01*
X150309143Y-97200389D01*
X150205553Y-97154649D01*
X150205551Y-97154648D01*
X150205550Y-97154648D01*
X150198061Y-97153779D01*
X150180237Y-97151711D01*
X150180232Y-97151710D01*
X150180226Y-97151710D01*
X150180219Y-97151710D01*
X150068300Y-97151710D01*
X150011799Y-97131145D01*
X149981735Y-97079074D01*
X149980400Y-97063810D01*
X149980400Y-92308641D01*
X149982409Y-92289957D01*
X149984026Y-92282524D01*
X149980511Y-92233386D01*
X149980400Y-92230251D01*
X149980400Y-92214979D01*
X149980400Y-92214978D01*
X149978223Y-92199840D01*
X149977891Y-92196742D01*
X149974377Y-92147607D01*
X149974377Y-92147606D01*
X149974377Y-92147602D01*
X149971715Y-92140466D01*
X149967069Y-92122261D01*
X149965987Y-92114731D01*
X149945520Y-92069916D01*
X149944329Y-92067044D01*
X149927106Y-92020864D01*
X149922546Y-92014772D01*
X149912954Y-91998606D01*
X149909795Y-91991688D01*
X149877532Y-91954455D01*
X149875563Y-91952011D01*
X149872130Y-91947426D01*
X149866412Y-91939787D01*
X149866409Y-91939784D01*
X149855602Y-91928976D01*
X149853474Y-91926691D01*
X149821214Y-91889461D01*
X149814809Y-91885345D01*
X149800182Y-91873557D01*
X148785064Y-90858439D01*
X148773273Y-90843807D01*
X148769161Y-90837408D01*
X148769158Y-90837405D01*
X148731932Y-90805148D01*
X148729636Y-90803010D01*
X148718833Y-90792208D01*
X148706601Y-90783050D01*
X148704159Y-90781082D01*
X148666932Y-90748825D01*
X148660005Y-90745661D01*
X148643856Y-90736079D01*
X148637761Y-90731517D01*
X148637758Y-90731516D01*
X148637757Y-90731515D01*
X148619076Y-90724547D01*
X148591588Y-90714294D01*
X148588689Y-90713093D01*
X148543894Y-90692635D01*
X148543891Y-90692634D01*
X148541432Y-90692280D01*
X148536353Y-90691550D01*
X148518152Y-90686904D01*
X148511019Y-90684244D01*
X148461878Y-90680728D01*
X148458763Y-90680393D01*
X148443643Y-90678221D01*
X148428368Y-90678221D01*
X148425234Y-90678109D01*
X148419662Y-90677710D01*
X148376098Y-90674594D01*
X148368664Y-90676212D01*
X148349978Y-90678221D01*
X147663851Y-90678221D01*
X147557388Y-90693528D01*
X147557354Y-90693291D01*
X147540458Y-90695721D01*
X147139774Y-90695721D01*
X147139768Y-90695721D01*
X147139762Y-90695722D01*
X147114450Y-90698659D01*
X147114446Y-90698660D01*
X147010856Y-90744400D01*
X147010855Y-90744400D01*
X147010855Y-90744401D01*
X146964153Y-90791102D01*
X146909661Y-90816513D01*
X146851583Y-90800950D01*
X146817095Y-90751697D01*
X146814100Y-90728947D01*
X146814100Y-88779926D01*
X146834665Y-88723425D01*
X146839834Y-88717782D01*
X147791965Y-87765650D01*
X147793598Y-87764101D01*
X147824486Y-87736291D01*
X147834145Y-87714594D01*
X147840719Y-87702485D01*
X147853661Y-87682558D01*
X147854749Y-87675681D01*
X147861265Y-87653683D01*
X147864100Y-87647318D01*
X147864100Y-87623568D01*
X147865182Y-87609817D01*
X147868897Y-87586363D01*
X147868896Y-87586359D01*
X147868896Y-87586357D01*
X147867095Y-87579635D01*
X147864100Y-87556887D01*
X147864100Y-87024699D01*
X147884665Y-86968198D01*
X147936736Y-86938134D01*
X147995950Y-86948575D01*
X148029520Y-86983263D01*
X148052084Y-87025477D01*
X148177411Y-87178188D01*
X148330122Y-87303515D01*
X148504350Y-87396641D01*
X148594026Y-87423844D01*
X148689546Y-87452820D01*
X148693397Y-87453988D01*
X148890000Y-87473352D01*
X149086603Y-87453988D01*
X149275650Y-87396641D01*
X149449878Y-87303515D01*
X149602589Y-87178188D01*
X149727916Y-87025477D01*
X149821042Y-86851249D01*
X149878389Y-86662202D01*
X149897753Y-86465599D01*
X149878389Y-86268996D01*
X149821042Y-86079949D01*
X149727916Y-85905721D01*
X149602589Y-85753010D01*
X149449878Y-85627683D01*
X149275650Y-85534557D01*
X149275649Y-85534556D01*
X149275648Y-85534556D01*
X149086609Y-85477211D01*
X149086604Y-85477210D01*
X149086603Y-85477210D01*
X148890000Y-85457846D01*
X148889999Y-85457846D01*
X148842657Y-85462508D01*
X148693397Y-85477210D01*
X148693395Y-85477210D01*
X148693390Y-85477211D01*
X148504351Y-85534556D01*
X148330121Y-85627683D01*
X148177413Y-85753008D01*
X148177409Y-85753012D01*
X148052084Y-85905720D01*
X148029521Y-85947934D01*
X147984750Y-85988069D01*
X147924655Y-85990036D01*
X147877355Y-85952915D01*
X147864100Y-85906498D01*
X147864100Y-85217746D01*
X147864160Y-85215445D01*
X147864421Y-85210446D01*
X147866334Y-85173959D01*
X147857823Y-85151786D01*
X147853906Y-85138562D01*
X147848969Y-85115335D01*
X147848967Y-85115331D01*
X147844875Y-85109699D01*
X147833927Y-85089534D01*
X147831433Y-85083037D01*
X147831432Y-85083036D01*
X147831432Y-85083035D01*
X147814630Y-85066233D01*
X147805677Y-85055749D01*
X147804255Y-85053792D01*
X147791722Y-85036541D01*
X147791721Y-85036540D01*
X147791722Y-85036540D01*
X147785692Y-85033059D01*
X147767488Y-85019091D01*
X147250021Y-84501624D01*
X147224610Y-84447130D01*
X147234655Y-84398033D01*
X147281042Y-84311249D01*
X147338389Y-84122202D01*
X147357753Y-83925599D01*
X147882247Y-83925599D01*
X147891030Y-84014778D01*
X147901612Y-84122208D01*
X147951812Y-84287693D01*
X147958958Y-84311249D01*
X148052084Y-84485477D01*
X148177411Y-84638188D01*
X148330122Y-84763515D01*
X148504350Y-84856641D01*
X148693397Y-84913988D01*
X148890000Y-84933352D01*
X149086603Y-84913988D01*
X149275650Y-84856641D01*
X149449878Y-84763515D01*
X149602589Y-84638188D01*
X149727916Y-84485477D01*
X149821042Y-84311249D01*
X149878389Y-84122202D01*
X149897753Y-83925599D01*
X149878389Y-83728996D01*
X149860977Y-83671598D01*
X150433001Y-83671598D01*
X150433002Y-83671599D01*
X150998884Y-83671599D01*
X150970507Y-83715755D01*
X150930000Y-83853710D01*
X150930000Y-83997488D01*
X150970507Y-84135443D01*
X150998884Y-84179599D01*
X150433002Y-84179599D01*
X150475840Y-84320819D01*
X150475840Y-84320821D01*
X150571281Y-84499377D01*
X150699717Y-84655877D01*
X150699721Y-84655881D01*
X150856221Y-84784317D01*
X151034778Y-84879758D01*
X151175999Y-84922597D01*
X151176000Y-84922597D01*
X151176000Y-84359273D01*
X151287685Y-84410279D01*
X151394237Y-84425599D01*
X151465763Y-84425599D01*
X151572315Y-84410279D01*
X151684000Y-84359273D01*
X151684000Y-84922597D01*
X151825220Y-84879758D01*
X151825222Y-84879758D01*
X152003778Y-84784317D01*
X152160278Y-84655881D01*
X152160282Y-84655877D01*
X152288718Y-84499377D01*
X152384159Y-84320821D01*
X152384159Y-84320819D01*
X152426998Y-84179599D01*
X151861116Y-84179599D01*
X151889493Y-84135443D01*
X151930000Y-83997488D01*
X151930000Y-83853710D01*
X151889493Y-83715755D01*
X151861116Y-83671599D01*
X152426998Y-83671599D01*
X152426998Y-83671598D01*
X152973001Y-83671598D01*
X152973002Y-83671599D01*
X153538884Y-83671599D01*
X153510507Y-83715755D01*
X153470000Y-83853710D01*
X153470000Y-83997488D01*
X153510507Y-84135443D01*
X153538884Y-84179599D01*
X152973002Y-84179599D01*
X153015840Y-84320819D01*
X153015840Y-84320821D01*
X153111281Y-84499377D01*
X153239717Y-84655877D01*
X153239721Y-84655881D01*
X153396221Y-84784317D01*
X153574778Y-84879758D01*
X153715999Y-84922597D01*
X153716000Y-84922596D01*
X153716000Y-84359273D01*
X153827685Y-84410279D01*
X153934237Y-84425599D01*
X154005763Y-84425599D01*
X154112315Y-84410279D01*
X154224000Y-84359273D01*
X154224000Y-84922597D01*
X154365220Y-84879758D01*
X154365222Y-84879758D01*
X154543778Y-84784317D01*
X154700278Y-84655881D01*
X154700282Y-84655877D01*
X154828718Y-84499377D01*
X154924159Y-84320821D01*
X154924159Y-84320819D01*
X154966998Y-84179599D01*
X154401116Y-84179599D01*
X154429493Y-84135443D01*
X154470000Y-83997488D01*
X154470000Y-83925599D01*
X155502247Y-83925599D01*
X155511030Y-84014778D01*
X155521612Y-84122208D01*
X155571812Y-84287693D01*
X155578958Y-84311249D01*
X155672084Y-84485477D01*
X155797411Y-84638188D01*
X155950122Y-84763515D01*
X156124350Y-84856641D01*
X156313397Y-84913988D01*
X156510000Y-84933352D01*
X156706603Y-84913988D01*
X156895650Y-84856641D01*
X157069878Y-84763515D01*
X157222589Y-84638188D01*
X157347916Y-84485477D01*
X157441042Y-84311249D01*
X157498389Y-84122202D01*
X157517753Y-83925599D01*
X157498389Y-83728996D01*
X157441042Y-83539949D01*
X157347916Y-83365721D01*
X157222589Y-83213010D01*
X157069878Y-83087683D01*
X156895650Y-82994557D01*
X156895649Y-82994556D01*
X156895648Y-82994556D01*
X156706609Y-82937211D01*
X156706604Y-82937210D01*
X156706603Y-82937210D01*
X156510000Y-82917846D01*
X156313397Y-82937210D01*
X156313395Y-82937210D01*
X156313390Y-82937211D01*
X156124351Y-82994556D01*
X155950121Y-83087683D01*
X155797413Y-83213008D01*
X155797409Y-83213012D01*
X155672084Y-83365720D01*
X155578957Y-83539950D01*
X155521612Y-83728989D01*
X155521611Y-83728994D01*
X155521611Y-83728996D01*
X155502247Y-83925599D01*
X154470000Y-83925599D01*
X154470000Y-83853710D01*
X154429493Y-83715755D01*
X154401116Y-83671599D01*
X154966998Y-83671599D01*
X154966998Y-83671598D01*
X154924159Y-83530378D01*
X154924159Y-83530376D01*
X154828718Y-83351820D01*
X154700282Y-83195320D01*
X154700278Y-83195316D01*
X154543778Y-83066880D01*
X154365225Y-82971441D01*
X154224000Y-82928600D01*
X154224000Y-83491924D01*
X154112315Y-83440919D01*
X154005763Y-83425599D01*
X153934237Y-83425599D01*
X153827685Y-83440919D01*
X153716000Y-83491924D01*
X153716000Y-82928600D01*
X153574774Y-82971441D01*
X153396221Y-83066880D01*
X153239721Y-83195316D01*
X153239717Y-83195320D01*
X153111281Y-83351820D01*
X153015840Y-83530376D01*
X153015840Y-83530378D01*
X152973001Y-83671598D01*
X152426998Y-83671598D01*
X152384159Y-83530378D01*
X152384159Y-83530376D01*
X152288718Y-83351820D01*
X152160282Y-83195320D01*
X152160278Y-83195316D01*
X152003778Y-83066880D01*
X151825225Y-82971441D01*
X151684000Y-82928600D01*
X151684000Y-83491924D01*
X151572315Y-83440919D01*
X151465763Y-83425599D01*
X151394237Y-83425599D01*
X151287685Y-83440919D01*
X151176000Y-83491924D01*
X151176000Y-82928600D01*
X151034774Y-82971441D01*
X150856221Y-83066880D01*
X150699721Y-83195316D01*
X150699717Y-83195320D01*
X150571281Y-83351820D01*
X150475840Y-83530376D01*
X150475840Y-83530378D01*
X150433001Y-83671598D01*
X149860977Y-83671598D01*
X149821042Y-83539949D01*
X149727916Y-83365721D01*
X149602589Y-83213010D01*
X149449878Y-83087683D01*
X149275650Y-82994557D01*
X149275649Y-82994556D01*
X149275648Y-82994556D01*
X149086609Y-82937211D01*
X149086604Y-82937210D01*
X149086603Y-82937210D01*
X148890000Y-82917846D01*
X148693397Y-82937210D01*
X148693395Y-82937210D01*
X148693390Y-82937211D01*
X148504351Y-82994556D01*
X148330121Y-83087683D01*
X148177413Y-83213008D01*
X148177409Y-83213012D01*
X148052084Y-83365720D01*
X147958957Y-83539950D01*
X147901612Y-83728989D01*
X147901611Y-83728994D01*
X147901611Y-83728996D01*
X147882247Y-83925599D01*
X147357753Y-83925599D01*
X147338389Y-83728996D01*
X147281042Y-83539949D01*
X147187916Y-83365721D01*
X147062589Y-83213010D01*
X146909878Y-83087683D01*
X146735650Y-82994557D01*
X146735649Y-82994556D01*
X146735648Y-82994556D01*
X146546609Y-82937211D01*
X146546604Y-82937210D01*
X146546603Y-82937210D01*
X146350000Y-82917846D01*
X146153397Y-82937210D01*
X146153395Y-82937210D01*
X146153390Y-82937211D01*
X145964351Y-82994556D01*
X145790121Y-83087683D01*
X145637413Y-83213008D01*
X145637409Y-83213012D01*
X145512084Y-83365720D01*
X145418957Y-83539950D01*
X145361612Y-83728989D01*
X145361611Y-83728994D01*
X145361611Y-83728996D01*
X145342247Y-83925599D01*
X145351030Y-84014778D01*
X145361612Y-84122208D01*
X145411812Y-84287693D01*
X145418958Y-84311249D01*
X145512084Y-84485477D01*
X145637411Y-84638188D01*
X145790122Y-84763515D01*
X145964350Y-84856641D01*
X146153397Y-84913988D01*
X146350000Y-84933352D01*
X146546603Y-84913988D01*
X146735650Y-84856641D01*
X146822434Y-84810253D01*
X146881958Y-84801756D01*
X146926024Y-84825620D01*
X147380155Y-85279750D01*
X147405566Y-85334243D01*
X147405900Y-85341904D01*
X147405900Y-85962624D01*
X147385335Y-86019125D01*
X147333264Y-86049189D01*
X147274050Y-86038748D01*
X147240479Y-86004060D01*
X147218331Y-85962624D01*
X147187916Y-85905721D01*
X147062589Y-85753010D01*
X146909878Y-85627683D01*
X146735650Y-85534557D01*
X146735649Y-85534556D01*
X146735648Y-85534556D01*
X146546609Y-85477211D01*
X146546604Y-85477210D01*
X146546603Y-85477210D01*
X146350000Y-85457846D01*
X146153397Y-85477210D01*
X146153395Y-85477210D01*
X146153390Y-85477211D01*
X145964351Y-85534556D01*
X145790121Y-85627683D01*
X145637413Y-85753008D01*
X145637409Y-85753012D01*
X145512084Y-85905720D01*
X145418957Y-86079950D01*
X145361612Y-86268989D01*
X145361611Y-86268994D01*
X145361611Y-86268996D01*
X145342247Y-86465599D01*
X145360444Y-86650355D01*
X145361612Y-86662208D01*
X145418957Y-86851247D01*
X145418958Y-86851249D01*
X145512084Y-87025477D01*
X145637411Y-87178188D01*
X145790122Y-87303515D01*
X145964350Y-87396641D01*
X146054026Y-87423844D01*
X146149546Y-87452820D01*
X146153397Y-87453988D01*
X146350000Y-87473352D01*
X146546603Y-87453988D01*
X146735650Y-87396641D01*
X146909878Y-87303515D01*
X147062589Y-87178188D01*
X147187916Y-87025477D01*
X147240479Y-86927136D01*
X147285250Y-86887002D01*
X147345345Y-86885035D01*
X147392645Y-86922156D01*
X147405900Y-86968573D01*
X147405900Y-87467313D01*
X147385335Y-87523814D01*
X147380155Y-87529468D01*
X146428040Y-88481582D01*
X146426372Y-88483165D01*
X146395514Y-88510950D01*
X146395513Y-88510951D01*
X146395514Y-88510951D01*
X146385849Y-88532655D01*
X146379278Y-88544758D01*
X146370226Y-88558697D01*
X146366338Y-88564686D01*
X146365248Y-88571568D01*
X146358735Y-88593555D01*
X146355900Y-88599924D01*
X146355900Y-88623672D01*
X146354818Y-88637421D01*
X146351103Y-88660876D01*
X146351103Y-88660879D01*
X146352905Y-88667603D01*
X146355900Y-88690354D01*
X146355900Y-90785279D01*
X146335335Y-90841780D01*
X146283264Y-90871844D01*
X146224050Y-90861403D01*
X146195749Y-90829876D01*
X146193823Y-90831196D01*
X146189221Y-90824478D01*
X146189220Y-90824477D01*
X146189220Y-90824476D01*
X146109145Y-90744401D01*
X146079966Y-90731517D01*
X146005553Y-90698660D01*
X146005551Y-90698659D01*
X146005550Y-90698659D01*
X145998061Y-90697790D01*
X145980237Y-90695722D01*
X145980232Y-90695721D01*
X145980226Y-90695721D01*
X145980219Y-90695721D01*
X145568609Y-90695721D01*
X145544895Y-90692462D01*
X145445884Y-90664721D01*
X145445883Y-90664721D01*
X144431800Y-90664721D01*
X144375299Y-90644156D01*
X144345235Y-90592085D01*
X144343900Y-90576821D01*
X144343900Y-87556398D01*
X144364465Y-87499897D01*
X144416536Y-87469833D01*
X144431800Y-87468498D01*
X144675058Y-87468498D01*
X144687750Y-87465973D01*
X144719658Y-87459627D01*
X144770234Y-87425833D01*
X144804028Y-87375257D01*
X144812900Y-87330656D01*
X144812899Y-85600543D01*
X144812899Y-85600542D01*
X144812899Y-85600540D01*
X144809111Y-85581501D01*
X144804028Y-85555941D01*
X144770234Y-85505365D01*
X144770002Y-85505210D01*
X144719658Y-85471570D01*
X144682456Y-85464170D01*
X144675057Y-85462699D01*
X144675056Y-85462699D01*
X142944941Y-85462699D01*
X142900341Y-85471571D01*
X142849767Y-85505364D01*
X142849764Y-85505367D01*
X142815971Y-85555940D01*
X142807100Y-85600542D01*
X142807100Y-87330657D01*
X139672486Y-87330657D01*
X139725556Y-87305100D01*
X139951679Y-87150931D01*
X140152299Y-86964783D01*
X140322935Y-86750813D01*
X140459774Y-86513800D01*
X140559760Y-86259040D01*
X140620659Y-85992224D01*
X140632930Y-85828476D01*
X140641111Y-85719313D01*
X140641111Y-85719308D01*
X140627266Y-85534557D01*
X140620659Y-85446398D01*
X140559760Y-85179582D01*
X140459774Y-84924822D01*
X140322935Y-84687809D01*
X140152299Y-84473839D01*
X140132563Y-84455527D01*
X139987385Y-84320821D01*
X139951679Y-84287691D01*
X139951675Y-84287688D01*
X139951671Y-84287685D01*
X139725553Y-84133520D01*
X139725554Y-84133520D01*
X139478983Y-84014779D01*
X139422927Y-83997488D01*
X139217461Y-83934110D01*
X139217457Y-83934109D01*
X139217456Y-83934109D01*
X139160997Y-83925599D01*
X142802247Y-83925599D01*
X142811030Y-84014778D01*
X142821612Y-84122208D01*
X142871812Y-84287693D01*
X142878958Y-84311249D01*
X142972084Y-84485477D01*
X143097411Y-84638188D01*
X143250122Y-84763515D01*
X143424350Y-84856641D01*
X143613397Y-84913988D01*
X143810000Y-84933352D01*
X144006603Y-84913988D01*
X144195650Y-84856641D01*
X144369878Y-84763515D01*
X144522589Y-84638188D01*
X144647916Y-84485477D01*
X144741042Y-84311249D01*
X144798389Y-84122202D01*
X144817753Y-83925599D01*
X144798389Y-83728996D01*
X144741042Y-83539949D01*
X144647916Y-83365721D01*
X144522589Y-83213010D01*
X144369878Y-83087683D01*
X144195650Y-82994557D01*
X144195649Y-82994556D01*
X144195648Y-82994556D01*
X144006609Y-82937211D01*
X144006604Y-82937210D01*
X144006603Y-82937210D01*
X143810000Y-82917846D01*
X143613397Y-82937210D01*
X143613395Y-82937210D01*
X143613390Y-82937211D01*
X143424351Y-82994556D01*
X143250121Y-83087683D01*
X143097413Y-83213008D01*
X143097409Y-83213012D01*
X142972084Y-83365720D01*
X142878957Y-83539950D01*
X142821612Y-83728989D01*
X142821611Y-83728994D01*
X142821611Y-83728996D01*
X142802247Y-83925599D01*
X139160997Y-83925599D01*
X139117952Y-83919111D01*
X139065147Y-83890355D01*
X139043180Y-83834384D01*
X139062330Y-83777388D01*
X139087099Y-83756071D01*
X146770598Y-79320000D01*
X148749884Y-79320000D01*
X148769115Y-79552096D01*
X148769116Y-79552102D01*
X148826286Y-79777860D01*
X148826289Y-79777868D01*
X148897987Y-79941321D01*
X148919840Y-79991141D01*
X148919844Y-79991147D01*
X149047215Y-80186105D01*
X149047216Y-80186107D01*
X149047220Y-80186111D01*
X149204954Y-80357456D01*
X149388740Y-80500502D01*
X149593563Y-80611347D01*
X149813837Y-80686967D01*
X149813839Y-80686967D01*
X149813841Y-80686968D01*
X150043550Y-80725300D01*
X150043554Y-80725300D01*
X150276450Y-80725300D01*
X150506158Y-80686968D01*
X150506158Y-80686967D01*
X150506163Y-80686967D01*
X150726437Y-80611347D01*
X150931260Y-80500502D01*
X151115046Y-80357456D01*
X151272780Y-80186111D01*
X151400160Y-79991141D01*
X151493712Y-79777864D01*
X151550884Y-79552097D01*
X151570116Y-79320000D01*
X151550884Y-79087903D01*
X151550883Y-79087897D01*
X151493713Y-78862139D01*
X151493710Y-78862131D01*
X151400164Y-78648869D01*
X151400160Y-78648859D01*
X151319435Y-78525300D01*
X151272784Y-78453894D01*
X151272783Y-78453892D01*
X151115050Y-78282548D01*
X151115048Y-78282547D01*
X151115046Y-78282544D01*
X150931260Y-78139498D01*
X150726437Y-78028653D01*
X150726433Y-78028651D01*
X150726430Y-78028650D01*
X150506167Y-77953034D01*
X150506158Y-77953031D01*
X150276450Y-77914700D01*
X150276446Y-77914700D01*
X150043554Y-77914700D01*
X150043550Y-77914700D01*
X149813841Y-77953031D01*
X149813832Y-77953034D01*
X149593569Y-78028650D01*
X149388740Y-78139498D01*
X149204949Y-78282548D01*
X149047216Y-78453892D01*
X149047215Y-78453894D01*
X148919844Y-78648852D01*
X148919835Y-78648869D01*
X148826289Y-78862131D01*
X148826286Y-78862139D01*
X148769116Y-79087897D01*
X148769115Y-79087903D01*
X148749884Y-79320000D01*
X146770598Y-79320000D01*
X150116050Y-77388502D01*
X150175263Y-77378062D01*
X150203946Y-77388502D01*
G37*
%TD.AperFunction*%
%TD*%
M02*
