%TF.GenerationSoftware,KiCad,Pcbnew,7.0.5*%
%TF.CreationDate,2024-01-26T22:43:11-05:00*%
%TF.ProjectId,SCD30_ADAPTER,53434433-305f-4414-9441-505445522e6b,rev?*%
%TF.SameCoordinates,Original*%
%TF.FileFunction,Legend,Top*%
%TF.FilePolarity,Positive*%
%FSLAX46Y46*%
G04 Gerber Fmt 4.6, Leading zero omitted, Abs format (unit mm)*
G04 Created by KiCad (PCBNEW 7.0.5) date 2024-01-26 22:43:11*
%MOMM*%
%LPD*%
G01*
G04 APERTURE LIST*
%ADD10C,0.120000*%
G04 APERTURE END LIST*
D10*
%TO.C,R1*%
X144900121Y-101203621D02*
X144564879Y-101203621D01*
X144900121Y-100443621D02*
X144564879Y-100443621D01*
%TO.C,J4*%
X153370000Y-94508621D02*
X155490000Y-94508621D01*
X153370000Y-94448621D02*
X153370000Y-94508621D01*
X153370000Y-92388621D02*
X154430000Y-92388621D01*
X153370000Y-94448621D02*
X155490000Y-94448621D01*
X155490000Y-94448621D02*
X155490000Y-94508621D01*
X153370000Y-93448621D02*
X153370000Y-92388621D01*
%TO.C,J3*%
X154425000Y-103164610D02*
X153435000Y-103164610D01*
X154425000Y-104214610D02*
X154425000Y-103164610D01*
X154425000Y-95994610D02*
X154425000Y-97044610D01*
X156925000Y-95994610D02*
X154425000Y-95994610D01*
X156925000Y-104214610D02*
X154425000Y-104214610D01*
X158895000Y-103044610D02*
X158895000Y-97164610D01*
%TO.C,U1*%
X146460000Y-100114610D02*
X145660000Y-100114610D01*
X146460000Y-96994610D02*
X144660000Y-96994610D01*
X146460000Y-96994610D02*
X147260000Y-96994610D01*
X146460000Y-100114610D02*
X147260000Y-100114610D01*
%TO.C,C1*%
X144868335Y-96608621D02*
X144636665Y-96608621D01*
X144868335Y-95888621D02*
X144636665Y-95888621D01*
%TO.C,J1*%
X142480000Y-87795599D02*
X142480000Y-86465599D01*
X143810000Y-87795599D02*
X142480000Y-87795599D01*
X145080000Y-87795599D02*
X157840000Y-87795599D01*
X145080000Y-87795599D02*
X145080000Y-85195599D01*
X157840000Y-87795599D02*
X157840000Y-82595599D01*
X142480000Y-85195599D02*
X142480000Y-82595599D01*
X145080000Y-85195599D02*
X142480000Y-85195599D01*
X142480000Y-82595599D02*
X157840000Y-82595599D01*
%TO.C,J2*%
X157840000Y-112413621D02*
X157840000Y-113743621D01*
X156510000Y-112413621D02*
X157840000Y-112413621D01*
X155240000Y-112413621D02*
X142480000Y-112413621D01*
X155240000Y-112413621D02*
X155240000Y-115013621D01*
X142480000Y-112413621D02*
X142480000Y-117613621D01*
X157840000Y-115013621D02*
X157840000Y-117613621D01*
X155240000Y-115013621D02*
X157840000Y-115013621D01*
X157840000Y-117613621D02*
X142480000Y-117613621D01*
%TD*%
M02*
