%TF.GenerationSoftware,KiCad,Pcbnew,7.0.5*%
%TF.CreationDate,2024-01-26T22:43:11-05:00*%
%TF.ProjectId,SCD30_ADAPTER,53434433-305f-4414-9441-505445522e6b,rev?*%
%TF.SameCoordinates,Original*%
%TF.FileFunction,Soldermask,Top*%
%TF.FilePolarity,Negative*%
%FSLAX46Y46*%
G04 Gerber Fmt 4.6, Leading zero omitted, Abs format (unit mm)*
G04 Created by KiCad (PCBNEW 7.0.5) date 2024-01-26 22:43:11*
%MOMM*%
%LPD*%
G01*
G04 APERTURE LIST*
G04 Aperture macros list*
%AMRoundRect*
0 Rectangle with rounded corners*
0 $1 Rounding radius*
0 $2 $3 $4 $5 $6 $7 $8 $9 X,Y pos of 4 corners*
0 Add a 4 corners polygon primitive as box body*
4,1,4,$2,$3,$4,$5,$6,$7,$8,$9,$2,$3,0*
0 Add four circle primitives for the rounded corners*
1,1,$1+$1,$2,$3*
1,1,$1+$1,$4,$5*
1,1,$1+$1,$6,$7*
1,1,$1+$1,$8,$9*
0 Add four rect primitives between the rounded corners*
20,1,$1+$1,$2,$3,$4,$5,0*
20,1,$1+$1,$4,$5,$6,$7,0*
20,1,$1+$1,$6,$7,$8,$9,0*
20,1,$1+$1,$8,$9,$2,$3,0*%
G04 Aperture macros list end*
%ADD10RoundRect,0.160000X0.197500X0.160000X-0.197500X0.160000X-0.197500X-0.160000X0.197500X-0.160000X0*%
%ADD11R,1.350000X1.350000*%
%ADD12RoundRect,0.150000X0.625000X-0.150000X0.625000X0.150000X-0.625000X0.150000X-0.625000X-0.150000X0*%
%ADD13RoundRect,0.250000X0.650000X-0.350000X0.650000X0.350000X-0.650000X0.350000X-0.650000X-0.350000X0*%
%ADD14RoundRect,0.150000X-0.512500X-0.150000X0.512500X-0.150000X0.512500X0.150000X-0.512500X0.150000X0*%
%ADD15RoundRect,0.155000X0.212500X0.155000X-0.212500X0.155000X-0.212500X-0.155000X0.212500X-0.155000X0*%
%ADD16R,1.700000X1.700000*%
%ADD17O,1.700000X1.700000*%
G04 APERTURE END LIST*
D10*
%TO.C,R1*%
X145330000Y-100823621D03*
X144135000Y-100823621D03*
%TD*%
D11*
%TO.C,J4*%
X154430000Y-93448621D03*
%TD*%
D12*
%TO.C,J3*%
X154210000Y-102604610D03*
X154210000Y-101604610D03*
X154210000Y-100604610D03*
X154210000Y-99604610D03*
X154210000Y-98604610D03*
X154210000Y-97604610D03*
D13*
X158085000Y-96304610D03*
X158085000Y-103904610D03*
%TD*%
D14*
%TO.C,U1*%
X145322500Y-97604610D03*
X145322500Y-98554610D03*
X145322500Y-99504610D03*
X147597500Y-99504610D03*
X147597500Y-97604610D03*
%TD*%
D15*
%TO.C,C1*%
X145320000Y-96248621D03*
X144185000Y-96248621D03*
%TD*%
D16*
%TO.C,J1*%
X143810000Y-86465599D03*
D17*
X143810000Y-83925599D03*
X146350000Y-86465599D03*
X146350000Y-83925599D03*
X148890000Y-86465599D03*
X148890000Y-83925599D03*
X151430000Y-86465599D03*
X151430000Y-83925599D03*
X153970000Y-86465599D03*
X153970000Y-83925599D03*
X156510000Y-86465599D03*
X156510000Y-83925599D03*
%TD*%
D16*
%TO.C,J2*%
X156510000Y-113743621D03*
D17*
X156510000Y-116283621D03*
X153970000Y-113743621D03*
X153970000Y-116283621D03*
X151430000Y-113743621D03*
X151430000Y-116283621D03*
X148890000Y-113743621D03*
X148890000Y-116283621D03*
X146350000Y-113743621D03*
X146350000Y-116283621D03*
X143810000Y-113743621D03*
X143810000Y-116283621D03*
%TD*%
M02*
