M48
; DRILL file {KiCad 7.0.5} date Fri Jan 26 22:43:13 2024
; FORMAT={-:-/ absolute / inch / decimal}
; #@! TF.CreationDate,2024-01-26T22:43:13-05:00
; #@! TF.GenerationSoftware,Kicad,Pcbnew,7.0.5
; #@! TF.FileFunction,Plated,1,2,PTH
FMAT,2
INCH
; #@! TA.AperFunction,Plated,PTH,ViaDrill
T1C0.0130
; #@! TA.AperFunction,Plated,PTH,ComponentDrill
T2C0.0315
; #@! TA.AperFunction,Plated,PTH,ComponentDrill
T3C0.0394
%
G90
G05
T1
X5.2031Y-3.6692
X5.2031Y-3.748
X5.2031Y-3.8267
X5.2031Y-3.9055
X5.2031Y-3.9842
X5.2031Y-4.0629
X5.2031Y-4.1417
X5.2031Y-4.2204
X5.2819Y-3.6692
X5.2819Y-3.748
X5.2819Y-3.8267
X5.2819Y-3.9055
X5.2819Y-3.9842
X5.2819Y-4.0629
X5.2819Y-4.1417
X5.2819Y-4.2204
X5.3606Y-3.5118
X5.3606Y-3.5905
X5.3606Y-3.6692
X5.3606Y-3.748
X5.3606Y-3.8267
X5.3606Y-3.9055
X5.3606Y-3.9842
X5.3606Y-4.0629
X5.3606Y-4.1417
X5.3606Y-4.2204
X5.3606Y-4.2992
X5.3606Y-4.3779
X5.3606Y-4.4566
X5.4394Y-3.5118
X5.4394Y-3.5905
X5.4394Y-3.6692
X5.4394Y-3.748
X5.4394Y-3.8267
X5.4394Y-3.9055
X5.4394Y-3.9842
X5.4394Y-4.0629
X5.4394Y-4.1417
X5.4394Y-4.2204
X5.4394Y-4.2992
X5.4394Y-4.3779
X5.4394Y-4.4566
X5.5181Y-3.5118
X5.5181Y-3.5905
X5.5181Y-3.6692
X5.5181Y-3.748
X5.5181Y-3.8267
X5.5181Y-3.9055
X5.5181Y-3.9842
X5.5181Y-4.0629
X5.5181Y-4.1417
X5.5181Y-4.2204
X5.5181Y-4.2992
X5.5181Y-4.3779
X5.5181Y-4.4566
X5.5181Y-4.5354
X5.5969Y-3.5118
X5.5969Y-3.5905
X5.5969Y-3.6692
X5.5969Y-3.748
X5.5969Y-3.8267
X5.5969Y-3.9055
X5.5969Y-3.9842
X5.5969Y-4.0629
X5.5969Y-4.1417
X5.5969Y-4.2204
X5.5969Y-4.2992
X5.5969Y-4.3779
X5.6756Y-3.2362
X5.6756Y-4.0629
X5.6756Y-4.1417
X5.6756Y-4.2204
X5.6756Y-4.2992
X5.6756Y-4.3779
X5.6756Y-4.6535
X5.715Y-3.5118
X5.715Y-3.5905
X5.715Y-3.6692
X5.7543Y-3.1574
X5.7543Y-3.2362
X5.7543Y-4.0629
X5.7543Y-4.1417
X5.7543Y-4.2204
X5.7543Y-4.2992
X5.7543Y-4.3779
X5.7543Y-4.6535
X5.7543Y-4.7125
X5.7937Y-3.5118
X5.7937Y-3.5905
X5.7937Y-3.6692
X5.7937Y-3.748
X5.8331Y-3.2362
X5.8331Y-4.6535
X5.8724Y-3.5118
X5.8724Y-3.5905
X5.8724Y-3.6692
X5.8724Y-3.748
X5.8724Y-3.9055
X5.8724Y-3.9842
X5.8724Y-4.0629
X5.8724Y-4.1417
X5.8724Y-4.2204
X5.8724Y-4.2992
X5.8724Y-4.3779
X5.9118Y-3.2362
X5.9118Y-4.6535
X5.9512Y-3.5118
X5.9512Y-3.5905
X5.9512Y-3.6692
X5.9512Y-3.748
X5.9512Y-3.9055
X5.9512Y-3.9842
X5.9512Y-4.0629
X5.9512Y-4.1417
X5.9512Y-4.2204
X5.9512Y-4.2992
X5.9512Y-4.3779
X5.9906Y-3.2362
X5.9906Y-4.6535
X6.0299Y-3.5118
X6.0299Y-3.5905
X6.0299Y-4.1417
X6.0299Y-4.2204
X6.0299Y-4.2992
X6.0299Y-4.3779
X6.0693Y-3.1574
X6.0693Y-3.2362
X6.0693Y-4.6535
X6.0693Y-4.7125
X6.1087Y-3.5118
X6.1087Y-3.5905
X6.1087Y-4.1417
X6.1087Y-4.2204
X6.1087Y-4.2992
X6.1087Y-4.3779
X6.148Y-3.2362
X6.148Y-4.6535
X6.1874Y-4.2204
X6.1874Y-4.2992
X6.1874Y-4.3779
X6.2268Y-3.5118
X6.2268Y-3.5905
X6.2268Y-3.6692
X6.2268Y-3.9055
X6.2661Y-3.3543
X6.2661Y-4.2204
X6.2661Y-4.2992
X6.2661Y-4.3779
X6.2661Y-4.4566
X6.2661Y-4.5354
X6.3449Y-3.3543
X6.3449Y-3.433
X6.3449Y-3.5118
X6.3449Y-3.5905
X6.3449Y-3.6692
X6.3449Y-3.748
X6.3449Y-3.8267
X6.3449Y-3.9055
X6.3449Y-3.9842
X6.3449Y-4.0629
X6.3449Y-4.1417
X6.3449Y-4.2204
X6.3449Y-4.2992
X6.3449Y-4.3779
X6.3449Y-4.4566
X6.3449Y-4.5354
X6.4236Y-3.433
X6.4236Y-3.5118
X6.4236Y-3.5905
X6.4236Y-3.6692
X6.4236Y-3.748
X6.4236Y-3.8267
X6.4236Y-3.9055
X6.4236Y-3.9842
X6.4236Y-4.0629
X6.4236Y-4.1417
X6.4236Y-4.2204
X6.4236Y-4.2992
X6.4236Y-4.3779
X6.4236Y-4.4566
X6.5024Y-3.5118
X6.5024Y-3.5905
X6.5024Y-3.6692
X6.5024Y-3.748
X6.5024Y-3.8267
X6.5417Y-3.9055
X6.5417Y-3.9842
X6.5417Y-4.0629
X6.5417Y-4.1417
X6.5417Y-4.2204
X6.6205Y-3.9055
X6.6205Y-3.9842
X6.6205Y-4.0629
X6.6205Y-4.1417
X6.6205Y-4.2204
T2
X6.0799Y-3.6791
T3
X5.6618Y-3.3042
X5.6618Y-3.4042
X5.6618Y-4.4781
X5.6618Y-4.5781
X5.7618Y-3.3042
X5.7618Y-3.4042
X5.7618Y-4.4781
X5.7618Y-4.5781
X5.8618Y-3.3042
X5.8618Y-3.4042
X5.8618Y-4.4781
X5.8618Y-4.5781
X5.9618Y-3.3042
X5.9618Y-3.4042
X5.9618Y-4.4781
X5.9618Y-4.5781
X6.0618Y-3.3042
X6.0618Y-3.4042
X6.0618Y-4.4781
X6.0618Y-4.5781
X6.1618Y-3.3042
X6.1618Y-3.4042
X6.1618Y-4.4781
X6.1618Y-4.5781
T0
M30
