%TF.GenerationSoftware,KiCad,Pcbnew,7.0.5*%
%TF.CreationDate,2024-01-17T23:09:27-05:00*%
%TF.ProjectId,BURNING_R,4255524e-494e-4475-9f52-2e6b69636164,rev?*%
%TF.SameCoordinates,Original*%
%TF.FileFunction,Legend,Bot*%
%TF.FilePolarity,Positive*%
%FSLAX46Y46*%
G04 Gerber Fmt 4.6, Leading zero omitted, Abs format (unit mm)*
G04 Created by KiCad (PCBNEW 7.0.5) date 2024-01-17 23:09:27*
%MOMM*%
%LPD*%
G01*
G04 APERTURE LIST*
%ADD10C,0.150000*%
%ADD11C,0.120000*%
G04 APERTURE END LIST*
D10*
%TO.C,R4*%
X155156666Y-89833440D02*
X155489999Y-89357249D01*
X155728094Y-89833440D02*
X155728094Y-88833440D01*
X155728094Y-88833440D02*
X155347142Y-88833440D01*
X155347142Y-88833440D02*
X155251904Y-88881059D01*
X155251904Y-88881059D02*
X155204285Y-88928678D01*
X155204285Y-88928678D02*
X155156666Y-89023916D01*
X155156666Y-89023916D02*
X155156666Y-89166773D01*
X155156666Y-89166773D02*
X155204285Y-89262011D01*
X155204285Y-89262011D02*
X155251904Y-89309630D01*
X155251904Y-89309630D02*
X155347142Y-89357249D01*
X155347142Y-89357249D02*
X155728094Y-89357249D01*
X154299523Y-89166773D02*
X154299523Y-89833440D01*
X154537618Y-88785821D02*
X154775713Y-89500106D01*
X154775713Y-89500106D02*
X154156666Y-89500106D01*
%TO.C,R9*%
X154386666Y-100863440D02*
X154719999Y-100387249D01*
X154958094Y-100863440D02*
X154958094Y-99863440D01*
X154958094Y-99863440D02*
X154577142Y-99863440D01*
X154577142Y-99863440D02*
X154481904Y-99911059D01*
X154481904Y-99911059D02*
X154434285Y-99958678D01*
X154434285Y-99958678D02*
X154386666Y-100053916D01*
X154386666Y-100053916D02*
X154386666Y-100196773D01*
X154386666Y-100196773D02*
X154434285Y-100292011D01*
X154434285Y-100292011D02*
X154481904Y-100339630D01*
X154481904Y-100339630D02*
X154577142Y-100387249D01*
X154577142Y-100387249D02*
X154958094Y-100387249D01*
X153910475Y-100863440D02*
X153719999Y-100863440D01*
X153719999Y-100863440D02*
X153624761Y-100815821D01*
X153624761Y-100815821D02*
X153577142Y-100768201D01*
X153577142Y-100768201D02*
X153481904Y-100625344D01*
X153481904Y-100625344D02*
X153434285Y-100434868D01*
X153434285Y-100434868D02*
X153434285Y-100053916D01*
X153434285Y-100053916D02*
X153481904Y-99958678D01*
X153481904Y-99958678D02*
X153529523Y-99911059D01*
X153529523Y-99911059D02*
X153624761Y-99863440D01*
X153624761Y-99863440D02*
X153815237Y-99863440D01*
X153815237Y-99863440D02*
X153910475Y-99911059D01*
X153910475Y-99911059D02*
X153958094Y-99958678D01*
X153958094Y-99958678D02*
X154005713Y-100053916D01*
X154005713Y-100053916D02*
X154005713Y-100292011D01*
X154005713Y-100292011D02*
X153958094Y-100387249D01*
X153958094Y-100387249D02*
X153910475Y-100434868D01*
X153910475Y-100434868D02*
X153815237Y-100482487D01*
X153815237Y-100482487D02*
X153624761Y-100482487D01*
X153624761Y-100482487D02*
X153529523Y-100434868D01*
X153529523Y-100434868D02*
X153481904Y-100387249D01*
X153481904Y-100387249D02*
X153434285Y-100292011D01*
%TO.C,R8*%
X140436666Y-97683440D02*
X140769999Y-97207249D01*
X141008094Y-97683440D02*
X141008094Y-96683440D01*
X141008094Y-96683440D02*
X140627142Y-96683440D01*
X140627142Y-96683440D02*
X140531904Y-96731059D01*
X140531904Y-96731059D02*
X140484285Y-96778678D01*
X140484285Y-96778678D02*
X140436666Y-96873916D01*
X140436666Y-96873916D02*
X140436666Y-97016773D01*
X140436666Y-97016773D02*
X140484285Y-97112011D01*
X140484285Y-97112011D02*
X140531904Y-97159630D01*
X140531904Y-97159630D02*
X140627142Y-97207249D01*
X140627142Y-97207249D02*
X141008094Y-97207249D01*
X139865237Y-97112011D02*
X139960475Y-97064392D01*
X139960475Y-97064392D02*
X140008094Y-97016773D01*
X140008094Y-97016773D02*
X140055713Y-96921535D01*
X140055713Y-96921535D02*
X140055713Y-96873916D01*
X140055713Y-96873916D02*
X140008094Y-96778678D01*
X140008094Y-96778678D02*
X139960475Y-96731059D01*
X139960475Y-96731059D02*
X139865237Y-96683440D01*
X139865237Y-96683440D02*
X139674761Y-96683440D01*
X139674761Y-96683440D02*
X139579523Y-96731059D01*
X139579523Y-96731059D02*
X139531904Y-96778678D01*
X139531904Y-96778678D02*
X139484285Y-96873916D01*
X139484285Y-96873916D02*
X139484285Y-96921535D01*
X139484285Y-96921535D02*
X139531904Y-97016773D01*
X139531904Y-97016773D02*
X139579523Y-97064392D01*
X139579523Y-97064392D02*
X139674761Y-97112011D01*
X139674761Y-97112011D02*
X139865237Y-97112011D01*
X139865237Y-97112011D02*
X139960475Y-97159630D01*
X139960475Y-97159630D02*
X140008094Y-97207249D01*
X140008094Y-97207249D02*
X140055713Y-97302487D01*
X140055713Y-97302487D02*
X140055713Y-97492963D01*
X140055713Y-97492963D02*
X140008094Y-97588201D01*
X140008094Y-97588201D02*
X139960475Y-97635821D01*
X139960475Y-97635821D02*
X139865237Y-97683440D01*
X139865237Y-97683440D02*
X139674761Y-97683440D01*
X139674761Y-97683440D02*
X139579523Y-97635821D01*
X139579523Y-97635821D02*
X139531904Y-97588201D01*
X139531904Y-97588201D02*
X139484285Y-97492963D01*
X139484285Y-97492963D02*
X139484285Y-97302487D01*
X139484285Y-97302487D02*
X139531904Y-97207249D01*
X139531904Y-97207249D02*
X139579523Y-97159630D01*
X139579523Y-97159630D02*
X139674761Y-97112011D01*
%TO.C,R5*%
X161286666Y-91243440D02*
X161619999Y-90767249D01*
X161858094Y-91243440D02*
X161858094Y-90243440D01*
X161858094Y-90243440D02*
X161477142Y-90243440D01*
X161477142Y-90243440D02*
X161381904Y-90291059D01*
X161381904Y-90291059D02*
X161334285Y-90338678D01*
X161334285Y-90338678D02*
X161286666Y-90433916D01*
X161286666Y-90433916D02*
X161286666Y-90576773D01*
X161286666Y-90576773D02*
X161334285Y-90672011D01*
X161334285Y-90672011D02*
X161381904Y-90719630D01*
X161381904Y-90719630D02*
X161477142Y-90767249D01*
X161477142Y-90767249D02*
X161858094Y-90767249D01*
X160381904Y-90243440D02*
X160858094Y-90243440D01*
X160858094Y-90243440D02*
X160905713Y-90719630D01*
X160905713Y-90719630D02*
X160858094Y-90672011D01*
X160858094Y-90672011D02*
X160762856Y-90624392D01*
X160762856Y-90624392D02*
X160524761Y-90624392D01*
X160524761Y-90624392D02*
X160429523Y-90672011D01*
X160429523Y-90672011D02*
X160381904Y-90719630D01*
X160381904Y-90719630D02*
X160334285Y-90814868D01*
X160334285Y-90814868D02*
X160334285Y-91052963D01*
X160334285Y-91052963D02*
X160381904Y-91148201D01*
X160381904Y-91148201D02*
X160429523Y-91195821D01*
X160429523Y-91195821D02*
X160524761Y-91243440D01*
X160524761Y-91243440D02*
X160762856Y-91243440D01*
X160762856Y-91243440D02*
X160858094Y-91195821D01*
X160858094Y-91195821D02*
X160905713Y-91148201D01*
%TO.C,C4*%
X148546666Y-89838201D02*
X148594285Y-89885821D01*
X148594285Y-89885821D02*
X148737142Y-89933440D01*
X148737142Y-89933440D02*
X148832380Y-89933440D01*
X148832380Y-89933440D02*
X148975237Y-89885821D01*
X148975237Y-89885821D02*
X149070475Y-89790582D01*
X149070475Y-89790582D02*
X149118094Y-89695344D01*
X149118094Y-89695344D02*
X149165713Y-89504868D01*
X149165713Y-89504868D02*
X149165713Y-89362011D01*
X149165713Y-89362011D02*
X149118094Y-89171535D01*
X149118094Y-89171535D02*
X149070475Y-89076297D01*
X149070475Y-89076297D02*
X148975237Y-88981059D01*
X148975237Y-88981059D02*
X148832380Y-88933440D01*
X148832380Y-88933440D02*
X148737142Y-88933440D01*
X148737142Y-88933440D02*
X148594285Y-88981059D01*
X148594285Y-88981059D02*
X148546666Y-89028678D01*
X147689523Y-89266773D02*
X147689523Y-89933440D01*
X147927618Y-88885821D02*
X148165713Y-89600106D01*
X148165713Y-89600106D02*
X147546666Y-89600106D01*
%TO.C,R10*%
X146942857Y-100853440D02*
X147276190Y-100377249D01*
X147514285Y-100853440D02*
X147514285Y-99853440D01*
X147514285Y-99853440D02*
X147133333Y-99853440D01*
X147133333Y-99853440D02*
X147038095Y-99901059D01*
X147038095Y-99901059D02*
X146990476Y-99948678D01*
X146990476Y-99948678D02*
X146942857Y-100043916D01*
X146942857Y-100043916D02*
X146942857Y-100186773D01*
X146942857Y-100186773D02*
X146990476Y-100282011D01*
X146990476Y-100282011D02*
X147038095Y-100329630D01*
X147038095Y-100329630D02*
X147133333Y-100377249D01*
X147133333Y-100377249D02*
X147514285Y-100377249D01*
X145990476Y-100853440D02*
X146561904Y-100853440D01*
X146276190Y-100853440D02*
X146276190Y-99853440D01*
X146276190Y-99853440D02*
X146371428Y-99996297D01*
X146371428Y-99996297D02*
X146466666Y-100091535D01*
X146466666Y-100091535D02*
X146561904Y-100139154D01*
X145371428Y-99853440D02*
X145276190Y-99853440D01*
X145276190Y-99853440D02*
X145180952Y-99901059D01*
X145180952Y-99901059D02*
X145133333Y-99948678D01*
X145133333Y-99948678D02*
X145085714Y-100043916D01*
X145085714Y-100043916D02*
X145038095Y-100234392D01*
X145038095Y-100234392D02*
X145038095Y-100472487D01*
X145038095Y-100472487D02*
X145085714Y-100662963D01*
X145085714Y-100662963D02*
X145133333Y-100758201D01*
X145133333Y-100758201D02*
X145180952Y-100805821D01*
X145180952Y-100805821D02*
X145276190Y-100853440D01*
X145276190Y-100853440D02*
X145371428Y-100853440D01*
X145371428Y-100853440D02*
X145466666Y-100805821D01*
X145466666Y-100805821D02*
X145514285Y-100758201D01*
X145514285Y-100758201D02*
X145561904Y-100662963D01*
X145561904Y-100662963D02*
X145609523Y-100472487D01*
X145609523Y-100472487D02*
X145609523Y-100234392D01*
X145609523Y-100234392D02*
X145561904Y-100043916D01*
X145561904Y-100043916D02*
X145514285Y-99948678D01*
X145514285Y-99948678D02*
X145466666Y-99901059D01*
X145466666Y-99901059D02*
X145371428Y-99853440D01*
%TO.C,R11*%
X139042857Y-100863440D02*
X139376190Y-100387249D01*
X139614285Y-100863440D02*
X139614285Y-99863440D01*
X139614285Y-99863440D02*
X139233333Y-99863440D01*
X139233333Y-99863440D02*
X139138095Y-99911059D01*
X139138095Y-99911059D02*
X139090476Y-99958678D01*
X139090476Y-99958678D02*
X139042857Y-100053916D01*
X139042857Y-100053916D02*
X139042857Y-100196773D01*
X139042857Y-100196773D02*
X139090476Y-100292011D01*
X139090476Y-100292011D02*
X139138095Y-100339630D01*
X139138095Y-100339630D02*
X139233333Y-100387249D01*
X139233333Y-100387249D02*
X139614285Y-100387249D01*
X138090476Y-100863440D02*
X138661904Y-100863440D01*
X138376190Y-100863440D02*
X138376190Y-99863440D01*
X138376190Y-99863440D02*
X138471428Y-100006297D01*
X138471428Y-100006297D02*
X138566666Y-100101535D01*
X138566666Y-100101535D02*
X138661904Y-100149154D01*
X137138095Y-100863440D02*
X137709523Y-100863440D01*
X137423809Y-100863440D02*
X137423809Y-99863440D01*
X137423809Y-99863440D02*
X137519047Y-100006297D01*
X137519047Y-100006297D02*
X137614285Y-100101535D01*
X137614285Y-100101535D02*
X137709523Y-100149154D01*
%TO.C,R7*%
X148256666Y-97673440D02*
X148589999Y-97197249D01*
X148828094Y-97673440D02*
X148828094Y-96673440D01*
X148828094Y-96673440D02*
X148447142Y-96673440D01*
X148447142Y-96673440D02*
X148351904Y-96721059D01*
X148351904Y-96721059D02*
X148304285Y-96768678D01*
X148304285Y-96768678D02*
X148256666Y-96863916D01*
X148256666Y-96863916D02*
X148256666Y-97006773D01*
X148256666Y-97006773D02*
X148304285Y-97102011D01*
X148304285Y-97102011D02*
X148351904Y-97149630D01*
X148351904Y-97149630D02*
X148447142Y-97197249D01*
X148447142Y-97197249D02*
X148828094Y-97197249D01*
X147923332Y-96673440D02*
X147256666Y-96673440D01*
X147256666Y-96673440D02*
X147685237Y-97673440D01*
%TO.C,R6*%
X156216666Y-97683440D02*
X156549999Y-97207249D01*
X156788094Y-97683440D02*
X156788094Y-96683440D01*
X156788094Y-96683440D02*
X156407142Y-96683440D01*
X156407142Y-96683440D02*
X156311904Y-96731059D01*
X156311904Y-96731059D02*
X156264285Y-96778678D01*
X156264285Y-96778678D02*
X156216666Y-96873916D01*
X156216666Y-96873916D02*
X156216666Y-97016773D01*
X156216666Y-97016773D02*
X156264285Y-97112011D01*
X156264285Y-97112011D02*
X156311904Y-97159630D01*
X156311904Y-97159630D02*
X156407142Y-97207249D01*
X156407142Y-97207249D02*
X156788094Y-97207249D01*
X155359523Y-96683440D02*
X155549999Y-96683440D01*
X155549999Y-96683440D02*
X155645237Y-96731059D01*
X155645237Y-96731059D02*
X155692856Y-96778678D01*
X155692856Y-96778678D02*
X155788094Y-96921535D01*
X155788094Y-96921535D02*
X155835713Y-97112011D01*
X155835713Y-97112011D02*
X155835713Y-97492963D01*
X155835713Y-97492963D02*
X155788094Y-97588201D01*
X155788094Y-97588201D02*
X155740475Y-97635821D01*
X155740475Y-97635821D02*
X155645237Y-97683440D01*
X155645237Y-97683440D02*
X155454761Y-97683440D01*
X155454761Y-97683440D02*
X155359523Y-97635821D01*
X155359523Y-97635821D02*
X155311904Y-97588201D01*
X155311904Y-97588201D02*
X155264285Y-97492963D01*
X155264285Y-97492963D02*
X155264285Y-97254868D01*
X155264285Y-97254868D02*
X155311904Y-97159630D01*
X155311904Y-97159630D02*
X155359523Y-97112011D01*
X155359523Y-97112011D02*
X155454761Y-97064392D01*
X155454761Y-97064392D02*
X155645237Y-97064392D01*
X155645237Y-97064392D02*
X155740475Y-97112011D01*
X155740475Y-97112011D02*
X155788094Y-97159630D01*
X155788094Y-97159630D02*
X155835713Y-97254868D01*
D11*
%TO.C,C6*%
X153740000Y-94782354D02*
X153740000Y-95074888D01*
X154760000Y-94782354D02*
X154760000Y-95074888D01*
%TO.C,R3*%
X157147224Y-90536121D02*
X156637776Y-90536121D01*
X157147224Y-91581121D02*
X156637776Y-91581121D01*
%TO.C,R4*%
X157375276Y-89881121D02*
X157884724Y-89881121D01*
X157375276Y-88836121D02*
X157884724Y-88836121D01*
%TO.C,R9*%
X154474724Y-102361121D02*
X153965276Y-102361121D01*
X154474724Y-101316121D02*
X153965276Y-101316121D01*
%TO.C,R8*%
X140524724Y-99181121D02*
X140015276Y-99181121D01*
X140524724Y-98136121D02*
X140015276Y-98136121D01*
%TO.C,U3*%
X157130000Y-91948621D02*
X156330000Y-91948621D01*
X157130000Y-91948621D02*
X157930000Y-91948621D01*
X157130000Y-95068621D02*
X155330000Y-95068621D01*
X157130000Y-95068621D02*
X157930000Y-95068621D01*
%TO.C,R5*%
X160865276Y-88836121D02*
X161374724Y-88836121D01*
X160865276Y-89881121D02*
X161374724Y-89881121D01*
%TO.C,R1*%
X151294724Y-91721121D02*
X150785276Y-91721121D01*
X151294724Y-90676121D02*
X150785276Y-90676121D01*
%TO.C,C4*%
X145896267Y-89978621D02*
X145603733Y-89978621D01*
X145896267Y-88958621D02*
X145603733Y-88958621D01*
%TO.C,R10*%
X146554724Y-102351121D02*
X146045276Y-102351121D01*
X146554724Y-101306121D02*
X146045276Y-101306121D01*
%TO.C,R11*%
X138654724Y-102361121D02*
X138145276Y-102361121D01*
X138654724Y-101316121D02*
X138145276Y-101316121D01*
%TO.C,R2*%
X150785276Y-92966121D02*
X151294724Y-92966121D01*
X150785276Y-94011121D02*
X151294724Y-94011121D01*
%TO.C,U2*%
X145990000Y-92348621D02*
X145990000Y-93148621D01*
X145990000Y-92348621D02*
X145990000Y-91548621D01*
X149110000Y-92348621D02*
X149110000Y-94148621D01*
X149110000Y-92348621D02*
X149110000Y-91548621D01*
%TO.C,R7*%
X148344724Y-99171121D02*
X147835276Y-99171121D01*
X148344724Y-98126121D02*
X147835276Y-98126121D01*
%TO.C,R6*%
X156304724Y-99181121D02*
X155795276Y-99181121D01*
X156304724Y-98136121D02*
X155795276Y-98136121D01*
%TO.C,C5*%
X161108767Y-94968621D02*
X160816233Y-94968621D01*
X161108767Y-93948621D02*
X160816233Y-93948621D01*
%TD*%
M02*
