%TF.GenerationSoftware,KiCad,Pcbnew,7.0.5*%
%TF.CreationDate,2024-01-17T23:09:27-05:00*%
%TF.ProjectId,BURNING_R,4255524e-494e-4475-9f52-2e6b69636164,rev?*%
%TF.SameCoordinates,Original*%
%TF.FileFunction,Soldermask,Bot*%
%TF.FilePolarity,Negative*%
%FSLAX46Y46*%
G04 Gerber Fmt 4.6, Leading zero omitted, Abs format (unit mm)*
G04 Created by KiCad (PCBNEW 7.0.5) date 2024-01-17 23:09:27*
%MOMM*%
%LPD*%
G01*
G04 APERTURE LIST*
G04 Aperture macros list*
%AMRoundRect*
0 Rectangle with rounded corners*
0 $1 Rounding radius*
0 $2 $3 $4 $5 $6 $7 $8 $9 X,Y pos of 4 corners*
0 Add a 4 corners polygon primitive as box body*
4,1,4,$2,$3,$4,$5,$6,$7,$8,$9,$2,$3,0*
0 Add four circle primitives for the rounded corners*
1,1,$1+$1,$2,$3*
1,1,$1+$1,$4,$5*
1,1,$1+$1,$6,$7*
1,1,$1+$1,$8,$9*
0 Add four rect primitives between the rounded corners*
20,1,$1+$1,$2,$3,$4,$5,0*
20,1,$1+$1,$4,$5,$6,$7,0*
20,1,$1+$1,$6,$7,$8,$9,0*
20,1,$1+$1,$8,$9,$2,$3,0*%
G04 Aperture macros list end*
%ADD10RoundRect,0.237500X-0.237500X0.300000X-0.237500X-0.300000X0.237500X-0.300000X0.237500X0.300000X0*%
%ADD11R,1.350000X1.350000*%
%ADD12O,1.350000X1.350000*%
%ADD13R,1.700000X1.700000*%
%ADD14O,1.700000X1.700000*%
%ADD15RoundRect,0.237500X0.250000X0.237500X-0.250000X0.237500X-0.250000X-0.237500X0.250000X-0.237500X0*%
%ADD16RoundRect,0.237500X-0.250000X-0.237500X0.250000X-0.237500X0.250000X0.237500X-0.250000X0.237500X0*%
%ADD17RoundRect,0.150000X-0.512500X-0.150000X0.512500X-0.150000X0.512500X0.150000X-0.512500X0.150000X0*%
%ADD18RoundRect,0.237500X0.300000X0.237500X-0.300000X0.237500X-0.300000X-0.237500X0.300000X-0.237500X0*%
%ADD19RoundRect,0.150000X0.150000X-0.512500X0.150000X0.512500X-0.150000X0.512500X-0.150000X-0.512500X0*%
G04 APERTURE END LIST*
D10*
%TO.C,C6*%
X154250000Y-94066121D03*
X154250000Y-95791121D03*
%TD*%
D11*
%TO.C,J10*%
X132000000Y-103548621D03*
D12*
X132000000Y-101548621D03*
%TD*%
D13*
%TO.C,J1*%
X143810000Y-86465599D03*
D14*
X143810000Y-83925599D03*
X146350000Y-86465599D03*
X146350000Y-83925599D03*
X148890000Y-86465599D03*
X148890000Y-83925599D03*
X151430000Y-86465599D03*
X151430000Y-83925599D03*
X153970000Y-86465599D03*
X153970000Y-83925599D03*
X156510000Y-86465599D03*
X156510000Y-83925599D03*
%TD*%
D13*
%TO.C,J2*%
X156510000Y-113743621D03*
D14*
X156510000Y-116283621D03*
X153970000Y-113743621D03*
X153970000Y-116283621D03*
X151430000Y-113743621D03*
X151430000Y-116283621D03*
X148890000Y-113743621D03*
X148890000Y-116283621D03*
X146350000Y-113743621D03*
X146350000Y-116283621D03*
X143810000Y-113743621D03*
X143810000Y-116283621D03*
%TD*%
D11*
%TO.C,J9*%
X132000000Y-97418621D03*
D12*
X132000000Y-95418621D03*
%TD*%
D15*
%TO.C,R3*%
X157805000Y-91058621D03*
X155980000Y-91058621D03*
%TD*%
D16*
%TO.C,R4*%
X158542500Y-89358621D03*
X156717500Y-89358621D03*
%TD*%
D15*
%TO.C,R9*%
X155132500Y-101838621D03*
X153307500Y-101838621D03*
%TD*%
%TO.C,R8*%
X141182500Y-98658621D03*
X139357500Y-98658621D03*
%TD*%
D17*
%TO.C,U3*%
X155992500Y-94458621D03*
X155992500Y-93508621D03*
X155992500Y-92558621D03*
X158267500Y-92558621D03*
X158267500Y-94458621D03*
%TD*%
D16*
%TO.C,R5*%
X160207500Y-89358621D03*
X162032500Y-89358621D03*
%TD*%
D15*
%TO.C,R1*%
X151952500Y-91198621D03*
X150127500Y-91198621D03*
%TD*%
D18*
%TO.C,C4*%
X146612500Y-89468621D03*
X144887500Y-89468621D03*
%TD*%
D15*
%TO.C,R10*%
X147212500Y-101828621D03*
X145387500Y-101828621D03*
%TD*%
%TO.C,R11*%
X139312500Y-101838621D03*
X137487500Y-101838621D03*
%TD*%
D16*
%TO.C,R2*%
X150127500Y-93488621D03*
X151952500Y-93488621D03*
%TD*%
D19*
%TO.C,U2*%
X148500000Y-93486121D03*
X147550000Y-93486121D03*
X146600000Y-93486121D03*
X146600000Y-91211121D03*
X148500000Y-91211121D03*
%TD*%
D15*
%TO.C,R7*%
X149002500Y-98648621D03*
X147177500Y-98648621D03*
%TD*%
%TO.C,R6*%
X156962500Y-98658621D03*
X155137500Y-98658621D03*
%TD*%
D18*
%TO.C,C5*%
X161825000Y-94458621D03*
X160100000Y-94458621D03*
%TD*%
M02*
