M48
; DRILL file {KiCad 7.0.5} date Wed Jan 17 23:09:29 2024
; FORMAT={-:-/ absolute / inch / decimal}
; #@! TF.CreationDate,2024-01-17T23:09:29-05:00
; #@! TF.GenerationSoftware,Kicad,Pcbnew,7.0.5
; #@! TF.FileFunction,Plated,1,2,PTH
FMAT,2
INCH
; #@! TA.AperFunction,Plated,PTH,ViaDrill
T1C0.0130
; #@! TA.AperFunction,Plated,PTH,ComponentDrill
T2C0.0315
; #@! TA.AperFunction,Plated,PTH,ComponentDrill
T3C0.0394
%
G90
G05
T1
X5.2819Y-3.433
X5.2819Y-3.5118
X5.2819Y-3.5905
X5.2819Y-3.6692
X5.2819Y-4.1417
X5.2819Y-4.2204
X5.2819Y-4.2992
X5.2819Y-4.3779
X5.2819Y-4.4566
X5.3606Y-3.433
X5.3606Y-3.5118
X5.3606Y-3.5905
X5.3606Y-3.6692
X5.3606Y-4.2204
X5.3606Y-4.2992
X5.3606Y-4.3779
X5.3606Y-4.4566
X5.4394Y-3.433
X5.4394Y-3.5118
X5.4394Y-4.3779
X5.4394Y-4.4566
X5.4394Y-4.5354
X5.4846Y-4.011
X5.5079Y-3.4212
X5.5181Y-3.5118
X5.5181Y-3.5905
X5.5181Y-4.2992
X5.5181Y-4.3779
X5.5181Y-4.4566
X5.5181Y-4.5354
X5.5583Y-3.8818
X5.5772Y-3.2952
X5.5969Y-3.433
X5.6362Y-3.8858
X5.6362Y-4.0236
X5.6756Y-3.2362
X5.6756Y-4.1417
X5.6756Y-4.2204
X5.6756Y-4.6535
X5.7543Y-3.2362
X5.7543Y-4.3779
X5.7543Y-4.6535
X5.7724Y-3.522
X5.7961Y-4.0114
X5.8331Y-3.1574
X5.8331Y-3.2362
X5.8331Y-4.2992
X5.8331Y-4.3779
X5.8331Y-4.6535
X5.8331Y-4.7322
X5.8665Y-3.8818
X5.9118Y-3.2362
X5.9118Y-4.3779
X5.9118Y-4.6535
X5.9512Y-3.8858
X5.9512Y-4.0236
X5.9906Y-3.1574
X5.9906Y-3.2362
X5.9906Y-4.1417
X5.9906Y-4.2204
X5.9906Y-4.3779
X5.9906Y-4.6535
X5.9906Y-4.7322
X6.0693Y-3.2362
X6.0693Y-4.3779
X6.0693Y-4.6535
X6.1075Y-4.0114
X6.148Y-3.2362
X6.148Y-4.2204
X6.148Y-4.2992
X6.148Y-4.3779
X6.148Y-4.6535
X6.1811Y-3.8818
X6.2268Y-4.3779
X6.3055Y-3.3543
X6.3055Y-3.433
X6.3055Y-4.1417
X6.3055Y-4.2204
X6.3055Y-4.2992
X6.3055Y-4.3779
X6.3055Y-4.4566
X6.3055Y-4.5354
X6.3071Y-3.5188
X6.3843Y-3.3543
X6.3843Y-3.433
X6.3843Y-4.1417
X6.3843Y-4.2204
X6.3843Y-4.2992
X6.3843Y-4.3779
X6.3843Y-4.4566
X6.3843Y-4.5354
X6.4177Y-4.0118
X6.4187Y-3.9281
X6.4472Y-4.0934
X6.4482Y-3.9862
X6.4512Y-3.9458
X6.4587Y-3.8871
X6.463Y-3.433
X6.463Y-3.5118
X6.463Y-4.1417
X6.463Y-4.2204
X6.463Y-4.2992
X6.463Y-4.3779
X6.463Y-4.4566
X6.523Y-3.8769
X6.5417Y-3.433
X6.5417Y-3.5118
X6.5417Y-3.5905
X6.5417Y-4.1417
X6.5417Y-4.2204
X6.5575Y-4.0665
X6.6205Y-3.6692
X6.6205Y-4.1417
X6.6205Y-4.2204
T2
X5.1969Y-3.7566
X5.1969Y-3.8354
X5.1969Y-3.998
X5.1969Y-4.0767
T3
X5.6618Y-3.3042
X5.6618Y-3.4042
X5.6618Y-4.4781
X5.6618Y-4.5781
X5.7618Y-3.3042
X5.7618Y-3.4042
X5.7618Y-4.4781
X5.7618Y-4.5781
X5.8618Y-3.3042
X5.8618Y-3.4042
X5.8618Y-4.4781
X5.8618Y-4.5781
X5.9618Y-3.3042
X5.9618Y-3.4042
X5.9618Y-4.4781
X5.9618Y-4.5781
X6.0618Y-3.3042
X6.0618Y-3.4042
X6.0618Y-4.4781
X6.0618Y-4.5781
X6.1618Y-3.3042
X6.1618Y-3.4042
X6.1618Y-4.4781
X6.1618Y-4.5781
T0
M30
