%TF.GenerationSoftware,KiCad,Pcbnew,7.0.5*%
%TF.CreationDate,2024-01-17T23:09:27-05:00*%
%TF.ProjectId,BURNING_R,4255524e-494e-4475-9f52-2e6b69636164,rev?*%
%TF.SameCoordinates,Original*%
%TF.FileFunction,Copper,L2,Bot*%
%TF.FilePolarity,Positive*%
%FSLAX46Y46*%
G04 Gerber Fmt 4.6, Leading zero omitted, Abs format (unit mm)*
G04 Created by KiCad (PCBNEW 7.0.5) date 2024-01-17 23:09:27*
%MOMM*%
%LPD*%
G01*
G04 APERTURE LIST*
G04 Aperture macros list*
%AMRoundRect*
0 Rectangle with rounded corners*
0 $1 Rounding radius*
0 $2 $3 $4 $5 $6 $7 $8 $9 X,Y pos of 4 corners*
0 Add a 4 corners polygon primitive as box body*
4,1,4,$2,$3,$4,$5,$6,$7,$8,$9,$2,$3,0*
0 Add four circle primitives for the rounded corners*
1,1,$1+$1,$2,$3*
1,1,$1+$1,$4,$5*
1,1,$1+$1,$6,$7*
1,1,$1+$1,$8,$9*
0 Add four rect primitives between the rounded corners*
20,1,$1+$1,$2,$3,$4,$5,0*
20,1,$1+$1,$4,$5,$6,$7,0*
20,1,$1+$1,$6,$7,$8,$9,0*
20,1,$1+$1,$8,$9,$2,$3,0*%
G04 Aperture macros list end*
%TA.AperFunction,SMDPad,CuDef*%
%ADD10RoundRect,0.237500X-0.237500X0.300000X-0.237500X-0.300000X0.237500X-0.300000X0.237500X0.300000X0*%
%TD*%
%TA.AperFunction,ComponentPad*%
%ADD11R,1.350000X1.350000*%
%TD*%
%TA.AperFunction,ComponentPad*%
%ADD12O,1.350000X1.350000*%
%TD*%
%TA.AperFunction,ComponentPad*%
%ADD13R,1.700000X1.700000*%
%TD*%
%TA.AperFunction,ComponentPad*%
%ADD14O,1.700000X1.700000*%
%TD*%
%TA.AperFunction,SMDPad,CuDef*%
%ADD15RoundRect,0.237500X0.250000X0.237500X-0.250000X0.237500X-0.250000X-0.237500X0.250000X-0.237500X0*%
%TD*%
%TA.AperFunction,SMDPad,CuDef*%
%ADD16RoundRect,0.237500X-0.250000X-0.237500X0.250000X-0.237500X0.250000X0.237500X-0.250000X0.237500X0*%
%TD*%
%TA.AperFunction,SMDPad,CuDef*%
%ADD17RoundRect,0.150000X-0.512500X-0.150000X0.512500X-0.150000X0.512500X0.150000X-0.512500X0.150000X0*%
%TD*%
%TA.AperFunction,SMDPad,CuDef*%
%ADD18RoundRect,0.237500X0.300000X0.237500X-0.300000X0.237500X-0.300000X-0.237500X0.300000X-0.237500X0*%
%TD*%
%TA.AperFunction,SMDPad,CuDef*%
%ADD19RoundRect,0.150000X0.150000X-0.512500X0.150000X0.512500X-0.150000X0.512500X-0.150000X-0.512500X0*%
%TD*%
%TA.AperFunction,ViaPad*%
%ADD20C,0.660400*%
%TD*%
%TA.AperFunction,Conductor*%
%ADD21C,0.152400*%
%TD*%
%TA.AperFunction,Conductor*%
%ADD22C,0.762000*%
%TD*%
%TA.AperFunction,Conductor*%
%ADD23C,0.508000*%
%TD*%
%TA.AperFunction,Conductor*%
%ADD24C,1.000000*%
%TD*%
G04 APERTURE END LIST*
D10*
%TO.P,C6,1*%
%TO.N,/VBAT*%
X154250000Y-94066121D03*
%TO.P,C6,2*%
%TO.N,GND*%
X154250000Y-95791121D03*
%TD*%
D11*
%TO.P,J10,1,Pin_1*%
%TO.N,GND*%
X132000000Y-103548621D03*
D12*
%TO.P,J10,2,Pin_2*%
%TO.N,Net-(J10-Pin_2)*%
X132000000Y-101548621D03*
%TD*%
D13*
%TO.P,J1,1,Pin_1*%
%TO.N,/VBAT*%
X143810000Y-86465599D03*
D14*
%TO.P,J1,2,Pin_2*%
%TO.N,/D8*%
X143810000Y-83925599D03*
%TO.P,J1,3,Pin_3*%
%TO.N,/A5*%
X146350000Y-86465599D03*
%TO.P,J1,4,Pin_4*%
%TO.N,/A3*%
X146350000Y-83925599D03*
%TO.P,J1,5,Pin_5*%
%TO.N,+5V*%
X148890000Y-86465599D03*
%TO.P,J1,6,Pin_6*%
%TO.N,/A2*%
X148890000Y-83925599D03*
%TO.P,J1,7,Pin_7*%
%TO.N,/RXD*%
X151430000Y-86465599D03*
%TO.P,J1,8,Pin_8*%
%TO.N,GND*%
X151430000Y-83925599D03*
%TO.P,J1,9,Pin_9*%
%TO.N,/BURN_EN*%
X153970000Y-86465599D03*
%TO.P,J1,10,Pin_10*%
%TO.N,GND*%
X153970000Y-83925599D03*
%TO.P,J1,11,Pin_11*%
%TO.N,/SDA*%
X156510000Y-86465599D03*
%TO.P,J1,12,Pin_12*%
%TO.N,/SCL*%
X156510000Y-83925599D03*
%TD*%
D13*
%TO.P,J2,1,Pin_1*%
%TO.N,/D12*%
X156510000Y-113743621D03*
D14*
%TO.P,J2,2,Pin_2*%
%TO.N,/D10*%
X156510000Y-116283621D03*
%TO.P,J2,3,Pin_3*%
%TO.N,/MOSI*%
X153970000Y-113743621D03*
%TO.P,J2,4,Pin_4*%
%TO.N,/D1*%
X153970000Y-116283621D03*
%TO.P,J2,5,Pin_5*%
%TO.N,/SCK*%
X151430000Y-113743621D03*
%TO.P,J2,6,Pin_6*%
%TO.N,/D3*%
X151430000Y-116283621D03*
%TO.P,J2,7,Pin_7*%
%TO.N,/D2*%
X148890000Y-113743621D03*
%TO.P,J2,8,Pin_8*%
%TO.N,/A4*%
X148890000Y-116283621D03*
%TO.P,J2,9,Pin_9*%
%TO.N,/MISO*%
X146350000Y-113743621D03*
%TO.P,J2,10,Pin_10*%
%TO.N,GND*%
X146350000Y-116283621D03*
%TO.P,J2,11,Pin_11*%
%TO.N,/BAT_BR*%
X143810000Y-113743621D03*
%TO.P,J2,12,Pin_12*%
%TO.N,GND*%
X143810000Y-116283621D03*
%TD*%
D11*
%TO.P,J9,1,Pin_1*%
%TO.N,Net-(J10-Pin_2)*%
X132000000Y-97418621D03*
D12*
%TO.P,J9,2,Pin_2*%
%TO.N,/BAT_BR*%
X132000000Y-95418621D03*
%TD*%
D15*
%TO.P,R3,1*%
%TO.N,GND*%
X157805000Y-91058621D03*
%TO.P,R3,2*%
%TO.N,/BURN_EN*%
X155980000Y-91058621D03*
%TD*%
D16*
%TO.P,R4,2*%
%TO.N,/SCL*%
X158542500Y-89358621D03*
%TO.P,R4,1*%
%TO.N,VCC*%
X156717500Y-89358621D03*
%TD*%
D15*
%TO.P,R9,1*%
%TO.N,/BR_3_EN*%
X155132500Y-101838621D03*
%TO.P,R9,2*%
%TO.N,GND*%
X153307500Y-101838621D03*
%TD*%
%TO.P,R8,1*%
%TO.N,/BR_4_EN*%
X141182500Y-98658621D03*
%TO.P,R8,2*%
%TO.N,GND*%
X139357500Y-98658621D03*
%TD*%
D17*
%TO.P,U3,1,VIN*%
%TO.N,/VBAT*%
X155992500Y-94458621D03*
%TO.P,U3,2,GND*%
%TO.N,GND*%
X155992500Y-93508621D03*
%TO.P,U3,3,EN*%
%TO.N,/BURN_EN*%
X155992500Y-92558621D03*
%TO.P,U3,4,NC*%
%TO.N,unconnected-(U3-NC-Pad4)*%
X158267500Y-92558621D03*
%TO.P,U3,5,VOUT*%
%TO.N,VCC*%
X158267500Y-94458621D03*
%TD*%
D16*
%TO.P,R5,1*%
%TO.N,VCC*%
X160207500Y-89358621D03*
%TO.P,R5,2*%
%TO.N,/SDA*%
X162032500Y-89358621D03*
%TD*%
D15*
%TO.P,R1,1*%
%TO.N,GND*%
X151952500Y-91198621D03*
%TO.P,R1,2*%
%TO.N,Net-(U2-PROG)*%
X150127500Y-91198621D03*
%TD*%
D18*
%TO.P,C4,1*%
%TO.N,+5V*%
X146612500Y-89468621D03*
%TO.P,C4,2*%
%TO.N,GND*%
X144887500Y-89468621D03*
%TD*%
D15*
%TO.P,R10,1*%
%TO.N,/BR_2_EN*%
X147212500Y-101828621D03*
%TO.P,R10,2*%
%TO.N,GND*%
X145387500Y-101828621D03*
%TD*%
%TO.P,R11,1*%
%TO.N,/BR_1_EN*%
X139312500Y-101838621D03*
%TO.P,R11,2*%
%TO.N,GND*%
X137487500Y-101838621D03*
%TD*%
D16*
%TO.P,R2,1*%
%TO.N,Net-(U2-STAT)*%
X150127500Y-93488621D03*
%TO.P,R2,2*%
%TO.N,Net-(D1-K)*%
X151952500Y-93488621D03*
%TD*%
D19*
%TO.P,U2,1,STAT*%
%TO.N,Net-(U2-STAT)*%
X148500000Y-93486121D03*
%TO.P,U2,2,VSS*%
%TO.N,GND*%
X147550000Y-93486121D03*
%TO.P,U2,3,VBAT*%
%TO.N,/BAT_BR*%
X146600000Y-93486121D03*
%TO.P,U2,4,VDD*%
%TO.N,+5V*%
X146600000Y-91211121D03*
%TO.P,U2,5,PROG*%
%TO.N,Net-(U2-PROG)*%
X148500000Y-91211121D03*
%TD*%
D15*
%TO.P,R7,1*%
%TO.N,/BR_5_EN*%
X149002500Y-98648621D03*
%TO.P,R7,2*%
%TO.N,GND*%
X147177500Y-98648621D03*
%TD*%
%TO.P,R6,1*%
%TO.N,/BR_6_EN*%
X156962500Y-98658621D03*
%TO.P,R6,2*%
%TO.N,GND*%
X155137500Y-98658621D03*
%TD*%
D18*
%TO.P,C5,1*%
%TO.N,GND*%
X161825000Y-94458621D03*
%TO.P,C5,2*%
%TO.N,VCC*%
X160100000Y-94458621D03*
%TD*%
D20*
%TO.N,GND*%
X168160000Y-105198621D03*
X166160000Y-107198621D03*
X166160000Y-105198621D03*
X164160000Y-105198621D03*
X164160000Y-107198621D03*
X162160000Y-107198621D03*
X162160000Y-109198621D03*
X160160000Y-109198621D03*
X160160000Y-111198621D03*
X158160000Y-111198621D03*
%TO.N,+5V*%
X146620000Y-89458621D03*
%TO.N,GND*%
X134160000Y-109198621D03*
X144160000Y-105198621D03*
X134160000Y-111198621D03*
X134160000Y-91198621D03*
X152160000Y-118198621D03*
X162160000Y-87198621D03*
X164160000Y-109198621D03*
X150160000Y-82198621D03*
X148160000Y-111198621D03*
X150160000Y-111198621D03*
X136160000Y-89198621D03*
X138160000Y-89198621D03*
X166160000Y-89198621D03*
X151160000Y-98698621D03*
X140160000Y-111198621D03*
X152160000Y-111198621D03*
X136160000Y-113198621D03*
X140160000Y-89198621D03*
X148160000Y-120198621D03*
X144160000Y-107198621D03*
X140160000Y-91198621D03*
X152160000Y-120198621D03*
X146160000Y-82198621D03*
X140160000Y-109198621D03*
X134160000Y-107198621D03*
X146160000Y-118198621D03*
X156160000Y-82198621D03*
X162160000Y-105198621D03*
X134160000Y-87198621D03*
X134160000Y-93198621D03*
X152160000Y-107198621D03*
X136160000Y-93198621D03*
X136160000Y-87198621D03*
X138160000Y-111198621D03*
X154160000Y-82198621D03*
X162160000Y-111198621D03*
X152160000Y-105198621D03*
X162160000Y-113198621D03*
X134160000Y-105198621D03*
X136160000Y-111198621D03*
X146160000Y-111198621D03*
X154160000Y-111198621D03*
X142160000Y-87198621D03*
X154160000Y-118198621D03*
X164160000Y-111198621D03*
X148160000Y-82198621D03*
X134160000Y-113198621D03*
X160160000Y-85198621D03*
X136160000Y-109198621D03*
X156160000Y-109198621D03*
X141660000Y-83698621D03*
X166160000Y-87198621D03*
X160160000Y-87198621D03*
X162160000Y-85198621D03*
X136160000Y-91198621D03*
X160160000Y-107198621D03*
X148160000Y-80198621D03*
X156160000Y-107198621D03*
X144160000Y-82198621D03*
X148160000Y-118198621D03*
X156160000Y-118198621D03*
X138160000Y-115198621D03*
X143160000Y-98698621D03*
X164160000Y-87198621D03*
X168160000Y-93198621D03*
X162160000Y-115198621D03*
X136160000Y-107198621D03*
X134160000Y-89198621D03*
X168160000Y-107198621D03*
X138160000Y-113198621D03*
X164160000Y-113198621D03*
X160160000Y-115198621D03*
X152160000Y-82198621D03*
X150160000Y-118198621D03*
X140160000Y-113198621D03*
X166160000Y-91198621D03*
X144160000Y-118198621D03*
X164160000Y-89198621D03*
X152160000Y-80198621D03*
X156160000Y-111198621D03*
X140160000Y-115198621D03*
X143160000Y-102198621D03*
X151160000Y-102198621D03*
X160160000Y-105198621D03*
X148160000Y-109198621D03*
X138160000Y-87198621D03*
X160160000Y-113198621D03*
%TO.N,VCC*%
X160200000Y-89378621D03*
%TO.N,/SDA*%
X165685000Y-98473621D03*
%TO.N,/SCL*%
X164051348Y-98732273D03*
%TO.N,/BR_1_EN*%
X139310000Y-101878621D03*
X163760000Y-103973621D03*
%TO.N,/BR_2_EN*%
X147220000Y-101888621D03*
X166560000Y-103288621D03*
%TO.N,/BR_3_EN*%
X163010000Y-101898621D03*
X155130000Y-101888621D03*
%TO.N,/BR_4_EN*%
X163035000Y-99773621D03*
X141180000Y-98598621D03*
%TO.N,/BR_5_EN*%
X149010000Y-98598621D03*
X163860000Y-100223621D03*
%TO.N,/BR_6_EN*%
X157000000Y-98598621D03*
X163785000Y-101248621D03*
%TO.N,Net-(D1-K)*%
X139900000Y-86898621D03*
%TD*%
D21*
%TO.N,Net-(D1-K)*%
X150802500Y-92338621D02*
X151952500Y-93488621D01*
X145340000Y-92338621D02*
X150802500Y-92338621D01*
X139900000Y-86898621D02*
X145340000Y-92338621D01*
D22*
%TO.N,/BAT_BR*%
X134880000Y-101918621D02*
X134880000Y-97398621D01*
X132900000Y-95418621D02*
X132000000Y-95418621D01*
X143810000Y-110848621D02*
X134880000Y-101918621D01*
X134880000Y-97398621D02*
X132900000Y-95418621D01*
X143810000Y-113743621D02*
X143810000Y-110848621D01*
X138850000Y-95418621D02*
X132000000Y-95418621D01*
X140782500Y-93486121D02*
X138850000Y-95418621D01*
D21*
%TO.N,/BR_5_EN*%
X163635000Y-100448621D02*
X163860000Y-100223621D01*
X162900000Y-100448621D02*
X163635000Y-100448621D01*
X159780000Y-97328621D02*
X162900000Y-100448621D01*
X150280000Y-97328621D02*
X159780000Y-97328621D01*
X149010000Y-98598621D02*
X150280000Y-97328621D01*
%TO.N,/BR_2_EN*%
X148672500Y-103288621D02*
X147212500Y-101828621D01*
X166560000Y-103288621D02*
X148672500Y-103288621D01*
%TO.N,/BR_1_EN*%
X163760000Y-103973621D02*
X141405000Y-103973621D01*
X141405000Y-103973621D02*
X139310000Y-101878621D01*
%TO.N,/SCL*%
X164660000Y-93368621D02*
X164660000Y-94128621D01*
X160720000Y-88608621D02*
X161110000Y-88998621D01*
X159292500Y-88608621D02*
X160720000Y-88608621D01*
X158542500Y-89358621D02*
X159292500Y-88608621D01*
X161110000Y-89818621D02*
X164660000Y-93368621D01*
X164660000Y-94128621D02*
X164660000Y-95768621D01*
X161110000Y-88998621D02*
X161110000Y-89818621D01*
X163550000Y-98230925D02*
X164051348Y-98732273D01*
X163550000Y-96878621D02*
X163550000Y-98230925D01*
X164660000Y-95768621D02*
X163550000Y-96878621D01*
%TO.N,/SDA*%
X165795000Y-96613621D02*
X165245000Y-97163621D01*
X165795000Y-96613621D02*
X166130000Y-96278621D01*
X165685000Y-98473621D02*
X165245000Y-98033621D01*
X165245000Y-97163621D02*
X165245000Y-98033621D01*
D23*
%TO.N,/VBAT*%
X151700000Y-88128621D02*
X154250000Y-90678621D01*
X154250000Y-90678621D02*
X154250000Y-94066121D01*
X151230000Y-88128621D02*
X151700000Y-88128621D01*
X145473022Y-88128621D02*
X151230000Y-88128621D01*
D21*
%TO.N,/SCL*%
X157012500Y-87828621D02*
X158542500Y-89358621D01*
X155230000Y-87038621D02*
X156020000Y-87828621D01*
X156020000Y-87828621D02*
X157012500Y-87828621D01*
X155230000Y-85205599D02*
X155230000Y-87038621D01*
X156510000Y-83925599D02*
X155230000Y-85205599D01*
%TO.N,/BURN_EN*%
X153970000Y-88248621D02*
X153970000Y-86465599D01*
X155980000Y-90258621D02*
X153970000Y-88248621D01*
X155980000Y-91058621D02*
X155980000Y-90258621D01*
D23*
%TO.N,/VBAT*%
X154642500Y-94458621D02*
X154250000Y-94066121D01*
X155992500Y-94458621D02*
X154642500Y-94458621D01*
%TO.N,VCC*%
X160207500Y-94351121D02*
X160100000Y-94458621D01*
X160207500Y-89358621D02*
X160207500Y-94351121D01*
X158267500Y-94458621D02*
X160100000Y-94458621D01*
%TO.N,/VBAT*%
X143810000Y-86465599D02*
X145473022Y-88128621D01*
%TO.N,+5V*%
X146620000Y-89458621D02*
X146612500Y-89468621D01*
D21*
%TO.N,VCC*%
X159397500Y-90168621D02*
X157527500Y-90168621D01*
X160207500Y-89358621D02*
X159397500Y-90168621D01*
X157527500Y-90168621D02*
X156717500Y-89358621D01*
%TO.N,/BURN_EN*%
X155980000Y-92546121D02*
X155992500Y-92558621D01*
X155980000Y-91058621D02*
X155980000Y-92546121D01*
%TO.N,/SDA*%
X160872500Y-88198621D02*
X162032500Y-89358621D01*
X158243022Y-88198621D02*
X160872500Y-88198621D01*
X156510000Y-86465599D02*
X158243022Y-88198621D01*
X162050000Y-89376121D02*
X162032500Y-89358621D01*
X162737500Y-89376121D02*
X162050000Y-89376121D01*
X162737500Y-89376121D02*
X166130000Y-92768621D01*
D23*
%TO.N,+5V*%
X146600000Y-91211121D02*
X146600000Y-89481121D01*
D24*
X146600000Y-89481121D02*
X146612500Y-89468621D01*
D21*
%TO.N,/SDA*%
X166130000Y-96278621D02*
X166130000Y-92768621D01*
D22*
%TO.N,/BAT_BR*%
X140782500Y-93486121D02*
X146600000Y-93486121D01*
D21*
%TO.N,/BR_3_EN*%
X162950000Y-101838621D02*
X163010000Y-101898621D01*
X155130000Y-101838621D02*
X162950000Y-101838621D01*
%TO.N,/BR_4_EN*%
X142862500Y-96978621D02*
X142990000Y-96978621D01*
X163035000Y-99773621D02*
X162665000Y-99773621D01*
X162665000Y-99773621D02*
X159870000Y-96978621D01*
X159870000Y-96978621D02*
X142990000Y-96978621D01*
X141182500Y-98658621D02*
X142862500Y-96978621D01*
%TO.N,/BR_6_EN*%
X163210000Y-101248621D02*
X163785000Y-101248621D01*
X157000000Y-98658621D02*
X160620000Y-98658621D01*
X160620000Y-98658621D02*
X163210000Y-101248621D01*
%TO.N,Net-(U2-PROG)*%
X150115000Y-91211121D02*
X150127500Y-91198621D01*
X148500000Y-91211121D02*
X150115000Y-91211121D01*
%TO.N,Net-(U2-STAT)*%
X150125000Y-93486121D02*
X150127500Y-93488621D01*
X148500000Y-93486121D02*
X150125000Y-93486121D01*
%TD*%
%TA.AperFunction,Conductor*%
%TO.N,GND*%
G36*
X150203946Y-77388502D02*
G01*
X169810750Y-88708494D01*
X169849399Y-88754554D01*
X169854700Y-88784618D01*
X169854700Y-111424599D01*
X169834135Y-111481100D01*
X169810750Y-111500723D01*
X150203949Y-122820715D01*
X150144735Y-122831156D01*
X150116049Y-122820715D01*
X149138254Y-122256185D01*
X146770601Y-120889220D01*
X148749884Y-120889220D01*
X148769115Y-121121316D01*
X148769116Y-121121322D01*
X148826286Y-121347080D01*
X148826289Y-121347088D01*
X148897987Y-121510541D01*
X148919840Y-121560361D01*
X148919844Y-121560367D01*
X149047215Y-121755325D01*
X149047216Y-121755327D01*
X149047220Y-121755331D01*
X149204954Y-121926676D01*
X149388740Y-122069722D01*
X149593563Y-122180567D01*
X149813837Y-122256187D01*
X149813839Y-122256187D01*
X149813841Y-122256188D01*
X150043550Y-122294520D01*
X150043554Y-122294520D01*
X150276450Y-122294520D01*
X150506158Y-122256188D01*
X150506158Y-122256187D01*
X150506163Y-122256187D01*
X150726437Y-122180567D01*
X150931260Y-122069722D01*
X151115046Y-121926676D01*
X151272780Y-121755331D01*
X151400160Y-121560361D01*
X151493712Y-121347084D01*
X151550884Y-121121317D01*
X151570116Y-120889220D01*
X151550884Y-120657123D01*
X151550883Y-120657117D01*
X151493713Y-120431359D01*
X151493710Y-120431351D01*
X151400164Y-120218089D01*
X151400160Y-120218079D01*
X151319435Y-120094520D01*
X151272784Y-120023114D01*
X151272783Y-120023112D01*
X151115050Y-119851768D01*
X151115048Y-119851767D01*
X151115046Y-119851764D01*
X150931260Y-119708718D01*
X150726437Y-119597873D01*
X150726433Y-119597871D01*
X150726430Y-119597870D01*
X150506167Y-119522254D01*
X150506158Y-119522251D01*
X150276450Y-119483920D01*
X150276446Y-119483920D01*
X150043554Y-119483920D01*
X150043550Y-119483920D01*
X149813841Y-119522251D01*
X149813832Y-119522254D01*
X149593569Y-119597870D01*
X149388740Y-119708718D01*
X149204949Y-119851768D01*
X149047216Y-120023112D01*
X149047215Y-120023114D01*
X148919844Y-120218072D01*
X148919835Y-120218089D01*
X148826289Y-120431351D01*
X148826286Y-120431359D01*
X148769116Y-120657117D01*
X148769115Y-120657123D01*
X148749884Y-120889220D01*
X146770601Y-120889220D01*
X139013441Y-116410621D01*
X142789735Y-116410621D01*
X142797072Y-116485109D01*
X142855842Y-116678846D01*
X142855844Y-116678849D01*
X142951281Y-116857399D01*
X143079717Y-117013899D01*
X143079721Y-117013903D01*
X143236221Y-117142339D01*
X143414771Y-117237776D01*
X143414774Y-117237778D01*
X143608515Y-117296550D01*
X143683000Y-117303884D01*
X143683000Y-116770502D01*
X143774237Y-116783621D01*
X143845763Y-116783621D01*
X143937000Y-116770502D01*
X143937000Y-117303884D01*
X144011484Y-117296550D01*
X144205225Y-117237778D01*
X144205228Y-117237776D01*
X144383778Y-117142339D01*
X144540278Y-117013903D01*
X144540282Y-117013899D01*
X144668718Y-116857399D01*
X144764155Y-116678849D01*
X144764157Y-116678846D01*
X144822927Y-116485109D01*
X144830265Y-116410621D01*
X145329735Y-116410621D01*
X145337072Y-116485109D01*
X145395842Y-116678846D01*
X145395844Y-116678849D01*
X145491281Y-116857399D01*
X145619717Y-117013899D01*
X145619721Y-117013903D01*
X145776221Y-117142339D01*
X145954771Y-117237776D01*
X145954774Y-117237778D01*
X146148515Y-117296550D01*
X146223000Y-117303884D01*
X146223000Y-116770502D01*
X146314237Y-116783621D01*
X146385763Y-116783621D01*
X146477000Y-116770502D01*
X146477000Y-117303884D01*
X146551484Y-117296550D01*
X146745225Y-117237778D01*
X146745228Y-117237776D01*
X146923778Y-117142339D01*
X147080278Y-117013903D01*
X147080282Y-117013899D01*
X147208718Y-116857399D01*
X147304155Y-116678849D01*
X147304157Y-116678846D01*
X147362927Y-116485109D01*
X147370265Y-116410621D01*
X146833818Y-116410621D01*
X146850000Y-116355510D01*
X146850000Y-116283621D01*
X147882247Y-116283621D01*
X147901612Y-116480230D01*
X147958957Y-116669269D01*
X147958958Y-116669271D01*
X148052084Y-116843499D01*
X148177411Y-116996210D01*
X148330122Y-117121537D01*
X148504350Y-117214663D01*
X148693397Y-117272010D01*
X148890000Y-117291374D01*
X149086603Y-117272010D01*
X149275650Y-117214663D01*
X149449878Y-117121537D01*
X149602589Y-116996210D01*
X149727916Y-116843499D01*
X149821042Y-116669271D01*
X149878389Y-116480224D01*
X149897753Y-116283621D01*
X150422247Y-116283621D01*
X150441612Y-116480230D01*
X150498957Y-116669269D01*
X150498958Y-116669271D01*
X150592084Y-116843499D01*
X150717411Y-116996210D01*
X150870122Y-117121537D01*
X151044350Y-117214663D01*
X151233397Y-117272010D01*
X151430000Y-117291374D01*
X151626603Y-117272010D01*
X151815650Y-117214663D01*
X151989878Y-117121537D01*
X152142589Y-116996210D01*
X152267916Y-116843499D01*
X152361042Y-116669271D01*
X152418389Y-116480224D01*
X152437753Y-116283621D01*
X152962247Y-116283621D01*
X152981612Y-116480230D01*
X153038957Y-116669269D01*
X153038958Y-116669271D01*
X153132084Y-116843499D01*
X153257411Y-116996210D01*
X153410122Y-117121537D01*
X153584350Y-117214663D01*
X153773397Y-117272010D01*
X153970000Y-117291374D01*
X154166603Y-117272010D01*
X154355650Y-117214663D01*
X154529878Y-117121537D01*
X154682589Y-116996210D01*
X154807916Y-116843499D01*
X154901042Y-116669271D01*
X154958389Y-116480224D01*
X154977753Y-116283621D01*
X155502247Y-116283621D01*
X155521612Y-116480230D01*
X155578957Y-116669269D01*
X155578958Y-116669271D01*
X155672084Y-116843499D01*
X155797411Y-116996210D01*
X155950122Y-117121537D01*
X156124350Y-117214663D01*
X156313397Y-117272010D01*
X156510000Y-117291374D01*
X156706603Y-117272010D01*
X156895650Y-117214663D01*
X157069878Y-117121537D01*
X157222589Y-116996210D01*
X157347916Y-116843499D01*
X157441042Y-116669271D01*
X157498389Y-116480224D01*
X157517753Y-116283621D01*
X157498389Y-116087018D01*
X157441042Y-115897971D01*
X157347916Y-115723743D01*
X157222589Y-115571032D01*
X157069878Y-115445705D01*
X156895650Y-115352579D01*
X156895649Y-115352578D01*
X156895648Y-115352578D01*
X156706609Y-115295233D01*
X156706604Y-115295232D01*
X156706603Y-115295232D01*
X156510000Y-115275868D01*
X156509999Y-115275868D01*
X156462657Y-115280530D01*
X156313397Y-115295232D01*
X156313395Y-115295232D01*
X156313390Y-115295233D01*
X156124351Y-115352578D01*
X155950121Y-115445705D01*
X155797413Y-115571030D01*
X155797409Y-115571034D01*
X155672084Y-115723742D01*
X155578957Y-115897972D01*
X155521612Y-116087011D01*
X155502247Y-116283621D01*
X154977753Y-116283621D01*
X154958389Y-116087018D01*
X154901042Y-115897971D01*
X154807916Y-115723743D01*
X154682589Y-115571032D01*
X154529878Y-115445705D01*
X154355650Y-115352579D01*
X154355649Y-115352578D01*
X154355648Y-115352578D01*
X154166609Y-115295233D01*
X154166604Y-115295232D01*
X154166603Y-115295232D01*
X153970000Y-115275868D01*
X153773397Y-115295232D01*
X153773395Y-115295232D01*
X153773390Y-115295233D01*
X153584351Y-115352578D01*
X153410121Y-115445705D01*
X153257413Y-115571030D01*
X153257409Y-115571034D01*
X153132084Y-115723742D01*
X153038957Y-115897972D01*
X152981612Y-116087011D01*
X152962247Y-116283621D01*
X152437753Y-116283621D01*
X152418389Y-116087018D01*
X152361042Y-115897971D01*
X152267916Y-115723743D01*
X152142589Y-115571032D01*
X151989878Y-115445705D01*
X151815650Y-115352579D01*
X151815649Y-115352578D01*
X151815648Y-115352578D01*
X151626609Y-115295233D01*
X151626604Y-115295232D01*
X151626603Y-115295232D01*
X151430000Y-115275868D01*
X151429999Y-115275868D01*
X151382657Y-115280530D01*
X151233397Y-115295232D01*
X151233395Y-115295232D01*
X151233390Y-115295233D01*
X151044351Y-115352578D01*
X150870121Y-115445705D01*
X150717413Y-115571030D01*
X150717409Y-115571034D01*
X150592084Y-115723742D01*
X150498957Y-115897972D01*
X150441612Y-116087011D01*
X150422247Y-116283621D01*
X149897753Y-116283621D01*
X149878389Y-116087018D01*
X149821042Y-115897971D01*
X149727916Y-115723743D01*
X149602589Y-115571032D01*
X149449878Y-115445705D01*
X149275650Y-115352579D01*
X149275649Y-115352578D01*
X149275648Y-115352578D01*
X149086609Y-115295233D01*
X149086604Y-115295232D01*
X149086603Y-115295232D01*
X148890000Y-115275868D01*
X148889999Y-115275868D01*
X148842657Y-115280530D01*
X148693397Y-115295232D01*
X148693395Y-115295232D01*
X148693390Y-115295233D01*
X148504351Y-115352578D01*
X148330121Y-115445705D01*
X148177413Y-115571030D01*
X148177409Y-115571034D01*
X148052084Y-115723742D01*
X147958957Y-115897972D01*
X147901612Y-116087011D01*
X147882247Y-116283621D01*
X146850000Y-116283621D01*
X146850000Y-116211732D01*
X146833818Y-116156621D01*
X147370264Y-116156621D01*
X147362927Y-116082132D01*
X147304157Y-115888395D01*
X147304155Y-115888392D01*
X147208718Y-115709842D01*
X147080282Y-115553342D01*
X147080278Y-115553338D01*
X146923778Y-115424902D01*
X146745228Y-115329465D01*
X146745225Y-115329463D01*
X146551488Y-115270693D01*
X146477000Y-115263356D01*
X146477000Y-115796739D01*
X146385763Y-115783621D01*
X146314237Y-115783621D01*
X146223000Y-115796739D01*
X146223000Y-115263356D01*
X146148511Y-115270693D01*
X145954774Y-115329463D01*
X145954771Y-115329465D01*
X145776221Y-115424902D01*
X145619721Y-115553338D01*
X145619717Y-115553342D01*
X145491281Y-115709842D01*
X145395844Y-115888392D01*
X145395842Y-115888395D01*
X145337072Y-116082132D01*
X145329735Y-116156621D01*
X145866182Y-116156621D01*
X145850000Y-116211732D01*
X145850000Y-116355510D01*
X145866182Y-116410621D01*
X145329735Y-116410621D01*
X144830265Y-116410621D01*
X144293818Y-116410621D01*
X144310000Y-116355510D01*
X144310000Y-116211732D01*
X144293818Y-116156621D01*
X144830264Y-116156621D01*
X144822927Y-116082132D01*
X144764157Y-115888395D01*
X144764155Y-115888392D01*
X144668718Y-115709842D01*
X144540282Y-115553342D01*
X144540278Y-115553338D01*
X144383778Y-115424902D01*
X144205228Y-115329465D01*
X144205225Y-115329463D01*
X144011488Y-115270693D01*
X143937000Y-115263356D01*
X143937000Y-115796739D01*
X143845763Y-115783621D01*
X143774237Y-115783621D01*
X143683000Y-115796739D01*
X143683000Y-115263356D01*
X143608511Y-115270693D01*
X143414774Y-115329463D01*
X143414771Y-115329465D01*
X143236221Y-115424902D01*
X143079721Y-115553338D01*
X143079717Y-115553342D01*
X142951281Y-115709842D01*
X142855844Y-115888392D01*
X142855842Y-115888395D01*
X142797072Y-116082132D01*
X142789735Y-116156621D01*
X143326182Y-116156621D01*
X143310000Y-116211732D01*
X143310000Y-116355510D01*
X143326182Y-116410621D01*
X142789735Y-116410621D01*
X139013441Y-116410621D01*
X130509248Y-111500723D01*
X130470600Y-111454664D01*
X130465300Y-111424605D01*
X130465300Y-110496915D01*
X130749884Y-110496915D01*
X130769115Y-110729011D01*
X130769116Y-110729017D01*
X130826286Y-110954775D01*
X130826289Y-110954783D01*
X130897987Y-111118236D01*
X130919840Y-111168056D01*
X130919844Y-111168062D01*
X131047215Y-111363020D01*
X131047216Y-111363022D01*
X131173979Y-111500724D01*
X131204954Y-111534371D01*
X131388740Y-111677417D01*
X131593563Y-111788262D01*
X131813837Y-111863882D01*
X131813839Y-111863882D01*
X131813841Y-111863883D01*
X132043550Y-111902215D01*
X132043554Y-111902215D01*
X132276450Y-111902215D01*
X132506158Y-111863883D01*
X132506158Y-111863882D01*
X132506163Y-111863882D01*
X132726437Y-111788262D01*
X132931260Y-111677417D01*
X133115046Y-111534371D01*
X133272780Y-111363026D01*
X133400160Y-111168056D01*
X133493712Y-110954779D01*
X133550884Y-110729012D01*
X133570116Y-110496915D01*
X133550884Y-110264818D01*
X133550883Y-110264812D01*
X133493713Y-110039054D01*
X133493710Y-110039046D01*
X133400164Y-109825784D01*
X133400160Y-109825774D01*
X133319435Y-109702215D01*
X133272784Y-109630809D01*
X133272783Y-109630807D01*
X133115050Y-109459463D01*
X133115048Y-109459462D01*
X133115046Y-109459459D01*
X132931260Y-109316413D01*
X132726437Y-109205568D01*
X132726433Y-109205566D01*
X132726430Y-109205565D01*
X132506167Y-109129949D01*
X132506158Y-109129946D01*
X132276450Y-109091615D01*
X132276446Y-109091615D01*
X132043554Y-109091615D01*
X132043550Y-109091615D01*
X131813841Y-109129946D01*
X131813832Y-109129949D01*
X131593569Y-109205565D01*
X131388740Y-109316413D01*
X131204949Y-109459463D01*
X131047216Y-109630807D01*
X131047215Y-109630809D01*
X130919844Y-109825767D01*
X130919835Y-109825784D01*
X130826289Y-110039046D01*
X130826286Y-110039054D01*
X130769116Y-110264812D01*
X130769115Y-110264818D01*
X130749884Y-110496915D01*
X130465300Y-110496915D01*
X130465300Y-103421620D01*
X131147200Y-103421620D01*
X131147201Y-103421621D01*
X131615779Y-103421621D01*
X131614835Y-103423473D01*
X131595014Y-103548621D01*
X131614835Y-103673769D01*
X131615779Y-103675621D01*
X131147201Y-103675621D01*
X131147201Y-104241129D01*
X131157516Y-104292996D01*
X131196811Y-104351803D01*
X131196817Y-104351809D01*
X131255624Y-104391104D01*
X131307486Y-104401420D01*
X131872998Y-104401420D01*
X131873000Y-104401418D01*
X131873000Y-103932842D01*
X131874852Y-103933786D01*
X131968519Y-103948621D01*
X132031481Y-103948621D01*
X132125148Y-103933786D01*
X132127000Y-103932842D01*
X132127000Y-104401418D01*
X132127001Y-104401420D01*
X132692509Y-104401420D01*
X132744375Y-104391104D01*
X132803182Y-104351809D01*
X132803188Y-104351803D01*
X132842483Y-104292996D01*
X132852800Y-104241133D01*
X132852800Y-103675622D01*
X132852799Y-103675621D01*
X132384221Y-103675621D01*
X132385165Y-103673769D01*
X132404986Y-103548621D01*
X132385165Y-103423473D01*
X132384221Y-103421621D01*
X132852798Y-103421621D01*
X132852799Y-103421620D01*
X132852799Y-102856112D01*
X132842483Y-102804245D01*
X132803188Y-102745438D01*
X132803182Y-102745432D01*
X132744375Y-102706137D01*
X132692513Y-102695821D01*
X132127000Y-102695821D01*
X132126999Y-103164399D01*
X132125148Y-103163456D01*
X132031481Y-103148621D01*
X131968519Y-103148621D01*
X131874852Y-103163456D01*
X131872999Y-103164399D01*
X131873000Y-102695821D01*
X131307486Y-102695821D01*
X131307484Y-102695822D01*
X131255628Y-102706135D01*
X131255624Y-102706137D01*
X131196817Y-102745432D01*
X131196811Y-102745438D01*
X131157516Y-102804245D01*
X131147200Y-102856108D01*
X131147200Y-103421620D01*
X130465300Y-103421620D01*
X130465300Y-101548625D01*
X131167540Y-101548625D01*
X131185729Y-101721693D01*
X131185731Y-101721699D01*
X131239510Y-101887213D01*
X131326526Y-102037929D01*
X131353351Y-102067721D01*
X131435087Y-102158498D01*
X131442976Y-102167259D01*
X131583770Y-102269553D01*
X131742756Y-102340338D01*
X131912984Y-102376521D01*
X132087016Y-102376521D01*
X132257244Y-102340338D01*
X132416230Y-102269553D01*
X132557024Y-102167259D01*
X132673474Y-102037929D01*
X132760490Y-101887213D01*
X132814269Y-101721699D01*
X132814270Y-101721693D01*
X132832460Y-101548625D01*
X132832460Y-101548616D01*
X132814270Y-101375548D01*
X132814269Y-101375545D01*
X132814269Y-101375543D01*
X132760490Y-101210029D01*
X132673474Y-101059313D01*
X132557024Y-100929983D01*
X132416230Y-100827689D01*
X132257244Y-100756904D01*
X132257242Y-100756903D01*
X132257241Y-100756903D01*
X132087016Y-100720721D01*
X131912984Y-100720721D01*
X131742758Y-100756903D01*
X131742754Y-100756905D01*
X131583769Y-100827689D01*
X131442977Y-100929982D01*
X131442975Y-100929983D01*
X131326527Y-101059311D01*
X131253487Y-101185821D01*
X131239510Y-101210029D01*
X131216338Y-101281344D01*
X131185729Y-101375548D01*
X131167540Y-101548616D01*
X131167540Y-101548625D01*
X130465300Y-101548625D01*
X130465300Y-98108679D01*
X131172100Y-98108679D01*
X131179103Y-98143881D01*
X131180972Y-98153279D01*
X131214766Y-98203855D01*
X131223593Y-98209753D01*
X131265341Y-98237649D01*
X131272741Y-98239120D01*
X131309943Y-98246521D01*
X132690056Y-98246520D01*
X132690058Y-98246520D01*
X132702750Y-98243995D01*
X132734658Y-98237649D01*
X132785234Y-98203855D01*
X132819028Y-98153279D01*
X132827900Y-98108678D01*
X132827899Y-96728565D01*
X132827899Y-96728564D01*
X132827899Y-96728562D01*
X132824111Y-96709523D01*
X132819028Y-96683963D01*
X132785234Y-96633387D01*
X132785002Y-96633232D01*
X132734658Y-96599592D01*
X132697456Y-96592192D01*
X132690057Y-96590721D01*
X132690056Y-96590721D01*
X131309941Y-96590721D01*
X131265341Y-96599593D01*
X131214767Y-96633386D01*
X131214764Y-96633389D01*
X131180971Y-96683962D01*
X131172100Y-96728564D01*
X131172100Y-98108679D01*
X130465300Y-98108679D01*
X130465300Y-95418625D01*
X131167540Y-95418625D01*
X131185729Y-95591693D01*
X131185731Y-95591699D01*
X131239510Y-95757213D01*
X131326526Y-95907929D01*
X131442976Y-96037259D01*
X131583770Y-96139553D01*
X131742756Y-96210338D01*
X131912984Y-96246521D01*
X132087016Y-96246521D01*
X132257244Y-96210338D01*
X132416230Y-96139553D01*
X132557024Y-96037259D01*
X132592913Y-95997399D01*
X132646002Y-95969171D01*
X132704816Y-95981672D01*
X132720391Y-95994061D01*
X134320355Y-97594024D01*
X134345766Y-97648518D01*
X134346100Y-97656179D01*
X134346100Y-101908740D01*
X134346074Y-101910240D01*
X134343906Y-101973731D01*
X134343906Y-101973735D01*
X134354265Y-102016247D01*
X134355105Y-102020668D01*
X134361065Y-102064021D01*
X134369098Y-102082516D01*
X134373874Y-102096716D01*
X134378654Y-102116327D01*
X134400098Y-102154465D01*
X134402101Y-102158498D01*
X134419533Y-102198630D01*
X134419536Y-102198635D01*
X134432266Y-102214282D01*
X134440698Y-102226672D01*
X134450583Y-102244252D01*
X134450584Y-102244253D01*
X134450586Y-102244256D01*
X134473806Y-102267476D01*
X134481525Y-102275195D01*
X134484541Y-102278538D01*
X134512154Y-102312480D01*
X134512160Y-102312485D01*
X134528636Y-102324115D01*
X134540102Y-102333772D01*
X143250355Y-111044025D01*
X143275766Y-111098519D01*
X143276100Y-111106180D01*
X143276100Y-112842812D01*
X143255535Y-112899313D01*
X143243965Y-112910757D01*
X143164365Y-112976083D01*
X143097413Y-113031030D01*
X143097409Y-113031034D01*
X142972084Y-113183742D01*
X142878957Y-113357972D01*
X142821612Y-113547011D01*
X142802247Y-113743621D01*
X142821612Y-113940230D01*
X142878957Y-114129269D01*
X142878958Y-114129271D01*
X142972084Y-114303499D01*
X143097411Y-114456210D01*
X143250122Y-114581537D01*
X143424350Y-114674663D01*
X143613397Y-114732010D01*
X143810000Y-114751374D01*
X144006603Y-114732010D01*
X144195650Y-114674663D01*
X144369878Y-114581537D01*
X144522589Y-114456210D01*
X144647916Y-114303499D01*
X144741042Y-114129271D01*
X144798389Y-113940224D01*
X144817753Y-113743621D01*
X145342247Y-113743621D01*
X145361612Y-113940230D01*
X145418957Y-114129269D01*
X145418958Y-114129271D01*
X145512084Y-114303499D01*
X145637411Y-114456210D01*
X145790122Y-114581537D01*
X145964350Y-114674663D01*
X146153397Y-114732010D01*
X146350000Y-114751374D01*
X146546603Y-114732010D01*
X146735650Y-114674663D01*
X146909878Y-114581537D01*
X147062589Y-114456210D01*
X147187916Y-114303499D01*
X147281042Y-114129271D01*
X147338389Y-113940224D01*
X147357753Y-113743621D01*
X147357753Y-113743620D01*
X147882247Y-113743620D01*
X147901612Y-113940230D01*
X147958957Y-114129269D01*
X147958958Y-114129271D01*
X148052084Y-114303499D01*
X148177411Y-114456210D01*
X148330122Y-114581537D01*
X148504350Y-114674663D01*
X148693397Y-114732010D01*
X148890000Y-114751374D01*
X149086603Y-114732010D01*
X149275650Y-114674663D01*
X149449878Y-114581537D01*
X149602589Y-114456210D01*
X149727916Y-114303499D01*
X149821042Y-114129271D01*
X149878389Y-113940224D01*
X149897753Y-113743621D01*
X149897753Y-113743620D01*
X150422247Y-113743620D01*
X150441612Y-113940230D01*
X150498957Y-114129269D01*
X150498958Y-114129271D01*
X150592084Y-114303499D01*
X150717411Y-114456210D01*
X150870122Y-114581537D01*
X151044350Y-114674663D01*
X151233397Y-114732010D01*
X151430000Y-114751374D01*
X151626603Y-114732010D01*
X151815650Y-114674663D01*
X151989878Y-114581537D01*
X152142589Y-114456210D01*
X152267916Y-114303499D01*
X152361042Y-114129271D01*
X152418389Y-113940224D01*
X152437753Y-113743621D01*
X152437753Y-113743620D01*
X152962247Y-113743620D01*
X152981612Y-113940230D01*
X153038957Y-114129269D01*
X153038958Y-114129271D01*
X153132084Y-114303499D01*
X153257411Y-114456210D01*
X153410122Y-114581537D01*
X153584350Y-114674663D01*
X153773397Y-114732010D01*
X153970000Y-114751374D01*
X154166603Y-114732010D01*
X154355650Y-114674663D01*
X154479098Y-114608679D01*
X155507100Y-114608679D01*
X155515972Y-114653279D01*
X155549766Y-114703855D01*
X155566701Y-114715171D01*
X155600341Y-114737649D01*
X155607741Y-114739120D01*
X155644943Y-114746521D01*
X157375056Y-114746520D01*
X157375058Y-114746520D01*
X157387750Y-114743995D01*
X157419658Y-114737649D01*
X157470234Y-114703855D01*
X157504028Y-114653279D01*
X157512900Y-114608678D01*
X157512899Y-112878565D01*
X157512899Y-112878564D01*
X157512899Y-112878562D01*
X157509011Y-112859019D01*
X157504028Y-112833963D01*
X157470234Y-112783387D01*
X157470002Y-112783232D01*
X157419658Y-112749592D01*
X157382456Y-112742192D01*
X157375057Y-112740721D01*
X157375056Y-112740721D01*
X155644941Y-112740721D01*
X155600341Y-112749593D01*
X155549767Y-112783386D01*
X155549764Y-112783389D01*
X155515971Y-112833962D01*
X155507100Y-112878564D01*
X155507100Y-114608679D01*
X154479098Y-114608679D01*
X154529878Y-114581537D01*
X154682589Y-114456210D01*
X154807916Y-114303499D01*
X154901042Y-114129271D01*
X154958389Y-113940224D01*
X154977753Y-113743621D01*
X154958389Y-113547018D01*
X154901042Y-113357971D01*
X154807916Y-113183743D01*
X154682589Y-113031032D01*
X154529878Y-112905705D01*
X154355650Y-112812579D01*
X154355649Y-112812578D01*
X154355648Y-112812578D01*
X154166609Y-112755233D01*
X154166604Y-112755232D01*
X154166603Y-112755232D01*
X153970000Y-112735868D01*
X153773397Y-112755232D01*
X153773395Y-112755232D01*
X153773390Y-112755233D01*
X153584351Y-112812578D01*
X153410121Y-112905705D01*
X153257413Y-113031030D01*
X153257409Y-113031034D01*
X153132084Y-113183742D01*
X153038957Y-113357972D01*
X152981612Y-113547011D01*
X152962247Y-113743620D01*
X152437753Y-113743620D01*
X152418389Y-113547018D01*
X152361042Y-113357971D01*
X152267916Y-113183743D01*
X152142589Y-113031032D01*
X151989878Y-112905705D01*
X151815650Y-112812579D01*
X151815649Y-112812578D01*
X151815648Y-112812578D01*
X151626609Y-112755233D01*
X151626604Y-112755232D01*
X151626603Y-112755232D01*
X151430000Y-112735868D01*
X151429999Y-112735868D01*
X151382657Y-112740530D01*
X151233397Y-112755232D01*
X151233395Y-112755232D01*
X151233390Y-112755233D01*
X151044351Y-112812578D01*
X150870121Y-112905705D01*
X150717413Y-113031030D01*
X150717409Y-113031034D01*
X150592084Y-113183742D01*
X150498957Y-113357972D01*
X150441612Y-113547011D01*
X150422247Y-113743620D01*
X149897753Y-113743620D01*
X149878389Y-113547018D01*
X149821042Y-113357971D01*
X149727916Y-113183743D01*
X149602589Y-113031032D01*
X149449878Y-112905705D01*
X149275650Y-112812579D01*
X149275649Y-112812578D01*
X149275648Y-112812578D01*
X149086609Y-112755233D01*
X149086604Y-112755232D01*
X149086603Y-112755232D01*
X148890000Y-112735868D01*
X148693397Y-112755232D01*
X148693395Y-112755232D01*
X148693390Y-112755233D01*
X148504351Y-112812578D01*
X148330121Y-112905705D01*
X148177413Y-113031030D01*
X148177409Y-113031034D01*
X148052084Y-113183742D01*
X147958957Y-113357972D01*
X147901612Y-113547011D01*
X147882247Y-113743620D01*
X147357753Y-113743620D01*
X147338389Y-113547018D01*
X147281042Y-113357971D01*
X147187916Y-113183743D01*
X147062589Y-113031032D01*
X146909878Y-112905705D01*
X146735650Y-112812579D01*
X146735649Y-112812578D01*
X146735648Y-112812578D01*
X146546609Y-112755233D01*
X146546604Y-112755232D01*
X146546603Y-112755232D01*
X146350000Y-112735868D01*
X146153397Y-112755232D01*
X146153395Y-112755232D01*
X146153390Y-112755233D01*
X145964351Y-112812578D01*
X145790121Y-112905705D01*
X145637413Y-113031030D01*
X145637409Y-113031034D01*
X145512084Y-113183742D01*
X145418957Y-113357972D01*
X145361612Y-113547011D01*
X145342247Y-113743621D01*
X144817753Y-113743621D01*
X144798389Y-113547018D01*
X144741042Y-113357971D01*
X144647916Y-113183743D01*
X144522589Y-113031032D01*
X144376036Y-112910759D01*
X144345407Y-112859019D01*
X144343900Y-112842812D01*
X144343900Y-110858500D01*
X144343926Y-110856999D01*
X144344728Y-110833498D01*
X144346094Y-110793509D01*
X144335733Y-110750991D01*
X144334892Y-110746566D01*
X144328936Y-110703228D01*
X144328935Y-110703223D01*
X144328935Y-110703222D01*
X144320896Y-110684716D01*
X144316122Y-110670518D01*
X144311346Y-110650915D01*
X144289894Y-110612764D01*
X144287893Y-110608734D01*
X144270463Y-110568605D01*
X144257732Y-110552957D01*
X144249301Y-110540571D01*
X144239414Y-110522986D01*
X144213342Y-110496914D01*
X166749884Y-110496914D01*
X166769115Y-110729011D01*
X166769116Y-110729017D01*
X166826286Y-110954775D01*
X166826289Y-110954783D01*
X166897987Y-111118236D01*
X166919840Y-111168056D01*
X166919844Y-111168062D01*
X167047215Y-111363020D01*
X167047216Y-111363022D01*
X167173979Y-111500724D01*
X167204954Y-111534371D01*
X167388740Y-111677417D01*
X167593563Y-111788262D01*
X167813837Y-111863882D01*
X167813839Y-111863882D01*
X167813841Y-111863883D01*
X168043550Y-111902215D01*
X168043554Y-111902215D01*
X168276450Y-111902215D01*
X168506158Y-111863883D01*
X168506158Y-111863882D01*
X168506163Y-111863882D01*
X168726437Y-111788262D01*
X168931260Y-111677417D01*
X169115046Y-111534371D01*
X169272780Y-111363026D01*
X169400160Y-111168056D01*
X169493712Y-110954779D01*
X169550884Y-110729012D01*
X169570116Y-110496915D01*
X169550884Y-110264818D01*
X169550883Y-110264812D01*
X169493713Y-110039054D01*
X169493710Y-110039046D01*
X169400164Y-109825784D01*
X169400160Y-109825774D01*
X169319435Y-109702215D01*
X169272784Y-109630809D01*
X169272783Y-109630807D01*
X169115050Y-109459463D01*
X169115048Y-109459462D01*
X169115046Y-109459459D01*
X168931260Y-109316413D01*
X168726437Y-109205568D01*
X168726433Y-109205566D01*
X168726430Y-109205565D01*
X168506167Y-109129949D01*
X168506158Y-109129946D01*
X168276450Y-109091615D01*
X168276446Y-109091615D01*
X168043554Y-109091615D01*
X168043550Y-109091615D01*
X167813841Y-109129946D01*
X167813832Y-109129949D01*
X167593569Y-109205565D01*
X167388740Y-109316413D01*
X167204949Y-109459463D01*
X167047216Y-109630807D01*
X167047215Y-109630809D01*
X166919844Y-109825767D01*
X166919835Y-109825784D01*
X166826289Y-110039046D01*
X166826286Y-110039054D01*
X166769116Y-110264812D01*
X166769115Y-110264818D01*
X166749884Y-110496914D01*
X144213342Y-110496914D01*
X144208469Y-110492041D01*
X144205464Y-110488711D01*
X144177842Y-110454759D01*
X144161358Y-110443123D01*
X144149900Y-110433472D01*
X135825233Y-102108805D01*
X136822200Y-102108805D01*
X136837602Y-102206053D01*
X136897326Y-102323269D01*
X136990351Y-102416294D01*
X137107567Y-102476018D01*
X137204816Y-102491421D01*
X137360499Y-102491421D01*
X137360500Y-102491420D01*
X137614500Y-102491420D01*
X137614501Y-102491421D01*
X137770184Y-102491421D01*
X137867432Y-102476018D01*
X137984648Y-102416294D01*
X138077673Y-102323269D01*
X138137397Y-102206053D01*
X138152800Y-102108805D01*
X138152800Y-102106842D01*
X138672100Y-102106842D01*
X138686579Y-102198262D01*
X138686579Y-102198263D01*
X138686580Y-102198265D01*
X138742723Y-102308453D01*
X138830168Y-102395898D01*
X138940356Y-102452041D01*
X139031778Y-102466521D01*
X139537494Y-102466521D01*
X139593995Y-102487086D01*
X139599649Y-102492266D01*
X141237951Y-104130569D01*
X141239535Y-104132238D01*
X141267330Y-104163107D01*
X141267331Y-104163107D01*
X141267332Y-104163108D01*
X141289022Y-104172765D01*
X141301144Y-104179347D01*
X141312464Y-104186698D01*
X141321061Y-104192281D01*
X141321062Y-104192281D01*
X141321063Y-104192282D01*
X141327938Y-104193370D01*
X141349938Y-104199887D01*
X141356303Y-104202721D01*
X141380058Y-104202721D01*
X141393807Y-104203802D01*
X141417258Y-104207517D01*
X141423979Y-104205716D01*
X141446729Y-104202721D01*
X163279141Y-104202721D01*
X163335642Y-104223286D01*
X163345572Y-104233059D01*
X163349410Y-104237488D01*
X163349411Y-104237490D01*
X163440383Y-104342478D01*
X163440385Y-104342479D01*
X163440386Y-104342480D01*
X163557245Y-104417581D01*
X163557246Y-104417581D01*
X163557249Y-104417583D01*
X163648035Y-104444240D01*
X163690536Y-104456720D01*
X163690539Y-104456720D01*
X163690541Y-104456721D01*
X163690542Y-104456721D01*
X163829458Y-104456721D01*
X163829459Y-104456721D01*
X163829461Y-104456720D01*
X163829463Y-104456720D01*
X163845305Y-104452068D01*
X163962751Y-104417583D01*
X164079617Y-104342478D01*
X164170589Y-104237490D01*
X164228298Y-104111126D01*
X164248068Y-103973621D01*
X164248068Y-103973617D01*
X164228299Y-103836122D01*
X164228298Y-103836121D01*
X164228298Y-103836116D01*
X164170589Y-103709752D01*
X164170588Y-103709751D01*
X164170588Y-103709750D01*
X164130237Y-103663183D01*
X164108778Y-103607016D01*
X164128444Y-103550195D01*
X164180032Y-103519309D01*
X164196667Y-103517721D01*
X166079141Y-103517721D01*
X166135642Y-103538286D01*
X166145572Y-103548059D01*
X166233531Y-103649571D01*
X166240383Y-103657478D01*
X166240385Y-103657479D01*
X166240386Y-103657480D01*
X166357245Y-103732581D01*
X166357246Y-103732581D01*
X166357249Y-103732583D01*
X166448035Y-103759240D01*
X166490536Y-103771720D01*
X166490539Y-103771720D01*
X166490541Y-103771721D01*
X166490542Y-103771721D01*
X166629458Y-103771721D01*
X166629459Y-103771721D01*
X166629461Y-103771720D01*
X166629463Y-103771720D01*
X166645305Y-103767067D01*
X166762751Y-103732583D01*
X166879617Y-103657478D01*
X166970589Y-103552490D01*
X167028298Y-103426126D01*
X167028946Y-103421619D01*
X167048068Y-103288624D01*
X167048068Y-103288617D01*
X167028299Y-103151122D01*
X167028298Y-103151121D01*
X167028298Y-103151116D01*
X166970589Y-103024752D01*
X166879617Y-102919764D01*
X166879615Y-102919763D01*
X166879613Y-102919761D01*
X166762754Y-102844660D01*
X166762751Y-102844659D01*
X166736092Y-102836831D01*
X166629463Y-102805521D01*
X166629459Y-102805521D01*
X166490541Y-102805521D01*
X166490536Y-102805521D01*
X166357249Y-102844659D01*
X166357245Y-102844660D01*
X166240386Y-102919761D01*
X166240381Y-102919765D01*
X166145572Y-103029183D01*
X166093030Y-103058417D01*
X166079141Y-103059521D01*
X148803806Y-103059521D01*
X148747305Y-103038956D01*
X148741651Y-103033776D01*
X147877981Y-102170105D01*
X147852570Y-102115611D01*
X147853109Y-102100323D01*
X147852629Y-102100286D01*
X147852900Y-102096843D01*
X147852900Y-101965621D01*
X152642200Y-101965621D01*
X152642200Y-102108805D01*
X152657602Y-102206053D01*
X152717326Y-102323269D01*
X152810351Y-102416294D01*
X152927567Y-102476018D01*
X153024816Y-102491421D01*
X153180499Y-102491421D01*
X153180500Y-102491420D01*
X153180500Y-101965622D01*
X153180499Y-101965621D01*
X153434500Y-101965621D01*
X153434500Y-102491420D01*
X153434501Y-102491421D01*
X153590184Y-102491421D01*
X153687432Y-102476018D01*
X153804648Y-102416294D01*
X153897673Y-102323269D01*
X153957397Y-102206053D01*
X153972800Y-102108805D01*
X153972800Y-101965622D01*
X153972799Y-101965621D01*
X153434500Y-101965621D01*
X153180499Y-101965621D01*
X152642200Y-101965621D01*
X147852900Y-101965621D01*
X147852900Y-101711620D01*
X152642200Y-101711620D01*
X152642201Y-101711621D01*
X153180499Y-101711621D01*
X153180500Y-101711620D01*
X153180500Y-101185822D01*
X153180499Y-101185821D01*
X153434500Y-101185821D01*
X153434500Y-101711620D01*
X153434501Y-101711621D01*
X153972799Y-101711621D01*
X153972800Y-101711619D01*
X153972800Y-101568436D01*
X153957397Y-101471188D01*
X153897673Y-101353972D01*
X153804648Y-101260947D01*
X153687432Y-101201223D01*
X153590184Y-101185821D01*
X153434500Y-101185821D01*
X153180499Y-101185821D01*
X153024816Y-101185821D01*
X152927567Y-101201223D01*
X152810351Y-101260947D01*
X152717326Y-101353972D01*
X152657602Y-101471188D01*
X152642200Y-101568436D01*
X152642200Y-101711620D01*
X147852900Y-101711620D01*
X147852900Y-101560399D01*
X147851035Y-101548625D01*
X147838420Y-101468977D01*
X147782277Y-101358789D01*
X147694832Y-101271344D01*
X147584644Y-101215201D01*
X147584642Y-101215200D01*
X147584641Y-101215200D01*
X147496391Y-101201223D01*
X147493222Y-101200721D01*
X146931778Y-101200721D01*
X146928609Y-101201223D01*
X146840358Y-101215200D01*
X146730168Y-101271344D01*
X146642723Y-101358789D01*
X146586579Y-101468979D01*
X146572100Y-101560399D01*
X146572100Y-102096842D01*
X146586579Y-102188262D01*
X146586579Y-102188263D01*
X146586580Y-102188265D01*
X146642723Y-102298453D01*
X146730168Y-102385898D01*
X146840356Y-102442041D01*
X146931778Y-102456521D01*
X146931779Y-102456521D01*
X147479994Y-102456521D01*
X147536495Y-102477086D01*
X147542149Y-102482266D01*
X148505459Y-103445578D01*
X148507043Y-103447247D01*
X148534828Y-103478105D01*
X148534831Y-103478108D01*
X148556519Y-103487764D01*
X148568641Y-103494345D01*
X148588562Y-103507282D01*
X148588564Y-103507283D01*
X148595440Y-103508371D01*
X148617444Y-103514889D01*
X148623803Y-103517721D01*
X148647552Y-103517721D01*
X148661301Y-103518803D01*
X148664497Y-103519309D01*
X148684759Y-103522518D01*
X148691484Y-103520715D01*
X148714234Y-103517721D01*
X163323333Y-103517721D01*
X163379834Y-103538286D01*
X163409898Y-103590357D01*
X163399457Y-103649571D01*
X163389763Y-103663183D01*
X163345571Y-103714183D01*
X163293029Y-103743417D01*
X163279141Y-103744521D01*
X141536306Y-103744521D01*
X141479805Y-103723956D01*
X141474151Y-103718776D01*
X139972170Y-102216794D01*
X139946759Y-102162300D01*
X139947506Y-102140893D01*
X139952900Y-102106843D01*
X139952900Y-102098805D01*
X144722200Y-102098805D01*
X144737602Y-102196053D01*
X144797326Y-102313269D01*
X144890351Y-102406294D01*
X145007567Y-102466018D01*
X145104816Y-102481421D01*
X145260499Y-102481421D01*
X145260500Y-102481420D01*
X145260500Y-101955622D01*
X145260499Y-101955621D01*
X145514500Y-101955621D01*
X145514500Y-102481420D01*
X145514501Y-102481421D01*
X145670184Y-102481421D01*
X145767432Y-102466018D01*
X145884648Y-102406294D01*
X145977673Y-102313269D01*
X146037397Y-102196053D01*
X146052800Y-102098805D01*
X146052800Y-101955622D01*
X146052799Y-101955621D01*
X145514500Y-101955621D01*
X145260499Y-101955621D01*
X144722201Y-101955621D01*
X144722200Y-101955622D01*
X144722200Y-102098805D01*
X139952900Y-102098805D01*
X139952900Y-101701620D01*
X144722200Y-101701620D01*
X144722201Y-101701621D01*
X145260499Y-101701621D01*
X145260500Y-101701620D01*
X145260500Y-101175822D01*
X145260499Y-101175821D01*
X145514500Y-101175821D01*
X145514500Y-101701620D01*
X145514501Y-101701621D01*
X146052799Y-101701621D01*
X146052800Y-101701620D01*
X146052800Y-101558436D01*
X146037397Y-101461188D01*
X145977673Y-101343972D01*
X145884648Y-101250947D01*
X145767432Y-101191223D01*
X145670184Y-101175821D01*
X145514500Y-101175821D01*
X145260499Y-101175821D01*
X145104816Y-101175821D01*
X145007567Y-101191223D01*
X144890351Y-101250947D01*
X144797326Y-101343972D01*
X144737602Y-101461188D01*
X144722200Y-101558436D01*
X144722200Y-101701620D01*
X139952900Y-101701620D01*
X139952900Y-101570399D01*
X139938420Y-101478977D01*
X139882277Y-101368789D01*
X139794832Y-101281344D01*
X139684644Y-101225201D01*
X139684642Y-101225200D01*
X139684641Y-101225200D01*
X139614414Y-101214077D01*
X139593222Y-101210721D01*
X139031778Y-101210721D01*
X139014574Y-101213445D01*
X138940358Y-101225200D01*
X138830168Y-101281344D01*
X138742723Y-101368789D01*
X138686579Y-101478979D01*
X138672100Y-101570399D01*
X138672100Y-102106842D01*
X138152800Y-102106842D01*
X138152800Y-101965621D01*
X137614501Y-101965621D01*
X137614500Y-101965622D01*
X137614500Y-102491420D01*
X137360500Y-102491420D01*
X137360500Y-102491419D01*
X137360500Y-101965622D01*
X137360499Y-101965621D01*
X136822201Y-101965621D01*
X136822200Y-101965622D01*
X136822200Y-102108805D01*
X135825233Y-102108805D01*
X135439645Y-101723217D01*
X135434237Y-101711619D01*
X136822200Y-101711619D01*
X136822201Y-101711621D01*
X137360499Y-101711621D01*
X137360500Y-101711620D01*
X137360500Y-101185822D01*
X137360499Y-101185821D01*
X137614500Y-101185821D01*
X137614500Y-101711620D01*
X137614501Y-101711621D01*
X138152799Y-101711621D01*
X138152800Y-101711620D01*
X138152800Y-101568436D01*
X138137397Y-101471188D01*
X138077673Y-101353972D01*
X137984648Y-101260947D01*
X137867432Y-101201223D01*
X137770184Y-101185821D01*
X137614500Y-101185821D01*
X137360499Y-101185821D01*
X137204816Y-101185821D01*
X137107567Y-101201223D01*
X136990351Y-101260947D01*
X136897326Y-101353972D01*
X136837602Y-101471188D01*
X136822200Y-101568436D01*
X136822200Y-101711619D01*
X135434237Y-101711619D01*
X135414234Y-101668723D01*
X135413900Y-101661062D01*
X135413900Y-98928805D01*
X138692200Y-98928805D01*
X138707602Y-99026053D01*
X138767326Y-99143269D01*
X138860351Y-99236294D01*
X138977567Y-99296018D01*
X139074816Y-99311421D01*
X139230499Y-99311421D01*
X139230500Y-99311420D01*
X139484500Y-99311420D01*
X139484501Y-99311421D01*
X139640184Y-99311421D01*
X139737432Y-99296018D01*
X139854648Y-99236294D01*
X139947673Y-99143269D01*
X140007397Y-99026053D01*
X140022800Y-98928805D01*
X140022800Y-98926842D01*
X140542100Y-98926842D01*
X140556579Y-99018262D01*
X140556579Y-99018263D01*
X140556580Y-99018265D01*
X140612723Y-99128453D01*
X140700168Y-99215898D01*
X140810356Y-99272041D01*
X140901778Y-99286521D01*
X140901779Y-99286521D01*
X141463221Y-99286521D01*
X141463222Y-99286521D01*
X141554644Y-99272041D01*
X141664832Y-99215898D01*
X141752277Y-99128453D01*
X141808420Y-99018265D01*
X141822900Y-98926843D01*
X141822900Y-98918805D01*
X146512200Y-98918805D01*
X146527602Y-99016053D01*
X146587326Y-99133269D01*
X146680351Y-99226294D01*
X146797567Y-99286018D01*
X146894816Y-99301421D01*
X147050499Y-99301421D01*
X147050500Y-99301420D01*
X147050500Y-98775622D01*
X147050499Y-98775621D01*
X147304500Y-98775621D01*
X147304500Y-99301420D01*
X147304501Y-99301421D01*
X147460184Y-99301421D01*
X147557432Y-99286018D01*
X147674648Y-99226294D01*
X147767673Y-99133269D01*
X147827397Y-99016053D01*
X147842800Y-98918805D01*
X147842800Y-98775622D01*
X147842799Y-98775621D01*
X147304500Y-98775621D01*
X147050499Y-98775621D01*
X146512201Y-98775621D01*
X146512200Y-98775622D01*
X146512200Y-98918805D01*
X141822900Y-98918805D01*
X141822900Y-98521620D01*
X146512200Y-98521620D01*
X146512201Y-98521621D01*
X147050499Y-98521621D01*
X147050500Y-98521620D01*
X147050500Y-97995822D01*
X147050499Y-97995821D01*
X147304500Y-97995821D01*
X147304500Y-98521620D01*
X147304501Y-98521621D01*
X147842799Y-98521621D01*
X147842800Y-98521620D01*
X147842800Y-98378436D01*
X147827397Y-98281188D01*
X147767673Y-98163972D01*
X147674648Y-98070947D01*
X147557432Y-98011223D01*
X147460184Y-97995821D01*
X147304500Y-97995821D01*
X147050499Y-97995821D01*
X146894816Y-97995821D01*
X146797567Y-98011223D01*
X146680351Y-98070947D01*
X146587326Y-98163972D01*
X146527602Y-98281188D01*
X146512200Y-98378436D01*
X146512200Y-98521620D01*
X141822900Y-98521620D01*
X141822900Y-98390399D01*
X141822629Y-98386956D01*
X141824536Y-98386805D01*
X141834779Y-98334037D01*
X141847977Y-98317139D01*
X142931651Y-97233466D01*
X142986146Y-97208055D01*
X142993807Y-97207721D01*
X149864694Y-97207721D01*
X149921195Y-97228286D01*
X149951259Y-97280357D01*
X149940818Y-97339571D01*
X149926849Y-97357775D01*
X149382962Y-97901661D01*
X149289648Y-97994976D01*
X149235154Y-98020387D01*
X149227493Y-98020721D01*
X148721778Y-98020721D01*
X148718609Y-98021223D01*
X148630358Y-98035200D01*
X148520168Y-98091344D01*
X148432723Y-98178789D01*
X148376579Y-98288979D01*
X148362100Y-98380399D01*
X148362100Y-98916842D01*
X148376579Y-99008262D01*
X148376579Y-99008263D01*
X148376580Y-99008265D01*
X148432723Y-99118453D01*
X148520168Y-99205898D01*
X148630356Y-99262041D01*
X148721778Y-99276521D01*
X148721779Y-99276521D01*
X149283221Y-99276521D01*
X149283222Y-99276521D01*
X149374644Y-99262041D01*
X149484832Y-99205898D01*
X149572277Y-99118453D01*
X149628420Y-99008265D01*
X149641005Y-98928805D01*
X154472200Y-98928805D01*
X154487602Y-99026053D01*
X154547326Y-99143269D01*
X154640351Y-99236294D01*
X154757567Y-99296018D01*
X154854816Y-99311421D01*
X155010499Y-99311421D01*
X155010500Y-99311420D01*
X155264500Y-99311420D01*
X155264501Y-99311421D01*
X155420184Y-99311421D01*
X155517432Y-99296018D01*
X155634648Y-99236294D01*
X155727673Y-99143269D01*
X155787397Y-99026053D01*
X155802800Y-98928805D01*
X155802800Y-98785622D01*
X155802799Y-98785621D01*
X155264501Y-98785621D01*
X155264500Y-98785622D01*
X155264500Y-99311420D01*
X155010500Y-99311420D01*
X155010500Y-98785621D01*
X154472201Y-98785621D01*
X154472200Y-98785622D01*
X154472200Y-98928805D01*
X149641005Y-98928805D01*
X149642900Y-98916843D01*
X149642900Y-98531620D01*
X154472200Y-98531620D01*
X154472201Y-98531621D01*
X155010499Y-98531621D01*
X155010500Y-98531620D01*
X155010500Y-98531619D01*
X155264500Y-98531619D01*
X155264501Y-98531621D01*
X155802799Y-98531621D01*
X155802800Y-98531619D01*
X155802800Y-98388436D01*
X155787397Y-98291188D01*
X155727673Y-98173972D01*
X155634648Y-98080947D01*
X155517432Y-98021223D01*
X155420184Y-98005821D01*
X155264501Y-98005821D01*
X155264500Y-98005822D01*
X155264500Y-98531619D01*
X155010500Y-98531619D01*
X155010500Y-98005822D01*
X155010499Y-98005821D01*
X154854816Y-98005821D01*
X154757567Y-98021223D01*
X154640351Y-98080947D01*
X154547326Y-98173972D01*
X154487602Y-98291188D01*
X154472200Y-98388436D01*
X154472200Y-98531620D01*
X149642900Y-98531620D01*
X149642900Y-98380399D01*
X149637507Y-98346350D01*
X149648980Y-98287328D01*
X149662166Y-98270449D01*
X150349150Y-97583466D01*
X150403645Y-97558055D01*
X150411306Y-97557721D01*
X159648694Y-97557721D01*
X159705195Y-97578286D01*
X159710849Y-97583466D01*
X160406849Y-98279466D01*
X160432260Y-98333960D01*
X160416697Y-98392038D01*
X160367444Y-98426526D01*
X160344694Y-98429521D01*
X157684170Y-98429521D01*
X157627669Y-98408956D01*
X157597605Y-98356885D01*
X157597352Y-98355371D01*
X157588420Y-98298979D01*
X157588420Y-98298977D01*
X157532277Y-98188789D01*
X157444832Y-98101344D01*
X157334644Y-98045201D01*
X157334642Y-98045200D01*
X157334641Y-98045200D01*
X157263230Y-98033890D01*
X157243222Y-98030721D01*
X156681778Y-98030721D01*
X156664574Y-98033445D01*
X156590358Y-98045200D01*
X156480168Y-98101344D01*
X156392723Y-98188789D01*
X156336579Y-98298979D01*
X156322100Y-98390399D01*
X156322100Y-98926842D01*
X156336579Y-99018262D01*
X156336579Y-99018263D01*
X156336580Y-99018265D01*
X156392723Y-99128453D01*
X156480168Y-99215898D01*
X156590356Y-99272041D01*
X156681778Y-99286521D01*
X156681779Y-99286521D01*
X157243221Y-99286521D01*
X157243222Y-99286521D01*
X157334644Y-99272041D01*
X157444832Y-99215898D01*
X157532277Y-99128453D01*
X157588420Y-99018265D01*
X157597352Y-98961870D01*
X157626502Y-98909282D01*
X157682636Y-98887734D01*
X157684170Y-98887721D01*
X160488694Y-98887721D01*
X160545195Y-98908286D01*
X160550849Y-98913466D01*
X162922643Y-101285260D01*
X162948054Y-101339754D01*
X162932491Y-101397832D01*
X162885253Y-101431754D01*
X162807249Y-101454658D01*
X162807245Y-101454660D01*
X162690386Y-101529761D01*
X162690381Y-101529765D01*
X162647562Y-101579183D01*
X162595020Y-101608417D01*
X162581131Y-101609521D01*
X155854170Y-101609521D01*
X155797669Y-101588956D01*
X155767605Y-101536885D01*
X155767352Y-101535371D01*
X155758420Y-101478979D01*
X155758420Y-101478977D01*
X155702277Y-101368789D01*
X155614832Y-101281344D01*
X155504644Y-101225201D01*
X155504642Y-101225200D01*
X155504641Y-101225200D01*
X155434414Y-101214077D01*
X155413222Y-101210721D01*
X154851778Y-101210721D01*
X154834574Y-101213445D01*
X154760358Y-101225200D01*
X154650168Y-101281344D01*
X154562723Y-101368789D01*
X154506579Y-101478979D01*
X154492100Y-101570399D01*
X154492100Y-102106842D01*
X154506579Y-102198262D01*
X154506579Y-102198263D01*
X154506580Y-102198265D01*
X154562723Y-102308453D01*
X154650168Y-102395898D01*
X154760356Y-102452041D01*
X154851778Y-102466521D01*
X154851779Y-102466521D01*
X155413221Y-102466521D01*
X155413222Y-102466521D01*
X155504644Y-102452041D01*
X155614832Y-102395898D01*
X155702277Y-102308453D01*
X155758420Y-102198265D01*
X155767352Y-102141870D01*
X155796502Y-102089282D01*
X155852636Y-102067734D01*
X155854170Y-102067721D01*
X162499641Y-102067721D01*
X162556142Y-102088286D01*
X162579597Y-102119105D01*
X162599409Y-102162487D01*
X162599410Y-102162488D01*
X162599411Y-102162490D01*
X162690383Y-102267478D01*
X162690385Y-102267479D01*
X162690386Y-102267480D01*
X162807245Y-102342581D01*
X162807246Y-102342581D01*
X162807249Y-102342583D01*
X162898035Y-102369240D01*
X162940536Y-102381720D01*
X162940539Y-102381720D01*
X162940541Y-102381721D01*
X162940542Y-102381721D01*
X163079458Y-102381721D01*
X163079459Y-102381721D01*
X163079461Y-102381720D01*
X163079463Y-102381720D01*
X163097169Y-102376521D01*
X163212751Y-102342583D01*
X163329617Y-102267478D01*
X163420589Y-102162490D01*
X163478298Y-102036126D01*
X163478589Y-102034097D01*
X163498068Y-101898624D01*
X163498068Y-101898619D01*
X163482893Y-101793077D01*
X163495207Y-101734224D01*
X163542470Y-101697056D01*
X163594663Y-101696228D01*
X163611058Y-101701042D01*
X163715536Y-101731720D01*
X163715539Y-101731720D01*
X163715541Y-101731721D01*
X163715542Y-101731721D01*
X163854458Y-101731721D01*
X163854459Y-101731721D01*
X163854461Y-101731720D01*
X163854463Y-101731720D01*
X163883421Y-101723217D01*
X163987751Y-101692583D01*
X164104617Y-101617478D01*
X164195589Y-101512490D01*
X164253298Y-101386126D01*
X164255791Y-101368789D01*
X164273068Y-101248624D01*
X164273068Y-101248617D01*
X164253299Y-101111122D01*
X164253298Y-101111121D01*
X164253298Y-101111116D01*
X164195589Y-100984752D01*
X164104617Y-100879764D01*
X164026786Y-100829745D01*
X163990373Y-100781898D01*
X163993234Y-100721839D01*
X164034031Y-100677670D01*
X164049541Y-100671461D01*
X164062751Y-100667583D01*
X164179617Y-100592478D01*
X164270589Y-100487490D01*
X164328298Y-100361126D01*
X164348068Y-100223621D01*
X164348068Y-100223617D01*
X164328299Y-100086122D01*
X164328298Y-100086121D01*
X164328298Y-100086116D01*
X164270589Y-99959752D01*
X164179617Y-99854764D01*
X164179615Y-99854763D01*
X164179613Y-99854761D01*
X164062754Y-99779660D01*
X164062751Y-99779659D01*
X164029280Y-99769831D01*
X163929463Y-99740521D01*
X163929459Y-99740521D01*
X163790541Y-99740521D01*
X163790536Y-99740521D01*
X163657249Y-99779659D01*
X163657245Y-99779660D01*
X163650270Y-99784143D01*
X163591620Y-99797386D01*
X163538178Y-99769831D01*
X163515747Y-99722702D01*
X163503299Y-99636122D01*
X163503298Y-99636121D01*
X163503298Y-99636116D01*
X163445589Y-99509752D01*
X163354617Y-99404764D01*
X163354615Y-99404763D01*
X163354613Y-99404761D01*
X163237754Y-99329660D01*
X163237751Y-99329659D01*
X163211092Y-99321831D01*
X163104463Y-99290521D01*
X163104459Y-99290521D01*
X162965541Y-99290521D01*
X162965536Y-99290521D01*
X162832249Y-99329659D01*
X162832244Y-99329660D01*
X162716991Y-99403730D01*
X162658341Y-99416977D01*
X162607314Y-99391939D01*
X160037039Y-96821662D01*
X160035470Y-96820010D01*
X160007670Y-96789135D01*
X160007669Y-96789134D01*
X159985972Y-96779473D01*
X159973858Y-96772896D01*
X159958077Y-96762649D01*
X159953936Y-96759960D01*
X159953933Y-96759959D01*
X159953932Y-96759959D01*
X159947058Y-96758870D01*
X159925064Y-96752355D01*
X159918699Y-96749521D01*
X159918697Y-96749521D01*
X159894947Y-96749521D01*
X159881197Y-96748439D01*
X159869119Y-96746526D01*
X159857743Y-96744724D01*
X159857740Y-96744724D01*
X159851017Y-96746526D01*
X159828267Y-96749521D01*
X142869656Y-96749521D01*
X142867356Y-96749461D01*
X142842037Y-96748134D01*
X142825861Y-96747287D01*
X142825860Y-96747287D01*
X142825859Y-96747287D01*
X142803688Y-96755797D01*
X142790471Y-96759712D01*
X142789303Y-96759961D01*
X142767235Y-96764652D01*
X142767232Y-96764653D01*
X142761595Y-96768749D01*
X142741442Y-96779691D01*
X142734935Y-96782189D01*
X142734932Y-96782191D01*
X142718139Y-96798984D01*
X142707654Y-96807939D01*
X142688445Y-96821895D01*
X142688438Y-96821902D01*
X142684958Y-96827931D01*
X142670993Y-96846130D01*
X141512147Y-98004976D01*
X141457653Y-98030387D01*
X141449992Y-98030721D01*
X140901778Y-98030721D01*
X140884574Y-98033445D01*
X140810358Y-98045200D01*
X140700168Y-98101344D01*
X140612723Y-98188789D01*
X140556579Y-98298979D01*
X140542100Y-98390399D01*
X140542100Y-98926842D01*
X140022800Y-98926842D01*
X140022800Y-98785622D01*
X140022799Y-98785621D01*
X139484501Y-98785621D01*
X139484500Y-98785622D01*
X139484500Y-99311420D01*
X139230500Y-99311420D01*
X139230500Y-98785622D01*
X139230499Y-98785621D01*
X138692201Y-98785621D01*
X138692200Y-98785622D01*
X138692200Y-98928805D01*
X135413900Y-98928805D01*
X135413900Y-98531619D01*
X138692200Y-98531619D01*
X138692201Y-98531621D01*
X139230499Y-98531621D01*
X139230500Y-98531619D01*
X139484500Y-98531619D01*
X139484501Y-98531621D01*
X140022799Y-98531621D01*
X140022800Y-98531619D01*
X140022800Y-98388436D01*
X140007397Y-98291188D01*
X139947673Y-98173972D01*
X139854648Y-98080947D01*
X139737432Y-98021223D01*
X139640184Y-98005821D01*
X139484501Y-98005821D01*
X139484500Y-98005822D01*
X139484500Y-98531619D01*
X139230500Y-98531619D01*
X139230500Y-98005822D01*
X139230499Y-98005821D01*
X139074816Y-98005821D01*
X138977567Y-98021223D01*
X138860351Y-98080947D01*
X138767326Y-98173972D01*
X138707602Y-98291188D01*
X138692200Y-98388436D01*
X138692200Y-98531619D01*
X135413900Y-98531619D01*
X135413900Y-97408517D01*
X135413926Y-97407016D01*
X135414724Y-97383631D01*
X135416095Y-97343509D01*
X135405730Y-97300978D01*
X135404893Y-97296573D01*
X135398935Y-97253222D01*
X135390896Y-97234715D01*
X135386122Y-97220516D01*
X135381346Y-97200915D01*
X135381346Y-97200914D01*
X135359897Y-97162769D01*
X135357893Y-97158734D01*
X135340463Y-97118605D01*
X135327732Y-97102957D01*
X135319301Y-97090571D01*
X135309414Y-97072986D01*
X135278469Y-97042041D01*
X135275464Y-97038711D01*
X135247842Y-97004759D01*
X135231358Y-96993123D01*
X135219900Y-96983472D01*
X134360233Y-96123805D01*
X153597200Y-96123805D01*
X153612602Y-96221053D01*
X153672326Y-96338269D01*
X153765351Y-96431294D01*
X153882567Y-96491018D01*
X153979816Y-96506421D01*
X154122999Y-96506421D01*
X154123000Y-96506420D01*
X154377000Y-96506420D01*
X154377001Y-96506421D01*
X154520184Y-96506421D01*
X154617432Y-96491018D01*
X154734648Y-96431294D01*
X154827673Y-96338269D01*
X154887397Y-96221053D01*
X154902800Y-96123805D01*
X154902800Y-95918121D01*
X154377001Y-95918121D01*
X154377000Y-95918122D01*
X154377000Y-96506420D01*
X154123000Y-96506420D01*
X154123000Y-95918122D01*
X154122999Y-95918121D01*
X153597201Y-95918121D01*
X153597200Y-95918122D01*
X153597200Y-96123805D01*
X134360233Y-96123805D01*
X134339004Y-96102576D01*
X134313593Y-96048082D01*
X134329156Y-95990004D01*
X134378409Y-95955516D01*
X134401159Y-95952521D01*
X138840120Y-95952521D01*
X138841620Y-95952547D01*
X138867852Y-95953442D01*
X138905112Y-95954715D01*
X138947635Y-95944352D01*
X138952036Y-95943515D01*
X138995399Y-95937556D01*
X139013901Y-95929518D01*
X139028104Y-95924743D01*
X139047706Y-95919967D01*
X139085863Y-95898511D01*
X139089862Y-95896524D01*
X139130014Y-95879085D01*
X139145662Y-95866353D01*
X139158055Y-95857919D01*
X139175635Y-95848035D01*
X139206577Y-95817091D01*
X139209907Y-95814085D01*
X139243862Y-95786463D01*
X139255497Y-95769977D01*
X139265144Y-95758524D01*
X139359549Y-95664119D01*
X153597200Y-95664119D01*
X153597201Y-95664121D01*
X154122999Y-95664121D01*
X154123000Y-95664120D01*
X154123000Y-95075822D01*
X154122999Y-95075821D01*
X154377000Y-95075821D01*
X154377000Y-95664120D01*
X154377001Y-95664121D01*
X154902799Y-95664121D01*
X154902800Y-95664120D01*
X154902800Y-95458436D01*
X154887397Y-95361188D01*
X154827673Y-95243972D01*
X154734648Y-95150947D01*
X154617432Y-95091223D01*
X154520184Y-95075821D01*
X154377000Y-95075821D01*
X154122999Y-95075821D01*
X153979816Y-95075821D01*
X153882567Y-95091223D01*
X153765351Y-95150947D01*
X153672326Y-95243972D01*
X153612602Y-95361188D01*
X153597200Y-95458436D01*
X153597200Y-95664119D01*
X139359549Y-95664119D01*
X140977903Y-94045766D01*
X141032397Y-94020355D01*
X141040058Y-94020021D01*
X146071060Y-94020021D01*
X146127561Y-94040586D01*
X146151470Y-94072416D01*
X146195213Y-94171482D01*
X146195780Y-94172766D01*
X146275855Y-94252841D01*
X146379450Y-94298583D01*
X146404774Y-94301521D01*
X146404781Y-94301521D01*
X146795219Y-94301521D01*
X146795226Y-94301521D01*
X146820550Y-94298583D01*
X146924145Y-94252841D01*
X146995654Y-94181331D01*
X147050146Y-94155921D01*
X147108225Y-94171482D01*
X147121373Y-94184631D01*
X147121903Y-94184102D01*
X147209083Y-94271282D01*
X147313845Y-94320133D01*
X147313854Y-94320136D01*
X147361586Y-94326420D01*
X147422999Y-94326419D01*
X147423000Y-94326419D01*
X147423000Y-93447021D01*
X147443565Y-93390520D01*
X147495636Y-93360456D01*
X147510900Y-93359121D01*
X147589100Y-93359121D01*
X147645601Y-93379686D01*
X147675665Y-93431757D01*
X147677000Y-93447021D01*
X147677000Y-94326419D01*
X147677001Y-94326420D01*
X147738414Y-94326420D01*
X147738415Y-94326419D01*
X147786145Y-94320137D01*
X147786151Y-94320135D01*
X147890917Y-94271281D01*
X147978097Y-94184102D01*
X147980117Y-94186122D01*
X148019415Y-94158588D01*
X148079315Y-94163810D01*
X148104342Y-94181328D01*
X148175855Y-94252841D01*
X148279450Y-94298583D01*
X148304774Y-94301521D01*
X148304781Y-94301521D01*
X148695219Y-94301521D01*
X148695226Y-94301521D01*
X148720550Y-94298583D01*
X148824145Y-94252841D01*
X148904220Y-94172766D01*
X148949962Y-94069171D01*
X148952900Y-94043847D01*
X148952900Y-93803121D01*
X148973465Y-93746620D01*
X149025536Y-93716556D01*
X149040800Y-93715221D01*
X149405434Y-93715221D01*
X149461935Y-93735786D01*
X149491999Y-93787857D01*
X149492252Y-93789371D01*
X149501579Y-93848262D01*
X149501579Y-93848263D01*
X149501580Y-93848265D01*
X149557723Y-93958453D01*
X149645168Y-94045898D01*
X149755356Y-94102041D01*
X149846778Y-94116521D01*
X149846779Y-94116521D01*
X150408221Y-94116521D01*
X150408222Y-94116521D01*
X150499644Y-94102041D01*
X150609832Y-94045898D01*
X150697277Y-93958453D01*
X150753420Y-93848265D01*
X150767900Y-93756843D01*
X150767900Y-93220399D01*
X150753420Y-93128977D01*
X150697277Y-93018789D01*
X150609832Y-92931344D01*
X150499644Y-92875201D01*
X150499642Y-92875200D01*
X150499641Y-92875200D01*
X150425875Y-92863517D01*
X150408222Y-92860721D01*
X149846778Y-92860721D01*
X149829574Y-92863445D01*
X149755358Y-92875200D01*
X149645168Y-92931344D01*
X149557723Y-93018789D01*
X149501579Y-93128979D01*
X149493044Y-93182871D01*
X149463894Y-93235460D01*
X149407760Y-93257008D01*
X149406226Y-93257021D01*
X149040800Y-93257021D01*
X148984299Y-93236456D01*
X148954235Y-93184385D01*
X148952900Y-93169121D01*
X148952900Y-92928402D01*
X148952900Y-92928395D01*
X148949962Y-92903071D01*
X148904220Y-92799476D01*
X148824145Y-92719401D01*
X148824143Y-92719400D01*
X148822519Y-92717776D01*
X148797108Y-92663282D01*
X148812671Y-92605204D01*
X148861924Y-92570716D01*
X148884674Y-92567721D01*
X150671194Y-92567721D01*
X150727695Y-92588286D01*
X150733349Y-92593466D01*
X151287018Y-93147135D01*
X151312429Y-93201629D01*
X151311905Y-93216922D01*
X151312371Y-93216959D01*
X151312100Y-93220401D01*
X151312100Y-93756842D01*
X151326579Y-93848262D01*
X151326579Y-93848263D01*
X151326580Y-93848265D01*
X151382723Y-93958453D01*
X151470168Y-94045898D01*
X151580356Y-94102041D01*
X151671778Y-94116521D01*
X151671779Y-94116521D01*
X152233221Y-94116521D01*
X152233222Y-94116521D01*
X152324644Y-94102041D01*
X152434832Y-94045898D01*
X152522277Y-93958453D01*
X152578420Y-93848265D01*
X152592900Y-93756843D01*
X152592900Y-93220399D01*
X152578420Y-93128977D01*
X152522277Y-93018789D01*
X152434832Y-92931344D01*
X152324644Y-92875201D01*
X152324642Y-92875200D01*
X152324641Y-92875200D01*
X152250875Y-92863517D01*
X152233222Y-92860721D01*
X151685007Y-92860721D01*
X151628506Y-92840156D01*
X151622852Y-92834976D01*
X150969539Y-92181662D01*
X150967970Y-92180010D01*
X150940170Y-92149135D01*
X150940169Y-92149134D01*
X150918472Y-92139473D01*
X150906358Y-92132896D01*
X150893522Y-92124561D01*
X150886436Y-92119960D01*
X150886433Y-92119959D01*
X150886432Y-92119959D01*
X150879558Y-92118870D01*
X150857564Y-92112355D01*
X150851199Y-92109521D01*
X150851197Y-92109521D01*
X150827447Y-92109521D01*
X150813697Y-92108439D01*
X150796537Y-92105721D01*
X150790243Y-92104724D01*
X150790240Y-92104724D01*
X150783517Y-92106526D01*
X150760767Y-92109521D01*
X148904674Y-92109521D01*
X148848173Y-92088956D01*
X148818109Y-92036885D01*
X148828550Y-91977671D01*
X148842515Y-91959470D01*
X148904220Y-91897766D01*
X148949962Y-91794171D01*
X148952900Y-91768847D01*
X148952900Y-91528120D01*
X148973465Y-91471620D01*
X149025536Y-91441556D01*
X149040800Y-91440221D01*
X149407810Y-91440221D01*
X149464311Y-91460786D01*
X149494375Y-91512857D01*
X149494628Y-91514371D01*
X149501579Y-91558262D01*
X149501579Y-91558263D01*
X149501580Y-91558265D01*
X149557723Y-91668453D01*
X149645168Y-91755898D01*
X149755356Y-91812041D01*
X149846778Y-91826521D01*
X149846779Y-91826521D01*
X150408221Y-91826521D01*
X150408222Y-91826521D01*
X150499644Y-91812041D01*
X150609832Y-91755898D01*
X150697277Y-91668453D01*
X150753420Y-91558265D01*
X150767589Y-91468805D01*
X151287200Y-91468805D01*
X151302602Y-91566053D01*
X151362326Y-91683269D01*
X151455351Y-91776294D01*
X151572567Y-91836018D01*
X151669816Y-91851421D01*
X151825499Y-91851421D01*
X151825500Y-91851420D01*
X152079500Y-91851420D01*
X152079501Y-91851421D01*
X152235184Y-91851421D01*
X152332432Y-91836018D01*
X152449648Y-91776294D01*
X152542673Y-91683269D01*
X152602397Y-91566053D01*
X152617800Y-91468805D01*
X152617800Y-91325622D01*
X152617799Y-91325621D01*
X152079501Y-91325621D01*
X152079500Y-91325622D01*
X152079500Y-91851420D01*
X151825500Y-91851420D01*
X151825500Y-91325622D01*
X151825499Y-91325621D01*
X151287201Y-91325621D01*
X151287200Y-91325622D01*
X151287200Y-91468805D01*
X150767589Y-91468805D01*
X150767900Y-91466843D01*
X150767900Y-91071620D01*
X151287200Y-91071620D01*
X151287201Y-91071621D01*
X151825499Y-91071621D01*
X151825500Y-91071620D01*
X152079500Y-91071620D01*
X152079501Y-91071621D01*
X152617799Y-91071621D01*
X152617800Y-91071619D01*
X152617800Y-90928436D01*
X152602397Y-90831188D01*
X152542673Y-90713972D01*
X152449648Y-90620947D01*
X152332432Y-90561223D01*
X152235184Y-90545821D01*
X152079501Y-90545821D01*
X152079500Y-90545822D01*
X152079500Y-91071620D01*
X151825500Y-91071620D01*
X151825500Y-90545822D01*
X151825499Y-90545821D01*
X151669816Y-90545821D01*
X151572567Y-90561223D01*
X151455351Y-90620947D01*
X151362326Y-90713972D01*
X151302602Y-90831188D01*
X151287200Y-90928436D01*
X151287200Y-91071620D01*
X150767900Y-91071620D01*
X150767900Y-90930399D01*
X150753420Y-90838977D01*
X150697277Y-90728789D01*
X150609832Y-90641344D01*
X150499644Y-90585201D01*
X150499642Y-90585200D01*
X150499641Y-90585200D01*
X150428748Y-90573972D01*
X150408222Y-90570721D01*
X149846778Y-90570721D01*
X149829574Y-90573445D01*
X149755358Y-90585200D01*
X149645168Y-90641344D01*
X149557723Y-90728789D01*
X149501579Y-90838979D01*
X149490668Y-90907872D01*
X149461518Y-90960460D01*
X149405384Y-90982008D01*
X149403850Y-90982021D01*
X149040800Y-90982021D01*
X148984299Y-90961456D01*
X148954235Y-90909385D01*
X148952900Y-90894121D01*
X148952900Y-90653402D01*
X148952900Y-90653395D01*
X148949962Y-90628071D01*
X148904220Y-90524476D01*
X148824145Y-90444401D01*
X148810058Y-90438181D01*
X148720553Y-90398660D01*
X148720551Y-90398659D01*
X148720550Y-90398659D01*
X148712465Y-90397721D01*
X148695237Y-90395722D01*
X148695232Y-90395721D01*
X148695226Y-90395721D01*
X148304774Y-90395721D01*
X148304768Y-90395721D01*
X148304762Y-90395722D01*
X148279450Y-90398659D01*
X148279446Y-90398660D01*
X148175856Y-90444400D01*
X148095779Y-90524477D01*
X148050039Y-90628067D01*
X148050038Y-90628071D01*
X148047101Y-90653383D01*
X148047100Y-90653402D01*
X148047100Y-91768839D01*
X148047101Y-91768858D01*
X148050038Y-91794170D01*
X148050039Y-91794174D01*
X148095779Y-91897764D01*
X148095780Y-91897766D01*
X148157481Y-91959467D01*
X148182892Y-92013960D01*
X148167329Y-92072038D01*
X148118076Y-92106526D01*
X148095326Y-92109521D01*
X147004674Y-92109521D01*
X146948173Y-92088956D01*
X146918109Y-92036885D01*
X146928550Y-91977671D01*
X146942515Y-91959470D01*
X147004220Y-91897766D01*
X147049962Y-91794171D01*
X147052900Y-91768847D01*
X147052900Y-90653395D01*
X147049962Y-90628071D01*
X147016071Y-90551315D01*
X147014390Y-90547508D01*
X147006900Y-90512003D01*
X147006900Y-90150042D01*
X147027465Y-90093541D01*
X147054892Y-90071723D01*
X147144832Y-90025898D01*
X147232277Y-89938453D01*
X147288420Y-89828265D01*
X147302900Y-89736843D01*
X147302900Y-89200399D01*
X147288420Y-89108977D01*
X147232277Y-88998789D01*
X147144832Y-88911344D01*
X147034644Y-88855201D01*
X147034642Y-88855200D01*
X147034641Y-88855200D01*
X146964414Y-88844077D01*
X146943222Y-88840721D01*
X146943221Y-88840721D01*
X146806131Y-88840721D01*
X146786957Y-88838604D01*
X146674433Y-88813452D01*
X146674431Y-88813452D01*
X146608479Y-88815524D01*
X146509550Y-88818634D01*
X146445541Y-88837231D01*
X146421018Y-88840721D01*
X146281778Y-88840721D01*
X146264574Y-88843445D01*
X146190358Y-88855200D01*
X146080168Y-88911344D01*
X145992723Y-88998789D01*
X145936579Y-89108979D01*
X145922100Y-89200399D01*
X145922100Y-89736842D01*
X145936579Y-89828262D01*
X145936579Y-89828263D01*
X145936580Y-89828265D01*
X145992723Y-89938453D01*
X146080168Y-90025898D01*
X146145106Y-90058985D01*
X146186112Y-90102958D01*
X146193100Y-90137304D01*
X146193100Y-90512003D01*
X146185610Y-90547508D01*
X146150039Y-90628067D01*
X146150038Y-90628071D01*
X146147101Y-90653383D01*
X146147100Y-90653402D01*
X146147100Y-91768839D01*
X146147101Y-91768858D01*
X146150038Y-91794170D01*
X146150039Y-91794174D01*
X146195779Y-91897764D01*
X146195780Y-91897766D01*
X146257481Y-91959467D01*
X146282892Y-92013960D01*
X146267329Y-92072038D01*
X146218076Y-92106526D01*
X146195326Y-92109521D01*
X145471306Y-92109521D01*
X145414805Y-92088956D01*
X145409151Y-92083776D01*
X143064181Y-89738805D01*
X144172200Y-89738805D01*
X144187602Y-89836053D01*
X144247326Y-89953269D01*
X144340351Y-90046294D01*
X144457567Y-90106018D01*
X144554816Y-90121421D01*
X144760499Y-90121421D01*
X144760500Y-90121420D01*
X145014500Y-90121420D01*
X145014501Y-90121421D01*
X145220184Y-90121421D01*
X145317432Y-90106018D01*
X145434648Y-90046294D01*
X145527673Y-89953269D01*
X145587397Y-89836053D01*
X145602800Y-89738805D01*
X145602800Y-89595622D01*
X145602799Y-89595621D01*
X145014501Y-89595621D01*
X145014500Y-89595622D01*
X145014500Y-90121420D01*
X144760500Y-90121420D01*
X144760500Y-89595621D01*
X144172201Y-89595621D01*
X144172200Y-89595622D01*
X144172200Y-89738805D01*
X143064181Y-89738805D01*
X142666996Y-89341620D01*
X144172200Y-89341620D01*
X144172201Y-89341621D01*
X144760499Y-89341621D01*
X144760500Y-89341620D01*
X145014500Y-89341620D01*
X145014501Y-89341621D01*
X145602799Y-89341621D01*
X145602800Y-89341620D01*
X145602800Y-89198436D01*
X145587397Y-89101188D01*
X145527673Y-88983972D01*
X145434648Y-88890947D01*
X145317432Y-88831223D01*
X145220184Y-88815821D01*
X145014501Y-88815821D01*
X145014500Y-88815822D01*
X145014500Y-89341620D01*
X144760500Y-89341620D01*
X144760500Y-88815822D01*
X144760499Y-88815821D01*
X144554816Y-88815821D01*
X144457567Y-88831223D01*
X144340351Y-88890947D01*
X144247326Y-88983972D01*
X144187602Y-89101188D01*
X144172200Y-89198436D01*
X144172200Y-89341620D01*
X142666996Y-89341620D01*
X140656033Y-87330657D01*
X142807100Y-87330657D01*
X142814055Y-87365620D01*
X142815972Y-87375257D01*
X142849766Y-87425833D01*
X142852270Y-87427506D01*
X142900341Y-87459627D01*
X142907741Y-87461098D01*
X142944943Y-87468499D01*
X144201045Y-87468498D01*
X144257546Y-87489063D01*
X144263200Y-87494243D01*
X145207944Y-88438987D01*
X145207947Y-88438989D01*
X145230871Y-88461913D01*
X145247735Y-88470505D01*
X145253592Y-88473490D01*
X145265352Y-88480697D01*
X145285988Y-88495690D01*
X145285989Y-88495690D01*
X145285990Y-88495691D01*
X145310250Y-88503573D01*
X145322991Y-88508851D01*
X145330153Y-88512500D01*
X145345716Y-88520430D01*
X145370909Y-88524419D01*
X145384314Y-88527637D01*
X145408575Y-88535520D01*
X145439182Y-88535520D01*
X145439206Y-88535521D01*
X145440998Y-88535521D01*
X151197976Y-88535521D01*
X151495047Y-88535521D01*
X151551548Y-88556086D01*
X151557202Y-88561266D01*
X153817355Y-90821419D01*
X153842766Y-90875913D01*
X153843100Y-90883574D01*
X153843100Y-93360413D01*
X153822535Y-93416914D01*
X153795106Y-93438732D01*
X153780171Y-93446341D01*
X153692723Y-93533789D01*
X153636579Y-93643979D01*
X153622100Y-93735399D01*
X153622100Y-94396842D01*
X153636579Y-94488262D01*
X153636579Y-94488263D01*
X153636580Y-94488265D01*
X153692723Y-94598453D01*
X153780168Y-94685898D01*
X153890356Y-94742041D01*
X153981778Y-94756521D01*
X154328548Y-94756521D01*
X154385049Y-94777086D01*
X154390691Y-94782255D01*
X154400349Y-94791913D01*
X154423071Y-94803490D01*
X154434824Y-94810692D01*
X154455468Y-94825691D01*
X154479722Y-94833571D01*
X154492468Y-94838851D01*
X154515193Y-94850430D01*
X154540385Y-94854420D01*
X154553796Y-94857639D01*
X154578054Y-94865521D01*
X154610476Y-94865521D01*
X155293383Y-94865521D01*
X155328888Y-94873011D01*
X155409450Y-94908583D01*
X155434774Y-94911521D01*
X155434781Y-94911521D01*
X156550219Y-94911521D01*
X156550226Y-94911521D01*
X156575550Y-94908583D01*
X156679145Y-94862841D01*
X156759220Y-94782766D01*
X156804962Y-94679171D01*
X156807900Y-94653847D01*
X156807900Y-94263395D01*
X156804962Y-94238071D01*
X156759220Y-94134476D01*
X156687709Y-94062965D01*
X156662299Y-94008473D01*
X156677862Y-93950395D01*
X156691011Y-93937248D01*
X156690481Y-93936718D01*
X156777661Y-93849537D01*
X156826512Y-93744775D01*
X156826515Y-93744766D01*
X156832800Y-93697033D01*
X156832800Y-93635622D01*
X156832799Y-93635621D01*
X155152201Y-93635621D01*
X155152201Y-93697036D01*
X155158483Y-93744766D01*
X155158485Y-93744772D01*
X155207339Y-93849538D01*
X155259467Y-93901666D01*
X155284878Y-93956160D01*
X155269315Y-94014238D01*
X155220062Y-94048726D01*
X155197312Y-94051721D01*
X154965800Y-94051721D01*
X154909299Y-94031156D01*
X154879235Y-93979085D01*
X154877900Y-93963821D01*
X154877900Y-93735399D01*
X154877688Y-93734059D01*
X154863420Y-93643977D01*
X154807277Y-93533789D01*
X154719832Y-93446344D01*
X154719829Y-93446342D01*
X154719828Y-93446341D01*
X154704894Y-93438732D01*
X154663888Y-93394758D01*
X154656900Y-93360413D01*
X154656900Y-90614174D01*
X154649019Y-90589920D01*
X154645799Y-90576506D01*
X154641809Y-90551314D01*
X154641809Y-90551313D01*
X154630230Y-90528589D01*
X154624950Y-90515843D01*
X154617070Y-90491589D01*
X154609337Y-90480946D01*
X154602071Y-90470945D01*
X154594868Y-90459190D01*
X154583292Y-90436470D01*
X154583291Y-90436469D01*
X154583291Y-90436468D01*
X154492151Y-90345328D01*
X154492151Y-90345329D01*
X151965077Y-87818255D01*
X151942151Y-87795329D01*
X151927439Y-87787832D01*
X151919427Y-87783750D01*
X151907670Y-87776545D01*
X151887035Y-87761553D01*
X151887027Y-87761548D01*
X151862770Y-87753667D01*
X151850027Y-87748389D01*
X151827304Y-87736811D01*
X151827307Y-87736811D01*
X151802114Y-87732821D01*
X151788707Y-87729603D01*
X151764446Y-87721721D01*
X151732024Y-87721721D01*
X151262024Y-87721721D01*
X145677976Y-87721721D01*
X145621475Y-87701156D01*
X145615821Y-87695976D01*
X144838644Y-86918799D01*
X144813233Y-86864305D01*
X144812899Y-86856644D01*
X144812899Y-86465599D01*
X145342247Y-86465599D01*
X145358907Y-86634753D01*
X145361612Y-86662208D01*
X145391616Y-86761116D01*
X145418958Y-86851249D01*
X145512084Y-87025477D01*
X145637411Y-87178188D01*
X145790122Y-87303515D01*
X145964350Y-87396641D01*
X146098715Y-87437400D01*
X146149546Y-87452820D01*
X146153397Y-87453988D01*
X146350000Y-87473352D01*
X146546603Y-87453988D01*
X146735650Y-87396641D01*
X146909878Y-87303515D01*
X147062589Y-87178188D01*
X147187916Y-87025477D01*
X147281042Y-86851249D01*
X147338389Y-86662202D01*
X147357753Y-86465599D01*
X147882247Y-86465599D01*
X147898907Y-86634753D01*
X147901612Y-86662208D01*
X147931616Y-86761116D01*
X147958958Y-86851249D01*
X148052084Y-87025477D01*
X148177411Y-87178188D01*
X148330122Y-87303515D01*
X148504350Y-87396641D01*
X148638715Y-87437400D01*
X148689546Y-87452820D01*
X148693397Y-87453988D01*
X148890000Y-87473352D01*
X149086603Y-87453988D01*
X149275650Y-87396641D01*
X149449878Y-87303515D01*
X149602589Y-87178188D01*
X149727916Y-87025477D01*
X149821042Y-86851249D01*
X149878389Y-86662202D01*
X149897753Y-86465599D01*
X150422247Y-86465599D01*
X150438907Y-86634753D01*
X150441612Y-86662208D01*
X150471616Y-86761116D01*
X150498958Y-86851249D01*
X150592084Y-87025477D01*
X150717411Y-87178188D01*
X150870122Y-87303515D01*
X151044350Y-87396641D01*
X151178715Y-87437400D01*
X151229546Y-87452820D01*
X151233397Y-87453988D01*
X151430000Y-87473352D01*
X151626603Y-87453988D01*
X151815650Y-87396641D01*
X151989878Y-87303515D01*
X152142589Y-87178188D01*
X152267916Y-87025477D01*
X152361042Y-86851249D01*
X152418389Y-86662202D01*
X152437753Y-86465599D01*
X152962247Y-86465599D01*
X152978907Y-86634753D01*
X152981612Y-86662208D01*
X153011616Y-86761116D01*
X153038958Y-86851249D01*
X153132084Y-87025477D01*
X153257411Y-87178188D01*
X153410122Y-87303515D01*
X153584350Y-87396641D01*
X153675491Y-87424288D01*
X153678516Y-87425206D01*
X153726614Y-87461286D01*
X153740900Y-87509321D01*
X153740900Y-88241471D01*
X153740840Y-88243772D01*
X153738666Y-88285260D01*
X153747177Y-88307433D01*
X153751092Y-88320650D01*
X153756031Y-88343888D01*
X153760124Y-88349521D01*
X153771071Y-88369682D01*
X153773567Y-88376183D01*
X153773568Y-88376185D01*
X153790364Y-88392982D01*
X153799320Y-88403468D01*
X153813276Y-88422677D01*
X153813278Y-88422679D01*
X153819308Y-88426160D01*
X153837510Y-88440127D01*
X155688504Y-90291121D01*
X155713915Y-90345615D01*
X155698352Y-90403693D01*
X155649099Y-90438181D01*
X155640100Y-90440094D01*
X155607858Y-90445200D01*
X155497668Y-90501344D01*
X155410223Y-90588789D01*
X155354079Y-90698979D01*
X155339600Y-90790399D01*
X155339600Y-91326842D01*
X155354079Y-91418262D01*
X155354079Y-91418263D01*
X155354080Y-91418265D01*
X155410223Y-91528453D01*
X155497668Y-91615898D01*
X155607856Y-91672041D01*
X155676750Y-91682952D01*
X155729338Y-91712102D01*
X155750887Y-91768235D01*
X155750900Y-91769770D01*
X155750900Y-92017821D01*
X155730335Y-92074322D01*
X155678264Y-92104386D01*
X155663000Y-92105721D01*
X155434774Y-92105721D01*
X155434768Y-92105721D01*
X155434762Y-92105722D01*
X155409450Y-92108659D01*
X155409446Y-92108660D01*
X155305856Y-92154400D01*
X155225779Y-92234477D01*
X155180039Y-92338067D01*
X155180038Y-92338071D01*
X155177101Y-92363383D01*
X155177100Y-92363402D01*
X155177100Y-92753839D01*
X155177101Y-92753858D01*
X155180038Y-92779170D01*
X155180039Y-92779174D01*
X155206966Y-92840156D01*
X155225780Y-92882766D01*
X155297289Y-92954275D01*
X155322700Y-93008768D01*
X155307137Y-93066846D01*
X155293989Y-93079994D01*
X155294519Y-93080524D01*
X155207338Y-93167704D01*
X155158487Y-93272466D01*
X155158484Y-93272475D01*
X155152200Y-93320208D01*
X155152200Y-93381620D01*
X155152201Y-93381621D01*
X156832798Y-93381621D01*
X156832799Y-93381620D01*
X156832799Y-93320207D01*
X156832798Y-93320205D01*
X156826516Y-93272475D01*
X156826514Y-93272469D01*
X156777660Y-93167703D01*
X156690481Y-93080524D01*
X156692498Y-93078506D01*
X156664962Y-93039185D01*
X156670198Y-92979286D01*
X156687708Y-92954277D01*
X156759220Y-92882766D01*
X156804962Y-92779171D01*
X156807900Y-92753847D01*
X156807900Y-92753839D01*
X157452100Y-92753839D01*
X157452101Y-92753858D01*
X157455038Y-92779170D01*
X157455039Y-92779174D01*
X157481966Y-92840156D01*
X157500780Y-92882766D01*
X157580855Y-92962841D01*
X157684450Y-93008583D01*
X157709774Y-93011521D01*
X157709781Y-93011521D01*
X158825219Y-93011521D01*
X158825226Y-93011521D01*
X158850550Y-93008583D01*
X158954145Y-92962841D01*
X159034220Y-92882766D01*
X159079962Y-92779171D01*
X159082900Y-92753847D01*
X159082900Y-92363395D01*
X159079962Y-92338071D01*
X159034220Y-92234476D01*
X158954145Y-92154401D01*
X158942219Y-92149135D01*
X158850553Y-92108660D01*
X158850551Y-92108659D01*
X158850550Y-92108659D01*
X158843061Y-92107790D01*
X158825237Y-92105722D01*
X158825232Y-92105721D01*
X158825226Y-92105721D01*
X157709774Y-92105721D01*
X157709768Y-92105721D01*
X157709762Y-92105722D01*
X157684450Y-92108659D01*
X157684446Y-92108660D01*
X157580856Y-92154400D01*
X157500779Y-92234477D01*
X157455039Y-92338067D01*
X157455038Y-92338071D01*
X157452101Y-92363383D01*
X157452100Y-92363402D01*
X157452100Y-92753839D01*
X156807900Y-92753839D01*
X156807900Y-92363395D01*
X156804962Y-92338071D01*
X156759220Y-92234476D01*
X156679145Y-92154401D01*
X156667219Y-92149135D01*
X156575553Y-92108660D01*
X156575551Y-92108659D01*
X156575550Y-92108659D01*
X156568061Y-92107790D01*
X156550237Y-92105722D01*
X156550232Y-92105721D01*
X156550226Y-92105721D01*
X156550219Y-92105721D01*
X156297000Y-92105721D01*
X156240499Y-92085156D01*
X156210435Y-92033085D01*
X156209100Y-92017821D01*
X156209100Y-91769770D01*
X156229665Y-91713269D01*
X156281736Y-91683205D01*
X156283168Y-91682965D01*
X156352144Y-91672041D01*
X156462332Y-91615898D01*
X156549777Y-91528453D01*
X156605920Y-91418265D01*
X156620400Y-91326843D01*
X156620400Y-91185621D01*
X157139700Y-91185621D01*
X157139700Y-91328805D01*
X157155102Y-91426053D01*
X157214826Y-91543269D01*
X157307851Y-91636294D01*
X157425067Y-91696018D01*
X157522316Y-91711421D01*
X157677999Y-91711421D01*
X157678000Y-91711420D01*
X157678000Y-91185622D01*
X157677999Y-91185621D01*
X157932000Y-91185621D01*
X157932000Y-91711420D01*
X157932001Y-91711421D01*
X158087684Y-91711421D01*
X158184932Y-91696018D01*
X158302148Y-91636294D01*
X158395173Y-91543269D01*
X158454897Y-91426053D01*
X158470300Y-91328805D01*
X158470300Y-91185622D01*
X158470299Y-91185621D01*
X157932000Y-91185621D01*
X157677999Y-91185621D01*
X157139700Y-91185621D01*
X156620400Y-91185621D01*
X156620400Y-90790399D01*
X156605920Y-90698977D01*
X156549777Y-90588789D01*
X156462332Y-90501344D01*
X156352144Y-90445201D01*
X156352142Y-90445200D01*
X156352141Y-90445200D01*
X156283249Y-90434289D01*
X156230661Y-90405139D01*
X156209113Y-90349005D01*
X156209100Y-90347471D01*
X156209100Y-90265768D01*
X156209160Y-90263467D01*
X156210412Y-90239571D01*
X156211334Y-90221981D01*
X156206925Y-90210495D01*
X156202823Y-90199808D01*
X156198906Y-90186584D01*
X156193969Y-90163357D01*
X156193967Y-90163353D01*
X156189875Y-90157721D01*
X156178927Y-90137556D01*
X156176433Y-90131059D01*
X156176432Y-90131058D01*
X156176432Y-90131057D01*
X156159630Y-90114255D01*
X156150677Y-90103771D01*
X156150086Y-90102958D01*
X156136722Y-90084563D01*
X156136721Y-90084562D01*
X156136722Y-90084562D01*
X156130692Y-90081081D01*
X156112488Y-90067113D01*
X154224845Y-88179469D01*
X154199434Y-88124975D01*
X154199100Y-88117314D01*
X154199100Y-87509321D01*
X154219665Y-87452820D01*
X154261484Y-87425206D01*
X154263020Y-87424739D01*
X154355650Y-87396641D01*
X154529878Y-87303515D01*
X154682589Y-87178188D01*
X154807916Y-87025477D01*
X154835479Y-86973908D01*
X154880250Y-86933774D01*
X154940345Y-86931807D01*
X154987645Y-86968928D01*
X155000900Y-87015345D01*
X155000900Y-87031471D01*
X155000840Y-87033772D01*
X154998666Y-87075260D01*
X155007177Y-87097433D01*
X155011092Y-87110650D01*
X155016031Y-87133888D01*
X155020124Y-87139521D01*
X155031071Y-87159682D01*
X155033567Y-87166183D01*
X155033568Y-87166185D01*
X155050364Y-87182982D01*
X155059320Y-87193468D01*
X155073276Y-87212677D01*
X155073278Y-87212679D01*
X155079308Y-87216160D01*
X155097510Y-87230127D01*
X155852959Y-87985578D01*
X155854543Y-87987247D01*
X155882328Y-88018105D01*
X155882331Y-88018108D01*
X155904019Y-88027764D01*
X155916141Y-88034345D01*
X155936062Y-88047282D01*
X155936064Y-88047283D01*
X155942940Y-88048371D01*
X155964944Y-88054889D01*
X155971303Y-88057721D01*
X155995052Y-88057721D01*
X156008801Y-88058803D01*
X156013877Y-88059606D01*
X156032259Y-88062518D01*
X156038984Y-88060715D01*
X156061734Y-88057721D01*
X156881194Y-88057721D01*
X156937695Y-88078286D01*
X156943349Y-88083466D01*
X157877018Y-89017136D01*
X157902429Y-89071630D01*
X157901903Y-89086922D01*
X157902371Y-89086959D01*
X157902100Y-89090401D01*
X157902100Y-89626842D01*
X157916579Y-89718263D01*
X157964195Y-89811716D01*
X157971522Y-89871395D01*
X157938774Y-89921821D01*
X157885875Y-89939521D01*
X157658806Y-89939521D01*
X157602305Y-89918956D01*
X157596651Y-89913776D01*
X157382981Y-89700105D01*
X157357570Y-89645611D01*
X157358109Y-89630323D01*
X157357629Y-89630286D01*
X157357900Y-89626842D01*
X157357900Y-89090399D01*
X157343420Y-88998979D01*
X157343420Y-88998977D01*
X157287277Y-88888789D01*
X157199832Y-88801344D01*
X157089644Y-88745201D01*
X157089642Y-88745200D01*
X157089641Y-88745200D01*
X157018097Y-88733869D01*
X156998222Y-88730721D01*
X156436778Y-88730721D01*
X156419574Y-88733445D01*
X156345358Y-88745200D01*
X156235168Y-88801344D01*
X156147723Y-88888789D01*
X156091579Y-88998979D01*
X156077100Y-89090399D01*
X156077100Y-89626842D01*
X156091579Y-89718262D01*
X156091579Y-89718263D01*
X156091580Y-89718265D01*
X156147723Y-89828453D01*
X156235168Y-89915898D01*
X156345356Y-89972041D01*
X156436778Y-89986521D01*
X156436779Y-89986521D01*
X156984993Y-89986521D01*
X157041494Y-90007086D01*
X157047148Y-90012266D01*
X157360450Y-90325569D01*
X157362016Y-90327217D01*
X157363180Y-90328509D01*
X157385739Y-90384243D01*
X157367196Y-90441439D01*
X157337802Y-90465686D01*
X157307852Y-90480946D01*
X157214826Y-90573972D01*
X157155102Y-90691188D01*
X157139700Y-90788436D01*
X157139700Y-90931619D01*
X157139701Y-90931621D01*
X158470299Y-90931621D01*
X158470300Y-90931619D01*
X158470300Y-90788436D01*
X158454897Y-90691188D01*
X158395173Y-90573972D01*
X158368977Y-90547776D01*
X158343566Y-90493282D01*
X158359129Y-90435204D01*
X158408382Y-90400716D01*
X158431132Y-90397721D01*
X159390351Y-90397721D01*
X159392652Y-90397781D01*
X159400343Y-90398183D01*
X159434139Y-90399955D01*
X159456309Y-90391444D01*
X159469527Y-90387528D01*
X159492765Y-90382590D01*
X159498394Y-90378499D01*
X159518561Y-90367548D01*
X159525064Y-90365053D01*
X159541865Y-90348250D01*
X159552340Y-90339304D01*
X159571558Y-90325343D01*
X159575040Y-90319311D01*
X159589008Y-90301108D01*
X159650546Y-90239571D01*
X159705040Y-90214160D01*
X159763118Y-90229723D01*
X159797605Y-90278976D01*
X159800600Y-90301726D01*
X159800600Y-93750686D01*
X159780035Y-93807187D01*
X159727964Y-93837251D01*
X159726451Y-93837504D01*
X159677858Y-93845200D01*
X159677856Y-93845200D01*
X159677856Y-93845201D01*
X159669346Y-93849537D01*
X159567668Y-93901344D01*
X159480221Y-93988791D01*
X159472613Y-94003725D01*
X159428640Y-94044733D01*
X159394293Y-94051721D01*
X158966617Y-94051721D01*
X158931112Y-94044231D01*
X158850553Y-94008660D01*
X158850551Y-94008659D01*
X158850550Y-94008659D01*
X158843061Y-94007790D01*
X158825237Y-94005722D01*
X158825232Y-94005721D01*
X158825226Y-94005721D01*
X157709774Y-94005721D01*
X157709768Y-94005721D01*
X157709762Y-94005722D01*
X157684450Y-94008659D01*
X157684446Y-94008660D01*
X157580856Y-94054400D01*
X157500779Y-94134477D01*
X157455039Y-94238067D01*
X157455038Y-94238071D01*
X157452101Y-94263383D01*
X157452100Y-94263402D01*
X157452100Y-94653839D01*
X157452101Y-94653858D01*
X157455038Y-94679170D01*
X157455039Y-94679174D01*
X157498272Y-94777086D01*
X157500780Y-94782766D01*
X157580855Y-94862841D01*
X157684450Y-94908583D01*
X157709774Y-94911521D01*
X157709781Y-94911521D01*
X158825219Y-94911521D01*
X158825226Y-94911521D01*
X158850550Y-94908583D01*
X158931111Y-94873011D01*
X158966617Y-94865521D01*
X159394293Y-94865521D01*
X159450794Y-94886086D01*
X159472612Y-94913516D01*
X159480223Y-94928453D01*
X159567668Y-95015898D01*
X159677856Y-95072041D01*
X159769278Y-95086521D01*
X159769279Y-95086521D01*
X160430721Y-95086521D01*
X160430722Y-95086521D01*
X160522144Y-95072041D01*
X160632332Y-95015898D01*
X160719777Y-94928453D01*
X160775920Y-94818265D01*
X160790089Y-94728805D01*
X161109700Y-94728805D01*
X161125102Y-94826053D01*
X161184826Y-94943269D01*
X161277851Y-95036294D01*
X161395067Y-95096018D01*
X161492316Y-95111421D01*
X161697999Y-95111421D01*
X161698000Y-95111420D01*
X161952000Y-95111420D01*
X161952001Y-95111421D01*
X162157684Y-95111421D01*
X162254932Y-95096018D01*
X162372148Y-95036294D01*
X162465173Y-94943269D01*
X162524897Y-94826053D01*
X162540300Y-94728805D01*
X162540300Y-94585622D01*
X162540299Y-94585621D01*
X161952001Y-94585621D01*
X161952000Y-94585622D01*
X161952000Y-95111420D01*
X161698000Y-95111420D01*
X161698000Y-94585622D01*
X161697999Y-94585621D01*
X161109701Y-94585621D01*
X161109700Y-94585622D01*
X161109700Y-94728805D01*
X160790089Y-94728805D01*
X160790400Y-94726843D01*
X160790400Y-94331620D01*
X161109700Y-94331620D01*
X161109701Y-94331621D01*
X161697999Y-94331621D01*
X161698000Y-94331619D01*
X161698000Y-93805822D01*
X161697999Y-93805821D01*
X161952000Y-93805821D01*
X161952000Y-94331620D01*
X161952001Y-94331621D01*
X162540299Y-94331621D01*
X162540300Y-94331619D01*
X162540300Y-94188436D01*
X162524897Y-94091188D01*
X162465173Y-93973972D01*
X162372148Y-93880947D01*
X162254932Y-93821223D01*
X162157684Y-93805821D01*
X161952000Y-93805821D01*
X161697999Y-93805821D01*
X161492316Y-93805821D01*
X161395067Y-93821223D01*
X161277851Y-93880947D01*
X161184826Y-93973972D01*
X161125102Y-94091188D01*
X161109700Y-94188436D01*
X161109700Y-94331620D01*
X160790400Y-94331620D01*
X160790400Y-94190399D01*
X160775920Y-94098977D01*
X160719777Y-93988789D01*
X160640144Y-93909156D01*
X160614734Y-93854664D01*
X160614400Y-93847003D01*
X160614400Y-90008197D01*
X160634965Y-89951696D01*
X160662392Y-89929878D01*
X160689832Y-89915898D01*
X160745763Y-89859966D01*
X160800255Y-89834556D01*
X160858334Y-89850117D01*
X160892822Y-89899370D01*
X160893895Y-89903841D01*
X160896030Y-89913887D01*
X160900124Y-89919521D01*
X160911071Y-89939682D01*
X160913567Y-89946183D01*
X160913568Y-89946185D01*
X160930364Y-89962982D01*
X160939320Y-89973468D01*
X160953276Y-89992677D01*
X160953278Y-89992679D01*
X160959308Y-89996160D01*
X160977510Y-90010127D01*
X164405155Y-93437772D01*
X164430566Y-93492265D01*
X164430900Y-93499926D01*
X164430900Y-95637313D01*
X164410335Y-95693814D01*
X164405155Y-95699468D01*
X163393040Y-96711582D01*
X163391372Y-96713165D01*
X163360514Y-96740950D01*
X163357693Y-96747287D01*
X163350849Y-96762655D01*
X163344278Y-96774758D01*
X163339452Y-96782191D01*
X163331338Y-96794686D01*
X163330248Y-96801568D01*
X163323735Y-96823555D01*
X163320900Y-96829924D01*
X163320900Y-96853672D01*
X163319818Y-96867421D01*
X163316103Y-96890876D01*
X163316103Y-96890879D01*
X163317905Y-96897603D01*
X163320900Y-96920354D01*
X163320900Y-98223775D01*
X163320840Y-98226076D01*
X163318666Y-98267564D01*
X163327177Y-98289737D01*
X163331092Y-98302954D01*
X163336031Y-98326192D01*
X163340124Y-98331825D01*
X163351071Y-98351986D01*
X163353567Y-98358487D01*
X163353568Y-98358489D01*
X163370364Y-98375286D01*
X163379320Y-98385772D01*
X163393276Y-98404981D01*
X163393278Y-98404983D01*
X163399308Y-98408464D01*
X163417510Y-98422431D01*
X163552792Y-98557713D01*
X163578203Y-98612207D01*
X163577642Y-98632377D01*
X163563280Y-98732269D01*
X163563280Y-98732276D01*
X163583048Y-98869771D01*
X163583049Y-98869776D01*
X163583050Y-98869778D01*
X163640759Y-98996142D01*
X163731731Y-99101130D01*
X163731733Y-99101131D01*
X163731734Y-99101132D01*
X163848593Y-99176233D01*
X163848594Y-99176233D01*
X163848597Y-99176235D01*
X163939383Y-99202892D01*
X163981884Y-99215372D01*
X163981887Y-99215372D01*
X163981889Y-99215373D01*
X163981890Y-99215373D01*
X164120806Y-99215373D01*
X164120807Y-99215373D01*
X164120809Y-99215372D01*
X164120811Y-99215372D01*
X164136653Y-99210719D01*
X164254099Y-99176235D01*
X164370965Y-99101130D01*
X164461937Y-98996142D01*
X164519646Y-98869778D01*
X164531746Y-98785621D01*
X164539416Y-98732276D01*
X164539416Y-98732269D01*
X164519647Y-98594774D01*
X164519646Y-98594773D01*
X164519646Y-98594768D01*
X164461937Y-98468404D01*
X164370965Y-98363416D01*
X164370963Y-98363415D01*
X164370961Y-98363413D01*
X164254102Y-98288312D01*
X164254099Y-98288311D01*
X164223976Y-98279466D01*
X164120811Y-98249173D01*
X164120807Y-98249173D01*
X163981889Y-98249173D01*
X163981888Y-98249173D01*
X163962633Y-98254827D01*
X163902627Y-98251013D01*
X163875714Y-98232641D01*
X163804845Y-98161771D01*
X163779434Y-98107277D01*
X163779100Y-98099617D01*
X163779100Y-97009927D01*
X163799665Y-96953426D01*
X163804845Y-96947772D01*
X164308533Y-96444084D01*
X164816975Y-95935641D01*
X164818608Y-95934092D01*
X164849486Y-95906291D01*
X164859145Y-95884594D01*
X164865723Y-95872478D01*
X164878661Y-95852557D01*
X164879749Y-95845681D01*
X164886269Y-95823676D01*
X164889100Y-95817318D01*
X164889100Y-95793568D01*
X164890182Y-95779817D01*
X164892713Y-95763836D01*
X164893897Y-95756363D01*
X164893896Y-95756359D01*
X164893896Y-95756357D01*
X164892095Y-95749635D01*
X164889100Y-95726887D01*
X164889100Y-93375768D01*
X164889160Y-93373467D01*
X164889421Y-93368468D01*
X164891334Y-93331981D01*
X164882823Y-93309808D01*
X164878906Y-93296584D01*
X164873969Y-93273357D01*
X164873967Y-93273353D01*
X164869875Y-93267721D01*
X164858927Y-93247556D01*
X164856433Y-93241059D01*
X164856432Y-93241058D01*
X164856432Y-93241057D01*
X164839630Y-93224255D01*
X164830677Y-93213771D01*
X164821855Y-93201629D01*
X164816722Y-93194563D01*
X164816721Y-93194562D01*
X164816722Y-93194562D01*
X164810692Y-93191081D01*
X164792488Y-93177113D01*
X161751952Y-90136576D01*
X161726541Y-90082082D01*
X161742104Y-90024004D01*
X161791357Y-89989516D01*
X161814107Y-89986521D01*
X162313221Y-89986521D01*
X162313222Y-89986521D01*
X162404644Y-89972041D01*
X162514832Y-89915898D01*
X162602277Y-89828453D01*
X162636312Y-89761653D01*
X162680286Y-89720647D01*
X162740331Y-89717500D01*
X162776787Y-89739403D01*
X165875155Y-92837772D01*
X165900566Y-92892265D01*
X165900900Y-92899926D01*
X165900900Y-96147314D01*
X165880335Y-96203815D01*
X165875156Y-96209467D01*
X165667435Y-96417188D01*
X165667435Y-96417189D01*
X165088040Y-96996582D01*
X165086372Y-96998165D01*
X165055514Y-97025950D01*
X165055513Y-97025951D01*
X165055514Y-97025951D01*
X165045849Y-97047655D01*
X165039278Y-97059758D01*
X165030689Y-97072986D01*
X165026338Y-97079686D01*
X165025248Y-97086568D01*
X165018735Y-97108555D01*
X165015900Y-97114924D01*
X165015900Y-97138672D01*
X165014818Y-97152421D01*
X165011103Y-97175876D01*
X165011103Y-97175879D01*
X165012905Y-97182603D01*
X165015900Y-97205354D01*
X165015900Y-98026471D01*
X165015840Y-98028772D01*
X165015738Y-98030721D01*
X165013666Y-98070260D01*
X165022177Y-98092433D01*
X165026091Y-98105647D01*
X165026736Y-98108679D01*
X165031031Y-98128888D01*
X165035124Y-98134521D01*
X165046071Y-98154682D01*
X165048567Y-98161183D01*
X165048568Y-98161185D01*
X165065364Y-98177982D01*
X165074320Y-98188468D01*
X165085499Y-98203855D01*
X165088278Y-98207679D01*
X165094049Y-98211011D01*
X165094309Y-98211161D01*
X165112513Y-98225130D01*
X165186444Y-98299062D01*
X165211855Y-98353556D01*
X165211294Y-98373725D01*
X165196932Y-98473617D01*
X165196932Y-98473624D01*
X165216700Y-98611119D01*
X165216701Y-98611124D01*
X165216702Y-98611126D01*
X165274411Y-98737490D01*
X165365383Y-98842478D01*
X165365385Y-98842479D01*
X165365386Y-98842480D01*
X165482245Y-98917581D01*
X165482246Y-98917581D01*
X165482249Y-98917583D01*
X165573035Y-98944240D01*
X165615536Y-98956720D01*
X165615539Y-98956720D01*
X165615541Y-98956721D01*
X165615542Y-98956721D01*
X165754458Y-98956721D01*
X165754459Y-98956721D01*
X165754461Y-98956720D01*
X165754463Y-98956720D01*
X165770305Y-98952068D01*
X165887751Y-98917583D01*
X166004617Y-98842478D01*
X166095589Y-98737490D01*
X166153298Y-98611126D01*
X166173068Y-98473621D01*
X166173068Y-98473617D01*
X166153299Y-98336122D01*
X166153298Y-98336121D01*
X166153298Y-98336116D01*
X166095589Y-98209752D01*
X166008009Y-98108679D01*
X166004618Y-98104765D01*
X166004613Y-98104761D01*
X165887754Y-98029660D01*
X165887751Y-98029659D01*
X165857311Y-98020721D01*
X165754463Y-97990521D01*
X165754459Y-97990521D01*
X165615541Y-97990521D01*
X165615540Y-97990521D01*
X165609274Y-97992361D01*
X165597491Y-97995821D01*
X165596285Y-97996175D01*
X165536279Y-97992361D01*
X165509363Y-97973986D01*
X165499842Y-97964464D01*
X165474434Y-97909969D01*
X165474100Y-97902313D01*
X165474100Y-97294926D01*
X165494665Y-97238425D01*
X165499845Y-97232771D01*
X165722689Y-97009927D01*
X165974024Y-96758593D01*
X165974023Y-96758593D01*
X166286965Y-96445650D01*
X166288598Y-96444101D01*
X166319486Y-96416291D01*
X166329145Y-96394595D01*
X166335724Y-96382477D01*
X166348662Y-96362557D01*
X166349751Y-96355678D01*
X166356268Y-96333675D01*
X166359100Y-96327318D01*
X166359100Y-96303568D01*
X166360182Y-96289818D01*
X166363897Y-96266362D01*
X166363896Y-96266357D01*
X166362095Y-96259634D01*
X166359100Y-96236886D01*
X166359100Y-92775788D01*
X166359160Y-92773487D01*
X166359459Y-92767774D01*
X166361335Y-92731982D01*
X166352824Y-92709813D01*
X166348907Y-92696586D01*
X166343970Y-92673358D01*
X166342054Y-92670721D01*
X166339874Y-92667720D01*
X166328927Y-92647558D01*
X166326432Y-92641057D01*
X166309636Y-92624261D01*
X166300678Y-92613772D01*
X166286721Y-92594562D01*
X166280692Y-92591081D01*
X166262488Y-92577113D01*
X163397682Y-89712305D01*
X166749884Y-89712305D01*
X166769115Y-89944401D01*
X166769116Y-89944407D01*
X166826286Y-90170165D01*
X166826289Y-90170173D01*
X166919835Y-90383435D01*
X166919840Y-90383446D01*
X166919844Y-90383452D01*
X167047215Y-90578410D01*
X167047216Y-90578412D01*
X167151033Y-90691188D01*
X167204954Y-90749761D01*
X167388740Y-90892807D01*
X167593563Y-91003652D01*
X167813837Y-91079272D01*
X167813839Y-91079272D01*
X167813841Y-91079273D01*
X168043550Y-91117605D01*
X168043554Y-91117605D01*
X168276450Y-91117605D01*
X168506158Y-91079273D01*
X168506158Y-91079272D01*
X168506163Y-91079272D01*
X168726437Y-91003652D01*
X168931260Y-90892807D01*
X169115046Y-90749761D01*
X169272780Y-90578416D01*
X169400160Y-90383446D01*
X169493712Y-90170169D01*
X169522342Y-90057112D01*
X169550883Y-89944407D01*
X169550884Y-89944401D01*
X169551377Y-89938452D01*
X169570116Y-89712305D01*
X169550884Y-89480208D01*
X169550883Y-89480202D01*
X169493713Y-89254444D01*
X169493710Y-89254436D01*
X169444489Y-89142224D01*
X169400160Y-89041164D01*
X169300609Y-88888789D01*
X169272784Y-88846199D01*
X169272783Y-88846197D01*
X169115050Y-88674853D01*
X169115048Y-88674852D01*
X169115046Y-88674849D01*
X168931260Y-88531803D01*
X168726437Y-88420958D01*
X168726433Y-88420956D01*
X168726430Y-88420955D01*
X168506167Y-88345339D01*
X168506158Y-88345336D01*
X168276450Y-88307005D01*
X168276446Y-88307005D01*
X168043554Y-88307005D01*
X168043550Y-88307005D01*
X167813841Y-88345336D01*
X167813832Y-88345339D01*
X167593569Y-88420955D01*
X167593564Y-88420957D01*
X167593563Y-88420958D01*
X167388740Y-88531803D01*
X167379779Y-88538778D01*
X167204949Y-88674853D01*
X167047216Y-88846197D01*
X167047215Y-88846199D01*
X166919844Y-89041157D01*
X166919835Y-89041174D01*
X166826289Y-89254436D01*
X166826286Y-89254444D01*
X166769116Y-89480202D01*
X166769115Y-89480208D01*
X166749884Y-89712305D01*
X163397682Y-89712305D01*
X162904539Y-89219162D01*
X162902970Y-89217510D01*
X162875170Y-89186635D01*
X162875169Y-89186634D01*
X162853472Y-89176973D01*
X162841358Y-89170396D01*
X162828522Y-89162061D01*
X162821436Y-89157460D01*
X162821433Y-89157459D01*
X162821432Y-89157459D01*
X162814558Y-89156370D01*
X162792564Y-89149855D01*
X162786199Y-89147021D01*
X162786197Y-89147021D01*
X162762447Y-89147021D01*
X162748687Y-89145937D01*
X162743040Y-89145042D01*
X162690455Y-89115887D01*
X162669982Y-89071976D01*
X162658420Y-88998979D01*
X162658420Y-88998977D01*
X162602277Y-88888789D01*
X162514832Y-88801344D01*
X162404644Y-88745201D01*
X162404642Y-88745200D01*
X162404641Y-88745200D01*
X162333097Y-88733869D01*
X162313222Y-88730721D01*
X161765007Y-88730721D01*
X161708506Y-88710156D01*
X161702852Y-88704976D01*
X161039539Y-88041662D01*
X161037970Y-88040010D01*
X161010170Y-88009135D01*
X161010169Y-88009134D01*
X160988472Y-87999473D01*
X160976358Y-87992896D01*
X160963522Y-87984561D01*
X160956436Y-87979960D01*
X160956433Y-87979959D01*
X160956432Y-87979959D01*
X160949558Y-87978870D01*
X160927564Y-87972355D01*
X160921199Y-87969521D01*
X160921197Y-87969521D01*
X160897447Y-87969521D01*
X160883697Y-87968439D01*
X160871619Y-87966526D01*
X160860243Y-87964724D01*
X160860240Y-87964724D01*
X160853517Y-87966526D01*
X160830767Y-87969521D01*
X158374328Y-87969521D01*
X158317827Y-87948956D01*
X158312173Y-87943776D01*
X157410021Y-87041623D01*
X157384610Y-86987129D01*
X157394655Y-86938032D01*
X157396931Y-86933774D01*
X157441042Y-86851249D01*
X157498389Y-86662202D01*
X157517753Y-86465599D01*
X157498389Y-86268996D01*
X157441042Y-86079949D01*
X157347916Y-85905721D01*
X157222589Y-85753010D01*
X157069878Y-85627683D01*
X156895650Y-85534557D01*
X156895649Y-85534556D01*
X156895648Y-85534556D01*
X156706609Y-85477211D01*
X156706604Y-85477210D01*
X156706603Y-85477210D01*
X156510000Y-85457846D01*
X156509999Y-85457846D01*
X156462657Y-85462508D01*
X156313397Y-85477210D01*
X156313395Y-85477210D01*
X156313390Y-85477211D01*
X156124351Y-85534556D01*
X155950121Y-85627683D01*
X155797413Y-85753008D01*
X155797409Y-85753012D01*
X155672084Y-85905720D01*
X155624521Y-85994706D01*
X155579750Y-86034841D01*
X155519655Y-86036808D01*
X155472355Y-85999687D01*
X155459100Y-85953270D01*
X155459100Y-85336904D01*
X155479665Y-85280403D01*
X155484834Y-85274760D01*
X155933976Y-84825618D01*
X155988468Y-84800208D01*
X156037562Y-84810252D01*
X156124350Y-84856641D01*
X156313397Y-84913988D01*
X156510000Y-84933352D01*
X156706603Y-84913988D01*
X156895650Y-84856641D01*
X157069878Y-84763515D01*
X157222589Y-84638188D01*
X157347916Y-84485477D01*
X157441042Y-84311249D01*
X157498389Y-84122202D01*
X157517753Y-83925599D01*
X157498389Y-83728996D01*
X157441042Y-83539949D01*
X157347916Y-83365721D01*
X157222589Y-83213010D01*
X157069878Y-83087683D01*
X156895650Y-82994557D01*
X156895649Y-82994556D01*
X156895648Y-82994556D01*
X156706609Y-82937211D01*
X156706604Y-82937210D01*
X156706603Y-82937210D01*
X156510000Y-82917846D01*
X156313397Y-82937210D01*
X156313395Y-82937210D01*
X156313390Y-82937211D01*
X156124351Y-82994556D01*
X155950121Y-83087683D01*
X155797413Y-83213008D01*
X155797409Y-83213012D01*
X155672084Y-83365720D01*
X155578957Y-83539950D01*
X155521612Y-83728989D01*
X155502247Y-83925599D01*
X155521612Y-84122208D01*
X155578957Y-84311247D01*
X155625344Y-84398031D01*
X155633842Y-84457555D01*
X155609978Y-84501622D01*
X155073040Y-85038560D01*
X155071372Y-85040143D01*
X155040514Y-85067928D01*
X155040513Y-85067929D01*
X155040514Y-85067929D01*
X155030849Y-85089633D01*
X155024278Y-85101736D01*
X155015226Y-85115675D01*
X155011338Y-85121664D01*
X155010248Y-85128546D01*
X155003735Y-85150533D01*
X155000900Y-85156902D01*
X155000900Y-85180650D01*
X154999818Y-85194399D01*
X154996103Y-85217854D01*
X154996103Y-85217857D01*
X154997905Y-85224581D01*
X155000900Y-85247332D01*
X155000900Y-85915852D01*
X154980335Y-85972353D01*
X154928264Y-86002417D01*
X154869050Y-85991976D01*
X154835479Y-85957288D01*
X154807915Y-85905720D01*
X154682589Y-85753010D01*
X154529878Y-85627683D01*
X154355650Y-85534557D01*
X154355649Y-85534556D01*
X154355648Y-85534556D01*
X154166609Y-85477211D01*
X154166604Y-85477210D01*
X154166603Y-85477210D01*
X153970000Y-85457846D01*
X153773397Y-85477210D01*
X153773395Y-85477210D01*
X153773390Y-85477211D01*
X153584351Y-85534556D01*
X153410121Y-85627683D01*
X153257413Y-85753008D01*
X153257409Y-85753012D01*
X153132084Y-85905720D01*
X153038957Y-86079950D01*
X152981612Y-86268989D01*
X152981611Y-86268994D01*
X152981611Y-86268996D01*
X152962247Y-86465599D01*
X152437753Y-86465599D01*
X152418389Y-86268996D01*
X152361042Y-86079949D01*
X152267916Y-85905721D01*
X152142589Y-85753010D01*
X151989878Y-85627683D01*
X151815650Y-85534557D01*
X151815649Y-85534556D01*
X151815648Y-85534556D01*
X151626609Y-85477211D01*
X151626604Y-85477210D01*
X151626603Y-85477210D01*
X151430000Y-85457846D01*
X151233397Y-85477210D01*
X151233395Y-85477210D01*
X151233390Y-85477211D01*
X151044351Y-85534556D01*
X150870121Y-85627683D01*
X150717413Y-85753008D01*
X150717409Y-85753012D01*
X150592084Y-85905720D01*
X150498957Y-86079950D01*
X150441612Y-86268989D01*
X150441611Y-86268994D01*
X150441611Y-86268996D01*
X150422247Y-86465599D01*
X149897753Y-86465599D01*
X149878389Y-86268996D01*
X149821042Y-86079949D01*
X149727916Y-85905721D01*
X149602589Y-85753010D01*
X149449878Y-85627683D01*
X149275650Y-85534557D01*
X149275649Y-85534556D01*
X149275648Y-85534556D01*
X149086609Y-85477211D01*
X149086604Y-85477210D01*
X149086603Y-85477210D01*
X148890000Y-85457846D01*
X148889999Y-85457846D01*
X148842657Y-85462508D01*
X148693397Y-85477210D01*
X148693395Y-85477210D01*
X148693390Y-85477211D01*
X148504351Y-85534556D01*
X148330121Y-85627683D01*
X148177413Y-85753008D01*
X148177409Y-85753012D01*
X148052084Y-85905720D01*
X147958957Y-86079950D01*
X147901612Y-86268989D01*
X147883325Y-86454659D01*
X147882247Y-86465599D01*
X147357753Y-86465599D01*
X147338389Y-86268996D01*
X147281042Y-86079949D01*
X147187916Y-85905721D01*
X147062589Y-85753010D01*
X146909878Y-85627683D01*
X146735650Y-85534557D01*
X146735649Y-85534556D01*
X146735648Y-85534556D01*
X146546609Y-85477211D01*
X146546604Y-85477210D01*
X146546603Y-85477210D01*
X146350000Y-85457846D01*
X146153397Y-85477210D01*
X146153395Y-85477210D01*
X146153390Y-85477211D01*
X145964351Y-85534556D01*
X145790121Y-85627683D01*
X145637413Y-85753008D01*
X145637409Y-85753012D01*
X145512084Y-85905720D01*
X145418957Y-86079950D01*
X145361612Y-86268989D01*
X145343325Y-86454659D01*
X145342247Y-86465599D01*
X144812899Y-86465599D01*
X144812899Y-85600540D01*
X144809111Y-85581501D01*
X144804028Y-85555941D01*
X144770234Y-85505365D01*
X144770002Y-85505210D01*
X144719658Y-85471570D01*
X144682456Y-85464170D01*
X144675057Y-85462699D01*
X144675056Y-85462699D01*
X142944941Y-85462699D01*
X142900341Y-85471571D01*
X142849767Y-85505364D01*
X142849764Y-85505367D01*
X142815971Y-85555940D01*
X142807100Y-85600542D01*
X142807100Y-87330657D01*
X140656033Y-87330657D01*
X140398555Y-87073179D01*
X140373144Y-87018685D01*
X140373704Y-86998520D01*
X140388068Y-86898621D01*
X140388068Y-86898617D01*
X140368299Y-86761122D01*
X140368298Y-86761121D01*
X140368298Y-86761116D01*
X140310589Y-86634752D01*
X140219617Y-86529764D01*
X140219615Y-86529763D01*
X140219613Y-86529761D01*
X140102754Y-86454660D01*
X140102751Y-86454659D01*
X140076092Y-86446831D01*
X139969463Y-86415521D01*
X139969459Y-86415521D01*
X139830541Y-86415521D01*
X139830536Y-86415521D01*
X139697249Y-86454659D01*
X139697245Y-86454660D01*
X139580386Y-86529761D01*
X139580381Y-86529765D01*
X139489410Y-86634753D01*
X139431702Y-86761116D01*
X139431700Y-86761122D01*
X139411932Y-86898617D01*
X139411932Y-86898624D01*
X139431700Y-87036119D01*
X139431701Y-87036124D01*
X139431702Y-87036126D01*
X139489411Y-87162490D01*
X139580383Y-87267478D01*
X139580385Y-87267479D01*
X139580386Y-87267480D01*
X139697245Y-87342581D01*
X139697246Y-87342581D01*
X139697249Y-87342583D01*
X139775706Y-87365620D01*
X139830536Y-87381720D01*
X139830539Y-87381720D01*
X139830541Y-87381721D01*
X139830542Y-87381721D01*
X139969460Y-87381721D01*
X139969463Y-87381720D01*
X139988711Y-87376068D01*
X140048718Y-87379879D01*
X140075634Y-87398251D01*
X145172959Y-92495578D01*
X145174543Y-92497247D01*
X145202328Y-92528105D01*
X145202331Y-92528108D01*
X145224019Y-92537764D01*
X145236141Y-92544345D01*
X145256062Y-92557282D01*
X145256064Y-92557283D01*
X145262940Y-92558371D01*
X145284944Y-92564889D01*
X145291303Y-92567721D01*
X145315052Y-92567721D01*
X145328801Y-92568803D01*
X145333877Y-92569606D01*
X145352259Y-92572518D01*
X145358984Y-92570715D01*
X145381734Y-92567721D01*
X146215326Y-92567721D01*
X146271827Y-92588286D01*
X146301891Y-92640357D01*
X146291450Y-92699571D01*
X146277481Y-92717776D01*
X146275856Y-92719400D01*
X146275855Y-92719401D01*
X146221769Y-92773487D01*
X146195779Y-92799477D01*
X146151470Y-92899826D01*
X146109835Y-92943206D01*
X146071060Y-92952221D01*
X140792397Y-92952221D01*
X140790896Y-92952195D01*
X140727389Y-92950026D01*
X140727388Y-92950026D01*
X140720728Y-92951648D01*
X140684864Y-92960387D01*
X140680443Y-92961227D01*
X140637100Y-92967186D01*
X140637098Y-92967186D01*
X140618597Y-92975222D01*
X140604397Y-92979997D01*
X140584796Y-92984774D01*
X140546654Y-93006220D01*
X140542623Y-93008222D01*
X140535029Y-93011521D01*
X140502486Y-93025657D01*
X140502484Y-93025658D01*
X140502483Y-93025659D01*
X140486830Y-93038393D01*
X140474444Y-93046822D01*
X140456870Y-93056704D01*
X140456863Y-93056709D01*
X140425928Y-93087642D01*
X140422587Y-93090657D01*
X140388638Y-93118278D01*
X140388636Y-93118280D01*
X140376999Y-93134765D01*
X140367345Y-93146226D01*
X138654596Y-94858976D01*
X138600102Y-94884387D01*
X138592441Y-94884721D01*
X132929630Y-94884721D01*
X132925133Y-94884490D01*
X132881606Y-94880015D01*
X132881598Y-94880015D01*
X132861719Y-94883443D01*
X132846785Y-94884721D01*
X132672458Y-94884721D01*
X132615957Y-94864156D01*
X132607136Y-94855638D01*
X132606039Y-94854420D01*
X132557024Y-94799983D01*
X132416230Y-94697689D01*
X132257244Y-94626904D01*
X132257242Y-94626903D01*
X132257241Y-94626903D01*
X132087016Y-94590721D01*
X131912984Y-94590721D01*
X131742758Y-94626903D01*
X131742754Y-94626905D01*
X131583769Y-94697689D01*
X131442977Y-94799982D01*
X131442975Y-94799983D01*
X131326527Y-94929311D01*
X131326525Y-94929313D01*
X131326526Y-94929313D01*
X131239510Y-95080029D01*
X131229310Y-95111421D01*
X131185729Y-95245548D01*
X131167540Y-95418616D01*
X131167540Y-95418625D01*
X130465300Y-95418625D01*
X130465300Y-89712305D01*
X130749884Y-89712305D01*
X130750378Y-89718262D01*
X130769115Y-89944401D01*
X130769116Y-89944407D01*
X130826286Y-90170165D01*
X130826289Y-90170173D01*
X130919835Y-90383435D01*
X130919840Y-90383446D01*
X130919844Y-90383452D01*
X131047215Y-90578410D01*
X131047216Y-90578412D01*
X131151033Y-90691188D01*
X131204954Y-90749761D01*
X131388740Y-90892807D01*
X131593563Y-91003652D01*
X131813837Y-91079272D01*
X131813839Y-91079272D01*
X131813841Y-91079273D01*
X132043550Y-91117605D01*
X132043554Y-91117605D01*
X132276450Y-91117605D01*
X132506158Y-91079273D01*
X132506158Y-91079272D01*
X132506163Y-91079272D01*
X132726437Y-91003652D01*
X132931260Y-90892807D01*
X133115046Y-90749761D01*
X133272780Y-90578416D01*
X133400160Y-90383446D01*
X133493712Y-90170169D01*
X133522342Y-90057112D01*
X133550883Y-89944407D01*
X133550884Y-89944401D01*
X133551377Y-89938452D01*
X133570116Y-89712305D01*
X133550884Y-89480208D01*
X133550883Y-89480202D01*
X133493713Y-89254444D01*
X133493710Y-89254436D01*
X133444489Y-89142224D01*
X133400160Y-89041164D01*
X133300609Y-88888789D01*
X133272784Y-88846199D01*
X133272783Y-88846197D01*
X133115050Y-88674853D01*
X133115048Y-88674852D01*
X133115046Y-88674849D01*
X132931260Y-88531803D01*
X132726437Y-88420958D01*
X132726433Y-88420956D01*
X132726430Y-88420955D01*
X132506167Y-88345339D01*
X132506158Y-88345336D01*
X132276450Y-88307005D01*
X132276446Y-88307005D01*
X132043554Y-88307005D01*
X132043550Y-88307005D01*
X131813841Y-88345336D01*
X131813832Y-88345339D01*
X131593569Y-88420955D01*
X131593564Y-88420957D01*
X131593563Y-88420958D01*
X131388740Y-88531803D01*
X131379779Y-88538778D01*
X131204949Y-88674853D01*
X131047216Y-88846197D01*
X131047215Y-88846199D01*
X130919844Y-89041157D01*
X130919835Y-89041174D01*
X130826289Y-89254436D01*
X130826286Y-89254444D01*
X130769116Y-89480202D01*
X130769115Y-89480208D01*
X130756680Y-89630283D01*
X130749884Y-89712305D01*
X130465300Y-89712305D01*
X130465300Y-88784618D01*
X130485865Y-88728118D01*
X130509248Y-88708496D01*
X138793467Y-83925599D01*
X142802247Y-83925599D01*
X142821612Y-84122208D01*
X142878957Y-84311247D01*
X142878958Y-84311249D01*
X142972084Y-84485477D01*
X143097411Y-84638188D01*
X143250122Y-84763515D01*
X143424350Y-84856641D01*
X143613397Y-84913988D01*
X143810000Y-84933352D01*
X144006603Y-84913988D01*
X144195650Y-84856641D01*
X144369878Y-84763515D01*
X144522589Y-84638188D01*
X144647916Y-84485477D01*
X144741042Y-84311249D01*
X144798389Y-84122202D01*
X144817753Y-83925599D01*
X145342247Y-83925599D01*
X145361612Y-84122208D01*
X145418957Y-84311247D01*
X145418958Y-84311249D01*
X145512084Y-84485477D01*
X145637411Y-84638188D01*
X145790122Y-84763515D01*
X145964350Y-84856641D01*
X146153397Y-84913988D01*
X146350000Y-84933352D01*
X146546603Y-84913988D01*
X146735650Y-84856641D01*
X146909878Y-84763515D01*
X147062589Y-84638188D01*
X147187916Y-84485477D01*
X147281042Y-84311249D01*
X147338389Y-84122202D01*
X147357753Y-83925599D01*
X147882247Y-83925599D01*
X147901612Y-84122208D01*
X147958957Y-84311247D01*
X147958958Y-84311249D01*
X148052084Y-84485477D01*
X148177411Y-84638188D01*
X148330122Y-84763515D01*
X148504350Y-84856641D01*
X148693397Y-84913988D01*
X148890000Y-84933352D01*
X149086603Y-84913988D01*
X149275650Y-84856641D01*
X149449878Y-84763515D01*
X149602589Y-84638188D01*
X149727916Y-84485477D01*
X149821042Y-84311249D01*
X149878389Y-84122202D01*
X149885244Y-84052599D01*
X150409735Y-84052599D01*
X150417072Y-84127087D01*
X150475842Y-84320824D01*
X150475844Y-84320827D01*
X150571281Y-84499377D01*
X150699717Y-84655877D01*
X150699721Y-84655881D01*
X150856221Y-84784317D01*
X151034771Y-84879754D01*
X151034774Y-84879756D01*
X151228515Y-84938528D01*
X151303000Y-84945862D01*
X151303000Y-84412480D01*
X151394237Y-84425599D01*
X151465763Y-84425599D01*
X151557000Y-84412480D01*
X151557000Y-84945862D01*
X151631484Y-84938528D01*
X151825225Y-84879756D01*
X151825228Y-84879754D01*
X152003778Y-84784317D01*
X152160278Y-84655881D01*
X152160282Y-84655877D01*
X152288718Y-84499377D01*
X152384155Y-84320827D01*
X152384157Y-84320824D01*
X152442927Y-84127087D01*
X152450265Y-84052599D01*
X152949735Y-84052599D01*
X152957072Y-84127087D01*
X153015842Y-84320824D01*
X153015844Y-84320827D01*
X153111281Y-84499377D01*
X153239717Y-84655877D01*
X153239721Y-84655881D01*
X153396221Y-84784317D01*
X153574771Y-84879754D01*
X153574774Y-84879756D01*
X153768515Y-84938528D01*
X153843000Y-84945862D01*
X153843000Y-84412480D01*
X153934237Y-84425599D01*
X154005763Y-84425599D01*
X154097000Y-84412480D01*
X154097000Y-84945862D01*
X154171484Y-84938528D01*
X154365225Y-84879756D01*
X154365228Y-84879754D01*
X154543778Y-84784317D01*
X154700278Y-84655881D01*
X154700282Y-84655877D01*
X154828718Y-84499377D01*
X154924155Y-84320827D01*
X154924157Y-84320824D01*
X154982927Y-84127087D01*
X154990265Y-84052599D01*
X154453818Y-84052599D01*
X154470000Y-83997488D01*
X154470000Y-83853710D01*
X154453818Y-83798599D01*
X154990264Y-83798599D01*
X154982927Y-83724110D01*
X154924157Y-83530373D01*
X154924155Y-83530370D01*
X154828718Y-83351820D01*
X154700282Y-83195320D01*
X154700278Y-83195316D01*
X154543778Y-83066880D01*
X154365228Y-82971443D01*
X154365225Y-82971441D01*
X154171488Y-82912671D01*
X154097000Y-82905334D01*
X154097000Y-83438717D01*
X154005763Y-83425599D01*
X153934237Y-83425599D01*
X153843000Y-83438717D01*
X153843000Y-82905334D01*
X153768511Y-82912671D01*
X153574774Y-82971441D01*
X153574771Y-82971443D01*
X153396221Y-83066880D01*
X153239721Y-83195316D01*
X153239717Y-83195320D01*
X153111281Y-83351820D01*
X153015844Y-83530370D01*
X153015842Y-83530373D01*
X152957072Y-83724110D01*
X152949735Y-83798599D01*
X153486182Y-83798599D01*
X153470000Y-83853710D01*
X153470000Y-83997488D01*
X153486182Y-84052599D01*
X152949735Y-84052599D01*
X152450265Y-84052599D01*
X151913818Y-84052599D01*
X151930000Y-83997488D01*
X151930000Y-83853710D01*
X151913818Y-83798599D01*
X152450264Y-83798599D01*
X152442927Y-83724110D01*
X152384157Y-83530373D01*
X152384155Y-83530370D01*
X152288718Y-83351820D01*
X152160282Y-83195320D01*
X152160278Y-83195316D01*
X152003778Y-83066880D01*
X151825228Y-82971443D01*
X151825225Y-82971441D01*
X151631488Y-82912671D01*
X151557000Y-82905334D01*
X151557000Y-83438717D01*
X151465763Y-83425599D01*
X151394237Y-83425599D01*
X151303000Y-83438717D01*
X151303000Y-82905334D01*
X151228511Y-82912671D01*
X151034774Y-82971441D01*
X151034771Y-82971443D01*
X150856221Y-83066880D01*
X150699721Y-83195316D01*
X150699717Y-83195320D01*
X150571281Y-83351820D01*
X150475844Y-83530370D01*
X150475842Y-83530373D01*
X150417072Y-83724110D01*
X150409735Y-83798599D01*
X150946182Y-83798599D01*
X150930000Y-83853710D01*
X150930000Y-83997488D01*
X150946182Y-84052599D01*
X150409735Y-84052599D01*
X149885244Y-84052599D01*
X149897753Y-83925599D01*
X149878389Y-83728996D01*
X149821042Y-83539949D01*
X149727916Y-83365721D01*
X149602589Y-83213010D01*
X149449878Y-83087683D01*
X149275650Y-82994557D01*
X149275649Y-82994556D01*
X149275648Y-82994556D01*
X149086609Y-82937211D01*
X149086604Y-82937210D01*
X149086603Y-82937210D01*
X148890000Y-82917846D01*
X148693397Y-82937210D01*
X148693395Y-82937210D01*
X148693390Y-82937211D01*
X148504351Y-82994556D01*
X148330121Y-83087683D01*
X148177413Y-83213008D01*
X148177409Y-83213012D01*
X148052084Y-83365720D01*
X147958957Y-83539950D01*
X147901612Y-83728989D01*
X147882247Y-83925599D01*
X147357753Y-83925599D01*
X147338389Y-83728996D01*
X147281042Y-83539949D01*
X147187916Y-83365721D01*
X147062589Y-83213010D01*
X146909878Y-83087683D01*
X146735650Y-82994557D01*
X146735649Y-82994556D01*
X146735648Y-82994556D01*
X146546609Y-82937211D01*
X146546604Y-82937210D01*
X146546603Y-82937210D01*
X146350000Y-82917846D01*
X146153397Y-82937210D01*
X146153395Y-82937210D01*
X146153390Y-82937211D01*
X145964351Y-82994556D01*
X145790121Y-83087683D01*
X145637413Y-83213008D01*
X145637409Y-83213012D01*
X145512084Y-83365720D01*
X145418957Y-83539950D01*
X145361612Y-83728989D01*
X145342247Y-83925599D01*
X144817753Y-83925599D01*
X144798389Y-83728996D01*
X144741042Y-83539949D01*
X144647916Y-83365721D01*
X144522589Y-83213010D01*
X144369878Y-83087683D01*
X144195650Y-82994557D01*
X144195649Y-82994556D01*
X144195648Y-82994556D01*
X144006609Y-82937211D01*
X144006604Y-82937210D01*
X144006603Y-82937210D01*
X143810000Y-82917846D01*
X143613397Y-82937210D01*
X143613395Y-82937210D01*
X143613390Y-82937211D01*
X143424351Y-82994556D01*
X143250121Y-83087683D01*
X143097413Y-83213008D01*
X143097409Y-83213012D01*
X142972084Y-83365720D01*
X142878957Y-83539950D01*
X142821612Y-83728989D01*
X142802247Y-83925599D01*
X138793467Y-83925599D01*
X146770598Y-79320000D01*
X148749884Y-79320000D01*
X148769115Y-79552096D01*
X148769116Y-79552102D01*
X148826286Y-79777860D01*
X148826289Y-79777868D01*
X148897987Y-79941321D01*
X148919840Y-79991141D01*
X148919844Y-79991147D01*
X149047215Y-80186105D01*
X149047216Y-80186107D01*
X149047220Y-80186111D01*
X149204954Y-80357456D01*
X149388740Y-80500502D01*
X149593563Y-80611347D01*
X149813837Y-80686967D01*
X149813839Y-80686967D01*
X149813841Y-80686968D01*
X150043550Y-80725300D01*
X150043554Y-80725300D01*
X150276450Y-80725300D01*
X150506158Y-80686968D01*
X150506158Y-80686967D01*
X150506163Y-80686967D01*
X150726437Y-80611347D01*
X150931260Y-80500502D01*
X151115046Y-80357456D01*
X151272780Y-80186111D01*
X151400160Y-79991141D01*
X151493712Y-79777864D01*
X151550884Y-79552097D01*
X151570116Y-79320000D01*
X151550884Y-79087903D01*
X151550883Y-79087897D01*
X151493713Y-78862139D01*
X151493710Y-78862131D01*
X151400164Y-78648869D01*
X151400160Y-78648859D01*
X151319435Y-78525300D01*
X151272784Y-78453894D01*
X151272783Y-78453892D01*
X151115050Y-78282548D01*
X151115048Y-78282547D01*
X151115046Y-78282544D01*
X150931260Y-78139498D01*
X150726437Y-78028653D01*
X150726433Y-78028651D01*
X150726430Y-78028650D01*
X150506167Y-77953034D01*
X150506158Y-77953031D01*
X150276450Y-77914700D01*
X150276446Y-77914700D01*
X150043554Y-77914700D01*
X150043550Y-77914700D01*
X149813841Y-77953031D01*
X149813832Y-77953034D01*
X149593569Y-78028650D01*
X149388740Y-78139498D01*
X149204949Y-78282548D01*
X149047216Y-78453892D01*
X149047215Y-78453894D01*
X148919844Y-78648852D01*
X148919835Y-78648869D01*
X148826289Y-78862131D01*
X148826286Y-78862139D01*
X148769116Y-79087897D01*
X148769115Y-79087903D01*
X148749884Y-79320000D01*
X146770598Y-79320000D01*
X150116050Y-77388502D01*
X150175263Y-77378062D01*
X150203946Y-77388502D01*
G37*
%TD.AperFunction*%
%TD*%
M02*
