%TF.GenerationSoftware,KiCad,Pcbnew,7.0.5*%
%TF.CreationDate,2024-01-17T23:09:27-05:00*%
%TF.ProjectId,BURNING_R,4255524e-494e-4475-9f52-2e6b69636164,rev?*%
%TF.SameCoordinates,Original*%
%TF.FileFunction,Soldermask,Top*%
%TF.FilePolarity,Negative*%
%FSLAX46Y46*%
G04 Gerber Fmt 4.6, Leading zero omitted, Abs format (unit mm)*
G04 Created by KiCad (PCBNEW 7.0.5) date 2024-01-17 23:09:27*
%MOMM*%
%LPD*%
G01*
G04 APERTURE LIST*
G04 Aperture macros list*
%AMRoundRect*
0 Rectangle with rounded corners*
0 $1 Rounding radius*
0 $2 $3 $4 $5 $6 $7 $8 $9 X,Y pos of 4 corners*
0 Add a 4 corners polygon primitive as box body*
4,1,4,$2,$3,$4,$5,$6,$7,$8,$9,$2,$3,0*
0 Add four circle primitives for the rounded corners*
1,1,$1+$1,$2,$3*
1,1,$1+$1,$4,$5*
1,1,$1+$1,$6,$7*
1,1,$1+$1,$8,$9*
0 Add four rect primitives between the rounded corners*
20,1,$1+$1,$2,$3,$4,$5,0*
20,1,$1+$1,$4,$5,$6,$7,0*
20,1,$1+$1,$6,$7,$8,$9,0*
20,1,$1+$1,$8,$9,$2,$3,0*%
G04 Aperture macros list end*
%ADD10C,0.817161*%
%ADD11C,0.254000*%
%ADD12C,0.150000*%
%ADD13RoundRect,0.150000X0.587500X0.150000X-0.587500X0.150000X-0.587500X-0.150000X0.587500X-0.150000X0*%
%ADD14RoundRect,0.150000X0.150000X0.625000X-0.150000X0.625000X-0.150000X-0.625000X0.150000X-0.625000X0*%
%ADD15RoundRect,0.250000X0.350000X0.650000X-0.350000X0.650000X-0.350000X-0.650000X0.350000X-0.650000X0*%
%ADD16RoundRect,0.237500X0.300000X0.237500X-0.300000X0.237500X-0.300000X-0.237500X0.300000X-0.237500X0*%
%ADD17RoundRect,0.150000X-0.587500X-0.150000X0.587500X-0.150000X0.587500X0.150000X-0.587500X0.150000X0*%
%ADD18RoundRect,0.237500X-0.130232X-0.349431X0.367732X-0.061931X0.130232X0.349431X-0.367732X0.061931X0*%
%ADD19R,1.350000X1.350000*%
%ADD20O,1.350000X1.350000*%
%ADD21R,1.700000X1.700000*%
%ADD22O,1.700000X1.700000*%
%ADD23RoundRect,0.250000X-0.450000X0.325000X-0.450000X-0.325000X0.450000X-0.325000X0.450000X0.325000X0*%
%ADD24RoundRect,0.150000X-0.150000X-0.625000X0.150000X-0.625000X0.150000X0.625000X-0.150000X0.625000X0*%
%ADD25RoundRect,0.250000X-0.350000X-0.650000X0.350000X-0.650000X0.350000X0.650000X-0.350000X0.650000X0*%
%ADD26RoundRect,0.100000X-0.637500X-0.100000X0.637500X-0.100000X0.637500X0.100000X-0.637500X0.100000X0*%
G04 APERTURE END LIST*
D10*
X135433740Y-97548621D02*
G75*
G03*
X135433740Y-97548621I-408580J0D01*
G01*
D11*
X135060129Y-99578461D02*
X158000000Y-99578461D01*
X158000000Y-100988621D01*
X135060129Y-100988621D01*
X135060129Y-99578461D01*
G36*
X135060129Y-99578461D02*
G01*
X158000000Y-99578461D01*
X158000000Y-100988621D01*
X135060129Y-100988621D01*
X135060129Y-99578461D01*
G37*
D12*
X159610000Y-95898621D02*
X159610000Y-99798621D01*
X159060000Y-100398621D01*
X158910000Y-100648621D01*
X158760000Y-100848621D01*
X158510000Y-101048621D01*
X158010000Y-101048621D01*
X158000000Y-99578461D01*
X158310000Y-99298621D01*
X158310000Y-96298621D01*
X157560000Y-95598621D01*
X157560000Y-93698621D01*
X159610000Y-95898621D01*
G36*
X159610000Y-95898621D02*
G01*
X159610000Y-99798621D01*
X159060000Y-100398621D01*
X158910000Y-100648621D01*
X158760000Y-100848621D01*
X158510000Y-101048621D01*
X158010000Y-101048621D01*
X158000000Y-99578461D01*
X158310000Y-99298621D01*
X158310000Y-96298621D01*
X157560000Y-95598621D01*
X157560000Y-93698621D01*
X159610000Y-95898621D01*
G37*
X153260000Y-97398621D02*
X153260000Y-99498621D01*
X152060000Y-99498621D01*
X152060000Y-97898621D01*
X149760000Y-95598621D01*
X149760000Y-94398621D01*
X149960000Y-94098621D01*
X153260000Y-97398621D01*
G36*
X153260000Y-97398621D02*
G01*
X153260000Y-99498621D01*
X152060000Y-99498621D01*
X152060000Y-97898621D01*
X149760000Y-95598621D01*
X149760000Y-94398621D01*
X149960000Y-94098621D01*
X153260000Y-97398621D01*
G37*
X153260000Y-103648621D02*
X154660000Y-105048621D01*
X154660000Y-106098621D01*
X154310000Y-106348621D01*
X152060000Y-104098621D01*
X152060000Y-100998621D01*
X153260000Y-100998621D01*
X153260000Y-103648621D01*
G36*
X153260000Y-103648621D02*
G01*
X154660000Y-105048621D01*
X154660000Y-106098621D01*
X154310000Y-106348621D01*
X152060000Y-104098621D01*
X152060000Y-100998621D01*
X153260000Y-100998621D01*
X153260000Y-103648621D01*
G37*
X131285000Y-98098621D02*
X132710000Y-98098621D01*
X132710000Y-101398621D01*
X131285000Y-101398621D01*
X131285000Y-98098621D01*
G36*
X131285000Y-98098621D02*
G01*
X132710000Y-98098621D01*
X132710000Y-101398621D01*
X131285000Y-101398621D01*
X131285000Y-98098621D01*
G37*
X134335000Y-97548621D02*
X135760000Y-97548621D01*
X135760000Y-100298621D01*
X134335000Y-100298621D01*
X134335000Y-97548621D01*
G36*
X134335000Y-97548621D02*
G01*
X135760000Y-97548621D01*
X135760000Y-100298621D01*
X134335000Y-100298621D01*
X134335000Y-97548621D01*
G37*
X132060000Y-94673621D02*
X132985000Y-94673621D01*
X132985000Y-96123621D01*
X132060000Y-96123621D01*
X132060000Y-94673621D01*
G36*
X132060000Y-94673621D02*
G01*
X132985000Y-94673621D01*
X132985000Y-96123621D01*
X132060000Y-96123621D01*
X132060000Y-94673621D01*
G37*
X145510000Y-103748621D02*
X146710000Y-104948621D01*
X146710000Y-105798621D01*
X146360000Y-106348621D01*
X144260000Y-104248621D01*
X144260000Y-100998621D01*
X145510000Y-100998621D01*
X145510000Y-103748621D01*
G36*
X145510000Y-103748621D02*
G01*
X146710000Y-104948621D01*
X146710000Y-105798621D01*
X146360000Y-106348621D01*
X144260000Y-104248621D01*
X144260000Y-100998621D01*
X145510000Y-100998621D01*
X145510000Y-103748621D01*
G37*
X145460000Y-97498621D02*
X145460000Y-99498621D01*
X144260000Y-99498621D01*
X144260000Y-97998621D01*
X141760000Y-95498621D01*
X141760000Y-94498621D01*
X142160000Y-94198621D01*
X145460000Y-97498621D01*
G36*
X145460000Y-97498621D02*
G01*
X145460000Y-99498621D01*
X144260000Y-99498621D01*
X144260000Y-97998621D01*
X141760000Y-95498621D01*
X141760000Y-94498621D01*
X142160000Y-94198621D01*
X145460000Y-97498621D01*
G37*
D10*
X133333740Y-95423621D02*
G75*
G03*
X133333740Y-95423621I-408580J0D01*
G01*
D12*
X135510000Y-96998621D02*
X134360000Y-97873621D01*
X132585000Y-96098621D01*
X133460000Y-94898621D01*
X135510000Y-96998621D01*
G36*
X135510000Y-96998621D02*
G01*
X134360000Y-97873621D01*
X132585000Y-96098621D01*
X133460000Y-94898621D01*
X135510000Y-96998621D01*
G37*
X137860000Y-104048621D02*
X138860000Y-105048621D01*
X138860000Y-105798621D01*
X138410000Y-106248621D01*
X136660000Y-104498621D01*
X136660000Y-100998621D01*
X137860000Y-100998621D01*
X137860000Y-104048621D01*
G36*
X137860000Y-104048621D02*
G01*
X138860000Y-105048621D01*
X138860000Y-105798621D01*
X138410000Y-106248621D01*
X136660000Y-104498621D01*
X136660000Y-100998621D01*
X137860000Y-100998621D01*
X137860000Y-104048621D01*
G37*
D11*
X135750290Y-100268621D02*
G75*
G03*
X135750290Y-100268621I-690161J0D01*
G01*
D13*
%TO.C,Q5*%
X149085000Y-98648621D03*
X149085000Y-96748621D03*
X147210000Y-97698621D03*
%TD*%
D14*
%TO.C,J3*%
X141760000Y-105773621D03*
X140760000Y-105773621D03*
X139760000Y-105773621D03*
X138760000Y-105773621D03*
D15*
X143060000Y-108298621D03*
X137460000Y-108298621D03*
%TD*%
D16*
%TO.C,C2*%
X167222500Y-96498621D03*
X165497500Y-96498621D03*
%TD*%
D17*
%TO.C,Q3*%
X155102500Y-101848621D03*
X155102500Y-103748621D03*
X156977500Y-102798621D03*
%TD*%
D18*
%TO.C,D1*%
X137692228Y-85216121D03*
X139207772Y-84341121D03*
%TD*%
D19*
%TO.C,J10*%
X132000000Y-103548621D03*
D20*
X132000000Y-101548621D03*
%TD*%
D13*
%TO.C,Q4*%
X141187500Y-98648621D03*
X141187500Y-96748621D03*
X139312500Y-97698621D03*
%TD*%
D21*
%TO.C,J1*%
X143810000Y-86465599D03*
D22*
X143810000Y-83925599D03*
X146350000Y-86465599D03*
X146350000Y-83925599D03*
X148890000Y-86465599D03*
X148890000Y-83925599D03*
X151430000Y-86465599D03*
X151430000Y-83925599D03*
X153970000Y-86465599D03*
X153970000Y-83925599D03*
X156510000Y-86465599D03*
X156510000Y-83925599D03*
%TD*%
D14*
%TO.C,J5*%
X157560000Y-105773621D03*
X156560000Y-105773621D03*
X155560000Y-105773621D03*
X154560000Y-105773621D03*
D15*
X158860000Y-108298621D03*
X153260000Y-108298621D03*
%TD*%
D23*
%TO.C,C3*%
X135060000Y-100273621D03*
X135060000Y-102323621D03*
%TD*%
D24*
%TO.C,J8*%
X154560000Y-94623621D03*
X155560000Y-94623621D03*
X156560000Y-94623621D03*
X157560000Y-94623621D03*
D25*
X153260000Y-92098621D03*
X158860000Y-92098621D03*
%TD*%
D24*
%TO.C,J6*%
X138760000Y-94623621D03*
X139760000Y-94623621D03*
X140760000Y-94623621D03*
X141760000Y-94623621D03*
D25*
X137460000Y-92098621D03*
X143060000Y-92098621D03*
%TD*%
D21*
%TO.C,J2*%
X156510000Y-113743621D03*
D22*
X156510000Y-116283621D03*
X153970000Y-113743621D03*
X153970000Y-116283621D03*
X151430000Y-113743621D03*
X151430000Y-116283621D03*
X148890000Y-113743621D03*
X148890000Y-116283621D03*
X146350000Y-113743621D03*
X146350000Y-116283621D03*
X143810000Y-113743621D03*
X143810000Y-116283621D03*
%TD*%
D17*
%TO.C,Q1*%
X139312500Y-101828621D03*
X139312500Y-103728621D03*
X141187500Y-102778621D03*
%TD*%
D19*
%TO.C,J9*%
X132000000Y-97418621D03*
D20*
X132000000Y-95418621D03*
%TD*%
D26*
%TO.C,U1*%
X161497500Y-97823621D03*
X161497500Y-98473621D03*
X161497500Y-99123621D03*
X161497500Y-99773621D03*
X161497500Y-100423621D03*
X161497500Y-101073621D03*
X161497500Y-101723621D03*
X161497500Y-102373621D03*
X167222500Y-102373621D03*
X167222500Y-101723621D03*
X167222500Y-101073621D03*
X167222500Y-100423621D03*
X167222500Y-99773621D03*
X167222500Y-99123621D03*
X167222500Y-98473621D03*
X167222500Y-97823621D03*
%TD*%
D13*
%TO.C,Q6*%
X156977500Y-98648621D03*
X156977500Y-96748621D03*
X155102500Y-97698621D03*
%TD*%
D14*
%TO.C,J4*%
X149660000Y-105773621D03*
X148660000Y-105773621D03*
X147660000Y-105773621D03*
X146660000Y-105773621D03*
D15*
X150960000Y-108298621D03*
X145360000Y-108298621D03*
%TD*%
D24*
%TO.C,J7*%
X146660000Y-94623621D03*
X147660000Y-94623621D03*
X148660000Y-94623621D03*
X149660000Y-94623621D03*
D25*
X145360000Y-92098621D03*
X150960000Y-92098621D03*
%TD*%
D17*
%TO.C,Q2*%
X147210000Y-101848621D03*
X147210000Y-103748621D03*
X149085000Y-102798621D03*
%TD*%
M02*
